# Created by Kenney (www.kenney.nl)

mtllib apple.mtl

g apple

v 0.044744 0 7.219114E-16
v 0.03163878 0 -0.03163878
v 0.03163878 0 0.03163878
v -3.609557E-16 0 0.044744
v -3.609557E-16 0 -0.044744
v -0.03163878 0 0.03163878
v -0.03163878 0 -0.03163878
v -0.044744 0 7.219114E-16
v -3.609557E-16 0.03196 0.07896
v -0.05583315 0.03196 0.05583315
v 0.05583315 0.03196 0.05583315
v 0.05583315 0.03196 -0.05583315
v -3.609557E-16 0.03196 -0.07896
v -0.05583315 0.03196 -0.05583315
v -0.07896 0.03196 3.609557E-16
v 0.07896 0.03196 3.609557E-16
v 0.06162668 0.157016 3.609557E-16
v 0.04357664 0.157016 0.04357664
v 0.04357664 0.157016 -0.04357664
v 0.0403565 0.157016 0
v 0.02853636 0.157016 -0.02853636
v 0.02853636 0.157016 0.02853636
v 0 0.157016 -0.06162668
v 3.609557E-16 0.157016 -0.0403565
v -0.02853636 0.157016 -0.02853636
v 0 0.157016 0.06162668
v 3.609557E-16 0.157016 0.0403565
v -0.02853636 0.157016 0.02853636
v -0.04357664 0.157016 -0.04357664
v -0.04357664 0.157016 0.04357664
v -0.0403565 0.157016 0
v -0.06162668 0.157016 3.609557E-16
v -0.01854863 0.147016 0.01854863
v -0.02623173 0.147016 3.609557E-16
v 3.609557E-16 0.147016 -0.02623173
v -0.01854863 0.147016 -0.01854863
v -0.09814728 0.098664 0
v -0.08931402 0.134232 0
v -0.06940061 0.098664 0.06940061
v -0.06315455 0.134232 0.06315455
v -0.06940061 0.098664 -0.06940061
v 0.06940061 0.098664 -0.06940061
v 0.09814728 0.098664 0
v -3.609557E-16 0.098664 0.09814728
v 0.06940061 0.098664 0.06940061
v -3.609557E-16 0.134232 0.08931402
v -3.609557E-16 0.098664 -0.09814728
v -0.06315455 0.134232 -0.06315455
v -3.609557E-16 0.134232 -0.08931402
v 0.08931402 0.134232 0
v 0.06315455 0.134232 0.06315455
v 0.06315455 0.134232 -0.06315455
v 0.01854863 0.147016 0.01854863
v 3.609557E-16 0.147016 0.02623173
v 0.02623173 0.147016 3.609557E-16
v 0.01854863 0.147016 -0.01854863
v 0.005381376 0.147016 -0.005381376
v -0.005381376 0.147016 -0.005381376
v 0.005381376 0.147016 0.005381376
v -0.005381376 0.147016 0.005381376
v -0.0096096 0.1907534 -0.0096096
v 0.0096096 0.1907534 -0.0096096
v -0.0096096 0.1907534 0.0096096
v 0.0096096 0.1907534 0.0096096
v 0 0.1618498 -0.03919644
v 0 0.1688847 -0.007495488
v -0.02291026 0.1710679 -0.01564339
v -0.0324 0.1763387 -0.03531415
v 0.0324 0.1763387 -0.03531415
v 0.02291026 0.1710679 -0.01564339
v 0 0.1767578 -0.09483376

vn 0 -1 0
vn 0 -0.7307882 0.6826043
vn -0.4826741 -0.7307881 0.4826741
vn 0.4826741 -0.7307881 0.4826741
vn 0.4826741 -0.7307881 -0.4826741
vn 0 -0.7307882 -0.6826043
vn -0.4826741 -0.7307881 -0.4826741
vn -0.6826043 -0.7307882 0
vn 0.6826043 -0.7307882 0
vn 0 1 0
vn 0.4085826 0.8161621 -0.4085826
vn 0.5778231 0.816162 0
vn 0 0.816162 0.5778231
vn 0.4085826 0.8161621 0.4085826
vn -0.9705185 0.2410267 0
vn -0.6862602 0.2410267 0.6862602
vn -0.6795519 -0.2764389 -0.6795519
vn -0.9610314 -0.2764389 0
vn 0.6795519 -0.2764389 -0.6795519
vn 0.9610314 -0.2764389 0
vn 0 -0.2764389 0.9610314
vn -0.6795519 -0.2764389 0.6795519
vn 0.6795519 -0.2764389 0.6795519
vn 0 0.2410267 0.9705185
vn -0.6862602 0.2410267 -0.6862602
vn 0 0.2410267 -0.9705185
vn 0.9705185 0.2410267 0
vn 0.6862602 0.2410267 0.6862602
vn 0.6862602 0.2410267 -0.6862602
vn 0 -0.2764389 -0.9610314
vn -0.4085826 0.8161621 -0.4085826
vn 0 0.816162 -0.5778231
vn -0.5778231 0.816162 0
vn -0.4085826 0.8161621 0.4085826
vn 0 0.7721675 0.635419
vn -0.4493091 0.7721675 0.4493091
vn 0.635419 0.7721675 0
vn 0.4493091 0.7721675 0.4493091
vn 0 0.7721675 -0.635419
vn -0.4493091 0.7721675 -0.4493091
vn -0.635419 0.7721675 0
vn 0.4493091 0.7721675 -0.4493091
vn 0 -0.09622436 -0.9953597
vn -0.9953597 -0.09622436 0
vn 0 -0.09622436 0.9953597
vn 0.9953597 -0.09622436 0
vn 0 0.9961066 0.08815719
vn 0 0.9762506 -0.2166441
vn 0.3037909 0.9496877 -0.07618576
vn -0.3037909 -0.9496877 0.07618576
vn 0 -0.9762506 0.2166441
vn 0 -0.9961066 -0.08815719
vn 0.4178621 0.8986459 0.1335173
vn -0.4178621 -0.8986459 -0.1335173
vn -0.4178621 0.8986459 0.1335173
vn -0.3037909 0.9496877 -0.07618576
vn 0.3037909 -0.9496877 0.07618576
vn 0.4178621 -0.8986459 -0.1335173
vn 0 0.9659258 0.258819
vn 0 -0.9659258 -0.258819

vt 1.761575 2.842171E-14
vt 1.245621 -1.245621
vt 1.245621 1.245621
vt -1.421085E-14 1.761575
vt -1.421085E-14 -1.761575
vt -1.245621 1.245621
vt -1.245621 -1.245621
vt -1.761575 2.842171E-14
vt 1.189633 2.914261
vt 0.6741255 1.144478
vt -1.189633 2.914261
vt -0.6741255 1.144478
vt -2.426247 1.421085E-14
vt -1.715616 1.715616
vt -1.715616 -1.715616
vt -1.588839 0
vt -1.123479 -1.123479
vt -1.123479 1.123479
vt 0 -2.426247
vt -1.421085E-14 -1.588839
vt 1.123479 -1.123479
vt 0 2.426247
vt -1.421085E-14 1.588839
vt 1.123479 1.123479
vt 1.715616 -1.715616
vt 1.715616 1.715616
vt 1.588839 0
vt 2.426247 1.421085E-14
vt -0.3952144 4.277918
vt -0.6080222 4.925184
vt 0.3952144 4.277918
vt 0.6080222 4.925184
vt -1.478714 2.987676
vt -1.34563 4.424378
vt 1.478714 2.987676
vt 1.34563 4.424378
vt -1.478714 4.670998
vt 1.478714 4.670998
vt -1.189633 1.953703
vt 1.189633 1.953703
vt -1.032745 1.421085E-14
vt -0.730261 0.730261
vt -0.730261 -0.730261
vt -1.421085E-14 -1.032745
vt -0.2118652 -0.2118652
vt 0.2118652 -0.2118652
vt -0.2118652 0.2118652
vt -1.421085E-14 1.032745
vt 0.730261 -0.730261
vt 0.2118652 0.2118652
vt 0.730261 0.730261
vt 1.032745 1.421085E-14
vt 0.9284846 2.437743
vt 1.34563 1.089104
vt -0.9284846 2.437743
vt -1.34563 1.089104
vt 0.2118652 5.78156
vt -0.2118652 5.78156
vt 0.3783307 7.511533
vt -0.3783307 7.511533
vt -0.3783307 -0.3783307
vt -0.3783307 0.3783307
vt 0.3783307 -0.3783307
vt 0.3783307 0.3783307
vt 0.9529138 0.5620043
vt 0.1822246 1.582016
vt 1.089776 1.898568
vt 1.534091 2.794783
vt 0.514578 3.669841
vt 1.244002 4.170185
vt -1.244002 4.170185
vt -0.514578 3.669841
vt -1.534091 2.794783
vt 3.25892 4.946456
vt 1.346968 3.727039
vt 0.5911033 4.912176
vt -3.25892 4.946456
vt -0.5911033 4.912176
vt -1.346968 3.727039
vt -0.9529138 0.5620043
vt -1.089776 1.898568
vt -0.1822246 1.582016

usemtl red

f 3/3/1 2/2/1 1/1/1
f 2/2/1 3/3/1 4/4/1
f 2/2/1 4/4/1 5/5/1
f 5/5/1 4/4/1 6/6/1
f 5/5/1 6/6/1 7/7/1
f 7/7/1 6/6/1 8/8/1
f 10/11/3 4/10/2 9/9/2
f 4/10/2 10/11/3 6/12/3
f 9/11/2 3/10/4 11/9/4
f 3/10/4 9/11/2 4/12/2
f 2/12/5 13/9/6 12/11/5
f 13/9/6 2/12/5 5/10/6
f 8/10/8 14/11/7 7/12/7
f 14/11/7 8/10/8 15/9/8
f 1/12/9 12/9/5 16/11/9
f 12/9/5 1/12/9 2/10/5
f 7/10/7 13/11/6 5/12/6
f 13/11/6 7/10/7 14/9/7
f 10/9/3 8/12/8 6/10/3
f 8/12/8 10/9/3 15/11/8
f 11/11/4 1/10/9 16/9/9
f 1/10/9 11/11/4 3/12/4
f 19/15/10 18/14/10 17/13/10
f 18/14/10 19/15/10 20/16/10
f 20/16/10 19/15/10 21/17/10
f 22/18/10 18/14/10 20/16/10
f 21/17/10 19/15/10 23/19/10
f 21/17/10 23/19/10 24/20/10
f 24/20/10 23/19/10 25/21/10
f 18/14/10 22/18/10 26/22/10
f 26/22/10 22/18/10 27/23/10
f 26/22/10 27/23/10 28/24/10
f 25/21/10 23/19/10 29/25/10
f 26/22/10 28/24/10 30/26/10
f 25/21/10 29/25/10 31/27/10
f 30/26/10 28/24/10 31/27/10
f 30/26/10 31/27/10 29/25/10
f 30/26/10 29/25/10 32/28/10
f 34/31/12 28/30/11 33/29/11
f 28/30/11 34/31/12 31/32/12
f 25/30/14 35/31/13 24/32/13
f 35/31/13 25/30/14 36/29/14
f 25/32/14 34/29/12 36/31/14
f 34/29/12 25/32/14 31/30/12
f 39/35/16 38/34/15 37/33/15
f 38/34/15 39/35/16 40/36/16
f 14/39/17 37/38/18 41/37/17
f 37/38/18 14/39/17 15/40/18
f 43/37/20 12/40/19 42/38/19
f 12/40/19 43/37/20 16/39/20
f 44/38/21 10/39/22 9/40/21
f 10/39/22 44/38/21 39/37/22
f 45/37/23 16/40/20 43/38/20
f 16/40/20 45/37/23 11/39/23
f 46/36/24 39/33/16 44/35/24
f 39/33/16 46/36/24 40/34/16
f 48/36/25 47/33/26 41/35/25
f 47/33/26 48/36/25 49/34/26
f 51/34/28 43/35/27 50/36/27
f 43/35/27 51/34/28 45/33/28
f 15/39/18 39/38/22 37/37/18
f 39/38/22 15/39/18 10/40/22
f 52/36/29 43/33/27 42/35/29
f 43/33/27 52/36/29 50/34/27
f 41/38/17 13/39/30 14/40/17
f 13/39/30 41/38/17 47/37/30
f 37/35/15 48/34/25 41/33/25
f 48/34/25 37/35/15 38/36/15
f 51/36/28 44/33/24 45/35/28
f 44/33/24 51/36/28 46/34/24
f 47/38/30 12/39/19 13/40/30
f 12/39/19 47/38/30 42/37/19
f 45/38/23 9/39/21 11/40/23
f 9/39/21 45/38/23 44/37/21
f 49/36/26 42/33/29 47/35/26
f 42/33/29 49/36/26 52/34/29
f 53/29/31 27/32/32 22/30/31
f 27/32/32 53/29/31 54/31/32
f 33/31/11 27/30/32 54/29/32
f 27/30/32 33/31/11 28/32/11
f 55/29/33 22/32/31 20/30/33
f 22/32/31 55/29/33 53/31/31
f 21/30/34 55/31/33 20/32/33
f 55/31/33 21/30/34 56/29/34
f 24/30/13 56/31/34 21/32/34
f 56/31/34 24/30/13 35/29/13
f 56/43/10 53/42/10 55/41/10
f 53/42/10 56/43/10 35/44/10
f 53/42/10 35/44/10 57/45/10
f 57/45/10 35/44/10 58/46/10
f 59/47/10 53/42/10 57/45/10
f 53/42/10 59/47/10 54/48/10
f 58/46/10 35/44/10 36/49/10
f 54/48/10 59/47/10 60/50/10
f 58/46/10 36/49/10 60/50/10
f 54/48/10 60/50/10 33/51/10
f 33/51/10 60/50/10 36/49/10
f 33/51/10 36/49/10 34/52/10
f 30/55/36 46/54/35 26/53/35
f 46/54/35 30/55/36 40/56/36
f 17/53/37 51/56/38 50/54/37
f 51/56/38 17/53/37 18/55/38
f 18/53/38 46/56/35 51/54/38
f 46/56/35 18/53/38 26/55/35
f 49/56/39 29/53/40 23/55/39
f 29/53/40 49/56/39 48/54/40
f 48/56/40 32/53/41 29/55/40
f 32/53/41 48/56/40 38/54/41
f 49/54/39 19/55/42 52/56/42
f 19/55/42 49/54/39 23/53/39
f 32/55/41 40/54/36 30/53/36
f 40/54/36 32/55/41 38/56/41
f 52/54/42 17/55/37 50/56/37
f 17/55/37 52/54/42 19/53/42

usemtl brown

f 61/59/43 57/58/43 58/57/43
f 57/58/43 61/59/43 62/60/43
f 58/58/44 63/59/44 61/60/44
f 63/59/44 58/58/44 60/57/44
f 61/63/10 64/62/10 62/61/10
f 64/62/10 61/63/10 63/64/10
f 64/59/45 60/58/45 59/57/45
f 60/58/45 64/59/45 63/60/45
f 64/60/46 57/57/46 62/59/46
f 57/57/46 64/60/46 59/58/46

usemtl green

f 67/67/49 66/66/48 65/65/47
f 65/65/52 66/66/51 67/67/50
f 68/70/53 67/69/49 65/68/47
f 65/68/52 67/69/50 68/70/54
f 65/73/47 70/72/56 69/71/55
f 69/71/58 70/72/57 65/73/52
f 68/76/53 65/75/47 71/74/59
f 71/74/60 65/75/52 68/76/54
f 65/79/47 69/78/55 71/77/59
f 71/77/60 69/78/58 65/79/52
f 66/82/48 70/81/56 65/80/47
f 65/80/52 70/81/57 66/82/51

