# Created by Kenney (www.kenney.nl)

mtllib banana.mtl

g banana

v 0.01265248 0.1958004 0.3149356
v -0.01265248 0.1958004 0.3149356
v 0.009372211 0.1599542 0.2375356
v -0.009372211 0.1599542 0.2375356
v -0.01874442 0.1435366 0.2375356
v -0.02530497 0.1736366 0.3149356
v 0.01874442 0.1435366 0.2375356
v 0.009372211 0.127119 0.2375356
v 0.02530497 0.1736366 0.3149356
v 0.01265248 0.1514729 0.3149356
v -0.01265248 0.1514729 0.3149356
v -0.009372211 0.127119 0.2375356
v -0.01192523 0.1478274 -0.3149356
v -0.02385046 0.1684825 -0.3149356
v -0.01327069 0.126897 -0.2920356
v -0.02654139 0.1498825 -0.2920356
v 0.02385046 0.1684825 -0.3149356
v 0.02654139 0.1498825 -0.2920356
v 0.01192523 0.1891377 -0.3149356
v 0.01327069 0.1728681 -0.2920356
v -0.01192523 0.1891377 -0.3149356
v -0.01327069 0.1728681 -0.2920356
v 0.01327069 0.126897 -0.2920356
v 0.01192523 0.1478274 -0.3149356
v -0.06879999 0.05958255 -0.0272472
v -0.0344 0.1191651 -0.0272472
v -0.060544 0.06613663 0.07048938
v -0.030272 0.1191651 0.07048938
v 0.030272 0.1191651 0.07048938
v 0.0344 0.1191651 -0.0272472
v 0.060544 0.06613663 0.07048938
v 0.06879999 0.05958255 -0.0272472
v 0.030272 0.01310816 0.07048938
v 0.0344 8.775736E-15 -0.0272472
v -0.030272 0.01310816 0.07048938
v -0.0344 0 -0.0272472
v 0.032336 0.1241901 -0.1304472
v 0.06467199 0.06818254 -0.1304472
v 0.02179584 0.1430171 0.1796847
v 0.04359168 0.1048366 0.1796847
v 0.032336 0.01217495 -0.1304472
v -0.032336 0.1241901 -0.1304472
v 0.02179584 0.06665613 0.1796847
v -0.02179584 0.06665613 0.1796847
v -0.02179584 0.1430171 0.1796847
v -0.04359168 0.1048366 0.1796847
v -0.02328192 0.06225708 -0.2341808
v 0.02328192 0.06225708 -0.2341808
v -0.032336 0.01217495 -0.1304472
v 0.02328192 0.142908 -0.2341808
v -0.02328192 0.142908 -0.2341808
v -0.04656384 0.1025825 -0.2341808
v -0.06467199 0.06818254 -0.1304472
v 0.04656384 0.1025825 -0.2341808

vn 0.4222775 0.8155799 -0.395615
vn -0.4222775 0.8155799 -0.395615
vn 0.5196372 0.7666688 -0.377089
vn -0.5196372 0.7666688 -0.377089
vn -0.9921071 -0.1196323 -0.03756892
vn -0.9858395 0.1101849 -0.126411
vn 0.9921071 -0.1196323 -0.03756892
vn 0.4404316 -0.861569 0.252426
vn 0.9858395 0.1101849 -0.126411
vn 0.5438801 -0.8067974 0.230808
vn 0 0 1
vn -0.5438801 -0.8067974 0.230808
vn -0.4404316 -0.861569 0.252426
vn -0.4883945 -0.6296358 -0.6041769
vn -0.9743649 0.2164562 0.06131625
vn -0.3307489 -0.686836 -0.6471952
vn -0.9450259 -0.1904982 -0.2657756
vn 0.9743649 0.2164562 0.06131625
vn 0.9450259 -0.1904982 -0.2657756
vn 0.3597641 0.7704718 0.5262538
vn 0.5444537 0.6985593 0.4643114
vn -0.3597641 0.7704718 0.5262538
vn -0.5444537 0.6985593 0.4643114
vn 0.3307489 -0.686836 -0.6471952
vn 0.4883945 -0.6296358 -0.6041769
vn 0 0 -1
vn -0.9962501 -0.01951735 0.08429018
vn -0.5105562 0.8595441 0.02272315
vn -0.9964216 0.0228396 0.08137843
vn -0.4917798 0.8704719 0.0207708
vn 0.4917798 0.8704719 0.0207708
vn 0.5105562 0.8595441 0.02272315
vn 0.9964216 0.0228396 0.08137843
vn 0.9962501 -0.01951735 0.08429018
vn 0.5054138 -0.8519573 0.1368421
vn 0.4875642 -0.8623896 0.1362541
vn -0.5054138 -0.8519573 0.1368421
vn -0.4875642 -0.8623896 0.1362541
vn 0.4883941 0.8720105 0.03269233
vn 0.9989261 0.0269096 -0.03771458
vn 0.511346 0.8587942 0.03158976
vn 0.9987766 -0.02592083 -0.04211114
vn 0.5472135 0.8255625 -0.1378545
vn 0.9777545 -0.09677639 0.1860927
vn 0.4511332 0.8785583 -0.1568888
vn 0.9871786 0.1122635 0.1134698
vn 0.5088277 -0.8536964 -0.1108908
vn 0.4860419 -0.8667326 -0.1119731
vn -0.511346 0.8587942 0.03158976
vn -0.4883941 0.8720105 0.03269233
vn 0.4202711 -0.8013895 0.425614
vn 0.507291 -0.7575288 0.4108601
vn -0.3154776 -0.6213824 0.7171875
vn -0.4280175 -0.5773411 0.695326
vn 0.3154776 -0.6213824 0.7171875
vn 0.4280175 -0.5773411 0.695326
vn 0.8770047 -0.1288597 0.4628801
vn 0.9417373 0.1954775 0.2737141
vn 0.588927 0.8009352 -0.1080177
vn 0.4117434 0.8946312 -0.1734999
vn -0.588927 0.8009352 -0.1080177
vn -0.4117434 0.8946312 -0.1734999
vn -0.8770047 -0.1288597 0.4628801
vn -0.9417373 0.1954775 0.2737141
vn -0.5472135 0.8255625 -0.1378545
vn -0.4511332 0.8785583 -0.1568888
vn -0.4202711 -0.8013895 0.425614
vn -0.507291 -0.7575288 0.4108601
vn -0.9777545 -0.09677639 0.1860927
vn -0.9871786 0.1122635 0.1134698
vn -0.3007364 -0.6097614 -0.7333134
vn 0.3007364 -0.6097614 -0.7333134
vn -0.4324395 -0.5632263 -0.7041107
vn 0.4324395 -0.5632263 -0.7041107
vn -0.4860419 -0.8667326 -0.1119731
vn -0.5088277 -0.8536964 -0.1108908
vn 0.5870311 0.7558944 0.289859
vn -0.5870311 0.7558944 0.289859
vn 0.3811727 0.8462415 0.3722671
vn -0.3811727 0.8462415 0.3722671
vn 0.543719 0.8329427 0.1028407
vn -0.543719 0.8329427 0.1028407
vn 0.4534065 0.8832166 0.1197949
vn -0.4534065 0.8832166 0.1197949
vn -0.984853 0.107005 -0.1364351
vn -0.9755376 -0.09054428 -0.2003199
vn -0.5015737 -0.7611194 -0.4112434
vn -0.4212993 -0.801776 -0.4238656
vn -0.962387 0.2294555 -0.1454695
vn -0.8851001 -0.1599207 -0.4370619
vn 0.4212993 -0.801776 -0.4238656
vn 0.5015737 -0.7611194 -0.4112434
vn -0.9989261 0.0269096 -0.03771458
vn -0.9987766 -0.02592083 -0.04211114
vn 0.984853 0.107005 -0.1364351
vn 0.9755376 -0.09054428 -0.2003199
vn 0.962387 0.2294555 -0.1454695
vn 0.8851001 -0.1599207 -0.4370619

vt -0.4981293 14.49056
vt 0.4981293 14.49056
vt -0.3689847 11.13238
vt 0.3689847 11.13238
vt 9.157008 5.936296
vt 9.048794 6.672655
vt 12.14601 7.286334
vt 11.99992 8.280418
vt -9.164611 5.904738
vt -9.214781 5.162163
vt -12.14844 7.266172
vt -12.21617 6.263696
vt -0.4981293 5.963498
vt -0.9962587 6.836088
vt 0.4981293 5.963498
vt 0.9962587 6.836088
vt -0.4981293 7.708677
vt 0.4981293 7.708677
vt 0.4981293 13.61727
vt 0.3689847 10.42274
vt -0.4981293 13.61727
vt -0.3689847 10.42274
vt 9.164611 5.904738
vt 12.14844 7.266172
vt 9.214781 5.162163
vt 12.21617 6.263696
vt -9.048794 6.672655
vt -9.157008 5.936296
vt -11.99992 8.280418
vt -12.14601 7.286334
vt -10.458 8.18641
vt -10.22049 9.094872
vt -9.653497 7.265841
vt -9.389194 8.276799
vt 12.00903 7.367762
vt 11.19358 6.533894
vt 11.85337 8.293764
vt 11.02035 7.564372
vt -12.00903 7.367762
vt -11.85337 8.293764
vt -11.19358 6.533894
vt -11.02035 7.564372
vt -0.5224683 11.85722
vt -0.4694973 13.07864
vt 0.5224683 11.85722
vt 0.4694973 13.07864
vt 10.458 8.18641
vt 9.653497 7.265841
vt 10.22049 9.094872
vt 9.389194 8.276799
vt 0.5224683 13.31454
vt -0.5224683 13.31454
vt 0.4694973 14.42049
vt -0.4694973 14.42049
vt 0.4694973 5.819978
vt -0.4694973 5.819978
vt 0.9389946 6.633171
vt -0.9389946 6.633171
vt 0.4694973 7.446364
vt -0.4694973 7.446364
vt -1.19541 0.7046692
vt -1.133507 3.412623
vt 2.663321 1.002544
vt -1.12892 3.427322
vt 2.722408 3.427322
vt 2.672115 1.023882
vt -2.722408 3.427322
vt 1.12892 3.427322
vt -2.672115 1.023882
vt 1.394753 3.301845
vt -2.609288 1.198846
vt -2.464079 3.598422
vt 1.386971 3.309272
vt 1.226048 0.6053947
vt -2.6139 1.200248
vt 2.609288 1.198846
vt -1.394753 3.301845
vt 2.464079 3.598422
vt 1.133507 3.412623
vt 1.19541 0.7046692
vt -2.663321 1.002544
vt -1.226048 0.6053947
vt -1.386971 3.309272
vt 2.6139 1.200248
vt 5.145875 3.61869
vt 5.156203 1.072569
vt 1.083676 3.39025
vt 1.094663 0.6816111
vt -2.828142 3.550418
vt -2.884181 1.147106
vt -7.106725 4.63142
vt -7.147073 2.901035
vt 5.004155 1.272486
vt 0.9497116 0.7195379
vt 4.892415 3.816175
vt 0.8308386 3.42559
vt 1.354331 1.299627
vt -1.354331 1.299627
vt 1.273071 5.367433
vt -1.273071 5.367433
vt -2.211872 1.428292
vt -6.372259 3.821751
vt -1.8106 3.79853
vt -6.083343 5.528323
vt -0.8581039 6.786726
vt -0.3689847 10.08125
vt 0.8581039 6.786726
vt 0.3689847 10.08125
vt -4.412032 6.119744
vt -4.952701 4.475501
vt -6.797028 7.78636
vt -7.029515 7.079336
vt 1.354331 -1.063205
vt -1.354331 -1.063205
vt 1.191811 2.819144
vt -1.191811 2.819144
vt -0.8581039 8.371283
vt -0.3689847 10.74448
vt 0.8581039 8.371283
vt 0.3689847 10.74448
vt 6.98456 2.569647
vt 7.025377 4.300021
vt 9.306108 4.323565
vt 9.32366 5.067626
vt -1.191811 3.712431
vt -0.8581039 8.112826
vt 1.191811 3.712431
vt 0.8581039 8.112826
vt 1.191811 2.71892
vt -1.191811 2.71892
vt 0.8581039 7.507041
vt -0.8581039 7.507041
vt -1.354331 -1.072725
vt -1.191811 2.775172
vt 1.354331 -1.072725
vt 1.191811 2.775172
vt 2.828142 3.550418
vt 7.106725 4.63142
vt 2.884181 1.147106
vt 7.147073 2.901035
vt 2.211872 1.428292
vt 1.8106 3.79853
vt 6.372259 3.821751
vt 6.083343 5.528323
vt -6.98456 2.569647
vt -9.306108 4.323565
vt -7.025377 4.300021
vt -9.32366 5.067626
vt 4.412032 6.119744
vt 6.797028 7.78636
vt 4.952701 4.475501
vt 7.029515 7.079336
vt 0.916611 7.975152
vt -0.916611 7.975152
vt 0.5224683 11.39049
vt -0.5224683 11.39049
vt -1.354331 1.065337
vt -1.273071 5.156505
vt 1.354331 1.065337
vt 1.273071 5.156505
vt 0.916611 10.77433
vt -0.916611 10.77433
vt 0.5224683 13.33937
vt -0.5224683 13.33937
vt 1.273071 5.922323
vt -1.273071 5.922323
vt 0.916611 10.07228
vt -0.916611 10.07228
vt -8.027851 5.881399
vt -3.947637 4.340821
vt -8.342912 4.075453
vt -4.385221 1.832563
vt -11.53792 5.319089
vt -11.47264 6.361984
vt -9.376526 3.173001
vt -9.261993 5.002642
vt -9.249372 2.659214
vt -9.233887 4.49237
vt -5.177998 1.095423
vt -5.156491 3.641474
vt -1.273071 4.833312
vt -0.916611 9.368377
vt 1.273071 4.833312
vt 0.916611 9.368377
vt -5.004155 1.272486
vt -4.892415 3.816175
vt -0.9497116 0.7195379
vt -0.8308386 3.42559
vt -8.568068 7.696415
vt -8.23724 8.687599
vt -6.555548 4.909004
vt -5.975149 6.647923
vt 8.027851 5.881399
vt 8.342912 4.075453
vt 3.947637 4.340821
vt 4.385221 1.832563
vt 9.249372 2.659214
vt 5.177998 1.095423
vt 9.233887 4.49237
vt 5.156491 3.641474
vt -5.145875 3.61869
vt -1.083676 3.39025
vt -5.156203 1.072569
vt -1.094663 0.6816111
vt 8.568068 7.696415
vt 6.555548 4.909004
vt 8.23724 8.687599
vt 5.975149 6.647923
vt 11.47264 6.361984
vt 11.53792 5.319089
vt 9.261993 5.002642
vt 9.376526 3.173001

usemtl brownDark

f 3/3/3 2/2/2 1/1/1
f 2/2/2 3/3/3 4/4/4
f 6/7/6 4/6/4 5/5/5
f 4/6/4 6/7/6 2/8/2
f 9/11/9 8/10/8 7/9/7
f 8/10/8 9/11/9 10/12/10
f 10/15/11 6/14/11 11/13/11
f 6/14/11 10/15/11 9/16/11
f 6/14/11 9/16/11 2/17/11
f 2/17/11 9/16/11 1/18/11
f 11/21/12 8/20/8 10/19/10
f 8/20/8 11/21/12 12/22/13
f 12/25/13 6/24/6 5/23/5
f 6/24/6 12/25/13 11/26/12
f 1/29/1 7/28/7 3/27/3
f 7/28/7 1/29/1 9/30/9
f 15/33/16 14/32/15 13/31/14
f 14/32/15 15/33/16 16/34/17
f 19/37/20 18/36/19 17/35/18
f 18/36/19 19/37/20 20/38/21
f 16/41/17 21/40/22 14/39/15
f 21/40/22 16/41/17 22/42/23
f 15/45/16 24/44/25 23/43/24
f 24/44/25 15/45/16 13/46/14
f 17/49/18 23/48/24 24/47/25
f 23/48/24 17/49/18 18/50/19
f 19/53/20 22/52/23 20/51/21
f 22/52/23 19/53/20 21/54/22
f 14/57/26 24/56/26 13/55/26
f 24/56/26 14/57/26 17/58/26
f 17/58/26 14/57/26 21/59/26
f 17/58/26 21/59/26 19/60/26

usemtl yellow

f 27/63/29 26/62/28 25/61/27
f 27/66/29 28/65/30 26/64/28
f 31/69/33 30/68/32 29/67/31
f 31/72/33 33/71/35 32/70/34
f 33/75/35 34/74/36 32/73/34
f 27/78/29 25/77/27 35/76/37
f 31/81/33 32/80/34 30/79/32
f 35/84/37 25/83/27 36/82/38
f 30/87/41 38/86/40 37/85/39
f 38/86/40 30/87/41 32/88/42
f 39/91/45 31/90/44 29/89/43
f 31/90/44 39/91/45 40/92/46
f 38/95/40 34/94/48 41/93/47
f 34/94/48 38/95/40 32/96/42
f 37/99/39 26/98/49 30/97/41
f 26/98/49 37/99/39 42/100/50
f 31/103/44 43/102/52 33/101/51
f 43/102/52 31/103/44 40/104/46
f 43/107/55 12/106/54 44/105/53
f 12/106/54 43/107/55 8/108/56
f 7/111/58 43/110/55 40/109/57
f 43/110/55 7/111/58 8/112/56
f 33/115/35 36/114/38 34/113/36
f 36/114/38 33/115/35 35/116/37
f 45/119/61 3/118/60 39/117/59
f 3/118/60 45/119/61 4/120/62
f 5/123/64 45/122/61 46/121/63
f 45/122/61 5/123/64 4/124/62
f 28/127/65 39/126/45 29/125/43
f 39/126/45 28/127/65 45/128/66
f 43/131/52 35/130/67 33/129/51
f 35/130/67 43/131/52 44/132/68
f 26/135/28 29/134/31 30/133/32
f 29/134/31 26/135/28 28/136/30
f 27/139/69 45/138/66 28/137/65
f 45/138/66 27/139/69 46/140/70
f 44/143/68 27/142/69 35/141/67
f 27/142/69 44/143/68 46/144/70
f 39/147/59 7/146/58 40/145/57
f 7/146/58 39/147/59 3/148/60
f 44/151/53 5/150/64 46/149/63
f 5/150/64 44/151/53 12/152/54
f 15/155/73 48/154/72 47/153/71
f 48/154/72 15/155/73 23/156/74
f 36/159/75 41/158/47 34/157/48
f 41/158/47 36/159/75 49/160/76
f 20/163/79 51/162/78 50/161/77
f 51/162/78 20/163/79 22/164/80
f 50/167/83 42/166/82 37/165/81
f 42/166/82 50/167/83 51/168/84
f 47/171/87 53/170/86 52/169/85
f 53/170/86 47/171/87 49/172/88
f 52/175/90 22/174/80 16/173/89
f 22/174/80 52/175/90 51/176/78
f 53/179/86 51/178/84 52/177/85
f 51/178/84 53/179/86 42/180/82
f 49/183/88 48/182/92 41/181/91
f 48/182/92 49/183/88 47/184/87
f 36/187/75 53/186/93 49/185/76
f 53/186/93 36/187/75 25/188/94
f 47/191/71 16/190/89 15/189/73
f 16/190/89 47/191/71 52/192/90
f 38/195/96 48/194/92 54/193/95
f 48/194/92 38/195/96 41/196/91
f 50/199/83 38/198/96 54/197/95
f 38/198/96 50/199/83 37/200/81
f 53/203/93 26/202/49 42/201/50
f 26/202/49 53/203/93 25/204/94
f 18/207/97 48/206/72 23/205/74
f 48/206/72 18/207/97 54/208/98
f 50/211/77 18/210/97 20/209/79
f 18/210/97 50/211/77 54/212/98

