# Created by Kenney (www.kenney.nl)

mtllib barrel.mtl

g barrel

v 0.35 0.130049 -0.0143026
v 0.38 0.130049 -0.0143026
v 0.35 0.150049 -0.0143026
v 0.38 0.219108 -0.0143026
v 0.35 0.219108 -0.0143026
v 0.38 0.2250323 0
v 0.38 0.130049 0.0143026
v 0.38 0.219108 0.0143026
v 0.35 0.130049 0.0143026
v 0.35 0.150049 0.0143026
v 0.35 0.219108 0.0143026
v -0.18 0.4800592 -0.3394531
v -0.18 0.6789062 -0.1406061
v -0.24 0.4800592 -0.3394531
v -0.24 0.6789062 -0.1406061
v 0.19 0.6789062 -0.1406061
v 0.19 0.6789062 0.1406061
v 0.13 0.6789062 -0.1406061
v 0.13 0.6789062 0.1406061
v 0.19 1.160516E-16 0.1406061
v 0.19 2.581269E-17 -0.1406061
v 0.13 9.023893E-17 0.1406061
v 0.13 0 -0.1406061
v 0.13 0.198847 0.3394531
v 0.13 0.4800592 0.3394531
v 0.19 0.198847 0.3394531
v 0.19 0.4800592 0.3394531
v -0.24 0.198847 -0.3394531
v -0.18 0.198847 -0.3394531
v 0.13 0.198847 -0.3394531
v 0.19 0.198847 -0.3394531
v 0.13 0.4800592 -0.3394531
v 0.19 0.4800592 -0.3394531
v -0.18 0.6789062 0.1406061
v -0.24 0.6789062 0.1406061
v -0.18 1.373512E-16 0.1406061
v -0.18 1.373512E-16 -0.1406061
v -0.24 1.115386E-16 0.1406061
v -0.24 1.115386E-16 -0.1406061
v -0.18 0.4800592 0.3394531
v -0.24 0.4800592 0.3394531
v 0.35 0.2131837 0.02860519
v 0.35 0.1559733 0.02860519
v 0.35 0.1845785 0.04045385
v -0.18 0.198847 0.3394531
v -0.24 0.198847 0.3394531
v 0.35 0.1845785 -0.04045385
v 0.35 0.1559733 -0.02860519
v 0.35 0.2131837 -0.02860519
v 0.28 0.2250323 0
v 0.28 0.2131837 0.02860519
v 0.28 0.1559733 0.02860519
v 0.35 0.1479515 0.009238795
v 0.35 0.1441246 0
v 0.28 0.1441246 0
v 0.28 0.1845785 -0.04045385
v 0.28 0.2131837 -0.02860519
v 0.28 0.1559733 -0.02860519
v 0.28 0.1845785 0.04045385
v -0.18 0.4678593 -0.31
v -0.18 0.2110469 -0.31
v -0.18 0.6494531 -0.1284062
v -0.18 0.02945312 -0.1284062
v -0.18 0.6494531 0.1284062
v -0.18 0.4678593 0.31
v -0.18 0.02945312 0.1284062
v -0.18 0.2110469 0.31
v 0.19 0.4678593 -0.31
v 0.19 0.2110469 -0.31
v 0.19 0.6494531 -0.1284062
v 0.19 0.02945312 -0.1284062
v 0.19 0.6494531 0.1284062
v 0.19 0.4678593 0.31
v 0.19 0.02945312 0.1284062
v 0.19 0.2110469 0.31
v -0.24 0.02945312 0.1284062
v -0.24 0.02945312 -0.1284062
v -0.24 0.2110469 0.31
v -0.24 0.2110469 -0.31
v -0.24 0.4678593 -0.31
v -0.24 0.6494531 -0.1284062
v -0.24 0.4678593 0.31
v -0.24 0.6494531 0.1284062
v 0.13 0.02945312 0.1284062
v 0.13 0.02945312 -0.1284062
v 0.13 0.2110469 0.31
v 0.13 0.2110469 -0.31
v 0.13 0.4678593 -0.31
v 0.13 0.6494531 -0.1284062
v 0.13 0.4678593 0.31
v 0.13 0.6494531 0.1284062
v 0.32 0.02945312 -0.1284062
v 0.32 0.2110469 -0.31
v 0.3 0.02945312 -0.1284062
v -0.38 0.2297676 0.2648042
v -0.35 0.2297676 0.2648042
v -0.38 0.4491386 0.2648042
v -0.35 0.4491386 0.2648042
v -0.35 0.0746489 -0.1096855
v -0.38 0.0746489 -0.1096855
v -0.35 0.2297676 -0.2648042
v -0.38 0.2297676 -0.2648042
v 0.33 0.6494531 -0.1284062
v 0.33 0.6494531 0.1284062
v 0.31 0.6494531 -0.1284062
v 0.35 0.2250323 -0.2762362
v 0.35 0.2110469 -0.31
v 0.32 0.2250323 -0.2762362
v 0.32 0.06321694 -0.1144208
v 0.29 0.02945312 0.1284062
v 0.29 0.2110469 0.31
v 0.33 0.2110469 0.31
v 0.33 0.4678593 0.31
v -0.35 0.0746489 0.1096855
v -0.38 0.0746489 0.1096855
v -0.35 0.6042573 0.1096855
v -0.35 0.6042573 -0.1096855
v -0.38 0.6042573 0.1096855
v -0.38 0.6042573 -0.1096855
v 0.31 0.4678593 -0.31
v 0.31 0.4538739 -0.2762362
v 0.31 0.6156893 -0.1144208
v -0.35 0.4491386 -0.2648042
v -0.38 0.4491386 -0.2648042
v 0.3 0.06321694 -0.1144208
v 0.29 0.06321694 0.1144208
v 0.3 0.02945312 0.1284062
v 0.3 0.06321694 0.1144208
v 0.29 0.2250323 0.2762362
v 0.35 0.4678593 0.31
v 0.35 0.6494531 0.1284062
v 0.35 0.4678593 -0.31
v 0.33 0.6156893 0.1144208
v 0.33 0.6156893 -0.1144208
v 0.28 0.6156893 0.1144208
v 0.28 0.6156893 -0.1144208
v 0.35 0.6156893 0.1144208
v 0.35 0.4538739 0.2762362
v 0.35 0.4538739 -0.2762362
v 0.28 0.4538739 -0.2762362
v 0.28 0.2250323 -0.2762362
v 0.28 0.06321694 -0.1144208
v 0.28 0.06321694 0.1144208
v 0.28 0.06321694 0
v 0.33 0.4538739 0.2762362
v 0.28 0.4538739 0.2762362
v 0.28 0.2250323 0.2762362
v 0.33 0.2250323 0.2762362
v -0.38 0.2110469 0.31
v -0.38 0.4678593 0.31
v -0.38 0.4678593 -0.31
v -0.38 0.6494531 -0.1284062
v -0.38 0.2110469 -0.31
v -0.38 0.02945312 -0.1284062
v -0.38 0.6494531 0.1284062
v -0.38 0.02945312 0.1284062

vn 0 0 -1
vn 1 0 0
vn 0 0 1
vn 0 0.3826834 -0.9238795
vn 0 0.9238795 -0.3826834
vn 0 0.9238795 0.3826834
vn 0 -0.9238795 0.3826834
vn 0 -0.9238795 -0.3826834
vn 0 -0.3826834 0.9238795
vn 0 0.3826834 0.9238795
vn 0 -0.3826834 -0.9238795
vn 0 -1 0
vn 0 1 0
vn 0 0.7071068 0.7071068
vn 0 -0.7071068 0.7071068
vn 0 0.7071068 -0.7071068
vn 0 -0.7071068 -0.7071068
vn -1 0 0

vt -13.77953 5.120038
vt -14.96063 5.120038
vt -13.77953 5.90744
vt -14.96063 8.6263
vt -13.77953 8.6263
vt 0.5630944 8.6263
vt 0.5630944 5.120038
vt 0 8.859541
vt -0.5630944 5.120038
vt -0.5630944 8.6263
vt 13.77953 5.120038
vt 13.77953 5.90744
vt 14.96063 5.120038
vt 14.96063 8.6263
vt 13.77953 8.6263
vt 7.086614 3.914312
vt 7.086614 14.98566
vt 9.448819 3.914312
vt 9.448819 14.98566
vt -7.480315 -5.535673
vt -7.480315 5.535673
vt -5.11811 -5.535673
vt -5.11811 5.535673
vt 7.480315 5.535673
vt 7.480315 -5.535673
vt 5.11811 5.535673
vt 5.11811 -5.535673
vt 5.11811 7.828623
vt 5.11811 18.89997
vt 7.480315 7.828623
vt 7.480315 18.89997
vt 9.448819 7.828623
vt 7.086614 7.828623
vt 9.448819 18.89997
vt 7.086614 18.89997
vt -5.11811 7.828623
vt -7.480315 7.828623
vt -5.11811 18.89997
vt -7.480315 18.89997
vt -7.480315 3.914312
vt -7.480315 14.98566
vt -5.11811 3.914312
vt -5.11811 14.98566
vt 7.086614 -5.535673
vt 7.086614 5.535673
vt 9.448819 -5.535673
vt 9.448819 5.535673
vt -7.086614 5.535673
vt -7.086614 -5.535673
vt -9.448819 5.535673
vt -9.448819 -5.535673
vt -7.086614 3.914312
vt -9.448819 3.914312
vt -7.086614 14.98566
vt -9.448819 14.98566
vt 7.480315 3.914312
vt 5.11811 3.914312
vt 7.480315 14.98566
vt 5.11811 14.98566
vt -0.5630944 5.90744
vt -1.126189 8.393059
vt -1.126189 6.140681
vt -1.592671 7.26687
vt 1.592671 7.26687
vt 1.126189 6.140681
vt 1.126189 8.393059
vt 0.5630944 5.90744
vt -7.086614 7.828623
vt -9.448819 7.828623
vt -7.086614 18.89997
vt -9.448819 18.89997
vt 14.96063 0.5630944
vt 14.96063 -0.5630944
vt 13.77953 0.5630944
vt 13.77953 -0.5630944
vt 14.96063 3.3904
vt 14.96063 2.780911
vt 11.02362 3.3904
vt 13.77953 2.780911
vt 13.77953 2.171422
vt 11.02362 2.171422
vt 13.77953 3.3904
vt 13.77953 2.565123
vt -11.02362 6.104223
vt -13.77953 6.104223
vt -11.02362 7.323201
vt -13.77953 7.323201
vt 13.77953 6.104223
vt 11.02362 6.104223
vt 13.77953 7.323201
vt 11.02362 7.323201
vt -13.77953 2.171422
vt -13.77953 2.780911
vt -11.02362 2.171422
vt -13.77953 3.3904
vt -11.02362 3.3904
vt -14.96063 3.3904
vt -14.96063 2.780911
vt -2.862243E-16 5.674199
vt 0.3637321 5.824861
vt 13.3643 7.828623
vt 12.20472 18.41966
vt 13.3643 18.89997
vt 5.535673 26.72859
vt 12.20472 8.308934
vt 5.055362 25.56902
vt 5.535673 8.623511E-15
vt 5.055362 1.159572
vt -5.535673 26.72859
vt -5.055362 25.56902
vt -12.20472 18.41966
vt -13.3643 18.89997
vt -5.535673 8.623511E-15
vt -5.055362 1.159572
vt -12.20472 8.308934
vt -13.3643 7.828623
vt 5.535673 -1.881265E-15
vt -5.535673 1.671448E-15
vt 5.535673 7.423338E-15
vt -5.535673 7.423338E-15
vt 5.535673 1.570205E-15
vt -5.535673 -1.982509E-15
vt -12.59842 4.394622
vt -12.59842 14.50535
vt -11.81102 4.394622
vt -7.480315 14.50535
vt -7.480315 4.394622
vt 14.96063 9.045969
vt 13.77953 9.045969
vt 14.96063 17.68262
vt 13.77953 17.68262
vt -13.77953 5.131658
vt -14.96063 5.131658
vt -13.77953 13.76831
vt -14.96063 13.76831
vt -12.99213 -5.055362
vt -12.99213 5.055362
vt -12.20472 -5.055362
vt -7.480315 5.055362
vt -7.480315 -5.055362
vt 13.77953 -6.657197
vt 13.77953 -8.096004
vt 12.59842 -6.657197
vt 12.59842 -8.096004
vt 10.87544 8.859541
vt 4.504755 2.488856
vt 11.41732 4.394622
vt 7.480315 4.394622
vt 11.41732 14.50535
vt 7.480315 14.50535
vt 7.480315 8.308934
vt 7.480315 18.41966
vt 11.41732 8.308934
vt 12.99213 8.308934
vt 12.99213 18.41966
vt 13.77953 5.131658
vt 13.77953 13.76831
vt 14.96063 5.131658
vt 14.96063 13.76831
vt 13.77953 -4.318327
vt 13.77953 4.318327
vt 14.96063 -4.318327
vt 14.96063 4.318327
vt -13.77953 4.318327
vt -13.77953 -4.318327
vt -14.96063 4.318327
vt -14.96063 -4.318327
vt 10.87544 17.86905
vt 4.504755 24.23974
vt -13.77953 9.045969
vt -14.96063 9.045969
vt -13.77953 17.68262
vt -14.96063 17.68262
vt 12.59842 -0.8632988
vt 11.81102 -0.8632988
vt 12.59842 0.5755078
vt 11.81102 0.5755078
vt 11.41732 -0.8632988
vt 11.41732 0.5755078
vt 11.81102 5.055362
vt 11.81102 -5.055362
vt 11.41732 5.055362
vt 7.480315 -5.055362
vt 7.480315 5.055362
vt -4.504755 2.488856
vt -10.87544 8.859541
vt 13.77953 4.394622
vt 12.99213 4.394622
vt 13.77953 14.50535
vt 12.99213 14.50535
vt -7.480315 8.308934
vt -12.59842 8.308934
vt -7.480315 18.41966
vt -13.77953 8.308934
vt -13.77953 18.41966
vt -12.20472 4.394622
vt -12.20472 14.50535
vt 12.99213 4.504755
vt 12.99213 -4.504755
vt 11.02362 4.504755
vt 12.20472 -4.504755
vt 11.02362 -4.504755
vt -4.504755 24.23974
vt -10.87544 17.86905
vt 13.77953 8.859541
vt 12.59842 8.859541
vt 13.77953 17.86905
vt 11.02362 17.86905
vt 12.20472 17.86905
vt 11.02362 8.859541
vt 13.77953 18.32459
vt 13.77953 16.88579
vt 12.20472 18.32459
vt 12.20472 16.88579
vt 12.59842 4.94523
vt 11.81102 4.94523
vt 12.59842 13.95474
vt 11.02362 13.95474
vt 11.02362 4.94523
vt -12.20472 24.11849
vt -12.99213 24.11849
vt -12.20472 25.5573
vt -12.99213 25.5573
vt -13.77953 24.11849
vt -13.77953 25.5573
vt -11.81102 -4.504755
vt -11.81102 4.504755
vt -11.02362 -4.504755
vt -11.41732 4.504755
vt -11.02362 4.504755
vt -11.02362 9.814287E-16
vt -13.77953 4.94523
vt -13.77953 13.95474
vt -12.99213 4.94523
vt -12.99213 13.95474
vt -11.02362 4.94523
vt -11.02362 13.95474
vt -11.02362 8.859541
vt -11.41732 8.859541
vt -11.02362 17.86905
vt -12.99213 8.859541
vt -12.99213 17.86905
vt 12.99213 18.32459
vt 12.99213 16.88579
vt -12.99213 -8.096004
vt -12.99213 -6.657197
vt -11.41732 -8.096004
vt -11.41732 -6.657197
vt -11.41732 4.94523
vt -11.41732 13.95474
vt 12.20472 4.94523
vt 12.20472 13.95474
vt -5.11811 4.394622
vt -5.11811 14.50535
vt 7.086614 4.394622
vt 7.086614 14.50535
vt -14.96063 8.308934
vt -14.96063 18.41966
vt -9.448819 8.308934
vt -9.448819 18.41966
vt -7.086614 8.308934
vt -7.086614 18.41966
vt 5.11811 8.308934
vt 5.11811 18.41966
vt 5.11811 5.055362
vt 5.11811 -5.055362
vt -7.086614 5.055362
vt -7.086614 -5.055362
vt 5.11811 4.394622
vt -7.086614 4.394622
vt 5.11811 14.50535
vt -7.086614 14.50535
vt 9.448819 4.394622
vt 9.448819 14.50535
vt 14.96063 4.394622
vt 14.96063 14.50535
vt -5.11811 -5.055362
vt -5.11811 5.055362
vt 7.086614 -5.055362
vt 7.086614 5.055362
vt 9.448819 -5.055362
vt 9.448819 5.055362
vt 14.96063 -5.055362
vt 14.96063 5.055362
vt -9.448819 5.055362
vt -9.448819 -5.055362
vt -14.96063 5.055362
vt -14.96063 -5.055362
vt 7.086614 8.308934
vt -5.11811 8.308934
vt 7.086614 18.41966
vt -5.11811 18.41966
vt -9.448819 14.50535
vt -9.448819 4.394622
vt -14.96063 14.50535
vt -14.96063 4.394622
vt 14.96063 8.308934
vt 9.448819 8.308934
vt 14.96063 18.41966
vt 9.448819 18.41966
vt -10.42536 9.045969
vt -10.42536 17.68262
vt -4.318327 2.938933
vt -4.318327 23.78966
vt 4.318327 2.938933
vt 10.42536 9.045969
vt 4.318327 23.78966
vt 10.42536 17.68262
vt 0 2.488856
vt 0 5.674199

usemtl greyLight

f 3/3/1 2/2/1 1/1/1
f 2/2/1 3/3/1 4/4/1
f 4/4/1 3/3/1 5/5/1
f 6/8/2 2/7/2 4/6/2
f 2/7/2 6/8/2 7/9/2
f 7/9/2 6/8/2 8/10/2
f 7/13/3 10/12/3 9/11/3
f 10/12/3 7/13/3 8/14/3
f 10/12/3 8/14/3 11/15/3
f 14/18/4 13/17/5 12/16/4
f 13/17/5 14/18/4 15/19/5
f 18/22/5 17/21/6 16/20/5
f 17/21/6 18/22/5 19/23/6
f 22/26/7 21/25/8 20/24/7
f 21/25/8 22/26/7 23/27/8
f 26/30/9 25/29/10 24/28/9
f 25/29/10 26/30/9 27/31/10
f 14/34/4 29/33/11 28/32/11
f 29/33/11 14/34/4 12/35/4
f 32/38/4 31/37/11 30/36/11
f 31/37/11 32/38/4 33/39/4
f 23/42/8 31/41/11 21/40/8
f 31/41/11 23/42/8 30/43/11
f 32/42/4 16/41/5 33/40/4
f 16/41/5 32/42/4 18/43/5
f 15/46/5 34/45/6 13/44/5
f 34/45/6 15/46/5 35/47/6
f 38/50/7 37/49/8 36/48/7
f 37/49/8 38/50/7 39/51/8
f 34/54/6 41/53/10 40/52/10
f 41/53/10 34/54/6 35/55/6
f 17/58/6 25/57/10 27/56/10
f 25/57/10 17/58/6 19/59/6
f 42/61/2 10/60/2 11/10/2
f 10/60/2 42/61/2 43/62/2
f 43/62/2 42/61/2 44/63/2
f 28/19/11 37/16/8 39/18/8
f 37/16/8 28/19/11 29/17/11
f 45/54/9 38/53/7 36/52/7
f 38/53/7 45/54/9 46/55/9
f 49/66/2 48/65/2 47/64/2
f 48/65/2 49/66/2 5/6/2
f 48/65/2 5/6/2 3/67/2
f 26/58/9 22/57/7 20/56/7
f 22/57/7 26/58/9 24/59/9
f 40/70/10 46/69/9 45/68/9
f 46/69/9 40/70/10 41/71/10
f 9/74/12 2/73/12 7/72/12
f 2/73/12 9/74/12 1/75/12
f 50/78/13 8/77/6 6/76/13
f 8/77/6 50/78/13 11/79/6
f 11/79/6 50/78/13 42/80/14
f 42/80/14 50/78/13 51/81/14
f 52/78/15 10/79/7 43/82/15
f 10/79/7 52/78/15 53/83/7
f 53/83/7 52/78/15 54/80/12
f 54/80/12 52/78/15 55/81/12
f 57/86/16 47/85/1 56/84/1
f 47/85/1 57/86/16 49/87/16
f 56/86/1 48/85/17 58/84/17
f 48/85/17 56/86/1 47/87/1
f 44/90/3 52/89/15 43/88/15
f 52/89/15 44/90/3 59/91/3
f 55/94/12 3/93/8 54/92/12
f 3/93/8 55/94/12 48/95/17
f 48/95/17 55/94/12 58/96/17
f 57/94/16 5/93/5 49/92/16
f 50/96/13 5/93/5 57/94/16
f 6/97/13 5/93/5 50/96/13
f 5/93/5 6/97/13 4/98/5
f 42/90/14 59/89/3 44/88/3
f 59/89/3 42/90/14 51/91/14
f 9/7/18 3/60/18 1/9/18
f 3/60/18 9/7/18 54/99/18
f 54/99/18 9/7/18 53/100/18
f 53/100/18 9/7/18 10/67/18
f 12/103/2 60/102/2 29/101/2
f 60/102/2 12/103/2 13/104/2
f 61/105/2 29/101/2 60/102/2
f 60/102/2 13/104/2 62/106/2
f 29/101/2 61/105/2 37/107/2
f 37/107/2 61/105/2 63/108/2
f 62/106/2 13/104/2 34/109/2
f 62/106/2 34/109/2 64/110/2
f 64/110/2 34/109/2 65/111/2
f 65/111/2 34/109/2 40/112/2
f 37/107/2 63/108/2 36/113/2
f 36/113/2 63/108/2 66/114/2
f 65/111/2 40/112/2 67/115/2
f 36/113/2 66/114/2 67/115/2
f 45/116/2 67/115/2 40/112/2
f 36/113/2 67/115/2 45/116/2
f 33/103/2 68/102/2 31/101/2
f 68/102/2 33/103/2 16/104/2
f 69/105/2 31/101/2 68/102/2
f 68/102/2 16/104/2 70/106/2
f 31/101/2 69/105/2 21/117/2
f 21/117/2 69/105/2 71/108/2
f 70/106/2 16/104/2 17/109/2
f 70/106/2 17/109/2 72/110/2
f 72/110/2 17/109/2 73/111/2
f 73/111/2 17/109/2 27/112/2
f 21/117/2 71/108/2 20/118/2
f 20/118/2 71/108/2 74/114/2
f 73/111/2 27/112/2 75/115/2
f 20/118/2 74/114/2 75/115/2
f 26/116/2 75/115/2 27/112/2
f 20/118/2 75/115/2 26/116/2
f 77/114/18 38/119/18 76/108/18
f 76/108/18 38/119/18 78/105/18
f 77/114/18 39/120/18 38/119/18
f 78/105/18 38/119/18 46/101/18
f 79/115/18 39/120/18 77/114/18
f 79/115/18 28/116/18 39/120/18
f 28/116/18 79/115/18 14/112/18
f 80/111/18 14/112/18 79/115/18
f 14/112/18 80/111/18 15/109/18
f 15/109/18 80/111/18 81/110/18
f 78/105/18 46/101/18 82/102/18
f 41/103/18 82/102/18 46/101/18
f 15/109/18 81/110/18 35/104/18
f 35/104/18 82/102/18 41/103/18
f 35/104/18 81/110/18 83/106/18
f 35/104/18 83/106/18 82/102/18
f 85/114/18 22/121/18 84/108/18
f 84/108/18 22/121/18 86/105/18
f 85/114/18 23/122/18 22/121/18
f 86/105/18 22/121/18 24/101/18
f 87/115/18 23/122/18 85/114/18
f 87/115/18 30/116/18 23/122/18
f 30/116/18 87/115/18 32/112/18
f 88/111/18 32/112/18 87/115/18
f 32/112/18 88/111/18 18/109/18
f 18/109/18 88/111/18 89/110/18
f 86/105/18 24/101/18 90/102/18
f 25/103/18 90/102/18 24/101/18
f 18/109/18 89/110/18 19/104/18
f 19/104/18 90/102/18 25/103/18
f 19/104/18 89/110/18 91/106/18
f 19/104/18 91/106/18 90/102/18

usemtl brownDark

f 94/125/17 93/124/17 92/123/17
f 93/124/17 94/125/17 69/126/17
f 69/126/17 94/125/17 71/127/17
f 97/130/1 96/129/1 95/128/1
f 96/129/1 97/130/1 98/131/1
f 101/134/14 100/133/14 99/132/14
f 100/133/14 101/134/14 102/135/14
f 105/138/13 104/137/13 103/136/13
f 104/137/13 105/138/13 72/139/13
f 72/139/13 105/138/13 70/140/13
f 108/143/7 107/142/7 106/141/7
f 107/142/7 108/143/7 93/144/7
f 108/145/2 92/108/2 93/105/2
f 92/108/2 108/145/2 109/146/2
f 111/149/15 74/148/15 110/147/15
f 74/148/15 111/149/15 75/150/15
f 111/153/3 73/152/3 75/151/3
f 73/152/3 111/153/3 112/154/3
f 73/152/3 112/154/3 113/155/3
f 115/158/16 96/157/16 114/156/16
f 96/157/16 115/158/16 95/159/16
f 100/162/13 114/161/13 99/160/13
f 114/161/13 100/162/13 115/163/13
f 118/166/12 117/165/12 116/164/12
f 117/165/12 118/166/12 119/167/12
f 105/106/2 121/168/2 120/102/2
f 121/168/2 105/106/2 122/169/2
f 123/172/3 102/171/3 101/170/3
f 102/171/3 123/172/3 124/173/3
f 97/158/17 116/157/17 98/156/17
f 116/157/17 97/158/17 118/159/17
f 117/134/15 124/133/15 123/132/15
f 124/133/15 117/134/15 119/135/15
f 109/176/9 94/175/9 92/174/9
f 94/175/9 109/176/9 125/177/9
f 127/175/10 126/179/10 110/178/10
f 126/179/10 127/175/10 128/177/10
f 110/182/12 94/181/12 127/180/12
f 94/181/12 110/182/12 71/183/12
f 71/183/12 110/182/12 74/184/12
f 129/186/2 110/114/2 126/185/2
f 110/114/2 129/186/2 111/115/2
f 131/189/14 113/188/14 130/187/14
f 113/188/14 131/189/14 104/190/14
f 113/188/14 104/190/14 73/148/14
f 73/148/14 104/190/14 72/150/14
f 68/193/1 93/192/1 69/191/1
f 93/192/1 68/193/1 107/194/1
f 107/194/1 68/193/1 120/111/1
f 132/195/1 107/194/1 120/111/1
f 68/127/16 105/197/16 120/196/16
f 105/197/16 68/127/16 70/126/16
f 135/200/12 134/199/12 133/198/12
f 134/199/12 135/200/12 122/201/12
f 122/201/12 135/200/12 136/202/12
f 131/110/2 138/204/2 137/203/2
f 138/204/2 131/110/2 130/111/2
f 139/207/3 108/206/3 106/205/3
f 140/208/3 108/206/3 139/207/3
f 140/208/3 139/207/3 121/209/3
f 108/206/3 140/208/3 141/210/3
f 120/213/6 139/212/6 132/211/6
f 139/212/6 120/213/6 121/214/6
f 108/217/14 125/216/14 109/215/14
f 125/216/14 108/217/14 141/218/14
f 125/216/14 141/218/14 142/219/14
f 105/222/11 134/221/11 122/220/11
f 134/221/11 105/222/11 103/223/11
f 104/223/4 137/224/4 133/221/4
f 137/224/4 104/223/4 131/225/4
f 139/168/2 107/105/2 132/102/2
f 107/105/2 139/168/2 106/145/2
f 125/146/2 127/114/2 94/108/2
f 127/114/2 125/146/2 128/185/2
f 142/228/13 128/227/13 125/226/13
f 128/227/13 142/228/13 126/229/13
f 126/229/13 142/228/13 143/230/13
f 143/230/13 142/228/13 144/231/13
f 145/234/17 137/233/17 138/232/17
f 137/233/17 145/234/17 133/235/17
f 133/235/17 145/234/17 146/236/17
f 133/235/17 146/236/17 135/237/17
f 146/240/1 129/239/1 147/238/1
f 129/239/1 146/240/1 148/241/1
f 148/241/1 146/240/1 145/242/1
f 113/243/7 138/212/7 130/211/7
f 138/212/7 113/243/7 145/244/7
f 104/110/2 134/169/2 103/106/2
f 134/169/2 104/110/2 133/203/2
f 111/247/8 148/246/8 112/245/8
f 148/246/8 111/247/8 129/248/8
f 143/236/16 129/250/16 126/249/16
f 129/250/16 143/236/16 147/237/16
f 113/111/2 148/186/2 145/204/2
f 148/186/2 113/111/2 112/115/2
f 122/252/15 140/219/15 121/251/15
f 140/219/15 122/252/15 136/218/15
f 60/255/16 89/254/16 88/253/16
f 89/254/16 60/255/16 62/256/16
f 78/259/3 150/258/3 149/257/3
f 150/258/3 78/259/3 82/260/3
f 86/263/3 65/262/3 67/261/3
f 65/262/3 86/263/3 90/264/3
f 66/267/12 85/266/12 84/265/12
f 85/266/12 66/267/12 63/268/12
f 86/271/15 66/270/15 84/269/15
f 66/270/15 86/271/15 67/272/15
f 151/275/16 81/274/16 80/273/16
f 81/274/16 151/275/16 152/276/16
f 77/273/17 153/276/17 79/274/17
f 153/276/17 77/273/17 154/275/17
f 62/279/13 91/278/13 89/277/13
f 91/278/13 62/279/13 64/280/13
f 152/283/13 83/282/13 81/281/13
f 83/282/13 152/283/13 155/284/13
f 63/255/17 87/254/17 85/253/17
f 87/254/17 63/255/17 61/256/17
f 156/287/12 77/286/12 76/285/12
f 77/286/12 156/287/12 154/288/12
f 60/291/1 87/290/1 61/289/1
f 87/290/1 60/291/1 88/292/1
f 91/271/14 65/270/14 90/269/14
f 65/270/14 91/271/14 64/272/14
f 149/295/15 76/294/15 78/293/15
f 76/294/15 149/295/15 156/296/15
f 151/299/1 79/298/1 153/297/1
f 79/298/1 151/299/1 80/300/1
f 155/295/14 82/294/14 83/293/14
f 82/294/14 155/295/14 150/296/14
f 153/115/18 102/301/18 151/111/18
f 102/301/18 153/115/18 154/114/18
f 124/302/18 151/111/18 102/301/18
f 102/301/18 154/114/18 100/303/18
f 151/111/18 124/302/18 152/110/18
f 152/110/18 124/302/18 119/304/18
f 100/303/18 154/114/18 156/108/18
f 100/303/18 156/108/18 115/305/18
f 115/305/18 156/108/18 95/306/18
f 95/306/18 156/108/18 149/105/18
f 152/110/18 119/304/18 155/106/18
f 155/106/18 119/304/18 118/307/18
f 95/306/18 149/105/18 97/308/18
f 155/106/18 118/307/18 97/308/18
f 150/102/18 97/308/18 149/105/18
f 155/106/18 97/308/18 150/102/18

usemtl brown

f 99/303/18 123/302/18 101/301/18
f 123/302/18 99/303/18 117/304/18
f 117/304/18 99/303/18 114/305/18
f 117/304/18 114/305/18 116/307/18
f 116/307/18 114/305/18 96/306/18
f 116/307/18 96/306/18 98/308/18
f 136/169/2 141/145/2 140/168/2
f 141/145/2 136/169/2 142/146/2
f 142/146/2 136/169/2 135/203/2
f 142/146/2 135/203/2 56/64/2
f 56/64/2 144/309/2 142/146/2
f 56/64/2 135/203/2 57/66/2
f 144/309/2 56/64/2 58/65/2
f 144/309/2 58/65/2 55/310/2
f 144/309/2 55/310/2 52/62/2
f 57/66/2 135/203/2 50/8/2
f 144/309/2 52/62/2 143/185/2
f 50/8/2 135/203/2 51/61/2
f 51/61/2 135/203/2 59/63/2
f 143/185/2 52/62/2 59/63/2
f 143/185/2 59/63/2 135/203/2
f 143/185/2 135/203/2 146/204/2
f 143/185/2 146/204/2 147/186/2

