# Created by Kenney (www.kenney.nl)

mtllib bottleOil.mtl

g bottleOil

v -0.035 0.45 -0.035
v -0.02905 0.48 -0.02905
v -0.035 0.45 0.035
v -0.02905 0.48 0.02905
v 0.035 0.45 -0.035
v 0.02905 0.48 -0.02905
v 0.035 0.45 0.035
v 0.02905 0.48 0.02905
v 0.07 0.42 -0.07
v -0.07 0.42 -0.07
v -0.07 0.03 -0.07
v 0.07 0.03 -0.07
v 0.07 0.03 0.07
v -0.07 0.03 0.07
v 0.07 0.42 0.07
v -0.07 0.42 0.07
v 0.0574 7.55751E-16 0.0574
v 0.0574 7.55751E-16 -0.0574
v -0.0574 7.55751E-16 0.0574
v -0.0574 7.55751E-16 -0.0574
v 0.07 0.3922372 0.04366279
v 0.07 0.3922372 -0.04366279
v 0.07 0.1277628 0.04366279
v 0.07 0.1277628 -0.04366279
v 0.03097892 0.56 -0.03097892
v 0.024983 0.54 -0.024983
v 0.03097892 0.56 0.03097892
v 0.024983 0.54 0.024983
v -0.03097892 0.56 -0.03097892
v -0.03097892 0.56 0.03097892
v -0.024983 0.54 -0.024983
v -0.024983 0.54 0.024983
v 0.03097892 0.61 0.03097892
v -0.03097892 0.61 0.03097892
v -0.03097892 0.61 -0.03097892
v 0.03097892 0.61 -0.03097892

vn -0.8198003 0.5726496 0
vn -0.9808939 0.194544 0
vn 0 0.5726496 -0.8198003
vn 0 0.194544 -0.9808939
vn 0.8198003 0.5726496 0
vn 0.9808939 0.194544 0
vn 0 0.5726496 0.8198003
vn 0 0.194544 0.9808939
vn 0 0.7592566 -0.6507913
vn 0 -0.1711228 -0.9852497
vn 0 0 -1
vn 0 -0.1711228 0.9852497
vn 0 0 1
vn -0.9852497 -0.1711228 0
vn -1 0 0
vn 0 0.7592566 0.6507913
vn 0.6507913 0.7592566 0
vn -0.6507913 0.7592566 0
vn 0 -1 0
vn 0 -0.3872325 -0.9219821
vn 0 -0.3872325 0.9219821
vn -0.9219821 -0.3872325 0
vn 0.9852497 -0.1711228 0
vn 0.9219821 -0.3872325 0
vn 1 0 0
vn 0.991392 -0.1309273 0
vn 0.9924664 -0.1225167 0
vn -0.991392 -0.1309273 0
vn -0.9924664 -0.1225167 0
vn 0 -0.1309273 0.991392
vn 0.9977106 0.06762815 0
vn 0 1 0
vn 0 0.06762815 0.9977106
vn 0 -0.1225167 0.9924664
vn -0.9977106 0.06762815 0
vn 0 -0.1225167 -0.9924664
vn 0 -0.1309273 -0.991392
vn 0 0.06762815 -0.9977106

vt -1.377953 17.10997
vt -1.143701 18.31408
vt 1.377953 17.10997
vt 1.143701 18.31408
vt -2.755906 8.668677
vt -1.377953 10.48355
vt 2.755906 8.668677
vt 1.377953 10.48355
vt 2.755906 1.181102
vt -2.755906 1.181102
vt 2.755906 16.53543
vt -2.755906 16.53543
vt 2.259843 2.259843
vt 2.259843 -2.259843
vt -2.259843 2.259843
vt -2.259843 -2.259843
vt 2.259843 0.8750845
vt -2.259843 0.8750845
vt 2.755906 2.156131
vt -2.755906 2.156131
vt -1.719007 15.44241
vt 1.719007 15.44241
vt -1.719007 5.030031
vt 1.719007 5.030031
vt 1.219643 21.46886
vt 0.9835827 20.64683
vt -1.219643 21.46886
vt -0.9835827 20.64683
vt 1.219643 22.04725
vt -1.219643 22.04725
vt 1.219643 24.01575
vt -1.219643 24.01575
vt 1.143701 18.77703
vt -1.143701 18.77703
vt 0.9835827 21.14465
vt -0.9835827 21.14465
vt -1.219643 -1.219643
vt -1.219643 1.219643
vt 1.219643 -1.219643
vt 1.219643 1.219643

usemtl green

f 3/3/1 2/2/2 1/1/1
f 2/2/2 3/3/1 4/4/2
f 2/4/4 5/1/3 1/3/3
f 5/1/3 2/4/4 6/2/4
f 6/4/6 7/1/5 5/3/5
f 7/1/5 6/4/6 8/2/6
f 8/4/8 3/1/7 7/3/7
f 3/1/7 8/4/8 4/2/8
f 10/7/9 5/6/3 9/5/9
f 5/6/3 10/7/9 1/8/3
f 10/11/11 12/10/10 11/9/10
f 12/10/10 10/11/11 9/12/11
f 15/11/13 14/10/12 13/9/12
f 14/10/12 15/11/13 16/12/13
f 14/9/14 10/12/15 11/10/14
f 10/12/15 14/9/14 16/11/15
f 7/8/7 16/5/16 15/7/16
f 16/5/16 7/8/7 3/6/7
f 5/8/5 15/5/17 9/7/17
f 15/5/17 5/8/5 7/6/5
f 10/5/18 3/8/1 1/6/1
f 3/8/1 10/5/18 16/7/18
f 19/15/19 18/14/19 17/13/19
f 18/14/19 19/15/19 20/16/19
f 11/19/10 18/18/20 20/17/20
f 18/18/20 11/19/10 12/20/10
f 13/19/12 19/18/21 17/17/21
f 19/18/21 13/19/12 14/20/12
f 20/18/22 14/19/14 11/20/14
f 14/19/14 20/18/22 19/17/22
f 13/20/23 18/17/24 12/19/23
f 18/17/24 13/20/23 17/18/24
f 22/22/25 15/12/25 21/21/25
f 21/21/25 15/12/25 23/23/25
f 22/22/25 9/11/25 15/12/25
f 13/10/23 23/23/25 15/12/25
f 9/11/25 22/22/25 12/9/23
f 13/10/23 24/24/25 23/23/25
f 12/9/23 24/24/25 13/10/23
f 24/24/25 12/9/23 22/22/25

usemtl brown

f 27/27/26 26/26/27 25/25/26
f 26/26/27 27/27/26 28/28/27
f 31/28/29 30/25/28 29/27/28
f 30/25/28 31/28/29 32/26/29
f 33/31/13 30/30/30 27/29/30
f 30/30/30 33/31/13 34/32/13
f 30/29/28 35/32/15 29/30/28
f 35/32/15 30/29/28 34/31/15
f 26/35/27 8/34/31 6/33/31
f 8/34/31 26/35/27 28/36/27
f 35/39/32 33/38/32 36/37/32
f 33/38/32 35/39/32 34/40/32
f 28/35/34 4/34/33 8/33/33
f 4/34/33 28/35/34 32/36/34
f 4/33/35 31/36/29 2/34/35
f 31/36/29 4/33/35 32/35/29
f 29/25/37 26/28/36 31/26/36
f 26/28/36 29/25/37 25/27/37
f 27/25/30 32/28/34 28/26/34
f 32/28/34 27/25/30 30/27/30
f 33/32/25 25/29/26 36/31/25
f 25/29/26 33/32/25 27/30/26
f 35/31/11 25/30/37 29/29/37
f 25/30/37 35/31/11 36/32/11
f 31/35/36 6/34/38 2/33/38
f 6/34/38 31/35/36 26/36/36

usemtl brownLight

f 21/21/25 24/24/25 22/22/25
f 24/24/25 21/21/25 23/23/25

