# Created by Kenney (www.kenney.nl)

mtllib bottleKetchup.mtl

g bottleKetchup

v -0.07205331 0.0208 -0.0416
v -0.07205331 0.2808 -0.0416
v -0.07205331 0.0208 0.0416
v -0.07205331 0.2808 0.0416
v 0 0.0208 0.0832
v 0 0.2808 0.0832
v 0.05953643 0 0.03437337
v 0 0 0.06874675
v 0.05953643 0.0208 0.03437337
v 0 0.0208 0.06874675
v 0.07205331 0.2808 -0.0416
v 0.07205331 0.0208 -0.0416
v 0.07205331 0.2808 0.0416
v 0.07205331 0.0208 0.0416
v -0.05953643 0 0.03437337
v -0.05953643 0.0208 0.03437337
v 0.0069888 0.39312 -0.0069888
v 0.0069888 0.39312 0.0069888
v -0.0069888 0.39312 -0.0069888
v -0.0069888 0.39312 0.0069888
v -0.05953643 0 -0.03437337
v -0.05953643 0.0208 -0.03437337
v 0.05953643 0 -0.03437337
v 0 0 -0.06874675
v 0 0.0208 -0.06874675
v 0.05953643 0.0208 -0.03437337
v 0 0.0208 -0.0832
v 0 0.2808 -0.0832
v 0.06412745 0.29744 -0.037024
v 0.06412745 0.29744 0.037024
v 0 0.29744 -0.07404801
v 0.04923645 0.29744 0.02842668
v 0 0.29744 0.05685336
v 0.04923645 0.32448 0.02842668
v 0 0.32448 0.05685336
v -0.04923645 0.29744 -0.02842668
v 0 0.29744 -0.05685336
v -0.04923645 0.32448 -0.02842668
v 0 0.32448 -0.05685336
v -0.04923645 0.29744 0.02842668
v -0.04923645 0.32448 0.02842668
v 0 0.29744 0.07404801
v -0.06412745 0.29744 -0.037024
v 0.04923645 0.32448 -0.02842668
v 0.04923645 0.29744 -0.02842668
v -0.06412745 0.29744 0.037024
v 0.01248 0.32448 -0.01248
v -0.01248 0.32448 -0.01248
v 0.01248 0.32448 0.01248
v -0.01248 0.32448 0.01248

vn -0.1801333 0 -0.104
vn -0.1801333 0 0.104
vn 0 0 0.208
vn 0.1801333 0 0.104
vn 0.1801333 0 -0.104
vn 0 0.208 0
vn 0 -0.208 0
vn 0 0 -0.208
vn 0.1578356 0.1002391 -0.09112645
vn 0.1578356 0.1002391 0.09112645
vn 0 0.1002391 -0.1822529
vn 0 0.1002391 0.1822529
vn -0.1578356 0.1002391 -0.09112645
vn -0.1578356 0.1002391 0.09112645
vn 0.2073376 0.01658701 0
vn 0 0.01658701 0.2073376
vn 0 0.01658701 -0.2073376
vn -0.2073376 0.01658701 0

vt -7.874016 3.937008
vt -7.874016 53.1496
vt 7.874016 3.937008
vt 7.874016 53.1496
vt 6.506165 0
vt -6.506165 0
vt 6.506165 3.937008
vt -6.506165 3.937008
vt -1.322835 -1.322835
vt -1.322835 1.322835
vt 1.322835 -1.322835
vt 1.322835 1.322835
vt 11.26901 6.506165
vt 11.26901 -6.506165
vt 0 13.01233
vt 0 -13.01233
vt -11.26901 6.506165
vt -11.26901 -6.506165
vt 7.874016 42.11962
vt -7.874016 42.11962
vt 7.007874 45.60826
vt -7.007874 45.60826
vt 5.38058 56.29921
vt -5.38058 56.29921
vt 5.38058 61.41732
vt -5.38058 61.41732
vt -9.319438 -5.38058
vt -9.319438 5.38058
vt 0 -10.76116
vt -2.362205 -2.362205
vt 2.362205 -2.362205
vt -2.362205 2.362205
vt 9.319438 -5.38058
vt 0 10.76116
vt 2.362205 2.362205
vt 9.319438 5.38058
vt 2.362205 61.03335
vt -2.362205 61.03335
vt 1.322835 74.06699
vt -1.322835 74.06699
vt -12.13799 7.007874
vt -12.13799 -7.007874
vt 0 -14.01575
vt 0 14.01575
vt 12.13799 -7.007874
vt 12.13799 7.007874
vt 13.6382 -7.874016
vt 13.6382 7.874016
vt 0 15.74803
vt -13.6382 7.874016
vt -13.6382 -7.874016
vt 0 -15.74803

usemtl red

f 3/3/2 2/2/1 1/1/1
f 2/2/1 3/3/2 4/4/2
f 6/4/3 3/1/2 5/3/3
f 3/1/2 6/4/3 4/2/2
f 9/7/4 8/6/3 7/5/4
f 8/6/3 9/7/4 10/8/3
f 13/2/4 12/3/5 11/4/5
f 12/3/5 13/2/4 14/1/4
f 13/4/4 5/1/3 14/3/4
f 5/1/3 13/4/4 6/2/3
f 10/7/3 15/6/2 8/5/3
f 15/6/2 10/7/3 16/8/2
f 19/11/6 18/10/6 17/9/6
f 18/10/6 19/11/6 20/12/6
f 15/5/2 22/8/1 21/6/1
f 22/8/1 15/5/2 16/7/2
f 8/15/7 23/14/7 7/13/7
f 23/14/7 8/15/7 24/16/7
f 24/16/7 8/15/7 15/17/7
f 24/16/7 15/17/7 21/18/7
f 22/7/1 24/6/8 21/5/1
f 24/6/8 22/7/1 25/8/8
f 9/8/4 23/5/5 26/7/5
f 23/5/5 9/8/4 7/6/4
f 25/7/8 23/6/5 24/5/8
f 23/6/5 25/7/8 26/8/5
f 2/4/1 27/1/8 1/3/1
f 27/1/8 2/4/1 28/2/8
f 28/4/8 12/1/5 27/3/8
f 12/1/5 28/4/8 11/2/5
f 29/21/9 13/20/10 11/19/9
f 13/20/10 29/21/9 30/22/10
f 31/21/11 11/20/9 28/19/11
f 11/20/9 31/21/11 29/22/9
f 34/25/4 33/24/3 32/23/4
f 33/24/3 34/25/4 35/26/3
f 38/25/1 37/24/8 36/23/1
f 37/24/8 38/25/1 39/26/8
f 40/23/2 38/26/1 36/24/1
f 38/26/1 40/23/2 41/25/2
f 30/21/10 6/20/12 13/19/10
f 6/20/12 30/21/10 42/22/12
f 43/21/13 28/20/11 2/19/13
f 28/20/11 43/21/13 31/22/11
f 34/26/4 45/23/5 44/25/5
f 45/23/5 34/26/4 32/24/4
f 4/19/14 43/22/13 2/20/13
f 43/22/13 4/19/14 46/21/14
f 39/29/6 34/28/6 44/27/6
f 34/28/6 39/29/6 47/30/6
f 47/30/6 39/29/6 48/31/6
f 49/32/6 34/28/6 47/30/6
f 48/31/6 39/29/6 38/33/6
f 34/28/6 49/32/6 35/34/6
f 48/31/6 38/33/6 50/35/6
f 35/34/6 49/32/6 50/35/6
f 41/36/6 50/35/6 38/33/6
f 35/34/6 50/35/6 41/36/6
f 39/25/8 45/24/5 37/23/8
f 45/24/5 39/25/8 44/26/5
f 35/25/3 40/24/2 33/23/3
f 40/24/2 35/25/3 41/26/2
f 42/21/12 4/20/14 6/19/12
f 4/20/14 42/21/12 46/22/14
f 17/39/15 49/38/15 47/37/15
f 49/38/15 17/39/15 18/40/15
f 18/39/16 50/38/16 49/37/16
f 50/38/16 18/39/16 20/40/16
f 19/39/17 47/38/17 48/37/17
f 47/38/17 19/39/17 17/40/17
f 50/37/18 19/40/18 48/38/18
f 19/40/18 50/37/18 20/39/18
f 29/42/6 45/27/6 30/41/6
f 45/27/6 29/42/6 31/43/6
f 32/28/6 30/41/6 45/27/6
f 45/27/6 31/43/6 37/29/6
f 30/41/6 32/28/6 42/44/6
f 42/44/6 32/28/6 33/34/6
f 37/29/6 31/43/6 43/45/6
f 37/29/6 43/45/6 36/33/6
f 42/44/6 33/34/6 40/36/6
f 36/33/6 43/45/6 40/36/6
f 42/44/6 40/36/6 46/46/6
f 46/46/6 40/36/6 43/45/6
f 14/48/7 9/13/7 12/47/7
f 9/13/7 14/48/7 5/49/7
f 26/14/7 12/47/7 9/13/7
f 9/13/7 5/49/7 10/15/7
f 10/15/7 5/49/7 3/50/7
f 10/15/7 3/50/7 16/17/7
f 16/17/7 3/50/7 1/51/7
f 1/51/7 22/18/7 16/17/7
f 12/47/7 26/14/7 27/52/7
f 27/52/7 22/18/7 1/51/7
f 27/52/7 26/14/7 25/16/7
f 27/52/7 25/16/7 22/18/7

