# Created by Kenney (www.kenney.nl)

mtllib bowlBroth.mtl

g bowlBroth

v 1.007066E-15 0.1787248 -0.2310904
v -0.2001302 0.1787248 -0.1155452
v 1.007066E-15 0.2138248 -0.2539455
v -0.2199233 0.2138248 -0.1269728
v 0.2199233 0.2138248 -0.1269728
v 0.2199233 0.2138248 0.1269728
v 0.2001302 0.1787248 -0.1155452
v 0.2001302 0.1787248 0.1155452
v -0.2001302 0.1787248 0.1155452
v 5.035332E-16 0.1787248 0.2310904
v -0.2199233 0.2138248 0.1269728
v 1.007066E-15 0.2138248 0.2539455
v 0.2194725 0.07788751 0.1267125
v 3.356888E-16 0.07788751 0.253425
v 0.2510765 0.1467 0.1449591
v 1.007066E-15 0.1467 0.2899182
v 0.2510765 0.1467 -0.1449591
v 0.2194725 0.07788751 -0.1267125
v -0.2510765 0.1467 -0.1449591
v -0.2510765 0.1467 0.1449591
v -0.2194725 0.07788751 -0.1267125
v -0.2194725 0.07788751 0.1267125
v 3.356888E-16 0.07788751 -0.253425
v 1.007066E-15 0.1467 -0.2899182
v 3.356888E-16 0.0430125 -0.2325
v -0.2013509 0.0430125 -0.11625
v -1.342755E-15 0 -0.15438
v -0.133697 0 -0.07719
v 0.2013509 0.0430125 0.11625
v 0.2013509 0.0430125 -0.11625
v 0.133697 0 0.07719
v 0.133697 0 -0.07719
v 3.356888E-16 0.0430125 0.2325
v -0.2013509 0.0430125 0.11625
v -1.342755E-15 0 0.15438
v -0.133697 0 0.07719
v 0.2510765 0.2138248 0.1449591
v 0.2510765 0.2138248 -0.1449591
v 1.007066E-15 0.2138248 -0.2899182
v 1.007066E-15 0.2138248 0.2899182
v -0.2510765 0.2138248 -0.1449591
v -0.2510765 0.2138248 0.1449591
v 0.0296622 0.1787248 -0.08315606
v 0.0296622 0.2107248 -0.08315606
v 0.0296622 0.1787248 0.05284395
v 0.0296622 0.2107248 0.05284395
v 0.1336622 0.2107248 0.05284395
v 0.1336622 0.2107248 -0.08315606
v 0.1336622 0.1787248 -0.08315606
v 0.1336622 0.1787248 0.05284395
v -0.08182471 0.1787248 -0.1402805
v 1.007066E-15 0.1787248 -0.187522
v -0.1291097 0.1787248 -0.1129805
v -0.1623988 0.1787248 -0.09376101
v -0.1623988 0.1787248 0.09376101
v 0.1623988 0.1787248 -0.09376101
v 0.1623988 0.1787248 0.09376101
v 1.007066E-15 0.1787248 0.187522
v -0.03453972 0.1787248 -0.1129805
v -0.03453972 0.1787248 -0.0583805
v -0.05203517 0.2177248 -0.1028795
v -0.05203517 0.2177248 -0.0684815
v -0.1116142 0.2177248 -0.1028795
v -0.08182471 0.2177248 -0.1200785
v -0.08182471 0.1787248 -0.0310805
v -0.08182471 0.2177248 -0.0512825
v -0.1291097 0.1787248 -0.0583805
v -0.1116142 0.2177248 -0.0684815
v -0.0315171 0.1787248 0.1047793
v -0.05311078 0.1787248 0.110849
v -0.0413381 0.1787248 0.06984003
v -0.06293178 0.1787248 0.07590974
v -0.01948505 0.1787248 0.02605968
v -0.03263769 0.1787248 0.04422933
v -0.04888417 0.1787248 0.004778263
v -0.06203681 0.1787248 0.02294792
v -0.08361761 0.1787248 0.03819835
v -0.104899 0.1787248 0.06759748
v -0.1017873 0.1787248 0.02504572
v -0.1230687 0.1787248 0.05444483

vn 0 0.5074649 0.7793455
vn 0.674933 0.5074649 0.3896728
vn -0.674933 0.5074649 0.3896728
vn -0.674933 0.5074649 -0.3896728
vn 0.674933 0.5074649 -0.3896728
vn 0 0.5074649 -0.7793455
vn 0.7115362 -0.4357235 0.4108056
vn 0 -0.4357235 0.8216112
vn 0.7115362 -0.4357235 -0.4108056
vn -0.7115362 -0.4357235 -0.4108056
vn -0.7115362 -0.4357235 0.4108056
vn 0 -0.4357235 -0.8216112
vn 0 -0.8146759 -0.4485567
vn -0.3884615 -0.8146759 -0.2242783
vn 0.3884615 -0.8146759 0.2242783
vn 0.3884615 -0.8146759 -0.2242783
vn 0 -0.478481 0.7974684
vn -0.6906279 -0.478481 0.3987342
vn 0 -0.8146759 0.4485567
vn -0.3884615 -0.8146759 0.2242783
vn 0 -0.93 0
vn 0.6906279 -0.478481 0.3987342
vn 0.6906279 -0.478481 -0.3987342
vn 0 -0.478481 -0.7974684
vn -0.6906279 -0.478481 -0.3987342
vn 0 0.93 0
vn -0.8054036 0 -0.465
vn 0 0 -0.93
vn 0.8054036 0 0.465
vn 0 0 0.93
vn 0.8054036 0 -0.465
vn -0.8054036 0 0.465
vn -0.93 0 0
vn 0.93 0 0
vn 0.7151521 0.4277574 -0.4128933
vn 0.7151521 0.4277574 0.4128933
vn -0.7151521 0.4277574 -0.4128933
vn 0 0.4277575 -0.8257867
vn 0 0.4277575 0.8257867
vn -0.7151521 0.4277574 0.4128933

vt -6.136614 9.051934
vt 6.136614 9.051934
vt -6.136614 6.210312
vt 6.136614 6.210312
vt 4.725013 -2.899056
vt 4.725013 -4.355241
vt 3.46392 -2.170964
vt 0 0
vt -3.52028 7.566031
vt -3.52028 8.920701
vt 2.237065 7.566031
vt 2.237065 8.920701
vt -5.658378 2.237065
vt -1.255702 2.237065
vt -5.658378 -3.52028
vt -1.255702 -3.52028
vt -1.255702 7.566031
vt -5.658378 7.566031
vt -1.255702 8.920701
vt -5.658378 8.920701
vt 5.658378 7.566031
vt 1.255702 7.566031
vt 5.658378 8.920701
vt 1.255702 8.920701
vt 3.52028 8.920701
vt 3.52028 7.566031
vt -2.237065 8.920701
vt -2.237065 7.566031
vt 3.46392 -5.938553
vt 8.472196 -4.891424
vt -4.263256E-14 -7.938448
vt 5.465655 -4.782851
vt 6.874897 -3.969224
vt 6.874897 3.969224
vt -4.263256E-14 -9.782848
vt 8.472196 4.891424
vt -6.874897 -3.969224
vt -8.472196 -4.891424
vt -8.472196 4.891424
vt -6.874897 3.969224
vt -2.131628E-14 9.782848
vt -4.263256E-14 7.938448
vt 4.782851 7.501712
vt 2.471446 7.501712
vt 4.355241 9.311233
vt 2.899056 9.311233
vt 2.341971 4.08932
vt 0.03056596 4.08932
vt 1.914361 5.898839
vt 0.4581758 5.898839
vt 5.969119 5.507113
vt 3.657714 5.507113
vt 5.541509 7.316632
vt 4.085324 7.316632
vt -0.03056596 8.07852
vt -2.341971 8.07852
vt -0.4581758 9.88804
vt -1.914361 9.88804
vt -4.782851 4.666127
vt -4.355241 6.475647
vt -2.471446 4.666127
vt -2.899056 6.475647
vt -3.657714 6.660727
vt -5.969119 6.660727
vt -4.085324 8.470247
vt -5.541509 8.470247
vt 2.202826 -4.355241
vt 2.202826 -2.899056
vt 3.46392 -5.083333
vt 1.334227 4.435667
vt 2.248361 4.692619
vt 1.749983 2.956567
vt 2.664117 3.213519
vt 0.8248689 1.103195
vt 1.381665 1.872379
vt 2.069434 0.2022802
vt 2.62623 0.9714638
vt 3.539819 1.617067
vt 4.440734 2.861632
vt 4.309003 1.060271
vt 5.209918 2.304836
vt 1.462185 -4.782851
vt 1.462185 -2.471446
vt 3.46392 -1.315744
vt 5.465655 -2.471446

usemtl _defaultMat

f 3/3/1 2/2/2 1/1/1
f 2/3/2 3/2/1 4/1/2
f 7/3/3 6/2/4 5/1/3
f 6/3/4 7/2/3 8/1/4
f 5/3/3 1/2/1 7/1/3
f 1/3/1 5/2/3 3/1/1
f 11/3/5 10/2/6 9/1/5
f 10/3/6 11/2/5 12/1/6
f 12/3/6 8/2/4 10/1/6
f 8/3/4 12/2/6 6/1/4
f 11/3/5 2/2/2 4/1/2
f 2/3/2 11/2/5 9/1/5
f 15/1/7 14/4/8 13/2/7
f 14/1/8 15/4/7 16/2/8
f 15/1/7 18/4/9 17/2/9
f 18/1/9 15/4/7 13/2/7
f 21/1/10 20/4/11 19/2/10
f 20/1/11 21/4/10 22/2/11
f 24/1/12 18/4/9 23/2/12
f 18/1/9 24/4/12 17/2/9
f 16/1/8 22/4/11 14/2/8
f 22/1/11 16/4/8 20/2/11
f 19/1/10 23/4/12 21/2/10
f 23/1/12 19/4/10 24/2/12
f 27/1/13 26/4/14 25/2/13
f 26/1/14 27/4/13 28/2/14
f 31/1/15 30/4/16 29/2/15
f 30/1/16 31/4/15 32/2/16
f 32/1/16 25/4/13 30/2/16
f 25/1/13 32/4/16 27/2/13
f 14/7/17 34/6/18 33/5/17
f 34/7/18 14/6/17 22/5/18
f 34/7/20 35/6/19 33/5/19
f 35/7/19 34/6/20 36/5/20
f 34/7/20 28/6/14 36/5/20
f 28/7/14 34/6/20 26/5/14
f 33/7/19 31/6/15 29/5/15
f 31/7/15 33/6/19 35/5/19
f 35/7/21 32/6/21 31/5/21
f 32/7/21 35/6/21 27/5/21
f 27/7/21 35/6/21 36/5/21
f 27/7/21 36/6/21 28/5/21
f 33/8/17 13/8/22 14/8/17
f 13/8/22 33/8/17 29/8/22
f 30/8/23 13/8/22 29/8/22
f 13/8/22 30/8/23 18/8/23
f 30/8/23 23/8/24 18/8/23
f 23/8/24 30/8/23 25/8/24
f 25/8/24 21/8/25 23/8/24
f 21/8/25 25/8/24 26/8/25
f 26/8/25 22/8/18 21/8/25
f 22/8/18 26/8/25 34/8/18
f 38/8/26 5/8/26 37/8/26
f 5/8/26 38/8/26 39/8/26
f 6/8/26 37/8/26 5/8/26
f 5/8/26 39/8/26 3/8/26
f 37/8/26 6/8/26 40/8/26
f 40/8/26 6/8/26 12/8/26
f 3/8/26 39/8/26 41/8/26
f 3/8/26 41/8/26 4/8/26
f 40/8/26 12/8/26 11/8/26
f 4/8/26 41/8/26 11/8/26
f 40/8/26 11/8/26 42/8/26
f 42/8/26 11/8/26 41/8/26

usemtl purple

f 41/2/27 24/3/28 19/4/27
f 24/3/28 41/2/27 39/1/28
f 37/2/29 16/3/30 15/4/29
f 16/3/30 37/2/29 40/1/30
f 37/1/29 17/4/31 38/2/31
f 17/4/31 37/1/29 15/3/29
f 39/2/28 17/3/31 24/4/28
f 17/3/31 39/2/28 38/1/31
f 40/2/30 20/3/32 16/4/30
f 20/3/32 40/2/30 42/1/32
f 20/4/32 41/1/27 19/3/27
f 41/1/27 20/4/32 42/2/32

usemtl brown

f 45/11/33 44/10/33 43/9/33
f 44/10/33 45/11/33 46/12/33
f 48/15/26 46/14/26 47/13/26
f 46/14/26 48/15/26 44/16/26
f 44/19/28 49/18/28 43/17/28
f 49/18/28 44/19/28 48/20/28
f 47/23/30 45/22/30 50/21/30
f 45/22/30 47/23/30 46/24/30
f 47/27/34 49/26/34 48/25/34
f 49/26/34 47/27/34 50/28/34
f 52/31/26 2/30/26 51/29/26
f 51/29/26 2/30/26 53/32/26
f 53/32/26 2/30/26 54/33/26
f 54/33/26 2/30/26 55/34/26
f 52/31/26 1/35/26 2/30/26
f 9/36/26 55/34/26 2/30/26
f 56/37/26 1/35/26 52/31/26
f 56/37/26 7/38/26 1/35/26
f 7/38/26 56/37/26 8/39/26
f 57/40/26 8/39/26 56/37/26
f 10/41/26 55/34/26 9/36/26
f 8/39/26 57/40/26 10/41/26
f 10/41/26 58/42/26 55/34/26
f 10/41/26 57/40/26 58/42/26

usemtl green

f 61/45/35 60/44/36 59/43/35
f 60/44/36 61/45/35 62/46/36
f 63/49/37 51/48/38 53/47/37
f 51/48/38 63/49/37 64/50/38
f 64/53/38 59/52/35 51/51/38
f 59/52/35 64/53/38 61/54/35
f 62/57/36 65/56/39 60/55/36
f 65/56/39 62/57/36 66/58/39
f 67/61/40 63/60/37 53/59/37
f 63/60/37 67/61/40 68/62/40
f 66/65/39 67/64/40 65/63/39
f 67/64/40 66/65/39 68/66/40
f 64/69/26 62/68/26 61/67/26
f 62/68/26 64/69/26 66/7/26
f 66/7/26 64/69/26 63/6/26
f 66/7/26 63/6/26 68/5/26
f 71/72/26 70/71/26 69/70/26
f 70/71/26 71/72/26 72/73/26
f 75/76/26 74/75/26 73/74/26
f 74/75/26 75/76/26 76/77/26
f 79/80/26 78/79/26 77/78/26
f 78/79/26 79/80/26 80/81/26

usemtl brownLight

f 59/82/26 52/31/26 51/29/26
f 58/42/26 52/31/26 59/82/26
f 58/42/26 59/82/26 73/74/26
f 60/83/26 73/74/26 59/82/26
f 73/74/26 60/83/26 75/76/26
f 75/76/26 60/83/26 65/84/26
f 75/76/26 65/84/26 76/77/26
f 69/70/26 58/42/26 73/74/26
f 74/75/26 69/70/26 73/74/26
f 69/70/26 74/75/26 71/72/26
f 71/72/26 74/75/26 76/77/26
f 71/72/26 76/77/26 72/73/26
f 76/77/26 65/84/26 72/73/26
f 70/71/26 58/42/26 69/70/26
f 55/34/26 70/71/26 72/73/26
f 58/42/26 70/71/26 55/34/26
f 77/78/26 72/73/26 65/84/26
f 67/85/26 77/78/26 65/84/26
f 78/79/26 72/73/26 77/78/26
f 55/34/26 72/73/26 78/79/26
f 77/78/26 67/85/26 79/80/26
f 55/34/26 78/79/26 80/81/26
f 79/80/26 67/85/26 80/81/26
f 55/34/26 80/81/26 67/85/26
f 55/34/26 67/85/26 54/33/26
f 54/33/26 67/85/26 53/32/26
f 58/42/26 50/13/26 45/14/26
f 58/42/26 45/14/26 43/16/26
f 50/13/26 58/42/26 57/40/26
f 58/42/26 43/16/26 52/31/26
f 57/40/26 49/15/26 50/13/26
f 49/15/26 52/31/26 43/16/26
f 56/37/26 49/15/26 57/40/26
f 49/15/26 56/37/26 52/31/26

g Group

v -0.159064 0.290309 0.2084829
v -0.1010195 0.290309 0.2419949
v -0.1665881 0.2771352 0.221515
v -0.1085436 0.2771352 0.2550271
v -0.176179 0.2327427 0.171103
v -0.1686549 0.2459165 0.1580708
v -0.03475757 0.1660101 0.1546019
v -0.1165104 0.1660101 0.1074019
v -0.04228172 0.1528363 0.1676341
v -0.1240345 0.1528363 0.1204341
v -0.1528614 0.1794718 0.1307157
v -0.06009005 0.2327427 0.238127
v -0.03677244 0.1794718 0.1977397
v -0.0525659 0.2459165 0.2250948
v -0.02924828 0.1926456 0.1847075
v -0.1453373 0.1926456 0.1176835
v -0.1309601 0.2238697 0.1575475
v -0.107547 0.238918 0.1862769
v -0.1177863 0.1937731 0.1347298
v -0.08119942 0.1787248 0.1406415
v -0.0709601 0.2238697 0.1921885
v -0.05778632 0.1937731 0.1693709

vn -0.7745053 0.6992279 0.2596634
vn 0.1623774 0.6992279 0.8005729
vn -0.9907748 0.2066446 -0.3631346
vn 0.3541342 -0.8090484 -0.6133783
vn -0.4045242 -0.7082683 0.7006564
vn 0.8098711 0.2066446 0.6764688
vn 0.9904529 -0.2042699 0.3653492
vn 0.9855176 -0.3953037 0.1693906
vn -0.8116281 -0.2042699 -0.6750829
vn -0.6394553 -0.3953037 -0.768788
vn 0.4045242 0.7082683 -0.7006564

vt -4.00256 1.842942
vt -4.00256 3.417745
vt -2.63874 1.05554
vt -1.274921 3.417745
vt -1.274921 1.842942
vt -2.63874 4.205146

usemtl _defaultMat

f 83/88/41 82/87/42 81/86/41
f 82/88/42 83/87/41 84/86/42
f 83/88/41 86/87/43 85/86/43
f 86/88/43 83/87/41 81/86/41
f 89/88/44 88/87/44 87/86/44
f 88/88/44 89/87/44 90/86/44
f 90/8/45 85/8/45 91/8/45
f 85/8/45 90/8/45 83/8/45
f 83/8/45 90/8/45 89/8/45
f 83/8/45 89/8/45 84/8/45
f 84/8/45 89/8/45 92/8/45
f 92/8/45 89/8/45 93/8/45
f 84/8/42 94/8/46 82/8/42
f 94/8/46 84/8/42 92/8/46
f 92/8/46 95/8/47 94/8/46
f 95/8/47 92/8/46 93/8/47
f 93/8/47 87/8/48 95/8/47
f 87/8/48 93/8/47 89/8/48
f 96/8/49 85/8/43 86/8/43
f 85/8/43 96/8/49 91/8/49
f 88/8/50 91/8/49 96/8/49
f 91/8/49 88/8/50 90/8/50
f 81/8/51 96/8/51 86/8/51
f 96/8/51 81/8/51 88/8/51
f 88/8/51 81/8/51 97/8/51
f 97/8/51 81/8/51 98/8/51
f 99/8/51 88/8/51 97/8/51
f 98/8/51 81/8/51 82/8/51
f 100/8/51 88/8/51 99/8/51
f 98/8/51 82/8/51 101/8/51
f 88/8/51 100/8/51 87/8/51
f 101/8/51 82/8/51 94/8/51
f 87/8/51 94/8/51 95/8/51
f 87/8/51 100/8/51 102/8/51
f 101/8/51 94/8/51 102/8/51
f 102/8/51 94/8/51 87/8/51

usemtl yellow

f 98/91/51 99/90/51 97/89/51
f 99/90/51 98/91/51 100/88/51
f 100/88/51 98/91/51 101/87/51
f 100/88/51 101/87/51 102/86/51

g Group

v -0.2600834 0.290309 -0.03351199
v -0.2600834 0.290309 0.03351202
v -0.2751317 0.2771352 -0.03351199
v -0.2751317 0.2771352 0.03351202
v -0.2362691 0.2327427 -0.06702399
v -0.2212208 0.2459165 -0.06702399
v -0.1512679 0.1660101 0.04720001
v -0.1512679 0.1660101 -0.04719999
v -0.1663162 0.1528363 0.04720001
v -0.1663162 0.1528363 -0.04719999
v -0.1896338 0.1794718 -0.06702399
v -0.2362691 0.2327427 0.06702401
v -0.1896338 0.1794718 0.06702401
v -0.2212208 0.2459165 0.06702401
v -0.1745855 0.1926456 0.06702401
v -0.1745855 0.1926456 -0.06702399
v -0.2019202 0.2238697 -0.03464101
v -0.215094 0.238918 6.92904E-09
v -0.1755726 0.1937731 -0.03464101
v -0.1623988 0.1787248 6.92904E-09
v -0.2019202 0.2238697 0.03464102
v -0.1755726 0.1937731 0.03464102

vn -0.6121277 0.6992279 -0.5409095
vn -0.6121277 0.6992279 0.5409095
vn -0.1809037 0.2066446 -1.039603
vn 0.7082683 -0.8090484 0
vn -0.8090484 -0.7082683 0
vn -0.1809037 0.2066446 1.039603
vn 0.1788248 -0.2042699 1.040432
vn 0.3460623 -0.3953037 0.9381785
vn 0.1788248 -0.2042699 -1.040432
vn 0.3460623 -0.3953037 -0.9381785
vn 0.8090484 0.7082683 0


usemtl _defaultMat

f 105/88/52 104/87/53 103/86/52
f 104/88/53 105/87/52 106/86/53
f 105/88/52 108/87/54 107/86/54
f 108/88/54 105/87/52 103/86/52
f 111/88/55 110/87/55 109/86/55
f 110/88/55 111/87/55 112/86/55
f 112/8/56 107/8/56 113/8/56
f 107/8/56 112/8/56 105/8/56
f 105/8/56 112/8/56 111/8/56
f 105/8/56 111/8/56 106/8/56
f 106/8/56 111/8/56 114/8/56
f 114/8/56 111/8/56 115/8/56
f 106/8/53 116/8/57 104/8/53
f 116/8/57 106/8/53 114/8/57
f 114/8/57 117/8/58 116/8/57
f 117/8/58 114/8/57 115/8/58
f 115/8/58 109/8/59 117/8/58
f 109/8/59 115/8/58 111/8/59
f 118/8/60 107/8/54 108/8/54
f 107/8/54 118/8/60 113/8/60
f 110/8/61 113/8/60 118/8/60
f 113/8/60 110/8/61 112/8/61
f 103/8/62 118/8/62 108/8/62
f 118/8/62 103/8/62 110/8/62
f 110/8/62 103/8/62 119/8/62
f 119/8/62 103/8/62 120/8/62
f 121/8/62 110/8/62 119/8/62
f 120/8/62 103/8/62 104/8/62
f 122/8/62 110/8/62 121/8/62
f 120/8/62 104/8/62 123/8/62
f 110/8/62 122/8/62 109/8/62
f 123/8/62 104/8/62 116/8/62
f 109/8/62 116/8/62 117/8/62
f 109/8/62 122/8/62 124/8/62
f 123/8/62 116/8/62 124/8/62
f 124/8/62 116/8/62 109/8/62

usemtl yellow

f 120/91/62 121/90/62 119/89/62
f 121/90/62 120/91/62 122/88/62
f 122/88/62 120/91/62 123/87/62
f 122/88/62 123/87/62 124/86/62

