# Created by Kenney (www.kenney.nl)

mtllib broccoli.mtl

g broccoli

v 0.1875899 0.1830631 -0.1019226
v 0.1019226 0.1830631 -0.1875899
v 0.1580405 0.1468938 -0.08222873
v 0.08222873 0.1468938 -0.1580405
v 0.1353476 0.320453 -0.07814296
v 0.1353476 0.320453 0.07814296
v 0.06767379 0.421668 -0.03907148
v 0.06767379 0.421668 0.03907148
v 4.36205E-10 0.320453 -0.1562859
v 4.36205E-10 0.421668 -0.07814296
v -0.1236242 0.2660213 -2.930513E-10
v -0.131469 0.3024445 0.05859553
v -0.1647306 0.2400784 -5.602624E-10
v -0.1474613 0.2946098 0.06179401
v -0.1353476 0.320453 -0.07814296
v -0.06767379 0.421668 -0.03907148
v -0.1353476 0.320453 0.07814296
v -0.06767379 0.421668 0.03907148
v -0.131469 0.3024445 -0.05859553
v -0.1474613 0.2946098 -0.06179401
v 0.1875899 0.1830631 0.1019226
v 0.1580405 0.1468938 0.08222873
v 0.1019226 0.1830631 0.1875899
v 0.08222873 0.1468938 0.1580405
v -0.1875899 0.1830631 0.1019226
v -0.1581697 0.2683797 0.1153361
v -0.1019226 0.1830631 0.1875899
v -0.1153361 0.2683797 0.1581697
v 4.36205E-10 0.421668 0.07814296
v -0.1672054 0.2329948 -5.945626E-10
v 4.36205E-10 0.320453 0.1562859
v 0.1153361 0.2683797 -0.1581697
v 3.547009E-10 0.2329948 -0.1672054
v 4.787408E-10 0.2400784 -0.1647306
v 0.06179401 0.2946098 -0.1474613
v 0.1581697 0.2683797 -0.1153361
v 0.1474613 0.2946098 -0.06179401
v 0.1672054 0.2329948 -3.637603E-11
v 0.1647306 0.2400784 -1.159213E-10
v 0.1474613 0.2946098 0.06179401
v 0.1236242 0.2660213 1.224362E-10
v 0.131469 0.3024445 0.05859553
v 0.1301325 0.2962391 -0.075132
v 0.131469 0.3024445 -0.05859553
v 0.1301325 0.2962391 0.075132
v 0.05641469 0.3077864 -0.1205647
v -0.1415948 0.1871775 -7.616743E-10
v -0.1580405 0.1468938 0.08222873
v 4.36205E-10 0.2555888 -0.1401545
v -0.06179401 0.2946098 -0.1474613
v -0.05641469 0.3077864 -0.1205647
v 4.362043E-10 0.2555888 0.1401545
v -0.05641469 0.3077864 0.1205647
v -0.1301325 0.2962391 0.075132
v -0.1301325 0.2962391 -0.075132
v -2.414485E-10 0.2329948 0.1672054
v -1.418081E-10 0.2400784 0.1647306
v -0.06179401 0.2946098 0.1474613
v 0.1153361 0.2683797 0.1581697
v 0.06179401 0.2946098 0.1474613
v 0.05641469 0.3077864 0.1205647
v 0.1581697 0.2683797 0.1153361
v 0.1415948 0.1871775 -2.825081E-10
v -0.08222873 0.1468938 0.1580405
v -9.317909E-11 0.1871775 0.1415948
v -0.08222873 0.1468938 -0.1580405
v 4.239011E-10 0.1871775 -0.1415948
v -0.1019226 0.1830631 -0.1875899
v -0.1580405 0.1468938 -0.08222873
v -0.1875899 0.1830631 -0.1019226
v -0.1153361 0.2683797 -0.1581697
v -0.1581697 0.2683797 -0.1153361
v 0.08758488 0.2092269 -4.185924E-10
v 0.08420533 0.204688 0.01449766
v 0.05531891 0.2162502 0.01506265
v 0.01400485 0.1922103 0.1152621
v -7.449638E-11 0.1957378 0.1206262
v 0.02774292 0.2223313 0.02774292
v 0.01536803 0.2059331 0.08028501
v 0.02706792 0.2339329 -6.579624E-10
v 0.0595069 0.2206897 -5.296527E-10
v 2.805952E-10 0.2339329 0.02706792
v 5.246293E-11 0.2093941 0.08717536
v -0.01400485 0.1922103 0.1152621
v -0.01536803 0.2059331 0.08028501
v -0.02774292 0.2223313 0.02774292
v -0.05531891 0.2162502 0.01506265
v -0.0595069 0.2206897 -6.816342E-10
v -0.02706792 0.2339329 -6.838523E-10
v -0.08420533 0.204688 0.01449766
v -0.08758488 0.2092269 -6.797146E-10
v 0.05531891 0.2162502 -0.01506265
v 0.02774292 0.2223313 -0.02774292
v 0.01400485 0.1922103 -0.1152621
v 0.01536803 0.2059331 -0.08028501
v 5.459536E-10 0.2339329 -0.02706792
v 4.477455E-10 0.2093941 -0.08717536
v 0.08420533 0.204688 -0.01449766
v 3.930903E-10 0.1957378 -0.1206262
v -0.02774292 0.2223313 -0.02774292
v -0.01536803 0.2059331 -0.08028501
v -0.01400485 0.1922103 -0.1152621
v -0.05531891 0.2162502 -0.01506265
v -0.08420533 0.204688 -0.01449766
v -0.03278733 0.1356305 0.0194985
v -0.02967817 0.1890692 0.01723302
v 0.018626 0.1807564 0.03016182
v -0.018626 0.1807564 0.03016182
v -0.01974744 0.1378867 0.03265606
v -0.04067856 0 0.04067856
v 0.01974744 0.1378867 0.03265606
v 0.04067856 0 0.04067856
v -0.02967817 0.1890692 -0.01723302
v 0.03278733 0.1356305 -0.0194985
v 0.02967817 0.1890692 -0.01723302
v 0.01974744 0.1378867 -0.03265606
v -0.01974744 0.1378867 -0.03265606
v -0.03278733 0.1356305 -0.0194985
v 0.03278733 0.1356305 0.0194985
v 0.02967817 0.1890692 0.01723302
v 0.018626 0.1807564 -0.03016182
v -0.018626 0.1807564 -0.03016182
v 0.04067856 0 -0.04067856
v -0.04067856 0 -0.04067856

vn 0.7525926 -0.6544561 -0.07274383
vn 0.07274383 -0.6544561 -0.7525926
vn 0.6854976 0.6111116 -0.3957722
vn 0.6854976 0.6111116 0.3957722
vn 0 0.6111116 -0.7915444
vn -0.4582368 0.7260723 -0.5126774
vn -0.8539072 0.4848157 -0.1891993
vn -0.7635046 0.5749826 -0.2940333
vn -0.6854976 0.6111116 -0.3957722
vn -0.6854976 0.6111116 0.3957722
vn -0.4582368 0.7260723 0.5126774
vn -0.8539072 0.4848157 0.1891993
vn -0.7635046 0.5749826 0.2940333
vn 0.7525926 -0.6544561 0.07274383
vn 0.07274383 -0.6544561 0.7525926
vn -0.8956969 0.251179 0.3669279
vn -0.3669279 0.251179 0.8956969
vn 0 1 0
vn -0.9436939 0.3296983 -0.02722027
vn 0 0.6111116 0.7915444
vn 0.3669279 0.251179 -0.8956969
vn -0.02722027 0.3296983 -0.9436939
vn -0.1891993 0.4848157 -0.8539072
vn -0.2940334 0.5749826 -0.7635047
vn 0.8956969 0.251179 -0.3669279
vn 0.7635047 0.5749826 0.2940334
vn 0.9436939 0.3296983 0.02722027
vn 0.8539072 0.4848157 0.1891993
vn 0.8539072 0.4848157 -0.1891993
vn 0.7635046 0.5749826 -0.2940333
vn 0.4582368 0.7260723 -0.5126774
vn 0.9775833 -0.2105487 0
vn 0.3535534 0.8660254 -0.3535534
vn -0.8066159 -0.4508759 -0.3822064
vn -0.7525926 -0.6544561 0.07274383
vn 0.1891993 0.4848157 -0.8539072
vn 0.5126774 0.7260723 -0.4582368
vn 0.2940333 0.5749826 -0.7635046
vn -0.4887916 -0.2105487 0.846612
vn -0.9775833 -0.2105487 0
vn 0.02722027 0.3296983 0.9436939
vn 0.1891993 0.4848157 0.853907
vn 0.2940333 0.5749826 0.7635046
vn 0.4582368 0.7260723 0.5126774
vn 0.3669279 0.251179 0.8956969
vn -0.02722028 0.3296983 0.9436939
vn -0.1891993 0.4848157 0.8539072
vn -0.2940333 0.5749826 0.7635046
vn -0.5126774 0.7260723 0.4582368
vn 0.3535534 0.8660254 0.3535534
vn 0.8066159 -0.4508759 0.3822064
vn -0.07274383 -0.6544561 0.7525926
vn 0.3822064 -0.4508759 0.8066159
vn 0.8956969 0.251179 0.3669279
vn 0.4887916 -0.2105487 -0.846612
vn -0.07274383 -0.6544561 -0.7525926
vn 0.3822064 -0.4508759 -0.8066159
vn -0.3535534 0.8660254 0.3535534
vn -0.7525926 -0.6544561 -0.07274383
vn -0.5126774 0.7260723 -0.4582368
vn -0.3822064 -0.4508759 -0.8066159
vn -0.3669279 0.251179 -0.8956969
vn -0.8956969 0.251179 -0.3669279
vn -0.9436939 0.3296983 0.02722027
vn 0.9436939 0.3296983 -0.02722027
vn 0.8066159 -0.4508759 -0.3822064
vn -0.3535534 -0.8660254 -0.3535534
vn -0.3535534 0.8660254 -0.3535534
vn 0.4887916 -0.2105487 0.846612
vn 0.3535534 -0.8660254 -0.3535534
vn -0.4887916 -0.2105487 -0.846612
vn 0.02722027 0.3296983 -0.9436939
vn -0.3535534 -0.8660254 0.3535534
vn 0.5126774 0.7260723 0.4582368
vn -0.8066159 -0.4508759 0.3822064
vn -0.3822064 -0.4508759 0.8066159
vn 0.3535534 -0.8660254 0.3535534
vn -0.03733542 0.04449462 0.9983118
vn 0 0.05808359 0.9983118
vn 0 -0.1750302 0.9845631
vn 0.7274157 0.686197 0
vn 0.03733542 0.04449462 -0.9983118
vn 0 -0.1750302 -0.9845631
vn 0 -0.8355215 -0.5494577
vn -0.9945071 -0.1046685 0
vn -0.8020866 -0.5972078 0
vn 0.03733542 0.04449462 0.9983118
vn 0.9945071 -0.1046685 0
vn 0.8020866 -0.5972078 0
vn 0 0.8936051 -0.448854
vn 0 0.8936051 0.448854
vn 0 0.05808359 -0.9983118
vn 0 -0.8355215 0.5494577
vn -0.03733542 0.04449462 -0.9983118
vn 0 -1 0
vn 0.9983118 0.0290418 0.05030187
vn -0.7274157 0.686197 0
vn -0.9983118 0.0290418 0.05030187
vn 0.9983118 0.0290418 -0.05030187
vn -0.9983118 0.0290418 -0.05030187
vn -0.9983118 0.05808359 0
vn 0.9983118 0.05808359 0

vt -2.384879 10.78193
vt 2.384879 10.78193
vt -2.110513 8.805304
vt 2.110513 8.805304
vt 3.076494 7.526155
vt -3.076494 7.526155
vt 1.538247 12.31965
vt -1.538247 12.31965
vt 3.628829 4.846611
vt 5.396453 6.932047
vt 4.835453 3.361232
vt 5.949806 6.48347
vt -3.628829 4.846611
vt -4.835453 3.361231
vt -5.396453 6.932047
vt -5.949806 6.48347
vt 2.38488 10.78193
vt -2.384879 6.084672
vt -1.19244 9.473022
vt 2.384879 6.084672
vt 1.19244 9.473022
vt -2.664322 -1.538247
vt -2.664322 1.538247
vt -1.717343E-08 -3.076494
vt -1.717343E-08 3.076494
vt 2.664322 -1.538247
vt 2.664322 1.538247
vt 0.1898004 6.490661
vt 0.1869912 6.786059
vt 4.223971 4.408422
vt 2.599212 9.060119
vt 4.718447 7.966275
vt -4.223971 4.408422
vt -4.718447 7.966275
vt -0.1898005 6.490661
vt -0.1869912 6.786059
vt -2.599212 9.060119
vt 4.718447 7.966275
vt 0.1869912 6.786059
vt 2.957953 12.48022
vt 2.306911 12.73013
vt 3.076494 13.45539
vt -3.076494 13.45539
vt -4.820311E-09 11.26326
vt -2.306911 12.73013
vt -2.957953 12.48022
vt -1.19244 -1.310928
vt -2.384879 0.754438
vt 1.19244 -1.310928
vt -1.531149 0.8827267
vt -2.028712 1.371338
vt 1.785864 1.791964
vt 2.384879 0.754438
vt 2.384879 6.084672
vt -2.384879 6.084672
vt -1.19244 9.473022
vt 2.387047 8.849008
vt 2.818798 10.86991
vt 5.589836 7.07218
vt 6.788657 8.667532
vt 4.835453 3.361231
vt 4.114053 4.249291
vt 5.019156 7.237904
vt 2.758946 10.84312
vt 0.4498352 12.94527
vt -1.153745E-08 11.26326
vt -4.718447 7.966275
vt -0.1898005 6.490661
vt -0.1869912 6.786059
vt 0.1898005 6.490661
vt 0.1869913 6.786059
vt 4.835453 3.361232
vt 5.019156 7.237905
vt 4.114053 4.249291
vt 1.19244 -1.310928
vt -1.19244 -1.310928
vt 2.38488 0.7544379
vt 1.531149 0.8827266
vt 2.028712 1.371338
vt -1.785864 1.791964
vt -2.384879 0.7544379
vt 2.387047 8.849008
vt -5.589836 7.07218
vt -6.788657 8.667532
vt -2.387047 8.849008
vt -2.818798 10.86991
vt 2.38488 6.084672
vt 1.19244 9.473022
vt 0.4498352 12.94527
vt 1.785864 1.791964
vt 2.384879 0.7544378
vt -1.531149 0.8827264
vt 1.19244 -1.310928
vt -1.19244 -1.310928
vt -2.028712 1.371338
vt -2.384879 0.7544378
vt -2.38488 10.78193
vt -5.019156 7.237904
vt -4.114053 4.249291
vt -2.387047 8.849008
vt -2.818799 10.86991
vt -2.38488 6.084672
vt -0.1869912 6.786059
vt -0.1898004 6.490661
vt -2.110513 -2.901078
vt -3.941835 0.2708664
vt 2.110513 -2.901078
vt -2.438262 2.007043
vt -1.940581 1.649645
vt -1.120688 2.560053
vt 2.818886 0.6671497
vt 3.941835 0.2708663
vt 3.358096 0.9449106
vt -3.078036E-08 3.038884
vt 1.807214 1.747688
vt -0.7535398 3.952393
vt -1.656604 2.909625
vt 0.7535397 3.952393
vt 2.426862 2.020207
vt -1.785864 1.791964
vt 1.531149 0.8827266
vt -2.38488 0.7544379
vt -1.19244 -1.310928
vt 2.028712 1.371338
vt 2.384879 0.7544379
vt -0.4498352 12.94527
vt -2.758946 10.84312
vt -3.358096 0.9449106
vt -2.818886 0.6671497
vt -3.941835 0.2708663
vt -1.807214 1.747688
vt -6.404231E-09 3.038884
vt -2.426862 2.020207
vt 1.120688 2.560053
vt 1.656604 2.909625
vt 0.7535398 3.952393
vt 1.940581 1.649645
vt 2.438262 2.007043
vt 3.941835 0.2708663
vt -0.4498352 12.94527
vt 0.1898004 6.490661
vt 0.1869912 6.786059
vt 6.083831E-09 3.038884
vt -2.818886 0.6671497
vt -1.807214 1.747688
vt -0.7535397 3.952393
vt 3.941835 0.2708664
vt -3.941835 0.2708664
vt -3.358096 0.9449107
vt -4.835453 3.361232
vt 2.426862 2.020207
vt 2.034399E-08 3.038884
vt 1.807214 1.747688
vt 2.818886 0.6671497
vt 3.358096 0.9449107
vt 3.941835 0.2708664
vt -1.656604 2.909625
vt -1.940581 1.649645
vt -1.261249 5.298214
vt -3.291523 8.01971
vt -1.14226 7.404188
vt -2.154226 8.475365
vt 1.104705E-08 9.132508
vt 1.092241 8.674982
vt -1.092241 8.674982
vt 0.7333069 7.035408
vt -0.7333069 7.035408
vt -0.7774583 5.344768
vt -1.601518 -0.09302192
vt 0.7774583 5.344768
vt 1.601518 -0.09302192
vt 0.6784654 6.216417
vt -0.6784654 6.216417
vt 0.5930175 7.687537
vt 2.683561E-08 7.92782
vt -0.5930175 7.687537
vt -1.261249 5.298214
vt -3.291523 8.01971
vt -2.154226 8.475365
vt -0.7774583 4.056998
vt -0.5513721 7.949426
vt 0.7774583 4.056998
vt -1.547605E-08 8.202185
vt 0.5513721 7.949426
vt -0.7676576 5.053867
vt -0.570774 8.443525
vt 0.7676575 5.053867
vt -2.675985E-08 8.666318
vt 0.570774 8.443525
vt 1.261249 5.298214
vt 1.14226 7.404188
vt 3.291523 8.01971
vt 2.154226 8.475365
vt 0.7676576 5.053867
vt -0.7676575 5.053867
vt 0.570774 8.443525
vt 1.648058E-08 8.666318
vt -0.570774 8.443525
vt -0.7333069 4.255355
vt -0.6050406 6.463661
vt 0.7333069 4.255355
vt -2.065426E-09 6.767233
vt 0.6050406 6.463661
vt 0.6050406 6.463661
vt 1.762776E-08 6.767233
vt -0.6050406 6.463661
vt -2.149423E-08 9.132508
vt 1.092241 8.674982
vt -1.092241 8.674982
vt -0.7774583 5.344768
vt -1.601518 -0.09302192
vt 0.7774583 5.344768
vt 1.601518 -0.09302192
vt 0.7774583 4.056998
vt -0.7774583 4.056998
vt 0.5513721 7.949426
vt -2.932925E-09 8.202185
vt -0.5513721 7.949426
vt 1.261249 5.298214
vt 1.601518 1.601518
vt 1.601518 -1.601518
vt -1.601518 1.601518
vt -1.601518 -1.601518
vt -1.149066 7.090389
vt -1.244919 5.40189
vt -3.126375 8.082014
vt -4.504383 7.541517
vt -2.085287E-08 7.92782
vt 1.149066 7.090389
vt 3.126375 8.082014
vt 1.244919 5.40189
vt 4.504383 7.541517
vt -0.7676576 5.25579
vt -0.6784654 7.363236
vt 0.7676575 5.25579
vt -2.692332E-08 9.132508
vt 0.6784654 7.363236
vt 0.7676576 5.25579
vt -0.7676575 5.25579
vt 2.590403E-08 9.132508

usemtl greenDark

f 3/3/1 2/2/2 1/1/1
f 2/2/2 3/3/1 4/4/2
f 7/7/3 6/6/4 5/5/3
f 6/6/4 7/7/3 8/8/4
f 10/7/5 5/6/3 9/5/5
f 5/6/3 10/7/5 7/8/3
f 13/11/7 12/10/6 11/9/6
f 12/10/6 13/11/7 14/12/8
f 17/5/10 16/8/9 15/6/9
f 16/8/9 17/5/10 18/7/10
f 19/15/11 13/14/12 11/13/11
f 13/14/12 19/15/11 20/16/13
f 23/1/15 22/4/14 21/17/14
f 22/4/14 23/1/15 24/3/15
f 27/20/17 26/19/16 25/18/16
f 26/19/16 27/20/17 28/21/17
f 10/24/18 8/23/18 7/22/18
f 8/23/18 10/24/18 29/25/18
f 29/25/18 10/24/18 16/26/18
f 29/25/18 16/26/18 18/27/18
f 25/30/16 13/29/7 30/28/19
f 13/29/7 25/30/16 14/31/8
f 14/31/8 25/30/16 26/32/16
f 8/7/4 31/6/20 6/5/4
f 31/6/20 8/7/4 29/8/20
f 33/35/22 32/34/21 2/33/21
f 32/34/21 33/35/22 34/36/23
f 32/34/21 34/36/23 35/37/24
f 37/31/26 1/30/25 36/38/25
f 1/30/25 37/31/26 38/28/27
f 38/28/27 37/31/26 39/39/28
f 41/13/31 40/16/30 39/14/29
f 40/16/30 41/13/31 42/15/31
f 5/42/32 44/41/32 43/40/32
f 44/41/32 5/42/32 6/43/32
f 44/41/32 6/43/32 41/44/32
f 41/44/32 6/43/32 42/45/32
f 42/45/32 6/43/32 45/46/32
f 32/49/33 37/48/33 36/47/33
f 37/48/33 32/49/33 43/50/33
f 37/48/33 43/50/33 44/51/33
f 43/50/33 32/49/33 46/52/33
f 46/52/33 32/49/33 35/53/33
f 32/21/21 1/55/25 2/54/21
f 1/55/25 32/21/21 36/56/25
f 48/59/35 30/58/34 47/57/34
f 30/58/34 48/59/35 25/60/35
f 50/12/38 49/62/37 34/61/36
f 49/62/37 50/12/38 51/63/37
f 31/42/39 53/65/39 52/64/39
f 17/43/39 53/65/39 31/42/39
f 53/65/39 17/43/39 54/46/39
f 16/7/9 9/6/5 15/5/9
f 9/6/5 16/7/9 10/8/5
f 19/45/40 15/43/40 55/46/40
f 15/43/40 19/45/40 17/42/40
f 17/42/40 19/45/40 11/66/40
f 17/42/40 11/66/40 12/41/40
f 17/42/40 12/41/40 54/40/40
f 56/68/41 28/67/17 27/33/17
f 28/67/17 56/68/41 57/69/42
f 28/67/17 57/69/42 58/37/43
f 37/12/26 41/9/44 39/61/28
f 41/9/44 37/12/26 44/10/44
f 59/32/45 56/70/46 23/30/45
f 56/70/46 59/32/45 57/71/47
f 57/71/47 59/32/45 60/31/48
f 61/73/49 57/72/47 60/12/48
f 57/72/47 61/73/49 52/74/49
f 40/77/50 59/76/50 62/75/50
f 59/76/50 40/77/50 45/78/50
f 45/78/50 40/77/50 42/79/50
f 59/76/50 45/78/50 61/80/50
f 59/76/50 61/80/50 60/81/50
f 38/58/51 3/59/1 1/60/1
f 3/59/1 38/58/51 63/82/51
f 29/7/20 17/6/10 31/5/20
f 17/6/10 29/7/20 18/8/10
f 65/85/53 27/84/52 64/83/52
f 27/84/52 65/85/53 56/86/53
f 27/2/52 48/3/35 64/4/52
f 48/3/35 27/2/52 25/1/35
f 62/88/54 23/55/45 21/87/54
f 23/55/45 62/88/54 59/56/45
f 9/42/55 46/89/55 49/64/55
f 5/43/55 46/89/55 9/42/55
f 46/89/55 5/43/55 43/46/55
f 68/60/56 67/82/57 66/59/56
f 67/82/57 68/60/56 33/58/57
f 54/92/58 58/91/58 53/90/58
f 58/91/58 54/92/58 28/93/58
f 28/93/58 54/92/58 26/94/58
f 26/94/58 54/92/58 12/95/58
f 26/94/58 12/95/58 14/96/58
f 69/4/59 68/97/56 66/3/56
f 68/97/56 69/4/59 70/2/59
f 34/14/23 46/98/60 35/16/24
f 46/98/60 34/14/23 49/99/60
f 67/100/61 2/84/2 4/83/2
f 2/84/2 67/100/61 33/101/61
f 70/54/63 71/19/62 68/102/62
f 71/19/62 70/54/63 72/21/63
f 70/33/63 20/37/13 72/34/63
f 20/37/13 70/33/63 30/35/64
f 20/37/13 30/35/64 13/69/12
f 40/37/30 38/104/65 39/103/29
f 38/104/65 40/37/30 21/33/54
f 21/33/54 40/37/30 62/67/54
f 38/86/66 22/83/14 63/85/66
f 22/83/14 38/86/66 21/84/14
f 24/107/67 63/106/67 22/105/67
f 63/106/67 24/107/67 73/108/67
f 73/108/67 24/107/67 74/109/67
f 74/109/67 24/107/67 75/110/67
f 75/110/67 24/107/67 76/111/67
f 76/111/67 24/107/67 65/112/67
f 76/111/67 65/112/67 77/113/67
f 75/110/67 76/111/67 78/114/67
f 78/114/67 76/111/67 79/115/67
f 80/116/67 75/110/67 78/114/67
f 75/110/67 80/116/67 81/117/67
f 79/115/67 82/118/67 78/114/67
f 82/118/67 79/115/67 83/119/67
f 50/122/68 55/121/68 51/120/68
f 55/121/68 50/122/68 71/123/68
f 55/121/68 71/123/68 72/49/68
f 55/121/68 72/49/68 19/124/68
f 19/124/68 72/49/68 20/125/68
f 6/42/69 61/126/69 45/40/69
f 31/43/69 61/126/69 6/42/69
f 61/126/69 31/43/69 52/127/69
f 65/130/70 84/129/70 77/128/70
f 84/129/70 65/130/70 64/105/70
f 84/129/70 64/105/70 85/131/70
f 85/131/70 64/105/70 86/132/70
f 86/132/70 83/133/70 85/131/70
f 83/133/70 86/132/70 82/116/70
f 86/132/70 64/105/70 87/134/70
f 88/135/70 86/132/70 87/134/70
f 86/132/70 88/135/70 89/136/70
f 87/134/70 64/105/70 90/137/70
f 90/137/70 64/105/70 48/107/70
f 90/137/70 48/107/70 91/138/70
f 91/138/70 48/107/70 47/139/70
f 15/42/71 51/140/71 55/40/71
f 9/43/71 51/140/71 15/42/71
f 51/140/71 9/43/71 49/127/71
f 71/32/62 33/141/72 68/30/62
f 33/141/72 71/32/62 34/142/36
f 34/142/36 71/32/62 50/31/38
f 80/118/73 92/134/73 81/135/73
f 92/134/73 80/118/73 93/143/73
f 94/144/73 92/134/73 93/143/73
f 94/144/73 93/143/73 95/145/73
f 96/146/73 95/145/73 93/143/73
f 95/145/73 96/146/73 97/133/73
f 4/105/73 92/134/73 94/144/73
f 4/105/73 98/137/73 92/134/73
f 4/105/73 73/138/73 98/137/73
f 4/105/73 63/147/73 73/138/73
f 63/147/73 4/105/73 3/107/73
f 4/105/73 94/144/73 67/148/73
f 67/148/73 94/144/73 99/149/73
f 53/98/74 57/150/42 52/99/74
f 57/150/42 53/98/74 58/16/43
f 69/83/59 30/86/75 70/84/59
f 30/86/75 69/83/59 47/100/75
f 23/60/15 65/82/76 24/59/15
f 65/82/76 23/60/15 56/58/76
f 100/152/77 97/151/77 96/136/77
f 97/151/77 100/152/77 101/153/77
f 66/107/77 101/153/77 100/152/77
f 66/107/77 102/154/77 101/153/77
f 66/107/77 99/155/77 102/154/77
f 99/155/77 66/107/77 67/156/77
f 66/107/77 100/152/77 103/110/77
f 100/152/77 88/157/77 103/110/77
f 88/157/77 100/152/77 89/146/77
f 66/107/77 103/110/77 104/158/77
f 66/107/77 104/158/77 69/105/77
f 69/105/77 104/158/77 91/108/77
f 69/105/77 91/108/77 47/106/77

usemtl green

f 106/161/78 90/160/78 105/159/78
f 90/160/78 106/161/78 87/162/78
f 86/165/79 78/164/79 82/163/79
f 107/166/79 78/164/79 86/165/79
f 86/165/79 108/167/79 107/166/79
f 86/165/79 109/168/80 108/167/79
f 110/169/79 109/168/80 86/165/79
f 111/170/80 78/164/79 107/166/79
f 109/168/80 110/169/79 111/170/80
f 111/170/80 112/171/79 78/164/79
f 112/171/79 111/170/80 110/169/79
f 103/174/81 106/173/81 113/172/81
f 106/173/81 103/174/81 88/175/81
f 106/173/81 88/175/81 87/176/81
f 115/161/82 98/178/82 114/177/82
f 98/178/82 115/161/82 92/179/82
f 117/182/83 94/181/84 116/180/83
f 94/181/84 117/182/83 99/183/84
f 99/183/84 117/182/83 102/184/84
f 105/187/85 104/186/86 118/185/85
f 104/186/86 105/187/85 91/188/86
f 91/188/86 105/187/85 90/189/86
f 74/192/87 120/191/87 119/190/87
f 120/191/87 74/192/87 75/193/87
f 98/196/89 119/195/88 114/194/88
f 119/195/88 98/196/89 73/197/89
f 119/195/88 73/197/89 74/198/89
f 108/201/90 79/200/90 107/199/90
f 79/200/90 108/201/90 83/202/90
f 83/202/90 108/201/90 85/203/90
f 95/204/91 122/199/91 121/201/91
f 122/199/91 95/204/91 97/205/91
f 122/199/91 97/205/91 101/206/91
f 93/209/92 100/208/92 96/207/92
f 93/209/92 121/167/92 100/208/92
f 122/166/92 100/208/92 121/167/92
f 93/209/92 116/210/83 121/167/92
f 123/211/92 116/210/83 93/209/92
f 117/212/83 100/208/92 122/166/92
f 116/210/83 123/211/92 117/212/83
f 117/212/83 124/213/92 100/208/92
f 124/213/92 117/212/83 123/211/92
f 76/216/93 109/215/80 111/214/80
f 109/215/80 76/216/93 77/217/93
f 109/215/80 77/217/93 84/218/93
f 104/192/94 113/191/94 118/219/94
f 113/191/94 104/192/94 103/193/94
f 110/222/95 123/221/95 112/220/95
f 123/221/95 110/222/95 124/223/95
f 79/226/96 111/225/96 107/224/96
f 111/225/96 79/226/96 76/227/96
f 120/172/97 92/176/97 115/173/97
f 92/176/97 120/172/97 81/228/97
f 81/228/97 120/172/97 75/174/97
f 109/231/98 85/230/98 108/229/98
f 85/230/98 109/231/98 84/232/98
f 95/230/99 116/231/99 94/232/99
f 116/231/99 95/230/99 121/229/99
f 117/225/100 101/226/100 102/227/100
f 101/226/100 117/225/100 122/224/100
f 124/211/101 118/233/85 100/165/101
f 118/233/85 124/211/101 110/171/101
f 113/234/101 100/165/101 118/233/85
f 118/233/85 110/171/101 105/235/85
f 100/165/101 113/234/101 89/236/101
f 105/235/85 110/171/101 86/208/101
f 89/236/101 113/234/101 106/237/101
f 89/236/101 106/237/101 86/208/101
f 86/208/101 106/237/101 105/235/85
f 123/171/102 114/238/88 112/211/102
f 114/238/88 123/171/102 93/208/102
f 112/211/102 114/238/88 119/239/88
f 93/208/102 115/237/102 114/238/88
f 112/211/102 119/239/88 78/165/102
f 115/237/102 93/208/102 80/240/102
f 120/234/102 78/165/102 119/239/88
f 115/237/102 80/240/102 120/234/102
f 120/234/102 80/240/102 78/165/102

