# Created by Kenney (www.kenney.nl)

mtllib burgerCheese.mtl

g bunBottom

v 0 0 0.18
v -0.1272792 0 0.1272792
v 0 0.04 0.18
v -0.1272792 0.04 0.1272792
v 0 0 -0.18
v 0.1272792 0 -0.1272792
v 0 0.04 -0.18
v 0.1272792 0.04 -0.1272792
v 0.1272792 0 0.1272792
v 0.1272792 0.04 0.1272792
v 0.18 0 0
v -0.1272792 0 -0.1272792
v -0.18 0 0
v 0.18 0.04 0
v -0.1272792 0.04 -0.1272792
v -0.18 0.04 0

vn 0 0 1
vn -0.7071068 0 0.7071068
vn 0 0 -1
vn 0.7071068 0 -0.7071068
vn 0.7071068 0 0.7071068
vn -0.7071068 0 -0.7071068
vn 0 -1 0
vn 0 1 0
vn 1 0 0
vn -1 0 0

vt 2.71193 0
vt -2.71193 0
vt 2.71193 1.574803
vt -2.71193 1.574803
vt 7.086614 0
vt 5.010993 -5.010993
vt 5.010993 5.010993
vt 0 7.086614
vt 0 -7.086614
vt -5.010993 5.010993
vt -5.010993 -5.010993
vt -7.086614 0

usemtl brownLight

f 3/3/1 2/2/2 1/1/1
f 2/2/2 3/3/1 4/4/2
f 1/1/3 2/2/4 3/3/3
f 4/4/4 3/3/3 2/2/4
f 7/3/3 6/2/4 5/1/3
f 6/2/4 7/3/3 8/4/4
f 5/1/1 6/2/2 7/3/1
f 8/4/2 7/3/1 6/2/2
f 10/3/5 1/2/1 9/1/5
f 1/2/1 10/3/5 3/4/1
f 9/1/6 1/2/3 10/3/6
f 3/4/3 10/3/6 1/2/3
f 9/7/7 6/6/7 11/5/7
f 6/6/7 9/7/7 1/8/7
f 6/6/7 1/8/7 5/9/7
f 5/9/7 1/8/7 2/10/7
f 5/9/7 2/10/7 12/11/7
f 12/11/7 2/10/7 13/12/7
f 11/5/8 6/6/8 9/7/8
f 1/8/8 9/7/8 6/6/8
f 5/9/8 1/8/8 6/6/8
f 2/10/8 1/8/8 5/9/8
f 12/11/8 2/10/8 5/9/8
f 13/12/8 2/10/8 12/11/8
f 14/4/9 6/1/4 8/3/4
f 6/1/4 14/4/9 11/2/9
f 8/3/2 6/1/2 14/4/10
f 11/2/10 14/4/10 6/1/2
f 15/3/6 5/2/3 12/1/6
f 5/2/3 15/3/6 7/4/3
f 12/1/5 5/2/1 15/3/5
f 7/4/1 15/3/5 5/2/1
f 13/1/10 15/4/6 12/2/6
f 15/4/6 13/1/10 16/3/10
f 12/2/5 15/4/5 13/1/9
f 16/3/9 13/1/9 15/4/5
f 2/1/2 16/4/10 13/2/10
f 16/4/10 2/1/2 4/3/2
f 13/2/9 16/4/9 2/1/4
f 4/3/4 2/1/4 16/4/9
f 10/4/5 11/1/9 14/3/9
f 11/1/9 10/4/5 9/2/5
f 14/3/10 11/1/10 10/4/6
f 9/2/6 10/4/6 11/1/10
f 8/11/8 10/10/8 14/12/8
f 10/10/8 8/11/8 7/9/8
f 10/10/8 7/9/8 3/8/8
f 3/8/8 7/9/8 15/6/8
f 3/8/8 15/6/8 4/7/8
f 4/7/8 15/6/8 16/5/8
f 14/12/7 10/10/7 8/11/7
f 7/9/7 8/11/7 10/10/7
f 3/8/7 7/9/7 10/10/7
f 15/6/7 7/9/7 3/8/7
f 4/7/7 15/6/7 3/8/7
f 16/5/7 15/6/7 4/7/7

g bunTop

v 0.07956 0.22 -1.082867E-15
v 0.05625741 0.22 0.05625741
v 0.05625741 0.22 -0.05625741
v 0 0.22 -0.07956
v 0 0.22 0.07956
v -0.05625741 0.22 -0.05625741
v -0.05625741 0.22 0.05625741
v -0.07956 0.22 -1.082867E-15
v 0.18 0.1 0
v 0.1272792 0.1 -0.1272792
v 0.1272792 0.1 0.1272792
v 0 0.1 0.18
v 0 0.1 -0.18
v -0.1272792 0.1 0.1272792
v -0.1272792 0.1 -0.1272792
v -0.18 0.1 0
v -0.1872 0.13 0
v -0.1323704 0.13 0.1323704
v -0.1323704 0.13 -0.1323704
v 0 0.13 -0.1872
v 0.1323704 0.13 -0.1323704
v 0.1872 0.13 0
v 0.1323704 0.13 0.1323704
v 0 0.13 0.1872
v 0.15912 0.19 -1.082867E-15
v 0.1125148 0.19 0.1125148
v -0.15912 0.19 -1.082867E-15
v -0.1125148 0.19 0.1125148
v 0 0.19 -0.15912
v 0.1125148 0.19 -0.1125148
v 0 0.19 0.15912
v -0.1125148 0.19 -0.1125148

vn -0.9723873 -0.2333729 0
vn -0.6875817 -0.233373 0.6875817
vn -0.6875817 -0.233373 -0.6875817
vn 0 -0.2333729 -0.9723873
vn 0.6875817 -0.233373 -0.6875817
vn 0.9723873 -0.2333729 0
vn 0.6875817 -0.233373 0.6875817
vn 0 -0.2333729 0.9723873
vn 0.9057198 0.4238769 0
vn 0.6404406 0.4238769 0.6404406
vn -0.9057198 0.4238769 0
vn -0.6404406 0.4238769 0.6404406
vn 0 0.4238769 -0.9057198
vn 0.6404406 0.4238769 -0.6404406
vn 0 0.4238769 0.9057198
vn -0.6404406 0.4238769 -0.6404406
vn 0.3528242 0.9356896 0
vn 0.2494843 0.9356896 0.2494843
vn 0 0.9356896 -0.3528242
vn -0.2494843 0.9356896 -0.2494843
vn 0.2494843 0.9356896 -0.2494843
vn 0 0.9356896 0.3528242
vn -0.2494843 0.9356896 0.2494843
vn -0.3528242 0.9356896 0

vt -3.132283 -4.263256E-14
vt -2.214859 2.214859
vt -2.214859 -2.214859
vt 0 -3.132283
vt 0 3.132283
vt 2.214859 -2.214859
vt 2.214859 2.214859
vt 3.132283 -4.263256E-14
vt -2.71193 1.417291
vt -2.820407 2.627079
vt 2.71193 1.417291
vt 2.820407 2.627079
vt 2.397346 0.9553662
vt 2.820407 -1.618189
vt -2.397346 0.9553662
vt -2.820407 -1.618189
vt 2.397346 -4.019629
vt -2.397346 -4.019629
vt 1.198673 -0.8940268
vt -1.198673 -0.8940268

usemtl brownLight

f 19/15/8 18/14/8 17/13/8
f 18/14/8 19/15/8 20/16/8
f 18/14/8 20/16/8 21/17/8
f 21/17/8 20/16/8 22/18/8
f 21/17/8 22/18/8 23/19/8
f 23/19/8 22/18/8 24/20/8
f 27/7/7 26/6/7 25/5/7
f 26/6/7 27/7/7 28/8/7
f 26/6/7 28/8/7 29/9/7
f 29/9/7 28/8/7 30/10/7
f 29/9/7 30/10/7 31/11/7
f 31/11/7 30/10/7 32/12/7
f 30/23/12 33/22/11 32/21/11
f 33/22/11 30/23/12 34/24/12
f 35/24/13 29/21/14 31/23/13
f 29/21/14 35/24/13 36/22/14
f 38/22/16 26/23/15 37/24/15
f 26/23/15 38/22/16 25/21/16
f 39/24/17 28/21/18 27/23/17
f 28/21/18 39/24/17 40/22/18
f 31/21/13 33/24/11 35/22/13
f 33/24/11 31/21/13 32/23/11
f 39/22/17 25/23/16 38/24/16
f 25/23/16 39/22/17 27/21/17
f 36/24/14 26/21/15 29/23/14
f 26/21/15 36/24/14 37/22/15
f 40/24/18 30/21/12 28/23/18
f 30/21/12 40/24/18 34/22/12
f 42/27/20 38/26/19 41/25/19
f 38/26/19 42/27/20 39/28/20
f 33/28/21 44/25/22 43/27/21
f 44/25/22 33/28/21 34/26/22
f 45/25/23 37/28/24 36/26/23
f 37/28/24 45/25/23 46/27/24
f 42/25/20 40/28/25 39/26/20
f 40/28/25 42/25/20 47/27/25
f 46/25/24 38/28/19 37/26/24
f 38/28/19 46/25/24 41/27/19
f 47/25/25 34/28/22 40/26/25
f 34/28/22 47/25/25 44/27/22
f 48/25/26 36/28/23 35/26/26
f 36/28/23 48/25/26 45/27/23
f 33/26/21 48/27/26 35/28/26
f 48/27/26 33/26/21 43/25/21
f 17/31/27 42/30/28 41/29/27
f 42/30/28 17/31/27 18/32/28
f 48/29/30 20/32/29 45/30/29
f 20/32/29 48/29/30 22/31/30
f 46/29/31 17/32/27 41/30/27
f 17/32/27 46/29/31 19/31/31
f 18/31/28 47/30/32 42/29/28
f 47/30/32 18/31/28 21/32/32
f 23/32/33 47/29/32 21/31/32
f 47/29/32 23/32/33 44/30/33
f 48/30/30 24/31/34 22/32/30
f 24/31/34 48/30/30 43/29/34
f 45/29/29 19/32/31 46/30/31
f 19/32/31 45/29/29 20/31/29
f 24/32/34 44/29/33 23/31/33
f 44/29/33 24/32/34 43/30/34

g cheese

v 0.09405734 0.09559999 -0.171
v 0.1238485 0.0556 -0.1426984
v 0.1536396 0.09559999 -0.1143968
v -0.1238485 0.0556 -0.1426984
v -0.09405734 0.09559999 -0.171
v -0.1536396 0.09559999 -0.1143968
v 0.1536396 0.09559999 0.1143968
v 0.1238485 0.0556 0.1426984
v 0.09405734 0.09559999 0.171
v -0.1238485 0.0556 0.1426984
v -0.1536396 0.09559999 0.1143968
v -0.09405734 0.09559999 0.171

vn 1.122481 0.8899322 -0.3074709
vn 2.461079 0 -0.674141
vn 0.9125851 0.92871 -0.2499761
vn -2.461079 0 -0.674141
vn -1.122481 0.8899322 -0.3074709
vn -0.9125851 0.92871 -0.2499761
vn 0.9125851 0.92871 0.2499761
vn 2.461079 0 0.674141
vn 1.122481 0.8899322 0.3074709
vn -2.461079 0 0.674141
vn -0.9125851 0.92871 0.2499761
vn -1.122481 0.8899322 0.3074709

vt 3.535168 1.574803
vt 2.64765 -5.367994E-16
vt 1.760133 1.574803
vt -2.64765 -1.760267E-15
vt -3.535168 1.574803
vt -1.760133 1.574803
vt -2.64765 -1.111915E-16
vt 2.64765 8.102815E-16
vt -2.165354 -3.16057
vt -2.165354 3.16057
vt -1.325618 -4.72441
vt -1.325618 4.72441
vt 1.325618 -4.72441
vt 1.325618 4.72441
vt 2.165354 -3.16057
vt 2.165354 3.16057

usemtl yellow

f 51/35/37 50/34/36 49/33/35
f 54/38/40 53/37/39 52/36/38
f 57/37/43 56/39/42 55/38/41
f 60/33/46 59/35/45 58/40/44
f 49/43/35 55/42/41 51/41/37
f 55/42/41 49/43/35 57/44/43
f 57/44/43 49/43/35 53/45/39
f 57/44/43 53/45/39 60/46/46
f 60/46/46 53/45/39 54/47/40
f 60/46/46 54/47/40 59/48/45

g patty

v -3.609557E-16 0.04 0.18
v -3.609557E-16 0.04 -0.18
v 0.18 0.0856 0
v 0.1272792 0.0856 0.1272792
v 0.1272792 0.0856 -0.1272792
v -3.609557E-16 0.0856 -0.18
v -3.609557E-16 0.0856 0.18
v -0.1272792 0.0856 -0.1272792
v -0.1272792 0.0856 0.1272792
v -0.18 0.0856 0
v 0.189 0.0628 0
v 0.1336432 0.0628 0.1336432
v -3.609557E-16 0.0628 0.189
v -0.1336432 0.0628 0.1336432
v -0.189 0.0628 0
v 0.1336432 0.0628 -0.1336432
v -3.609557E-16 0.0628 -0.189
v -0.1336432 0.0628 -0.1336432

vn 0 -1.14 0
vn 0 1.14 0
vn 0.9119215 0.4678157 0
vn 0.6448259 0.4678157 0.6448259
vn -0.6448259 -0.4678157 -0.6448259
vn -0.9119215 -0.4678157 0
vn 0 -0.4678157 0.9119215
vn -0.6448259 -0.4678157 0.6448259
vn 0 0.4678157 -0.9119215
vn 0.6448259 0.4678157 -0.6448259
vn 0 -0.4678157 -0.9119215
vn 0 0.4678157 0.9119215
vn 0.6448259 -0.4678157 -0.6448259
vn 0.9119215 -0.4678157 0
vn -0.9119215 0.4678157 0
vn -0.6448259 0.4678157 0.6448259
vn -0.6448259 0.4678157 -0.6448259
vn 0.6448259 -0.4678157 0.6448259

vt -1.421085E-14 7.086614
vt -1.421085E-14 -7.086614
vt 1.421085E-14 -7.086614
vt 1.421085E-14 7.086614
vt 2.71193 -1.059261
vt 2.847526 -1.912001
vt -2.71193 -1.059261
vt -2.847526 -1.912001
vt 2.71193 2.513401
vt -2.71193 2.513401
vt 2.847526 3.366141
vt -2.847526 3.366141
vt -7.440945 0
vt -5.261543 5.261543
vt -5.261543 -5.261543
vt 1.421085E-14 -7.440945
vt 1.421085E-14 7.440945
vt 5.261543 -5.261543
vt 5.261543 5.261543
vt 7.440945 0

usemtl brownDark

f 10/7/47 8/6/47 14/5/47
f 8/6/47 10/7/47 61/49/47
f 8/6/47 61/49/47 62/50/47
f 62/50/47 61/49/47 4/10/47
f 62/50/47 4/10/47 15/11/47
f 15/11/47 4/10/47 16/12/47
f 14/5/48 8/6/48 10/7/48
f 61/49/48 10/7/48 8/6/48
f 62/50/48 61/49/48 8/6/48
f 4/10/48 61/49/48 62/50/48
f 15/11/48 4/10/48 62/50/48
f 16/12/48 4/10/48 15/11/48
f 65/11/48 64/10/48 63/12/48
f 64/10/48 65/11/48 66/51/48
f 64/10/48 66/51/48 67/52/48
f 67/52/48 66/51/48 68/6/48
f 67/52/48 68/6/48 69/7/48
f 69/7/48 68/6/48 70/5/48
f 63/12/47 64/10/47 65/11/47
f 66/51/47 65/11/47 64/10/47
f 67/52/47 66/51/47 64/10/47
f 68/6/47 66/51/47 67/52/47
f 69/7/47 68/6/47 67/52/47
f 70/5/47 68/6/47 69/7/47
f 64/55/50 71/54/49 63/53/49
f 71/54/49 64/55/50 72/56/50
f 63/53/52 71/54/52 64/55/51
f 72/56/51 64/55/51 71/54/52
f 73/59/53 4/58/54 61/57/53
f 4/58/54 73/59/53 74/60/54
f 61/57/55 4/58/56 73/59/55
f 74/60/56 73/59/55 4/58/56
f 4/57/54 75/60/52 16/58/52
f 75/60/52 4/57/54 74/59/54
f 16/58/49 75/60/49 4/57/56
f 74/59/56 4/57/56 75/60/49
f 76/63/48 72/62/48 71/61/48
f 72/62/48 76/63/48 77/64/48
f 72/62/48 77/64/48 73/65/48
f 73/65/48 77/64/48 78/66/48
f 73/65/48 78/66/48 74/67/48
f 74/67/48 78/66/48 75/68/48
f 71/61/47 72/62/47 76/63/47
f 77/64/47 76/63/47 72/62/47
f 73/65/47 77/64/47 72/62/47
f 78/66/47 77/64/47 73/65/47
f 74/67/47 78/66/47 73/65/47
f 75/68/47 78/66/47 74/67/47
f 78/59/51 62/58/57 15/57/51
f 62/58/57 78/59/51 77/60/57
f 15/57/50 62/58/58 78/59/50
f 77/60/58 78/59/50 62/58/58
f 66/53/55 76/56/56 77/54/55
f 76/56/56 66/53/55 65/55/56
f 77/54/53 76/56/54 66/53/53
f 65/55/54 66/53/53 76/56/54
f 71/60/60 8/57/59 76/59/59
f 8/57/59 71/60/60 14/58/60
f 76/59/62 8/57/62 71/60/61
f 14/58/61 71/60/61 8/57/62
f 75/54/61 68/55/63 78/56/63
f 68/55/63 75/54/61 70/53/61
f 78/56/64 68/55/64 75/54/60
f 70/53/60 75/54/60 68/55/64
f 68/53/63 77/56/55 78/54/63
f 77/56/55 68/53/63 66/55/55
f 78/54/64 77/56/53 68/53/64
f 66/55/53 68/53/64 77/56/53
f 67/53/58 74/56/62 73/54/58
f 74/56/62 67/53/58 69/55/62
f 73/54/57 74/56/59 67/53/57
f 69/55/59 67/53/57 74/56/59
f 72/59/64 61/58/53 10/57/64
f 61/58/53 72/59/64 73/60/53
f 10/57/63 61/58/55 72/59/63
f 73/60/55 72/59/63 61/58/55
f 15/58/51 75/59/52 78/60/51
f 75/59/52 15/58/51 16/57/52
f 78/60/50 75/59/49 15/58/50
f 16/57/49 15/58/50 75/59/49
f 65/53/56 71/56/49 76/54/56
f 71/56/49 65/53/56 63/55/49
f 76/54/54 71/56/52 65/53/54
f 63/55/52 65/53/54 71/56/52
f 74/54/62 70/55/61 75/56/61
f 70/55/61 74/54/62 69/53/62
f 75/56/60 70/55/60 74/54/59
f 69/53/59 74/54/59 70/55/60
f 72/60/64 14/57/60 71/59/60
f 14/57/60 72/60/64 10/58/64
f 71/59/61 14/57/61 72/60/63
f 10/58/63 72/60/63 14/57/61
f 77/59/57 8/58/59 62/57/57
f 8/58/59 77/59/57 76/60/59
f 62/57/58 8/58/62 77/59/58
f 76/60/62 77/59/58 8/58/62
f 64/53/50 73/56/58 72/54/50
f 73/56/58 64/53/50 67/55/58
f 72/54/51 73/56/57 64/53/51
f 67/55/57 64/53/51 73/56/57

