# Created by Kenney (www.kenney.nl)

mtllib cabbage.mtl

g cabbage

v 0.04754479 0.258048 -0.02745
v 0.04754479 0.258048 0.02745
v 1.082867E-15 0.258048 -0.0549
v 1.082867E-15 0.258048 0.0549
v -0.04754479 0.258048 -0.02745
v -0.04754479 0.258048 0.02745
v -0.1104286 0.171376 -0.063756
v -0.1104286 0.171376 0.063756
v 0.1104286 0.171376 0.063756
v 7.219114E-16 0.171376 0.127512
v 0.1104286 0.171376 -0.063756
v 0.189725 0.1162879 -0.075
v 0.189725 0.1162879 0.075
v 0.1755615 0.1811209 -0.045
v 0.1755615 0.1811209 0.045
v 7.219114E-16 0.171376 -0.127512
v 0.1550398 0.1255909 -0.085
v 0.1550398 0.1255909 0.085
v 0.1271695 0.2431051 -0.06246173
v 0.1179424 0.2820106 -1.082867E-14
v 0.1271695 0.2431051 0.06246173
v -0.1550398 0.1255909 -0.085
v -0.1271695 0.2431051 -0.06246173
v -0.1550398 0.1255909 0.085
v -0.1179424 0.2820106 -7.58007E-15
v -0.1271695 0.2431051 0.06246173
v -0.189725 0.1162879 -0.075
v -0.1755615 0.1811209 -0.045
v -0.189725 0.1162879 0.075
v -0.1755615 0.1811209 0.045
v 0.02991062 0.1034962 -0.2018067
v 0.1598144 0.1034962 -0.1268067
v 0.04880961 0.1611976 -0.1745407
v 0.1267519 0.1611976 -0.1295407
v 0.003907744 0.1117759 -0.1767684
v 0.1511321 0.1117759 -0.09176841
v 0.009491281 0.2163636 -0.1413628
v 0.1176782 0.2163636 -0.07890111
v 0.05897122 0.2509894 -0.1021411
v -0.003907744 0.1042404 0.1767684
v -0.1511321 0.1042404 0.09176841
v -0.009491281 0.2017773 0.1413628
v -0.1176782 0.2017773 0.07890111
v -0.05897122 0.2340688 0.1021411
v -0.02991062 0.09651893 0.2018067
v -0.1598144 0.09651893 0.1268067
v -0.04880961 0.1503303 0.1745407
v -0.1267519 0.1503303 0.1295407
v -0.1511321 0.1343823 -0.09176841
v -0.003907744 0.1343823 -0.1767684
v -0.1176782 0.2601225 -0.07890111
v -0.009491281 0.2601225 -0.1413628
v -0.05897122 0.3017513 -0.1021411
v -0.1598144 0.124428 -0.1268067
v -0.02991062 0.124428 -0.2018067
v -0.1267519 0.1937993 -0.1295407
v -0.04880961 0.1937993 -0.1745407
v 0.1598144 0.1267538 0.1268067
v 0.02991062 0.1267538 0.2018067
v 0.1267519 0.1974217 0.1295407
v 0.04880961 0.1974217 0.1745407
v 0.1511321 0.1368941 0.09176841
v 0.003907744 0.1368941 0.1767684
v 0.1176782 0.2649846 0.07890111
v 0.009491281 0.2649846 0.1413628
v 0.05897122 0.3073915 0.1021411
v 3.248601E-15 0 -0.09
v 0.07794229 0 -0.045
v -8.301981E-15 0 0.09
v -0.07794229 0 0.045
v -0.07794229 0 -0.045
v 0.07794229 0 0.045

vn 0 1 0
vn -0.6638454 0.6421935 -0.3832713
vn -0.6638454 0.6421935 0.3832713
vn 0.6638454 0.6421935 0.3832713
vn 0 0.6421934 0.7665426
vn 0.6638454 0.6421935 -0.3832713
vn 0.9473427 -0.3202213 0
vn 0.9769588 0.2134283 0
vn -0.9769588 -0.2134283 0
vn -0.9473427 0.3202213 0
vn 0 0.6421934 -0.7665426
vn 0.9892895 -0.1459669 0
vn 0.9730096 0.2307645 0
vn -0.9730096 -0.2307645 0
vn -0.9892895 0.1459669 0
vn -0.9892895 -0.1459669 0
vn -0.9730096 0.2307645 0
vn 0.9892895 0.1459669 0
vn 0.9730096 -0.2307645 0
vn -0.9473427 -0.3202213 0
vn -0.9769588 0.2134283 0
vn 0.9473427 0.3202213 0
vn 0.9769588 -0.2134283 0
vn 0.4685839 -0.3488789 -0.8116111
vn 0.4855852 0.2383862 -0.8410583
vn -0.4855852 -0.2383862 0.8410583
vn -0.4685839 0.3488789 0.8116111
vn 0.4938061 -0.1569143 -0.8552973
vn 0.4831401 0.2574928 -0.8368232
vn -0.4831401 -0.2574928 0.8368232
vn -0.4938061 0.1569143 0.8552973
vn -0.4932815 -0.1633819 0.8543885
vn -0.4807585 0.2747456 0.8326981
vn 0.4807585 -0.2747456 -0.8326981
vn 0.4932815 0.1633819 -0.8543885
vn -0.4651702 -0.3666971 0.8056984
vn -0.4835314 0.2545378 0.8375009
vn 0.4835314 -0.2545378 -0.8375009
vn 0.4651702 0.3666971 -0.8056984
vn -0.4951047 -0.1395897 -0.8575465
vn -0.4881526 0.2163983 -0.8455051
vn 0.4881526 -0.2163983 0.8455051
vn 0.4951047 0.1395897 0.8575465
vn -0.4763014 -0.3042165 -0.8249783
vn -0.4898935 0.2000432 -0.8485205
vn 0.4898935 -0.2000432 0.8485205
vn 0.4763014 0.3042165 0.8249783
vn 0.4769826 -0.299918 0.826158
vn 0.4902503 0.1965157 0.8491384
vn -0.4902503 -0.1965157 -0.8491384
vn -0.4769826 0.299918 -0.826158
vn 0.4952267 -0.1378479 0.8577578
vn 0.4885687 0.2126087 0.8462259
vn -0.4885687 -0.2126087 -0.8462259
vn -0.4952267 0.1378479 -0.8577578
vn 0.411588 -0.5677863 -0.7128913
vn -0.411588 0.5677863 0.7128913
vn 0.3396928 -0.7337815 -0.5883651
vn -0.3396928 0.7337815 0.5883651
vn -0.4019955 -0.5946416 0.6962765
vn 0.4019955 0.5946416 -0.6962765
vn -0.3267697 -0.7568924 0.5659818
vn 0.3267697 0.7568924 -0.5659818
vn 0 -0.2138247 -0.976872
vn 0.845996 -0.2138247 -0.488436
vn 0 -0.2138247 0.976872
vn -0.845996 -0.2138247 0.488436
vn -0.4336932 -0.4976352 -0.7511787
vn 0.4336932 0.4976352 0.7511787
vn 0.435659 -0.4907185 0.7545836
vn -0.435659 0.4907185 -0.7545836
vn -0.845996 -0.2138247 -0.488436
vn -0.3719479 -0.6682957 -0.6442326
vn 0.3719479 0.6682957 0.6442326
vn 0.3750053 -0.661426 0.6495281
vn -0.3750053 0.661426 -0.6495281
vn 0.845996 -0.2138247 0.488436
vn 0 -1 0
vn 0.7209338 -0.6930041 0
vn -0.7209338 0.6930041 0
vn 0.8522308 -0.5231659 0
vn -0.8522308 0.5231659 0
vn -0.7209338 -0.6930041 0
vn 0.7209338 0.6930041 0
vn -0.8522308 -0.5231659 0
vn 0.8522308 0.5231659 0

vt -1.871842 -1.080709
vt -1.871842 1.080709
vt -4.263256E-14 -2.161417
vt -4.263256E-14 2.161417
vt 1.871842 -1.080709
vt 1.871842 1.080709
vt -2.510079 2.907983
vt -1.080709 7.123784
vt 2.510079 2.907983
vt 1.080709 7.123784
vt 2.952756 2.878573
vt -2.952756 2.878573
vt 1.771654 5.491253
vt -1.771654 5.491253
vt 3.346457 3.402499
vt -3.346457 3.402499
vt 2.459123 8.15738
vt 4.261555E-13 9.731576
vt -2.459123 8.15738
vt -5.011684E-14 9.731576
vt 2.952756 2.176559
vt -2.952756 2.176559
vt 1.771654 4.515703
vt -1.771654 4.515703
vt 3.346457 2.68052
vt -3.346457 2.68052
vt 2.459123 6.941836
vt -2.459123 6.941836
vt 1.083578E-13 8.352628
vt 3.346457 2.268994
vt -3.346457 2.268994
vt 2.459123 6.262718
vt -2.459123 6.262718
vt 1.049383E-12 7.584918
vt 2.952756 1.77353
vt -2.952756 1.77353
vt 1.771654 3.964245
vt -1.771654 3.964245
vt 3.346457 3.8444
vt -3.346457 3.8444
vt 2.459123 8.914949
vt -2.459123 8.914949
vt -1.265654E-13 10.59365
vt 2.952756 3.305503
vt -2.952756 3.305503
vt 1.771654 6.093
vt -1.771654 6.093
vt 2.952756 3.425127
vt -2.952756 3.425127
vt 1.771654 6.262661
vt -1.771654 6.262661
vt 3.346457 3.968564
vt -3.346457 3.968564
vt 2.459123 9.12949
vt -2.459123 9.12949
vt 2.220446E-13 10.83812
vt 1.771654 1.742306
vt -1.771654 1.742306
vt 3.346457 7.088217
vt -3.346457 7.088217
vt -2.952756 8.249234
vt 2.952756 8.249234
vt -1.771654 2.251677
vt 1.771654 2.251677
vt 1.771654 1.824714
vt -1.771654 1.824714
vt 3.346457 6.929193
vt -3.346457 6.929193
vt 1.771654 2.322596
vt -1.771654 2.322596
vt 2.952756 8.137023
vt -2.952756 8.137023
vt 1.771654 0.5715106
vt -1.771654 0.5715106
vt 2.510079 7.438751
vt -2.510079 7.438751
vt 1.771654 1.52704
vt -1.771654 1.52704
vt 3.346457 7.62656
vt -3.346457 7.62656
vt 1.771654 1.505816
vt -1.771654 1.505816
vt 3.346457 7.691308
vt -3.346457 7.691308
vt -1.771654 2.050728
vt -2.952756 8.635981
vt 1.771654 2.050728
vt 2.952756 8.635981
vt 2.952756 8.683296
vt 1.771654 2.029648
vt -2.952756 8.683296
vt -1.771654 2.029648
vt 3.068594 1.771654
vt 3.068594 -1.771654
vt -3.268497E-13 3.543307
vt 1.278977E-13 -3.543307
vt -3.068594 -1.771654
vt -3.068594 1.771654
vt 2.952756 8.477011
vt 1.771654 2.126548
vt -2.952756 8.477011
vt -1.771654 2.126548
vt 3.346457 7.407244
vt 1.771654 1.605384
vt -3.346457 7.407244
vt -1.771654 1.605384

usemtl green

f 3/3/1 2/2/1 1/1/1
f 2/2/1 3/3/1 4/4/1
f 4/4/1 3/3/1 5/5/1
f 4/4/1 5/5/1 6/6/1
f 8/9/3 5/8/2 7/7/2
f 5/8/2 8/9/3 6/10/3
f 2/10/4 10/7/5 9/9/4
f 10/7/5 2/10/4 4/8/5
f 1/10/6 9/7/4 11/9/6
f 9/7/4 1/10/6 2/8/4
f 14/13/8 13/12/7 12/11/7
f 13/12/7 14/13/8 15/14/8
f 12/11/10 13/12/10 14/13/9
f 15/14/9 14/13/9 13/12/10
f 5/10/2 16/7/11 7/9/2
f 16/7/11 5/10/2 3/8/11
f 19/17/13 18/16/12 17/15/12
f 18/16/12 19/17/13 20/18/13
f 18/16/12 20/18/13 21/19/13
f 17/15/15 18/16/15 19/17/14
f 20/18/14 19/17/14 18/16/15
f 21/19/14 20/18/14 18/16/15
f 3/10/11 11/7/6 16/9/11
f 11/7/6 3/10/11 1/8/6
f 4/10/5 8/7/3 10/9/5
f 8/7/3 4/10/5 6/8/3
f 24/15/16 23/19/17 22/16/16
f 23/19/17 24/15/16 25/20/17
f 25/20/17 24/15/16 26/17/17
f 22/16/18 23/19/19 24/15/18
f 25/20/19 24/15/18 23/19/19
f 26/17/19 24/15/18 25/20/19
f 29/11/20 28/14/21 27/12/20
f 28/14/21 29/11/20 30/13/21
f 27/12/22 28/14/23 29/11/22
f 30/13/23 29/11/22 28/14/23
f 33/23/25 32/22/24 31/21/24
f 32/22/24 33/23/25 34/24/25
f 31/21/27 32/22/27 33/23/26
f 34/24/26 33/23/26 32/22/27
f 37/27/29 36/26/28 35/25/28
f 36/26/28 37/27/29 38/28/29
f 38/28/29 37/27/29 39/29/29
f 35/25/31 36/26/31 37/27/30
f 38/28/30 37/27/30 36/26/31
f 39/29/30 37/27/30 38/28/30
f 42/32/33 41/31/32 40/30/32
f 41/31/32 42/32/33 43/33/33
f 43/33/33 42/32/33 44/34/33
f 40/30/35 41/31/35 42/32/34
f 43/33/34 42/32/34 41/31/35
f 44/34/34 42/32/34 43/33/34
f 47/37/37 46/36/36 45/35/36
f 46/36/36 47/37/37 48/38/37
f 45/35/39 46/36/39 47/37/38
f 48/38/38 47/37/38 46/36/39
f 51/41/41 50/40/40 49/39/40
f 50/40/40 51/41/41 52/42/41
f 52/42/41 51/41/41 53/43/41
f 49/39/43 50/40/43 51/41/42
f 52/42/42 51/41/42 50/40/43
f 53/43/42 51/41/42 52/42/42
f 56/46/45 55/45/44 54/44/44
f 55/45/44 56/46/45 57/47/45
f 54/44/47 55/45/47 56/46/46
f 57/47/46 56/46/46 55/45/47
f 60/50/49 59/49/48 58/48/48
f 59/49/48 60/50/49 61/51/49
f 58/48/51 59/49/51 60/50/50
f 61/51/50 60/50/50 59/49/51
f 64/54/53 63/53/52 62/52/52
f 63/53/52 64/54/53 65/55/53
f 65/55/53 64/54/53 66/56/53
f 62/52/55 63/53/55 64/54/54
f 65/55/54 64/54/54 63/53/55
f 66/56/54 64/54/54 65/55/54
f 35/59/28 68/58/56 67/57/56
f 68/58/56 35/59/28 36/60/28
f 67/57/57 68/58/57 35/59/31
f 36/60/31 35/59/31 68/58/57
f 68/63/58 31/62/24 32/61/24
f 31/62/24 68/63/58 67/64/58
f 32/61/27 31/62/27 68/63/59
f 67/64/59 68/63/59 31/62/27
f 40/67/32 70/66/60 69/65/60
f 70/66/60 40/67/32 41/68/32
f 69/65/61 70/66/61 40/67/35
f 41/68/35 40/67/35 70/66/61
f 45/71/36 70/70/62 69/69/62
f 70/70/62 45/71/36 46/72/36
f 69/69/63 70/70/63 45/71/39
f 46/72/39 45/71/39 70/70/63
f 16/75/64 68/74/65 67/73/64
f 68/74/65 16/75/64 11/76/65
f 10/75/66 70/74/67 69/73/66
f 70/74/67 10/75/66 8/76/67
f 49/79/40 67/78/68 71/77/68
f 67/78/68 49/79/40 50/80/40
f 71/77/69 67/78/69 49/79/43
f 50/80/43 49/79/43 67/78/69
f 62/83/52 69/82/70 72/81/70
f 69/82/70 62/83/52 63/84/52
f 72/81/71 69/82/71 62/83/55
f 63/84/55 62/83/55 69/82/71
f 7/75/72 67/74/64 71/73/72
f 67/74/64 7/75/72 16/76/64
f 71/87/73 55/86/44 67/85/73
f 55/86/44 71/87/73 54/88/44
f 67/85/74 55/86/47 71/87/74
f 54/88/47 71/87/74 55/86/47
f 59/91/48 72/90/75 58/89/48
f 72/90/75 59/91/48 69/92/75
f 58/89/51 72/90/76 59/91/51
f 69/92/76 59/91/51 72/90/76
f 71/74/72 8/75/67 7/76/72
f 8/75/67 71/74/72 70/73/67
f 9/75/77 69/74/66 72/73/77
f 69/74/66 9/75/77 10/76/66
f 69/95/78 68/94/78 72/93/78
f 68/94/78 69/95/78 67/96/78
f 67/96/78 69/95/78 71/97/78
f 71/97/78 69/95/78 70/98/78
f 9/76/77 68/73/65 11/75/65
f 68/73/65 9/76/77 72/74/77
f 13/101/7 68/100/79 12/99/7
f 68/100/79 13/101/7 72/102/79
f 12/99/10 68/100/80 13/101/10
f 72/102/80 13/101/10 68/100/80
f 18/105/12 68/104/81 17/103/12
f 68/104/81 18/105/12 72/106/81
f 17/103/15 68/104/82 18/105/15
f 72/106/82 18/105/15 68/104/82
f 71/102/83 29/99/20 27/101/20
f 29/99/20 71/102/83 70/100/83
f 27/101/22 29/99/22 71/102/84
f 70/100/84 71/102/84 29/99/22
f 71/106/85 24/103/16 22/105/16
f 24/103/16 71/106/85 70/104/85
f 22/105/18 24/103/18 71/106/86
f 70/104/86 71/106/86 24/103/18

usemtl _defaultMat

f 16/55/1 9/54/1 11/56/1
f 9/55/1 16/54/1 10/56/1
f 10/55/1 16/54/1 7/56/1
f 10/55/1 7/54/1 8/56/1

