# Created by Kenney (www.kenney.nl)

mtllib candyBarWrapper.mtl

g candyBarWrapper

v 0 4.512565E-18 0.03726821
v 0 4.512565E-18 -0.03726821
v -0.146224 4.512565E-18 0.03726821
v -0.146224 4.512565E-18 -0.03726821
v -0.146224 0.06 -0.03726821
v 0 0.06 -0.03726821
v 0 0.06 0.03726821
v -0.146224 0.06 0.03726821
v 0 0.06 -0.01378924
v 0 0.06 0.01378924
v 0.146224 4.512565E-18 0.03726821
v 0.146224 0.04968066 0.02924501
v 0 0.04968066 0.02924501
v 0.146224 0.04968066 -0.02924501
v 0.146224 0.06 -0.01378924
v 0 0.04968066 -0.02924501
v 0.146224 4.512565E-18 -0.03726821
v 0.146224 0.06 0.01378924
v 0.03 5.147676E-18 0.05847216
v 0.03 0.07 0.05847216
v 0.03 0.08120394 0.04726822
v 0.03 0.08120394 -0.04726822
v 0.03 0 -0.05847216
v 0.03 0.07 -0.05847216

vn 0 -1 0
vn 0 0 -1
vn 0 0 1
vn -1 0 0
vn 0 1 0
vn 0 0.1594299 0.9872092
vn 0 0.5405633 0.8413033
vn 0 0.5405633 -0.8413033
vn 0 0.9569914 -0.2901162
vn 1 0 0
vn 0 0.9569914 0.2901162
vn 0 0.1594299 -0.9872092
vn -0.5771823 0 0.8166154
vn 0.5771823 0 -0.8166154
vn 0.5771823 -0.8166154 0
vn -0.5771823 0.8166154 0
vn 0.5771823 0 0.8166154
vn -0.5771823 0 -0.8166154

vt 0 1.467252
vt 0 -1.467252
vt -5.75685 1.467252
vt -5.75685 -1.467252
vt 5.75685 1.776601E-16
vt 0 1.776601E-16
vt 5.75685 2.362205
vt 0 2.362205
vt -5.75685 1.776601E-16
vt -5.75685 2.362205
vt -1.467252 1.776601E-16
vt -1.467252 2.362205
vt 1.467252 1.776601E-16
vt 1.467252 2.362205
vt -1.366671E-16 -1.467252
vt -1.366671E-16 -0.5428835
vt 5.75685 -1.467252
vt -1.366671E-16 0.5428835
vt -1.366671E-16 1.467252
vt 5.75685 1.467252
vt 5.75685 -0.233924
vt -1.868421E-15 -0.233924
vt 5.75685 1.747349
vt -1.466182E-15 1.747349
vt -5.75685 0.1285233
vt -5.75685 0.8601816
vt 1.11089E-15 0.1285233
vt 5.237927E-16 0.8601816
vt 1.151378 1.955931
vt 0.5428835 2.362205
vt -0.5428835 2.362205
vt -1.151378 1.955931
vt -5.75685 -0.5428835
vt -5.75685 0.5428835
vt 6.377799E-16 -0.5428835
vt 6.377799E-16 0.5428835
vt -1.459542E-15 -0.233924
vt -5.75685 -0.233924
vt -1.145328E-15 1.747349
vt -5.75685 1.747349
vt 5.75685 0.8601816
vt 5.75685 0.1285233
vt -1.075116E-15 0.8601816
vt -2.280167E-15 0.1285233
vt 0.8468721 1.924363E-16
vt 0.8468721 2.362205
vt 2.293211 2.174407E-16
vt 2.293211 2.755906
vt -1.860953 2.809761
vt 1.860953 2.809761
vt -1.467252 1.363423
vt 1.467252 1.363423
vt -0.5428835 1.363423
vt 0.5428835 1.363423
vt 2.293211 2.659722E-17
vt 0.8468721 2.042573E-16

usemtl red

f 3/3/1 2/2/1 1/1/1
f 2/2/1 3/3/1 4/4/1
f 5/7/2 2/6/2 4/5/2
f 2/6/2 5/7/2 6/8/2
f 7/8/3 3/9/3 1/6/3
f 3/9/3 7/8/3 8/10/3
f 3/13/4 5/12/4 4/11/4
f 5/12/4 3/13/4 8/14/4
f 5/17/5 9/16/5 6/15/5
f 9/16/5 5/17/5 10/18/5
f 10/18/5 5/17/5 7/19/5
f 7/19/5 5/17/5 8/20/5

usemtl brownDark

f 12/23/7 1/22/6 11/21/6
f 1/22/6 12/23/7 13/24/7
f 16/27/8 15/26/9 14/25/8
f 15/26/9 16/27/8 9/28/9
f 14/29/10 11/11/10 17/13/10
f 11/11/10 14/29/10 15/30/10
f 11/11/10 15/30/10 18/31/10
f 11/11/10 18/31/10 12/32/10
f 1/1/1 17/17/1 11/20/1
f 17/17/1 1/1/1 2/2/1
f 9/35/9 18/34/11 15/33/9
f 18/34/11 9/35/9 10/36/11
f 6/14/10 16/29/10 2/13/10
f 16/29/10 6/14/10 9/30/10
f 16/39/8 17/38/12 2/37/12
f 17/38/12 16/39/8 14/40/8
f 10/43/11 12/42/7 18/41/11
f 12/42/7 10/43/11 13/44/7
f 7/12/10 13/32/10 10/31/10
f 13/32/10 7/12/10 1/11/10

usemtl white

f 19/47/13 7/46/13 1/45/13
f 7/46/13 19/47/13 20/48/13
f 1/45/14 7/46/14 19/47/14
f 20/48/14 19/47/14 7/46/14
f 7/51/15 22/50/15 21/49/15
f 22/50/15 7/51/15 6/52/15
f 6/52/15 7/51/15 10/53/15
f 6/52/15 10/53/15 9/54/15
f 21/49/16 22/50/16 7/51/16
f 6/52/16 7/51/16 22/50/16
f 10/53/16 7/51/16 6/52/16
f 9/54/16 10/53/16 6/52/16
f 24/48/17 2/56/17 23/55/17
f 2/56/17 24/48/17 6/46/17
f 23/55/18 2/56/18 24/48/18
f 6/46/18 24/48/18 2/56/18

