# Created by Kenney (www.kenney.nl)

mtllib candyBar.mtl

g candyBar

v 0.146224 0.06 -0.01378924
v 0.09748267 0.06 2.490594E-14
v 0.04874133 0.06 -0.01378924
v -7.219114E-16 0.06 2.490594E-14
v -0.04874133 0.06 -0.01378924
v -0.09748267 0.06 2.490594E-14
v -0.146224 0.06 -0.01378924
v -0.09748267 0.06 0.01378924
v -0.146224 0.06 0.01378924
v -0.146224 0.06 2.490594E-14
v -0.04874133 0.06 2.490594E-14
v 0 0.06 0.01378924
v 0.04874133 0.06 2.490594E-14
v 0.09748267 0.06 0.01378924
v 0.146224 0.06 2.490594E-14
v 0.146224 0.06 0.01378924
v 0.04874133 0.065292 -0.01378924
v 0 0.065292 2.562785E-14
v -0.04874133 0.065292 -0.01378924
v 0.09748267 0.065292 2.562785E-14
v 0.1218533 0.065292 -0.00689462
v 0.1218533 0.065292 0.00689462
v 0.09748267 0.065292 0.01378924
v 0 0.065292 0.01378924
v 0.04874133 0.065292 2.562785E-14
v -0.1218533 0.065292 -0.00689462
v -0.09748267 0.065292 2.562785E-14
v -0.1218533 0.065292 0.00689462
v -0.09748267 0.065292 0.01378924
v -0.04874133 0.065292 2.562785E-14
v 0.146224 0 0.03726821
v -0.146224 0 0.03726821
v 0.146224 0.04968066 0.02924501
v -0.146224 0.04968066 0.02924501
v 0.146224 0 -0.03726821
v -0.146224 0 -0.03726821
v 0.146224 0.04968066 -0.02924501
v -0.146224 0.04968066 -0.02924501

vn 0 1 0
vn 0 0 -1
vn -0.2722223 0 -0.9622344
vn 0.2722223 0 0.9622344
vn 0 0 1
vn 0.2722223 0 -0.9622344
vn 0.212201 0.977226 0
vn 0.1252497 0.9921252 0
vn 0.08820328 0.9961025 0
vn -0.2722223 0 0.9622344
vn -0.1252497 0.9921252 0
vn -0.08820328 0.9961025 0
vn -0.212201 0.977226 0
vn 0 0.1594299 0.9872092
vn 0 0.5405633 0.8413033
vn 0 -1 0
vn 0 0.5405633 -0.8413033
vn 0 0.8316652 -0.5552774
vn 0 0.1594299 -0.9872092
vn 1 0 0
vn 0 0.8316652 0.5552774
vn -1 0 0

vt -5.75685 -0.5428835
vt -3.8379 9.80549E-13
vt -1.91895 -0.5428835
vt 2.842171E-14 9.786166E-13
vt 1.91895 -0.5428835
vt 3.8379 9.670227E-13
vt 5.75685 -0.5428835
vt 3.8379 0.5428835
vt 5.75685 0.5428835
vt 5.75685 9.844136E-13
vt 1.91895 9.824813E-13
vt 0 0.5428835
vt -1.91895 9.92143E-13
vt -3.8379 0.5428835
vt -5.75685 9.844136E-13
vt -5.75685 0.5428835
vt -1.994265 2.570551
vt 2.746644E-13 2.570551
vt -1.994265 2.362205
vt 2.942757E-13 2.362205
vt 1.994265 2.362205
vt 1.994265 2.570551
vt -1.698695 2.362205
vt -3.69296 2.362205
vt -1.698695 2.570551
vt -3.69296 2.570551
vt -5.687224 2.362205
vt -4.690092 2.570551
vt 5.539439 2.362205
vt 3.545175 2.362205
vt 4.542307 2.570551
vt 3.545175 2.570551
vt -0.147785 2.570551
vt 1.84648 2.570551
vt -0.147785 2.362205
vt 1.84648 2.362205
vt 3.840744 2.362205
vt 3.840744 2.570551
vt 4.690092 2.570551
vt 5.687224 2.362205
vt 3.69296 2.570551
vt 3.69296 2.362205
vt 1.698695 2.362205
vt 1.698695 2.570551
vt 0.5428835 -5.124482
vt -8.503693E-13 -5.124482
vt 0.2714417 -4.142646
vt -0.2714417 -4.142646
vt -5.539439 2.362205
vt -4.542307 2.570551
vt -3.545175 2.362205
vt -3.545175 2.570551
vt -3.840744 2.570551
vt -1.84648 2.570551
vt -3.840744 2.362205
vt -1.84648 2.362205
vt 0.147785 2.362205
vt 0.147785 2.570551
vt -0.5428835 -5.124482
vt 8.496912E-13 -5.124482
vt 5.75685 -0.233924
vt -5.75685 -0.233924
vt 5.75685 1.747349
vt -5.75685 1.747349
vt -4.797375 -0.2714417
vt -4.797375 0.2714417
vt -3.8379 1.008971E-12
vt -1.91895 1.008971E-12
vt 0 1.008971E-12
vt 1.91895 1.008971E-12
vt 3.8379 1.008971E-12
vt 4.797375 -0.2714417
vt 4.797375 0.2714417
vt 5.75685 1.467252
vt 5.75685 -1.467252
vt -5.75685 1.467252
vt -5.75685 -1.467252
vt -5.75685 0.1285233
vt -5.75685 0.8601816
vt 5.75685 0.1285233
vt -1.91895 0.8601816
vt 1.91895 0.8601816
vt 5.75685 0.8601816
vt 1.467252 -5.460506E-14
vt -1.467252 -5.460506E-14
vt 1.151378 1.955931
vt 0.5428835 2.362205
vt -9.982049E-13 2.362205
vt -0.5428835 2.362205
vt -1.151378 1.955931
vt 3.8379 0.8601816
vt -1.013746E-18 0.8601816
vt -3.8379 0.8601816
vt -1.467252 5.460506E-14
vt 1.467252 5.460506E-14
vt 9.628931E-13 2.362205

usemtl brownDark

f 3/3/1 2/2/1 1/1/1
f 5/5/1 4/4/1 3/3/1
f 7/7/1 6/6/1 5/5/1
f 10/10/1 9/9/1 8/8/1
f 8/8/1 12/12/1 11/11/1
f 12/12/1 14/14/1 13/13/1
f 14/14/1 16/16/1 15/15/1
f 3/19/2 18/18/2 17/17/2
f 18/18/2 3/19/2 4/20/2
f 5/21/2 18/18/2 4/20/2
f 18/18/2 5/21/2 19/22/2
f 17/25/2 2/24/2 3/23/2
f 2/24/2 17/25/2 20/26/2
f 20/26/2 1/27/3 2/24/2
f 1/27/3 20/26/2 21/28/3
f 22/31/4 14/30/5 15/29/4
f 14/30/5 22/31/4 23/32/5
f 12/35/5 25/34/5 24/33/5
f 25/34/5 12/35/5 13/36/5
f 14/37/5 25/34/5 13/36/5
f 25/34/5 14/37/5 23/38/5
f 27/41/2 7/40/6 26/39/6
f 7/40/6 27/41/2 6/42/2
f 27/41/2 5/43/2 6/42/2
f 5/43/2 27/41/2 19/44/2
f 21/47/8 15/46/7 1/45/7
f 15/46/7 21/47/8 22/48/9
f 8/51/5 28/50/10 10/49/10
f 28/50/10 8/51/5 29/52/5
f 8/55/5 30/54/5 29/53/5
f 30/54/5 8/55/5 11/56/5
f 12/57/5 30/54/5 11/56/5
f 30/54/5 12/57/5 24/58/5
f 7/59/13 28/47/12 26/48/11
f 28/47/12 7/59/13 10/60/13
f 33/63/15 32/62/14 31/61/14
f 32/62/14 33/63/15 34/64/15
f 20/67/1 22/66/9 21/65/8
f 22/66/9 20/67/1 23/14/1
f 23/14/1 20/67/1 17/3/1
f 23/14/1 17/3/1 25/68/1
f 25/68/1 17/3/1 18/69/1
f 25/68/1 18/69/1 24/12/1
f 24/12/1 18/69/1 19/5/1
f 24/12/1 19/5/1 30/70/1
f 30/70/1 19/5/1 27/71/1
f 30/70/1 27/71/1 29/8/1
f 29/8/1 27/71/1 26/72/11
f 29/8/1 26/72/11 28/73/12
f 32/76/16 35/75/16 31/74/16
f 35/75/16 32/76/16 36/77/16
f 38/80/17 1/79/18 37/78/17
f 1/79/18 38/80/17 3/81/18
f 3/81/18 38/80/17 5/82/18
f 5/82/18 38/80/17 7/83/18
f 38/63/17 35/62/19 36/61/19
f 35/62/19 38/63/17 37/64/17
f 37/86/20 31/85/20 35/84/20
f 31/85/20 37/86/20 1/87/20
f 31/85/20 1/87/20 15/88/20
f 31/85/20 15/88/20 16/89/20
f 31/85/20 16/89/20 33/90/20
f 14/91/21 33/80/15 16/83/21
f 33/80/15 14/91/21 34/78/15
f 34/78/15 14/91/21 12/92/21
f 34/78/15 12/92/21 8/93/21
f 34/78/15 8/93/21 9/79/21
f 32/95/22 38/90/22 36/94/22
f 38/90/22 32/95/22 7/89/22
f 7/89/22 32/95/22 10/96/22
f 10/96/22 32/95/22 9/87/22
f 9/87/22 32/95/22 34/86/22

