# Created by Kenney (www.kenney.nl)

mtllib carrot.mtl

g carrot

v 0.0363315 0.4 -0.020976
v 0.0363315 0.4 0.020976
v -1.490126E-10 0.4 -0.041952
v 0.01107 0.4 -0.01107
v -0.01107 0.4 -0.01107
v 0.01107 0.4 0.01107
v -0.0363315 0.4 -0.020976
v -1.490126E-10 0.4 0.041952
v -0.01107 0.4 0.01107
v -0.0363315 0.4 0.020976
v -1.490123E-10 0.36 -0.06
v 0.05196153 0.36 -0.03
v -1.490123E-10 0.36 0.06
v -0.05196153 0.36 0.03
v -0.05196153 0.36 -0.03
v 0.05196153 0.36 0.03
v 0.01766692 0 0.0102
v 0.01766692 0 -0.0102
v -1.490123E-10 0 0.0204
v -1.490123E-10 0 -0.0204
v -0.01766692 0 0.0102
v -0.01766692 0 -0.0102
v -1.490123E-10 0.02 -0.03
v 0.02598076 0.02 -0.015
v -1.490123E-10 0.02 0.03
v -0.02598076 0.02 0.015
v -0.02598076 0.02 -0.015
v 0.02598076 0.02 0.015
v 0.03321 0.6227495 0.06389733
v 0.01107 0.6571575 0.1206398
v -0.03321 0.6227495 0.06389733
v -0.01107 0.6571575 0.1206398
v -0.02214 0.5563835 0.02705598
v 0.02214 0.5563835 0.02705598
v -0.06389733 0.5626071 -0.03321
v -0.02705597 0.5141599 -0.02214
v -0.06389733 0.5626071 0.03321
v -0.02705598 0.5141599 0.02214
v -0.1206398 0.587725 -0.01107
v -0.1206398 0.587725 0.01107
v 0.06389733 0.6739818 -0.03321
v 0.06389733 0.6739818 0.03321
v 0.02705598 0.5923516 -0.02214
v 0.02705598 0.5923516 0.02214
v 0.1206398 0.7163037 -0.01107
v 0.1206398 0.7163037 0.01107
v 0.03321 0.6227495 -0.06389733
v -0.03321 0.6227495 -0.06389733
v 0.01107 0.6571575 -0.1206398
v -0.01107 0.6571575 -0.1206398
v 0.02214 0.5563835 -0.02705598
v -0.02214 0.5563835 -0.02705598
v 0.0732239 0.4916298 -0.02214
v 0.0732239 0.4916298 0.02214
v 0.171571 0.512981 -0.01107
v 0.171571 0.512981 0.01107
v 0.1206398 0.5169111 -0.03321
v 0.1206398 0.5169111 0.03321
v -0.1206398 0.5169111 -0.03321
v -0.1206398 0.5169111 0.03321
v -0.171571 0.512981 -0.01107
v -0.171571 0.512981 0.01107
v -0.0732239 0.4916298 -0.02214
v -0.0732239 0.4916298 0.02214
v 0.02214 0.4916298 -0.0732239
v -0.02214 0.4916298 -0.0732239
v 0.03321 0.5169111 -0.1206398
v -0.03320999 0.5169111 -0.1206398
v 0.01107001 0.512981 -0.171571
v -0.01106999 0.512981 -0.171571
v -0.02214 0.4916298 0.0732239
v 0.02214 0.4916298 0.0732239
v 0.03321 0.5169111 0.1206398
v 0.01107 0.512981 0.171571
v -0.03321 0.5169111 0.1206398
v -0.01107 0.512981 0.171571

vn 0 1 0
vn 0 0.4112741 -0.9115118
vn 0.7893924 0.4112741 -0.4557559
vn 0 0.4112741 0.9115118
vn -0.7893924 0.4112741 0.4557559
vn -0.7893924 0.4112741 -0.4557559
vn 0.7893924 0.4112741 0.4557559
vn 0 -1 0
vn 0 -0.432731 -0.9015231
vn 0.7807419 -0.4327311 -0.4507616
vn 0 -0.432731 0.9015231
vn -0.7807419 -0.4327311 0.4507616
vn -0.7807419 -0.4327311 -0.4507616
vn 0.7807419 -0.4327311 0.4507616
vn -0.8626737 -0.08789381 -0.4980649
vn -0.8626737 -0.08789381 0.4980649
vn 0.8626737 -0.08789381 0.4980649
vn 0 -0.08789381 0.9961299
vn 0 -0.08789381 -0.9961299
vn 0.8626737 -0.08789381 -0.4980649
vn 0 0.6806476 -0.732611
vn 0 0.8550734 -0.5185071
vn 0 -0.6806476 0.732611
vn 0 -0.8550734 0.5185071
vn 0 0.3127127 -0.9498478
vn 0 -0.3127127 0.9498478
vn 0 0.101693 -0.9948158
vn 0 -0.101693 0.9948158
vn 0.6324335 0.7746146 0
vn 0.9143252 0.4049807 0
vn -0.6324335 -0.7746146 0
vn -0.9143252 -0.4049807 0
vn 0.4047785 0.9144148 0
vn -0.4047785 -0.9144148 0
vn 0.9903375 0.1386784 0
vn -0.9903375 -0.1386784 0
vn -0.7901141 0.6129598 0
vn -0.9655852 0.2600871 0
vn 0.9655852 -0.2600871 0
vn 0.7901141 -0.6129598 0
vn -0.9965643 0.08282254 0
vn 0.9965643 -0.08282254 0
vn -0.5978731 0.8015907 0
vn 0.5978731 -0.8015907 0
vn 0 0.6806476 0.732611
vn 0 0.8550734 0.5185071
vn 0 -0.8550734 -0.5185071
vn 0 -0.6806476 -0.732611
vn 0 0.3127127 0.9498478
vn 0 -0.3127127 -0.9498478
vn 0 0.101693 0.9948158
vn 0 -0.101693 -0.9948158
vn -0.6512498 0.7588634 0
vn -0.8275743 0.5613562 0
vn 0.8275743 -0.5613562 0
vn 0.6512498 -0.7588634 0
vn 0.07693703 0.997036 0
vn -0.2280824 0.9736419 0
vn 0.2280824 -0.9736419 0
vn -0.07693703 -0.997036 0
vn 0.2280824 0.9736419 0
vn -0.07693703 0.997036 0
vn 0.07693703 -0.997036 0
vn -0.2280824 -0.9736419 0
vn 0.6512498 0.7588634 0
vn -0.6512498 -0.7588634 0
vn 0.8275743 0.5613562 0
vn -0.8275743 -0.5613562 0
vn 0 0.5613562 0.8275743
vn 0 0.7588634 0.6512498
vn 0 -0.7588634 -0.6512498
vn 0 -0.5613562 -0.8275743
vn 0 0.9736419 0.2280824
vn 0 -0.9736419 -0.2280824
vn 0 0.997036 -0.07693703
vn 0 -0.997036 0.07693703
vn 0 0.5613562 -0.8275743
vn 0 0.7588634 -0.6512498
vn 0 -0.7588634 0.6512498
vn 0 -0.5613562 0.8275743
vn 0 0.9736419 -0.2280824
vn 0 0.997036 0.07693703
vn 0 -0.9736419 0.2280824
vn 0 -0.997036 -0.07693703

vt -1.430374 -0.8258268
vt -1.430374 0.8258268
vt 5.866639E-09 -1.651654
vt -0.4358268 -0.4358267
vt 0.4358268 -0.4358267
vt -0.4358268 0.4358268
vt 1.430374 -0.8258268
vt 5.866639E-09 1.651654
vt 0.4358268 0.4358268
vt 1.430374 0.8258268
vt 1.181102 12.45665
vt -1.181102 12.45665
vt 0.8258268 14.14741
vt -0.8258268 14.14741
vt 0.6955479 0.4015748
vt 0.6955479 -0.4015748
vt -5.866625E-09 0.8031496
vt -5.866625E-09 -0.8031496
vt -0.6955479 0.4015748
vt -0.6955479 -0.4015748
vt 0.4015748 0.2669851
vt -0.4015748 0.2669851
vt 0.5905512 1.119709
vt -0.5905512 1.119709
vt 0.4015748 0.2669851
vt -0.4015748 0.2669851
vt -1.181102 14.2879
vt 1.181102 14.2879
vt -0.5905512 0.8630467
vt 0.5905512 0.8630467
vt -1.30748 14.86366
vt -0.4358268 17.47625
vt 1.30748 14.86366
vt 0.4358268 17.47625
vt 0.8716536 19.6688
vt -0.8716536 19.6688
vt 1.30748 22.65723
vt -1.30748 22.65723
vt 0.4358268 15.71071
vt -0.4358268 15.71071
vt 0.8716536 21.89963
vt -0.8716536 21.89963
vt 1.30748 19.15387
vt 0.8716535 16.75765
vt -1.30748 19.15387
vt -0.8716536 16.75765
vt 1.30748 11.26614
vt -1.30748 11.26614
vt 0.4358267 13.70918
vt -0.4358268 13.70918
vt 0.8716535 20.19464
vt 0.4358267 15.65631
vt -0.8716536 20.19464
vt -0.4358268 15.65631
vt -1.30748 25.22046
vt 1.30748 25.22046
vt -0.8716536 21.69453
vt 0.8716536 21.69453
vt -0.8716536 23.32903
vt 0.8716536 23.32903
vt -0.4358267 15.73002
vt 0.4358268 15.73002
vt -0.4358267 20.66782
vt 0.4358268 20.66782
vt -1.30748 17.88091
vt 1.30748 17.88091
vt -0.8716536 17.63641
vt 0.8716536 17.63641
vt -0.4358268 13.27732
vt 0.4358268 13.27732
vt 0.4358268 -5.180914
vt -0.4358268 -5.180914
vt 1.30748 -3.169789
vt -1.30748 -3.169789
vt -1.30748 13.76583
vt 1.30748 13.76583
vt -0.8716536 11.6503
vt 0.8716536 11.6503
vt -0.4358267 -5.180914
vt 0.8716535 11.6503
vt 0.8716535 17.63641
vt 0.4358267 13.27732
vt 0.4358268 -5.180914

usemtl orange

f 3/3/1 2/2/1 1/1/1
f 2/2/1 3/3/1 4/4/1
f 4/4/1 3/3/1 5/5/1
f 6/6/1 2/2/1 4/4/1
f 5/5/1 3/3/1 7/7/1
f 2/2/1 6/6/1 8/8/1
f 5/5/1 7/7/1 9/9/1
f 8/8/1 6/6/1 9/9/1
f 10/10/1 9/9/1 7/7/1
f 8/8/1 9/9/1 10/10/1
f 3/13/2 12/12/3 11/11/2
f 12/12/3 3/13/2 1/14/3
f 8/13/4 14/12/5 13/11/4
f 14/12/5 8/13/4 10/14/5
f 7/13/6 11/12/2 15/11/6
f 11/12/2 7/13/6 3/14/2
f 2/13/7 13/12/4 16/11/7
f 13/12/4 2/13/7 8/14/4
f 1/13/3 16/12/7 12/11/3
f 16/12/7 1/13/3 2/14/7
f 14/11/5 7/14/6 15/12/6
f 7/14/6 14/11/5 10/13/5
f 19/17/8 18/16/8 17/15/8
f 18/16/8 19/17/8 20/18/8
f 20/18/8 19/17/8 21/19/8
f 20/18/8 21/19/8 22/20/8
f 23/23/9 18/22/10 20/21/9
f 18/22/10 23/23/9 24/24/10
f 25/23/11 21/22/12 19/21/11
f 21/22/12 25/23/11 26/24/12
f 22/22/13 26/23/12 27/24/13
f 26/23/12 22/22/13 21/25/12
f 28/23/14 19/26/11 17/21/14
f 19/26/11 28/23/14 25/24/11
f 27/23/13 20/22/9 22/25/13
f 20/22/9 27/23/13 23/24/9
f 28/24/14 18/21/10 24/23/10
f 18/21/10 28/24/14 17/26/14
f 27/29/15 14/28/16 15/27/15
f 14/28/16 27/29/15 26/30/16
f 16/28/17 25/29/18 28/30/17
f 25/29/18 16/28/17 13/27/18
f 13/28/18 26/29/16 25/30/18
f 26/29/16 13/28/18 14/27/16
f 11/28/19 24/29/20 23/30/19
f 24/29/20 11/28/19 12/27/20
f 16/27/17 24/30/20 12/28/20
f 24/30/20 16/27/17 28/29/17
f 15/28/15 23/29/19 27/30/15
f 23/29/19 15/28/15 11/27/19

usemtl green

f 31/33/21 30/32/22 29/31/21
f 30/32/22 31/33/21 32/34/22
f 29/31/23 30/32/24 31/33/23
f 32/34/24 31/33/23 30/32/24
f 31/37/21 34/36/25 33/35/25
f 34/36/25 31/37/21 29/38/21
f 33/35/26 34/36/26 31/37/23
f 29/38/23 31/37/23 34/36/26
f 33/41/25 6/40/27 9/39/27
f 6/40/27 33/41/25 34/42/25
f 9/39/28 6/40/28 33/41/26
f 34/42/26 33/41/26 6/40/28
f 37/45/29 36/44/30 35/43/29
f 36/44/30 37/45/29 38/46/30
f 35/43/31 36/44/32 37/45/31
f 38/46/32 37/45/31 36/44/32
f 39/49/33 37/48/29 35/47/29
f 37/48/29 39/49/33 40/50/33
f 35/47/31 37/48/31 39/49/34
f 40/50/34 39/49/34 37/48/31
f 38/53/30 5/52/35 36/51/30
f 5/52/35 38/53/30 9/54/35
f 36/51/32 5/52/36 38/53/32
f 9/54/36 38/53/32 5/52/36
f 43/57/38 42/56/37 41/55/37
f 42/56/37 43/57/38 44/58/38
f 41/55/40 42/56/40 43/57/39
f 44/58/39 43/57/39 42/56/40
f 4/61/41 44/60/38 43/59/38
f 44/60/38 4/61/41 6/62/41
f 43/59/39 44/60/39 4/61/42
f 6/62/42 4/61/42 44/60/39
f 41/65/37 46/64/43 45/63/43
f 46/64/43 41/65/37 42/66/37
f 45/63/44 46/64/44 41/65/40
f 42/66/40 41/65/40 46/64/44
f 49/34/46 48/31/45 47/33/45
f 48/31/45 49/34/46 50/32/46
f 47/33/48 48/31/48 49/34/47
f 50/32/47 49/34/47 48/31/48
f 47/37/45 52/36/49 51/35/49
f 52/36/49 47/37/45 48/38/45
f 51/35/50 52/36/50 47/37/48
f 48/38/48 47/37/48 52/36/50
f 51/41/49 5/40/51 4/39/51
f 5/40/51 51/41/49 52/42/49
f 4/39/52 5/40/52 51/41/50
f 52/42/50 51/41/50 5/40/52
f 5/5/1 6/6/1 4/4/1
f 6/6/1 5/5/1 9/9/1
f 4/69/54 54/68/53 53/67/53
f 54/68/53 4/69/54 6/70/54
f 53/67/56 54/68/56 4/69/55
f 6/70/55 4/69/55 54/68/56
f 57/73/58 56/72/57 55/71/57
f 56/72/57 57/73/58 58/74/58
f 55/71/60 56/72/60 57/73/59
f 58/74/59 57/73/59 56/72/60
f 53/77/53 58/76/58 57/75/58
f 58/76/58 53/77/53 54/78/53
f 57/75/59 58/76/59 53/77/56
f 54/78/56 53/77/56 58/76/59
f 61/79/62 60/73/61 59/74/61
f 60/73/61 61/79/62 62/71/62
f 59/74/64 60/73/64 61/79/63
f 62/71/63 61/79/63 60/73/64
f 59/76/61 64/77/65 63/80/65
f 64/77/65 59/76/61 60/75/61
f 63/80/66 64/77/66 59/76/64
f 60/75/64 59/76/64 64/77/66
f 64/67/65 5/82/67 63/81/65
f 5/82/67 64/67/65 9/69/67
f 63/81/66 5/82/68 64/67/66
f 9/69/68 64/67/66 5/82/68
f 65/68/70 5/69/69 4/82/69
f 5/69/69 65/68/70 66/67/70
f 4/82/72 5/69/72 65/68/71
f 66/67/71 65/68/71 5/69/72
f 68/75/73 65/80/70 67/76/73
f 65/80/70 68/75/73 66/77/70
f 67/76/74 65/80/71 68/75/74
f 66/77/71 68/75/74 65/80/71
f 69/79/75 68/73/73 67/74/73
f 68/73/73 69/79/75 70/83/75
f 67/74/74 68/73/74 69/79/76
f 70/83/76 69/79/76 68/73/74
f 71/68/78 6/69/77 9/70/77
f 6/69/77 71/68/78 72/67/78
f 9/70/80 6/69/80 71/68/79
f 72/67/79 71/68/79 6/69/80
f 75/74/81 74/71/82 73/73/81
f 74/71/82 75/74/81 76/72/82
f 73/73/83 74/71/84 75/74/83
f 76/72/84 75/74/83 74/71/84
f 72/77/78 75/76/81 73/75/81
f 75/76/81 72/77/78 71/78/78
f 73/75/83 75/76/83 72/77/79
f 71/78/79 72/77/79 75/76/83

