# Created by Kenney (www.kenney.nl)

mtllib cartonSmall.mtl

g cartonSmall

v 1.443823E-15 0.25 -0.095
v 0.115 0.22 -0.115
v 0 0.35 -0.115
v -0.115 0.22 -0.115
v 0.115 0.22 0.115
v 0 0.25 0.095
v 0 0.35 0.115
v -0.115 0.22 0.115
v 0.115 0 0.115
v -0.115 0 0.115
v 0.115 0.0511131 0.115
v -0.115 0.0511131 0.115
v -0.115 0 -0.115
v -0.115 0.0511131 -0.115
v 0.115 0 -0.115
v 0.115 0.0511131 -0.115
v 0.03139184 0.3145136 -0.02275
v 0.0575 0.285 -0.0455
v 0.03139184 0.3145136 0.02275
v 0.0575 0.285 0.0455
v 0.08360817 0.2554864 -0.02275
v 0.08360817 0.2554864 -1.443823E-14
v 0.08360817 0.2554864 0.02275
v 0.115 0.1688869 -0.115
v 0.115 0.1688869 0.115
v -0.115 0.1688869 0.115
v -0.115 0.1688869 -0.115
v 0.08745986 0.311503 -0.040495
v 0.1106961 0.2852359 -0.0202475
v 0.06422359 0.33777 -0.0202475
v 0.06422359 0.33777 -1.443823E-14
v 0.1106961 0.2852359 -1.443823E-14
v 0.06422359 0.33777 0.0202475
v 0.1106961 0.2852359 0.0202475
v 0.08745986 0.311503 0.040495
v 0 0.3702731 -0.115
v 0 0.3905463 -0.09472685
v 0 0.3905463 0.09472685
v 0 0.3702731 0.115

vn -0.2164413 -0.1914673 -0.9573365
vn 0 0.5547002 -0.8320503
vn 0.2164413 -0.1914673 -0.9573365
vn -0.2164413 -0.1914673 0.9573365
vn 0.2164413 -0.1914673 0.9573365
vn 0 0.5547002 0.8320503
vn 0 0 1
vn -1 0 0
vn 0 0 -1
vn 0.7489966 0.6625739 0
vn 1 0 0
vn -0.7489966 0.6625739 0
vn 0 -1 0
vn 0.09299306 0.0822631 0.9922626
vn -0.476373 0.7258942 0.4961312
vn 0.6623591 -0.5613681 -0.4961313
vn 0.7394078 -0.6732579 0
vn 0.6623591 -0.5613681 0.4961313
vn -0.476373 0.7258942 -0.4961312
vn -0.5780278 0.816017 0
vn 0.09299306 0.0822631 -0.9922626

vt 0 0
vt -4.527559 -4.527559
vt -4.527559 4.527559
vt 4.527559 -4.527559
vt -4.527559 2.012327
vt -4.527559 6.64909
vt 4.527559 2.012327
vt 4.527559 6.64909
vt 4.527559 4.527559
vt 1.594291 6.904174
vt 0.7971457 5.523477
vt 0.7971457 8.284871
vt 5.684373E-13 8.284871
vt 5.684396E-13 5.523477
vt -0.7971457 8.284871
vt -0.7971457 5.523477
vt -1.594291 6.904174
vt 2.671942 9.570625
vt 1.435896 10.86719
vt 3.750471 10.73493
vt 2.65039 11.88888
vt 0.8956693 9.653484
vt 5.684342E-13 9.653484
vt 0.7971457 11.23751
vt 5.684342E-13 11.23751
vt -0.7971457 11.23751
vt -0.8956693 9.653484
vt -0.7971457 9.749922
vt -5.684342E-13 9.749922
vt -0.8956693 8.1659
vt 0.7971457 9.749922
vt 0.8956693 8.1659
vt -2.586714 10.26153
vt -3.591913 11.4897
vt -1.273583 11.47996
vt -2.423227 12.57411
vt 2.586714 10.26153
vt 1.273583 11.47996
vt 3.591913 11.4897
vt 2.423227 12.57411
vt -2.671942 9.570625
vt -3.750471 10.73493
vt -1.435896 10.86719
vt -2.65039 11.88888
vt 4.527559 14.57768
vt 4.527559 13.77953
vt 3.729404 15.37584
vt -4.527559 13.77953
vt -3.729404 15.37584
vt -4.527559 14.57768

usemtl _defaultMat

f 3/1/1 2/1/1 1/1/1
f 1/1/2 2/1/2 4/1/2
f 3/1/3 1/1/3 4/1/3
f 7/1/4 6/1/4 5/1/4
f 7/1/5 8/1/5 6/1/5
f 6/4/6 8/3/6 5/2/6
f 11/4/7 10/3/7 9/2/7
f 10/4/7 11/3/7 12/2/7
f 10/4/8 14/3/8 13/2/8
f 14/4/8 10/3/8 12/2/8
f 14/4/9 15/3/9 13/2/9
f 15/4/9 14/3/9 16/2/9
f 3/4/10 17/3/10 2/2/10
f 17/4/10 3/3/10 7/2/10
f 2/4/10 17/3/10 18/2/10
f 17/4/10 7/3/10 19/2/10
f 19/4/10 7/3/10 20/2/10
f 2/4/10 21/3/10 5/2/10
f 21/4/10 2/3/10 18/2/10
f 5/4/10 21/3/10 22/2/10
f 5/4/10 22/3/10 23/2/10
f 5/4/10 23/3/10 20/2/10
f 5/4/10 20/3/10 7/2/10
f 11/7/11 15/6/11 16/5/11
f 15/7/11 11/6/11 9/5/11
f 5/7/11 24/6/11 2/5/11
f 24/7/11 5/6/11 25/5/11
f 5/7/7 26/6/7 25/5/7
f 26/7/7 5/6/7 8/5/7
f 26/5/8 4/8/8 27/6/8
f 4/5/8 26/8/8 8/6/8
f 4/6/9 24/7/9 27/8/9
f 24/6/9 4/7/9 2/8/9
f 8/1/12 3/1/12 4/1/12
f 3/1/12 8/1/12 7/1/12

usemtl purpleLight

f 10/3/13 15/4/13 9/9/13
f 15/4/13 10/3/13 13/2/13
f 30/12/10 29/11/10 28/10/10
f 29/11/10 30/12/10 31/13/10
f 29/11/10 31/13/10 32/14/10
f 32/14/10 31/13/10 33/15/10
f 32/14/10 33/15/10 34/16/10
f 34/16/10 33/15/10 35/17/10
f 35/20/14 19/19/15 20/18/14
f 19/19/15 35/20/14 33/21/15
f 29/24/16 22/23/17 21/22/16
f 22/23/17 29/24/16 32/25/17
f 22/23/17 32/25/17 34/26/18
f 22/23/17 34/26/18 23/27/18
f 17/30/19 31/29/20 30/28/19
f 31/29/20 17/30/19 33/31/15
f 33/31/15 17/30/19 19/32/15
f 18/35/21 29/34/16 21/33/16
f 29/34/16 18/35/21 28/36/21
f 34/39/18 20/38/14 23/37/18
f 20/38/14 34/39/18 35/40/14
f 17/43/19 28/42/21 18/41/21
f 28/42/21 17/43/19 30/44/19
f 25/6/11 16/7/11 24/8/11
f 16/7/11 25/6/11 11/5/11
f 25/8/7 12/5/7 11/7/7
f 12/5/7 25/8/7 26/6/7
f 12/7/8 27/6/8 14/5/8
f 27/6/8 12/7/8 26/8/8
f 27/8/9 16/5/9 14/7/9
f 16/5/9 27/8/9 24/6/9

usemtl white

f 37/47/11 3/46/11 36/45/11
f 3/46/11 37/47/11 7/48/11
f 7/48/11 37/47/11 38/49/11
f 7/48/11 38/49/11 39/50/11
f 36/45/8 3/46/8 37/47/8
f 7/48/8 37/47/8 3/46/8
f 38/49/8 37/47/8 7/48/8
f 39/50/8 38/49/8 7/48/8

