# Created by Kenney (www.kenney.nl)

mtllib cauliflower.mtl

g cauliflower

v 0.189725 0.1162879 -0.075
v 0.189725 0.1162879 0.075
v 0.1755615 0.1811209 -0.045
v 0.1755615 0.1811209 0.045
v 0.1550398 0.1255909 -0.085
v 0.1550398 0.1255909 0.085
v 0.1271695 0.2431051 -0.06246173
v 0.1179424 0.2820106 -1.082867E-14
v 0.1271695 0.2431051 0.06246173
v -0.1550398 0.1255909 -0.085
v -0.1271695 0.2431051 -0.06246173
v -0.1550398 0.1255909 0.085
v -0.1179424 0.2820106 -7.219114E-15
v -0.1271695 0.2431051 0.06246173
v -0.189725 0.1162879 -0.075
v -0.1755615 0.1811209 -0.045
v -0.189725 0.1162879 0.075
v -0.1755615 0.1811209 0.045
v 0.02991062 0.1034962 -0.2018067
v 0.1598144 0.1034962 -0.1268067
v 0.04880961 0.1611976 -0.1745407
v 0.1267519 0.1611976 -0.1295407
v 0.003907744 0.1117759 -0.1767684
v 0.1511321 0.1117759 -0.09176841
v 0.009491281 0.2163636 -0.1413628
v 0.1176782 0.2163636 -0.07890111
v 0.05897122 0.2509894 -0.1021411
v -0.003907744 0.1042404 0.1767684
v -0.1511321 0.1042404 0.09176841
v -0.009491281 0.2017773 0.1413628
v -0.1176782 0.2017773 0.07890111
v -0.05897122 0.2340688 0.1021411
v -0.02991062 0.09651893 0.2018067
v -0.1598144 0.09651893 0.1268067
v -0.04880961 0.1503303 0.1745407
v -0.1267519 0.1503303 0.1295407
v -0.1511321 0.1343823 -0.09176841
v -0.003907744 0.1343823 -0.1767684
v -0.1176782 0.2601225 -0.07890111
v -0.009491281 0.2601225 -0.1413628
v -0.05897122 0.3017513 -0.1021411
v -0.1598144 0.124428 -0.1268067
v -0.02991062 0.124428 -0.2018067
v -0.1267519 0.1937993 -0.1295407
v -0.04880961 0.1937993 -0.1745407
v 0.1598144 0.1267538 0.1268067
v 0.02991062 0.1267538 0.2018067
v 0.1267519 0.1974217 0.1295407
v 0.04880961 0.1974217 0.1745407
v 0.1511321 0.1368941 0.09176841
v 0.003907744 0.1368941 0.1767684
v 0.1176782 0.2649846 0.07890111
v 0.009491281 0.2649846 0.1413628
v 0.05897122 0.3073915 0.1021411
v 3.248601E-15 0 -0.09
v 0.07794229 0 -0.045
v -8.301981E-15 0 0.09
v -0.07794229 0 0.045
v -0.07794229 0 -0.045
v 0.07794229 0 0.045
v 0.1104286 0.171376 -0.063756
v 0.1104286 0.171376 0.063756
v 7.219114E-16 0.171376 -0.127512
v 7.219114E-16 0.171376 0.127512
v -0.1104286 0.171376 -0.063756
v -0.1104286 0.171376 0.063756
v 0.08177704 0.238048 -0.047214
v 0.08177704 0.238048 0.047214
v -0.08177704 0.238048 -0.047214
v -0.08177704 0.238048 0.047214
v 1.443823E-15 0.238048 -0.094428
v 1.443823E-15 0.238048 0.094428
v 0.04088852 0.268048 -0.023607
v 0.04088852 0.268048 0.023607
v -7.219114E-16 0.268048 -0.047214
v -7.219114E-16 0.268048 0.047214
v -0.04088852 0.268048 -0.023607
v -0.04088852 0.268048 0.023607

vn 0.9473427 -0.3202213 0
vn 0.9769588 0.2134283 0
vn -0.9769588 -0.2134283 0
vn -0.9473427 0.3202213 0
vn 0.9892895 -0.1459669 0
vn 0.9730096 0.2307645 0
vn -0.9730096 -0.2307645 0
vn -0.9892895 0.1459669 0
vn -0.9892895 -0.1459669 0
vn -0.9730096 0.2307645 0
vn 0.9892895 0.1459669 0
vn 0.9730096 -0.2307645 0
vn -0.9473427 -0.3202213 0
vn -0.9769588 0.2134283 0
vn 0.9473427 0.3202213 0
vn 0.9769588 -0.2134283 0
vn 0.4685839 -0.3488789 -0.8116111
vn 0.4855852 0.2383862 -0.8410583
vn -0.4855852 -0.2383862 0.8410583
vn -0.4685839 0.3488789 0.8116111
vn 0.4938061 -0.1569143 -0.8552973
vn 0.4831401 0.2574928 -0.8368232
vn -0.4831401 -0.2574928 0.8368232
vn -0.4938061 0.1569143 0.8552973
vn -0.4932815 -0.1633819 0.8543885
vn -0.4807585 0.2747456 0.8326981
vn 0.4807585 -0.2747456 -0.8326981
vn 0.4932815 0.1633819 -0.8543885
vn -0.4651702 -0.3666971 0.8056984
vn -0.4835314 0.2545378 0.8375009
vn 0.4835314 -0.2545378 -0.8375009
vn 0.4651702 0.3666971 -0.8056984
vn -0.4951047 -0.1395897 -0.8575465
vn -0.4881526 0.2163983 -0.8455051
vn 0.4881526 -0.2163983 0.8455051
vn 0.4951047 0.1395897 0.8575465
vn -0.4763014 -0.3042165 -0.8249783
vn -0.4898935 0.2000432 -0.8485205
vn 0.4898935 -0.2000432 0.8485205
vn 0.4763014 0.3042165 0.8249783
vn 0.4769826 -0.299918 0.826158
vn 0.4902503 0.1965157 0.8491384
vn -0.4902503 -0.1965157 -0.8491384
vn -0.4769826 0.299918 -0.826158
vn 0.4952267 -0.1378479 0.8577578
vn 0.4885687 0.2126087 0.8462259
vn -0.4885687 -0.2126087 -0.8462259
vn -0.4952267 0.1378479 -0.8577578
vn 0.411588 -0.5677863 -0.7128913
vn -0.411588 0.5677863 0.7128913
vn 0.3396928 -0.7337815 -0.5883651
vn -0.3396928 0.7337815 0.5883651
vn -0.4019955 -0.5946416 0.6962765
vn 0.4019955 0.5946416 -0.6962765
vn -0.3267697 -0.7568924 0.5659818
vn 0.3267697 0.7568924 -0.5659818
vn -0.4336932 -0.4976352 -0.7511787
vn 0.4336932 0.4976352 0.7511787
vn 0.435659 -0.4907185 0.7545836
vn -0.435659 0.4907185 -0.7545836
vn -0.3719479 -0.6682957 -0.6442326
vn 0.3719479 0.6682957 0.6442326
vn 0.3750053 -0.661426 0.6495281
vn -0.3750053 0.661426 -0.6495281
vn 0 -1 0
vn 0.7209338 -0.6930041 0
vn -0.7209338 0.6930041 0
vn 0.8522308 -0.5231659 0
vn -0.8522308 0.5231659 0
vn -0.7209338 -0.6930041 0
vn 0.7209338 0.6930041 0
vn -0.8522308 -0.5231659 0
vn 0.8522308 0.5231659 0
vn 0 1 0
vn 0 -0.2138247 -0.976872
vn 0.845996 -0.2138247 -0.488436
vn 0 -0.2138247 0.976872
vn -0.845996 -0.2138247 0.488436
vn -0.845996 -0.2138247 -0.488436
vn 0.845996 -0.2138247 0.488436
vn 0.775766 0.4445029 -0.4478887
vn 0.775766 0.4445029 0.4478887
vn -0.775766 0.4445029 -0.4478887
vn -0.775766 0.4445029 0.4478887
vn 0 0.4445029 -0.8957774
vn 0 0.4445029 0.8957774
vn 0.4644489 0.8440279 -0.2681497
vn 0.4644489 0.8440279 0.2681497
vn 0 0.8440279 0.5362994
vn -0.4644489 0.8440279 0.2681497
vn 0 0.8440279 -0.5362994
vn -0.4644489 0.8440279 -0.2681497

vt 2.952756 2.878573
vt -2.952756 2.878573
vt 1.771654 5.491253
vt -1.771654 5.491253
vt 3.346457 3.402499
vt -3.346457 3.402499
vt 2.459123 8.15738
vt 4.261555E-13 9.731576
vt -2.459123 8.15738
vt -3.590598E-14 9.731576
vt 2.952756 2.176559
vt -2.952756 2.176559
vt 1.771654 4.515703
vt -1.771654 4.515703
vt 3.346457 2.68052
vt -3.346457 2.68052
vt 2.459123 6.941836
vt -2.459123 6.941836
vt 1.083578E-13 8.352628
vt 3.346457 2.268994
vt -3.346457 2.268994
vt 2.459123 6.262718
vt -2.459123 6.262718
vt 1.041833E-12 7.584918
vt 2.952756 1.77353
vt -2.952756 1.77353
vt 1.771654 3.964245
vt -1.771654 3.964245
vt 3.346457 3.8444
vt -3.346457 3.8444
vt 2.459123 8.914949
vt -2.459123 8.914949
vt -1.270095E-13 10.59365
vt 2.952756 3.305503
vt -2.952756 3.305503
vt 1.771654 6.093
vt -1.771654 6.093
vt 2.952756 3.425127
vt -2.952756 3.425127
vt 1.771654 6.262661
vt -1.771654 6.262661
vt 3.346457 3.968564
vt -3.346457 3.968564
vt 2.459123 9.12949
vt -2.459123 9.12949
vt 2.153833E-13 10.83812
vt 1.771654 1.742306
vt -1.771654 1.742306
vt 3.346457 7.088217
vt -3.346457 7.088217
vt -2.952756 8.249234
vt 2.952756 8.249234
vt -1.771654 2.251677
vt 1.771654 2.251677
vt 1.771654 1.824714
vt -1.771654 1.824714
vt 3.346457 6.929193
vt -3.346457 6.929193
vt 1.771654 2.322596
vt -1.771654 2.322596
vt 2.952756 8.137023
vt -2.952756 8.137023
vt 1.771654 1.52704
vt -1.771654 1.52704
vt 3.346457 7.62656
vt -3.346457 7.62656
vt 1.771654 1.505816
vt -1.771654 1.505816
vt 3.346457 7.691308
vt -3.346457 7.691308
vt -1.771654 2.050728
vt -2.952756 8.635981
vt 1.771654 2.050728
vt 2.952756 8.635981
vt 2.952756 8.683296
vt 1.771654 2.029648
vt -2.952756 8.683296
vt -1.771654 2.029648
vt 3.068594 1.771654
vt 3.068594 -1.771654
vt -3.268497E-13 3.543307
vt 1.278977E-13 -3.543307
vt -3.068594 -1.771654
vt -3.068594 1.771654
vt 2.952756 8.477011
vt 1.771654 2.126548
vt -2.952756 8.477011
vt -1.771654 2.126548
vt 3.346457 7.407244
vt 1.771654 1.605384
vt -3.346457 7.407244
vt -1.771654 1.605384

usemtl green

f 3/3/2 2/2/1 1/1/1
f 2/2/1 3/3/2 4/4/2
f 1/1/4 2/2/4 3/3/3
f 4/4/3 3/3/3 2/2/4
f 7/7/6 6/6/5 5/5/5
f 6/6/5 7/7/6 8/8/6
f 6/6/5 8/8/6 9/9/6
f 5/5/8 6/6/8 7/7/7
f 8/8/7 7/7/7 6/6/8
f 9/9/7 8/8/7 6/6/8
f 12/5/9 11/9/10 10/6/9
f 11/9/10 12/5/9 13/10/10
f 13/10/10 12/5/9 14/7/10
f 10/6/11 11/9/12 12/5/11
f 13/10/12 12/5/11 11/9/12
f 14/7/12 12/5/11 13/10/12
f 17/1/13 16/4/14 15/2/13
f 16/4/14 17/1/13 18/3/14
f 15/2/15 16/4/16 17/1/15
f 18/3/16 17/1/15 16/4/16
f 21/13/18 20/12/17 19/11/17
f 20/12/17 21/13/18 22/14/18
f 19/11/20 20/12/20 21/13/19
f 22/14/19 21/13/19 20/12/20
f 25/17/22 24/16/21 23/15/21
f 24/16/21 25/17/22 26/18/22
f 26/18/22 25/17/22 27/19/22
f 23/15/24 24/16/24 25/17/23
f 26/18/23 25/17/23 24/16/24
f 27/19/23 25/17/23 26/18/23
f 30/22/26 29/21/25 28/20/25
f 29/21/25 30/22/26 31/23/26
f 31/23/26 30/22/26 32/24/26
f 28/20/28 29/21/28 30/22/27
f 31/23/27 30/22/27 29/21/28
f 32/24/27 30/22/27 31/23/27
f 35/27/30 34/26/29 33/25/29
f 34/26/29 35/27/30 36/28/30
f 33/25/32 34/26/32 35/27/31
f 36/28/31 35/27/31 34/26/32
f 39/31/34 38/30/33 37/29/33
f 38/30/33 39/31/34 40/32/34
f 40/32/34 39/31/34 41/33/34
f 37/29/36 38/30/36 39/31/35
f 40/32/35 39/31/35 38/30/36
f 41/33/35 39/31/35 40/32/35
f 44/36/38 43/35/37 42/34/37
f 43/35/37 44/36/38 45/37/38
f 42/34/40 43/35/40 44/36/39
f 45/37/39 44/36/39 43/35/40
f 48/40/42 47/39/41 46/38/41
f 47/39/41 48/40/42 49/41/42
f 46/38/44 47/39/44 48/40/43
f 49/41/43 48/40/43 47/39/44
f 52/44/46 51/43/45 50/42/45
f 51/43/45 52/44/46 53/45/46
f 53/45/46 52/44/46 54/46/46
f 50/42/48 51/43/48 52/44/47
f 53/45/47 52/44/47 51/43/48
f 54/46/47 52/44/47 53/45/47
f 23/49/21 56/48/49 55/47/49
f 56/48/49 23/49/21 24/50/21
f 55/47/50 56/48/50 23/49/24
f 24/50/24 23/49/24 56/48/50
f 56/53/51 19/52/17 20/51/17
f 19/52/17 56/53/51 55/54/51
f 20/51/20 19/52/20 56/53/52
f 55/54/52 56/53/52 19/52/20
f 28/57/25 58/56/53 57/55/53
f 58/56/53 28/57/25 29/58/25
f 57/55/54 58/56/54 28/57/28
f 29/58/28 28/57/28 58/56/54
f 33/61/29 58/60/55 57/59/55
f 58/60/55 33/61/29 34/62/29
f 57/59/56 58/60/56 33/61/32
f 34/62/32 33/61/32 58/60/56
f 37/65/33 55/64/57 59/63/57
f 55/64/57 37/65/33 38/66/33
f 59/63/58 55/64/58 37/65/36
f 38/66/36 37/65/36 55/64/58
f 50/69/45 57/68/59 60/67/59
f 57/68/59 50/69/45 51/70/45
f 60/67/60 57/68/60 50/69/48
f 51/70/48 50/69/48 57/68/60
f 59/73/61 43/72/37 55/71/61
f 43/72/37 59/73/61 42/74/37
f 55/71/62 43/72/40 59/73/62
f 42/74/40 59/73/62 43/72/40
f 47/77/41 60/76/63 46/75/41
f 60/76/63 47/77/41 57/78/63
f 46/75/44 60/76/64 47/77/44
f 57/78/64 47/77/44 60/76/64
f 57/81/65 56/80/65 60/79/65
f 56/80/65 57/81/65 55/82/65
f 55/82/65 57/81/65 59/83/65
f 59/83/65 57/81/65 58/84/65
f 2/87/1 56/86/66 1/85/1
f 56/86/66 2/87/1 60/88/66
f 1/85/4 56/86/67 2/87/4
f 60/88/67 2/87/4 56/86/67
f 6/91/5 56/90/68 5/89/5
f 56/90/68 6/91/5 60/92/68
f 5/89/8 56/90/69 6/91/8
f 60/92/69 6/91/8 56/90/69
f 59/88/70 17/85/13 15/87/13
f 17/85/13 59/88/70 58/86/70
f 15/87/15 17/85/15 59/88/71
f 58/86/71 59/88/71 17/85/15
f 59/92/72 12/89/9 10/91/9
f 12/89/9 59/92/72 58/90/72
f 10/91/11 12/89/11 59/92/73
f 58/90/73 59/92/73 12/89/11

usemtl _defaultMat

f 63/45/74 62/44/74 61/46/74
f 62/45/74 63/44/74 64/46/74
f 64/45/74 63/44/74 65/46/74
f 64/45/74 65/44/74 66/46/74
f 63/60/75 56/61/76 55/62/75
f 56/60/76 63/61/75 61/62/76
f 64/60/77 58/61/78 57/62/77
f 58/60/78 64/61/77 66/62/78
f 65/68/79 55/69/75 59/70/79
f 55/68/75 65/69/79 63/70/75
f 59/76/79 66/77/78 65/78/79
f 66/76/78 59/77/79 58/78/78
f 62/76/80 57/77/77 60/78/80
f 57/76/77 62/77/80 64/78/77
f 62/83/80 56/81/76 61/84/76
f 56/83/76 62/81/80 60/84/80
f 67/89/81 62/92/82 61/90/81
f 62/89/82 67/92/81 68/90/82
f 66/89/84 69/92/83 65/90/83
f 69/89/83 66/92/84 70/90/84
f 71/89/85 61/92/81 63/90/85
f 61/89/81 71/92/85 67/90/81
f 68/89/82 64/92/86 62/90/82
f 64/89/86 68/92/82 72/90/86
f 72/89/86 66/92/84 64/90/86
f 66/89/84 72/92/86 70/90/84
f 69/89/83 63/92/85 65/90/83
f 63/89/85 69/92/83 71/90/85
f 75/89/74 74/92/74 73/90/74
f 74/89/74 75/92/74 76/90/74
f 76/89/74 75/92/74 77/90/74
f 76/89/74 77/92/74 78/90/74
f 73/89/87 68/92/88 67/90/87
f 68/89/88 73/92/87 74/90/88
f 76/89/89 70/92/90 72/90/89
f 70/89/90 76/92/89 78/90/90
f 69/89/92 75/92/91 71/90/91
f 75/89/91 69/92/92 77/90/92
f 71/89/91 73/92/87 67/90/87
f 73/89/87 71/92/91 75/90/91
f 69/89/92 78/92/90 77/90/92
f 78/89/90 69/92/92 70/90/90
f 74/89/88 72/92/89 68/90/88
f 72/89/89 74/92/88 76/90/89

