# Created by Kenney (www.kenney.nl)

mtllib cheeseCut.mtl

g cheeseCut

v -0.05417808 0 0.04518623
v -0.02646527 0 0.06118624
v -0.05417808 0.02048 0.04518623
v -0.02646527 0.02048 0.06118624
v -0.0735179 0 0.092
v -0.1081589 0 0.112
v -0.0735179 0.02048 0.092
v -0.1081589 0.02048 0.112
v 0.1325908 0 0.1
v 0.104878 0 0.116
v 0.1325908 0.02048 0.1
v 0.104878 0.02048 0.116
v 0.1712154 0.02048 0.03965493
v 0.1712154 0 0.03965493
v 0.1712154 0.02048 0.06365494
v 0.1712154 0 0.06365494
v -0.03887689 0 0.112
v -0.03887689 0.02048 0.112
v -0.03887689 0 0.132
v -0.03887689 0.02048 0.132
v 0.192 0 0.07565494
v 0.192 0.02048 0.07565494
v 0.1628213 0 -0.02851511
v 0.1628213 0.02048 -0.02851511
v 0.1407413 0 0.00972857
v 0.1407413 0.02048 0.00972857
v -0.05417808 0.02048 0.01318623
v -0.05417808 0 0.01318623
v 0.1407413 0 -0.0667588
v 0.1407413 0.02048 -0.0667588
v 0.09658126 0 -0.0667588
v 0.09658126 0.02048 -0.0667588
v 0.192 0 0.02765494
v 0.192 0.02048 0.02765494
v 0.192 0.02048 0.132
v 0.192 0 0.132
v 0.1603036 0 0.132
v 0.1603036 0.02048 0.132
v 0.192 0.02048 -0.132
v 0.192 0 -0.132
v 0.104878 0 0.132
v 0.104878 0.02048 0.132
v -0.1081589 0 0.132
v -0.192 0 0.132
v -0.1081589 0.02048 0.132
v -0.192 0.02048 0.132
v 0.1603036 0 0.116
v 0.1603036 0.02048 0.116
v -0.192 0 0.03306937
v -0.164 0 0.03306937
v -0.192 0.02048 0.03306937
v -0.164 0.02048 0.03306937
v 0.08992881 0 -0.132
v 0.08992881 0.02048 -0.132
v 0.07392881 0 -0.1042872
v 0.07392881 0.02048 -0.1042872
v -0.164 0 -0.06392547
v -0.164 0.02048 -0.06392547
v -0.136 0 -0.01542805
v -0.136 0.02048 -0.01542805
v 0.04192881 0 -0.1042872
v 0.04192881 0.02048 -0.1042872
v 0.001247544 0 0.01318623
v -0.02646527 0 -0.002813765
v 0.001247544 0.02048 0.01318623
v -0.02646527 0.02048 -0.002813765
v 0.09658126 0 0.00972857
v 0.09658126 0.02048 0.00972857
v 0.02592882 0.02048 -0.132
v 0.02592882 0 -0.132
v 0.001247544 0 0.04518623
v 0.001247544 0.02048 0.04518623
v 0.07450126 0.02048 -0.02851511
v 0.07450126 0 -0.02851511
v -0.192 0 -0.132
v -0.192 0.02048 -0.132
v -0.192 0 -0.06392547
v -0.192 0.02048 -0.06392547

vn 0.8660254 0 -0.5
vn 0 0 -1
vn 0 0 1
vn 0.8660254 0 0.5
vn -0.8660254 0 0.5
vn -1 0 0
vn 0.5 0 -0.8660254
vn -0.5 0 -0.8660254
vn -0.5 0 0.8660254
vn 0.5 0 0.8660254
vn 1 0 0
vn -0.8660254 0 -0.5
vn 0 -1 0
vn 0 1 0

vt 0.9577354 0
vt -0.3021072 0
vt 0.9577354 0.8062992
vt -0.3021072 0.8062992
vt -4.317652 0
vt -5.892456 0
vt -4.317652 0.8062992
vt -5.892456 0.8062992
vt 2.552244 0
vt 1.292402 0
vt 2.552244 0.8062992
vt 1.292402 0.8062992
vt -1.561218 0.8062992
vt -1.561218 0
vt -2.5061 0.8062992
vt -2.5061 0
vt 4.409449 0
vt 4.409449 0.8062992
vt 5.19685 0
vt 5.19685 0.8062992
vt -7.090722 0
vt -8.035604 0
vt -7.090722 0.8062992
vt -8.035604 0.8062992
vt -4.17738 0
vt -4.17738 0.8062992
vt -2.438797 0
vt -2.438797 0.8062992
vt -0.5191431 0.8062992
vt -0.5191431 0
vt -1.778986 0.8062992
vt -1.778986 0
vt 0.4943236 0
vt 0.4943236 0.8062992
vt 2.232906 0
vt 2.232906 0.8062992
vt 5.540995 0
vt 3.802412 0
vt 5.540995 0.8062992
vt 3.802412 0.8062992
vt 6.001945 0
vt 5.057064 0
vt 6.001945 0.8062992
vt 5.057064 0.8062992
vt 0.879198 0
vt -0.6956052 0
vt 0.879198 0.8062992
vt -0.6956052 0.8062992
vt -2.978541 0.8062992
vt -2.978541 0
vt -5.19685 0.8062992
vt -5.19685 0
vt 7.559055 0
vt 6.311166 0
vt 7.559055 0.8062992
vt 6.311166 0.8062992
vt -1.088777 0.8062992
vt -1.088777 0
vt 4.129055 0
vt -1.530586 0
vt 4.129055 0.8062992
vt -1.530586 0.8062992
vt -4.258225 0
vt -7.559055 0
vt -4.258225 0.8062992
vt -7.559055 0.8062992
vt 4.566929 0
vt 4.566929 0.8062992
vt 6.456693 0
vt 6.456693 0.8062992
vt 1.301944 0
vt 1.301944 0.8062992
vt -6.270857 0
vt -6.270857 0.8062992
vt -5.011014 0
vt -5.011014 0.8062992
vt -5.407917 0
vt -5.407917 0.8062992
vt -3.203192 0
vt -3.203192 0.8062992
vt -4.409449 0.8062992
vt -4.409449 0
vt 7.749095 0
vt 6.489252 0
vt 7.749095 0.8062992
vt 6.489252 0.8062992
vt -1.650741 0
vt -2.910583 0
vt -1.650741 0.8062992
vt -2.910583 0.8062992
vt 0.3021072 0
vt -0.9577354 0
vt 0.3021072 0.8062992
vt -0.9577354 0.8062992
vt -3.802412 0
vt -5.540995 0
vt -3.802412 0.8062992
vt -5.540995 0.8062992
vt -0.8469572 0
vt -2.1068 0
vt -0.8469572 0.8062992
vt -2.1068 0.8062992
vt 3.990195 0.8062992
vt 3.990195 0
vt 2.730352 0.8062992
vt 2.730352 0
vt 0.5191431 0
vt 0.5191431 0.8062992
vt 1.778986 0
vt 1.778986 0.8062992
vt 2.151138 0
vt 2.151138 0.8062992
vt 4.355863 0
vt 4.355863 0.8062992
vt -4.566929 0.8062992
vt -4.566929 0
vt -0.4943236 0.8062992
vt -0.4943236 0
vt -2.232906 0.8062992
vt -2.232906 0
vt -3.540504 0
vt -3.540504 0.8062992
vt -2.516751 0
vt -2.516751 0.8062992
vt -6.456693 0
vt -6.456693 0.8062992
vt -1.02082 0
vt -1.02082 0.8062992
vt 2.1068 0
vt 0.8469572 0
vt 2.1068 0.8062992
vt 0.8469572 0.8062992
vt 4.17738 0.8062992
vt 4.17738 0
vt 2.438797 0.8062992
vt 2.438797 0
vt -7.559055 2.978541
vt -7.559055 5.19685
vt -6.740763 2.5061
vt -6.311166 5.19685
vt -6.410286 -1.122642
vt -6.740763 1.561218
vt -7.559055 1.088777
vt -6.311166 4.566929
vt -7.559055 -5.19685
vt -5.540995 0.3830146
vt -5.540995 -2.628299
vt -5.22011 3.937008
vt -3.540504 -5.19685
vt -3.802412 -2.628299
vt -3.802412 0.3830146
vt -2.93312 -1.122642
vt -4.129055 4.566929
vt -4.129055 5.19685
vt 1.530586 5.19685
vt -2.910583 -4.105795
vt -0.04911591 1.778986
vt -1.650741 -4.105795
vt -1.02082 -5.19685
vt 1.04194 2.408907
vt -0.04911591 0.5191431
vt 7.559055 -5.19685
vt 1.530586 4.409449
vt 1.04194 -0.1107782
vt 2.132995 1.778986
vt 2.132995 0.5191431
vt 2.894406 3.622047
vt 5.354331 -0.6074036
vt 4.258225 4.409449
vt 4.258225 5.19685
vt 7.559055 5.19685
vt 6.456693 -2.516751
vt 7.559055 -2.516751
vt 6.456693 1.301944
vt 7.559055 1.301944

usemtl brownLight

f 3/3/1 2/2/2 1/1/1
f 2/2/2 3/3/1 4/4/2
f 7/7/3 6/6/4 5/5/3
f 6/6/4 7/7/3 8/8/4
f 11/11/3 10/10/4 9/9/3
f 10/10/4 11/11/3 12/12/4
f 15/15/1 14/14/4 13/13/4
f 14/14/4 15/15/1 16/16/1
f 19/19/6 18/18/5 17/17/5
f 18/18/5 19/19/6 20/20/6
f 15/23/1 21/22/7 16/21/1
f 21/22/7 15/23/1 22/24/7
f 25/27/8 24/26/6 23/25/6
f 24/26/6 25/27/8 26/28/8
f 3/31/1 28/30/4 27/29/4
f 28/30/4 3/31/1 1/32/1
f 23/35/6 30/34/9 29/33/9
f 30/34/9 23/35/6 24/36/6
f 30/39/9 31/38/10 29/37/9
f 31/38/10 30/39/9 32/40/10
f 34/43/10 14/42/4 33/41/10
f 14/42/4 34/43/10 13/44/4
f 18/47/5 5/46/3 17/45/5
f 5/46/3 18/47/5 7/48/3
f 35/51/11 21/50/11 22/49/11
f 21/50/11 35/51/11 36/52/11
f 35/55/3 37/54/3 36/53/3
f 37/54/3 35/55/3 38/56/3
f 34/57/11 40/19/11 39/20/11
f 40/19/11 34/57/11 33/58/11
f 42/61/3 19/60/3 41/59/3
f 19/60/3 42/61/3 20/62/3
f 45/65/3 44/64/3 43/63/3
f 44/64/3 45/65/3 46/66/3
f 37/19/6 48/68/5 47/67/5
f 48/68/5 37/19/6 38/20/6
f 51/55/2 50/69/8 49/53/2
f 50/69/8 51/55/2 52/70/8
f 44/19/6 51/72/6 49/71/6
f 51/72/6 44/19/6 46/20/6
f 55/75/8 54/74/12 53/73/12
f 54/74/12 55/75/8 56/76/8
f 59/79/6 58/78/9 57/77/9
f 58/78/9 59/79/6 60/80/6
f 45/51/11 6/82/4 8/81/4
f 6/82/4 45/51/11 43/52/11
f 48/85/5 9/84/3 47/83/5
f 9/84/3 48/85/5 11/86/3
f 62/89/7 55/88/8 61/87/7
f 55/88/8 62/89/7 56/90/8
f 65/93/5 64/92/3 63/91/5
f 64/92/3 65/93/5 66/94/3
f 68/97/7 25/96/8 67/95/7
f 25/96/8 68/97/7 26/98/8
f 66/101/3 28/100/4 64/99/3
f 28/100/4 66/101/3 27/102/4
f 62/105/7 70/104/1 69/103/1
f 70/104/1 62/105/7 61/106/7
f 71/109/12 65/108/5 63/107/5
f 65/108/5 71/109/12 72/110/12
f 50/113/8 60/112/6 59/111/6
f 60/112/6 50/113/8 52/114/8
f 42/51/11 10/116/4 12/115/4
f 10/116/4 42/51/11 41/52/11
f 68/119/7 74/118/11 73/117/11
f 74/118/11 68/119/7 67/120/7
f 54/122/2 40/64/2 53/121/2
f 40/64/2 54/122/2 39/66/2
f 77/123/6 76/51/6 75/52/6
f 76/51/6 77/123/6 78/124/6
f 58/126/9 77/64/3 57/125/9
f 77/64/3 58/126/9 78/66/3
f 76/55/2 70/127/2 75/53/2
f 70/127/2 76/55/2 69/128/2
f 4/131/2 71/130/12 2/129/2
f 71/130/12 4/131/2 72/132/12
f 73/135/11 31/134/10 32/133/10
f 31/134/10 73/135/11 74/136/11

usemtl _defaultMat

f 19/22/13 10/23/13 41/24/13
f 10/22/13 19/23/13 67/24/13
f 67/22/13 19/23/13 74/24/13
f 74/22/13 19/23/13 55/24/13
f 55/22/13 19/23/13 71/24/13
f 55/22/13 71/23/13 61/24/13
f 61/22/13 71/23/13 70/24/13
f 71/22/13 19/23/13 2/24/13
f 2/22/13 19/23/13 17/24/13
f 2/22/13 17/23/13 1/24/13
f 1/22/13 17/23/13 5/24/13
f 1/22/13 5/23/13 28/24/13
f 44/22/13 6/23/13 43/24/13
f 6/22/13 44/23/13 59/24/13
f 59/22/13 44/23/13 50/24/13
f 50/22/13 44/23/13 49/24/13
f 70/22/13 63/23/13 75/24/13
f 63/22/13 70/23/13 71/24/13
f 75/22/13 63/23/13 64/24/13
f 75/22/13 64/23/13 28/24/13
f 75/22/13 28/23/13 5/24/13
f 75/22/13 5/23/13 59/24/13
f 75/22/13 59/23/13 57/24/13
f 59/22/13 5/23/13 6/24/13
f 75/22/13 57/23/13 77/24/13
f 14/22/13 40/23/13 33/24/13
f 40/22/13 14/23/13 23/24/13
f 40/22/13 23/23/13 29/24/13
f 40/22/13 29/23/13 53/24/13
f 53/22/13 29/23/13 31/24/13
f 53/22/13 31/23/13 74/24/13
f 53/22/13 74/23/13 55/24/13
f 37/22/13 21/23/13 36/24/13
f 21/22/13 37/23/13 16/24/13
f 16/22/13 37/23/13 14/24/13
f 14/22/13 37/23/13 23/24/13
f 23/22/13 37/23/13 47/24/13
f 23/22/13 47/23/13 25/24/13
f 25/22/13 47/23/13 9/24/13
f 25/22/13 9/23/13 67/24/13
f 67/22/13 9/23/13 10/24/13

usemtl yellow

f 15/139/14 35/138/14 22/137/14
f 35/138/14 15/139/14 38/140/14
f 38/140/14 15/139/14 24/141/14
f 13/142/14 24/141/14 15/139/14
f 34/143/14 24/141/14 13/142/14
f 38/140/14 24/141/14 48/144/14
f 39/145/14 24/141/14 34/143/14
f 26/146/14 48/144/14 24/141/14
f 24/141/14 39/145/14 30/147/14
f 48/144/14 26/146/14 11/148/14
f 30/147/14 39/145/14 54/149/14
f 30/147/14 54/149/14 32/150/14
f 11/148/14 26/146/14 68/151/14
f 32/150/14 54/149/14 73/152/14
f 11/148/14 68/151/14 12/153/14
f 12/153/14 68/151/14 42/154/14
f 42/154/14 68/151/14 20/155/14
f 20/155/14 68/151/14 73/152/14
f 73/152/14 54/149/14 56/156/14
f 20/155/14 73/152/14 56/156/14
f 20/155/14 56/156/14 72/157/14
f 72/157/14 56/156/14 62/158/14
f 72/157/14 62/158/14 69/159/14
f 20/155/14 72/157/14 4/160/14
f 72/157/14 69/159/14 65/161/14
f 76/162/14 65/161/14 69/159/14
f 20/155/14 4/160/14 18/163/14
f 65/161/14 76/162/14 66/164/14
f 3/165/14 18/163/14 4/160/14
f 66/164/14 76/162/14 27/166/14
f 27/166/14 76/162/14 3/165/14
f 18/163/14 3/165/14 7/167/14
f 3/165/14 76/162/14 7/167/14
f 7/167/14 76/162/14 60/168/14
f 7/167/14 60/168/14 8/169/14
f 8/169/14 60/168/14 45/170/14
f 60/168/14 46/171/14 45/170/14
f 60/168/14 76/162/14 58/172/14
f 58/172/14 76/162/14 78/173/14
f 46/171/14 60/168/14 52/174/14
f 46/171/14 52/174/14 51/175/14

