# Created by Kenney (www.kenney.nl)

mtllib cherries.mtl

g cherries

v -0.02520129 0.1660696 -0.01493104
v -3.414161E-10 0.1405796 -0.026081
v -3.414161E-10 0.170709 -0.006895311
v 0.02520129 0.1660696 -0.01493104
v 0.03564 0.154869 -0.03433099
v -0.03564 0.154869 -0.03433099
v -3.414161E-10 0.1088996 -0.08095237
v -0.0286 6.203926E-18 0.04284725
v -0.044 0.0302445 0.04284725
v -0.0143 6.203926E-18 0.06761558
v -0.022 0.0302445 0.08095237
v 0.044 0.0302445 0.04284725
v 0.0286 6.203926E-18 0.04284725
v 0.022 0.0302445 0.08095236
v 0.0143 6.203926E-18 0.06761558
v 0.022 0.0302445 -0.000228752
v -0.022 0.0302445 -0.0002287514
v 0.0143 0.060489 -0.01356554
v -0.0143 0.060489 -0.01356554
v -0.0286 0 -0.03833387
v -0.044 0.0302445 -0.03833387
v -0.0143 0 -0.01356554
v -0.022 0.0302445 -0.07643899
v -0.0143 0.060489 -0.0631022
v -0.0286 0.060489 -0.03833387
v 0.022 0.0302445 0.00474213
v 0.0143 6.203926E-18 0.01807892
v 0.0143 0 -0.01356554
v -0.022 0.0302445 0.00474213
v -0.0143 6.203926E-18 0.01807892
v 0.0143 0.060489 0.01807892
v 0.0286 0.060489 0.04284725
v 0.0143 0.060489 0.06761558
v -0.0143 0.060489 0.01807892
v -0.0143 0 -0.0631022
v 0.0143 0 -0.0631022
v 0.022 0.0302445 -0.07643899
v 0.044 0.0302445 -0.03833387
v 0.0143 0.060489 -0.0631022
v 0.0286 0.060489 -0.03833387
v 0.0286 0 -0.03833387
v -0.0143 0.060489 0.06761558
v -0.0286 0.060489 0.04284725
v -0.004575999 0.060489 -0.03375787
v -0.004575999 0.060489 -0.04290987
v 0.004576 0.060489 -0.04290987
v 0.004576 0.060489 -0.03375787
v -0.004576001 0.060489 0.04742325
v -0.004576001 0.060489 0.03827124
v 0.004575999 0.060489 0.03827124
v 0.004575999 0.060489 0.04742325
v -0.004576 0.110099 0.02727125
v 0.004575999 0.110099 0.02727125
v -0.004576 0.159709 0.002256688
v 0.004575999 0.159709 0.002256689
v 0.004575999 0.170709 -0.006895311
v 0.004575999 0.159709 -0.006895311
v 0.004575999 0.170709 0.01140869
v 0.004575999 0.159709 0.01140869
v 0.004575999 0.110099 -0.02275787
v 0.004575999 0.110099 -0.03190987
v 0.004575999 0.110099 0.03642325
v -0.004576001 0.110099 0.03642325
v -0.004576 0.170709 0.01140869
v -0.004576 0.170709 -0.006895311
v -0.004576 0.110099 -0.02275787
v -0.004576 0.110099 -0.03190987
v -0.004576 0.159709 -0.006895311
v -0.004576 0.159709 0.01140869

vn 0.303791 0.6176592 -0.7254022
vn 0 0.7666903 -0.6420172
vn 0 0.537123 -0.843504
vn 0 -0.537123 0.843504
vn 0 -0.7666903 0.6420172
vn -0.303791 -0.6176592 0.7254022
vn -0.303791 0.6176592 -0.7254022
vn 0.303791 -0.6176592 0.7254022
vn -0.4178621 0.7298496 -0.5410275
vn 0.4178621 -0.7298496 0.5410275
vn 0.4178621 0.7298496 -0.5410275
vn -0.4178621 -0.7298496 0.5410275
vn 0 0.8660254 -0.5
vn 0 -0.8660254 0.5
vn -0.8911297 -0.4537485 0
vn -0.4455649 -0.4537486 0.771741
vn 0.8911297 -0.4537485 0
vn 0.4455649 -0.4537486 0.771741
vn 0.4455649 0.4537486 0.771741
vn -0.4455649 0.4537486 0.771741
vn -0.4455649 0.4537486 -0.771741
vn -0.8911297 0.4537485 0
vn 0.4455649 -0.4537486 -0.771741
vn -0.4455649 -0.4537486 -0.771741
vn 0.4455649 0.4537486 -0.771741
vn 0.8911297 0.4537485 0
vn 0 -1 0
vn 0 1 0
vn 0 -0.3359468 -0.9418809
vn 0 -0.4502285 -0.8929134
vn 1 0 0
vn 0 0.2164721 0.9762889
vn 0 0.3359468 0.9418809
vn 0 -0.3359468 0.9418809
vn 0 -0.4502285 0.8929134
vn 0 0.3359468 -0.9418809
vn 0 0.4502285 -0.8929134
vn -1 0 0
vn 0 0.4502285 0.8929134
vn 0 0.2164721 -0.9762889
vn 0 -0.2164721 0.9762889
vn 0 -0.2164721 -0.9762889
vn 0 0 1
vn 0 0 -1

vt 1.088792 5.345034
vt 0.2029559 4.162027
vt 0.05365764 5.560353
vt -0.2029559 4.162027
vt -1.088792 5.345034
vt -0.05365761 5.560353
vt -1.918972 4.270388
vt -1.151286 4.868189
vt -0.5739197 3.507726
vt 0.5739197 3.507726
vt 1.151286 4.868189
vt 1.918972 4.270388
vt 2.165342 0.8133209
vt 0.6976236 2.830317
vt 1.947873 3.740093
vt -2.165342 0.8133209
vt -1.947873 3.740093
vt -0.6976236 2.830317
vt 0.8979057 0.7337589
vt 0.5947561 2.035117
vt 2.02389 0.7337589
vt 2.327039 2.035117
vt -0.5947561 2.035117
vt -0.8979057 0.7337589
vt -2.327039 2.035117
vt -2.02389 0.7337589
vt 0.8661417 1.093137
vt -0.8661417 1.093137
vt 0.5629922 2.394495
vt -0.5629921 2.394495
vt -1.870004 0.08897807
vt -2.173154 1.390336
vt -0.7440199 0.08897807
vt -0.4408703 1.390336
vt -2.173154 0.179737
vt -1.870004 1.481095
vt -0.4408703 0.179737
vt -0.7440199 1.481095
vt -0.5947561 1.354489
vt -0.8979057 0.05313057
vt -2.327039 1.354489
vt -2.02389 0.05313057
vt 0.5629922 -0.2154886
vt -0.5629921 -0.2154886
vt 0.8661417 1.08587
vt -0.8661417 1.08587
vt 0.5947561 1.354489
vt 2.327039 1.354489
vt 0.8979057 0.05313059
vt 2.02389 0.05313059
vt -0.5947561 0.8245178
vt -2.327039 0.8245178
vt -0.8979057 2.125876
vt -2.02389 2.125876
vt -0.5947561 0.1438895
vt -2.327039 0.1438895
vt -0.8979057 1.445248
vt -2.02389 1.445248
vt 0.8661417 1.164832
vt -0.8661417 1.164832
vt 0.5629922 2.46619
vt -0.5629921 2.46619
vt 0.5629921 1.002378
vt -0.5629922 1.002378
vt 0.8661417 2.303736
vt -0.8661417 2.303736
vt 2.173154 0.179737
vt 0.4408703 0.179737
vt 1.870004 1.481095
vt 0.7440199 1.481095
vt -1.870004 2.090029
vt -0.7440199 2.090029
vt -2.173154 0.7886704
vt -0.4408703 0.7886704
vt 0.8661417 -0.1247296
vt -0.8661417 -0.1247296
vt 0.5629921 1.176628
vt -0.5629922 1.176628
vt 1.125984 -1.509207
vt 0.5629921 -2.484339
vt 0.5629922 -0.5340765
vt -0.5629921 -0.5340765
vt -0.5629922 -2.484339
vt -1.125984 -1.509207
vt 0.8661417 -0.1964246
vt -0.8661417 -0.1964246
vt 0.5629921 1.104934
vt -0.5629922 1.104934
vt 0.5629921 1.074073
vt -0.5629922 1.074073
vt 0.8661417 2.375431
vt -0.8661417 2.375431
vt 0.8979057 1.445248
vt 2.02389 1.445248
vt 0.5947561 0.1438895
vt 2.327039 0.1438895
vt 1.125984 -1.509207
vt 0.5629922 -2.484339
vt 0.5629921 -0.5340765
vt 0.1801575 -1.32905
vt 0.1801575 -1.689365
vt -0.1801575 -1.689365
vt -0.1801575 -1.32905
vt -0.5629921 -2.484339
vt -0.5629922 -0.5340765
vt -1.125984 -1.509207
vt 2.173154 1.390336
vt 1.870004 0.08897809
vt 0.4408703 1.390336
vt 0.7440199 0.08897809
vt -2.173154 1.99927
vt -0.4408703 1.99927
vt -1.870004 0.6979114
vt -0.7440199 0.6979114
vt 2.173154 1.99927
vt 1.870004 0.6979114
vt 0.4408703 1.99927
vt 0.7440199 0.6979114
vt 1.125984 1.6869
vt 0.5629922 0.7117686
vt 0.5629921 2.66203
vt 0.1801575 1.867057
vt 0.1801575 1.506742
vt -0.1801574 1.506742
vt -0.1801574 1.867057
vt -0.5629921 0.7117686
vt -0.5629922 2.66203
vt -1.125984 1.6869
vt 0.5947561 0.8245178
vt 0.8979057 2.125876
vt 2.327039 0.8245178
vt 2.02389 2.125876
vt 2.173154 0.7886704
vt 0.4408703 0.7886704
vt 1.870004 2.090029
vt 0.7440199 2.090029
vt 0.5629922 -0.2871836
vt -0.5629921 -0.2871836
vt 0.8661417 1.014175
vt -0.8661417 1.014175
vt 1.125984 1.6869
vt 0.5629921 0.7117686
vt 0.5629922 2.66203
vt -0.5629921 2.66203
vt -0.5629922 0.7117686
vt -1.125984 1.6869
vt 0.1801575 3.387031
vt -0.1801575 3.387031
vt 0.1801575 5.57442
vt -0.1801575 5.57442
vt 0.2714689 6.720827
vt 0.2714689 6.287756
vt -0.449161 6.720827
vt -0.08884601 6.287756
vt -0.449161 6.287756
vt 0.8959792 4.334606
vt -1.073671 4.334606
vt 1.256294 4.334606
vt 1.32905 2.381457
vt 1.689365 2.381457
vt -1.433986 4.334606
vt -1.506742 2.381457
vt -1.867057 2.381457
vt 0.1801575 1.920824
vt -0.1801575 1.920824
vt 0.1801575 3.92141
vt -0.1801575 3.92141
vt -0.1801575 -0.2714689
vt -0.1801575 0.449161
vt 1.344158E-08 -0.2714689
vt 0.1801575 0.449161
vt 0.1801575 -0.2714689
vt 0.1801575 3.467033
vt -0.1801575 3.467033
vt 0.1801575 5.654422
vt -0.1801575 5.654422
vt 0.1801575 3.304809
vt -0.1801575 3.304809
vt 0.1801575 5.492198
vt -0.1801575 5.492198
vt 1.867057 2.381457
vt 1.506742 2.381457
vt 1.433986 4.334606
vt 1.073671 4.334606
vt 0.449161 6.287756
vt 0.08884601 6.287756
vt 0.449161 6.720827
vt -0.2714689 6.720827
vt -0.2714689 6.287756
vt -0.8959792 4.334606
vt -1.256294 4.334606
vt -1.32905 2.381457
vt -1.689365 2.381457
vt 0.1801575 3.224807
vt -0.1801575 3.224807
vt 0.1801575 5.412196
vt -0.1801575 5.412196
vt 0.1801575 1.959289
vt -0.1801575 1.959289
vt 0.1801575 3.959875
vt -0.1801575 3.959875
vt 0.1801575 2.037287
vt -0.1801575 2.037287
vt 0.1801575 4.037873
vt -0.1801575 4.037873
vt 0.1801575 1.998822
vt -0.1801575 1.998822
vt 0.1801575 3.999408
vt -0.1801575 3.999408
vt 0.1801575 6.287756
vt -0.1801575 6.287756
vt 0.1801575 6.720827
vt -0.1801575 6.720827
vt 0.1801575 6.287756
vt -0.1801575 6.287756
vt 0.1801575 6.720827
vt -0.1801575 6.720827
vt 1.748675E-08 6.720827

usemtl green

f 3/3/3 2/2/2 1/1/1
f 1/1/6 2/2/5 3/3/4
f 3/6/3 4/5/7 2/4/2
f 2/4/5 4/5/8 3/6/4
f 2/9/2 4/8/7 5/7/9
f 5/7/10 4/8/8 2/9/5
f 6/12/11 1/11/1 2/10/2
f 2/10/5 1/11/6 6/12/12
f 6/15/11 2/14/2 7/13/13
f 7/13/14 2/14/5 6/15/12
f 2/18/2 5/17/9 7/16/13
f 7/16/14 5/17/10 2/18/5

usemtl red

f 10/21/16 9/20/15 8/19/15
f 9/20/15 10/21/16 11/22/16
f 14/25/18 13/24/17 12/23/17
f 13/24/17 14/25/18 15/26/18
f 18/29/19 17/28/20 16/27/19
f 17/28/20 18/29/19 19/30/20
f 22/33/16 21/32/15 20/31/15
f 21/32/15 22/33/16 17/34/16
f 21/37/22 24/36/21 23/35/21
f 24/36/21 21/37/22 25/38/22
f 12/41/17 27/40/23 26/39/23
f 27/40/23 12/41/17 13/42/17
f 16/45/18 22/44/16 28/43/18
f 22/44/16 16/45/18 17/46/16
f 30/49/24 9/48/15 29/47/24
f 9/48/15 30/49/24 8/50/15
f 31/53/25 12/52/26 26/51/25
f 12/52/26 31/53/25 32/54/26
f 32/57/26 14/56/19 12/55/26
f 14/56/19 32/57/26 33/58/19
f 34/61/21 26/60/25 29/59/21
f 26/60/25 34/61/21 31/62/25
f 23/65/24 36/64/23 35/63/24
f 36/64/23 23/65/24 37/66/23
f 39/69/25 38/68/26 37/67/25
f 38/68/26 39/69/25 40/70/26
f 21/73/22 19/72/20 25/71/22
f 19/72/20 21/73/22 17/74/20
f 24/77/21 37/76/25 23/75/21
f 37/76/25 24/77/21 39/78/25
f 28/81/27 36/80/27 41/79/27
f 36/80/27 28/81/27 22/82/27
f 36/80/27 22/82/27 35/83/27
f 35/83/27 22/82/27 20/84/27
f 33/87/19 11/86/20 14/85/19
f 11/86/20 33/87/19 42/88/20
f 14/91/18 10/90/16 15/89/18
f 10/90/16 14/91/18 11/92/16
f 9/95/22 42/94/20 43/93/22
f 42/94/20 9/95/22 11/96/20
f 19/99/28 24/98/28 25/97/28
f 44/100/28 24/98/28 19/99/28
f 45/101/28 24/98/28 44/100/28
f 46/102/28 24/98/28 45/101/28
f 19/99/28 47/103/28 44/100/28
f 24/98/28 46/102/28 39/104/28
f 47/103/28 39/104/28 46/102/28
f 18/105/28 47/103/28 19/99/28
f 18/105/28 39/104/28 47/103/28
f 39/104/28 18/105/28 40/106/28
f 16/109/18 41/108/17 38/107/17
f 41/108/17 16/109/18 28/110/18
f 35/113/24 21/112/15 23/111/24
f 21/112/15 35/113/24 20/114/15
f 38/117/17 36/116/23 37/115/23
f 36/116/23 38/117/17 41/118/17
f 42/121/28 34/120/28 43/119/28
f 48/122/28 34/120/28 42/121/28
f 49/123/28 34/120/28 48/122/28
f 50/124/28 34/120/28 49/123/28
f 42/121/28 51/125/28 48/122/28
f 34/120/28 50/124/28 31/126/28
f 51/125/28 31/126/28 50/124/28
f 33/127/28 51/125/28 42/121/28
f 33/127/28 31/126/28 51/125/28
f 31/126/28 33/127/28 32/128/28
f 9/131/22 34/130/21 29/129/21
f 34/130/21 9/131/22 43/132/22
f 40/135/26 16/134/19 38/133/26
f 16/134/19 40/135/26 18/136/19
f 29/139/24 27/138/23 30/137/24
f 27/138/23 29/139/24 26/140/23
f 15/143/27 27/142/27 13/141/27
f 27/142/27 15/143/27 10/144/27
f 27/142/27 10/144/27 30/145/27
f 30/145/27 10/144/27 8/146/27

usemtl brown

f 54/149/30 53/148/29 52/147/29
f 53/148/29 54/149/30 55/150/30
f 58/153/31 57/152/31 56/151/31
f 57/152/31 58/153/31 55/154/31
f 55/154/31 58/153/31 59/155/31
f 60/156/31 57/152/31 55/154/31
f 55/154/31 59/155/31 53/157/31
f 60/156/31 61/158/31 57/152/31
f 47/159/31 61/158/31 60/156/31
f 61/158/31 47/159/31 46/160/31
f 53/157/31 59/155/31 62/161/31
f 53/157/31 62/161/31 50/162/31
f 50/162/31 62/161/31 51/163/31
f 62/166/33 48/165/32 51/164/32
f 48/165/32 62/166/33 63/167/33
f 3/170/28 58/169/28 56/168/28
f 58/169/28 3/170/28 64/171/28
f 64/171/28 3/170/28 65/172/28
f 55/175/35 66/174/34 60/173/34
f 66/174/34 55/175/35 54/176/35
f 68/179/37 61/178/36 67/177/36
f 61/178/36 68/179/37 57/180/37
f 63/183/38 49/182/38 48/181/38
f 63/183/38 52/184/38 49/182/38
f 69/185/38 52/184/38 63/183/38
f 52/184/38 69/185/38 54/186/38
f 64/187/38 54/186/38 69/185/38
f 65/188/38 54/186/38 64/187/38
f 68/189/38 54/186/38 65/188/38
f 68/189/38 66/190/38 54/186/38
f 67/191/38 66/190/38 68/189/38
f 67/191/38 44/192/38 66/190/38
f 44/192/38 67/191/38 45/193/38
f 59/196/39 63/195/33 62/194/33
f 63/195/33 59/196/39 69/197/39
f 67/200/36 46/199/40 45/198/40
f 46/199/40 67/200/36 61/201/36
f 60/204/34 44/203/41 47/202/41
f 44/203/41 60/204/34 66/205/34
f 52/208/29 50/207/42 49/206/42
f 50/207/42 52/208/29 53/209/29
f 58/212/43 69/211/43 59/210/43
f 69/211/43 58/212/43 64/213/43
f 65/216/44 57/215/44 68/214/44
f 57/215/44 65/216/44 56/217/44
f 56/217/44 65/216/44 3/218/44

