# Created by Kenney (www.kenney.nl)

mtllib cookingKnifeChopping.mtl

g cookingKnifeChopping

v 0.2759882 0 -0.02972567
v 0.2139526 0 -0.02535249
v 0.2759882 0.02 -0.02972567
v 0.2139526 0.02 -0.02535249
v 0.3 0.02 -0.09748807
v 0.3 0.02 -0.05852632
v 0.05 0.02 -0.08481772
v 0.05 0.02 -0.04518228
v 0.3 0 -0.09748807
v 0.3 0 -0.05852632
v 0.05 0 -0.08481772
v 0.05 0.01 -0.08481772
v 0.05 0 -0.04518228
v 0.05 0.01 -0.08
v 0.05 0.01 -0.06518228
v 0.05 0.01 -0.04518228
v 0.05 0.01 0.06523335
v -0.3 0.01 0.06523335
v 0.05 0.01 -0.1
v -0.2308378 0.01 -0.02351729
v -0.2208378 0.01 -0.0408378
v -0.2308378 0.01 -0.05815831
v -0.2508378 0.01 -0.02351729
v -0.2608378 0.01 -0.1
v -0.2408378 0.01 -0.05815831
v -0.2508378 0.01 -0.05815831
v -0.2608378 0.01 -0.0408378
v -0.3 0.01 -0.0608378
v 0.05 0.01 0.1
v -0.3 0.01 0.1

vn 0.4556502 0 0.8901589
vn -0.02499004 0 0.9996877
vn 0 1 0
vn 1 0 0
vn 0.9402322 0 0.340534
vn -1 0 0
vn -0.05061643 0 -0.9987181
vn -0.1200732 0 0.992765
vn 0 -1 0

vt 10.92107 0
vt 8.472669 0
vt 10.92107 0.7874016
vt 8.472669 0.7874016
vt -11.81102 -3.838113
vt -11.81102 -2.304186
vt -1.968504 -3.33928
vt -10.86568 -1.170302
vt -8.423332 -0.9981294
vt -1.968504 -1.77883
vt 3.838113 0.7874016
vt 3.838113 0
vt 2.304186 0.7874016
vt 2.304186 0
vt 9.333116 0.7874016
vt 9.333116 0
vt 7.856844 0.7874016
vt 7.856844 0
vt -3.33928 0
vt -3.33928 0.3937008
vt -1.77883 0
vt -3.149606 0.3937008
vt -3.33928 0.7874016
vt -1.77883 0.7874016
vt -2.566231 0.3937008
vt -1.77883 0.3937008
vt -2.135003 0
vt -11.99016 0
vt -2.135003 0.3937008
vt -11.99016 0.7874016
vt -2.135003 0.7874016
vt 8.242541 0
vt 1.740672 0
vt 8.242541 0.7874016
vt 1.740672 0.3937008
vt 1.740672 0.7874016
vt 11.81102 -2.304186
vt 11.81102 -3.838113
vt 10.86568 -1.170302
vt 1.968504 -3.33928
vt 8.423332 -0.9981294
vt 1.968504 -1.77883
vt 1.968504 2.568242
vt -11.81102 2.568242
vt 1.968504 -2.566231
vt 1.968504 -3.149606
vt 1.968504 -3.937008
vt -9.088102 -0.9258776
vt -8.694402 -1.607787
vt -9.088102 -2.289697
vt -9.875504 -0.9258776
vt -10.26921 -3.937008
vt -9.481803 -2.289697
vt -9.875504 -2.289697
vt -10.26921 -1.607787
vt -11.81102 -2.395189
vt 1.968504 3.937008
vt -11.81102 3.937008

usemtl brownDarkest

f 3/3/1 2/2/2 1/1/1
f 2/2/2 3/3/1 4/4/2
f 7/7/3 6/6/3 5/5/3
f 6/6/3 7/7/3 3/8/3
f 3/8/3 7/7/3 4/9/3
f 4/9/3 7/7/3 8/10/3
f 6/13/5 9/12/4 5/11/4
f 9/12/4 6/13/5 10/14/5
f 3/17/1 10/16/5 6/15/5
f 10/16/5 3/17/1 1/18/1
f 13/21/6 12/20/6 11/19/6
f 12/20/6 13/21/6 14/22/6
f 14/22/6 7/23/6 12/20/6
f 7/23/6 14/22/6 8/24/6
f 14/22/6 13/21/6 15/25/6
f 8/24/6 14/22/6 15/25/6
f 15/25/6 13/21/6 16/26/6
f 8/24/6 15/25/6 16/26/6
f 12/29/7 9/28/7 11/27/7
f 9/28/7 12/29/7 5/30/7
f 5/30/7 12/29/7 7/31/7
f 4/34/2 13/33/8 2/32/2
f 13/33/8 4/34/2 16/35/8
f 16/35/8 4/34/2 8/36/8
f 1/39/9 9/38/9 10/37/9
f 9/38/9 1/39/9 11/40/9
f 11/40/9 1/39/9 2/41/9
f 11/40/9 2/41/9 13/42/9

usemtl greyLight

f 18/44/9 16/42/9 17/43/9
f 16/42/9 18/44/9 15/45/9
f 15/45/9 18/44/9 14/46/9
f 14/46/9 18/44/9 12/40/9
f 12/40/9 18/44/9 19/47/9
f 19/47/9 18/44/9 20/48/9
f 19/47/9 20/48/9 21/49/9
f 22/50/9 19/47/9 21/49/9
f 20/48/9 18/44/9 23/51/9
f 19/47/9 22/50/9 24/52/9
f 24/52/9 22/50/9 25/53/9
f 24/52/9 25/53/9 26/54/9
f 23/51/9 18/44/9 27/55/9
f 24/52/9 26/54/9 27/55/9
f 27/55/9 18/44/9 24/52/9
f 24/52/9 18/44/9 28/56/9
f 17/43/3 16/42/3 18/44/3
f 15/45/3 18/44/3 16/42/3
f 14/46/3 18/44/3 15/45/3
f 12/40/3 18/44/3 14/46/3
f 19/47/3 18/44/3 12/40/3
f 20/48/3 18/44/3 19/47/3
f 21/49/3 20/48/3 19/47/3
f 21/49/3 19/47/3 22/50/3
f 23/51/3 18/44/3 20/48/3
f 24/52/3 22/50/3 19/47/3
f 25/53/3 22/50/3 24/52/3
f 26/54/3 25/53/3 24/52/3
f 27/55/3 18/44/3 23/51/3
f 27/55/3 26/54/3 24/52/3
f 24/52/3 18/44/3 27/55/3
f 28/56/3 18/44/3 24/52/3

usemtl white

f 30/58/9 17/43/9 29/57/9
f 17/43/9 30/58/9 18/44/9
f 29/57/3 17/43/3 30/58/3
f 18/44/3 30/58/3 17/43/3

