# Created by Kenney (www.kenney.nl)

mtllib cookieChocolate.mtl

g cookieChocolate

v 0.06062178 0 0.035
v 0 0 0.07
v 0.06062178 0.02 0.035
v 0 0.02 0.07
v -0.06062178 0 0.035
v -0.06062178 0.02 0.035
v 0 0 -0.07
v 0.06062178 0 -0.035
v 0 0.02 -0.07
v 0.06062178 0.02 -0.035
v -0.06062178 0 -0.035
v -0.06062178 0.02 -0.035
v 0 0.04 0.07
v -0.06062178 0.04 0.035
v 0 0.06 0.07
v -0.06062178 0.06 0.035
v -0.06062178 0.04 -0.035
v 0 0.04 -0.07
v -0.06062178 0.06 -0.035
v 0 0.06 -0.07
v 0.06062178 0.04 -0.035
v 0.06062178 0.06 -0.035
v 0.06062178 0.06 0.035
v 0.06062178 0.04 0.035
v 0.04374465 0.05 -0.02525599
v 0.04374465 0.05 0.02525599
v 0 0.05 -0.05051197
v 0 0.05 0.05051197
v -0.04374465 0.05 -0.02525599
v -0.04374465 0.05 0.02525599
v 0.04374465 0 -0.02525599
v 0.04374465 0.01 -0.02525599
v 0.04374465 0 0.02525599
v 0.04374465 0.01 0.02525599
v 0 0.01 0.05051197
v 0 0.01 -0.05051197
v -0.04374465 0.01 0.02525599
v -0.04374465 0.01 -0.02525599
v 0 0 -0.05051197
v 0 0 0.05051197
v -0.04374465 0 0.02525599
v -0.04374465 0 -0.02525599
v -0.04374465 0.06 0.02525599
v 0 0.06 0.05051197
v 0.04374465 0.06 0.02525599
v 0.04374465 0.06 -0.02525599
v 0 0.06 -0.05051197
v -0.04374465 0.06 -0.02525599
v 0.04985352 0.04 0.02878294
v 0.04985352 0.04 -0.02878294
v 0 0.04 0.05756588
v 0 0.04 -0.05756588
v -0.04985352 0.04 0.02878294
v -0.04985352 0.04 -0.02878294
v 0.04985352 0.02 -0.02878294
v 0.04985352 0.02 0.02878294
v 0 0.02 -0.05756588
v 0 0.02 0.05756588
v -0.04985352 0.02 -0.02878294
v -0.04985352 0.02 0.02878294

vn 0.8660254 0 0.5
vn 0 0 1
vn -0.8660254 0 0.5
vn 0 0 -1
vn 0.8660254 0 -0.5
vn -0.8660254 0 -0.5
vn 0 1 0
vn 0 -1 0

vt 1.377953 0
vt -1.377953 0
vt 1.377953 0.7874016
vt -1.377953 0.7874016
vt 1.377953 1.574803
vt -1.377953 1.574803
vt 1.377953 2.362205
vt -1.377953 2.362205
vt -1.72223 -0.9943302
vt -1.72223 0.9943302
vt 0 -1.98866
vt 0 1.98866
vt 1.72223 -0.9943302
vt 1.72223 0.9943302
vt -0.9943302 0
vt -0.9943302 0.3937008
vt 0.9943302 0
vt 0.9943302 0.3937008
vt 0.9943302 1.968504
vt -0.9943302 1.968504
vt 0.9943302 2.362205
vt -0.9943302 2.362205
vt 2.386684 -1.377953
vt 1.962737 1.133187
vt 2.386684 1.377953
vt 0 2.755906
vt 1.962737 -1.133187
vt 0 2.266373
vt 0 -2.755906
vt 0 -2.266373
vt -2.386684 1.377953
vt -1.962737 1.133187
vt -1.962737 -1.133187
vt -2.386684 -1.377953

usemtl brownDarkest

f 3/3/1 2/2/2 1/1/1
f 2/2/2 3/3/1 4/4/2
f 4/3/2 5/2/3 2/1/2
f 5/2/3 4/3/2 6/4/3
f 9/3/4 8/2/5 7/1/4
f 8/2/5 9/3/4 10/4/5
f 3/4/1 8/1/5 10/3/5
f 8/1/5 3/4/1 1/2/1
f 12/3/6 7/2/4 11/1/6
f 7/2/4 12/3/6 9/4/4
f 15/7/2 14/6/3 13/5/2
f 14/6/3 15/7/2 16/8/3
f 19/7/6 18/6/4 17/5/6
f 18/6/4 19/7/6 20/8/4
f 20/7/4 21/6/5 18/5/4
f 21/6/5 20/7/4 22/8/5
f 23/8/1 21/5/5 22/7/5
f 21/5/5 23/8/1 24/6/1
f 14/5/3 19/8/6 17/6/6
f 19/8/6 14/5/3 16/7/3
f 23/7/1 13/6/2 24/5/1
f 13/6/2 23/7/1 15/8/2
f 27/11/7 26/10/7 25/9/7
f 26/10/7 27/11/7 28/12/7
f 28/12/7 27/11/7 29/13/7
f 28/12/7 29/13/7 30/14/7
f 5/1/3 12/4/6 11/2/6
f 12/4/6 5/1/3 6/3/3
f 33/17/6 32/16/3 31/15/3
f 32/16/3 33/17/6 34/18/6
f 35/12/8 32/13/8 34/14/8
f 32/13/8 35/12/8 36/11/8
f 36/11/8 35/12/8 37/10/8
f 36/11/8 37/10/8 38/9/8
f 32/18/3 39/15/2 31/17/3
f 39/15/2 32/18/3 36/16/2
f 35/18/4 33/15/6 40/17/4
f 33/15/6 35/18/4 34/16/6
f 37/18/5 40/15/4 41/17/5
f 40/15/4 37/18/5 35/16/4
f 37/16/5 42/17/1 38/18/1
f 42/17/1 37/16/5 41/15/5
f 36/18/2 42/15/1 39/17/2
f 42/15/1 36/18/2 38/16/1
f 43/21/5 28/20/4 30/19/5
f 28/20/4 43/21/5 44/22/4
f 44/21/4 26/20/6 28/19/4
f 26/20/6 44/21/4 45/22/6
f 26/19/6 46/22/3 25/20/3
f 46/22/3 26/19/6 45/21/6
f 46/21/3 27/20/2 25/19/3
f 27/20/2 46/21/3 47/22/2
f 43/22/5 29/19/1 48/21/1
f 29/19/1 43/22/5 30/20/5
f 47/21/2 29/20/1 27/19/2
f 29/20/1 47/21/2 48/22/1
f 24/25/8 49/24/8 21/23/8
f 49/24/8 24/25/8 13/26/8
f 50/27/8 21/23/8 49/24/8
f 49/24/8 13/26/8 51/28/8
f 21/23/8 50/27/8 18/29/8
f 18/29/8 50/27/8 52/30/8
f 51/28/8 13/26/8 14/31/8
f 51/28/8 14/31/8 53/32/8
f 18/29/8 52/30/8 54/33/8
f 53/32/8 14/31/8 54/33/8
f 18/29/8 54/33/8 17/34/8
f 17/34/8 54/33/8 14/31/8
f 40/12/8 5/31/8 41/10/8
f 41/10/8 5/31/8 42/9/8
f 40/12/8 2/26/8 5/31/8
f 11/34/8 42/9/8 5/31/8
f 33/14/8 2/26/8 40/12/8
f 33/14/8 1/25/8 2/26/8
f 1/25/8 33/14/8 8/23/8
f 31/13/8 8/23/8 33/14/8
f 7/29/8 42/9/8 11/34/8
f 8/23/8 31/13/8 7/29/8
f 7/29/8 39/11/8 42/9/8
f 7/29/8 31/13/8 39/11/8
f 47/11/7 19/23/7 48/13/7
f 48/13/7 19/23/7 43/14/7
f 47/11/7 20/29/7 19/23/7
f 16/25/7 43/14/7 19/23/7
f 46/9/7 20/29/7 47/11/7
f 46/9/7 22/34/7 20/29/7
f 22/34/7 46/9/7 23/31/7
f 45/10/7 23/31/7 46/9/7
f 15/26/7 43/14/7 16/25/7
f 23/31/7 45/10/7 15/26/7
f 15/26/7 44/12/7 43/14/7
f 15/26/7 45/10/7 44/12/7
f 10/34/7 55/33/7 3/31/7
f 55/33/7 10/34/7 9/29/7
f 56/32/7 3/31/7 55/33/7
f 55/33/7 9/29/7 57/30/7
f 3/31/7 56/32/7 4/26/7
f 4/26/7 56/32/7 58/28/7
f 57/30/7 9/29/7 12/23/7
f 57/30/7 12/23/7 59/27/7
f 4/26/7 58/28/7 60/24/7
f 59/27/7 12/23/7 60/24/7
f 4/26/7 60/24/7 6/25/7
f 6/25/7 60/24/7 12/23/7

usemtl _defaultMat

f 54/34/6 57/33/4 59/31/6
f 57/34/4 54/33/6 52/31/4
f 49/34/1 55/33/5 50/31/5
f 55/34/5 49/33/1 56/31/1
f 52/34/4 55/33/5 57/31/4
f 55/34/5 52/33/4 50/31/5
f 51/34/2 60/33/3 58/31/2
f 60/34/3 51/33/2 53/31/3
f 60/34/3 54/33/6 59/31/6
f 54/34/6 60/33/3 53/31/3
f 49/34/1 58/33/2 56/31/1
f 58/34/2 49/33/1 51/31/2

