# Created by Kenney (www.kenney.nl)

mtllib cookingSpatula.mtl

g cookingSpatula

v 0.3161362 0 0.03248807
v 0.3413362 0 1.443823E-15
v 0.3161362 0 -0.03248807
v 0.3161362 0.02 -0.03248807
v 0.3413362 0.02 1.443823E-15
v 0.3161362 0.02 0.03248807
v 0.09442633 0.0022 -0.0253407
v 0.09442633 0.0178 -0.0253407
v 0.09442633 0.0022 0.0253407
v 0.09442633 0.0178 0.0253407
v -0.109514 0.01 -0.07260507
v -0.109514 0.01 -0.01248807
v -0.1311459 0.01579623 -0.095
v -0.109514 0.01 0.01248807
v -0.109514 0.01 0.07260507
v -0.1311459 0.01579623 0.095
v -0.144345 0.01933292 -0.06244035
v -0.3197044 0.06632033 -0.095
v -0.3065053 0.06278365 -0.06244035
v -0.3065053 0.06278365 -0.03746422
v -0.144345 0.01933292 0.06244035
v -0.144345 0.01933292 -0.03746422
v -0.3197044 0.06632033 0.095
v -0.144345 0.01933292 -0.01248807
v -0.3065053 0.06278365 -0.01248807
v -0.144345 0.01933292 0.01248807
v -0.3065053 0.06278365 0.01248807
v -0.144345 0.01933292 0.03746422
v -0.3065053 0.06278365 0.03746422
v -0.3065053 0.06278365 0.06244035
v -0.3413362 0.07211657 -0.07260507
v -0.3413362 0.07211657 0.07260507
v 0.09442633 0.01 -0.02248807
v 0.09442633 0.01 0.02248807

vn -0.006944669 -0.9999759 0
vn 0 -1 0
vn -0.006944669 0.9999759 0
vn 0 1 0
vn -1 0 0
vn 1 0 0
vn 0.7901589 0 0.612902
vn -0.009922388 -0.9999508 0
vn -0.009922388 0.9999508 0
vn -0.03222078 0 0.9994808
vn -0.03222078 0 -0.9994808
vn 0.7901589 0 -0.612902
vn 0.258819 0.9659258 0
vn -0.258819 -0.9659258 0

vt 12.44631 1.279058
vt 13.43843 5.684342E-14
vt 12.44631 -1.279058
vt -12.44631 -1.279058
vt -13.43843 5.684342E-14
vt -12.44631 1.279058
vt -0.9976652 0.08661418
vt -0.9976652 0.7007874
vt 0.9976652 0.08661418
vt 0.9976652 0.7007874
vt 8.236444 0.7874016
vt 8.236444 0
vt 6.617708 0.7874016
vt 6.617708 0
vt 1.279058 -12.4457
vt -1.279058 -12.4457
vt 0.9976652 -3.71653
vt -0.9976652 -3.71653
vt -1.279058 12.45351
vt 1.279058 12.45351
vt -0.9976652 3.724342
vt 0.9976652 3.724342
vt 12.48106 -1.542555E-18
vt 3.747787 0.08661418
vt 12.48106 0.7874016
vt 3.747787 0.7007874
vt -12.48106 -1.542555E-18
vt -12.48106 0.7874016
vt -3.747787 0.08661418
vt -3.747787 0.7007874
vt -6.617708 0.7874016
vt -6.617708 0
vt -8.236444 0.7874016
vt -8.236444 0
vt 2.858467 4.26656
vt 0.4916564 4.26656
vt 3.740157 5.14825
vt -0.4916564 4.26656
vt -2.858467 4.26656
vt -3.740157 5.14825
vt 2.458282 5.686231
vt 3.740157 12.83369
vt 2.458282 12.29571
vt 1.474969 12.29571
vt -2.458282 5.686231
vt 1.474969 5.686231
vt -3.740157 12.83369
vt 0.4916564 5.686231
vt 0.4916564 12.29571
vt -0.4916564 5.686231
vt -0.4916564 12.29571
vt -1.474969 5.686231
vt -1.474969 12.29571
vt -2.458282 12.29571
vt 2.858467 13.71538
vt -2.858467 13.71538
vt -3.717572 -0.8853571
vt -3.717572 0.8853571
vt 4.311576 -0.4916564
vt 4.311576 0.4916564

usemtl brown

f 3/3/1 2/2/2 1/1/1
f 6/6/3 5/5/4 4/4/3
f 9/9/5 8/8/5 7/7/5
f 8/8/5 9/9/5 10/10/5
f 6/13/7 2/12/6 5/11/6
f 2/12/6 6/13/7 1/14/7
f 9/17/8 3/16/1 1/15/1
f 3/16/1 9/17/8 7/18/8
f 8/21/9 6/20/3 4/19/3
f 6/20/3 8/21/9 10/22/9
f 6/25/10 9/24/10 1/23/10
f 9/24/10 6/25/10 10/26/10
f 7/29/11 4/28/11 3/27/11
f 4/28/11 7/29/11 8/30/11
f 5/33/6 3/32/12 4/31/12
f 3/32/12 5/33/6 2/34/6

usemtl white

f 13/37/13 12/36/13 11/35/13
f 12/36/13 13/37/13 14/38/13
f 14/38/13 13/37/13 15/39/13
f 15/39/13 13/37/13 16/40/13
f 16/40/13 13/37/13 17/41/13
f 17/41/13 13/37/13 18/42/13
f 17/41/13 18/42/13 19/43/13
f 19/43/13 18/42/13 20/44/13
f 21/45/13 16/40/13 17/41/13
f 21/45/13 17/41/13 22/46/13
f 16/40/13 21/45/13 23/47/13
f 20/44/13 24/48/13 22/46/13
f 21/45/13 22/46/13 24/48/13
f 24/48/13 20/44/13 25/49/13
f 20/44/13 18/42/13 25/49/13
f 21/45/13 24/48/13 26/50/13
f 25/49/13 18/42/13 27/51/13
f 21/45/13 26/50/13 28/52/13
f 27/51/13 28/52/13 26/50/13
f 28/52/13 27/51/13 29/53/13
f 27/51/13 18/42/13 29/53/13
f 29/53/13 18/42/13 30/54/13
f 23/47/13 21/45/13 30/54/13
f 23/47/13 30/54/13 18/42/13
f 23/47/13 18/42/13 31/55/13
f 23/47/13 31/55/13 32/56/13
f 11/35/14 12/36/14 13/37/14
f 14/38/14 13/37/14 12/36/14
f 15/39/14 13/37/14 14/38/14
f 16/40/14 13/37/14 15/39/14
f 17/41/14 13/37/14 16/40/14
f 18/42/14 13/37/14 17/41/14
f 19/43/14 18/42/14 17/41/14
f 20/44/14 18/42/14 19/43/14
f 17/41/14 16/40/14 21/45/14
f 22/46/14 17/41/14 21/45/14
f 23/47/14 21/45/14 16/40/14
f 22/46/14 24/48/14 20/44/14
f 24/48/14 22/46/14 21/45/14
f 25/49/14 20/44/14 24/48/14
f 25/49/14 18/42/14 20/44/14
f 26/50/14 24/48/14 21/45/14
f 27/51/14 18/42/14 25/49/14
f 28/52/14 26/50/14 21/45/14
f 26/50/14 28/52/14 27/51/14
f 29/53/14 27/51/14 28/52/14
f 29/53/14 18/42/14 27/51/14
f 30/54/14 18/42/14 29/53/14
f 30/54/14 21/45/14 23/47/14
f 18/42/14 30/54/14 23/47/14
f 31/55/14 18/42/14 23/47/14
f 32/56/14 31/55/14 23/47/14
f 12/59/4 34/58/4 33/57/4
f 34/58/4 12/59/4 14/60/4
f 33/57/2 34/58/2 12/59/2
f 14/60/2 12/59/2 34/58/2

