# Created by Kenney (www.kenney.nl)

mtllib cookingSpoon.mtl

g cookingSpoon

v 0.3075984 0.0044 0.03248807
v -0.1180518 0.0144 0.0253407
v 0.3075984 0.0244 0.03248807
v 0.3327984 0.0044 0
v 0.3075984 0.0044 -0.03248807
v -0.1180518 0.0144 -0.0253407
v 0.3075984 0.0244 -0.03248807
v 0.3327984 0.0244 0
v -0.1549461 0 -0.02016244
v -0.1549461 0 0.02016244
v -0.1915419 0 -0.04129101
v -0.1915419 0 0.04129101
v -0.2671041 0 -0.01796164
v -0.2671041 0 0.01796164
v -0.3327984 0.0144 -0.0432
v -0.3327984 0.0144 0.0432
v -0.1180518 0.0144 0.0432
v -0.1928764 0.0144 0.0864
v -0.1928764 0.0144 -0.0864
v -0.1180518 0.0144 -0.0432
v -0.1180518 0.0144 -0.01876393
v -0.1180518 0.0144 0.01876393

vn -0.0167893 0 0.9998591
vn -0.01648846 -0.9998641 0
vn 0 -1 0
vn -0.0167893 0 -0.9998591
vn -0.01648846 0.9998641 0
vn 0 1 0
vn 0.1481496 0.9742063 0.1702168
vn 0.1481496 0.9742063 -0.1702168
vn 0.1721186 0.978861 0.1104824
vn 0.1721186 0.978861 -0.1104824
vn -0.1721186 -0.978861 -0.1104824
vn -0.1481496 -0.9742063 0.1702168
vn -0.1481496 -0.9742063 -0.1702168
vn -0.1721186 -0.978861 0.1104824
vn -0.2711225 0.9492927 -0.1591726
vn -0.02646701 0.9520769 -0.3047115
vn -0.2754877 0.9491925 -0.1521191
vn -0.05102991 0.9509583 -0.3050811
vn 0.2754877 -0.9491925 0.1521191
vn 0.02646701 -0.9520769 0.3047115
vn 0.2711225 -0.9492927 0.1591726
vn 0.05102991 -0.9509583 0.3050811
vn -0.05102991 0.9509583 0.3050811
vn -0.02646701 0.9520769 0.3047115
vn 0.02646701 -0.9520769 -0.3047115
vn 0.05102991 -0.9509583 -0.3050811
vn -0.2711225 0.9492927 0.1591726
vn -0.2754877 0.9491925 0.1521191
vn 0.2754877 -0.9491925 -0.1521191
vn 0.2711225 -0.9492927 -0.1591726
vn -0.3635915 0.9315585 0
vn 0.3635915 -0.9315585 0
vn -0.02348698 -0.9997241 0
vn 0.7901589 0 -0.612902
vn 1 0 0
vn 0.7901589 0 0.612902
vn -0.02348698 0.9997241 0

vt 12.12994 0.1732284
vt -4.630305 0.5669292
vt 12.12994 0.9606299
vt 12.11017 1.279058
vt 13.1023 0
vt 12.11017 -1.279058
vt 4.630305 0.5669292
vt -12.12994 0.1732284
vt -12.12994 0.9606299
vt -12.11017 -1.279058
vt -13.1023 0
vt -12.11017 1.279058
vt 6.10024 -0.7937968
vt 6.10024 0.7937968
vt 7.541018 -1.62563
vt 7.541018 1.62563
vt 10.51591 -0.7071512
vt 10.51591 0.7071512
vt 0.7071512 10.27203
vt -0.7071512 10.27203
vt 1.700787 12.91983
vt -1.700787 12.91983
vt 4.875429 -0.597676
vt 8.277003 -0.597676
vt 5.679862 -2.212226
vt 7.343528 -2.212226
vt -6.725848 3.586465
vt -9.839302 3.586465
vt -6.252143 5.390281
vt -12.01746 5.390281
vt -4.875429 -0.597676
vt -5.679862 -2.212226
vt -8.277003 -0.597676
vt -7.343528 -2.212226
vt 6.725848 3.586465
vt 6.252143 5.390281
vt 9.839302 3.586465
vt 12.01746 5.390281
vt -1.700787 -4.123483
vt -0.9976652 -4.123483
vt -0.7937968 -5.682731
vt -0.7387373 -4.123483
vt 0.7387373 -4.123483
vt 0.9976652 -4.123483
vt 1.700787 -4.123483
vt 0.7937968 -5.682731
vt 1.279058 -12.10277
vt -1.279058 -12.10277
vt 0.9976652 4.659743
vt -0.9976652 4.659743
vt 0.7387373 4.659743
vt -0.7387373 4.659743
vt -6.411691 0.9606299
vt -6.411691 0.1732284
vt -8.030426 0.9606299
vt -8.030426 0.1732284
vt 8.030426 0.9606299
vt 8.030426 0.1732284
vt 6.411691 0.9606299
vt 6.411691 0.1732284
vt -1.279058 12.1294
vt 1.279058 12.1294
vt -0.9976652 -4.633112
vt 0.9976652 -4.633112
vt -0.7387373 -4.633112
vt 0.7387373 -4.633112

usemtl brown

f 3/3/1 2/2/1 1/1/1
f 5/6/2 4/5/3 1/4/2
f 7/9/4 5/8/4 6/7/4
f 3/12/5 8/11/6 7/10/5
f 11/15/6 10/14/6 9/13/6
f 10/14/6 11/15/6 12/16/6
f 12/16/6 11/15/6 13/17/6
f 12/16/6 13/17/6 14/18/6
f 9/13/3 10/14/3 11/15/3
f 12/16/3 11/15/3 10/14/3
f 13/17/3 11/15/3 12/16/3
f 14/18/3 13/17/3 12/16/3
f 15/21/9 14/20/8 13/19/7
f 14/20/8 15/21/9 16/22/10
f 13/19/13 14/20/12 15/21/11
f 16/22/14 15/21/11 14/20/12
f 10/25/17 18/24/16 17/23/15
f 18/24/16 10/25/17 12/26/18
f 17/23/21 18/24/20 10/25/19
f 12/26/22 10/25/19 18/24/20
f 19/29/24 13/28/7 11/27/23
f 13/28/7 19/29/24 15/30/9
f 11/27/26 13/28/13 19/29/25
f 15/30/11 19/29/25 13/28/13
f 19/33/24 9/32/28 20/31/27
f 9/32/28 19/33/24 11/34/23
f 20/31/30 9/32/29 19/33/25
f 11/34/26 19/33/25 9/32/29
f 14/37/8 18/36/16 12/35/18
f 18/36/16 14/37/8 16/38/10
f 12/35/22 18/36/20 14/37/12
f 16/38/14 14/37/12 18/36/20
f 9/41/28 6/40/31 20/39/27
f 6/40/31 9/41/28 21/42/31
f 21/42/31 9/41/28 22/43/31
f 22/43/31 9/41/28 2/44/31
f 2/44/31 9/41/28 17/45/15
f 17/45/15 9/41/28 10/46/17
f 20/39/30 6/40/32 9/41/29
f 21/42/32 9/41/29 6/40/32
f 22/43/32 9/41/29 21/42/32
f 2/44/32 9/41/29 22/43/32
f 17/45/21 9/41/29 2/44/32
f 10/46/19 9/41/29 17/45/21
f 2/49/33 5/48/2 1/47/2
f 5/48/2 2/49/33 6/50/33
f 6/50/33 2/49/33 22/51/33
f 6/50/33 22/51/33 21/52/33
f 8/55/35 5/54/34 7/53/34
f 5/54/34 8/55/35 4/56/35
f 3/59/36 4/58/35 8/57/35
f 4/58/35 3/59/36 1/60/36
f 6/63/37 3/62/5 7/61/5
f 3/62/5 6/63/37 2/64/37
f 2/64/37 6/63/37 21/65/37
f 2/64/37 21/65/37 22/66/37

