# Created by Kenney (www.kenney.nl)

mtllib cookie.mtl

g cookie

v -0.03877888 0.039816 -0.04245055
v -0.03877888 0.04977 -0.04245055
v -0.02617888 0.039816 -0.02062672
v 0.04736066 0.039816 0.02228307
v 0.02954157 0.039816 0.004463979
v 0.04736066 0.04977 0.02228307
v -0.01695504 0.04977 -0.05505056
v -0.01695504 0.039816 -0.05505056
v -0.004355041 0.039816 -0.03322671
v -0.006880338 0.039816 0.03675627
v -0.02469943 0.039816 0.05457536
v -0.02469943 0.04977 0.05457536
v -0.04251852 0.039816 0.03675627
v -0.02469943 0.039816 0.01893718
v -0.04251852 0.04977 0.03675627
v 0.06517975 0.04977 0.004463979
v 0.04736066 0.039816 -0.01335511
v 0.06517975 0.039816 0.004463979
v -0.09119376 0.039816 0
v -0.04559688 0.039816 -0.07897612
v -0.04559688 0.039816 0.07897612
v 0.04559688 0.039816 0.07897612
v 0.09119376 0.039816 0
v 0.04559688 0.039816 -0.07897612
v 0.054936 0.019908 -0.09515195
v 0.0504 0 -0.08729536
v 0.109872 0.019908 0
v 0.1008 0 0
v 0.054936 0.019908 0.09515195
v 0.0504 0 0.08729536
v -0.054936 0.019908 -0.09515195
v -0.109872 0.019908 0
v -0.0504 0 0.08729536
v -0.054936 0.019908 0.09515195
v -0.1008 0 0
v -0.0504 0 -0.08729536

vn -0.8660254 0 0.5
vn -0.7071068 0 0.7071068
vn 0.8660254 0 -0.5
vn 0.7071068 0 0.7071068
vn -0.7071068 0 -0.7071068
vn 0.7071068 0 -0.7071068
vn 0.3976876 0.8268549 0.3976876
vn -0.2597756 0.9300716 -0.2597756
vn -0.3976876 0.8268549 0.3976876
vn -0.5 0 -0.8660254
vn -0.2812076 0.8268549 -0.4870659
vn 0.1836891 0.9300716 0.318159
vn 0.2597756 0.9300716 -0.2597756
vn 0 1 0
vn 0.4549858 -0.4146706 -0.7880585
vn 0.9099716 -0.4146706 0
vn 0.4549858 -0.4146706 0.7880585
vn -0.3646362 0.6842236 -0.6315683
vn -0.7292723 0.6842236 0
vn -0.4549858 -0.4146706 0.7880585
vn -0.9099716 -0.4146706 0
vn 0.3646362 0.6842236 -0.6315683
vn -0.4549858 -0.4146706 -0.7880585
vn -0.3646362 0.6842236 0.6315683
vn 0 -1 0
vn 0.3646362 0.6842236 0.6315683
vn 0.7292723 0.6842236 0

vt -2.210736 1.567559
vt -2.210736 1.959449
vt -1.21861 1.567559
vt 1.938801 1.567559
vt 0.9466753 1.567559
vt 1.938801 1.959449
vt 2.210736 1.959449
vt 2.210736 1.567559
vt 1.21861 1.567559
vt -1.214793 1.567559
vt -2.206919 1.567559
vt -2.206919 1.959449
vt 2.206919 1.567559
vt 1.214793 1.567559
vt 2.206919 1.959449
vt -1.938801 1.959449
vt -0.9466753 1.567559
vt -1.938801 1.567559
vt 1.690257 1.567559
vt 0.6981313 1.567559
vt 1.690257 1.959449
vt 0.6981313 1.959449
vt -1.690257 2.523083
vt -0.6981313 2.523083
vt -1.690257 1.456363
vt -0.6981313 1.456363
vt -0.1604142 1.567559
vt -0.1604142 1.959449
vt 0.8317117 1.567559
vt 0.8317117 1.959449
vt 0.486544 1.567559
vt -0.5055819 1.567559
vt 0.486544 1.959449
vt -0.5055819 1.959449
vt 0.5055819 1.709282
vt -0.486544 1.709282
vt 0.5055819 2.776002
vt -0.486544 2.776002
vt -0.8317117 1.705732
vt -0.8317117 2.772452
vt 0.1604142 1.705732
vt 0.1604142 2.772452
vt 3.590306 0
vt 1.795153 -3.109296
vt 1.795153 3.109296
vt 1.673957 1.447097
vt 0.9724185 2.148636
vt 0.2708794 1.447097
vt -1.163054 0.1757472
vt -1.795153 3.109296
vt -1.864593 0.8772862
vt -2.566132 0.1757472
vt -3.590306 0
vt -1.795153 -3.109296
vt -1.864593 -0.5257918
vt 0.6675213 -2.167345
vt 1.526728 -1.671282
vt 0.1714583 -1.308138
vt 1.030665 -0.8120754
vt 0.9724184 0.7455584
vt 2.162835 2.104238
vt 1.984252 1.261632
vt -2.162835 2.104238
vt -1.984252 1.261632
vt -2.162835 -1.754045
vt -1.795153 -0.7441542
vt 2.162835 -1.754045
vt 1.795153 -0.7441542
vt 3.968504 0
vt 1.984252 -3.436825
vt 1.984252 3.436825
vt -1.984252 3.436825
vt -1.984252 -3.436825
vt -3.968504 0

usemtl brownDark

f 3/3/1 2/2/1 1/1/1
f 6/6/2 5/5/2 4/4/2
f 9/9/3 8/8/3 7/7/3
f 12/12/4 11/11/4 10/10/4
f 15/15/5 14/14/5 13/13/5
f 18/18/6 17/17/6 16/16/6
f 16/21/7 4/20/4 18/19/4
f 4/20/4 16/21/7 6/22/7
f 17/25/8 6/24/7 16/23/7
f 6/24/7 17/25/8 5/26/8
f 11/29/2 15/28/9 13/27/2
f 15/28/9 11/29/2 12/30/9
f 2/33/11 8/32/10 1/31/10
f 8/32/10 2/33/11 7/34/11
f 7/37/11 3/36/12 9/35/12
f 3/36/12 7/37/11 2/38/11
f 14/41/13 12/40/9 10/39/13
f 12/40/9 14/41/13 15/42/9

usemtl brown

f 21/45/14 20/44/14 19/43/14
f 21/45/14 13/46/14 20/44/14
f 21/45/14 11/47/14 13/46/14
f 21/45/14 10/48/14 11/47/14
f 21/45/14 5/49/14 10/48/14
f 22/50/14 5/49/14 21/45/14
f 22/50/14 4/51/14 5/49/14
f 22/50/14 18/52/14 4/51/14
f 18/52/14 22/50/14 23/53/14
f 24/54/14 18/52/14 23/53/14
f 18/52/14 24/54/14 17/55/14
f 17/55/14 24/54/14 5/49/14
f 8/56/14 24/54/14 20/44/14
f 5/49/14 24/54/14 8/56/14
f 8/56/14 20/44/14 1/57/14
f 1/57/14 20/44/14 13/46/14
f 5/49/14 8/56/14 9/58/14
f 10/48/14 5/49/14 9/58/14
f 13/46/14 3/59/14 1/57/14
f 3/59/14 10/48/14 9/58/14
f 14/60/14 3/59/14 13/46/14
f 10/48/14 3/59/14 14/60/14
f 27/63/16 26/62/15 25/61/15
f 26/62/15 27/63/16 28/64/16
f 29/63/17 28/62/16 27/61/16
f 28/62/16 29/63/17 30/64/17
f 32/67/19 20/66/18 31/65/18
f 20/66/18 32/67/19 19/68/19
f 29/61/17 33/64/20 30/62/17
f 33/64/20 29/61/17 34/63/20
f 33/62/20 32/63/21 35/64/21
f 32/63/21 33/62/20 34/61/20
f 20/68/18 25/65/22 31/67/18
f 25/65/22 20/68/18 24/66/22
f 31/61/23 26/64/15 36/62/23
f 26/64/15 31/61/23 25/63/15
f 34/67/24 19/66/19 32/65/19
f 19/66/19 34/67/24 21/68/24
f 30/71/25 26/70/25 28/69/25
f 26/70/25 30/71/25 33/72/25
f 26/70/25 33/72/25 36/73/25
f 36/73/25 33/72/25 35/74/25
f 22/68/26 34/65/24 29/67/26
f 34/65/24 22/68/26 21/66/24
f 24/68/22 27/65/27 25/67/22
f 27/65/27 24/68/22 23/66/27
f 36/64/23 32/61/21 31/63/23
f 32/61/21 36/64/23 35/62/21
f 22/66/26 27/67/27 23/68/27
f 27/67/27 22/66/26 29/65/26

