# Created by Kenney (www.kenney.nl)

mtllib cornDog.mtl

g cornDog

v 0.192196 0.04150128 0.01999999
v 0.182196 0.04150128 0.009999996
v 0.192196 0.05250128 0.01999999
v 0.182196 0.05250128 0.009999996
v 0.302196 0.04150128 0.01999999
v 0.302196 0.04150128 -0.01000001
v -0.294504 0.04150128 -0.009999997
v -0.294504 0.04150128 0.01
v 0.302196 0.05250128 0.01999999
v 0.302196 0.05250128 -0.01000001
v -0.294504 0.05250128 -0.009999997
v -0.294504 0.05250128 0.01

vn -0.3826834 0 0.9238795
vn 0 -1 0
vn 0 1 0
vn 0 0 1
vn 1 0 0
vn 0 0 -1
vn -1 0 0

vt 5.907292 1.633909
vt 5.350515 1.633909
vt 5.907292 2.066979
vt 5.350515 2.066979
vt 11.89748 0.7874013
vt 11.89748 -0.393701
vt 7.566772 0.7874014
vt 7.173071 0.3937006
vt -11.59465 -0.3937007
vt -11.59465 0.3937009
vt -11.89748 0.7874013
vt -7.566772 0.7874014
vt -11.89748 -0.393701
vt -7.173071 0.3937006
vt 11.59465 -0.3937007
vt 11.59465 0.3937009
vt 11.89748 1.633909
vt 7.566772 1.633909
vt 11.89748 2.066979
vt 7.566772 2.066979
vt 0.3937008 2.066979
vt 0.3937008 1.633909
vt -0.7874015 2.066979
vt -0.7874015 1.633909
vt 7.173071 1.633909
vt -11.59465 1.633909
vt 7.173071 2.066979
vt -11.59465 2.066979
vt 11.59465 1.633909
vt -11.89748 1.633909
vt 11.59465 2.066979
vt -11.89748 2.066979
vt -0.3937008 1.633909
vt -0.3937008 2.066979
vt 0.3937007 1.633909
vt 0.3937007 2.066979

usemtl brownLight

f 3/3/1 2/2/1 1/1/1
f 2/2/1 3/3/1 4/4/1
f 1/7/2 6/6/2 5/5/2
f 6/6/2 1/7/2 2/8/2
f 6/6/2 2/8/2 7/9/2
f 7/9/2 2/8/2 8/10/2
f 10/13/3 3/12/3 9/11/3
f 3/12/3 10/13/3 4/14/3
f 4/14/3 10/13/3 11/15/3
f 4/14/3 11/15/3 12/16/3
f 9/19/4 1/18/1 5/17/4
f 1/18/1 9/19/4 3/20/1
f 9/23/5 6/22/5 10/21/5
f 6/22/5 9/23/5 5/24/5
f 4/27/1 8/26/4 2/25/1
f 8/26/4 4/27/1 12/28/4
f 11/31/6 6/30/6 7/29/6
f 6/30/6 11/31/6 10/32/6
f 8/35/7 11/34/7 7/33/7
f 11/34/7 8/35/7 12/36/7

g dog

v 0.100988 0.01342894 -0.01938297
v 0.100988 0.01342894 0.01938303
v 0.100988 0.04700128 -0.03876597
v 0.100988 0.04700128 0.03876603
v 0.100988 0.08057362 -0.01938297
v 0.100988 0.08057362 0.01938303
v 0.054396 0.04700128 0.05427242
v 0.05439602 5.639933E-18 0.02713622
v 0.05439602 5.639933E-18 -0.02713619
v 0.05439603 0.04700128 -0.0542724
v 0.05439602 0.09400255 -0.02713619
v 0.05439602 0.09400255 0.02713622
v -0.255604 0.09400255 0.02713619
v -0.255604 0.09400255 -0.02713622
v -0.255604 0.04700128 -0.05427242
v -0.255604 5.639933E-18 -0.02713622
v -0.255604 5.639933E-18 0.02713619
v -0.255604 0.04700128 0.0542724
v -0.302196 0.01342894 0.01938297
v -0.302196 0.01342894 -0.01938303
v -0.302196 0.08057362 0.01938297
v -0.302196 0.08057362 -0.01938303
v -0.302196 0.04700128 -0.03876603
v -0.302196 0.04700128 0.03876597

vn 1.654016 0 2.384186E-07
vn 0.6482415 0 1.188823
vn 0.6482415 -1.029551 0.5944117
vn 0.6482416 -1.029551 -0.5944116
vn 0.6482417 0 -1.188823
vn 0.6482416 1.029551 -0.5944116
vn 0.6482415 1.029551 0.5944117
vn -5.960464E-08 1.119078 0.6461
vn 5.960464E-08 1.119078 -0.6461
vn 1.192093E-07 0 -1.2922
vn 5.960464E-08 -1.119078 -0.6461
vn -5.960464E-08 -1.119078 0.6461
vn -1.192093E-07 0 1.2922
vn -0.6482416 -1.029551 0.5944116
vn -0.6482415 -1.029551 -0.5944117
vn -0.6482416 1.029551 0.5944116
vn -0.6482415 1.029551 -0.5944117
vn -0.6482415 0 -1.188823
vn -0.6482417 0 1.188823
vn -1.654016 0 -2.384186E-07

vt 0.5905512 0.4091459
vt -0.5905512 0.4091459
vt 1.181102 1.432011
vt -1.181102 1.432011
vt 0.5905512 2.454875
vt -0.5905512 2.454875
vt 3.951663 2.656582
vt 4.183111 1.498379
vt 2.746209 2.656582
vt 3.070237 1.035098
vt -0.8267717 3.461375
vt -0.5905512 4.643457
vt 0.8267717 3.461375
vt 0.5905512 4.643457
vt -4.183111 1.498379
vt -3.951663 2.656582
vt -3.070237 1.035098
vt -2.746209 2.656582
vt -3.951663 -0.1272277
vt -4.183111 1.030975
vt -2.746209 -0.1272277
vt -3.070237 1.494257
vt -0.8267717 -2.470071
vt 0.8267717 -2.470071
vt -0.5905512 -3.652153
vt 0.5905512 -3.652153
vt 4.183111 1.030975
vt 3.951663 -0.1272277
vt 3.070237 1.494257
vt 2.746209 -0.1272277
vt -0.8267717 3.689421
vt 0.8267717 3.689421
vt -0.8267717 -3.689421
vt 0.8267717 -3.689421
vt -3.689421 0.4133858
vt -3.689421 2.066929
vt 3.689421 0.4133858
vt 3.689421 2.066929

usemtl brownDark

f 15/39/8 14/38/8 13/37/8
f 14/38/8 15/39/8 16/40/8
f 16/40/8 15/39/8 17/41/8
f 16/40/8 17/41/8 18/42/8
f 19/45/9 14/44/10 16/43/9
f 14/44/10 19/45/9 20/46/10
f 21/49/11 14/48/10 20/47/10
f 14/48/10 21/49/11 13/50/11
f 21/53/11 15/52/12 13/51/11
f 15/52/12 21/53/11 22/54/12
f 22/57/12 17/56/13 15/55/12
f 17/56/13 22/57/12 23/58/13
f 18/61/14 23/60/13 24/59/14
f 23/60/13 18/61/14 17/62/13
f 24/65/14 16/64/9 18/63/14
f 16/64/9 24/65/14 19/66/9
f 24/69/15 26/68/16 25/67/15
f 26/68/16 24/69/15 23/70/16
f 27/73/17 23/72/16 22/71/17
f 23/72/16 27/73/17 26/74/16
f 28/73/18 22/72/17 21/71/18
f 22/72/17 28/73/18 27/74/17
f 28/67/18 20/70/19 29/68/19
f 20/70/19 28/67/18 21/69/18
f 19/74/20 29/71/19 20/73/19
f 29/71/19 19/74/20 30/72/20
f 25/72/15 19/73/20 24/74/15
f 19/73/20 25/72/15 30/71/20
f 31/50/21 28/47/22 29/49/21
f 28/47/22 31/50/21 32/48/22
f 26/59/24 33/62/23 25/60/23
f 33/62/23 26/59/24 34/61/24
f 35/64/25 26/65/24 27/66/25
f 26/65/24 35/64/25 34/63/24
f 32/44/22 27/45/25 28/46/22
f 27/45/25 32/44/22 35/43/25
f 33/56/23 30/57/26 25/58/23
f 30/57/26 33/56/23 36/55/26
f 36/39/27 32/38/27 31/37/27
f 32/38/27 36/39/27 35/40/27
f 35/40/27 36/39/27 33/41/27
f 35/40/27 33/41/27 34/42/27
f 36/52/26 29/53/21 30/54/26
f 29/53/21 36/52/26 31/51/21

