# Created by Kenney (www.kenney.nl)

mtllib cup.mtl

g cup

v -0.01 0.1535094 0.08438813
v -0.01 0.1290022 0.1268359
v 0.01 0.1535094 0.08438813
v 0.01 0.1290022 0.1268359
v 0.01 0.07099777 0.1268359
v -0.01 0.07099777 0.1268359
v 0.01 0.04346431 0.07914653
v -0.01 0.04346431 0.07914653
v 0.089 -9.026875E-20 -1.597229E-14
v 0.0445 -9.026875E-20 -0.07707626
v 0.0445 -9.026875E-20 0.07707626
v -0.0445 -9.026875E-20 0.07707626
v -0.0445 -9.026875E-20 -0.07707626
v -0.089 -9.026875E-20 9.023893E-17
v -0.01 0.02084679 0.07806922
v -0.01 0.06 0.1458846
v -0.01 0.14 0.1458846
v -0.01 0.1749163 0.08540777
v 0.01 0.1749163 0.08540777
v 0.01 0.14 0.1458846
v 0.01 0.06 0.1458846
v 0.01 0.02084679 0.07806922
v 0.07176796 0.02 -1.452847E-14
v 0.03588398 0.02 0.06215287
v 0.03588398 0.02 -0.06215287
v -0.03588398 0.02 0.06215287
v -0.03588398 0.02 -0.06215287
v -0.07176796 0.02 -1.804779E-15
v 0.03900433 0.2 0.06755748
v -0.03900433 0.2 0.06755748
v 0.07800865 0.2 -1.416751E-14
v 0.03900433 0.2 -0.06755748
v -0.07800865 0.2 4.511947E-16
v -0.03900433 0.2 -0.06755748
v 0.1 0.2 -1.633324E-14
v 0.05 0.2 -0.08660254
v 0.05 0.2 0.08660254
v -0.05 0.2 -0.08660254
v -0.05 0.2 0.08660254
v -0.1 0.2 1.443823E-15

vn 0 -0.8660254 -0.5
vn 0 -0.5 -0.8660254
vn 0 0.5 -0.8660254
vn 0 0.8660254 -0.5
vn 0 -1 0
vn -1 0 0
vn 1 0 0
vn 0 1 0
vn 0 0.8660254 0.5
vn 0 0.5 0.8660254
vn 0 -0.5 0.8660254
vn 0 -0.8660254 0.5
vn -0.4996998 0.03464969 -0.8655054
vn 0.4996998 0.03464969 -0.8655054
vn -0.9993995 0.03464969 0
vn -0.4996998 0.03464969 0.8655054
vn 0.9993995 0.03464969 0
vn 0.4996998 0.03464969 0.8655054
vn 0.4992455 -0.05491701 -0.8647186
vn -0.4992455 -0.05491701 -0.8647186
vn 0.9984909 -0.054917 0
vn -0.9984909 -0.054917 0
vn 0.4992455 -0.05491701 0.8647186
vn -0.4992455 -0.05491701 0.8647186
vn 0 -0.04757745 0.9988675

vt 0 0

usemtl _defaultMat

f 3/1/1 2/1/2 1/1/1
f 2/1/2 3/1/1 4/1/2
f 5/1/3 2/1/2 4/1/2
f 2/1/2 5/1/3 6/1/3
f 7/1/4 6/1/3 5/1/3
f 6/1/3 7/1/4 8/1/4
f 11/1/5 10/1/5 9/1/5
f 10/1/5 11/1/5 12/1/5
f 10/1/5 12/1/5 13/1/5
f 13/1/5 12/1/5 14/1/5
f 16/1/6 8/1/6 15/1/6
f 8/1/6 16/1/6 6/1/6
f 6/1/6 16/1/6 2/1/6
f 17/1/6 2/1/6 16/1/6
f 18/1/6 2/1/6 17/1/6
f 2/1/6 18/1/6 1/1/6
f 19/1/7 4/1/7 3/1/7
f 4/1/7 19/1/7 20/1/7
f 4/1/7 20/1/7 21/1/7
f 21/1/7 5/1/7 4/1/7
f 21/1/7 7/1/7 5/1/7
f 7/1/7 21/1/7 22/1/7
f 25/1/8 24/1/8 23/1/8
f 24/1/8 25/1/8 26/1/8
f 26/1/8 25/1/8 27/1/8
f 26/1/8 27/1/8 28/1/8
f 17/1/10 19/1/9 18/1/9
f 19/1/9 17/1/10 20/1/10
f 17/1/10 21/1/11 20/1/10
f 21/1/11 17/1/10 16/1/11
f 16/1/11 22/1/12 21/1/11
f 22/1/12 16/1/11 15/1/12
f 24/1/13 30/1/14 29/1/13
f 31/1/15 24/1/13 29/1/13
f 30/1/14 24/1/13 26/1/14
f 24/1/13 31/1/15 23/1/15
f 31/1/15 25/1/16 23/1/15
f 25/1/16 31/1/15 32/1/16
f 26/1/14 33/1/17 30/1/14
f 33/1/17 26/1/14 28/1/17
f 32/1/16 27/1/18 25/1/16
f 27/1/18 33/1/17 28/1/17
f 27/1/18 32/1/16 34/1/18
f 33/1/17 27/1/18 34/1/18
f 36/1/8 31/1/8 35/1/8
f 31/1/8 37/1/8 35/1/8
f 31/1/8 36/1/8 32/1/8
f 37/1/8 31/1/8 29/1/8
f 32/1/8 36/1/8 38/1/8
f 32/1/8 38/1/8 34/1/8
f 37/1/8 29/1/8 39/1/8
f 39/1/8 29/1/8 30/1/8
f 34/1/8 38/1/8 33/1/8
f 39/1/8 30/1/8 33/1/8
f 33/1/8 38/1/8 40/1/8
f 39/1/8 33/1/8 40/1/8
f 10/1/19 38/1/20 36/1/19
f 35/1/21 10/1/19 36/1/19
f 38/1/20 10/1/19 13/1/20
f 10/1/19 35/1/21 9/1/21
f 13/1/20 40/1/22 38/1/20
f 40/1/22 13/1/20 14/1/22
f 37/1/23 9/1/21 35/1/21
f 12/1/24 40/1/22 14/1/22
f 40/1/22 12/1/24 39/1/24
f 9/1/21 37/1/23 11/1/23
f 11/1/23 22/1/25 12/1/24
f 22/1/25 11/1/23 37/1/23
f 12/1/24 22/1/25 15/1/25
f 15/1/25 39/1/24 12/1/24
f 39/1/24 15/1/25 8/1/25
f 22/1/25 37/1/23 7/1/25
f 39/1/24 8/1/25 7/1/25
f 7/1/25 37/1/23 3/1/25
f 7/1/25 3/1/25 1/1/25
f 39/1/24 7/1/25 1/1/25
f 3/1/25 37/1/23 19/1/25
f 39/1/24 19/1/25 37/1/23
f 39/1/24 1/1/25 18/1/25
f 39/1/24 18/1/25 19/1/25

