# Created by Kenney (www.kenney.nl)

mtllib dimSum.mtl

g dimSum

v 1.263345E-15 0 -0.076
v 0.06581793 0 -0.038
v 5.414336E-16 0.04 -0.0928
v 0.08036716 0.04 -0.0464
v -0.06581793 0 -0.038
v -0.08036716 0.04 -0.0464
v 0.08036716 0.04 0.0464
v 0.06581793 0 0.038
v 1.263345E-15 0 0.076
v -0.06581793 0 0.038
v 5.414336E-16 0.04 0.0928
v -0.08036716 0.04 0.0464
v 0.0358759 0.12 -0.02071296
v 0.0358759 0.12 0.02071296
v 3.609557E-16 0.12 -0.04142592
v 3.609557E-16 0.12 0.04142592
v -0.0358759 0.12 -0.02071296
v -0.0358759 0.12 0.02071296
v -0.02893218 0.105 -0.016704
v -0.02893218 0.105 0.016704
v 5.414336E-16 0.105 -0.033408
v 5.414336E-16 0.105 0.033408
v 0.02893218 0.105 -0.016704
v 0.02893218 0.105 0.016704
v 5.414336E-16 0.09 0.033408
v -0.02893218 0.09 0.016704
v 5.414336E-16 0.09 -0.033408
v -0.02893218 0.09 -0.016704
v 0.02893218 0.09 -0.016704
v 0.02893218 0.09 0.016704

vn 0 -0.3872325 -0.9219821
vn 0.7984599 -0.3872325 -0.4609911
vn -0.7984599 -0.3872325 -0.4609911
vn 0.7984599 -0.3872325 0.4609911
vn 0 -0.3872325 0.9219821
vn -0.7984599 -0.3872325 0.4609911
vn 0 -1 0
vn 0 1 0
vn -0.7637609 -0.4714083 -0.4409575
vn -0.7637609 -0.4714083 0.4409575
vn 0 -0.4714083 -0.8819151
vn 0 -0.4714083 0.8819151
vn 0.7637609 -0.4714083 -0.4409575
vn 0.7637609 -0.4714083 0.4409575
vn 0 0.7650021 0.6440278
vn -0.5577445 0.7650021 0.3220139
vn 0 0.7650021 -0.6440278
vn -0.5577445 0.7650021 -0.3220139
vn 0.5577445 0.7650021 -0.3220139
vn 0.5577445 0.7650021 0.3220139
vn -0.8660254 0 -0.5
vn -0.8660254 0 0.5
vn 0 0 1
vn 0.8660254 0 0.5
vn 0.8660254 0 -0.5
vn 0 0 -1

vt 1.496063 0.885747
vt -1.496063 0.885747
vt 1.826772 2.561488
vt -1.826772 2.561488
vt 2.591257 1.496063
vt 2.591257 -1.496063
vt 4.973799E-14 2.992126
vt 4.973799E-14 -2.992126
vt -2.591257 1.496063
vt -2.591257 -1.496063
vt -1.412437 -0.8154709
vt -1.412437 0.8154709
vt -1.421085E-14 -1.630942
vt -1.421085E-14 1.630942
vt 1.412437 -0.8154709
vt 1.412437 0.8154709
vt -0.8154709 4.880671
vt 0.8154709 4.880671
vt -0.6576378 4.229914
vt 0.6576378 4.229914
vt 0.6576378 1.653053
vt 1.826772 -1.171062
vt -0.6576378 1.653053
vt -1.826772 -1.171062
vt -0.6576378 3.543307
vt -0.6576378 4.133858
vt 0.6576378 3.543307
vt 0.6576378 4.133858

usemtl brownLight

f 3/3/1 2/2/2 1/1/1
f 2/2/2 3/3/1 4/4/2
f 6/3/3 1/2/1 5/1/3
f 1/2/1 6/3/3 3/4/1
f 7/4/4 2/1/2 4/3/2
f 2/1/2 7/4/4 8/2/4
f 11/3/5 10/2/6 9/1/5
f 10/2/6 11/3/5 12/4/6
f 7/3/4 9/2/5 8/1/4
f 9/2/5 7/3/4 11/4/5
f 5/2/3 12/3/6 6/4/3
f 12/3/6 5/2/3 10/1/6
f 9/7/7 2/6/7 8/5/7
f 2/6/7 9/7/7 1/8/7
f 1/8/7 9/7/7 10/9/7
f 1/8/7 10/9/7 5/10/7
f 15/13/8 14/12/8 13/11/8
f 14/12/8 15/13/8 16/14/8
f 16/14/8 15/13/8 17/15/8
f 16/14/8 17/15/8 18/16/8
f 19/19/9 18/18/10 17/17/9
f 18/18/10 19/19/9 20/20/10
f 17/18/9 21/19/11 19/20/9
f 21/19/11 17/18/9 15/17/11
f 16/18/12 20/19/10 22/20/12
f 20/19/10 16/18/12 18/17/10
f 15/18/11 23/19/13 21/20/11
f 23/19/13 15/18/11 13/17/13
f 14/17/14 23/20/13 13/18/13
f 23/20/13 14/17/14 24/19/14
f 14/18/14 22/19/12 24/20/14
f 22/19/12 14/18/14 16/17/12
f 26/23/16 11/22/15 25/21/15
f 11/22/15 26/23/16 12/24/16
f 6/22/18 27/23/17 3/24/17
f 27/23/17 6/22/18 28/21/18
f 6/24/18 26/21/16 28/23/18
f 26/21/16 6/24/18 12/22/16
f 3/22/17 29/23/19 4/24/19
f 29/23/19 3/22/17 27/21/17
f 30/21/20 11/24/15 7/22/20
f 11/24/15 30/21/20 25/23/15
f 29/21/19 7/24/20 4/22/19
f 7/24/20 29/21/19 30/23/20

usemtl green

f 26/27/22 19/26/21 28/25/21
f 19/26/21 26/27/22 20/28/22
f 22/28/23 26/25/22 25/27/23
f 26/25/22 22/28/23 20/26/22
f 24/28/24 25/25/23 30/27/24
f 25/25/23 24/28/24 22/26/23
f 24/26/24 29/27/25 23/28/25
f 29/27/25 24/26/24 30/25/24
f 21/28/26 29/25/25 27/27/26
f 29/25/25 21/28/26 23/26/25
f 19/28/21 27/25/26 28/27/21
f 27/25/26 19/28/21 21/26/26

