# Created by Kenney (www.kenney.nl)

mtllib donut.mtl

g donut

v 0.04143843 0.07059225 -0.02392449
v 1.082867E-15 0.07059225 -0.04784898
v 0.05155712 0.08889224 -0.02976652
v 7.219114E-16 0.08889224 -0.05953304
v 0.05155712 0 -0.02976652
v 0.04143843 0.0183 -0.02392449
v 0.05155712 0 0.02976652
v 0.04143843 0.0183 0.02392449
v 7.219114E-16 0.0183 -0.04784898
v -0.04143843 0.0183 -0.02392449
v -0.04143843 0.07059225 -0.02392449
v -0.04143843 0.07059225 0.02392449
v -0.04143843 0.0183 0.02392449
v -0.05155712 0 0.02976652
v 3.609557E-16 0 0.05953304
v 7.219114E-16 0.0183 0.04784898
v 3.609557E-16 0 -0.05953304
v -0.05155712 0 -0.02976652
v 0.05155712 0.08889224 0.02976652
v 0.04143843 0.07059225 0.02392449
v 1.082867E-15 0.07059225 0.04784898
v 7.219114E-16 0.08889224 -0.1141005
v -0.09881393 0.08889224 -0.05705025
v 0 0.07509863 -0.13115
v -0.1135792 0.07509863 -0.065575
v -0.05155712 0.08889224 0.02976652
v 7.219114E-16 0.08889224 0.05953304
v -0.05155712 0.08889224 -0.02976652
v 7.219114E-16 0 -0.1141005
v 0 0.01379363 -0.13115
v -0.09881393 0 -0.05705025
v -0.1135792 0.01379363 -0.065575
v -0.09881393 0 0.05705025
v -0.1135792 0.01379363 0.065575
v 0.1135792 0.07509863 -0.065575
v 0.09881393 0.08889224 -0.05705025
v 0.1135792 0.01379363 0.065575
v 0.09881393 0 0.05705025
v 0 0.01379363 0.13115
v 7.219114E-16 0 0.1141005
v -0.09881393 0.08889224 0.05705025
v -0.1135792 0.07509863 0.065575
v 7.219114E-16 0.08889224 0.1141005
v 0 0.07509863 0.13115
v 0.1135792 0.07509863 0.065575
v 0.09881393 0.08889224 0.05705025
v 0.1135792 0.01379363 -0.065575
v 0.09881393 0 -0.05705025
v 0.1225293 0.04444612 0.07074231
v 7.219114E-16 0.04444612 0.1414846
v 7.219114E-16 0.04444612 -0.1414846
v 0.1225293 0.04444612 -0.07074231
v -0.1225293 0.04444612 -0.07074231
v -0.1225293 0.04444612 0.07074231

vn -0.729934 0.5381402 0.4214276
vn 0 0.5381402 0.8428553
vn -0.729934 -0.5381402 0.4214276
vn -0.729934 -0.5381402 -0.4214276
vn 0 0 1
vn 0.8660254 0 0.5
vn 0.8660254 0 -0.5
vn 0.729934 -0.5381402 -0.4214276
vn 0 -0.5381402 -0.8428553
vn 0 -0.5381402 0.8428553
vn 0.729934 -0.5381402 0.4214276
vn -0.729934 0.5381402 -0.4214276
vn 0 0 -1
vn -0.8660254 0 -0.5
vn -0.8660254 0 0.5
vn 0 0.7774311 -0.6289682
vn -0.5447024 0.7774311 -0.3144841
vn 0.729934 0.5381402 -0.4214276
vn 0 0.5381402 -0.8428553
vn 0.729934 0.5381402 0.4214276
vn 0 -0.7774311 -0.6289682
vn -0.5447024 -0.7774311 -0.3144841
vn -0.5447024 -0.7774311 0.3144841
vn 0.5447024 0.7774311 -0.3144841
vn 0.5447024 -0.7774311 0.3144841
vn 0 -0.7774311 0.6289682
vn -0.5447024 0.7774311 0.3144841
vn 0 0.7774311 0.6289682
vn 0.5447024 0.7774311 0.3144841
vn 0.5447024 -0.7774311 -0.3144841
vn 0.8206384 -0.3194845 0.4737958
vn 0 -0.3194845 0.9475915
vn 0.8206384 0.3194845 0.4737958
vn 0 0.3194845 0.9475915
vn 0 -0.3194845 -0.9475915
vn 0.8206384 -0.3194845 -0.4737958
vn 0 0.3194845 -0.9475915
vn 0.8206384 0.3194845 -0.4737958
vn -0.8206384 -0.3194845 -0.4737958
vn -0.8206384 -0.3194845 0.4737958
vn -0.8206384 0.3194845 -0.4737958
vn -0.8206384 0.3194845 0.4737958
vn 0 -1 0
vn 0 1 0

vt 0.9419091 3.221612
vt -0.9419091 3.221612
vt 1.17191 4.044888
vt -1.17191 4.044888
vt -1.17191 -0.982201
vt -0.9419091 -0.1589259
vt 1.17191 -0.982201
vt 0.9419091 -0.1589259
vt 0.9419091 0.7204725
vt -0.9419091 0.7204725
vt 0.9419091 2.779222
vt -0.9419091 2.779222
vt -2.246073 -0.4537364
vt 2.246073 -0.4537364
vt -2.581693 -1.249244
vt 2.581693 -1.249244
vt -2.246073 2.842815
vt -2.581693 3.638323
vt 2.246073 2.842815
vt 2.581693 3.638323
vt 2.581693 1.7746
vt -2.581693 1.7746
vt 2.78513 3.031781
vt -2.78513 3.031781
vt 2.78513 0.327639
vt -2.78513 0.327639
vt 2.581693 1.584821
vt -2.581693 1.584821
vt 3.890312 -2.246073
vt 2.029808 1.17191
vt 3.890312 2.246073
vt 2.842171E-14 4.492146
vt 2.029808 -1.17191
vt 1.421085E-14 2.34382
vt 2.842171E-14 -4.492146
vt 1.421085E-14 -2.34382
vt -3.890312 -2.246073
vt -2.029808 -1.17191
vt -3.890312 2.246073
vt -2.029808 1.17191
vt -2.842171E-14 -4.492146
vt -2.842171E-14 -2.34382
vt -2.842171E-14 4.492146
vt -2.842171E-14 2.34382

usemtl brownLight

f 3/3/1 2/2/2 1/1/1
f 2/2/2 3/3/1 4/4/2
f 7/7/4 6/6/3 5/5/3
f 6/6/3 7/7/4 8/8/4
f 2/11/5 10/10/6 9/9/5
f 10/10/6 2/11/5 11/12/6
f 12/12/7 10/9/6 11/11/6
f 10/9/6 12/12/7 13/10/7
f 13/8/8 15/5/9 14/7/8
f 15/5/9 13/8/8 16/6/9
f 9/8/10 18/5/11 17/7/10
f 18/5/11 9/8/10 10/6/11
f 1/2/1 19/3/12 3/4/1
f 19/3/12 1/2/1 20/1/12
f 21/11/13 8/10/14 16/9/13
f 8/10/14 21/11/13 20/12/14
f 1/11/15 9/10/5 6/9/15
f 9/10/5 1/11/15 2/12/5
f 24/15/16 23/14/17 22/13/16
f 23/14/17 24/15/16 25/16/17
f 26/3/18 21/2/19 12/1/18
f 21/2/19 26/3/18 27/4/19
f 27/3/19 20/2/12 21/1/19
f 20/2/12 27/3/19 19/4/12
f 26/4/18 11/1/20 28/3/20
f 11/1/20 26/4/18 12/2/18
f 6/8/3 17/5/10 5/7/3
f 17/5/10 6/8/3 9/6/10
f 10/8/11 14/5/8 18/7/11
f 14/5/8 10/8/11 13/6/8
f 12/11/7 16/10/13 13/9/7
f 16/10/13 12/11/7 21/12/13
f 8/9/14 1/12/15 6/10/15
f 1/12/15 8/9/14 20/11/14
f 4/3/2 11/2/20 2/1/2
f 11/2/20 4/3/2 28/4/20
f 16/8/9 7/5/4 15/7/9
f 7/5/4 16/8/9 8/6/4
f 31/19/22 30/18/21 29/17/21
f 30/18/21 31/19/22 32/20/22
f 34/20/23 31/17/22 33/19/23
f 31/17/22 34/20/23 32/18/22
f 24/16/16 36/13/24 35/15/24
f 36/13/24 24/16/16 22/14/16
f 39/18/26 38/19/25 37/20/25
f 38/19/25 39/18/26 40/17/26
f 25/15/17 41/14/27 23/13/17
f 41/14/27 25/15/17 42/16/27
f 41/13/27 44/16/28 43/14/28
f 44/16/28 41/13/27 42/15/27
f 39/20/26 33/17/23 40/19/26
f 33/17/23 39/20/26 34/18/23
f 36/14/24 45/15/29 35/16/24
f 45/15/29 36/14/24 46/13/29
f 46/14/29 44/15/28 45/16/29
f 44/15/28 46/14/29 43/13/28
f 38/17/25 47/20/30 37/18/25
f 47/20/30 38/17/25 48/19/30
f 48/17/30 30/20/21 47/18/30
f 30/20/21 48/17/30 29/19/21
f 49/23/31 39/22/32 37/21/31
f 39/22/32 49/23/31 50/24/32
f 45/27/33 50/26/34 49/25/33
f 50/26/34 45/27/33 44/28/34
f 51/23/35 47/22/36 30/21/35
f 47/22/36 51/23/35 52/24/36
f 24/27/37 52/26/38 51/25/37
f 52/26/38 24/27/37 35/28/38
f 32/22/39 54/23/40 53/24/39
f 54/23/40 32/22/39 34/21/40
f 54/25/42 25/28/41 53/26/41
f 25/28/41 54/25/42 42/27/42
f 53/23/39 30/22/35 32/21/39
f 30/22/35 53/23/39 51/24/35
f 25/27/41 51/26/37 53/25/41
f 51/26/37 25/27/41 24/28/37
f 35/27/38 49/26/33 52/25/38
f 49/26/33 35/27/38 45/28/33
f 49/24/31 47/21/36 52/23/36
f 47/21/36 49/24/31 37/22/31
f 44/27/34 54/26/42 50/25/34
f 54/26/42 44/27/34 42/28/42
f 50/23/32 34/22/40 39/21/32
f 34/22/40 50/23/32 54/24/40
f 38/31/43 7/30/43 48/29/43
f 7/30/43 38/31/43 40/32/43
f 5/33/43 48/29/43 7/30/43
f 7/30/43 40/32/43 15/34/43
f 48/29/43 5/33/43 29/35/43
f 29/35/43 5/33/43 17/36/43
f 29/35/43 17/36/43 31/37/43
f 31/37/43 17/36/43 18/38/43
f 15/34/43 40/32/43 33/39/43
f 31/37/43 18/38/43 33/39/43
f 15/34/43 33/39/43 14/40/43
f 14/40/43 33/39/43 18/38/43
f 36/37/44 3/38/44 46/39/44
f 3/38/44 36/37/44 22/41/44
f 19/40/44 46/39/44 3/38/44
f 3/38/44 22/41/44 4/42/44
f 46/39/44 19/40/44 43/43/44
f 43/43/44 19/40/44 27/44/44
f 4/42/44 22/41/44 23/29/44
f 4/42/44 23/29/44 28/33/44
f 43/43/44 27/44/44 26/30/44
f 28/33/44 23/29/44 26/30/44
f 43/43/44 26/30/44 41/31/44
f 41/31/44 26/30/44 23/29/44

