# Created by Kenney (www.kenney.nl)

mtllib egg.mtl

g egg

v 0.0408764 0 0.0236
v 0.0408764 0 -0.0236
v 0 0 0.0472
v 0 0 -0.0472
v -0.0408764 0 0.0236
v -0.0408764 0 -0.0236
v 0 0.0354 0.067024
v -0.05804449 0.0354 0.033512
v -0.05804449 0.0354 -0.033512
v -0.05804449 0.1062 -0.033512
v -0.05804449 0.1062 0.033512
v 0 0.1062 0.067024
v 0 0.0354 -0.067024
v 0.05804449 0.0354 -0.033512
v 0 0.1062 -0.067024
v 0.05804449 0.1062 -0.033512
v 0.05804449 0.1062 0.033512
v 0.05804449 0.0354 0.033512
v 0.02902224 0.1652 -0.016756
v 0.02902224 0.1652 0.016756
v 0 0.1652 0.033512
v 0 0.1652 -0.033512
v -0.02902224 0.1652 -0.016756
v -0.02902224 0.1652 0.016756

vn 0 -1 0
vn 0 -0.4886034 0.872506
vn -0.7556123 -0.4886034 0.436253
vn -0.8660254 0 -0.5
vn -0.8660254 0 0.5
vn 0 0 1
vn 0 -0.4886034 -0.872506
vn 0.7556123 -0.4886034 -0.436253
vn 0 0 -1
vn -0.7556123 -0.4886034 -0.436253
vn 0.8660254 0 -0.5
vn 0.8660254 0 0.5
vn 0.7530302 0.4938899 -0.4347622
vn 0.7530302 0.4938899 0.4347622
vn 0 0.4938899 0.8695245
vn 0.7556123 -0.4886034 0.436253
vn 0 1 0
vn -0.7530302 0.4938899 0.4347622
vn -0.7530302 0.4938899 -0.4347622
vn 0 0.4938899 -0.8695245

vt 1.609307 0.9291338
vt 1.609307 -0.9291338
vt 0 1.858268
vt 0 -1.858268
vt -1.609307 0.9291338
vt -1.609307 -0.9291338
vt 0.9291338 0.7022455
vt -0.9291338 0.7022455
vt 1.31937 2.251198
vt -1.31937 2.251198
vt -1.31937 1.393701
vt -1.31937 4.181102
vt 1.31937 1.393701
vt 1.31937 4.181102
vt 1.31937 2.74309
vt -1.31937 2.74309
vt 0.659685 5.331741
vt -0.659685 5.331741
vt -1.142608 -0.659685
vt -1.142608 0.659685
vt 0 -1.31937
vt 0 1.31937
vt 1.142608 -0.659685
vt 1.142608 0.659685

usemtl brownLight

f 3/3/1 2/2/1 1/1/1
f 2/2/1 3/3/1 4/4/1
f 4/4/1 3/3/1 5/5/1
f 4/4/1 5/5/1 6/6/1
f 7/9/2 5/8/3 3/7/2
f 5/8/3 7/9/2 8/10/3
f 8/13/5 10/12/4 9/11/4
f 10/12/4 8/13/5 11/14/5
f 12/14/6 8/11/5 7/13/6
f 8/11/5 12/14/6 11/12/5
f 13/9/7 2/8/8 4/7/7
f 2/8/8 13/9/7 14/10/8
f 10/14/4 13/11/9 9/13/4
f 13/11/9 10/14/4 15/12/9
f 6/8/10 8/9/3 9/10/10
f 8/9/3 6/8/10 5/7/3
f 17/12/12 14/13/11 16/14/11
f 14/13/11 17/12/12 18/11/12
f 17/14/12 7/11/6 18/13/12
f 7/11/6 17/14/12 12/12/6
f 19/17/13 17/16/14 16/15/13
f 17/16/14 19/17/13 20/18/14
f 20/17/14 12/16/15 17/15/14
f 12/16/15 20/17/14 21/18/15
f 18/10/16 2/7/8 14/9/8
f 2/7/8 18/10/16 1/8/16
f 9/9/10 4/8/7 6/7/10
f 4/8/7 9/9/10 13/10/7
f 22/21/17 20/20/17 19/19/17
f 20/20/17 22/21/17 21/22/17
f 21/22/17 22/21/17 23/23/17
f 21/22/17 23/23/17 24/24/17
f 15/14/9 14/11/11 13/13/9
f 14/11/11 15/14/9 16/12/11
f 21/17/15 11/16/18 12/15/15
f 11/16/18 21/17/15 24/18/18
f 11/15/18 23/18/19 10/16/19
f 23/18/19 11/15/18 24/17/18
f 22/17/20 16/16/13 15/15/20
f 16/16/13 22/17/20 19/18/13
f 23/17/19 15/16/20 10/15/19
f 15/16/20 23/17/19 22/18/20
f 18/9/16 3/8/2 1/7/16
f 3/8/2 18/9/16 7/10/2

