# Created by Kenney (www.kenney.nl)

mtllib eggHalf.mtl

g eggHalf

v 0.05804449 0.0826 -0.033512
v 0.05804449 0.0826 -1.082867E-15
v 0.02902224 0.0826 -0.050268
v 0.05804449 0.0826 0.033512
v 0.02902224 0.0826 0.050268
v 0.02406049 0.0826 -0.01389133
v 0 0.0826 -0.067024
v 0.02406049 0.0826 0.01389133
v 0 0.0826 -0.02778265
v 0 0.0826 0.067024
v 0 0.0826 0.02778265
v -0.02902224 0.0826 -0.050268
v -0.02406049 0.0826 0.01389133
v -0.02406049 0.0826 -0.01389133
v -0.02902224 0.0826 0.050268
v -0.05804449 0.0826 -0.033512
v -0.05804449 0.0826 0.033512
v -0.05804449 0.0826 -1.082867E-15
v -0.05804449 0.1062 -0.033512
v -0.05804449 0.1062 0.033512
v 0 0.1062 -0.067024
v 0 0.1062 0.067024
v 0.05804449 0.1062 0.033512
v 0.05804449 0.1062 -0.033512
v 0.05804449 0.0354 -0.033512
v 0.0408764 0 -0.0236
v 0.05804449 0.0354 0.033512
v 0.0408764 0 0.0236
v -0.05804449 0.0354 -0.033512
v -0.05804449 0.0354 0.033512
v 3.609557E-16 0 0.0472
v 3.609557E-16 0 -0.0472
v -0.0408764 0 0.0236
v -0.0408764 0 -0.0236
v 0 0.0354 0.067024
v 0 0.0354 -0.067024

vn 0 1 0
vn 1 0 0
vn 0.8660254 0 0.5
vn 0.8660254 0 -0.5
vn 0.5 0 0.8660254
vn 0 0 1
vn 0 0 -1
vn -0.5 0 -0.8660254
vn -0.8660254 0 -0.5
vn -0.5 0 0.8660254
vn -0.8660254 0 0.5
vn -1 0 0
vn 0.5 0 -0.8660254
vn 0.7556123 -0.4886034 -0.436253
vn 0.7556123 -0.4886034 0.436253
vn 0 -1 0
vn 0 -0.4886034 0.872506
vn -0.7556123 -0.4886034 0.436253
vn -0.7556123 -0.4886034 -0.436253
vn 0 -0.4886034 -0.872506

vt 0 0
vt -4.263256E-14 3.251969
vt -1.31937 4.181102
vt -1.31937 3.251969
vt 1.31937 4.181102
vt 1.31937 3.251969
vt 1.310063E-14 3.251969
vt -3.58602E-14 3.251969
vt -1.887379E-14 3.251969
vt 4.868349E-14 3.251969
vt 1.820766E-14 3.251969
vt 1.31937 2.251198
vt 0.9291338 0.7022455
vt -1.31937 2.251198
vt -0.9291338 0.7022455
vt -1.31937 1.393701
vt 1.31937 1.393701
vt 1.609307 0.9291338
vt 1.609307 -0.9291338
vt 1.421085E-14 1.858268
vt 1.421085E-14 -1.858268
vt -1.609307 0.9291338
vt -1.609307 -0.9291338
vt -2.4869E-14 3.251969
vt 4.218847E-15 3.251969
vt -1.809664E-14 3.251969
vt 2.4869E-14 3.251969
vt 4.626312E-14 3.251969
vt -0.9472632 -0.5469027
vt -0.9472632 0.5469027
vt 0 -1.093805
vt 0 1.093805
vt 0.9472632 -0.5469027
vt 0.9472632 0.5469027

usemtl _defaultMat

f 3/1/1 2/1/1 1/1/1
f 2/1/1 3/1/1 4/1/1
f 4/1/1 3/1/1 5/1/1
f 5/1/1 3/1/1 6/1/1
f 6/1/1 3/1/1 7/1/1
f 8/1/1 5/1/1 6/1/1
f 6/1/1 7/1/1 9/1/1
f 5/1/1 8/1/1 10/1/1
f 10/1/1 8/1/1 11/1/1
f 9/1/1 7/1/1 12/1/1
f 10/1/1 11/1/1 13/1/1
f 9/1/1 12/1/1 14/1/1
f 14/1/1 12/1/1 13/1/1
f 10/1/1 13/1/1 15/1/1
f 15/1/1 13/1/1 12/1/1
f 15/1/1 12/1/1 16/1/1
f 15/1/1 16/1/1 17/1/1
f 17/1/1 16/1/1 18/1/1

usemtl brownLight

f 16/4/3 19/3/3 18/2/2
f 17/6/4 18/2/2 20/5/4
f 16/6/3 12/7/5 19/5/3
f 12/7/5 7/4/6 21/3/6
f 5/8/8 10/4/7 22/3/7
f 4/6/9 5/8/8 23/5/9
f 7/6/6 3/9/10 21/5/6
f 3/9/10 1/4/11 24/3/11
f 24/5/11 1/6/11 2/10/12
f 23/3/9 2/10/12 4/4/9
f 15/11/13 17/4/4 20/3/4
f 10/6/7 15/11/13 22/5/7
f 27/14/15 26/13/14 25/12/14
f 26/13/14 27/14/15 28/15/15
f 30/17/11 16/4/9 29/16/9
f 16/4/9 30/17/11 18/2/12
f 18/2/12 19/3/9 16/4/9
f 18/2/12 30/17/11 17/6/11
f 20/5/11 18/2/12 17/6/11
f 31/20/16 26/19/16 28/18/16
f 26/19/16 31/20/16 32/21/16
f 32/21/16 31/20/16 33/22/16
f 32/21/16 33/22/16 34/23/16
f 35/12/17 33/15/18 31/13/17
f 33/15/18 35/12/17 30/14/18
f 29/12/19 32/15/20 34/13/19
f 32/15/20 29/12/19 36/14/20
f 4/6/3 35/16/6 27/17/3
f 35/16/6 4/6/3 10/4/6
f 10/4/6 4/6/3 5/24/5
f 23/5/3 5/8/5 4/6/3
f 22/3/6 10/4/6 5/8/5
f 16/6/9 36/16/7 29/17/9
f 36/16/7 16/6/9 7/4/7
f 7/4/7 16/6/9 12/25/8
f 19/5/9 12/7/8 16/6/9
f 21/3/7 7/4/7 12/7/8
f 27/12/15 31/15/17 28/13/15
f 31/15/17 27/12/15 35/14/17
f 36/12/20 26/15/14 32/13/20
f 26/15/14 36/12/20 25/14/14
f 7/6/7 25/16/4 36/17/7
f 25/16/4 7/6/7 1/4/4
f 1/4/4 7/6/7 3/26/13
f 21/5/7 3/9/13 7/6/7
f 24/3/4 1/4/4 3/9/13
f 34/15/19 30/12/18 29/14/19
f 30/12/18 34/15/19 33/13/18
f 10/6/6 30/16/11 35/17/6
f 30/16/11 10/6/6 17/4/11
f 17/4/11 10/6/6 15/27/10
f 22/5/6 15/11/10 10/6/6
f 20/3/11 17/4/11 15/11/10
f 2/28/2 1/6/4 24/5/4
f 2/28/2 25/17/4 1/6/4
f 25/17/4 2/28/2 27/16/3
f 27/16/3 2/28/2 4/4/3
f 4/4/3 2/28/2 23/3/3

usemtl yellow

f 9/31/1 8/30/1 6/29/1
f 8/30/1 9/31/1 11/32/1
f 11/32/1 9/31/1 14/33/1
f 11/32/1 14/33/1 13/34/1

