# Created by Kenney (www.kenney.nl)

mtllib frikandelSpeciaal.mtl

g frikandelSpeciaal

v 0.276438 0 0.042408
v 0.276438 0 -0.042408
v -0.276438 0 0.042408
v -0.276438 0 -0.042408
v -0.298553 0.07 -0.063612
v 0.2874955 0.035 -0.05301
v -0.2874955 0.035 -0.05301
v 0.298553 0.07 -0.063612
v 0.298553 0.07 0.063612
v 0.2874955 0.035 0.05301
v -0.298553 0.07 0.063612
v -0.2874955 0.035 0.05301
v -0.3179892 0.07 0.063612
v -0.3179892 0.07 -0.063612
v -0.3178229 0.07 0.06614893
v -0.3178229 0.07 -0.06614893
v -0.3173269 0.07 0.06864244
v -0.3173269 0.07 -0.06864244
v -0.3165097 0.07 0.0710499
v -0.3165097 0.07 -0.0710499
v -0.3153853 0.07 0.07333008
v -0.3153853 0.07 -0.07333008
v -0.3139728 0.07 0.07544399
v -0.3139728 0.07 -0.07544399
v -0.3122965 0.07 0.07735544
v -0.3122965 0.07 -0.07735544
v -0.310385 0.07 0.07903175
v -0.310385 0.07 -0.07903175
v -0.3082711 0.07 0.08044422
v -0.3082711 0.07 -0.08044422
v -0.305991 0.07 0.08156868
v -0.305991 0.07 -0.08156868
v -0.3035835 0.07 0.0823859
v -0.3035835 0.07 -0.0823859
v -0.30109 0.07 0.08288189
v -0.30109 0.07 -0.08288189
v -0.298553 0.07 0.08304817
v 0.298553 0.07 0.08304817
v -0.298553 0.07 -0.08304817
v 0.298553 0.07 -0.08304817
v 0.30109 0.07 0.08288189
v 0.30109 0.07 -0.08288189
v 0.3035835 0.07 0.0823859
v 0.3035835 0.07 -0.0823859
v 0.305991 0.07 0.08156868
v 0.305991 0.07 -0.08156868
v 0.3082711 0.07 0.08044422
v 0.3082711 0.07 -0.08044422
v 0.310385 0.07 0.07903175
v 0.310385 0.07 -0.07903175
v 0.3122965 0.07 0.07735544
v 0.3122965 0.07 -0.07735544
v 0.3139728 0.07 0.07544399
v 0.3139728 0.07 -0.07544399
v 0.3153853 0.07 0.07333008
v 0.3153853 0.07 -0.07333008
v 0.3165097 0.07 0.0710499
v 0.3165097 0.07 -0.0710499
v 0.3173269 0.07 0.06864244
v 0.3173269 0.07 -0.06864244
v 0.3178229 0.07 0.06614893
v 0.3178229 0.07 -0.06614893
v 0.3179892 0.07 0.063612
v 0.3179892 0.07 -0.063612

vn 0 -1 0
vn 0 1 0
vn 0 0.5189781 0.4264686
vn 0 -0.5189781 -0.4264686
vn 0.940308 -0.3047757 0
vn -0.940308 0.3047757 0
vn -0.940308 -0.3047757 0
vn 0.940308 0.3047757 0
vn 0 0.5189781 -0.4264686
vn 0 -0.5189781 0.4264686

vt 11.02362 3.346457
vt 11.02362 -3.346457
vt -11.02362 3.346457
vt -11.02362 -3.346457
vt 11.90551 4.96082
vt -11.46457 3.348779
vt 11.46457 3.348779
vt -11.90551 4.96082
vt -11.02362 1.736738
vt 11.02362 1.736738
vt 5.019685 6.253302
vt 4.183071 4.806517
vt -5.019685 6.253302
vt -4.183071 4.806517
vt 3.346457 3.359732
vt -3.346457 3.359732
vt 12.68058 5.019685
vt 12.68058 -5.019685
vt 12.67394 5.219877
vt 12.67394 -5.219877
vt 12.65417 5.416643
vt 12.65417 -5.416643
vt 12.62158 5.606617
vt 12.62158 -5.606617
vt 12.57674 5.786549
vt 12.57674 -5.786549
vt 12.52041 5.953359
vt 12.52041 -5.953359
vt 12.45356 6.104194
vt 12.45356 -6.104194
vt 12.37734 6.236473
vt 12.37734 -6.236473
vt 12.29304 6.347932
vt 12.29304 -6.347932
vt 12.20212 6.436665
vt 12.20212 -6.436665
vt 12.10611 6.501152
vt 12.10611 -6.501152
vt 12.00668 6.540291
vt 12.00668 -6.540291
vt 11.90551 6.553412
vt 11.90551 5.019685
vt -11.90551 6.553412
vt 11.90551 -5.019685
vt 11.90551 -6.553412
vt -11.90551 -5.019685
vt -11.90551 5.019685
vt -11.90551 -6.553412
vt -12.00668 6.540291
vt -12.00668 -6.540291
vt -12.10611 6.501152
vt -12.10611 -6.501152
vt -12.20212 6.436665
vt -12.20212 -6.436665
vt -12.29304 6.347932
vt -12.29304 -6.347932
vt -12.37734 6.236473
vt -12.37734 -6.236473
vt -12.45356 6.104194
vt -12.45356 -6.104194
vt -12.52041 5.953359
vt -12.52041 -5.953359
vt -12.57674 5.786549
vt -12.57674 -5.786549
vt -12.62158 5.606617
vt -12.62158 -5.606617
vt -12.65417 5.416643
vt -12.65417 -5.416643
vt -12.67394 5.219877
vt -12.67394 -5.219877
vt -12.68058 5.019685
vt -12.68058 -5.019685
vt -11.46457 -4.183071
vt -11.46457 4.183071
vt 11.46457 -4.183071
vt 11.46457 4.183071

usemtl white

f 3/3/1 2/2/1 1/1/1
f 2/2/1 3/3/1 4/4/1
f 1/1/2 2/2/2 3/3/2
f 4/4/2 3/3/2 2/2/2
f 7/7/3 6/6/3 5/5/3
f 8/8/3 5/5/3 6/6/3
f 6/6/4 5/5/4 8/8/4
f 5/5/4 6/6/4 7/7/4
f 2/9/4 7/7/4 6/6/4
f 7/7/4 2/9/4 4/10/4
f 9/13/5 6/12/5 8/11/5
f 6/12/5 9/13/5 10/14/5
f 10/14/5 2/15/5 6/12/5
f 2/15/5 10/14/5 1/16/5
f 8/11/6 6/12/6 9/13/6
f 10/14/6 9/13/6 6/12/6
f 7/14/7 11/11/7 5/13/7
f 11/11/7 7/14/7 12/12/7
f 4/16/7 12/12/7 7/14/7
f 12/12/7 4/16/7 3/15/7
f 5/13/8 11/11/8 7/14/8
f 12/12/8 7/14/8 11/11/8
f 10/7/9 12/6/9 9/5/9
f 11/8/9 9/5/9 12/6/9
f 12/6/10 9/5/10 11/8/10
f 9/5/10 12/6/10 10/7/10
f 3/9/10 10/7/10 12/6/10
f 10/7/10 3/9/10 1/10/10
f 15/19/2 14/18/2 13/17/2
f 15/19/2 16/20/2 14/18/2
f 17/21/2 16/20/2 15/19/2
f 17/21/2 18/22/2 16/20/2
f 19/23/2 18/22/2 17/21/2
f 19/23/2 20/24/2 18/22/2
f 21/25/2 20/24/2 19/23/2
f 21/25/2 22/26/2 20/24/2
f 23/27/2 22/26/2 21/25/2
f 23/27/2 24/28/2 22/26/2
f 25/29/2 24/28/2 23/27/2
f 25/29/2 26/30/2 24/28/2
f 27/31/2 26/30/2 25/29/2
f 27/31/2 28/32/2 26/30/2
f 29/33/2 28/32/2 27/31/2
f 29/33/2 30/34/2 28/32/2
f 31/35/2 30/34/2 29/33/2
f 31/35/2 32/36/2 30/34/2
f 33/37/2 32/36/2 31/35/2
f 33/37/2 34/38/2 32/36/2
f 35/39/2 34/38/2 33/37/2
f 35/39/2 36/40/2 34/38/2
f 37/41/2 36/40/2 35/39/2
f 11/42/2 36/40/2 37/41/2
f 38/43/2 11/42/2 37/41/2
f 5/44/2 36/40/2 11/42/2
f 5/44/2 39/45/2 36/40/2
f 8/46/2 39/45/2 5/44/2
f 38/43/2 9/47/2 11/42/2
f 39/45/2 8/46/2 40/48/2
f 9/47/2 40/48/2 8/46/2
f 41/49/2 9/47/2 38/43/2
f 41/49/2 40/48/2 9/47/2
f 41/49/2 42/50/2 40/48/2
f 43/51/2 42/50/2 41/49/2
f 43/51/2 44/52/2 42/50/2
f 45/53/2 44/52/2 43/51/2
f 45/53/2 46/54/2 44/52/2
f 47/55/2 46/54/2 45/53/2
f 47/55/2 48/56/2 46/54/2
f 49/57/2 48/56/2 47/55/2
f 49/57/2 50/58/2 48/56/2
f 51/59/2 50/58/2 49/57/2
f 51/59/2 52/60/2 50/58/2
f 53/61/2 52/60/2 51/59/2
f 53/61/2 54/62/2 52/60/2
f 55/63/2 54/62/2 53/61/2
f 55/63/2 56/64/2 54/62/2
f 57/65/2 56/64/2 55/63/2
f 57/65/2 58/66/2 56/64/2
f 59/67/2 58/66/2 57/65/2
f 59/67/2 60/68/2 58/66/2
f 61/69/2 60/68/2 59/67/2
f 61/69/2 62/70/2 60/68/2
f 63/71/2 62/70/2 61/69/2
f 62/70/2 63/71/2 64/72/2
f 7/75/2 10/74/2 6/73/2
f 10/74/2 7/75/2 12/76/2

g frikandel

v -0.255234 0.04937515 0.042408
v -0.276438 0.04937515 0.02586888
v -0.255234 0.08610156 0.02841336
v -0.276438 0.07177826 0.01293444
v 0.255234 0.04937515 -0.042408
v 0.276438 0.04937515 -0.02586888
v 0.276438 0.07177825 -0.01293444
v 0.255234 0.08610157 -0.02841336
v -0.276438 0.04937515 -0.02586888
v -0.255234 0.04937515 -0.042408
v -0.255234 0.08610156 -0.02841336
v -0.276438 0.07177826 -0.01293444
v 0.276438 0.04937515 0.02586888
v 0.255234 0.04937515 0.042408
v 0.276438 0.07177825 0.01293444
v 0.255234 0.08610157 0.02841336
v -0.255234 0.01264875 -0.021204
v -0.255234 0.01264875 0.021204
v 0.255234 0.01264874 -0.021204
v 0.255234 0.01264874 0.021204
v -0.276438 0.02697205 0.01293444
v -0.276438 0.02697205 -0.01293444
v 0.276438 0.02697206 -0.01293444
v 0.276438 0.02697206 0.01293444

vn -0.4396535 -0.03845572 1.11539
vn -0.4600615 -0.03637686 1.082969
vn -0.4808435 0.4270764 0.6073071
vn -0.4836842 0.4747211 0.4306775
vn 0.4593099 -0.02107936 -1.085845
vn 0.4403058 0 -1.117045
vn 0.4721918 0.4701282 -0.4959162
vn 0.5007083 0.4038606 -0.6082506
vn -0.4600615 -0.03637686 -1.082969
vn -0.4396536 -0.03845575 -1.11539
vn -0.4808435 0.4270764 -0.6073072
vn -0.4836842 0.4747211 -0.4306775
vn 0.4403058 0 1.117045
vn 0.4593099 -0.02107936 1.085844
vn 0.4721918 0.4701282 0.4959162
vn 0.5007083 0.4038606 0.6082506
vn 0 0.5820007 -0.8038407
vn 0 0.5820007 0.8038406
vn 0 -0.6121068 -0.7083333
vn 0 -0.6121068 0.7083333
vn -0.7159073 0 0
vn -0.4403058 -0.4826476 -0.5585225
vn -0.4403058 -0.4826476 0.5585225
vn -0.4403058 -0.4826476 0.5585225
vn 0.4403058 -0.4826476 -0.5585225
vn 0.4403058 -0.4826476 0.5585225
vn 0.7159073 0 0
vn 0 -0.05631938 1.412162
vn 0 -0.05631938 -1.412162

vt 0.8411243 -3.542931
vt 0.5130858 -5.004476
vt -1.348093 -3.542931
vt -0.980315 -2.63544
vt 0.7204725 -4.280865
vt -0.7204725 -4.280865
vt -1.181102 17.45072
vt -0.7204725 18.87605
vt 0.7204725 18.87605
vt -0.8411243 14.99605
vt 0.9095612 16.6031
vt 1.348093 14.99605
vt -0.5130858 -5.004476
vt -0.8411243 -3.542931
vt 1.348093 -3.542931
vt 0.980315 -2.63544
vt 1.181102 17.45072
vt -0.9095612 16.6031
vt 0.8411243 14.99605
vt -1.348093 14.99605
vt -1.582677 -5.993075
vt -1.582677 22.44094
vt 1.582677 -5.993075
vt 1.582677 22.44094
vt 1.181102 -5.993075
vt -1.181102 -5.993075
vt 1.181102 22.44094
vt -1.181102 22.44094
vt 1.440945 -1.524431E-14
vt 0.7204723 -1.247895
vt 0.7204723 1.247895
vt -0.7204725 1.247895
vt -0.7204725 -1.247895
vt -1.440945 -1.524431E-14
vt 0.7204725 -5.246411
vt -0.7204725 -5.246411
vt 1.181102 -3.821089
vt -1.181102 -3.821089
vt -1.440945 9.769963E-15
vt -0.7204725 1.247895
vt -0.7204725 -1.247895
vt 0.7204725 -1.247895
vt 0.7204725 1.247895
vt 1.440945 9.769963E-15
vt 0.8411243 22.44094
vt 0.8411243 -5.993075
vt -1.348093 22.44094
vt -1.348093 -5.993075
vt -0.8411243 -5.993075
vt -0.8411243 22.44094
vt 1.348093 -5.993075
vt 1.348093 22.44094
vt -1.582677 -3.821089
vt 1.582677 -3.821089
vt -1.582677 17.45072
vt 1.582677 17.45072

usemtl brownDark

f 67/79/13 66/78/12 65/77/11
f 68/82/14 66/81/12 67/80/13
f 71/85/17 70/84/16 69/83/15
f 72/88/18 71/87/17 69/86/15
f 75/91/21 74/90/20 73/89/19
f 75/92/21 73/82/19 76/81/22
f 79/84/25 78/93/24 77/85/23
f 80/96/26 78/95/24 79/94/25
f 67/99/28 72/98/27 75/97/27
f 72/98/27 67/99/28 80/100/28
f 83/103/29 82/102/30 81/101/29
f 82/102/30 83/103/29 84/104/30
f 68/107/31 85/106/31 66/105/31
f 85/106/31 68/107/31 76/108/31
f 85/106/31 76/108/31 86/109/31
f 86/109/31 76/108/31 73/110/31
f 81/113/32 85/112/33 86/111/32
f 85/112/33 81/113/32 82/114/34
f 87/85/35 84/83/36 83/93/35
f 84/83/36 87/85/35 88/84/36
f 88/117/37 79/116/37 77/115/37
f 79/116/37 88/117/37 87/118/37
f 79/116/37 87/118/37 71/119/37
f 71/119/37 87/118/37 70/120/37
f 80/123/28 65/122/38 78/121/38
f 65/122/38 80/123/28 67/124/28
f 75/127/27 69/126/39 74/125/39
f 69/126/39 75/127/27 72/128/27
f 74/101/39 83/104/29 81/102/29
f 83/104/29 74/101/39 69/103/39
f 69/93/15 87/84/35 83/83/35
f 87/84/35 69/93/15 70/85/16
f 78/104/38 82/101/30 84/103/30
f 82/101/30 78/104/38 65/102/38
f 68/111/14 75/129/21 76/112/22
f 75/129/21 68/111/14 67/130/13
f 86/112/32 74/113/20 81/114/32
f 74/113/20 86/112/32 73/111/19
f 65/114/11 85/111/33 82/113/34
f 85/111/33 65/114/11 66/112/12
f 80/132/26 71/84/17 72/131/18
f 71/84/17 80/132/26 79/85/25
f 88/85/36 78/83/24 84/93/36
f 78/83/24 88/85/36 77/84/23

g sauceOnions

v -0.006818958 0.09870155 0.0002967034
v 0.01050155 0.09870155 0.0102967
v -0.006818958 0.1087016 0.0002967034
v 0.01050155 0.1037016 0.0102967
v 0.005501564 0.09870155 0.01895696
v -0.01181893 0.09870155 0.008956958
v 0.005501564 0.1037016 0.01895696
v -0.01181893 0.1087016 0.008956958
v 0.09267243 0.1037016 -0.0134611
v 0.09267243 0.09870155 -0.0134611
v 0.09267243 0.1037016 -0.003461102
v 0.09267243 0.09870155 -0.003461102
v 0.07267243 0.09870155 -0.003461104
v 0.07267243 0.1087016 -0.003461104
v 0.07267243 0.09870155 -0.0134611
v 0.07267243 0.1087016 -0.0134611
v -0.1541376 0.1037016 0.009491077
v -0.1541376 0.09870155 0.009491077
v -0.1591376 0.1037016 0.01815133
v -0.1591376 0.09870155 0.01815133
v -0.1764581 0.09870155 0.008151328
v -0.1764581 0.1087016 0.008151328
v -0.1714581 0.09870155 -0.0005089235
v -0.1714581 0.1087016 -0.0005089235
v -0.1061928 0.1037016 -0.009947527
v -0.1061928 0.09870155 -0.009947527
v -0.1019982 0.1037016 -0.0008697547
v -0.1019982 0.09870155 -0.0008697547
v -0.1243483 0.09870155 -0.001558484
v -0.1243483 0.1087016 -0.001558484
v -0.1201538 0.09870155 0.007519287
v -0.1201538 0.1087016 0.007519287
v 0.1633187 0.09870155 0.01945398
v 0.1459982 0.09870155 0.00945398
v 0.1633187 0.1087016 0.01945398
v 0.1459982 0.1037016 0.00945398
v 0.1509982 0.09870155 0.0007937263
v 0.1683187 0.09870155 0.01079373
v 0.1509982 0.1037016 0.0007937263
v 0.1683187 0.1087016 0.01079373
v -0.2424723 0.08610155 0
v -0.2020602 0.09240156 0.010602
v -0.2424723 0.08610155 0.021204
v -0.2020602 0.08610155 0.010602
v 0.2424723 0.08610155 0.021204
v 0.2020602 0.08610155 0.010602
v 0.2020602 0.09240156 0.010602
v 0.2424723 0.08610155 0
v -0.2020602 0.09240156 -0.010602
v -0.2020602 0.08610155 -0.010602
v -0.1616482 0.09240156 -0.021204
v -0.1616482 0.08610155 -0.021204
v -0.1212361 0.08610155 -0.010602
v -0.1212361 0.09240156 -0.010602
v -0.04041206 0.09240156 -0.010602
v -0.04041206 0.08610155 -0.010602
v 0 0.09240156 -0.021204
v 0 0.08610155 -0.021204
v 0.04041205 0.08610155 -0.010602
v 0.04041205 0.09240156 -0.010602
v 0.0808241 0.08610155 0.021204
v 0.0808241 0.09240156 0.021204
v 0.1212361 0.08610155 0.010602
v 0.1212361 0.09240156 0.010602
v -0.08082409 0.08610155 0.021204
v -0.08082409 0.09240156 0.021204
v -0.04041206 0.08610155 0.010602
v -0.04041206 0.09240156 0.010602
v -0.1212361 0.08610155 0.010602
v -0.1212361 0.09240156 0.010602
v 0.2020602 0.09240156 -0.010602
v 0.1616482 0.09240156 -0.021204
v 0.2020602 0.08610155 -0.010602
v 0.1616482 0.08610155 -0.021204
v 0.1212361 0.08610155 -0.010602
v 0.1212361 0.09240156 -0.010602
v 0.04041205 0.08610155 0.010602
v 0.04041205 0.09240156 0.010602
v -0.1616482 0.09240156 0
v 0 0.09240156 0
v 0.1616482 0.09240156 0
v -0.08082409 0.09240156 0
v 0.0808241 0.09240156 0
v -0.1616482 0.09870155 0
v -0.08082409 0.09870155 -0.021204
v -0.08082409 0.08610155 -0.021204
v 0 0.09870155 0
v 0.2424723 0.08610155 -0.021204
v 0.2020602 0.09870155 -0.010602
v 0.2020602 0.09870155 0.010602
v 0.0808241 0.09870155 0
v 0 0.09870155 0.021204
v 0 0.08610155 0.021204
v -0.2020602 0.09870155 -0.010602
v -0.2020602 0.09870155 0.010602
v -0.2424723 0.08610155 -0.021204
v 0.1616482 0.09870155 0
v 0.1616482 0.09870155 0.021204
v 0.0808241 0.09870155 -0.021204
v -0.08082409 0.09870155 0
v -0.1616482 0.09870155 0.021204
v 0.0808241 0.08610155 -0.021204
v -0.1616482 0.08610155 0.021204
v 0.1616482 0.08610155 0.021204

vn 0.5064426 0 -1.735808
vn -0.5064426 0 1.735808
vn 0.6914015 0.6154122 0.7899153
vn 0.8771845 0 1.002169
vn 0.2127485 0.9701425 0.2430618
vn -0.8771845 0 -1.002169
vn 0.7983617 0.6154122 0
vn 1.012885 0 0
vn 0 0 2.004339
vn -1.012885 0 0
vn 0 0 -2.004339
vn 0.2456608 0.9701425 0
vn 0.6914015 0.6154122 0.7899154
vn 0.8771845 0 1.002169
vn -0.5064427 0 1.735808
vn 0.5064427 0 -1.735808
vn -0.8771845 0 -1.002169
vn 0.2127485 0.9701425 0.2430618
vn 0.7247347 0.6154122 -0.6626632
vn 0.9194744 0 -0.840724
vn -0.4248568 0 -1.819493
vn -0.9194744 0 0.840724
vn 0.2230053 0.9701425 -0.2039056
vn 0.4248568 0 1.819493
vn -0.6914015 0.6154122 -0.7899154
vn -0.2127485 0.9701425 -0.2430618
vn -0.1560184 0.9880656 0
vn 0.2570299 0 1.938731
vn -0.2570299 0 1.938731
vn 0.1560184 0.9880656 0
vn -0.2570299 0 -1.938731
vn 0.2570299 0 -1.938731
vn 0.3014913 0.9546733 0
vn 0.1768818 0.9846339 0
vn 0.1281677 0.9919619 0
vn -0.1768818 0.9846339 0
vn -0.1281677 0.9919619 0
vn -0.3014913 0.9546733 0

vt 7.955128 1.252205
vt 6.364102 0.8348032
vt 6.364102 1.669606
vt 0 0
vt 0.8348032 -18.86445
vt 1.252205 -17.25421
vt 1.669606 -18.86445
vt -17.24618 -9.233459E-14
vt -18.89104 -9.855184E-14
vt -17.24618 0.2480315
vt 0.4236795 -1.281174E-13
vt -1.221187 -1.219001E-13
vt -1.221187 0.2480315
vt -0.8348032 7.638719E-17
vt -1.669606 1.527744E-16
vt -1.252205 1.610243
vt 17.03433 0.2480315
vt 17.03433 -5.576339E-14
vt 15.38947 0.2480315
vt 15.38947 -6.198064E-14
vt 13.7446 6.52816E-15
vt 13.7446 0.2480315
vt 10.87855 0.2480315
vt 10.87855 1.094468E-14
vt 9.233681 0.2480315
vt 9.233681 4.72743E-15
vt 7.588814 2.457565E-14
vt 7.588814 0.2480315
vt -6.579467 -5.600912E-29
vt -6.579467 0.2480315
vt -4.9346 6.217249E-15
vt -4.9346 0.2480315
vt -12.73525 3.056353E-14
vt -12.73525 0.2480315
vt -11.09039 3.678078E-14
vt -11.09039 0.2480315
vt -11.8879 6.433817E-14
vt -13.53276 7.055542E-14
vt -11.8879 0.2480315
vt -13.53276 0.2480315
vt 1.433027 0.2480315
vt 3.077894 0.2480315
vt 1.433027 -1.504584E-14
vt 3.077894 -2.126309E-14
vt 4.72276 1.646515E-15
vt 4.72276 0.2480315
vt -5.732108 6.109648E-15
vt -7.376975 1.23269E-14
vt -5.732108 0.2480315
vt -7.376975 0.2480315
vt 14.31923 0.4174016
vt 15.91026 0.8348032
vt 15.91026 0
vt 17.50128 0.4174016
vt 7.955128 0.4174016
vt 9.546153 0.8348032
vt 9.546153 0
vt 11.13718 0.4174016
vt 1.591026 0.4174016
vt 3.182051 0.8348032
vt 3.182051 0
vt 4.773077 0.4174016
vt 11.13718 1.252205
vt 12.7282 1.669606
vt 12.7282 0.8348032
vt 14.31923 1.252205
vt 4.773077 1.252205
vt 15.60131 0.2480315
vt 13.95644 0.2480315
vt 15.60131 0.496063
vt 12.31157 0.496063
vt 12.31157 -2.073732E-14
vt 13.95644 -2.695457E-14
vt 10.66671 0.2480315
vt 10.66671 4.717588E-14
vt 9.021841 0.2480315
vt 9.021841 0.496063
vt -2.842171E-14 3.701201E-15
vt -0.8348032 -2.092138E-14
vt -0.4174016 1.666566
vt -1.252205 1.666566
vt -6.367627 0.2480315
vt -8.012494 0.2480315
vt -6.367627 0.496063
vt -9.65736 0.496063
vt -9.65736 5.346648E-17
vt -8.012494 -6.163783E-15
vt 0.4174016 -16.56035
vt 1.252205 -16.56035
vt -4.283158E-13 -18.22692
vt 0.8348032 -18.22692
vt 1.591026 1.252205
vt 2.919434 1.259753
vt 3.116284 1.600708
vt 3.601343 0.8660523
vt 3.182051 1.669606
vt 6.364102 2.842171E-14
vt 3.798194 1.207007
vt 5.897633 0.3048385
vt 5.897633 0.6985393
vt 6.685034 0.3048385
vt 6.685034 0.6985393
vt 9.546153 1.669606
vt 9.132707 1.240185
vt 9.329556 1.58114
vt 9.814616 0.8464844
vt 10.01147 1.187439
vt 12.7282 2.842171E-14
vt 13.72697 0.4431682
vt 13.56183 0.8005609
vt 14.27662 1.130838
vt 15.91026 1.669606
vt 14.44176 0.7734455
vt 15.61456 1.208468
vt 16.29647 0.8147668
vt 15.81141 1.549423
vt 16.49332 1.155722
vt 17.50128 1.252205
vt 9.44552 0.2480315
vt 7.800654 0.2480315
vt 9.44552 0.496063
vt 6.155787 0.496063
vt 6.155787 -8.278422E-15
vt 7.800654 -1.449567E-14
vt 4.510921 0.2480315
vt 4.510921 2.918835E-14
vt 2.866054 0.2480315
vt 2.866054 0.496063
vt -16.61065 1.305169E-13
vt -16.61065 0.2480315
vt -14.96579 1.367341E-13
vt -14.96579 0.496063
vt -16.61065 0.496063
vt -18.25552 1.242996E-13
vt 16.82249 3.79878E-13
vt 16.82249 0.2480315
vt 18.46736 3.860953E-13
vt 16.82249 0.496063
vt 15.17763 0.2480315
vt 15.17763 0.496063
vt -12.52341 0.2480315
vt -14.16828 0.2480315
vt -12.52341 0.496063
vt -15.81315 0.496063
vt -15.81315 -2.073732E-14
vt -14.16828 -2.695457E-14
vt 3.289733 0.2480315
vt 1.644867 0.2480315
vt 3.289733 0.496063
vt 1.644867 0.496063
vt 7.212297E-15 1.24345E-14
vt 1.644867 6.217249E-15
vt -10.45487 4.748735E-14
vt -10.45487 0.2480315
vt -8.810001 5.37046E-14
vt -8.810001 0.496063
vt -12.09974 0.2480315
vt -12.09974 0.496063
vt -4.299081 3.214733E-14
vt -4.299081 0.2480315
vt -2.654214 3.836458E-14
vt -2.654214 0.496063
vt -5.943948 0.2480315
vt -5.943948 0.496063
vt -0.2118398 3.219952E-15
vt -1.856707 0.2480315
vt -1.856707 0.496063
vt -3.501573 0.496063
vt -3.501573 1.565445E-14
vt -1.856707 9.437201E-15

usemtl _defaultMat

f 91/135/40 90/134/40 89/133/40
f 90/135/40 91/134/40 92/133/40
f 95/135/41 94/134/41 93/133/41
f 94/135/41 95/134/41 96/133/41
f 95/135/42 90/134/43 92/133/42
f 90/135/43 95/134/42 93/133/43
f 91/135/44 95/134/42 92/133/42
f 95/135/42 91/134/44 96/133/44
f 94/135/45 91/134/45 89/133/45
f 91/135/45 94/134/45 96/133/45
f 99/135/46 98/134/47 97/133/46
f 98/135/47 99/134/46 100/133/47
f 99/135/48 101/134/48 100/133/48
f 101/135/48 99/134/48 102/133/48
f 101/135/49 104/134/49 103/133/49
f 104/135/49 101/134/49 102/133/49
f 104/135/50 98/134/50 103/133/50
f 98/135/50 104/134/50 97/133/50
f 104/135/51 99/134/46 97/133/46
f 99/135/46 104/134/51 102/133/51
f 107/135/52 106/134/53 105/133/52
f 106/135/53 107/134/52 108/133/53
f 107/135/54 109/134/54 108/133/54
f 109/135/54 107/134/54 110/133/54
f 112/135/55 106/134/55 111/133/55
f 106/135/55 112/134/55 105/133/55
f 109/135/56 112/134/56 111/133/56
f 112/135/56 109/134/56 110/133/56
f 112/135/57 107/134/52 105/133/52
f 107/135/52 112/134/57 110/133/57
f 115/135/58 114/134/59 113/133/58
f 114/135/59 115/134/58 116/133/59
f 118/135/60 114/134/60 117/133/60
f 114/135/60 118/134/60 113/133/60
f 119/135/61 118/134/61 117/133/61
f 118/135/61 119/134/61 120/133/61
f 113/135/58 120/134/62 115/133/58
f 120/135/62 113/134/58 118/133/62
f 115/135/63 119/134/63 116/133/63
f 119/135/63 115/134/63 120/133/63
f 123/136/54 122/136/54 121/136/54
f 122/136/54 123/136/54 124/136/54
f 127/136/55 126/136/55 125/136/55
f 126/136/55 127/136/55 128/136/55
f 123/136/53 126/136/53 128/136/53
f 126/136/53 123/136/53 121/136/53
f 122/136/56 127/136/64 125/136/56
f 127/136/64 122/136/56 124/136/64
f 123/136/65 127/136/64 124/136/64
f 127/136/64 123/136/65 128/136/65

usemtl brownLight

f 131/139/66 130/138/66 129/137/66
f 130/142/67 131/141/67 132/140/67
f 135/145/68 134/144/68 133/143/68
f 135/148/69 133/147/69 136/146/69
f 139/151/50 138/150/70 137/149/70
f 138/150/70 139/151/50 140/152/50
f 139/151/50 141/153/71 140/152/50
f 141/153/71 139/151/50 142/154/71
f 145/157/50 144/156/70 143/155/70
f 144/156/70 145/157/50 146/158/50
f 145/157/50 147/159/71 146/158/50
f 147/159/71 145/157/50 148/160/71
f 151/163/67 150/162/48 149/161/48
f 150/162/48 151/163/67 152/164/67
f 155/167/67 154/166/48 153/165/48
f 154/166/48 155/167/67 156/168/67
f 154/171/48 157/170/68 153/169/48
f 157/170/68 154/171/48 158/172/68
f 161/175/71 160/174/50 159/173/71
f 160/174/50 161/175/71 162/176/50
f 163/177/70 160/174/50 162/176/50
f 160/174/50 163/177/70 164/178/70
f 150/181/48 165/180/68 149/179/48
f 165/180/68 150/181/48 166/182/68
f 139/185/2 167/184/2 142/183/2
f 167/184/2 139/185/2 137/186/2
f 145/189/2 168/188/2 148/187/2
f 168/188/2 145/189/2 143/190/2
f 160/193/2 169/192/2 159/191/2
f 169/192/2 160/193/2 164/194/2
f 170/197/2 154/196/2 156/195/2
f 154/196/2 170/197/2 158/198/2
f 171/134/2 150/135/2 152/199/2
f 150/135/2 171/134/2 166/133/2

usemtl red

f 172/202/50 142/201/70 167/200/50
f 173/203/50 142/201/70 172/202/50
f 174/204/50 142/201/70 173/203/50
f 142/201/70 174/204/50 141/205/70
f 143/206/71 174/204/50 173/203/50
f 174/204/50 143/206/71 144/207/71
f 143/206/71 173/203/50 168/208/50
f 168/208/50 173/203/50 175/209/50
f 177/212/73 136/211/72 176/210/72
f 136/211/72 177/212/73 178/213/74
f 179/216/48 166/215/67 171/214/48
f 180/217/48 166/215/67 179/216/48
f 181/218/48 166/215/67 180/217/48
f 166/215/67 181/218/48 165/219/67
f 184/222/77 183/221/76 182/220/75
f 183/221/76 184/222/77 129/223/77
f 185/192/2 178/224/74 177/191/73
f 178/224/74 185/192/2 126/225/2
f 121/226/2 178/224/74 126/225/2
f 126/225/2 185/192/2 125/227/2
f 178/224/74 121/226/2 186/228/2
f 125/227/2 185/192/2 187/229/2
f 186/228/2 121/226/2 122/230/2
f 125/227/2 187/229/2 122/230/2
f 186/228/2 122/230/2 179/134/2
f 122/230/2 187/229/2 98/231/2
f 100/232/2 122/230/2 98/231/2
f 179/134/2 122/230/2 100/232/2
f 98/231/2 187/229/2 103/233/2
f 179/134/2 100/232/2 101/234/2
f 103/233/2 187/229/2 175/188/2
f 103/233/2 175/188/2 101/234/2
f 179/134/2 101/234/2 180/235/2
f 101/234/2 175/188/2 90/236/2
f 93/237/2 101/234/2 90/236/2
f 180/235/2 101/234/2 93/237/2
f 90/236/2 175/188/2 89/238/2
f 180/235/2 93/237/2 94/239/2
f 89/238/2 175/188/2 173/240/2
f 89/238/2 173/240/2 94/239/2
f 180/235/2 94/239/2 188/197/2
f 188/197/2 94/239/2 173/240/2
f 188/197/2 173/240/2 114/241/2
f 114/241/2 173/240/2 172/184/2
f 188/197/2 114/241/2 116/242/2
f 119/243/2 188/197/2 116/242/2
f 188/197/2 119/243/2 189/244/2
f 114/241/2 172/184/2 117/245/2
f 189/244/2 119/243/2 117/245/2
f 117/245/2 172/184/2 106/246/2
f 106/246/2 172/184/2 111/247/2
f 108/248/2 117/245/2 106/246/2
f 189/244/2 117/245/2 108/248/2
f 111/247/2 172/184/2 182/186/75
f 189/244/2 108/248/2 109/249/2
f 111/247/2 182/186/75 109/249/2
f 189/244/2 109/249/2 183/250/76
f 183/250/76 109/249/2 182/186/75
f 175/253/50 148/252/70 168/251/50
f 187/254/50 148/252/70 175/253/50
f 190/255/50 148/252/70 187/254/50
f 148/252/70 190/255/50 147/256/70
f 164/257/71 190/255/50 187/254/50
f 190/255/50 164/257/71 163/258/71
f 164/257/71 187/254/50 169/259/50
f 169/259/50 187/254/50 185/260/50
f 191/263/48 130/262/68 132/261/68
f 130/262/68 191/263/48 189/264/48
f 183/265/68 130/262/68 189/264/48
f 130/262/68 183/265/68 129/266/68
f 184/269/71 137/268/71 138/267/71
f 137/268/71 184/269/71 182/270/71
f 137/268/71 182/270/71 167/271/50
f 167/271/50 182/270/71 172/272/50
f 188/275/48 158/274/67 170/273/48
f 189/276/48 158/274/67 188/275/48
f 191/277/48 158/274/67 189/276/48
f 158/274/67 191/277/48 157/278/67
f 185/281/50 159/280/70 169/279/50
f 177/282/70 159/280/70 185/281/50
f 176/283/70 159/280/70 177/282/70
f 159/280/70 176/283/70 161/284/70
f 181/287/48 156/286/68 155/285/68
f 156/286/68 181/287/48 180/288/48
f 156/286/68 180/288/48 170/289/48
f 170/289/48 180/288/48 188/290/48
f 192/293/48 152/292/68 151/291/68
f 152/292/68 192/293/48 186/294/48
f 152/292/68 186/294/48 171/295/48
f 171/295/48 186/294/48 179/296/48
f 178/299/67 135/298/67 136/297/67
f 186/300/48 135/298/67 178/299/67
f 192/301/48 135/298/67 186/300/48
f 135/298/67 192/301/48 134/302/67

