# Created by Kenney (www.kenney.nl)

mtllib fryingPan.mtl

g fryingPan

v 0.223248 0.056494 -8.545627E-14
v 0.1806114 0.056494 0.1312219
v 0.1806114 0.056494 -0.1312219
v 0.06898742 0.056494 0.2123215
v 0.06898742 0.056494 -0.2123215
v -0.06898742 0.056494 0.2123215
v -0.06898742 0.056494 -0.2123215
v -0.1806114 0.056494 0.1312219
v -0.1806114 0.056494 -0.1312219
v -0.223248 0.056494 2.301093E-13
v 0.1767879 0 0.1284439
v 0.06752695 0 0.2078266
v 0.1873951 0.026568 0.1361505
v 0.07157856 0.026568 0.2202962
v -0.06752695 0 0.2078266
v -0.1767879 0 0.1284439
v -0.07157856 0.026568 0.2202962
v -0.1873951 0.026568 0.1361505
v -0.2185218 0 2.235218E-13
v -0.2316331 0.026568 2.329969E-13
v -0.0158 0.073747 -0.3824072
v -0.0158 0.105347 -0.3824072
v -0.0158 0.073747 -0.3009131
v -0.0158 0.085347 -0.3126358
v -0.0158 0.105347 -0.3126358
v 0.0158 0.105347 -0.3824072
v 0.0158 0.073747 -0.3824072
v 0.0158 0.105347 -0.3126358
v 0.0158 0.085347 -0.3126358
v 0.0158 0.073747 -0.3009131
v 0.1873951 0.026568 -0.1361505
v 0.1767879 0 -0.1284439
v 0.2316331 0.026568 -9.348753E-14
v 0.2185218 0 -8.464411E-14
v -0.1015815 0.085347 -0.3126358
v -0.1015815 0.105347 -0.3126358
v 0.06752695 0 -0.2078266
v 0.07157856 0.026568 -0.2202962
v -0.1767879 0 -0.1284439
v -0.06752695 0 -0.2078266
v -0.1873951 0.026568 -0.1361505
v -0.07157856 0.026568 -0.2202962
v 0.1015815 0.085347 0.3126358
v 0.08228104 0.026568 0.253235
v -0.1015815 0.085347 0.3126358
v -0.08228104 0.026568 0.253235
v -0.2452818 0.105347 -0.1782077
v -0.231352 0.068947 -0.1680871
v -0.303185 0.105347 2.839819E-13
v -0.2859668 0.068947 2.720704E-13
v -0.2659439 0.085347 -0.1932196
v -0.2659439 0.105347 -0.1932196
v 0.2659439 0.105347 -0.1932196
v 0.2659439 0.085347 -0.1932196
v 0.3287247 0.105347 -1.624301E-13
v 0.3287247 0.085347 -1.624301E-13
v 0.1015815 0.085347 -0.3126358
v 0.1015815 0.105347 -0.3126358
v -0.3287247 0.085347 3.020297E-13
v -0.3287247 0.105347 3.020297E-13
v -0.2659439 0.085347 0.1932196
v -0.2659439 0.105347 0.1932196
v 0.2659439 0.085347 0.1932196
v 0.2154146 0.026568 0.1565078
v 0.1015815 0.105347 0.3126358
v -0.1015815 0.105347 0.3126358
v 0.0883686 0.068947 0.2719706
v 0.231352 0.068947 0.1680871
v 0.09368931 0.105347 0.288346
v 0.2452818 0.105347 0.1782077
v 0.2154146 0.026568 -0.1565078
v 0.08228104 0.026568 -0.253235
v -0.231352 0.068947 0.1680871
v -0.2452818 0.105347 0.1782077
v -0.0883686 0.068947 0.2719706
v -0.09368931 0.105347 0.288346
v -0.2154146 0.026568 0.1565078
v -0.266267 0.026568 2.579931E-13
v -0.08228104 0.026568 -0.253235
v -0.0883686 0.068947 -0.2719706
v 0.266267 0.026568 -1.17852E-13
v 0.2659439 0.105347 0.1932196
v -0.2154146 0.026568 -0.1565078
v 0.2859668 0.068947 -1.317488E-13
v 0.2452818 0.105347 -0.1782077
v 0.303185 0.105347 -1.443823E-13
v 0.231352 0.068947 -0.1680871
v -0.09368931 0.105347 -0.288346
v 0.09368931 0.105347 -0.288346
v 0.0883686 0.068947 -0.2719706
v 0.03110171 0.1206487 -0.4337662
v -0.03110171 0.1206487 -0.4337662
v 0.03110171 0.05844529 -0.4337662
v -0.03110171 0.05844529 -0.4337662
v -0.03110171 0.05844529 -0.6881661
v -0.03110171 0.1206487 -0.6881661
v -0.02394831 0.06559868 -0.7093661
v 0.02394831 0.06559868 -0.7093661
v -0.02394831 0.1134953 -0.7093661
v 0.02394831 0.1134953 -0.7093661
v 0.03110171 0.05844529 -0.6881661
v 0.03110171 0.1206487 -0.6881661

vn 0 1 0
vn 0.7254832 -0.4425444 0.5270944
vn 0.27711 -0.4425445 0.8528567
vn -0.27711 -0.4425445 0.8528567
vn -0.7254832 -0.4425444 0.5270944
vn -0.8967466 -0.4425444 0
vn -1 0 0
vn 1 0 0
vn 0.7254832 -0.4425444 -0.5270944
vn 0.8967466 -0.4425444 0
vn -0.309017 0 -0.9510565
vn 0 0 -1
vn 0.27711 -0.4425445 -0.8528567
vn -0.7254832 -0.4425444 -0.5270944
vn -0.27711 -0.4425445 -0.8528567
vn 0 -1 0
vn 0.2117803 -0.7282274 0.6517928
vn -0.2117803 -0.7282274 0.6517928
vn 0.7313251 0.4276009 0.5313388
vn 0.9039676 0.427601 0
vn -0.809017 0 -0.5877852
vn 0.809017 0 -0.5877852
vn 0.309017 0 -0.9510565
vn -0.809017 0 0.5877852
vn 0.5544481 -0.7282274 0.4028301
vn 0.309017 0 0.9510565
vn -0.309017 0 0.9510565
vn -0.2793413 0.4276009 -0.8597242
vn -0.7313251 0.4276009 -0.5313388
vn 0.5544481 -0.7282274 -0.4028301
vn 0.2117803 -0.7282274 -0.6517928
vn 0.7313251 0.4276009 -0.5313388
vn 0.2793413 0.4276009 -0.8597242
vn -0.5544481 -0.7282274 0.4028301
vn -0.6853355 -0.7282274 0
vn -0.2117803 -0.7282274 -0.6517928
vn 0 -0.7108174 -0.7033765
vn 0.06018141 0.9808527 0.1852193
vn 0.157557 0.9808527 0.1144718
vn 0.6853355 -0.7282274 0
vn 0.809017 0 0.5877852
vn -0.5544481 -0.7282274 -0.4028301
vn -0.157557 0.9808527 -0.1144718
vn -0.06018141 0.9808527 -0.1852193
vn -0.1947511 0.9808527 0
vn -0.7313251 0.4276009 0.5313388
vn -0.9039676 0.427601 0
vn 0.2793413 0.4276009 0.8597242
vn 0.06018141 0.9808527 -0.1852193
vn 0.157557 0.9808527 -0.1144718
vn 0.1947511 0.9808527 0
vn -0.157557 0.9808527 0.1144718
vn -0.2793413 0.4276009 0.8597242
vn -0.06018141 0.9808527 0.1852193
vn 0 0.9914813 0.1302492
vn 0 0.9583689 0.2855331
vn 0 -0.9914813 0.1302492
vn 0 -0.9583689 0.2855331
vn -0.9895378 0 -0.1442737
vn -0.9914813 0 0.1302492
vn 0 -0.9895378 -0.1442737
vn 0 -0.9475141 -0.3197141
vn 0.9914813 0 0.1302492
vn 0.9583689 0 0.2855331
vn -0.9475141 0 -0.3197141
vn 0.9475141 0 -0.3197141
vn 0.9895378 0 -0.1442737
vn -0.9583689 0 0.2855331
vn 0 0.9895378 -0.1442737
vn 0 0.9475141 -0.3197141

vt -8.789291 -3.36442E-12
vt -7.110686 5.166215
vt -7.110686 -5.166215
vt -2.71604 8.359113
vt -2.71604 -8.359113
vt 2.71604 8.359113
vt 2.71604 -8.359113
vt 7.110686 5.166215
vt 7.110686 -5.166215
vt 8.789291 9.05942E-12
vt 2.658541 3.476402
vt -2.658541 3.476402
vt 2.818054 4.631865
vt -2.818054 4.631865
vt -15.0554 2.903425
vt -15.0554 4.14752
vt -11.84697 2.903425
vt -12.3085 3.360118
vt -12.3085 4.14752
vt 15.0554 4.14752
vt 15.0554 2.903425
vt 12.3085 4.14752
vt 12.3085 3.360118
vt 11.84697 2.903425
vt 3.999273 3.360118
vt 0.6220472 3.360118
vt 3.999273 4.14752
vt 0.6220472 4.14752
vt 8.603221 -3.332445E-12
vt 6.960152 -5.056846
vt 6.960152 5.056846
vt 2.658541 8.182149
vt 2.658541 -8.182149
vt -2.658541 8.182149
vt -2.658541 -8.182149
vt -6.960152 5.056846
vt -6.960152 -5.056846
vt -8.603221 8.800072E-12
vt 3.999273 11.11252
vt 3.239411 7.822486
vt -3.999273 11.11252
vt -3.239411 7.822486
vt 3.688555 8.439859
vt 3.479079 6.868448
vt -3.688555 8.439859
vt -3.479079 6.868448
vt -3.999273 3.360118
vt -3.999273 4.14752
vt -0.6220472 3.360118
vt -0.6220472 4.14752
vt 0.6220472 11.11252
vt 0.6220472 10.46323
vt -0.6220472 10.46323
vt -0.6220472 11.11252
vt 2.71604 8.637235
vt -2.71604 8.637235
vt 3.479079 11.03626
vt -3.479079 11.03626
vt 0.6220472 -11.84697
vt 0.6220472 -15.0554
vt -0.6220472 -11.84697
vt -0.6220472 -15.0554
vt 0.6220472 -12.3085
vt -0.6220472 -12.3085
vt 3.688555 -11.35221
vt 3.999273 -12.3085
vt -3.688555 -11.35221
vt 9.656764 -7.016049
vt -3.999273 -12.3085
vt 10.47023 -7.607069
vt -9.656764 -7.016049
vt -10.47023 -7.607069
vt 11.93642 1.118039E-11
vt 12.94192 1.189093E-11
vt 10.47023 7.607069
vt 9.656764 7.016049
vt -11.93642 -5.684342E-12
vt -12.94192 -6.394885E-12
vt -10.47023 7.607069
vt -9.656764 7.016049
vt -3.999273 12.3085
vt -3.688555 11.35221
vt 3.999273 12.3085
vt 3.688555 11.35221
vt 10.48295 -4.639844E-12
vt 9.119413 -3.680611E-12
vt 8.480888 6.161726
vt 8.480888 -6.161726
vt 7.377761 5.360257
vt 7.377761 -5.360257
vt 3.239411 9.969882
vt 3.239411 -9.969882
vt 2.818054 8.673078
vt 2.818054 -8.673078
vt -3.239411 9.969882
vt -2.818054 8.673078
vt -7.377761 5.360257
vt -8.480888 6.161726
vt -3.239411 -9.969882
vt -2.818054 -8.673078
vt -7.377761 -5.360257
vt -8.480888 -6.161726
vt -9.119413 9.173107E-12
vt -10.48295 1.015721E-11
vt 1.224477 17.72272
vt 0.6220472 15.61288
vt -1.224477 17.72272
vt -0.6220472 15.61288
vt 1.224477 -15.70944
vt -1.224477 -15.70944
vt 0.6220472 -13.5996
vt -0.6220472 -13.5996
vt -27.09315 2.300996
vt -27.09315 4.749949
vt -17.07741 2.300996
vt -17.07741 4.749949
vt 0.942847 2.582625
vt -0.942847 2.582625
vt 0.942847 4.468319
vt -0.942847 4.468319
vt 1.224477 -17.07741
vt 1.224477 -27.09315
vt -1.224477 -17.07741
vt -1.224477 -27.09315
vt -1.224477 26.40681
vt -0.942847 27.28769
vt 1.224477 26.40681
vt 0.942847 27.28769
vt 16.71608 4.749949
vt 16.71608 2.300996
vt 14.60624 4.14752
vt 14.60624 2.903425
vt -26.16054 2.582625
vt -26.16054 4.468319
vt -25.27966 2.300996
vt -25.27966 4.749949
vt 26.16054 4.468319
vt 26.16054 2.582625
vt 25.27966 4.749949
vt 25.27966 2.300996
vt -16.71608 2.300996
vt -16.71608 4.749949
vt -14.60624 2.903425
vt -14.60624 4.14752
vt 27.09315 4.749949
vt 27.09315 2.300996
vt 17.07741 4.749949
vt 17.07741 2.300996
vt -1.224477 -24.15252
vt 1.224477 -24.15252
vt -0.942847 -25.0334
vt 0.942847 -25.0334

usemtl greyDark

f 3/3/1 2/2/1 1/1/1
f 2/2/1 3/3/1 4/4/1
f 4/4/1 3/3/1 5/5/1
f 4/4/1 5/5/1 6/6/1
f 6/6/1 5/5/1 7/7/1
f 6/6/1 7/7/1 8/8/1
f 8/8/1 7/7/1 9/9/1
f 8/8/1 9/9/1 10/10/1
f 13/13/2 12/12/3 11/11/2
f 12/12/3 13/13/2 14/14/3
f 17/13/4 16/12/5 15/11/4
f 16/12/5 17/13/4 18/14/5
f 16/11/5 20/14/6 19/12/6
f 20/14/6 16/11/5 18/13/5
f 14/13/3 15/12/4 12/11/3
f 15/12/4 14/13/3 17/14/4
f 23/17/7 22/16/7 21/15/7
f 22/16/7 23/17/7 24/18/7
f 25/19/7 22/16/7 24/18/7
f 28/22/8 27/21/8 26/20/8
f 27/21/8 28/22/8 29/23/8
f 27/21/8 29/23/8 30/24/8
f 33/14/10 32/11/9 31/13/9
f 32/11/9 33/14/10 34/12/10
f 36/27/11 24/26/12 35/25/11
f 24/26/12 36/27/11 25/28/12
f 38/13/13 32/12/9 37/11/13
f 32/12/9 38/13/13 31/14/9
f 41/13/14 40/12/15 39/11/14
f 40/12/15 41/13/14 42/14/15
f 39/12/14 20/13/6 41/14/14
f 20/13/6 39/12/14 19/11/6
f 11/31/16 32/30/16 34/29/16
f 32/30/16 11/31/16 12/32/16
f 32/30/16 12/32/16 37/33/16
f 37/33/16 12/32/16 15/34/16
f 37/33/16 15/34/16 40/35/16
f 40/35/16 15/34/16 16/36/16
f 40/35/16 16/36/16 39/37/16
f 39/37/16 16/36/16 19/38/16
f 13/14/2 34/11/10 33/13/10
f 34/11/10 13/14/2 11/12/2
f 42/13/15 37/12/13 40/11/15
f 37/12/13 42/13/15 38/14/13
f 45/41/18 44/40/17 43/39/17
f 44/40/17 45/41/18 46/42/18
f 49/45/20 48/44/19 47/43/19
f 48/44/19 49/45/20 50/46/20
f 52/27/21 35/47/11 51/25/21
f 35/47/11 52/27/21 36/48/11
f 55/48/8 54/25/22 53/27/22
f 54/25/22 55/48/8 56/47/8
f 28/50/12 57/47/23 29/49/12
f 57/47/23 28/50/12 58/48/23
f 61/25/24 60/48/7 59/47/7
f 60/48/7 61/25/24 62/27/24
f 43/41/17 64/40/25 63/39/25
f 64/40/25 43/41/17 44/42/17
f 65/27/26 45/47/27 43/25/26
f 45/47/27 65/27/26 66/48/27
f 69/43/28 68/46/29 67/44/28
f 68/46/29 69/43/28 70/45/29
f 71/42/30 57/39/31 54/41/30
f 57/39/31 71/42/30 72/40/31
f 59/25/7 52/48/21 51/47/21
f 52/48/21 59/25/7 60/27/7
f 49/43/20 73/46/32 50/44/20
f 73/46/32 49/43/20 74/45/32
f 74/43/32 75/46/33 73/44/32
f 75/46/33 74/43/32 76/45/33
f 61/39/34 78/42/35 77/40/34
f 78/42/35 61/39/34 59/41/35
f 24/51/37 79/40/36 35/39/36
f 23/52/37 79/40/36 24/51/37
f 30/53/37 79/40/36 23/52/37
f 79/40/36 30/53/37 72/42/31
f 29/54/37 72/42/31 30/53/37
f 72/42/31 29/54/37 57/41/31
f 80/57/38 9/56/39 7/55/38
f 9/56/39 80/57/38 48/58/39
f 81/42/40 54/39/30 56/41/40
f 54/39/30 81/42/40 71/40/30
f 82/48/41 56/25/8 55/27/8
f 56/25/8 82/48/41 63/47/41
f 63/41/25 81/40/40 56/39/40
f 81/40/40 63/41/25 64/42/25
f 83/40/42 35/41/36 79/42/36
f 35/41/36 83/40/42 51/39/42
f 2/56/43 67/57/44 68/58/43
f 67/57/44 2/56/43 4/55/44
f 1/56/45 68/57/43 84/58/45
f 68/57/43 1/56/45 2/55/43
f 58/27/23 54/47/22 57/25/23
f 54/47/22 58/27/23 53/48/22
f 87/46/46 86/43/47 85/45/46
f 86/43/47 87/46/46 84/44/47
f 84/46/47 70/43/29 86/45/47
f 70/43/29 84/46/47 68/44/29
f 78/40/35 51/41/42 83/42/42
f 51/41/42 78/40/35 59/39/35
f 88/43/48 48/46/19 80/44/48
f 48/46/19 88/43/48 47/45/19
f 8/55/50 75/58/49 6/56/49
f 75/58/49 8/55/50 73/57/50
f 48/57/39 10/56/51 9/55/39
f 10/56/51 48/57/39 50/58/51
f 23/61/16 27/60/16 30/59/16
f 27/60/16 23/61/16 21/62/16
f 22/60/1 25/63/1 26/62/1
f 25/63/1 28/64/1 26/62/1
f 88/65/1 28/64/1 25/63/1
f 88/65/1 25/63/1 36/66/1
f 89/67/1 28/64/1 88/65/1
f 88/65/1 36/66/1 47/68/1
f 89/67/1 58/69/1 28/64/1
f 47/68/1 36/66/1 52/70/1
f 85/71/1 58/69/1 89/67/1
f 85/71/1 53/72/1 58/69/1
f 47/68/1 52/70/1 49/73/1
f 49/73/1 52/70/1 60/74/1
f 62/75/1 49/73/1 60/74/1
f 62/75/1 74/76/1 49/73/1
f 86/77/1 53/72/1 85/71/1
f 53/72/1 86/77/1 55/78/1
f 86/77/1 82/79/1 55/78/1
f 82/79/1 86/77/1 70/80/1
f 82/79/1 70/80/1 65/81/1
f 65/81/1 70/80/1 69/82/1
f 66/83/1 74/76/1 62/75/1
f 65/81/1 69/82/1 66/83/1
f 66/83/1 76/84/1 74/76/1
f 66/83/1 69/82/1 76/84/1
f 87/58/52 1/55/45 84/57/45
f 1/55/45 87/58/52 3/56/52
f 76/43/33 67/46/28 75/44/33
f 67/46/28 76/43/33 69/45/28
f 66/27/27 61/47/24 45/25/27
f 61/47/24 66/27/27 62/48/24
f 45/39/18 77/42/34 46/40/18
f 77/42/34 45/39/18 61/41/34
f 82/27/41 43/47/26 63/25/41
f 43/47/26 82/27/41 65/48/26
f 85/43/46 90/46/53 87/44/46
f 90/46/53 85/43/46 89/45/53
f 10/55/51 73/58/50 8/56/50
f 73/58/50 10/55/51 50/57/51
f 80/58/38 5/55/54 90/57/54
f 5/55/54 80/58/38 7/56/38
f 90/58/54 3/55/52 87/57/52
f 3/55/52 90/58/54 5/56/54
f 4/56/44 75/57/49 67/58/44
f 75/57/49 4/56/44 6/55/49
f 89/43/53 80/46/48 90/44/53
f 80/46/48 89/43/53 88/45/48
f 64/87/16 33/86/16 81/85/16
f 33/86/16 71/88/16 81/85/16
f 33/86/16 64/87/16 13/89/16
f 71/88/16 33/86/16 31/90/16
f 13/89/16 64/87/16 44/91/16
f 71/88/16 31/90/16 72/92/16
f 13/89/16 44/91/16 14/93/16
f 72/92/16 31/90/16 38/94/16
f 14/93/16 44/91/16 46/95/16
f 14/93/16 46/95/16 17/96/16
f 17/96/16 46/95/16 18/97/16
f 18/97/16 46/95/16 77/98/16
f 72/92/16 38/94/16 79/99/16
f 79/99/16 38/94/16 42/100/16
f 79/99/16 42/100/16 41/101/16
f 79/99/16 41/101/16 83/102/16
f 18/97/16 77/98/16 20/103/16
f 83/102/16 41/101/16 20/103/16
f 20/103/16 77/98/16 78/104/16
f 83/102/16 20/103/16 78/104/16

usemtl brown

f 92/107/55 26/106/56 91/105/55
f 26/106/56 92/107/55 22/108/56
f 27/111/58 94/110/57 93/109/57
f 94/110/57 27/111/58 21/112/58
f 94/115/60 96/114/59 95/113/59
f 96/114/59 94/115/60 92/116/60
f 99/119/12 98/118/12 97/117/12
f 98/118/12 99/119/12 100/120/12
f 94/123/57 101/122/61 93/121/57
f 101/122/61 94/123/57 95/124/61
f 95/127/61 98/126/62 101/125/61
f 98/126/62 95/127/61 97/128/62
f 26/131/64 93/130/63 91/129/63
f 93/130/63 26/131/64 27/132/64
f 95/135/59 99/134/65 97/133/65
f 99/134/65 95/135/59 96/136/59
f 102/139/67 98/138/66 100/137/66
f 98/138/66 102/139/67 101/140/67
f 21/143/68 92/142/60 94/141/60
f 92/142/60 21/143/68 22/144/68
f 102/124/69 92/121/55 91/123/55
f 92/121/55 102/124/69 96/122/69
f 91/147/63 101/146/67 102/145/67
f 101/146/67 91/147/63 93/148/63
f 100/151/70 96/150/69 102/149/69
f 96/150/69 100/151/70 99/152/70

