# Created by Kenney (www.kenney.nl)

mtllib glassWine.mtl

g glassWine

v 0.08045454 0.3266 -0.0003867568
v 0.04056221 0.3266 0.0694823
v 0.03989233 0.3266 -0.06986905
v -0.03989233 0.3266 0.06986905
v -0.04056221 0.3266 -0.0694823
v -0.08045454 0.3266 0.0003867568
v 0.01167083 0.04999181 -5.610339E-05
v 0.005786826 0.04999181 -0.01013528
v 0.005884 0.04999181 0.01007918
v -0.005786826 0.04999181 0.01013528
v -0.005884 0.04999181 -0.01007918
v -0.01167083 0.04999181 5.610339E-05
v 0.05621932 0.3266 -0.09846481
v 0.1133827 0.3266 -0.0005450473
v 0.04385107 0.4998623 -0.07680255
v 0.0884385 0.4998623 -0.0004251369
v 0.09068233 0 -0.0004359233
v 0.04496364 0 -0.07875115
v 0.04571868 0 0.07831524
v -0.04496364 0 0.07875115
v -0.04571868 0 -0.07831524
v -0.09068233 0 0.0004359233
v -0.04571868 0.01761593 -0.07831524
v -0.09068233 0.01761593 0.0004359233
v -0.05716337 0.3266 -0.09791977
v -0.04458743 0.4998623 -0.07637741
v -0.1133827 0.3266 0.0005450473
v -0.0884385 0.4998623 0.0004251369
v 0.04496364 0.01761593 -0.07875115
v -0.04385107 0.4998623 0.07680255
v -0.05621932 0.3266 0.09846481
v -0.04496364 0.01761593 0.07875115
v 0.05716337 0.3266 0.09791977
v 0.04458743 0.4998623 0.07637741
v 0.09068233 0.01761593 -0.0004359233
v 0.04571868 0.01761593 0.07831524
v -0.07411319 0.4998623 0.0003562731
v -0.03674805 0.4998623 0.06436204
v 0.03736513 0.4998623 0.06400577
v 0.03674805 0.4998623 -0.06436204
v -0.03736513 0.4998623 -0.06400577
v 0.07411319 0.4998623 -0.0003562731
v 0.02516983 0.2685286 0.04311544
v 0.005884 0.2532295 0.01007918
v -0.02475415 0.2685286 0.04335544
v -0.005786826 0.2532295 0.01013528
v -0.09305602 0.2932804 0.000447334
v -0.04614061 0.2932804 0.08081254
v 0.01167083 0.2532295 -5.610339E-05
v -0.005884 0.2532295 -0.01007918
v -0.02516983 0.2685286 -0.04311544
v -0.01167083 0.2532295 5.610339E-05
v -0.04992399 0.2685286 0.000239992
v 0.005786826 0.2532295 -0.01013528
v 0.04992399 0.2685286 -0.000239992
v 0.02475415 0.2685286 -0.04335544
v 0.09305602 0.2932804 -0.000447334
v 0.04691541 0.2932804 0.0803652
v -0.04691541 0.2932804 -0.0803652
v 0.04614061 0.2932804 -0.08081254

vn 0 1 0
vn 0 -1 0
vn 0.4907711 0.1425002 -0.8595565
vn 0.9897833 0.1425002 -0.004758035
vn -0.5041573 0 -0.8636119
vn -0.9999884 0 0.004807092
vn -0.4990123 0.1425002 -0.8547985
vn -0.9897833 0.1425002 0.004758035
vn 0.4958312 0 -0.8684189
vn -0.4907711 0.1425002 0.8595565
vn -0.4958312 0 0.8684189
vn 0.4990123 0.1425002 0.8547985
vn 0.9999884 0 -0.004807092
vn 0.5041573 0 0.8636119
vn 0.9993193 -0.03657562 -0.004803876
vn 0.4954995 -0.03657562 -0.8678379
vn -0.5038199 -0.03657562 -0.863034
vn -0.4954995 -0.03657562 0.8678379
vn 0.5038199 -0.03657562 0.863034
vn -0.9993193 -0.03657562 0.004803876
vn 0.3791563 0.9253308 -0.001822661
vn 0.1911566 0.9253308 0.3274477
vn -0.1879997 0.9253308 0.3292703
vn 0.1872142 -0.9284967 0.3206943
vn -0.1841223 -0.9284967 0.3224794
vn -0.8536721 -0.5207947 0.004103728
vn -0.4232821 -0.5207947 0.7413536
vn -0.1872142 -0.9284967 -0.3206943
vn -0.3713365 -0.9284967 0.001785069
vn -0.3791563 0.9253308 0.001822661
vn 0.1879997 0.9253308 -0.3292703
vn -0.1911566 0.9253308 -0.3274477
vn 0.3713365 -0.9284967 -0.001785069
vn 0.1841223 -0.9284967 -0.3224794
vn 0.8536721 -0.5207947 -0.004103728
vn 0.4303899 -0.5207947 0.7372499
vn -0.4303899 -0.5207947 -0.7372499
vn 0.4232821 -0.5207947 -0.7413536
vn 0.4977179 -0.8673356 -0.002392604
vn 0.2467869 -0.8673356 -0.4322327
vn -0.250931 -0.8673356 -0.4298401
vn 0.250931 -0.8673356 0.4298401
vn -0.2467869 -0.8673356 0.4322327
vn -0.4977179 -0.8673356 0.002392604
vn -0.4907711 -0.1425002 0.8595565
vn -0.9897833 -0.1425002 0.004758035
vn 0.9897833 -0.1425002 -0.004758035
vn 0.4990123 -0.1425002 0.8547985
vn 0.4907711 -0.1425002 -0.8595565
vn -0.4990123 -0.1425002 -0.8547985
vn -0.4954995 0.03657562 0.8678379
vn -0.9993193 0.03657562 0.004803876
vn 0.5038199 0.03657562 0.863034
vn 0.4954995 0.03657562 -0.8678379
vn -0.5038199 0.03657562 -0.863034
vn 0.9993193 0.03657562 -0.004803876
vn -0.3791563 -0.9253308 0.001822661
vn -0.1911566 -0.9253308 -0.3274477
vn 0.1879997 -0.9253308 -0.3292703
vn 0.1841223 0.9284967 -0.3224794
vn -0.1872142 0.9284967 -0.3206943
vn 0.4232821 0.5207947 -0.7413536
vn 0.8536721 0.5207947 -0.004103728
vn 0.3713365 0.9284967 -0.001785069
vn 0.1872142 0.9284967 0.3206943
vn 0.3791563 -0.9253308 -0.001822661
vn 0.1911566 -0.9253308 0.3274477
vn -0.1879997 -0.9253308 0.3292703
vn -0.3713365 0.9284967 0.001785069
vn -0.1841223 0.9284967 0.3224794
vn -0.4303899 0.5207947 -0.7372499
vn -0.8536721 0.5207947 0.004103728
vn 0.4303899 0.5207947 0.7372499
vn -0.4232821 0.5207947 0.7413536
vn -0.4977179 0.8673356 0.002392604
vn -0.2467869 0.8673356 0.4322327
vn 0.250931 0.8673356 0.4298401
vn 0.2467869 0.8673356 -0.4322327
vn -0.250931 0.8673356 -0.4298401
vn 0.4977179 0.8673356 -0.002392604

vt -1.458938 19.58969
vt 1.458938 19.58969
vt -1.583769 12.76491
vt -0.2297433 0.4820735
vt 0.2297433 0.4820735
vt -1.785106 -2.498223
vt 2.231968 12.28118
vt -2.231968 12.28118
vt 1.740935 19.15534
vt -1.740935 19.15534
vt 3.57017 -0.01716234
vt 1.770222 -3.100439
vt 1.799948 3.083277
vt -1.770222 3.100439
vt -1.799948 -3.083277
vt -3.57017 0.01716234
vt -1.785106 0
vt -1.785106 0.6935404
vt 1.785106 0
vt 1.785106 0.6935404
vt 1.583769 12.76491
vt 1.785106 -2.498223
vt 0.982767 5.977786
vt 0.2297433 4.541148
vt -0.982767 5.977786
vt -0.2297433 4.541148
vt -1.831833 11.69136
vt -2.231968 13.17498
vt 1.831833 11.69136
vt 2.231968 13.17498
vt 0.2297433 9.969666
vt 0.2297433 1.968181
vt -0.2297433 9.969666
vt -0.2297433 1.968181
vt -1.831833 9.02277
vt 1.831833 9.02277
vt -0.982767 7.258586
vt 0.982767 7.258586
vt -3.481831 -0.01673768
vt -2.917842 -0.0140265
vt -1.72642 -3.023723
vt -1.755411 3.006985
vt -1.446774 -2.533939
vt -1.471068 2.519912
vt 1.755411 -3.006985
vt 1.471068 -2.519912
vt 1.72642 3.023723
vt 1.446774 2.533939
vt 2.917842 0.0140265
vt 3.481831 0.01673768

usemtl _defaultMat

f 3/3/1 2/2/1 1/1/1
f 2/3/1 3/2/1 4/1/1
f 4/3/1 3/2/1 5/1/1
f 4/3/1 5/2/1 6/1/1
f 9/6/2 8/5/2 7/4/2
f 8/6/2 9/5/2 10/4/2
f 8/6/2 10/5/2 11/4/2
f 11/6/2 10/5/2 12/4/2
f 15/9/3 14/8/4 13/7/3
f 14/8/4 15/9/3 16/10/4
f 19/13/2 18/12/2 17/11/2
f 18/12/2 19/13/2 20/14/2
f 18/12/2 20/14/2 21/15/2
f 21/15/2 20/14/2 22/16/2
f 22/19/6 23/18/5 21/17/5
f 23/18/5 22/19/6 24/20/6
f 27/7/8 26/10/7 25/8/7
f 26/10/7 27/7/8 28/9/8
f 23/20/5 18/17/9 21/19/5
f 18/17/9 23/20/5 29/18/9
f 27/8/8 30/9/10 28/10/8
f 30/9/10 27/8/8 31/7/10
f 20/19/11 24/18/6 22/17/6
f 24/18/6 20/19/11 32/20/11
f 16/9/4 33/8/12 14/7/4
f 33/8/12 16/9/4 34/10/12
f 34/9/12 31/8/10 33/7/12
f 31/8/10 34/9/12 30/10/10
f 36/18/14 17/19/13 35/20/13
f 17/19/13 36/18/14 19/17/14
f 35/18/13 18/19/9 29/20/9
f 18/19/9 35/18/13 17/17/13
f 36/20/14 20/17/11 19/19/14
f 20/17/11 36/20/14 32/18/11
f 26/9/7 13/8/3 25/7/7
f 13/8/3 26/9/7 15/10/3
f 38/1/16 6/21/15 37/2/15
f 6/21/15 38/1/16 4/3/16
f 38/2/16 2/3/17 4/21/16
f 2/3/17 38/2/16 39/1/17
f 40/2/18 5/3/19 3/21/18
f 5/3/19 40/2/18 41/1/19
f 2/21/17 42/1/20 1/3/20
f 42/1/20 2/21/17 39/2/17
f 41/2/19 6/3/15 5/21/19
f 6/3/15 41/2/19 37/1/15
f 1/21/20 40/1/18 3/3/18
f 40/1/18 1/21/20 42/2/20
f 7/5/21 36/6/22 35/22/21
f 36/6/22 7/5/21 9/4/22
f 9/5/22 32/6/23 36/22/22
f 32/6/23 9/5/22 10/4/23
f 45/25/25 44/24/24 43/23/24
f 44/24/24 45/25/25 46/26/25
f 48/29/27 27/28/26 47/27/26
f 27/28/26 48/29/27 31/30/27
f 44/33/14 7/32/13 49/31/13
f 7/32/13 44/33/14 9/34/14
f 44/31/14 10/34/11 9/32/14
f 10/34/11 44/31/14 46/33/11
f 52/24/29 51/25/28 50/26/28
f 51/25/28 52/24/29 53/23/29
f 12/4/30 32/22/23 10/5/23
f 32/22/23 12/4/30 24/6/30
f 49/33/13 8/32/9 54/31/9
f 8/32/9 49/33/13 7/34/13
f 45/23/25 52/26/29 46/24/25
f 52/26/29 45/23/25 53/25/29
f 12/32/6 50/33/5 11/34/5
f 50/33/5 12/32/6 52/31/6
f 10/32/11 52/33/6 12/34/6
f 52/33/6 10/32/11 46/31/11
f 23/22/32 8/4/31 29/6/31
f 8/4/31 23/22/32 11/5/32
f 49/26/33 56/23/34 55/25/33
f 56/23/34 49/26/33 54/24/34
f 54/26/34 51/23/28 56/25/34
f 51/23/28 54/26/34 50/24/28
f 50/31/5 8/34/9 11/32/5
f 8/34/9 50/31/5 54/33/9
f 23/6/32 12/5/30 11/4/32
f 12/5/30 23/6/32 24/22/30
f 43/25/24 49/24/33 55/23/33
f 49/24/33 43/25/24 44/26/24
f 29/22/31 7/4/21 35/6/21
f 7/4/21 29/22/31 8/5/31
f 33/28/36 57/29/35 14/30/35
f 57/29/35 33/28/36 58/27/36
f 25/30/37 60/27/38 59/29/37
f 60/27/38 25/30/37 13/28/38
f 33/30/36 48/27/27 58/29/36
f 48/27/27 33/30/36 31/28/27
f 55/37/39 60/36/40 57/35/39
f 60/36/40 55/37/39 56/38/40
f 14/28/35 60/29/38 13/30/38
f 60/29/38 14/28/35 57/27/35
f 56/37/40 59/36/41 60/35/40
f 59/36/41 56/37/40 51/38/41
f 48/35/43 43/38/42 58/36/42
f 43/38/42 48/35/43 45/37/43
f 59/27/37 27/30/26 25/28/37
f 27/30/26 59/27/37 47/29/26
f 58/35/42 55/38/39 57/36/39
f 55/38/39 58/35/42 43/37/42
f 48/36/43 53/37/44 45/38/43
f 53/37/44 48/36/43 47/35/44
f 53/38/44 59/35/41 51/37/41
f 59/35/41 53/38/44 47/36/44
f 15/41/1 42/40/1 16/39/1
f 42/40/1 34/42/1 16/39/1
f 42/40/1 15/41/1 40/43/1
f 34/42/1 42/40/1 39/44/1
f 40/43/1 15/41/1 26/45/1
f 40/43/1 26/45/1 41/46/1
f 34/42/1 39/44/1 30/47/1
f 30/47/1 39/44/1 38/48/1
f 41/46/1 26/45/1 37/49/1
f 30/47/1 38/48/1 37/49/1
f 37/49/1 26/45/1 28/50/1
f 30/47/1 37/49/1 28/50/1

usemtl [Translucent_Glass_Gray]

f 13/7/45 14/8/46 15/9/45
f 16/10/46 15/9/45 14/8/46
f 17/11/1 18/12/1 19/13/1
f 20/14/1 19/13/1 18/12/1
f 21/15/1 20/14/1 18/12/1
f 22/16/1 20/14/1 21/15/1
f 21/17/14 23/18/14 22/19/13
f 24/20/13 22/19/13 23/18/14
f 25/8/48 26/10/48 27/7/47
f 28/9/47 27/7/47 26/10/48
f 21/19/14 18/17/11 23/20/14
f 29/18/11 23/20/14 18/17/11
f 28/10/47 30/9/49 27/8/47
f 31/7/49 27/8/47 30/9/49
f 22/17/13 24/18/13 20/19/9
f 32/20/9 20/19/9 24/18/13
f 14/7/46 33/8/50 16/9/46
f 34/10/50 16/9/46 33/8/50
f 33/7/50 31/8/49 34/9/50
f 30/10/49 34/9/50 31/8/49
f 35/20/6 17/19/6 36/18/5
f 19/17/5 36/18/5 17/19/6
f 29/20/11 18/19/11 35/18/6
f 17/17/6 35/18/6 18/19/11
f 19/19/5 20/17/9 36/20/5
f 32/18/9 36/20/5 20/17/9
f 25/7/48 13/8/45 26/9/48
f 15/10/45 26/9/48 13/8/45
f 37/2/52 6/21/52 38/1/51
f 4/3/51 38/1/51 6/21/52
f 4/21/51 2/3/53 38/2/51
f 39/1/53 38/2/51 2/3/53
f 3/21/54 5/3/55 40/2/54
f 41/1/55 40/2/54 5/3/55
f 1/3/56 42/1/56 2/21/53
f 39/2/53 2/21/53 42/1/56
f 5/21/55 6/3/52 41/2/55
f 37/1/52 41/2/55 6/3/52
f 3/3/54 40/1/54 1/21/56
f 42/2/56 1/21/56 40/1/54
f 35/22/57 36/6/58 7/5/57
f 9/4/58 7/5/57 36/6/58
f 36/22/58 32/6/59 9/5/58
f 10/4/59 9/5/58 32/6/59
f 43/23/61 44/24/61 45/25/60
f 46/26/60 45/25/60 44/24/61
f 47/27/63 27/28/63 48/29/62
f 31/30/62 48/29/62 27/28/63
f 49/31/6 7/32/6 44/33/5
f 9/34/5 44/33/5 7/32/6
f 9/32/5 10/34/9 44/31/5
f 46/33/9 44/31/5 10/34/9
f 50/26/65 51/25/65 52/24/64
f 53/23/64 52/24/64 51/25/65
f 10/5/59 32/22/59 12/4/66
f 24/6/66 12/4/66 32/22/59
f 54/31/11 8/32/11 49/33/6
f 7/34/6 49/33/6 8/32/11
f 46/24/60 52/26/64 45/23/60
f 53/25/64 45/23/60 52/26/64
f 11/34/14 50/33/14 12/32/13
f 52/31/13 12/32/13 50/33/14
f 12/34/13 52/33/13 10/32/9
f 46/31/9 10/32/9 52/33/13
f 29/6/68 8/4/68 23/22/67
f 11/5/67 23/22/67 8/4/68
f 55/25/69 56/23/70 49/26/69
f 54/24/70 49/26/69 56/23/70
f 56/25/70 51/23/65 54/26/70
f 50/24/65 54/26/70 51/23/65
f 11/32/14 8/34/11 50/31/14
f 54/33/11 50/31/14 8/34/11
f 11/4/67 12/5/66 23/6/67
f 24/22/66 23/6/67 12/5/66
f 55/23/69 49/24/69 43/25/61
f 44/26/61 43/25/61 49/24/69
f 35/6/57 7/4/57 29/22/68
f 8/5/68 29/22/68 7/4/57
f 14/30/72 57/29/72 33/28/71
f 58/27/71 33/28/71 57/29/72
f 59/29/73 60/27/74 25/30/73
f 13/28/74 25/30/73 60/27/74
f 58/29/71 48/27/62 33/30/71
f 31/28/62 33/30/71 48/27/62
f 57/35/75 60/36/76 55/37/75
f 56/38/76 55/37/75 60/36/76
f 13/30/74 60/29/74 14/28/72
f 57/27/72 14/28/72 60/29/74
f 60/35/76 59/36/77 56/37/76
f 51/38/77 56/37/76 59/36/77
f 58/36/79 43/38/79 48/35/78
f 45/37/78 48/35/78 43/38/79
f 25/28/73 27/30/63 59/27/73
f 47/29/63 59/27/73 27/30/63
f 57/36/75 55/38/75 58/35/79
f 43/37/79 58/35/79 55/38/75
f 45/38/78 53/37/80 48/36/78
f 47/35/80 48/36/78 53/37/80
f 51/37/77 59/35/77 53/38/80
f 47/36/80 53/38/80 59/35/77
f 16/39/2 42/40/2 15/41/2
f 16/39/2 34/42/2 42/40/2
f 40/43/2 15/41/2 42/40/2
f 39/44/2 42/40/2 34/42/2
f 26/45/2 15/41/2 40/43/2
f 41/46/2 26/45/2 40/43/2
f 30/47/2 39/44/2 34/42/2
f 38/48/2 39/44/2 30/47/2
f 37/49/2 26/45/2 41/46/2
f 37/49/2 38/48/2 30/47/2
f 28/50/2 26/45/2 37/49/2
f 28/50/2 37/49/2 30/47/2

