# Created by Kenney (www.kenney.nl)

mtllib honey.mtl

g honey

v -0.1047932 0.0464 -0.1047932
v -0.1482 0.0464 7.219114E-15
v -0.09192389 0 -0.09192389
v -0.13 0 -9.601422E-14
v 0.09192389 0 0.09192389
v 1.55211E-14 0 0.13
v 0.1047932 0.0464 0.1047932
v -5.414336E-16 0.0464 0.1482
v 1.55211E-14 0 -0.13
v 0.09192389 0 -0.09192389
v -5.414336E-16 0.0464 -0.1482
v 0.1047932 0.0464 -0.1047932
v -0.09192389 0 0.09192389
v -0.1047932 0.0464 0.1047932
v 0.13 0 -9.601422E-14
v 0.1482 0.0464 7.219114E-15
v -0.1100329 0.203 -0.1100329
v -0.08304517 0.2552 -0.08304517
v -0.15561 0.203 7.219114E-15
v -0.1174436 0.2552 7.219114E-15
v -3.609557E-16 0.203 -0.15561
v -7.219114E-16 0.2552 -0.1174436
v 0.1100329 0.203 -0.1100329
v 0.08304517 0.2552 -0.08304517
v -0.1100329 0.203 0.1100329
v -0.08304517 0.2552 0.08304517
v 0.1100329 0.203 0.1100329
v -3.609557E-16 0.203 0.15561
v 0.08304517 0.2552 0.08304517
v -1.804779E-16 0.2552 0.1174436
v 0.1174436 0.2552 7.219114E-15
v 0.15561 0.203 7.219114E-15
v -9.023893E-16 0.278782 -0.1232561
v -0.08715524 0.278782 -0.08715524
v 0.08715524 0.278782 -0.08715524
v 0.1232561 0.278782 8.662937E-15
v -0.1232561 0.278782 8.662937E-15
v -0.08715524 0.278782 0.08715524
v 1.985256E-15 0.278782 0.1232561
v 0.08715524 0.278782 0.08715524
v -0.1152725 0.1508 -0.1152725
v -0.16302 0.1508 7.219114E-15
v -1.804779E-16 0.1508 0.16302
v -0.1152725 0.1508 0.1152725
v -0.06162806 0.303606 0.06162806
v -0.07431788 0.316018 0.07431788
v -0.08715524 0.303606 7.219114E-15
v -0.1051014 0.316018 7.219114E-15
v 0.1152725 0.1508 -0.1152725
v 0.16302 0.1508 7.219114E-15
v 0.1152725 0.1508 0.1152725
v -1.263345E-15 0.316018 0.1051014
v -1.624301E-15 0.303606 0.08715524
v -1.804779E-16 0.1508 -0.16302
v 0.1051014 0.316018 7.219114E-15
v 0.08715524 0.303606 7.219114E-15
v 0.07431788 0.316018 -0.07431788
v 0.06162806 0.303606 -0.06162806
v -0.06162806 0.303606 -0.06162806
v -0.07431788 0.316018 -0.07431788
v 0.07431788 0.316018 0.07431788
v 0.06162806 0.303606 0.06162806
v -1.263345E-15 0.316018 -0.1051014
v -1.624301E-15 0.303606 -0.08715524
v 0.1232561 0.316018 7.219114E-15
v 0.08715524 0.316018 0.08715524
v 0.08715524 0.316018 -0.08715524
v -1.263345E-15 0.316018 0.1232561
v -0.08715524 0.316018 0.08715524
v -1.263345E-15 0.316018 -0.1232561
v -0.1232561 0.316018 7.941025E-15
v -0.08715524 0.316018 -0.08715524

vn -0.6582785 -0.3651557 -0.6582785
vn -0.9309465 -0.3651557 0
vn 0.6582785 -0.3651557 0.6582785
vn 0 -0.3651557 0.9309465
vn 0 -0.3651557 -0.9309465
vn 0.6582785 -0.3651557 -0.6582785
vn -0.6582785 -0.3651557 0.6582785
vn 0 -1 0
vn 0.9309465 -0.3651557 0
vn -0.5708063 0.5902205 -0.5708063
vn -0.807242 0.5902206 0
vn 0 0.5902206 -0.807242
vn 0.5708063 0.5902205 -0.5708063
vn -0.5708063 0.5902205 0.5708063
vn 0.5708063 0.5902205 0.5708063
vn 0 0.5902206 0.807242
vn 0.807242 0.5902206 0
vn 0 -0.2393183 -0.9709411
vn -0.6865591 -0.2393184 -0.6865591
vn 0.6865591 -0.2393184 -0.6865591
vn 0.9709411 -0.2393183 0
vn -0.9709411 -0.2393183 0
vn -0.6865591 -0.2393184 0.6865591
vn 0 -0.2393183 0.9709411
vn 0.6865591 -0.2393184 0.6865591
vn -0.7000883 -0.140545 -0.7000883
vn -0.9900743 -0.140545 0
vn 0 -0.140545 0.9900743
vn -0.7000883 -0.140545 0.7000883
vn 0.4022242 0.8224545 -0.4022242
vn 0.5688308 0.8224545 0
vn 0.7000883 -0.140545 -0.7000883
vn 0.9900743 -0.140545 0
vn 0.7000883 -0.140545 0.7000883
vn 0 0.8224545 -0.5688308
vn 0 -0.140545 -0.9900743
vn -0.5688308 0.8224545 0
vn -0.4022242 0.8224545 0.4022242
vn 0.4022242 0.8224545 0.4022242
vn -0.4022242 0.8224545 -0.4022242
vn 0 0.8224545 0.5688308
vn 0 1 0
vn 1 0 0
vn 0.7071068 0 0.7071068
vn 0.7071068 0 -0.7071068
vn 0 0 1
vn -0.7071068 0 0.7071068
vn 0 0 -1
vn -1 0 0
vn -0.7071068 0 -0.7071068
vn 0 0.140545 0.9900743
vn -0.7000883 0.140545 0.7000883
vn 0.7000883 0.140545 -0.7000883
vn 0.9900743 0.140545 0
vn -0.7000883 0.140545 -0.7000883
vn 0 0.140545 -0.9900743
vn -0.9900743 0.140545 0
vn 0.7000883 0.140545 0.7000883

vt -2.232822 3.554039
vt 2.232822 3.554039
vt -1.958616 1.611019
vt 1.958616 1.611019
vt 5.11811 -3.780087E-12
vt 3.619051 -3.619051
vt 3.619051 3.619051
vt 6.110668E-13 -5.11811
vt 6.110668E-13 5.11811
vt -3.619051 3.619051
vt -3.619051 -3.619051
vt -5.11811 -3.780087E-12
vt -2.344463 3.454475
vt -1.769438 5.934536
vt 2.344463 3.454475
vt 1.769438 5.934536
vt -1.769438 10.74494
vt -1.857011 11.69713
vt 1.769438 10.74494
vt 1.857011 11.69713
vt -2.456105 6.657649
vt 2.456105 6.657649
vt -2.232822 2.512216
vt 2.232822 2.512216
vt -1.313105 9.701068
vt -1.583486 10.51647
vt 1.313105 9.701068
vt 1.583486 10.51647
vt -3.431309 2.842171E-13
vt -2.426301 2.426301
vt -2.426301 -2.426301
vt 6.394885E-14 3.431309
vt 6.394885E-14 -3.431309
vt 2.426301 -2.426301
vt 2.426301 2.426301
vt 3.431309 2.842171E-13
vt 1.857011 12.44165
vt 1.857011 10.97567
vt -1.857011 12.44165
vt -1.857011 10.97567
vt -4.852603 2.842171E-13
vt -4.137849 2.842171E-13
vt -3.431309 -3.431309
vt -3.431309 3.431309
vt -2.925901 -2.925901
vt -2.925901 2.925901
vt 4.973799E-14 -4.852603
vt 4.973799E-14 -4.137849
vt 4.973799E-14 4.852603
vt 4.973799E-14 4.137849
vt 2.925901 2.925901
vt 3.431309 3.431309
vt 3.431309 -3.431309
vt 2.925901 -2.925901
vt 4.137849 2.842171E-13
vt 4.852603 3.126388E-13
vt 2.456105 5.11555
vt -2.456105 5.11555
vt 2.344463 7.188266
vt -2.344463 7.188266

usemtl brownLight

f 3/3/1 2/2/2 1/1/1
f 2/2/2 3/3/1 4/4/2
f 7/2/3 6/3/4 5/4/3
f 6/3/4 7/2/3 8/1/4
f 11/2/5 10/3/6 9/4/5
f 10/3/6 11/2/5 12/1/6
f 8/2/4 13/3/7 6/4/4
f 13/3/7 8/2/4 14/1/7
f 5/7/8 10/6/8 15/5/8
f 10/6/8 5/7/8 9/8/8
f 9/8/8 5/7/8 6/9/8
f 9/8/8 6/9/8 13/10/8
f 9/8/8 13/10/8 3/11/8
f 3/11/8 13/10/8 4/12/8
f 13/4/7 2/1/2 4/3/2
f 2/1/2 13/4/7 14/2/7
f 1/2/1 9/3/5 3/4/1
f 9/3/5 1/2/1 11/1/5
f 16/2/9 5/3/3 15/4/9
f 5/3/3 16/2/9 7/1/3
f 16/1/9 10/4/6 12/2/6
f 10/4/6 16/1/9 15/3/9
f 19/15/11 18/14/10 17/13/10
f 18/14/10 19/15/11 20/16/11
f 18/16/10 21/13/12 17/15/10
f 21/13/12 18/16/10 22/14/12
f 22/16/12 23/13/13 21/15/12
f 23/13/13 22/16/12 24/14/13
f 25/15/14 20/14/11 19/13/11
f 20/14/11 25/15/14 26/16/14
f 29/16/15 28/13/16 27/15/15
f 28/13/16 29/16/15 30/14/16
f 29/14/15 32/15/17 31/16/17
f 32/15/17 29/14/15 27/13/15
f 24/16/13 32/13/17 23/15/13
f 32/13/17 24/16/13 31/14/17
f 30/16/16 25/13/14 28/15/16
f 25/13/14 30/16/16 26/14/14
f 18/19/19 33/18/18 22/17/18
f 33/18/18 18/19/19 34/20/19
f 36/18/21 24/19/20 35/20/20
f 24/19/20 36/18/21 31/17/21
f 18/17/19 37/20/22 34/18/19
f 37/20/22 18/17/19 20/19/22
f 30/19/24 38/18/23 26/17/23
f 38/18/23 30/19/24 39/20/24
f 29/19/25 39/18/24 30/17/24
f 39/18/24 29/19/25 40/20/25
f 26/19/23 37/18/22 20/17/22
f 37/18/22 26/19/23 38/20/23
f 33/20/18 24/17/20 22/19/18
f 24/17/20 33/20/18 35/18/20
f 36/20/21 29/17/25 31/19/21
f 29/17/25 36/20/21 40/18/25

usemtl brownDark

f 1/23/26 42/22/27 41/21/26
f 42/22/27 1/23/26 2/24/27
f 43/22/28 14/23/29 8/24/28
f 14/23/29 43/22/28 44/21/29
f 47/27/31 46/26/30 45/25/30
f 46/26/30 47/27/31 48/28/31
f 50/21/33 12/24/32 49/22/32
f 12/24/32 50/21/33 16/23/33
f 51/22/34 8/23/28 7/24/34
f 8/23/28 51/22/34 43/21/28
f 53/25/35 46/28/30 52/26/35
f 46/28/30 53/25/35 45/27/30
f 41/22/26 11/23/36 1/24/26
f 11/23/36 41/22/26 54/21/36
f 57/26/38 56/27/37 55/28/37
f 56/27/37 57/26/38 58/25/38
f 60/28/39 47/25/31 59/27/39
f 47/25/31 60/28/39 48/26/31
f 56/25/37 61/28/40 55/26/37
f 61/28/40 56/25/37 62/27/40
f 51/21/34 16/24/33 50/22/33
f 16/24/33 51/21/34 7/23/34
f 54/22/36 12/23/32 11/24/36
f 12/23/32 54/22/36 49/21/32
f 62/25/40 52/28/35 61/26/40
f 52/28/35 62/25/40 53/27/35
f 14/24/29 42/21/27 2/23/27
f 42/21/27 14/24/29 44/22/29
f 63/26/41 58/27/38 57/28/38
f 58/27/38 63/26/41 64/25/41
f 60/26/39 64/27/41 63/28/41
f 64/27/41 60/26/39 59/25/39
f 58/31/42 62/30/42 56/29/42
f 62/30/42 58/31/42 53/32/42
f 53/32/42 58/31/42 64/33/42
f 53/32/42 64/33/42 59/34/42
f 53/32/42 59/34/42 45/35/42
f 45/35/42 59/34/42 47/36/42
f 66/39/44 36/38/43 65/37/43
f 36/38/43 66/39/44 40/40/44
f 67/37/45 36/40/43 35/38/45
f 36/40/43 67/37/45 65/39/43
f 66/37/44 39/40/46 40/38/44
f 39/40/46 66/37/44 68/39/46
f 68/37/46 38/40/47 39/38/46
f 38/40/47 68/37/46 69/39/47
f 70/37/48 35/40/45 33/38/48
f 35/40/45 70/37/48 67/39/45
f 37/40/49 69/37/47 71/39/49
f 69/37/47 37/40/49 38/38/47
f 72/37/50 33/40/48 34/38/50
f 33/40/48 72/37/50 70/39/48
f 34/40/50 71/37/49 72/39/50
f 71/37/49 34/40/50 37/38/49
f 67/43/42 55/42/42 65/41/42
f 55/42/42 66/44/42 65/41/42
f 55/42/42 67/43/42 57/45/42
f 66/44/42 55/42/42 61/46/42
f 57/45/42 67/43/42 70/47/42
f 57/45/42 70/47/42 63/48/42
f 66/44/42 61/46/42 68/49/42
f 68/49/42 61/46/42 52/50/42
f 68/49/42 52/50/42 46/51/42
f 68/49/42 46/51/42 69/52/42
f 63/48/42 70/47/42 72/53/42
f 63/48/42 72/53/42 60/54/42
f 69/52/42 46/51/42 48/55/42
f 60/54/42 72/53/42 48/55/42
f 69/52/42 48/55/42 71/56/42
f 48/55/42 72/53/42 71/56/42

usemtl yellow

f 28/59/51 44/58/52 43/57/51
f 44/58/52 28/59/51 25/60/52
f 23/59/53 50/58/54 49/57/53
f 50/58/54 23/59/53 32/60/54
f 17/59/55 54/58/56 41/57/55
f 54/58/56 17/59/55 21/60/56
f 21/59/56 49/58/53 54/57/56
f 49/58/53 21/59/56 23/60/53
f 44/57/52 19/60/57 42/58/57
f 19/60/57 44/57/52 25/59/52
f 42/57/57 17/60/55 41/58/55
f 17/60/55 42/57/57 19/59/57
f 27/59/58 43/58/51 51/57/58
f 43/58/51 27/59/58 28/60/51
f 27/60/58 50/57/54 32/59/54
f 50/57/54 27/60/58 51/58/58

