# Created by Kenney (www.kenney.nl)

mtllib hotDogRaw.mtl

g hotDogRaw

v 0.29295 0.04832422 -0.02710662
v 0.29295 0.0248492 -0.01355331
v 0.29295 0.07179924 -0.01355331
v 0.29295 0.07179924 0.01355331
v 0.29295 0.0248492 0.01355331
v 0.29295 0.04832422 0.02710662
v 0.23715 0.09664843 0.0279
v -0.23715 0.09664843 0.0279
v 0.23715 0.09664843 -0.0279
v -0.23715 0.09664843 -0.0279
v 0.23715 5.639933E-17 0.0279
v -0.23715 6.174598E-14 0.0279
v 0.23715 0.04832422 0.0558
v -0.23715 0.04832422 0.0558
v 0.23715 0 -0.0279
v 0.26505 0.01884644 -0.017019
v 0.23715 0.04832422 -0.0558
v 0.26505 0.04832422 -0.034038
v -0.26505 0.01884644 0.017019
v -0.26505 0.04832422 0.034038
v -0.29295 0.0248492 0.01355331
v -0.29295 0.04832422 0.02710662
v -0.26505 0.03401018 0.008264214
v -0.26505 0.04832422 0.01652843
v -0.23715 6.165575E-14 -0.0279
v -0.26505 0.07780199 0.017019
v -0.23715 0.04832422 -0.0558
v -0.26505 0.01884644 -0.017019
v -0.26505 0.04832422 -0.034038
v -0.26505 0.07780199 -0.017019
v -0.29295 0.0248492 -0.01355331
v -0.26505 0.03401018 -0.008264213
v -0.29295 0.04832422 -0.02710662
v -0.26505 0.04832422 -0.01652843
v -0.26505 0.06263825 0.008264214
v -0.29295 0.07179924 0.01355331
v -0.26505 0.06263825 -0.008264213
v -0.29295 0.07179924 -0.01355331
v 0.26505 0.04832422 0.034038
v 0.26505 0.07780199 0.017019
v 0.26505 0.03401018 0.008264214
v 0.26505 0.03401018 -0.008264214
v 0.26505 0.04832422 0.01652843
v 0.26505 0.07780199 -0.017019
v 0.26505 0.04832422 -0.01652843
v 0.26505 0.06263825 -0.008264214
v 0.26505 0.01884644 0.017019
v 0.26505 0.06263825 0.008264214

vn 1 0 0
vn 0 0.8660254 0.5
vn 0 0.8660254 -0.5
vn 0 -0.8660254 0.5
vn 0 0 1
vn 0.6150318 -0.6828631 -0.3942512
vn 0.6150318 0 -0.7885023
vn -0.6150318 -0.6828631 0.3942512
vn -0.6150318 -0.682863 0.3942512
vn -0.6150318 0 0.7885023
vn 0.3545205 -0.8097755 0.4675241
vn 0.3545205 0 0.9350483
vn 0 -0.8660254 -0.5
vn -0.6150318 0.6828631 0.3942512
vn -0.6150318 0.682863 0.3942512
vn -0.6150318 -0.6828631 -0.3942512
vn -0.6150318 0 -0.7885023
vn -0.6150318 0.6828631 -0.3942512
vn 0.3545205 -0.8097755 -0.4675241
vn 0.3545205 0 -0.9350483
vn 0.3545205 0.8097755 0.4675241
vn 0 0 -1
vn 0.3545205 0.8097755 -0.4675241
vn 0.6150318 0 0.7885023
vn 0.6150318 0.6828631 0.3942512
vn -1 0 0
vn -0.3545205 -0.8097755 0.4675241
vn -0.3545205 -0.8097755 -0.4675241
vn -0.3545205 0 0.9350483
vn -0.3545205 0.8097755 0.4675241
vn -0.3545205 0.8097755 -0.4675241
vn 0.6150318 -0.6828631 0.3942512
vn 0.6150318 0.6828631 -0.3942512
vn -0.3545205 0 -0.9350483

vt 1.06719 1.902528
vt 0.5335949 0.9783148
vt 0.5335949 2.826742
vt -0.5335949 2.826742
vt -0.5335949 0.9783148
vt -1.06719 1.902528
vt -9.336615 1.098425
vt 9.336615 1.098425
vt -9.336615 -1.098425
vt 9.336615 -1.098425
vt 9.336615 0.5492126
vt -9.336615 0.5492126
vt 9.336615 2.746063
vt -9.336615 2.746063
vt -6.686376 2.738058
vt -7.815957 3.553313
vt -6.010809 4.828455
vt -7.403862 4.828455
vt -6.686375 2.738058
vt -10.97352 -0.8444987
vt -11.16269 0.2057911
vt -9.872613 -0.4346295
vt -9.987961 0.2057911
vt -6.010809 -1.365368
vt -7.403862 -1.365368
vt -6.686375 0.7250291
vt -7.815957 -0.09022599
vt 6.686375 2.738058
vt 6.010809 4.828455
vt 7.815957 3.553313
vt 7.403862 4.828455
vt 6.010809 -1.365368
vt 6.686375 0.725029
vt 7.403862 -1.365368
vt 7.815957 -0.09022601
vt 10.97352 -0.8444986
vt 9.872613 -0.4346294
vt 11.16269 0.2057912
vt 9.987961 0.2057912
vt -9.987961 3.142508
vt -11.16269 3.142508
vt -9.872613 3.782929
vt -10.97352 4.192798
vt 1.098425 7.736846
vt -1.098425 7.736846
vt 0.6700394 9.062396
vt -0.6700394 9.062396
vt -0.3253626 -9.496552
vt 0.3253629 -9.496552
vt -0.5335947 -10.65268
vt 0.533595 -10.65268
vt -0.3253626 10.68359
vt -0.5335947 11.83972
vt 0.3253629 10.68359
vt 0.533595 11.83972
vt 7.815957 -0.09022599
vt 6.686376 0.7250291
vt -1.340079 1.902528
vt -0.6700395 3.063071
vt -0.6700395 0.741986
vt -0.6507256 1.902528
vt -0.3253629 1.338983
vt -0.3253629 2.466073
vt 0.6700392 0.741986
vt 0.6700392 3.063071
vt 0.3253626 1.338983
vt 0.3253626 2.466073
vt 0.6507254 1.902528
vt 1.340079 1.902528
vt 0.5335949 -10.65268
vt -0.5335949 -10.65268
vt 0.3253627 -9.496552
vt -0.3253627 -9.496552
vt 10.97352 -0.8444986
vt 9.872613 -0.4346294
vt 11.16269 0.2057911
vt 9.987961 0.2057911
vt 1.098425 -5.606938
vt 0.6700394 -6.932487
vt -1.098425 -5.606938
vt -0.6700394 -6.932487
vt 9.987961 3.142508
vt 9.872613 3.782929
vt 11.16269 3.142508
vt 10.97352 4.192798
vt -1.06719 1.902528
vt -0.533595 2.826742
vt -0.533595 0.9783148
vt 0.5335947 0.9783148
vt 0.5335947 2.826742
vt 1.06719 1.902528
vt 1.340079 1.902528
vt 0.6700394 0.741986
vt 0.6700394 3.063071
vt 0.6507255 1.902528
vt 0.3253627 2.466073
vt 0.3253627 1.338983
vt -0.6700394 3.063071
vt -0.6700394 0.741986
vt -0.3253627 2.466073
vt -0.3253627 1.338983
vt -0.6507255 1.902528
vt -1.340079 1.902528
vt 0.5335949 11.83972
vt 0.3253627 10.68359
vt -0.5335949 11.83972
vt -0.3253627 10.68359
vt -0.6700394 9.062396
vt -1.098425 7.736846
vt -0.6700394 -6.932487
vt -1.098425 -5.606938
vt -10.97352 -0.8444986
vt -11.16269 0.2057911
vt -9.872613 -0.4346294
vt -9.987961 0.2057911
vt -7.815957 -0.09022599
vt -6.686376 0.7250291
vt -10.97352 4.192798
vt 6.686376 2.738058

usemtl brownLight

f 3/3/1 2/2/1 1/1/1
f 2/2/1 3/3/1 4/4/1
f 2/2/1 4/4/1 5/5/1
f 5/5/1 4/4/1 6/6/1
f 9/9/3 8/8/2 7/7/2
f 8/8/2 9/9/3 10/10/3
f 13/13/5 12/12/4 11/11/4
f 12/12/4 13/13/5 14/14/5
f 17/17/7 16/16/6 15/15/6
f 16/16/6 17/17/7 18/18/7
f 14/17/10 19/16/9 12/19/8
f 19/16/9 14/17/10 20/18/10
f 23/22/11 22/21/12 21/20/11
f 22/21/12 23/22/11 24/23/12
f 12/7/4 15/10/13 11/8/4
f 15/10/13 12/7/4 25/9/13
f 8/26/14 20/25/10 14/24/10
f 20/25/10 8/26/14 26/27/15
f 28/30/16 27/29/17 25/28/16
f 27/29/17 28/30/16 29/31/17
f 29/34/17 10/33/18 27/32/17
f 10/33/18 29/34/17 30/35/18
f 33/38/20 32/37/19 31/36/19
f 32/37/19 33/38/20 34/39/20
f 35/42/21 22/41/12 24/40/12
f 22/41/12 35/42/21 36/43/21
f 7/13/2 14/12/5 13/11/5
f 14/12/5 7/13/2 8/14/2
f 19/46/9 25/45/16 12/44/8
f 25/45/16 19/46/9 28/47/16
f 21/50/11 32/49/19 23/48/11
f 32/49/19 21/50/11 31/51/19
f 25/11/13 17/14/22 15/12/13
f 17/14/22 25/11/13 27/13/22
f 37/54/23 36/53/21 35/52/21
f 36/53/21 37/54/23 38/55/23
f 40/56/25 13/32/24 39/34/24
f 13/32/24 40/56/25 7/57/25
f 28/60/26 30/59/26 29/58/26
f 30/59/26 28/60/26 34/61/26
f 34/61/26 28/60/26 32/62/26
f 37/63/26 30/59/26 34/61/26
f 32/62/26 28/60/26 19/64/26
f 30/59/26 37/63/26 26/65/26
f 32/62/26 19/64/26 23/66/26
f 26/65/26 37/63/26 35/67/26
f 23/66/26 19/64/26 24/68/26
f 26/65/26 35/67/26 24/68/26
f 26/65/26 24/68/26 19/64/26
f 26/65/26 19/64/26 20/69/26
f 41/72/27 2/71/28 5/70/27
f 2/71/28 41/72/27 42/73/28
f 6/76/29 41/75/27 5/74/27
f 41/75/27 6/76/29 43/77/29
f 27/11/22 9/14/3 17/12/22
f 9/14/3 27/11/22 10/13/3
f 10/80/18 26/79/15 8/78/14
f 26/79/15 10/80/18 30/81/18
f 33/84/20 37/83/23 34/82/20
f 37/83/23 33/84/20 38/85/23
f 31/88/26 38/87/26 33/86/26
f 38/87/26 31/88/26 21/89/26
f 38/87/26 21/89/26 36/90/26
f 36/90/26 21/89/26 22/91/26
f 44/94/1 16/93/1 18/92/1
f 16/93/1 44/94/1 45/95/1
f 45/95/1 44/94/1 46/96/1
f 42/97/1 16/93/1 45/95/1
f 46/96/1 44/94/1 40/98/1
f 16/93/1 42/97/1 47/99/1
f 46/96/1 40/98/1 48/100/1
f 47/99/1 42/97/1 41/101/1
f 48/100/1 40/98/1 43/102/1
f 47/99/1 41/101/1 43/102/1
f 47/99/1 43/102/1 40/98/1
f 47/99/1 40/98/1 39/103/1
f 3/106/31 48/105/30 4/104/30
f 48/105/30 3/106/31 46/107/31
f 11/109/32 16/46/6 47/108/32
f 16/46/6 11/109/32 15/44/6
f 44/79/33 7/111/25 40/110/25
f 7/111/25 44/79/33 9/78/33
f 42/114/28 1/113/34 2/112/28
f 1/113/34 42/114/28 45/115/34
f 17/24/7 44/116/33 18/25/7
f 44/116/33 17/24/7 9/117/33
f 45/40/34 3/118/31 1/41/34
f 3/118/31 45/40/34 46/42/31
f 47/30/32 13/29/24 11/119/32
f 13/29/24 47/30/32 39/31/24
f 4/85/30 43/82/29 6/84/29
f 43/82/29 4/85/30 48/83/30

