# Created by Kenney (www.kenney.nl)

mtllib iceCreamCup.mtl

g iceCreamCup

v 0.06500261 0.1066 -0.03752928
v -7.219114E-16 0.1066 -0.07505856
v 0.07303664 0.1804 -0.04216773
v -1.443823E-15 0.1804 -0.08433545
v -0.06500261 0.1066 -0.03752928
v -0.07303664 0.1804 -0.04216773
v -1.082867E-15 0.1066 0.07505856
v 0.06500261 0.1066 0.03752928
v -1.804779E-15 0.1804 0.08433545
v 0.07303664 0.1804 0.04216773
v -0.06500261 0.1066 0.03752928
v -0.07303664 0.1804 0.04216773
v 0.06635149 0.0328 -0.03830805
v 0.06635149 0 -0.03830805
v 0.06635149 0.0328 0.03830805
v 0.06635149 0 0.03830805
v -0.06635149 0 -0.03830805
v 0 0 -0.0766161
v -0.06635149 0.0328 -0.03830805
v 0 0.0328 -0.0766161
v 0 0 0.0766161
v -0.06635149 0 0.03830805
v 0 0.0328 0.0766161
v -0.06635149 0.0328 0.03830805
v 0.1005326 0.1312 0.0580425
v -1.804779E-15 0.1312 0.116085
v -0.1005326 0.1312 0.0580425
v -1.804779E-15 0.1312 -0.116085
v 0.1005326 0.1312 -0.0580425
v -0.1005326 0.1312 -0.0580425
v -0.1005326 0.1804 -0.0580425
v -1.804779E-15 0.1804 -0.116085
v 0.1005326 0.1804 -0.0580425
v -0.1005326 0.1804 0.0580425
v 0.1005326 0.1804 0.0580425
v -1.804779E-15 0.1804 0.116085

vn -0.8592633 0.1247217 0.4960958
vn 0 0.1247217 0.9921917
vn 0.8592633 0.1247217 0.4960958
vn 0 0.1247217 -0.9921917
vn -0.8592633 0.1247217 -0.4960958
vn 0.8592633 0.1247217 -0.4960958
vn 0 1 0
vn 0.8660254 0 -0.5
vn 0.8660254 0 0.5
vn -0.8660254 0 -0.5
vn 0 0 -1
vn 0 0 1
vn -0.8660254 0 0.5
vn 0 -1 0
vn 0.8037773 -0.372276 0.464061
vn 0 -0.372276 0.9281221
vn -0.8037773 -0.372276 0.464061
vn 0 -0.372276 -0.9281221
vn 0.8037773 -0.372276 -0.464061
vn -0.8037773 -0.372276 -0.464061

vt 1.477531 4.44916
vt -1.477531 4.44916
vt 1.660147 7.371838
vt -1.660147 7.371838
vt -2.559158 -1.477531
vt -2.559158 1.477531
vt 2.842171E-14 -2.955061
vt 4.263256E-14 2.955061
vt 2.559158 -1.477531
vt 2.559158 1.477531
vt 1.508191 1.291339
vt 1.508191 0
vt -1.508191 1.291339
vt -1.508191 0
vt 2.612263 1.508191
vt 2.612263 -1.508191
vt 0 3.016382
vt 0 -3.016382
vt -2.612263 1.508191
vt -2.612263 -1.508191
vt 1.508191 2.077013
vt -1.508191 2.077013
vt 2.285138 6.178103
vt -2.285138 6.178103
vt 2.285138 5.165354
vt -2.285138 5.165354
vt 2.285138 7.102362
vt -2.285138 7.102362
vt -3.957975 2.285138
vt -2.875458 -1.660147
vt -3.957975 -2.285138
vt 7.105427E-14 -4.570276
vt -2.875458 1.660147
vt 5.684342E-14 -3.320293
vt 2.875458 -1.660147
vt 3.957975 -2.285138
vt 7.105427E-14 4.570276
vt 7.105427E-14 3.320293
vt 2.875458 1.660147
vt 3.957975 2.285138

usemtl brownLight

f 3/3/1 2/2/2 1/1/1
f 2/2/2 3/3/1 4/4/2
f 4/3/2 5/2/3 2/1/2
f 5/2/3 4/3/2 6/4/3
f 9/3/4 8/2/5 7/1/4
f 8/2/5 9/3/4 10/4/5
f 1/2/1 10/3/5 3/4/1
f 10/3/5 1/2/1 8/1/5
f 12/3/6 7/2/4 11/1/6
f 7/2/4 12/3/6 9/4/4
f 12/4/6 5/1/3 6/3/3
f 5/1/3 12/4/6 11/2/6
f 2/7/7 8/6/7 1/5/7
f 8/6/7 2/7/7 7/8/7
f 7/8/7 2/7/7 5/9/7
f 7/8/7 5/9/7 11/10/7
f 15/13/9 14/12/8 13/11/8
f 14/12/8 15/13/9 16/14/9
f 19/11/10 18/14/11 17/12/10
f 18/14/11 19/11/10 20/13/11
f 23/11/12 22/14/13 21/12/12
f 22/14/13 23/11/12 24/13/13
f 22/12/13 19/13/10 17/14/10
f 19/13/10 22/12/13 24/11/13
f 15/11/9 21/14/12 16/12/9
f 21/14/12 15/11/9 23/13/12
f 20/11/11 14/14/8 18/12/11
f 14/14/8 20/11/11 13/13/8
f 21/17/14 14/16/14 16/15/14
f 14/16/14 21/17/14 18/18/14
f 18/18/14 21/17/14 22/19/14
f 18/18/14 22/19/14 17/20/14
f 25/23/15 23/22/16 15/21/15
f 23/22/16 25/23/15 26/24/16
f 26/23/16 24/22/17 23/21/16
f 24/22/17 26/23/16 27/24/17
f 28/23/18 13/22/19 20/21/18
f 13/22/19 28/23/18 29/24/19
f 25/24/15 13/21/19 29/23/19
f 13/21/19 25/24/15 15/22/15
f 19/22/20 27/23/17 30/24/20
f 27/23/17 19/22/20 24/21/17
f 30/23/20 20/22/18 19/21/20
f 20/22/18 30/23/20 28/24/18
f 31/27/10 28/26/11 30/25/10
f 28/26/11 31/27/10 32/28/11
f 32/27/11 29/26/8 28/25/11
f 29/26/8 32/27/11 33/28/8
f 27/25/13 31/28/10 30/26/10
f 31/28/10 27/25/13 34/27/13
f 35/27/9 26/26/12 25/25/9
f 26/26/12 35/27/9 36/28/12
f 36/27/12 27/26/13 26/25/12
f 27/26/13 36/27/12 34/28/13
f 35/28/9 29/25/8 33/27/8
f 29/25/8 35/28/9 25/26/9
f 33/31/7 3/30/7 35/29/7
f 3/30/7 33/31/7 32/32/7
f 10/33/7 35/29/7 3/30/7
f 3/30/7 32/32/7 4/34/7
f 4/34/7 32/32/7 6/35/7
f 6/35/7 32/32/7 31/36/7
f 35/29/7 10/33/7 36/37/7
f 36/37/7 10/33/7 9/38/7
f 6/35/7 31/36/7 12/39/7
f 36/37/7 9/38/7 12/39/7
f 34/40/7 12/39/7 31/36/7
f 36/37/7 12/39/7 34/40/7

