# Created by Kenney (www.kenney.nl)

mtllib iceCreamScoopMint.mtl

g iceCreamScoopMint

v -1.804779E-15 0.02538764 0.1358195
v -0.1176231 0.02538764 0.06790973
v -2.52669E-15 0.05077529 0.116085
v -0.1005326 0.05077529 0.0580425
v -2.52669E-15 0 -0.116085
v 0.1005326 0 -0.0580425
v -1.804779E-15 0.02538764 -0.1358195
v 0.1176231 0.02538764 -0.06790973
v 0.1005326 0 0.0580425
v -2.52669E-15 0 0.116085
v 0.1176231 0.02538764 0.06790973
v -0.1005326 0 0.0580425
v -0.1176231 0.02538764 -0.06790973
v -0.1005326 0 -0.0580425
v -0.1005326 0.05077529 -0.0580425
v -2.52669E-15 0.05077529 -0.116085
v 0.1005326 0.05077529 -0.0580425
v 0.1005326 0.05077529 0.0580425
v 0.08746333 0.1269382 -0.05049697
v 0.0498541 0.1650197 -0.02878327
v -2.52669E-15 0.1269382 -0.1009939
v -1.082867E-15 0.1650197 -0.05756655
v -0.0498541 0.1650197 -0.02878327
v -0.0498541 0.1650197 0.02878327
v -0.08746333 0.1269382 -0.05049697
v -0.08746333 0.1269382 0.05049697
v -1.082867E-15 0.1650197 0.05756655
v -2.52669E-15 0.1269382 0.1009939
v 0.08746333 0.1269382 0.05049697
v 0.0498541 0.1650197 0.02878327

vn 0 0.8042429 0.7351354
vn -0.636646 0.8042429 0.3675677
vn 0 -0.8042429 -0.7351354
vn 0.636646 -0.8042429 -0.3675677
vn 0.636646 -0.8042429 0.3675677
vn 0 -0.8042429 0.7351354
vn -0.636646 -0.8042429 0.3675677
vn -0.636646 -0.8042429 -0.3675677
vn -0.636646 0.8042429 -0.3675677
vn 0 0.8042429 -0.7351354
vn 0.636646 0.8042429 -0.3675677
vn 0.636646 0.8042429 0.3675677
vn 0 -1.186338 0
vn 0.5147731 0.9540094 -0.2972044
vn 0 0.9540094 -0.5944089
vn -0.5147731 0.9540094 -0.2972044
vn -0.5147731 0.9540094 0.2972044
vn 0 0.9540094 0.5944089
vn 0.5147731 0.9540094 0.2972044
vn -0.8430474 0.2714653 -0.4867336
vn 0 0.2714653 -0.9734673
vn -0.8430474 0.2714653 0.4867336
vn 0.8430474 0.2714653 0.4867336
vn 0 0.2714653 0.9734673
vn 0.8430474 0.2714653 -0.4867336
vn 0 1.186338 0

vt 2.673611 -2.231479
vt -2.673611 -2.231479
vt 2.285138 -1.153251
vt -2.285138 -1.153251
vt 2.285138 2.46993
vt -2.285138 2.46993
vt 2.673611 3.548157
vt -2.673611 3.548157
vt 3.957975 2.285138
vt 3.957975 -2.285138
vt -9.947598E-14 4.570276
vt -9.947598E-14 -4.570276
vt -3.957975 2.285138
vt -3.957975 -2.285138
vt -1.98807 0.1156697
vt -1.1332 2.062346
vt 1.98807 0.1156697
vt 1.1332 2.062346
vt 2.285138 0.8616397
vt -2.285138 0.8616397
vt 1.98807 3.441039
vt -1.98807 3.441039
vt -1.96276 -1.1332
vt -1.96276 1.1332
vt 4.263256E-14 -2.2664
vt 4.263256E-14 2.2664
vt 1.96276 -1.1332
vt 1.96276 1.1332

usemtl green

f 3/3/1 2/2/2 1/1/1
f 2/2/2 3/3/1 4/4/2
f 7/7/3 6/6/4 5/5/3
f 6/6/4 7/7/3 8/8/4
f 11/7/5 10/6/6 9/5/5
f 10/6/6 11/7/5 1/8/6
f 1/7/6 12/6/7 10/5/6
f 12/6/7 1/7/6 2/8/7
f 14/6/8 2/7/7 13/8/8
f 2/7/7 14/6/8 12/5/7
f 11/8/5 6/5/4 8/7/4
f 6/5/4 11/8/5 9/6/5
f 13/7/8 5/6/3 14/5/8
f 5/6/3 13/7/8 7/8/3
f 2/1/2 15/4/9 13/2/9
f 15/4/9 2/1/2 4/3/2
f 15/3/9 7/2/10 13/1/9
f 7/2/10 15/3/9 16/4/10
f 17/3/11 11/2/12 8/1/11
f 11/2/12 17/3/11 18/4/12
f 10/11/13 6/10/13 9/9/13
f 6/10/13 10/11/13 5/12/13
f 5/12/13 10/11/13 12/13/13
f 5/12/13 12/13/13 14/14/13
f 16/3/10 8/2/11 7/1/10
f 8/2/11 16/3/10 17/4/11
f 18/3/12 1/2/1 11/1/12
f 1/2/1 18/3/12 3/4/1
f 21/17/15 20/16/14 19/15/14
f 20/16/14 21/17/15 22/18/15
f 25/15/16 24/18/17 23/16/16
f 24/18/17 25/15/16 26/17/17
f 24/16/17 28/17/18 27/18/18
f 28/17/18 24/16/17 26/15/17
f 30/18/19 28/15/18 29/17/19
f 28/15/18 30/18/19 27/16/18
f 21/15/15 23/18/16 22/16/15
f 23/18/16 21/15/15 25/17/16
f 25/21/20 16/20/21 15/19/20
f 16/20/21 25/21/20 21/22/21
f 4/19/22 25/22/20 15/20/20
f 25/22/20 4/19/22 26/21/22
f 29/21/23 3/20/24 18/19/23
f 3/20/24 29/21/23 28/22/24
f 28/21/24 4/20/22 3/19/24
f 4/20/22 28/21/24 26/22/22
f 19/21/25 18/20/23 17/19/25
f 18/20/23 19/21/25 29/22/23
f 21/21/21 17/20/25 16/19/21
f 17/20/25 21/21/21 19/22/25
f 22/25/26 30/24/26 20/23/26
f 30/24/26 22/25/26 27/26/26
f 27/26/26 22/25/26 23/27/26
f 27/26/26 23/27/26 24/28/26
f 20/18/14 29/15/19 19/17/14
f 29/15/19 20/18/14 30/16/19

