# Created by Kenney (www.kenney.nl)

mtllib iceCreamCone.mtl

g iceCreamCone

v 0.03656581 0.1065 -0.02111128
v 0.03656581 0.1065 0.02111128
v -3.609557E-16 0.1065 -0.04222256
v -3.609557E-16 0.1065 0.04222256
v -0.03656581 0.1065 -0.02111128
v -0.03656581 0.1065 0.02111128
v -1.082867E-15 0 -0.0213
v 0.01844634 0 -0.01065
v -2.52669E-15 0.2982 -0.1065
v 0.09223171 0.2982 -0.05325
v 0.09223171 0.2982 0.05325
v 0.01844634 0 0.01065
v -1.082867E-15 0 0.0213
v -0.01844634 0 0.01065
v -0.01844634 0 -0.01065
v -0.09223171 0.2982 -0.05325
v -0.09223171 0.2982 0.05325
v -2.52669E-15 0.2982 0.1065
v 0.07313161 0.2982 -0.04222256
v 0.07313161 0.2982 0.04222256
v -2.165734E-15 0.2982 -0.08444511
v -0.07313161 0.2982 0.04222256
v -2.165734E-15 0.2982 0.08444511
v -0.07313161 0.2982 -0.04222256

vn 0 1 0
vn 0 -0.2747211 -0.961524
vn 0.8327042 -0.2747211 -0.480762
vn 0.8327042 -0.2747211 0.480762
vn 0 -1 0
vn -0.8327042 -0.2747211 -0.480762
vn -0.8327042 -0.2747211 0.480762
vn 0 -0.2747211 0.961524
vn -0.845754 0.2150977 0.4882962
vn -0.845754 0.2150977 -0.4882962
vn 0 0.2150977 0.9765926
vn 0.845754 0.2150977 -0.4882962
vn 0 0.2150977 -0.9765926
vn 0.845754 0.2150977 0.4882962

vt -1.439599 -0.8311527
vt -1.439599 0.8311527
vt 1.421085E-14 -1.662305
vt 1.421085E-14 1.662305
vt 1.439599 -0.8311527
vt 1.439599 0.8311527
vt 0.4192913 0.1744357
vt -0.4192913 0.1744357
vt 2.096457 12.26865
vt -2.096457 12.26865
vt 0.7262339 0.4192913
vt 0.7262339 -0.4192913
vt -4.263256E-14 0.8385827
vt -4.263256E-14 -0.8385827
vt -0.7262339 0.4192913
vt -0.7262339 -0.4192913
vt -1.662305 12.07171
vt 1.662305 12.07171
vt -0.8311527 4.38839
vt 0.8311527 4.38839
vt 8.526513E-14 -3.324611
vt 9.947598E-14 -4.192914
vt -2.879197 -1.662305
vt 2.879197 -1.662305
vt -3.63117 -2.096457
vt 3.63117 -2.096457
vt -3.63117 2.096457
vt -2.879197 1.662305
vt 2.879197 1.662305
vt 3.63117 2.096457
vt 9.947598E-14 4.192914
vt 8.526513E-14 3.324611

usemtl brownLight

f 3/3/1 2/2/1 1/1/1
f 2/2/1 3/3/1 4/4/1
f 4/4/1 3/3/1 5/5/1
f 4/4/1 5/5/1 6/6/1
f 9/9/2 8/8/3 7/7/2
f 8/8/3 9/9/2 10/10/3
f 11/10/4 8/7/3 10/9/3
f 8/7/3 11/10/4 12/8/4
f 13/13/5 8/12/5 12/11/5
f 8/12/5 13/13/5 7/14/5
f 7/14/5 13/13/5 14/15/5
f 7/14/5 14/15/5 15/16/5
f 15/8/6 17/9/7 16/10/6
f 17/9/7 15/8/6 14/7/7
f 18/9/8 14/8/7 13/7/8
f 14/8/7 18/9/8 17/10/7
f 16/9/6 7/8/2 15/7/6
f 7/8/2 16/9/6 9/10/2
f 11/9/4 13/8/8 12/7/4
f 13/8/8 11/9/4 18/10/8
f 1/19/9 20/18/10 19/17/9
f 20/18/10 1/19/9 2/20/10
f 19/18/9 3/19/11 1/20/9
f 3/19/11 19/18/9 21/17/11
f 22/18/12 4/19/13 6/20/12
f 4/19/13 22/18/12 23/17/13
f 23/18/13 2/19/10 4/20/13
f 2/19/10 23/18/13 20/17/10
f 21/18/11 5/19/14 3/20/11
f 5/19/14 21/18/11 24/17/14
f 22/17/12 5/20/14 24/18/14
f 5/20/14 22/17/12 6/19/12
f 19/23/1 9/22/1 21/21/1
f 21/21/1 9/22/1 24/24/1
f 19/23/1 10/25/1 9/22/1
f 24/24/1 9/22/1 16/26/1
f 10/25/1 19/23/1 11/27/1
f 20/28/1 11/27/1 19/23/1
f 24/24/1 16/26/1 22/29/1
f 17/30/1 22/29/1 16/26/1
f 11/27/1 20/28/1 18/31/1
f 18/31/1 22/29/1 17/30/1
f 18/31/1 20/28/1 23/32/1
f 18/31/1 23/32/1 22/29/1

