# Created by Kenney (www.kenney.nl)

mtllib lemonHalf.mtl

g lemonHalf

v 0.08660254 0.112 -0.05
v 0.07621023 0.072 -0.044
v 0.08660254 0.112 0.05
v 0.07621023 0.072 0.044
v 1.082867E-15 0.016 -0.032508
v 3.609557E-16 0.04 -0.06959999
v -0.02815275 0.016 -0.016254
v -0.06027536 0.04 -0.0348
v 3.609557E-16 0 -0.021156
v 0.01832163 0 -0.010578
v 0.02815275 0.016 -0.016254
v -0.01832163 0 -0.010578
v -0.07621023 0.072 -0.044
v -3.609557E-16 0.072 -0.088
v -0.08660254 0.112 -0.05
v -3.609557E-16 0.112 -0.1
v -3.609557E-16 0.072 0.088
v -3.609557E-16 0.112 0.1
v 0.06027536 0.04 0.0348
v 3.609557E-16 0.04 0.06959999
v -0.06027536 0.04 0.0348
v -0.07621023 0.072 0.044
v 1.082867E-15 0.016 0.032508
v -0.02815275 0.016 0.016254
v 0.02815275 0.016 0.016254
v 0.01832163 0 0.010578
v 0.06027536 0.04 -0.0348
v -0.01832163 0 0.010578
v 3.609557E-16 0 0.021156
v -0.08660254 0.112 0.05
v 0.06790655 0.112 -0.03585593
v 0.06790655 0.112 0.03585593
v 0.036014 0.112 -0.01172829
v 0.036014 0.112 0.01172829
v 0.028164 0.112 -0.02532489
v 0.028164 0.112 0.02532489
v 0.002901123 0.112 0.07673676
v 0.06500542 0.112 0.04088083
v 0.01173628 0.112 0.006775943
v 0.007850003 0.112 0.03705318
v -3.609557E-16 0.112 0.01355189
v -0.007850003 0.112 0.03705318
v 0.01173628 0.112 -0.006775943
v -0.01173628 0.112 0.006775943
v 0.002901123 0.112 -0.07673676
v 0.06500542 0.112 -0.04088083
v 0.007850003 0.112 -0.03705318
v -3.609557E-16 0.112 -0.01355189
v -0.007850003 0.112 -0.03705318
v -0.01173628 0.112 -0.006775943
v -0.028164 0.112 -0.02532489
v -0.06500542 0.112 -0.04088083
v -0.002901123 0.112 -0.07673676
v -0.028164 0.112 0.02532489
v -0.036014 0.112 -0.01172829
v -0.06500542 0.112 0.04088083
v -0.002901123 0.112 0.07673676
v -0.036014 0.112 0.01172829
v -0.06790655 0.112 -0.03585593
v -0.06790655 0.112 0.03585593

vn 0.8295019 -0.2873479 -0.4789132
vn 0.8295019 -0.2873479 0.4789132
vn 0 -0.8395774 -0.54324
vn -0.4704596 -0.8395774 -0.27162
vn 0 -0.5786507 -0.8155754
vn 0.7063091 -0.5786508 -0.4077878
vn -0.7063091 -0.5786508 -0.4077878
vn -0.8295019 -0.2873479 -0.4789132
vn 0 -0.2873479 -0.9578263
vn 0 -0.2873479 0.9578263
vn 0.7507629 -0.4984711 0.4334531
vn 0 -0.4984711 0.8669063
vn -0.7507629 -0.4984711 0.4334531
vn 0 -0.8395774 0.54324
vn -0.4704596 -0.8395774 0.27162
vn 0.7063091 -0.5786508 0.4077878
vn 0.7507629 -0.4984711 -0.4334531
vn -0.7063091 -0.5786508 0.4077878
vn 0 -0.5786507 0.8155754
vn 0.4704596 -0.8395774 -0.27162
vn -0.8295019 -0.2873479 0.4789132
vn 0.4704596 -0.8395774 0.27162
vn -0.7507629 -0.4984711 -0.4334531
vn 0 -0.4984711 -0.8669063
vn 0 1 0
vn 0 -1 0

vt 1.968504 5.125127
vt 1.732283 3.498042
vt -1.968504 5.125127
vt -1.732283 3.498042
vt -0.6399212 1.264947
vt -1.370079 2.843615
vt 0.6399212 1.264947
vt 1.370079 2.843615
vt 0.4164567 0.3776252
vt -0.4164567 0.3776252
vt 0.6399212 1.116956
vt -0.6399212 1.116956
vt 1.370079 2.467491
vt -1.370079 2.467491
vt 1.732283 3.874892
vt -1.732283 3.874892
vt -2.673486 -1.411651
vt -2.673486 1.411651
vt -1.417874 -0.4617437
vt -1.417874 0.4617437
vt -1.108819 -0.997043
vt -1.108819 0.997043
vt -0.1142174 3.021132
vt -2.559269 1.609481
vt -0.4620582 0.2667694
vt -0.3090552 1.458787
vt 1.421085E-14 0.5335388
vt 0.3090552 1.458787
vt -0.4620582 -0.2667694
vt 0.4620582 0.2667694
vt -0.1142174 -3.021132
vt -2.559269 -1.609481
vt -0.3090552 -1.458787
vt 1.421085E-14 -0.5335388
vt 0.3090552 -1.458787
vt 0.4620582 -0.2667694
vt 1.108819 -0.997043
vt 2.559269 -1.609481
vt 0.1142174 -3.021132
vt 1.108819 0.997043
vt 1.417874 -0.4617437
vt 2.559269 1.609481
vt 0.1142174 3.021132
vt 1.417874 0.4617437
vt 2.673486 -1.411651
vt 2.673486 1.411651
vt 0.7213241 0.4164567
vt 0.7213241 -0.4164567
vt 1.421085E-14 0.8329134
vt 1.421085E-14 -0.8329134
vt -0.7213241 0.4164567
vt -0.7213241 -0.4164567

usemtl yellow

f 3/3/2 2/2/1 1/1/1
f 2/2/1 3/3/2 4/4/2
f 7/7/4 6/6/3 5/5/3
f 6/6/3 7/7/4 8/8/4
f 5/11/5 10/10/6 9/9/5
f 10/10/6 5/11/5 11/12/6
f 7/11/7 9/10/5 12/9/7
f 9/10/5 7/11/7 5/12/5
f 15/1/8 14/4/9 13/2/8
f 14/4/9 15/1/8 16/3/9
f 3/1/2 17/4/10 4/2/2
f 17/4/10 3/1/2 18/3/10
f 4/15/11 20/14/12 19/13/11
f 20/14/12 4/15/11 17/16/12
f 17/15/12 21/14/13 20/13/12
f 21/14/13 17/15/12 22/16/13
f 20/8/14 24/5/15 23/7/14
f 24/5/15 20/8/14 21/6/15
f 16/1/9 2/4/1 14/2/9
f 2/4/1 16/1/9 1/3/1
f 21/8/15 7/5/4 24/7/15
f 7/5/4 21/8/15 8/6/4
f 25/12/16 10/9/6 11/11/6
f 10/9/6 25/12/16 26/10/16
f 4/16/11 27/13/17 2/15/17
f 27/13/17 4/16/11 19/14/11
f 12/10/7 24/11/18 7/12/7
f 24/11/18 12/10/7 28/9/18
f 25/11/16 29/10/19 26/9/16
f 29/10/19 25/11/16 23/12/19
f 11/5/20 6/8/3 27/6/20
f 6/8/3 11/5/20 5/7/3
f 13/4/8 30/1/21 15/3/8
f 30/1/21 13/4/8 22/2/21
f 25/5/22 27/8/20 19/6/22
f 27/8/20 25/5/22 11/7/20
f 18/1/10 22/4/21 17/2/10
f 22/4/21 18/1/10 30/3/21
f 13/15/23 6/14/24 8/13/23
f 6/14/24 13/15/23 14/16/24
f 33/19/25 32/18/25 31/17/25
f 32/18/25 33/19/25 34/20/25
f 34/20/25 33/19/25 35/21/25
f 34/20/25 35/21/25 36/22/25
f 37/23/25 36/22/25 35/21/25
f 36/22/25 37/23/25 38/24/25
f 37/23/25 35/21/25 39/25/25
f 37/23/25 39/25/25 40/26/25
f 41/27/25 40/26/25 39/25/25
f 40/26/25 41/27/25 42/28/25
f 39/25/25 35/21/25 43/29/25
f 42/28/25 41/27/25 44/30/25
f 35/21/25 45/31/25 43/29/25
f 45/31/25 35/21/25 46/32/25
f 43/29/25 45/31/25 47/33/25
f 47/33/25 48/34/25 43/29/25
f 48/34/25 47/33/25 49/35/25
f 48/34/25 49/35/25 50/36/25
f 50/36/25 51/37/25 44/30/25
f 49/35/25 51/37/25 50/36/25
f 49/35/25 52/38/25 51/37/25
f 52/38/25 49/35/25 53/39/25
f 54/40/25 44/30/25 51/37/25
f 54/40/25 42/28/25 44/30/25
f 55/41/25 54/40/25 51/37/25
f 56/42/25 42/28/25 54/40/25
f 42/28/25 56/42/25 57/43/25
f 54/40/25 55/41/25 58/44/25
f 58/44/25 55/41/25 59/45/25
f 58/44/25 59/45/25 60/46/25
f 23/11/19 28/10/18 29/9/19
f 28/10/18 23/11/19 24/12/18
f 20/6/14 25/7/22 19/8/22
f 25/7/22 20/6/14 23/5/14
f 14/15/24 27/14/17 6/13/24
f 27/14/17 14/15/24 2/16/17
f 8/14/23 22/15/13 13/16/23
f 22/15/13 8/14/23 21/13/13

usemtl _defaultMat

f 1/14/25 31/15/25 3/16/25
f 31/14/25 1/15/25 46/16/25
f 46/14/25 1/15/25 16/16/25
f 46/14/25 16/15/25 45/16/25
f 45/14/25 49/15/25 47/16/25
f 49/14/25 45/15/25 16/16/25
f 49/14/25 16/15/25 53/16/25
f 3/14/25 38/15/25 18/16/25
f 38/14/25 3/15/25 32/16/25
f 32/14/25 3/15/25 31/16/25
f 18/14/25 38/15/25 37/16/25
f 42/14/25 37/15/25 40/16/25
f 37/14/25 42/15/25 57/16/25
f 37/14/25 57/15/25 18/16/25
f 58/14/25 56/15/25 54/16/25
f 56/14/25 58/15/25 60/16/25
f 15/14/25 53/15/25 16/16/25
f 53/14/25 15/15/25 52/16/25
f 52/14/25 15/15/25 59/16/25
f 59/14/25 15/15/25 60/16/25
f 57/14/25 30/15/25 18/16/25
f 30/14/25 57/15/25 56/16/25
f 30/14/25 56/15/25 60/16/25
f 30/14/25 60/15/25 15/16/25
f 52/14/25 55/15/25 51/16/25
f 55/14/25 52/15/25 59/16/25
f 46/14/25 33/15/25 31/16/25
f 33/14/25 46/15/25 35/16/25
f 34/14/25 38/15/25 32/16/25
f 38/14/25 34/15/25 36/16/25
f 48/23/25 39/25/25 43/26/25
f 39/23/25 48/25/25 41/26/25
f 41/23/25 48/25/25 50/26/25
f 41/23/25 50/25/25 44/26/25

usemtl brownDark

f 29/49/26 10/48/26 26/47/26
f 10/48/26 29/49/26 9/50/26
f 9/50/26 29/49/26 28/51/26
f 9/50/26 28/51/26 12/52/26

