# Created by Kenney (www.kenney.nl)

mtllib loaf.mtl

g loaf

v 0.289872 0.2447309 0.142296
v -0.289872 0.2447309 0.142296
v 0.289872 0.2557096 0.1584411
v -0.289872 0.2557096 0.1584411
v 0.289872 0.3801169 0.1584411
v -0.289872 0.3801169 0.1584411
v 0.289872 0.4256532 0.091476
v -0.289872 0.4256532 0.091476
v -0.289872 0.04095166 -0.142296
v 0.289872 0.04095166 -0.142296
v -0.289872 0.2447309 -0.142296
v 0.289872 0.2447309 -0.142296
v 0.289872 0.4256532 -0.091476
v 0.289872 0.4423206 0
v -0.289872 0.4256532 -0.091476
v -0.289872 0.4423206 0
v -0.289872 0.04095166 0.142296
v 0.289872 0.04095166 0.142296
v -0.289872 0.2557096 -0.1584411
v 0.289872 0.2557096 -0.1584411
v -0.289872 0.3179132 -0.182952
v 0.289872 0.3179132 -0.182952
v 0.289872 2.68912E-14 0.1013443
v 0.289872 2.68912E-14 -0.1013443
v -0.289872 1.804779E-16 0.1013443
v -0.289872 0 -0.1013443
v 0.289872 0.3801169 -0.1584411
v -0.289872 0.3801169 -0.1584411
v -0.289872 0.3179132 -0.1389357
v -0.289872 0.3533542 -0.1249705
v -0.289872 0.3869177 -0.07561233
v -0.289872 0.4006947 0
v -0.289872 0.3869177 0.07561233
v -0.289872 0.3533542 0.1249705
v -0.289872 0.3179132 0.1389357
v -0.289872 0.01199446 -0.1303015
v -0.289872 0.2824723 -0.1249705
v -0.289872 0.2664065 -0.1013443
v -0.289872 0.04095166 -0.1013443
v -0.289872 0.04095166 0.1013443
v -0.289872 0.01199446 0.1303015
v -0.289872 0.2664065 0.1013443
v -0.289872 0.2824723 0.1249705
v -0.289872 0.3179132 0.182952
v 0.289872 0.3179132 0.182952
v 0.289872 0.3179132 -0.1389357
v 0.289872 0.01199446 -0.1303015
v 0.289872 0.3533542 -0.1249705
v 0.289872 0.2824723 -0.1249705
v 0.289872 0.3869177 -0.07561233
v 0.289872 0.4006947 0
v 0.289872 0.3869177 0.07561233
v 0.289872 0.3533542 0.1249705
v 0.289872 0.2664065 -0.1013443
v 0.289872 0.04095166 -0.1013443
v 0.289872 0.04095166 0.1013443
v 0.289872 0.3179132 0.1389357
v 0.289872 0.2824723 0.1249705
v 0.289872 0.2664065 0.1013443
v 0.289872 0.01199446 0.1303015

vn 0 -0.8269265 0.56231
vn 0 -0.6244991 0.7810255
vn 0 0.6244991 0.7810255
vn 0 0.9254016 0.3789881
vn 0 0 -1
vn 0 0.9254016 -0.3789881
vn 0 1 0
vn 0 0 1
vn 0 -0.6244991 -0.7810255
vn 0 -1 0
vn 0 0.6244991 -0.7810255
vn 0 -0.8269265 -0.56231
vn -1 0 0
vn 1 0 0
vn 0 -0.7071068 -0.7071068
vn 0 -0.3826834 -0.9238795
vn 0 -0.9238795 -0.3826834
vn 0 -0.7071068 0.7071068
vn 0 -0.3826834 0.9238795
vn 0 -0.9238795 0.3826834

vt 11.41228 10.05051
vt -11.41228 10.05051
vt 11.41228 10.81918
vt -11.41228 10.81918
vt 11.41228 3.256867
vt -11.41228 3.256867
vt 11.41228 6.445084
vt -11.41228 6.445084
vt 11.41228 1.61227
vt -11.41228 1.61227
vt 11.41228 9.635076
vt -11.41228 9.635076
vt -11.41228 -0.5391421
vt -11.41228 3.121568
vt 11.41228 -0.5391421
vt 11.41228 3.121568
vt 11.41228 11.65322
vt -11.41228 11.65322
vt 11.41228 14.28545
vt -11.41228 14.28545
vt 11.41228 3.989934
vt 11.41228 -3.989934
vt -11.41228 3.989934
vt -11.41228 -3.989934
vt 11.41228 9.004215
vt -11.41228 9.004215
vt 11.41228 11.63645
vt -11.41228 11.63645
vt -7.202835 12.51627
vt -6.237838 14.96523
vt -6.237838 10.06731
vt -5.602205 9.635076
vt -5.469911 12.51627
vt -4.920097 13.91158
vt -3.601417 16.758
vt -2.976863 15.23298
vt -6.173942E-15 17.4142
vt 3.158579E-15 15.77538
vt 2.976863 15.23298
vt 3.601417 16.758
vt 4.920097 13.91158
vt 6.237838 14.96523
vt 5.469911 12.51627
vt -5.129982 0.472223
vt -5.602205 1.61227
vt -4.920097 11.12096
vt -3.989934 6.058134E-13
vt -3.989934 10.48845
vt -3.989934 1.61227
vt 3.989934 6.129188E-13
vt 3.989934 1.61227
vt 5.129982 0.472223
vt 3.989934 10.48845
vt 4.920097 11.12096
vt 5.602205 1.61227
vt 5.602205 9.635076
vt 6.237838 10.06731
vt 7.202835 12.51627
vt -6.090021E-29 17.4142
vt 1.56587E-15 15.77538
vt 3.989934 5.343696E-13
vt -3.989934 5.343696E-13
vt 11.41228 2.399436
vt -11.41228 2.399436
vt 11.41228 3.633415
vt -11.41228 3.633415
vt -11.41228 3.686219
vt -11.41228 4.920197
vt 11.41228 3.686219
vt 11.41228 4.920197

usemtl brown

f 3/3/2 2/2/1 1/1/1
f 2/2/1 3/3/2 4/4/2
f 7/7/4 6/6/3 5/5/3
f 6/6/3 7/7/4 8/8/4
f 11/11/5 10/10/5 9/9/5
f 10/10/5 11/11/5 12/12/5
f 15/15/6 14/14/7 13/13/6
f 14/14/7 15/15/6 16/16/7
f 18/9/8 2/12/8 17/10/8
f 2/12/8 18/9/8 1/11/8
f 21/19/5 20/18/9 19/17/9
f 20/18/9 21/19/5 22/20/5
f 25/23/10 24/22/10 23/21/10
f 24/22/10 25/23/10 26/24/10
f 14/16/7 8/13/4 7/15/4
f 8/13/4 14/16/7 16/14/7
f 28/5/11 13/8/6 27/6/11
f 13/8/6 28/5/11 15/7/6
f 28/27/11 22/26/5 21/25/5
f 22/26/5 28/27/11 27/28/11
f 11/1/12 20/4/9 12/2/12
f 20/4/9 11/1/12 19/3/9
f 19/31/13 28/30/13 21/29/13
f 28/30/13 19/31/13 11/32/13
f 28/30/13 11/32/13 29/33/13
f 28/30/13 29/33/13 30/34/13
f 28/30/13 30/34/13 15/35/13
f 15/35/13 30/34/13 31/36/13
f 15/35/13 31/36/13 16/37/13
f 16/37/13 31/36/13 32/38/13
f 16/37/13 32/38/13 33/39/13
f 16/37/13 33/39/13 8/40/13
f 8/40/13 33/39/13 34/41/13
f 8/40/13 34/41/13 6/42/13
f 6/42/13 34/41/13 35/43/13
f 11/32/13 36/44/13 29/33/13
f 36/44/13 11/32/13 9/45/13
f 29/33/13 36/44/13 37/46/13
f 37/46/13 36/44/13 26/47/13
f 37/46/13 26/47/13 38/48/13
f 38/48/13 26/47/13 39/49/13
f 25/50/13 39/49/13 26/47/13
f 39/49/13 25/50/13 40/51/13
f 40/51/13 25/50/13 41/52/13
f 40/51/13 41/52/13 42/53/13
f 42/53/13 41/52/13 43/54/13
f 43/54/13 41/52/13 35/43/13
f 35/43/13 41/52/13 17/55/13
f 2/56/13 35/43/13 17/55/13
f 6/42/13 35/43/13 2/56/13
f 6/42/13 2/56/13 4/57/13
f 6/42/13 4/57/13 44/58/13
f 45/25/8 6/28/3 44/26/8
f 6/28/3 45/25/8 5/27/3
f 3/17/2 44/20/8 4/18/2
f 44/20/8 3/17/2 45/19/8
f 27/42/14 20/57/14 22/58/14
f 20/57/14 27/42/14 46/43/14
f 20/57/14 46/43/14 12/56/14
f 12/56/14 46/43/14 10/55/14
f 46/43/14 47/52/14 10/55/14
f 46/43/14 27/42/14 48/41/14
f 47/52/14 46/43/14 49/54/14
f 48/41/14 27/42/14 13/40/14
f 48/41/14 13/40/14 50/39/14
f 50/39/14 13/40/14 14/59/14
f 50/39/14 14/59/14 51/60/14
f 47/52/14 49/54/14 24/61/14
f 51/60/14 14/59/14 7/35/14
f 51/60/14 7/35/14 52/36/14
f 52/36/14 7/35/14 53/34/14
f 24/61/14 49/54/14 54/53/14
f 24/61/14 54/53/14 55/51/14
f 53/34/14 7/35/14 5/30/14
f 24/61/14 55/51/14 56/49/14
f 24/61/14 56/49/14 23/62/14
f 53/34/14 5/30/14 57/33/14
f 56/49/14 58/46/14 23/62/14
f 58/46/14 56/49/14 59/48/14
f 23/62/14 58/46/14 60/44/14
f 60/44/14 58/46/14 57/33/14
f 60/44/14 57/33/14 18/45/14
f 18/45/14 57/33/14 1/32/14
f 57/33/14 5/30/14 1/32/14
f 1/32/14 5/30/14 3/31/14
f 3/31/14 5/30/14 45/29/14
f 9/65/16 47/64/15 36/63/15
f 47/64/15 9/65/16 10/66/16
f 26/69/17 47/68/15 24/67/17
f 47/68/15 26/69/17 36/70/15
f 60/63/18 17/66/19 41/64/18
f 17/66/19 60/63/18 18/65/19
f 60/70/18 25/67/20 23/69/20
f 25/67/20 60/70/18 41/68/18

usemtl brownLight

f 58/46/14 53/34/14 57/33/14
f 59/48/14 53/34/14 58/46/14
f 53/34/14 59/48/14 52/36/14
f 56/49/14 52/36/14 59/48/14
f 56/49/14 51/60/14 52/36/14
f 56/49/14 50/39/14 51/60/14
f 55/51/14 50/39/14 56/49/14
f 54/53/14 50/39/14 55/51/14
f 49/54/14 50/39/14 54/53/14
f 49/54/14 48/41/14 50/39/14
f 48/41/14 49/54/14 46/43/14
f 40/51/13 38/48/13 39/49/13
f 38/48/13 40/51/13 31/36/13
f 31/36/13 40/51/13 32/38/13
f 30/34/13 38/48/13 31/36/13
f 30/34/13 37/46/13 38/48/13
f 37/46/13 30/34/13 29/33/13
f 32/38/13 40/51/13 33/39/13
f 33/39/13 40/51/13 42/53/13
f 33/39/13 42/53/13 34/41/13
f 34/41/13 42/53/13 43/54/13
f 34/41/13 43/54/13 35/43/13

