# Created by Kenney (www.kenney.nl)

mtllib lollypop.mtl

g lollypop

v -0.0116 0.2986 -0.09376168
v 0.0116 0.2986 -0.09376168
v -0.0116 0.3798 -0.04688084
v 0.0116 0.3798 -0.04688084
v 0.0116 0.3798 0.04688084
v -0.0116 0.3798 0.04688084
v 0.0116 0.2174 0.04688084
v 0.0116 0.2174 0
v -0.0116 0.2174 0.04688084
v -3.654677E-15 0.2174 0.0116
v -0.0116 0.2174 0
v 0.0116 0.2174 -0.04688084
v -3.654677E-15 0.2174 -0.0116
v -0.0116 0.2174 -0.04688084
v -0.0116 0.2986 0.09376168
v 0.0116 0.2986 0.09376168
v -0.0116 0.2986 -0.07214899
v -0.0116 0.2361171 -0.0360745
v -0.0116 0.3610829 -0.0360745
v -0.0116 0.2361171 0.0360745
v -0.0116 0.3610829 0.0360745
v -0.0116 0.2986 0.07214899
v 0.0116 0.2986 -0.0501211
v 0.0116 0.2986 -0.03028874
v 0.0116 0.3420061 -0.02506055
v 0.0116 0.2551938 -0.02506055
v 0.0116 0.3248308 -0.01514437
v 0.0116 0.2723692 -0.01514437
v 0.0116 0.3420061 0.02506055
v 0.0116 0.3248308 0.01514437
v 0.0116 0.2551938 0.02506055
v 0.0116 0.2723692 0.01514437
v 0.0116 0.2986 0.03028874
v 0.0116 0.2986 0.0501211
v -0.0116 0.2986 -0.04891563
v -0.0116 0.2986 -0.02628385
v -0.0116 0.2562378 -0.02445782
v -0.0116 0.3409622 -0.02445782
v -0.0116 0.2758375 -0.01314193
v -0.0116 0.3213625 -0.01314193
v -0.0116 0.2562378 0.02445782
v -0.0116 0.2758375 0.01314193
v -0.0116 0.3409622 0.02445782
v -0.0116 0.3213625 0.01314193
v -0.0116 0.2986 0.02628385
v -0.0116 0.2986 0.04891563
v 0.0116 0.2986 -0.07200367
v 0.0116 0.360957 -0.03600184
v 0.0116 0.236243 -0.03600184
v 0.0116 0.236243 0.03600184
v 0.0116 0.360957 0.03600184
v 0.0116 0.2986 0.07200367
v 0.019256 6.429524E-16 0
v 0 3.158362E-16 -0.019256
v 0 3.158362E-16 0.019256
v -0.019256 0 0

vn 0 0 -1
vn 0 0.8660254 -0.5
vn 0 0.8660254 0.5
vn 0 -0.8660254 0.5
vn 0 -1 0
vn 0 -0.8660254 -0.5
vn 0 0 1
vn -1 0 0
vn 1 0 0
vn 0 0.03519437 -0.9993805
vn 0.9993805 0.03519437 0
vn -0.9993805 0.03519437 0
vn 0 0.03519437 0.9993805

vt 0.4566929 8.335211
vt -0.4566929 8.335211
vt 0.4566929 12.02662
vt -0.4566929 12.02662
vt -0.4566929 -1.845702
vt -0.4566929 1.845702
vt 0.4566929 -1.845702
vt 0.4566929 1.845702
vt 0.4566929 0
vt -6.145506E-16 0.4566929
vt -0.4566929 0
vt -6.145506E-16 -0.4566929
vt -3.691405 11.75591
vt -2.840512 11.75591
vt -1.845702 8.559055
vt -1.845702 14.95276
vt -1.420256 9.29595
vt -1.420256 14.21586
vt 0 8.559055
vt 1.420256 9.29595
vt 1.845702 8.559055
vt 1.845702 14.95276
vt 1.420256 14.21586
vt 2.840512 11.75591
vt 3.691405 11.75591
vt 1.973271 11.75591
vt 1.19247 11.75591
vt 0.9866357 13.46481
vt 0.9866357 10.047
vt 0.596235 12.78862
vt 0.596235 10.7232
vt -0.9866357 13.46481
vt -0.596235 12.78862
vt -0.9866357 10.047
vt -0.596235 10.7232
vt -1.19247 11.75591
vt -1.973271 11.75591
vt -1.925812 11.75591
vt -1.034797 11.75591
vt -0.9629061 10.0881
vt -0.9629061 13.42371
vt -0.5173987 10.85975
vt -0.5173987 12.65207
vt 0.9629061 10.0881
vt 0.5173987 10.85975
vt 0.9629061 13.42371
vt 0.5173987 12.65207
vt 1.034797 11.75591
vt 1.925812 11.75591
vt 2.83479 11.75591
vt 1.417395 14.21091
vt 1.417395 9.300905
vt -1.417395 9.300905
vt -1.417395 14.21091
vt -2.83479 11.75591
vt 0.7581102 0
vt 2.117375E-28 -0.7581102
vt 2.117375E-28 0.7581102
vt -0.7581102 0
vt 0.5360649 -0.01334474
vt -0.5360649 -0.01334474
vt 0.3229307 8.548364
vt -0.3229307 8.548364

usemtl purpleLight

f 3/3/2 2/2/1 1/1/1
f 2/2/1 3/3/2 4/4/2
f 3/7/2 5/6/3 4/5/2
f 5/6/3 3/7/2 6/8/3
f 9/6/4 8/9/5 7/8/4
f 8/9/5 9/6/4 10/10/5
f 10/10/5 9/6/4 11/11/5
f 13/12/5 12/7/6 8/9/5
f 14/5/6 13/12/5 11/11/5
f 12/7/6 13/12/5 14/5/6
f 7/1/4 15/4/7 9/2/4
f 15/4/7 7/1/4 16/3/7
f 1/3/1 12/2/6 14/1/6
f 12/2/6 1/3/1 2/4/1
f 16/1/7 6/4/3 15/2/7
f 6/4/3 16/1/7 5/3/3
f 14/15/8 17/14/8 1/13/8
f 17/14/8 3/16/8 1/13/8
f 17/14/8 14/15/8 18/17/8
f 3/16/8 17/14/8 19/18/8
f 18/17/8 14/15/8 11/19/8
f 18/17/8 11/19/8 20/20/8
f 20/20/8 11/19/8 9/21/8
f 3/16/8 19/18/8 6/22/8
f 6/22/8 19/18/8 21/23/8
f 20/20/8 9/21/8 22/24/8
f 6/22/8 21/23/8 22/24/8
f 22/24/8 9/21/8 15/25/8
f 6/22/8 22/24/8 15/25/8
f 25/28/9 24/27/9 23/26/9
f 24/27/9 26/29/9 23/26/9
f 24/27/9 25/28/9 27/30/9
f 26/29/9 24/27/9 28/31/9
f 27/30/9 25/28/9 29/32/9
f 27/30/9 29/32/9 30/33/9
f 26/29/9 28/31/9 31/34/9
f 31/34/9 28/31/9 32/35/9
f 30/33/9 29/32/9 33/36/9
f 31/34/9 32/35/9 33/36/9
f 33/36/9 29/32/9 34/37/9
f 31/34/9 33/36/9 34/37/9
f 37/40/8 36/39/8 35/38/8
f 36/39/8 38/41/8 35/38/8
f 36/39/8 37/40/8 39/42/8
f 38/41/8 36/39/8 40/43/8
f 39/42/8 37/40/8 41/44/8
f 39/42/8 41/44/8 42/45/8
f 38/41/8 40/43/8 43/46/8
f 43/46/8 40/43/8 44/47/8
f 42/45/8 41/44/8 45/48/8
f 43/46/8 44/47/8 45/48/8
f 45/48/8 41/44/8 46/49/8
f 43/46/8 45/48/8 46/49/8
f 4/22/9 47/50/9 2/25/9
f 47/50/9 12/21/9 2/25/9
f 47/50/9 4/22/9 48/51/9
f 12/21/9 47/50/9 49/52/9
f 12/21/9 49/52/9 8/19/9
f 8/19/9 49/52/9 50/53/9
f 8/19/9 50/53/9 7/15/9
f 48/51/9 4/22/9 5/16/9
f 48/51/9 5/16/9 51/54/9
f 7/15/9 50/53/9 52/55/9
f 51/54/9 5/16/9 52/55/9
f 7/15/9 52/55/9 16/13/9
f 52/55/9 5/16/9 16/13/9

usemtl brown

f 55/58/5 54/57/5 53/56/5
f 54/57/5 55/58/5 56/59/5
f 13/62/10 53/61/11 54/60/10
f 53/61/11 13/62/10 8/63/11
f 55/60/13 11/63/12 56/61/12
f 11/63/12 55/60/13 10/62/13
f 53/60/11 10/63/13 55/61/13
f 10/63/13 53/60/11 8/62/11
f 56/60/12 13/63/10 54/61/10
f 13/63/10 56/60/12 11/62/12

usemtl _defaultMat

f 48/6/9 23/7/9 47/8/9
f 23/6/9 48/7/9 25/8/9
f 25/6/9 48/7/9 51/8/9
f 25/6/9 51/7/9 29/8/9
f 34/6/9 51/7/9 52/8/9
f 29/6/9 51/7/9 34/8/9
f 23/6/9 49/7/9 47/8/9
f 49/6/9 23/7/9 26/8/9
f 49/6/9 26/7/9 50/8/9
f 50/6/9 26/7/9 31/8/9
f 50/6/9 31/7/9 34/8/9
f 50/6/9 34/7/9 52/8/9
f 39/46/8 40/48/8 36/49/8
f 40/46/8 39/48/8 42/49/8
f 40/46/8 42/48/8 44/49/8
f 44/46/8 42/48/8 45/49/8
f 27/63/9 28/60/9 24/62/9
f 28/63/9 27/60/9 30/62/9
f 28/63/9 30/60/9 32/62/9
f 32/63/9 30/60/9 33/62/9
f 18/4/8 35/1/8 17/3/8
f 35/4/8 18/1/8 37/3/8
f 37/4/8 18/1/8 20/3/8
f 37/4/8 20/1/8 41/3/8
f 46/4/8 20/1/8 22/3/8
f 41/4/8 20/1/8 46/3/8
f 35/4/8 19/1/8 17/3/8
f 19/4/8 35/1/8 38/3/8
f 19/4/8 38/1/8 21/3/8
f 21/4/8 38/1/8 43/3/8
f 21/4/8 43/1/8 46/3/8
f 21/4/8 46/1/8 22/3/8

