# Created by Kenney (www.kenney.nl)

mtllib meatRaw.mtl

g meatRaw

v 0.1180278 0.0516 0.2506918
v 0.2055856 0.0516 0.2001402
v 0.1180278 0.0645 0.2506918
v 0.2055856 0.0645 0.2001402
v 0.0020622 0.0516 -0.09825126
v 0.0020622 0.0516 -0.04665126
v -0.006428313 0.0645 -0.09334926
v -0.006428313 0.0645 -0.05155327
v 0.1212737 0 0.2876866
v -0.102926 0 0.206211
v 0.1212737 0.0645 0.2876866
v -0.102926 0.0645 0.206211
v 0.2392471 0.0645 0.08335067
v 0.2392471 0 0.08335067
v 0.2392471 0.0645 0.2195746
v 0.2392471 0 0.2195746
v 0.1539977 0 -0.003886663
v 0.1539977 0 -0.1741666
v -0.04262471 0 -0.2876866
v -0.2392471 0 -0.1741666
v -0.2392471 0 0.05287334
v -0.08731162 0.0516 -0.09825126
v -0.07882111 0.0645 -0.09334926
v -0.08731162 0.0516 -0.04665126
v -0.07882111 0.0645 -0.05155327
v -0.2055856 0.0645 -0.1547322
v -0.2055856 0.0516 -0.1547322
v -0.2055856 0.0645 0.04007379
v -0.2055856 0.0516 0.04007379
v -0.04262471 0.0516 -0.2488177
v -0.04262471 0.0645 -0.2488177
v -0.08342614 0.0645 0.1774821
v -0.08342614 0.0516 0.1774821
v -0.04262471 0.0645 -0.1142473
v -0.04262471 0.0645 -0.03065526
v -0.04262471 0.0516 -0.1240513
v 0.1539977 0.0645 -0.003886663
v -0.04262471 0.0516 -0.02085126
v 0.1203362 0.0516 -0.1547322
v 0.1203362 0.0645 -0.1547322
v 0.1203362 0.0516 0.009829671
v 0.1203362 0.0645 0.009829671
v -0.04262471 0.0645 -0.2876866
v 0.1539977 0.0645 -0.1741666
v 0.2055856 0.0516 0.097067
v 0.2055856 0.0645 0.097067
v -0.2392471 0.0645 -0.1741666
v -0.2392471 0.0645 0.05287334
v 0.08833344 0.0516 0.02287012
v 0.1735829 0.0516 0.1101075
v 0.08833344 0.0516 -0.1362554
v 0.1735829 0.0516 0.1816634
v -0.04262471 0.0516 -0.2118641
v 0.1149418 0.0516 0.2155198
v -0.1735829 0.0516 -0.1362554
v -0.06488718 0.0516 0.1501688
v -0.1735829 0.0516 0.02790496

vn -0.08740371 0 -0.996173
vn -0.8660254 0 -0.5
vn 0.6894967 0.6050832 -0.3980811
vn 0.6894967 0.6050832 0.3980811
vn 0.08740371 0 0.996173
vn -0.5616037 0 0.8274063
vn 0.9260693 0 -0.3773535
vn 0.8660254 0 0.5
vn 0 -1 0
vn -0.6894967 0.6050832 -0.3980811
vn -0.6894967 0.6050832 0.3980811
vn 0.9347081 0 -0.3554162
vn 0 0 1
vn 0.5616037 0 -0.8274063
vn 0 1 0
vn 0 0.6050833 -0.7961622
vn 0 0.6050833 0.7961622
vn -0.8660254 0 0.5
vn -0.9260693 0 0.3773535
vn 0 0 -1
vn 0.8660254 0 -0.5
vn -0.9347081 0 0.3554162

vt 0.9106632 2.031496
vt -3.069775 2.031496
vt 0.9106632 2.53937
vt -3.069775 2.53937
vt 3.86816 1.652288
vt 1.836664 1.652288
vt 3.675168 2.260297
vt 2.029656 2.260297
vt 8.355931 0
vt -1.035608 0
vt 8.355931 2.53937
vt -1.035608 2.53937
vt -3.281522 2.53937
vt -3.281522 0
vt -8.644671 2.53937
vt -8.644671 0
vt 9.419178 8.644671
vt 9.419178 3.281522
vt 4.774554 11.32625
vt 6.062901 -0.1530182
vt 6.062901 -6.856955
vt -1.678138 -11.32625
vt -4.052204 8.118545
vt -9.419178 -6.856955
vt -9.419178 2.081627
vt 3.834911 0
vt -1.528238 0
vt 3.834911 2.53937
vt -1.528238 2.53937
vt -3.86816 -0.1929332
vt -3.675168 0.4150749
vt -1.836664 -0.1929332
vt -2.029656 0.4150749
vt 6.091819 2.53937
vt 6.091819 2.031496
vt -1.577708 2.53937
vt -1.577708 2.031496
vt 3.444677 2.031496
vt -3.963633 2.031496
vt 3.444677 2.53937
vt -3.963633 2.53937
vt 4.198658 2.53937
vt 4.198658 2.031496
vt -3.03987 2.53937
vt -3.03987 2.031496
vt 0.2530832 -3.675168
vt 0.2530832 -2.029656
vt 1.678138 -4.497924
vt 1.678138 -1.2069
vt 3.103193 -3.675168
vt 3.103193 -2.029656
vt 3.895264 -0.1671231
vt 1.863768 -0.1671231
vt 3.702272 0.4408851
vt 2.056761 0.4408851
vt -4.127988 2.53937
vt -4.127988 0
vt -8.93014 2.53937
vt -8.93014 0
vt -1.863768 1.626478
vt -3.895264 1.626478
vt -2.056761 2.234487
vt -3.702272 2.234487
vt -6.091819 2.031496
vt -6.091819 2.53937
vt 0.3869949 2.031496
vt 0.3869949 2.53937
vt 7.116434 0
vt -1.822149 0
vt 7.116434 2.53937
vt -1.822149 2.53937
vt 3.587975 2.031496
vt 3.587975 2.53937
vt 8.390127 2.031496
vt 8.390127 2.53937
vt 0.9886437 2.549089
vt -1.042852 2.549089
vt 0.7956516 3.157097
vt -0.8498603 3.157097
vt -6.856955 0
vt -6.856955 2.53937
vt 2.081627 0
vt 2.081627 2.53937
vt 3.821535 2.031496
vt 3.821535 2.53937
vt 7.879536 2.031496
vt 7.879536 2.53937
vt 1.057013 2.031496
vt -6.351297 2.031496
vt 1.057013 2.53937
vt -6.351297 2.53937
vt 6.856955 2.53937
vt 6.856955 0
vt 0.1530182 2.53937
vt 0.1530182 0
vt -4.702577 0
vt -4.702577 2.53937
vt 3.375096 0
vt 3.375096 2.53937
vt 4.72877 0
vt -4.209813 0
vt 4.72877 2.53937
vt -4.209813 2.53937
vt 0.7003822 2.031496
vt -7.738356 2.031496
vt 0.7003822 2.53937
vt -7.738356 2.53937
vt 1.042852 -1.089734
vt -0.9886437 -1.089734
vt 0.8498603 -0.4817258
vt -0.7956516 -0.4817258
vt -6.062901 -0.1530182
vt -4.737647 -6.091819
vt -6.062901 -6.856955
vt 1.678138 -11.32625
vt -4.737647 0.3869949
vt 1.678138 -9.795974
vt -8.093923 3.821535
vt -9.419178 3.281522
vt -9.419178 8.644671
vt -8.093923 7.879536
vt -4.774554 11.32625
vt -4.646762 9.869755
vt 9.419178 -6.856955
vt 8.093923 -6.091819
vt 4.052204 8.118545
vt 3.284494 6.987484
vt 8.093923 1.577708
vt 9.419178 2.081627
vt -3.477695 0.9003984
vt -6.833971 4.334939
vt -3.477695 -5.364386
vt -6.833971 7.152102
vt 1.678138 -8.341107
vt -4.525268 8.485033
vt 6.833971 -5.364386
vt 2.554614 5.912158
vt 6.833971 1.098621
vt -0.08118897 -3.86816
vt 1.678138 -4.883908
vt 3.437465 -3.86816
vt 3.437465 -1.836664
vt 1.678138 -0.8209159
vt -0.08118897 -1.836664

usemtl white

f 3/3/1 2/2/2 1/1/1
f 2/2/2 3/3/1 4/4/2
f 7/7/3 6/6/4 5/5/3
f 6/6/4 7/7/3 8/8/4
f 11/11/5 10/10/6 9/9/5
f 10/10/6 11/11/5 12/12/6
f 15/15/8 14/14/7 13/13/7
f 14/14/7 15/15/8 16/16/8
f 9/19/9 14/18/9 16/17/9
f 14/18/9 9/19/9 17/20/9
f 17/20/9 9/19/9 18/21/9
f 18/21/9 9/19/9 19/22/9
f 19/22/9 9/19/9 10/23/9
f 19/22/9 10/23/9 20/24/9
f 20/24/9 10/23/9 21/25/9
f 15/28/8 9/27/5 16/26/8
f 9/27/5 15/28/8 11/29/5
f 24/32/11 23/31/10 22/30/10
f 23/31/10 24/32/11 25/33/11
f 28/36/12 27/35/8 26/34/8
f 27/35/8 28/36/12 29/37/12
f 31/40/13 27/39/8 30/38/13
f 27/39/8 31/40/13 26/41/8
f 32/44/14 29/43/12 28/42/12
f 29/43/12 32/44/14 33/45/14
f 34/48/15 8/47/15 7/46/15
f 8/47/15 34/48/15 35/49/15
f 35/49/15 34/48/15 23/50/15
f 35/49/15 23/50/15 25/51/15
f 34/54/16 5/53/3 36/52/16
f 5/53/3 34/54/16 7/55/3
f 13/58/7 17/57/7 37/56/7
f 17/57/7 13/58/7 14/59/7
f 35/62/17 24/61/11 38/60/17
f 24/61/11 35/62/17 25/63/11
f 41/66/19 40/65/18 39/64/18
f 40/65/18 41/66/19 42/67/19
f 43/70/20 18/69/21 19/68/20
f 18/69/21 43/70/20 44/71/21
f 45/74/19 42/73/19 41/72/19
f 42/73/19 45/74/19 46/75/19
f 8/78/4 38/77/17 6/76/4
f 38/77/17 8/78/4 35/79/17
f 21/82/22 47/81/2 20/80/2
f 47/81/2 21/82/22 48/83/22
f 2/86/2 46/85/19 45/84/19
f 46/85/19 2/86/2 4/87/2
f 40/90/18 30/89/13 39/88/18
f 30/89/13 40/90/18 31/91/13
f 37/94/7 18/93/21 44/92/21
f 18/93/21 37/94/7 17/95/7
f 10/98/6 48/97/22 21/96/22
f 48/97/22 10/98/6 12/99/6
f 47/102/2 19/101/20 20/100/2
f 19/101/20 47/102/2 43/103/20
f 32/106/14 1/105/1 33/104/14
f 1/105/1 32/106/14 3/107/1
f 23/110/10 36/109/16 22/108/10
f 36/109/16 23/110/10 34/111/16
f 44/114/15 40/113/15 37/112/15
f 40/113/15 44/114/15 43/115/15
f 42/116/15 37/112/15 40/113/15
f 40/113/15 43/115/15 31/117/15
f 46/118/15 37/112/15 42/116/15
f 46/118/15 13/119/15 37/112/15
f 13/119/15 46/118/15 15/120/15
f 4/121/15 15/120/15 46/118/15
f 15/120/15 4/121/15 11/122/15
f 11/122/15 4/121/15 3/123/15
f 31/117/15 43/115/15 47/124/15
f 31/117/15 47/124/15 26/125/15
f 11/122/15 3/123/15 12/126/15
f 12/126/15 3/123/15 32/127/15
f 26/125/15 47/124/15 28/128/15
f 12/126/15 32/127/15 28/128/15
f 48/129/15 28/128/15 47/124/15
f 12/126/15 28/128/15 48/129/15
f 50/131/15 41/116/15 49/130/15
f 49/130/15 41/116/15 51/132/15
f 50/131/15 45/118/15 41/116/15
f 39/113/15 51/132/15 41/116/15
f 45/118/15 50/131/15 2/121/15
f 51/132/15 39/113/15 30/117/15
f 52/133/15 2/121/15 50/131/15
f 51/132/15 30/117/15 53/134/15
f 2/121/15 52/133/15 1/123/15
f 1/123/15 52/133/15 54/135/15
f 53/134/15 30/117/15 27/125/15
f 53/134/15 27/125/15 55/136/15
f 1/123/15 54/135/15 33/127/15
f 33/127/15 54/135/15 56/137/15
f 55/136/15 27/125/15 57/138/15
f 33/127/15 56/137/15 57/138/15
f 29/128/15 57/138/15 27/125/15
f 33/127/15 57/138/15 29/128/15

usemtl pink

f 53/134/15 49/130/15 51/132/15
f 49/130/15 53/134/15 5/139/15
f 5/139/15 53/134/15 36/140/15
f 36/140/15 53/134/15 55/136/15
f 36/140/15 55/136/15 22/141/15
f 22/141/15 55/136/15 24/142/15
f 57/138/15 24/142/15 55/136/15
f 56/137/15 24/142/15 57/138/15
f 56/137/15 38/143/15 24/142/15
f 56/137/15 6/144/15 38/143/15
f 6/144/15 49/130/15 5/139/15
f 56/137/15 49/130/15 6/144/15
f 54/135/15 49/130/15 56/137/15
f 52/133/15 49/130/15 54/135/15
f 49/130/15 52/133/15 50/131/15

