# Created by Kenney (www.kenney.nl)

mtllib meatCooked.mtl

g meatCooked

v 0.2392471 0 0.2195746
v 0.1212737 0 0.2876866
v 0.2392471 0.0645 0.2195746
v 0.1212737 0.0645 0.2876866
v 0.1539977 0.0645 -0.003886663
v 0.1539977 0 -0.003886663
v 0.2392471 0.0645 0.08335067
v 0.2392471 0 0.08335067
v -0.2392471 0 -0.1741666
v -0.04262471 0 -0.2876866
v -0.2392471 0.0645 -0.1741666
v -0.04262471 0.0645 -0.2876866
v 0.0020622 0.0516 -0.04665126
v -0.04262471 0.0516 -0.02085126
v -0.006428313 0.0645 -0.05155327
v -0.04262471 0.0645 -0.03065526
v 0.0020622 0.0516 -0.09825126
v -0.006428313 0.0645 -0.09334926
v -0.04262471 0.0516 -0.1240513
v -0.04262471 0.0645 -0.1142473
v 0.1539977 0.0645 -0.1741666
v 0.1539977 0 -0.1741666
v 0.1203362 0.0516 -0.1547322
v 0.1203362 0.0645 -0.1547322
v 0.1203362 0.0516 0.009829671
v 0.1203362 0.0645 0.009829671
v -0.04262471 0.0516 -0.2488177
v -0.04262471 0.0645 -0.2488177
v -0.08731162 0.0516 -0.04665126
v -0.07882111 0.0645 -0.05155327
v 0.2055856 0.0516 0.097067
v 0.2055856 0.0645 0.097067
v -0.07882111 0.0645 -0.09334926
v 0.2055856 0.0516 0.2001402
v 0.2055856 0.0645 0.2001402
v -0.102926 0 0.206211
v -0.2392471 0 0.05287334
v -0.2055856 0.0516 -0.1547322
v -0.2055856 0.0645 -0.1547322
v -0.08731162 0.0516 -0.09825126
v -0.102926 0.0645 0.206211
v -0.2392471 0.0645 0.05287334
v -0.2055856 0.0645 0.04007379
v -0.2055856 0.0516 0.04007379
v -0.08342614 0.0645 0.1774821
v -0.08342614 0.0516 0.1774821
v 0.1180278 0.0516 0.2506918
v 0.1180278 0.0645 0.2506918
v 0.06132192 0.0516 0.1419291
v 0.03561516 0.0516 0.149155
v 0.04963026 0.0516 0.1003347
v 0.0239235 0.0516 0.1075606
v -0.0007024951 0.0516 0.06266607
v -0.02603751 0.0516 0.09766501
v -0.02233304 0.0516 0.04700816
v -0.04766805 0.0516 0.08200711
v 0.07564579 0.0516 0.04821526
v 0.05998789 0.0516 0.0698458
v 0.04064683 0.0516 0.02288024
v 0.02498893 0.0516 0.04451078
v -0.1735829 0.0516 -0.1362554
v -0.04262471 0.0516 -0.2118641
v -0.1735829 0.0516 0.02790496
v 0.08833344 0.0516 -0.1362554
v -0.06488718 0.0516 0.1501688
v 0.1149418 0.0516 0.2155198
v 0.1735829 0.0516 0.1816634
v 0.08833344 0.0516 0.02287012
v 0.1735829 0.0516 0.1101075

vn 0.8660254 0 0.5
vn 0.08740371 0 0.996173
vn 0.9260693 0 -0.3773535
vn -0.8660254 0 -0.5
vn 0 0 -1
vn 0.6894967 0.6050832 0.3980811
vn 0 0.6050833 0.7961622
vn 0.6894967 0.6050832 -0.3980811
vn 0 0.6050833 -0.7961622
vn 0.8660254 0 -0.5
vn -0.8660254 0 0.5
vn -0.9260693 0 0.3773535
vn 0 0 1
vn -0.6894967 0.6050832 0.3980811
vn 0 1 0
vn 0 -1 0
vn -0.6894967 0.6050832 -0.3980811
vn -0.5616037 0 0.8274063
vn -0.9347081 0 0.3554162
vn 0.9347081 0 -0.3554162
vn 0.5616037 0 -0.8274063
vn -0.08740371 0 -0.996173

vt 3.834911 0
vt -1.528238 0
vt 3.834911 2.53937
vt -1.528238 2.53937
vt -4.127988 2.53937
vt -4.127988 0
vt -8.93014 2.53937
vt -8.93014 0
vt 4.72877 0
vt -4.209813 0
vt 4.72877 2.53937
vt -4.209813 2.53937
vt 0.9886437 2.549089
vt -1.042852 2.549089
vt 0.7956516 3.157097
vt -0.8498603 3.157097
vt 3.86816 1.652288
vt 1.836664 1.652288
vt 3.675168 2.260297
vt 2.029656 2.260297
vt 3.895264 -0.1671231
vt 1.863768 -0.1671231
vt 3.702272 0.4408851
vt 2.056761 0.4408851
vt 6.856955 2.53937
vt 6.856955 0
vt 0.1530182 2.53937
vt 0.1530182 0
vt -6.091819 2.031496
vt -6.091819 2.53937
vt 0.3869949 2.031496
vt 0.3869949 2.53937
vt 1.057013 2.031496
vt -6.351297 2.031496
vt 1.057013 2.53937
vt -6.351297 2.53937
vt -1.863768 1.626478
vt -3.895264 1.626478
vt -2.056761 2.234487
vt -3.702272 2.234487
vt -3.281522 2.53937
vt -3.281522 0
vt -8.644671 2.53937
vt -8.644671 0
vt 3.587975 2.031496
vt 3.587975 2.53937
vt 8.390127 2.031496
vt 8.390127 2.53937
vt 0.2530832 -3.675168
vt 0.2530832 -2.029656
vt 1.678138 -4.497924
vt 1.678138 -1.2069
vt 3.103193 -3.675168
vt 3.103193 -2.029656
vt 3.821535 2.031496
vt 3.821535 2.53937
vt 7.879536 2.031496
vt 7.879536 2.53937
vt 9.419178 8.644671
vt 9.419178 3.281522
vt 4.774554 11.32625
vt 6.062901 -0.1530182
vt 6.062901 -6.856955
vt -1.678138 -11.32625
vt -4.052204 8.118545
vt -9.419178 -6.856955
vt -9.419178 2.081627
vt 3.444677 2.031496
vt -3.963633 2.031496
vt 3.444677 2.53937
vt -3.963633 2.53937
vt 1.042852 -1.089734
vt -0.9886437 -1.089734
vt 0.8498603 -0.4817258
vt -0.7956516 -0.4817258
vt 8.355931 0
vt -1.035608 0
vt 8.355931 2.53937
vt -1.035608 2.53937
vt 7.116434 0
vt -1.822149 0
vt 7.116434 2.53937
vt -1.822149 2.53937
vt -6.856955 0
vt -6.856955 2.53937
vt 2.081627 0
vt 2.081627 2.53937
vt -4.702577 0
vt -4.702577 2.53937
vt 3.375096 0
vt 3.375096 2.53937
vt 6.091819 2.53937
vt 6.091819 2.031496
vt -1.577708 2.53937
vt -1.577708 2.031496
vt 4.198658 2.53937
vt 4.198658 2.031496
vt -3.03987 2.53937
vt -3.03987 2.031496
vt 0.7003822 2.031496
vt -7.738356 2.031496
vt 0.7003822 2.53937
vt -7.738356 2.53937
vt -3.86816 -0.1929332
vt -3.675168 0.4150749
vt -1.836664 -0.1929332
vt -2.029656 0.4150749
vt 0.9106632 2.031496
vt -3.069775 2.031496
vt 0.9106632 2.53937
vt -3.069775 2.53937
vt -6.062901 -0.1530182
vt -4.737647 -6.091819
vt -6.062901 -6.856955
vt 1.678138 -11.32625
vt -4.737647 0.3869949
vt 1.678138 -9.795974
vt -8.093923 3.821535
vt -9.419178 3.281522
vt -9.419178 8.644671
vt -8.093923 7.879536
vt -4.774554 11.32625
vt -4.646762 9.869755
vt 9.419178 -6.856955
vt 8.093923 -6.091819
vt 4.052204 8.118545
vt 3.284494 6.987484
vt 8.093923 1.577708
vt 9.419178 2.081627
vt -2.414249 5.587761
vt -1.402172 5.872243
vt -1.953947 3.950186
vt -0.9418702 4.234668
vt 0.02765729 2.467168
vt 1.025099 3.845079
vt 0.8792534 1.850715
vt 1.876695 3.228626
vt -2.978181 1.898238
vt -2.361728 2.749835
vt -1.600269 0.9007968
vt -0.9838163 1.752393
vt 6.833971 -5.364386
vt 1.678138 -8.341107
vt 6.833971 1.098621
vt -3.477695 -5.364386
vt 2.554614 5.912158
vt -4.525268 8.485033
vt -6.833971 7.152102
vt -3.477695 0.9003984
vt -6.833971 4.334939
vt -0.08118897 -3.86816
vt 1.678138 -4.883908
vt 3.437465 -3.86816
vt 3.437465 -1.836664
vt -0.08118897 -1.836664
vt 1.678138 -0.8209159

usemtl brownLight

f 3/3/1 2/2/2 1/1/1
f 2/2/2 3/3/1 4/4/2
f 7/7/3 6/6/3 5/5/3
f 6/6/3 7/7/3 8/8/3
f 11/11/4 10/10/5 9/9/4
f 10/10/5 11/11/4 12/12/5
f 15/15/6 14/14/7 13/13/6
f 14/14/7 15/15/6 16/16/7
f 18/19/8 13/18/6 17/17/8
f 13/18/6 18/19/8 15/20/6
f 20/23/9 17/22/8 19/21/9
f 17/22/8 20/23/9 18/24/8
f 5/27/3 22/26/10 21/25/10
f 22/26/10 5/27/3 6/28/3
f 25/31/12 24/30/11 23/29/11
f 24/30/11 25/31/12 26/32/12
f 24/35/11 27/34/13 23/33/11
f 27/34/13 24/35/11 28/36/13
f 16/39/7 29/38/14 14/37/7
f 29/38/14 16/39/7 30/40/14
f 3/43/1 8/42/3 7/41/3
f 8/42/3 3/43/1 1/44/1
f 31/47/12 26/46/12 25/45/12
f 26/46/12 31/47/12 32/48/12
f 20/51/15 15/50/15 18/49/15
f 15/50/15 20/51/15 16/52/15
f 16/52/15 20/51/15 33/53/15
f 16/52/15 33/53/15 30/54/15
f 34/57/4 32/56/12 31/55/12
f 32/56/12 34/57/4 35/58/4
f 2/61/16 8/60/16 1/59/16
f 8/60/16 2/61/16 6/62/16
f 6/62/16 2/61/16 22/63/16
f 22/63/16 2/61/16 10/64/16
f 10/64/16 2/61/16 36/65/16
f 10/64/16 36/65/16 9/66/16
f 9/66/16 36/65/16 37/67/16
f 28/70/13 38/69/1 27/68/13
f 38/69/1 28/70/13 39/71/1
f 33/74/17 19/73/9 40/72/17
f 19/73/9 33/74/17 20/75/9
f 4/78/2 36/77/18 2/76/2
f 36/77/18 4/78/2 41/79/18
f 12/82/5 22/81/10 10/80/5
f 22/81/10 12/82/5 21/83/10
f 37/86/19 11/85/4 9/84/4
f 11/85/4 37/86/19 42/87/19
f 36/90/18 42/89/19 37/88/19
f 42/89/19 36/90/18 41/91/18
f 43/94/20 38/93/1 39/92/1
f 38/93/1 43/94/20 44/95/20
f 45/98/21 44/97/20 43/96/20
f 44/97/20 45/98/21 46/99/21
f 45/102/21 47/101/22 46/100/21
f 47/101/22 45/102/21 48/103/22
f 29/106/14 33/105/17 40/104/17
f 33/105/17 29/106/14 30/107/14
f 48/110/22 34/109/4 47/108/22
f 34/109/4 48/110/22 35/111/4
f 21/114/15 24/113/15 5/112/15
f 24/113/15 21/114/15 12/115/15
f 26/116/15 5/112/15 24/113/15
f 24/113/15 12/115/15 28/117/15
f 32/118/15 5/112/15 26/116/15
f 32/118/15 7/119/15 5/112/15
f 7/119/15 32/118/15 3/120/15
f 35/121/15 3/120/15 32/118/15
f 3/120/15 35/121/15 4/122/15
f 4/122/15 35/121/15 48/123/15
f 28/117/15 12/115/15 11/124/15
f 28/117/15 11/124/15 39/125/15
f 4/122/15 48/123/15 41/126/15
f 41/126/15 48/123/15 45/127/15
f 39/125/15 11/124/15 43/128/15
f 41/126/15 45/127/15 43/128/15
f 42/129/15 43/128/15 11/124/15
f 41/126/15 43/128/15 42/129/15

usemtl green

f 51/132/15 50/131/15 49/130/15
f 50/131/15 51/132/15 52/133/15
f 55/136/15 54/135/15 53/134/15
f 54/135/15 55/136/15 56/137/15
f 59/140/15 58/139/15 57/138/15
f 58/139/15 59/140/15 60/141/15

usemtl brown

f 62/143/15 38/125/15 61/142/15
f 61/142/15 38/125/15 63/144/15
f 62/143/15 27/117/15 38/125/15
f 44/128/15 63/144/15 38/125/15
f 64/145/15 27/117/15 62/143/15
f 64/145/15 23/113/15 27/117/15
f 46/127/15 63/144/15 44/128/15
f 46/127/15 65/146/15 63/144/15
f 46/127/15 66/147/15 65/146/15
f 47/123/15 66/147/15 46/127/15
f 47/123/15 67/148/15 66/147/15
f 34/121/15 67/148/15 47/123/15
f 23/113/15 64/145/15 25/116/15
f 68/149/15 25/116/15 64/145/15
f 67/148/15 34/121/15 69/150/15
f 69/150/15 25/116/15 68/149/15
f 31/118/15 69/150/15 34/121/15
f 69/150/15 31/118/15 25/116/15

usemtl brownDark

f 62/143/15 68/149/15 64/145/15
f 68/149/15 62/143/15 57/138/15
f 57/138/15 62/143/15 17/151/15
f 57/138/15 17/151/15 59/140/15
f 59/140/15 17/151/15 60/141/15
f 17/151/15 62/143/15 19/152/15
f 19/152/15 62/143/15 61/142/15
f 19/152/15 61/142/15 40/153/15
f 40/153/15 61/142/15 29/154/15
f 63/144/15 29/154/15 61/142/15
f 65/146/15 29/154/15 63/144/15
f 60/141/15 17/151/15 52/133/15
f 13/155/15 52/133/15 17/151/15
f 51/132/15 60/141/15 52/133/15
f 51/132/15 58/139/15 60/141/15
f 49/130/15 58/139/15 51/132/15
f 58/139/15 49/130/15 57/138/15
f 49/130/15 68/149/15 57/138/15
f 66/147/15 68/149/15 49/130/15
f 66/147/15 49/130/15 50/131/15
f 66/147/15 50/131/15 65/146/15
f 65/146/15 50/131/15 52/133/15
f 67/148/15 68/149/15 66/147/15
f 68/149/15 67/148/15 69/150/15
f 56/137/15 29/154/15 65/146/15
f 56/137/15 14/156/15 29/154/15
f 65/146/15 54/135/15 56/137/15
f 65/146/15 52/133/15 54/135/15
f 55/136/15 14/156/15 56/137/15
f 54/135/15 52/133/15 53/134/15
f 53/134/15 14/156/15 55/136/15
f 53/134/15 52/133/15 13/155/15
f 14/156/15 53/134/15 13/155/15

