# Created by Kenney (www.kenney.nl)

mtllib mincemeatPie.mtl

g mincemeatPie

v 0.2510765 0.1359373 0.1449591
v -3.609557E-16 0.1359373 0.2899182
v 0.2160218 0.1659373 0.1247203
v -3.609557E-16 0.1659373 0.2494405
v -0.2160218 0.1659373 -0.1247203
v -0.2160218 0.1659373 0.1247203
v -0.2510765 0.1359373 -0.1449591
v -0.2510765 0.1359373 0.1449591
v 0.2510765 0.1359373 -0.1449591
v 0.2160218 0.1659373 -0.1247203
v -3.609557E-16 0.1359373 -0.2899182
v -3.609557E-16 0.1659373 -0.2494405
v -0.2654632 0.0965373 -0.1532653
v -0.2654632 0.1359373 -0.1532653
v -0.2654632 0.0965373 0.1532653
v -0.2654632 0.1359373 0.1532653
v 1.082867E-15 0.0965373 0.3065305
v 1.082867E-15 0.1359373 0.3065305
v 0.2654632 0.0965373 0.1532653
v 0.2654632 0.1359373 0.1532653
v 1.082867E-15 0.0965373 -0.3065305
v 0.2654632 0.0965373 -0.1532653
v 1.082867E-15 0.1359373 -0.3065305
v 0.2654632 0.1359373 -0.1532653
v 0.08109003 0.1673173 -5.324097E-15
v 0.08109003 0.1673173 -0.02172801
v 0.08109003 0.1673173 0.02172801
v 0.1141244 0.1673173 0.06588978
v 0.05936202 0.1673173 0.05936202
v 0.03445432 0.1673173 -5.324097E-15
v 0.1141244 0.1673173 -0.06588978
v 4.692424E-15 0.1673173 0.1317796
v 0.04054501 0.1673173 0.07022602
v 0.02172801 0.1673173 0.08109003
v 0.01722716 0.1673173 0.02983831
v 0.05936202 0.1673173 -0.05936202
v 4.692424E-15 0.1673173 -0.1317796
v 0.01722716 0.1673173 -0.02983831
v 0.04054501 0.1673173 -0.07022602
v 0.02172801 0.1673173 -0.08109003
v -0.02172801 0.1673173 -0.08109003
v -0.1141244 0.1673173 -0.06588978
v -0.04054501 0.1673173 -0.07022602
v -0.01722716 0.1673173 -0.02983831
v -0.05936202 0.1673173 -0.05936202
v -0.01722716 0.1673173 0.02983831
v -0.02172801 0.1673173 0.08109003
v -0.1141244 0.1673173 0.06588978
v -0.04054501 0.1673173 0.07022602
v -0.05936202 0.1673173 0.05936202
v -0.03445432 0.1673173 -5.685052E-15
v -0.08109003 0.1673173 -0.02172801
v -0.08109003 0.1673173 -5.324097E-15
v -0.08109003 0.1673173 0.02172801
v 7.58007E-15 0.1450873 0.1768919
v -1.082867E-15 0.1659373 0.2162651
v -0.1531929 0.1450873 0.08844595
v -0.1872911 0.1659373 0.1081326
v 7.58007E-15 0.1450873 -0.1768919
v -0.1531929 0.1450873 -0.08844595
v -1.082867E-15 0.1659373 -0.2162651
v -0.1872911 0.1659373 -0.1081326
v 0.1531929 0.1450873 -0.08844595
v 0.1872911 0.1659373 0.1081326
v 0.1531929 0.1450873 0.08844595
v 0.1872911 0.1659373 -0.1081326
v -0.2510765 0.0965373 0.1449591
v -3.248601E-15 0.0965373 0.2899182
v -0.2510765 0.0965373 -0.1449591
v -1.804779E-15 0.0965373 -0.2899182
v 0.2510765 0.0965373 -0.1449591
v 0.2510765 0.0965373 0.1449591
v 0.2194725 0 0.1267125
v 0.2194725 0 -0.1267125
v -1.082867E-15 0 0.253425
v -1.082867E-15 0 -0.253425
v -0.2194725 0 0.1267125
v -0.2194725 0 -0.1267125
v -3.609557E-16 0.0688125 0.2899182
v -0.2510765 0.0688125 0.1449591
v -0.2510765 0.0688125 -0.1449591
v -3.609557E-16 0.0688125 -0.2899182
v 0.2510765 0.0688125 -0.1449591
v 0.2510765 0.0688125 0.1449591

vn 0.5156659 0.8033999 0.2977198
vn 0 0.8033999 0.5954397
vn -0.5156659 0.8033999 -0.2977198
vn -0.5156659 0.8033999 0.2977198
vn 0.5156659 0.8033999 -0.2977198
vn 0 0.8033999 -0.5954397
vn -0.8660254 0 -0.5
vn -0.8660254 0 0.5
vn 0 0 1
vn 0.8660254 0 0.5
vn 0 0 -1
vn 0.8660254 0 -0.5
vn 0 1 0
vn 0 0.8837385 -0.4679812
vn 0.4052836 0.8837383 -0.2339906
vn 0 0.8837385 0.4679812
vn 0.4052836 0.8837383 0.2339906
vn 0 0.8970064 -0.4420177
vn -0.3827986 0.8970064 -0.2210089
vn 0.3827986 0.8970064 -0.2210089
vn -0.4052836 0.8837383 -0.2339906
vn 0 0.8970064 0.4420177
vn -0.3827986 0.8970064 0.2210089
vn -0.4052836 0.8837383 0.2339906
vn 0.3827986 0.8970064 0.2210089
vn 0 -1 0
vn 0 -0.4685199 0.8834529
vn -0.7650927 -0.4685199 0.4417265
vn -0.7650927 -0.4685199 -0.4417265
vn 0 -0.4685199 -0.8834529
vn 0.7650927 -0.4685199 0.4417265
vn 0.7650927 -0.4685199 -0.4417265

vt 5.707051 -4.030325
vt -5.707051 -4.030325
vt 4.910247 -2.213819
vt -4.910247 -2.213819
vt -6.034065 3.800681
vt -6.034065 5.351862
vt 6.034065 3.800681
vt 6.034065 5.351862
vt -3.192521 -2.096101E-13
vt -3.192521 -0.8554333
vt -3.192521 0.8554333
vt -4.493088 2.594086
vt -2.337087 2.337087
vt -1.356469 -2.096101E-13
vt -4.493088 -2.594086
vt -1.847411E-13 5.188171
vt -1.59626 2.764804
vt -0.8554333 3.192521
vt -0.6782346 1.174737
vt -2.337087 -2.337087
vt -1.847411E-13 -5.188171
vt -0.6782346 -1.174737
vt -1.59626 -2.764804
vt -0.8554333 -3.192521
vt 0.8554333 -3.192521
vt 4.493088 -2.594086
vt 1.59626 -2.764804
vt 0.6782346 -1.174737
vt 2.337087 -2.337087
vt 0.6782346 1.174737
vt 0.8554333 3.192521
vt 4.493088 2.594086
vt 1.59626 2.764804
vt 2.337087 2.337087
vt 1.356469 -2.23821E-13
vt 3.192521 -0.8554333
vt 3.192521 -2.096101E-13
vt 3.192521 0.8554333
vt -3.482124 8.12535
vt -4.257188 9.698879
vt 3.482124 8.12535
vt 4.257188 9.698879
vt -3.482124 -2.417127
vt -2.594086 -0.647436
vt 3.482124 -2.417127
vt 2.594086 -0.647436
vt -9.884903 5.707051
vt -10.45131 6.034065
vt -1.278977E-13 11.4141
vt -9.884903 -5.707051
vt 4.263256E-14 12.06813
vt -10.45131 -6.034065
vt -7.105427E-14 -11.4141
vt 4.263256E-14 -12.06813
vt 9.884903 -5.707051
vt 10.45131 -6.034065
vt 9.884903 5.707051
vt 10.45131 6.034065
vt -4.263256E-14 -12.06813
vt 1.421085E-14 -11.4141
vt -4.263256E-14 12.06813
vt 1.421085E-14 11.4141
vt -8.504797 4.910247
vt -7.373666 -4.257188
vt -8.504797 -4.910247
vt 1.421085E-14 -9.820494
vt -7.373666 4.257188
vt 4.263256E-14 -8.514376
vt 1.421085E-14 9.820494
vt 4.263256E-14 8.514376
vt 8.504797 4.910247
vt 7.373666 4.257188
vt 8.504797 -4.910247
vt 7.373666 -4.257188

usemtl brown

f 3/3/1 2/2/2 1/1/1
f 2/2/2 3/3/1 4/4/2
f 7/2/3 6/3/4 5/4/3
f 6/3/4 7/2/3 8/1/4
f 10/3/5 1/2/1 9/1/5
f 1/2/1 10/3/5 3/4/1
f 6/4/4 2/1/2 4/3/2
f 2/1/2 6/4/4 8/2/4
f 11/1/6 10/4/5 9/2/5
f 10/4/5 11/1/6 12/3/6
f 7/1/3 12/4/6 11/2/6
f 12/4/6 7/1/3 5/3/3
f 15/7/8 14/6/7 13/5/7
f 14/6/7 15/7/8 16/8/8
f 18/8/9 15/5/8 17/7/9
f 15/5/8 18/8/9 16/6/8
f 20/8/10 17/5/9 19/7/10
f 17/5/9 20/8/10 18/6/9
f 23/8/11 22/5/12 21/7/11
f 22/5/12 23/8/11 24/6/12
f 14/8/7 21/5/11 13/7/7
f 21/5/11 14/8/7 23/6/11
f 20/6/10 22/7/12 24/8/12
f 22/7/12 20/6/10 19/5/10
f 27/11/13 26/10/13 25/9/13
f 27/11/13 28/12/13 26/10/13
f 29/13/13 28/12/13 27/11/13
f 30/14/13 29/13/13 27/11/13
f 31/15/13 26/10/13 28/12/13
f 28/12/13 29/13/13 32/16/13
f 32/16/13 29/13/13 33/17/13
f 32/16/13 33/17/13 34/18/13
f 32/16/13 34/18/13 35/19/13
f 29/13/13 30/14/13 35/19/13
f 26/10/13 31/15/13 36/20/13
f 36/20/13 30/14/13 26/10/13
f 36/20/13 31/15/13 37/21/13
f 30/14/13 38/22/13 35/19/13
f 30/14/13 36/20/13 38/22/13
f 32/16/13 35/19/13 38/22/13
f 32/16/13 38/22/13 37/21/13
f 36/20/13 37/21/13 39/23/13
f 40/24/13 37/21/13 38/22/13
f 39/23/13 37/21/13 40/24/13
f 32/16/13 37/21/13 41/25/13
f 41/25/13 37/21/13 42/26/13
f 41/25/13 42/26/13 43/27/13
f 32/16/13 41/25/13 44/28/13
f 43/27/13 42/26/13 45/29/13
f 46/30/13 32/16/13 44/28/13
f 45/29/13 46/30/13 44/28/13
f 47/31/13 32/16/13 46/30/13
f 32/16/13 47/31/13 48/32/13
f 48/32/13 47/31/13 49/33/13
f 48/32/13 49/33/13 50/34/13
f 46/30/13 45/29/13 51/35/13
f 51/35/13 50/34/13 46/30/13
f 51/35/13 45/29/13 52/36/13
f 45/29/13 42/26/13 52/36/13
f 52/36/13 42/26/13 53/37/13
f 50/34/13 51/35/13 54/38/13
f 48/32/13 50/34/13 54/38/13
f 53/37/13 42/26/13 54/38/13
f 48/32/13 54/38/13 42/26/13
f 57/41/15 56/40/14 55/39/14
f 56/40/14 57/41/15 58/42/15
f 61/42/16 60/39/17 59/41/16
f 60/39/17 61/42/16 62/40/17
f 60/45/19 37/44/18 59/43/18
f 37/44/18 60/45/19 42/46/19
f 59/45/18 31/44/20 63/43/20
f 31/44/20 59/45/18 37/46/18
f 65/39/21 56/42/14 64/40/21
f 56/42/14 65/39/21 55/41/14
f 32/46/22 57/43/23 55/45/22
f 57/43/23 32/46/22 48/44/23
f 61/40/16 63/41/24 66/42/24
f 63/41/24 61/40/16 59/39/16
f 60/43/19 48/46/23 42/44/19
f 48/46/23 60/43/19 57/45/23
f 31/46/20 65/43/25 63/45/20
f 65/43/25 31/46/20 28/44/25
f 28/46/25 55/43/22 65/45/25
f 55/43/22 28/46/25 32/44/22
f 63/39/24 64/42/21 66/40/24
f 64/42/21 63/39/24 65/41/21
f 62/42/17 57/39/15 60/41/17
f 57/39/15 62/42/17 58/40/15
f 68/49/26 15/48/26 67/47/26
f 67/47/26 15/48/26 69/50/26
f 68/49/26 17/51/26 15/48/26
f 13/52/26 69/50/26 15/48/26
f 13/52/26 70/53/26 69/50/26
f 21/54/26 70/53/26 13/52/26
f 21/54/26 71/55/26 70/53/26
f 22/56/26 71/55/26 21/54/26
f 72/57/26 17/51/26 68/49/26
f 71/55/26 22/56/26 72/57/26
f 72/57/26 19/58/26 17/51/26
f 19/58/26 72/57/26 22/56/26
f 24/52/13 9/50/13 20/48/13
f 9/50/13 24/52/13 23/59/13
f 1/47/13 20/48/13 9/50/13
f 9/50/13 23/59/13 11/60/13
f 20/48/13 1/47/13 18/61/13
f 18/61/13 1/47/13 2/62/13
f 18/61/13 2/62/13 16/58/13
f 16/58/13 2/62/13 8/57/13
f 11/60/13 23/59/13 14/56/13
f 16/58/13 8/57/13 14/56/13
f 11/60/13 14/56/13 7/55/13
f 7/55/13 14/56/13 8/57/13
f 10/65/13 66/64/13 3/63/13
f 66/64/13 10/65/13 12/66/13
f 64/67/13 3/63/13 66/64/13
f 66/64/13 12/66/13 61/68/13
f 3/63/13 64/67/13 4/69/13
f 4/69/13 64/67/13 56/70/13
f 4/69/13 56/70/13 6/71/13
f 6/71/13 56/70/13 58/72/13
f 61/68/13 12/66/13 5/73/13
f 6/71/13 58/72/13 5/73/13
f 61/68/13 5/73/13 62/74/13
f 62/74/13 5/73/13 58/72/13

usemtl brownDark

f 52/36/13 54/38/13 51/35/13
f 54/38/13 52/36/13 53/37/13
f 46/30/13 49/33/13 47/31/13
f 49/33/13 46/30/13 50/34/13
f 35/19/13 33/17/13 29/13/13
f 33/17/13 35/19/13 34/18/13
f 30/14/13 25/9/13 26/10/13
f 25/9/13 30/14/13 27/11/13
f 39/23/13 38/22/13 36/20/13
f 38/22/13 39/23/13 40/24/13
f 44/28/13 43/27/13 45/29/13
f 43/27/13 44/28/13 41/25/13

usemtl _defaultMat

f 75/27/26 74/28/26 73/25/26
f 74/27/26 75/28/26 76/25/26
f 76/27/26 75/28/26 77/25/26
f 76/27/26 77/28/26 78/25/26
f 79/27/27 77/28/28 75/25/27
f 77/27/28 79/28/27 80/25/28
f 81/27/29 76/28/30 78/25/29
f 76/27/30 81/28/29 82/25/30
f 80/27/8 69/28/7 81/25/7
f 69/27/7 80/28/8 67/25/8
f 68/27/9 80/28/8 79/25/9
f 80/27/8 68/28/9 67/25/8
f 72/27/10 83/28/12 71/25/12
f 83/27/12 72/28/10 84/25/10
f 84/27/31 75/28/27 73/25/31
f 75/27/27 84/28/31 79/25/27
f 84/27/31 74/28/32 83/25/32
f 74/27/32 84/28/31 73/25/31
f 78/27/29 80/28/28 81/25/29
f 80/27/28 78/28/29 77/25/28
f 82/27/30 74/28/32 76/25/30
f 74/27/32 82/28/30 83/25/32
f 70/43/11 83/46/12 82/44/11
f 83/43/12 70/46/11 71/44/12
f 72/43/10 79/46/9 84/44/10
f 79/43/9 72/46/10 68/44/9
f 69/43/7 82/46/11 81/44/7
f 82/43/11 69/46/7 70/44/11

