# Created by Kenney (www.kenney.nl)

mtllib muffin.mtl

g muffin

v 0 0.2486 -0.06097034
v 0.05280186 0.2486 -0.03048517
v 0 0.2386 -0.03048517
v -0.04608841 0.1986 0.1167145
v -0.0761792 0.1486 0.1319462
v -0.07803354 0.1986 0.098271
v 0.07803354 0.1986 0.098271
v 0.0761792 0.1486 0.1319462
v 0.04608841 0.1986 0.1167145
v 0.1241219 0.1986 -0.01844353
v 0.1523584 0.1486 7.219114E-16
v 0.1241219 0.1986 0.01844353
v 0.04608841 0.1986 -0.1167145
v 0.0761792 0.1486 -0.1319462
v 0.07803354 0.1986 -0.098271
v -0.07803354 0.1986 -0.098271
v -0.0761792 0.1486 -0.1319462
v -0.04608841 0.1986 -0.1167145
v -0.1523584 0.1486 7.219114E-16
v -0.1241219 0.1986 -0.01844353
v -0.1241219 0.1986 0.01844353
v 0 0.2486 0.06097034
v -0.05280186 0.2486 0.03048517
v -0.05280186 0.2486 -0.03048517
v 0.05280186 0.2486 0.03048517
v 0 0.2386 0.03048517
v 0.07119551 0.1186 -0.1233142
v 0.142391 0.1186 3.609557E-16
v -0.142391 0.1186 3.609557E-16
v -0.07119551 0.1186 0.1233142
v -0.07119551 0.1186 -0.1233142
v 0.07119551 0.1186 0.1233142
v -0.05898355 0.1186 0.1021625
v 0.05898355 0.1186 0.1021625
v -0.1179671 0.1186 3.609557E-16
v 0.1179671 0.1186 3.609557E-16
v 0.05898355 0.1186 -0.1021625
v -0.05898355 0.1186 -0.1021625
v 0.08847532 0 3.609557E-16
v 0.04423766 0 -0.07662188
v 0.04423766 0 0.07662188
v -0.04423766 0 0.07662188
v -0.04423766 0 -0.07662188
v -0.08847532 0 3.609557E-16

vn 0 0.9501846 0.3116875
vn -0.1854736 0.9793351 0.08063809
vn 0 0.987917 0.1549838
vn -0.1690541 0.3789139 0.9098599
vn -0.4638612 0.3732709 0.8034311
vn -0.7034348 0.3789138 0.601335
vn 0.7034348 0.3789138 0.601335
vn 0.4638612 0.3732709 0.8034311
vn 0.1690541 0.3789139 0.9098599
vn 0.8724888 0.3789138 -0.3085248
vn 0.9277224 0.3732709 0
vn 0.8724888 0.3789138 0.3085248
vn 0.1690541 0.3789139 -0.9098599
vn 0.4638612 0.3732709 -0.8034311
vn 0.7034348 0.3789138 -0.601335
vn -0.7034348 0.3789138 -0.601335
vn -0.4638612 0.3732709 -0.8034311
vn -0.1690541 0.3789139 -0.9098599
vn -0.9277224 0.3732709 0
vn -0.8724888 0.3789138 -0.3085248
vn -0.8724888 0.3789138 0.3085248
vn 0.4013804 0.8020798 -0.4422235
vn 0.583667 0.8020798 -0.1264939
vn 0.4880822 0.8260555 -0.2817944
vn 0 0.8260555 0.5635888
vn 0.1822865 0.8020798 0.5687174
vn -0.1822865 0.8020798 0.5687174
vn -0.4880822 0.8260555 0.2817944
vn -0.4013804 0.8020798 0.4422235
vn -0.583667 0.8020798 0.1264939
vn 0.1822865 0.8020798 -0.5687174
vn 0 0.8260555 -0.5635888
vn -0.1822865 0.8020798 -0.5687174
vn -0.4013804 0.8020798 -0.4422235
vn -0.4880822 0.8260555 -0.2817944
vn -0.583667 0.8020798 -0.1264939
vn 0.583667 0.8020798 0.1264939
vn 0.4013804 0.8020798 0.4422235
vn 0.4880822 0.8260555 0.2817944
vn 0 0.987917 -0.1549838
vn -0.1854736 0.9793351 -0.08063809
vn 0 0.9501846 -0.3116875
vn 0.1854736 0.9793351 -0.08063809
vn 0.1854736 0.9793351 0.08063809
vn 0.4744962 -0.3152987 -0.8218516
vn 0.9489926 -0.3152987 0
vn -0.9489926 -0.3152987 0
vn -0.4744962 -0.3152987 0.8218516
vn -0.4744962 -0.3152987 -0.8218516
vn 0.4744962 -0.3152987 0.8218516
vn 0 -1 0
vn 0.4852232 -0.2413169 -0.8404312
vn 0.9704463 -0.2413169 0
vn 0.4852232 -0.2413169 0.8404312
vn -0.4852232 -0.2413169 -0.8404312
vn -0.9704463 -0.2413169 0
vn -0.4852232 -0.2413169 0.8404312

vt -1.200204 5.410886
vt 1.200204 5.410886
vt -0.6001018 4.299416
vt 0.7261231 4.40531
vt 1.527667E-13 2.144598
vt -0.7261231 4.40531
vt -2.664535E-14 2.144598
vt -2.857888E-14 2.144598
vt -1.838529E-13 2.144598
vt -7.371881E-14 2.144598
vt 2.834241E-14 2.144598
vt 1.814505 1.800109
vt -1.814505 1.800109
vt 2.109424E-14 4.748246
vt 2.135222E-14 4.748246
vt -2.242651E-14 4.748246
vt 2.143934E-14 4.748246
vt -2.331468E-14 4.748246
vt -1.421085E-14 4.748246
vt 0.6001018 4.299416
vt 2.999181 7.058704
vt 2.802973 5.829682
vt -2.999181 7.058704
vt -2.802973 5.829682
vt -2.999181 4.082663
vt -1.814505 6.140481
vt 2.999181 4.082663
vt 1.814505 6.140481
vt -1.200204 3.916253
vt 1.200204 3.916253
vt -0.7261231 0.4870863
vt 0.7261231 0.4870863
vt -1.200204 3.863742
vt 1.200204 3.863742
vt -1.200204 1.747976
vt 1.200204 1.747976
vt -2.322187 4.022146
vt -2.802973 4.854891
vt 2.322187 4.022146
vt -4.644374 1.421085E-14
vt 2.802973 4.854891
vt -5.605946 1.421085E-14
vt 4.644374 1.421085E-14
vt 5.605946 1.421085E-14
vt 2.802973 -4.854891
vt 2.322187 -4.022146
vt -2.802973 -4.854891
vt -2.322187 -4.022146
vt 3.483281 1.421085E-14
vt 1.74164 -3.01661
vt 1.74164 3.01661
vt -1.74164 3.01661
vt -1.74164 -3.01661
vt -3.483281 1.421085E-14
vt 2.322187 5.411407
vt 1.74164 0.6350707
vt -2.322187 5.411407
vt -1.74164 0.6350707

usemtl brown

f 3/3/3 2/2/2 1/1/1
f 6/6/6 5/5/5 4/4/4
f 9/6/9 8/7/8 7/4/7
f 12/6/12 11/8/11 10/4/10
f 15/6/15 14/9/14 13/4/13
f 18/6/18 17/10/17 16/4/16
f 21/4/21 20/6/20 19/11/19
f 2/14/24 10/13/23 15/12/22
f 4/13/27 9/12/26 22/15/25
f 21/13/30 6/12/29 23/16/28
f 18/12/33 1/17/32 13/13/31
f 20/12/36 24/18/35 16/13/34
f 25/19/39 7/13/38 12/12/37
f 22/2/42 25/1/41 26/20/40
f 23/2/43 22/1/42 26/3/40
f 24/1/44 3/20/3 1/2/1
f 11/23/46 27/22/45 14/21/45
f 27/22/45 11/23/46 28/24/46
f 30/22/48 19/23/47 29/24/47
f 19/23/47 30/22/48 5/21/48
f 17/21/49 27/24/45 31/22/49
f 27/24/45 17/21/49 14/23/45
f 31/24/49 19/21/47 17/23/49
f 19/21/47 31/24/49 29/22/47
f 8/21/50 30/24/48 32/22/50
f 30/24/48 8/21/50 5/23/48
f 11/21/46 32/24/50 28/22/46
f 32/24/50 11/21/46 8/23/50
f 5/27/5 21/26/21 19/25/19
f 21/26/21 5/27/5 6/28/6
f 18/31/33 24/30/35 1/29/32
f 24/30/35 18/31/33 16/32/34
f 25/30/39 9/31/26 7/32/38
f 9/31/26 25/30/39 22/29/25
f 23/29/28 4/32/27 22/30/25
f 4/32/27 23/29/28 6/31/29
f 15/28/15 11/25/11 14/27/14
f 11/25/11 15/28/15 10/26/10
f 18/28/18 14/25/14 17/27/17
f 14/25/14 18/28/18 13/26/13
f 2/30/24 12/31/37 10/32/23
f 12/31/37 2/30/24 25/29/39
f 13/32/31 2/29/24 15/31/22
f 2/29/24 13/32/31 1/30/32
f 19/27/19 16/26/16 17/25/17
f 16/26/16 19/27/19 20/28/20
f 9/28/9 5/25/5 8/27/8
f 5/25/5 9/28/9 4/26/4
f 20/31/36 23/30/28 24/29/35
f 23/30/28 20/31/36 21/32/30
f 12/28/12 8/25/8 11/27/11
f 8/25/8 12/28/12 7/26/7
f 3/35/3 25/34/41 2/33/2
f 25/34/41 3/35/3 26/36/40
f 24/34/44 26/35/40 3/36/3
f 26/35/40 24/34/44 23/33/43
f 34/39/51 30/38/51 33/37/51
f 33/37/51 30/38/51 35/40/51
f 34/39/51 32/41/51 30/38/51
f 35/40/51 30/38/51 29/42/51
f 36/43/51 32/41/51 34/39/51
f 32/41/51 36/43/51 28/44/51
f 36/43/51 27/45/51 28/44/51
f 27/45/51 36/43/51 37/46/51
f 31/47/51 35/40/51 29/42/51
f 27/45/51 37/46/51 31/47/51
f 31/47/51 38/48/51 35/40/51
f 31/47/51 37/46/51 38/48/51

usemtl brownDark

f 41/51/51 40/50/51 39/49/51
f 40/50/51 41/51/51 42/52/51
f 40/50/51 42/52/51 43/53/51
f 43/53/51 42/52/51 44/54/51
f 36/57/53 40/56/52 37/55/52
f 40/56/52 36/57/53 39/58/53
f 34/57/54 39/56/53 36/55/53
f 39/56/53 34/57/54 41/58/54
f 43/58/55 35/55/56 38/57/55
f 35/55/56 43/58/55 44/56/56
f 38/55/55 40/58/52 43/56/55
f 40/58/52 38/55/55 37/57/52
f 34/55/54 42/58/57 41/56/54
f 42/58/57 34/55/54 33/57/57
f 42/56/57 35/57/56 44/58/56
f 35/57/56 42/56/57 33/55/57

