# Created by Kenney (www.kenney.nl)

mtllib mug.mtl

g mug

v 0.1846465 0.13068 -0.0155844
v 0.1484417 0.1933886 -0.0155844
v 0.1846465 0.13068 0.0155844
v 0.1484417 0.1933886 0.0155844
v 0.1122369 0.21336 0.0648
v 0 0.21336 0.1296
v 0.1122369 0.24936 0.0648
v 0 0.26136 0.1296
v 0.1122369 0.26136 0.0648
v 0.08674999 0.26136 0.05008513
v -2.436451E-15 0.26136 0.1001703
v 0.1122369 0.24936 -0.0648
v 0.08674999 0.24936 -0.05008513
v 0.1122369 0.27336 -0.0648
v 0.08674999 0.27336 -0.05008513
v 0.1430347 0.1933886 0.0155844
v 0.1430347 0.1933886 -0.0155844
v 0.1234606 0.1933886 0.0155844
v 0.1234606 0.1933886 -0.0155844
v 0.1662228 0.2241864 0.0155844
v 0.1122369 0.2241864 0.0155844
v 0.1662228 0.2241864 -0.0155844
v 0.1122369 0.2241864 -0.0155844
v 0.2202088 0.13068 -0.0155844
v 0.2202088 0.13068 0.0155844
v -2.436451E-15 0.04536 0.1001703
v 0.08674999 0.04536 0.05008513
v 0.08674999 0.24936 0.05008513
v 0 0.084 0.1296
v -0.1122369 0.084 0.0648
v 0 0.17736 0.1296
v -0.1122369 0.17736 0.0648
v 0.1662228 0.0371736 0.0155844
v 0.1662228 0.0371736 -0.0155844
v 0.1122369 0.0371736 0.0155844
v 0.1122369 0.0371736 -0.0155844
v -2.436451E-15 0.27336 0.1001703
v 0 0.27336 0.1296
v 0.1122369 0.048 0.0155844
v 0.1234606 0.048 0.0155844
v 0.1484417 0.06797145 0.0155844
v 0.1234606 0.06797145 0.0155844
v 0.1430347 0.06797145 0.0155844
v 0.1234606 0.21336 0.0155844
v 0.1122369 0.21336 0.0155844
v 0.1484417 0.06797145 -0.0155844
v 0.1430347 0.06797145 -0.0155844
v 0.1234606 0.06797145 -0.0155844
v -0.1122369 0.084 -0.0648
v -0.1122369 0.17736 -0.0648
v -2.129639E-14 1.500252E-18 -0.1296
v 0.1122369 1.500252E-18 -0.0648
v -2.129639E-14 0.048 -0.1296
v 0.1122369 0.048 -0.0648
v -0.1122369 0.27336 0.0648
v -0.08674999 0.27336 0.05008513
v -0.1122369 1.500252E-18 -0.0648
v -0.1122369 0.048 -0.0648
v -0.1122369 0.21336 0.0648
v -0.1122369 0.24936 0.0648
v -2.129639E-14 0.084 -0.1296
v -2.129639E-14 0.17736 -0.1296
v -2.129639E-14 0.26136 -0.1296
v -2.129639E-14 0.27336 -0.1296
v -1.895018E-14 0.26136 -0.1001703
v -1.895018E-14 0.27336 -0.1001703
v 0.08674999 0.04536 -0.05008513
v -1.895018E-14 0.04536 -0.1001703
v -0.08674999 0.04536 0.05008513
v -0.08674999 0.04536 -0.05008513
v 0.1122369 1.500252E-18 0.0648
v 0 1.500252E-18 0.1296
v 0.1122369 0.048 0.0648
v 0 0.048 0.1296
v -0.08674999 0.24936 -0.05008513
v -0.1122369 0.24936 -0.0648
v -0.08674999 0.26136 -0.05008513
v -0.1122369 0.26136 -0.0648
v -2.129639E-14 0.21336 -0.1296
v 0.1122369 0.21336 -0.0648
v 0.1122369 0.084 -0.0648
v 0.1122369 0.17736 -0.0648
v 0.1122369 0.084 0.0648
v 0.1122369 0.17736 0.0648
v -0.08674999 0.24936 0.05008513
v -0.1122369 1.500252E-18 0.0648
v -0.1122369 0.048 0.0648
v -0.1122369 0.21336 -0.0648
v 0.1122369 0.21336 -0.0155844
v 0.1122369 0.048 -0.0155844
v 0.1234606 0.21336 -0.0155844
v 0.1234606 0.048 -0.0155844
v 0.1234606 0.17736 0.07128
v 1.985256E-15 0.17736 0.14256
v 0.1234606 0.21336 0.07128
v 1.985256E-15 0.21336 0.14256
v 0.1234606 0.17736 -0.07128
v 0.1234606 0.21336 -0.07128
v 0.1234606 0.048 0.07128
v 0.1234606 0.084 0.07128
v 0.1234606 0.084 -0.07128
v 0.1234606 0.048 -0.07128
v -0.1234606 0.17736 -0.07128
v -0.1234606 0.21336 -0.07128
v -0.1234606 0.17736 0.07128
v -0.1234606 0.21336 0.07128
v -2.147686E-14 0.17736 -0.14256
v -2.147686E-14 0.21336 -0.14256
v -0.1234606 0.048 -0.07128
v -2.147686E-14 0.048 -0.14256
v -0.1234606 0.084 -0.07128
v -2.147686E-14 0.084 -0.14256
v 1.985256E-15 0.048 0.14256
v 1.985256E-15 0.084 0.14256
v -0.1234606 0.048 0.07128
v -0.1234606 0.084 0.07128

vn -1 0 0
vn -0.5 -0.8660254 0
vn 0.5 0 0.8660254
vn 0 1 0
vn 0 -1 0
vn 0.5 0.8660254 0
vn 1 0 0
vn -0.5 0 -0.8660254
vn -0.5 0 0.8660254
vn 0.5 -0.8660254 0
vn 0 0 1
vn -0.5 0.8660254 0
vn 0.5 0 -0.8660254
vn 0 0 -1
vn 0.8660254 0 0.5
vn 0.8660254 0 -0.5
vn -0.8660254 0 -0.5
vn -0.8660254 0 0.5

vt -0.6135591 0.820825
vt -0.6135591 3.671597
vt 0.6135591 0.820825
vt 0.6135591 3.671597
vt 2.551181 8.4
vt -2.551181 8.4
vt 2.551181 9.817323
vt -2.551181 10.28976
vt 2.551181 10.28976
vt -4.418775 2.551181
vt 0 5.102362
vt -3.415354 1.971856
vt 9.592327E-14 3.943711
vt 5.102362 9.817323
vt 3.943711 9.817323
vt 5.102362 10.76221
vt 3.943711 10.76221
vt 5.844161 0.6135591
vt 5.844161 -0.6135591
vt 5.631289 0.6135591
vt 5.631289 -0.6135591
vt 4.860653 0.6135591
vt 4.860653 -0.6135591
vt -6.544206 0.6135591
vt -4.418775 0.6135591
vt -6.544206 -0.6135591
vt -4.418775 -0.6135591
vt 0.6135591 0.1207799
vt -0.6135591 0.1207799
vt 0.6135591 4.371642
vt -0.6135591 4.371642
vt 1.971856 1.785827
vt -1.971856 1.785827
vt 1.971856 10.28976
vt -1.971856 9.817323
vt -1.971856 10.28976
vt 2.551181 3.307087
vt -2.551181 3.307087
vt 2.551181 6.982677
vt -2.551181 6.982677
vt 6.544206 0.6135591
vt 6.544206 -0.6135591
vt 4.418775 0.6135591
vt 4.418775 -0.6135591
vt -3.943711 10.76221
vt -3.943711 10.28976
vt -5.102362 10.76221
vt -5.102362 10.28976
vt 4.418775 1.889764
vt 4.860653 1.889764
vt 4.418775 1.463528
vt 5.844161 2.676041
vt 4.860653 2.676041
vt 5.631289 2.676041
vt 6.544206 1.463528
vt 8.669637 5.144882
vt 7.269547 5.144882
vt 6.544206 8.826236
vt 5.844161 7.613722
vt 5.631289 7.613722
vt 4.860653 7.613722
vt 4.860653 8.4
vt 4.418775 8.4
vt 4.418775 8.826236
vt -5.844161 0.6135591
vt -5.631289 0.6135591
vt -5.844161 -0.6135591
vt -5.631289 -0.6135591
vt -4.860653 0.6135591
vt -4.860653 -0.6135591
vt 0.6135591 8.790417
vt 0.6135591 4.539555
vt -0.6135591 8.790417
vt -0.6135591 4.539555
vt 2.551181 -8.889981E-14
vt -2.551181 -8.889981E-14
vt 2.551181 1.889764
vt -2.551181 1.889764
vt 4.418775 2.551181
vt 3.415354 1.971856
vt 2.551181 -2.849309E-14
vt -2.551181 -2.849309E-14
vt -2.551181 9.817323
vt -2.551181 10.76221
vt 2.551181 10.76221
vt -3.415354 -1.971856
vt 7.460699E-13 -3.943711
vt 3.415354 -1.971856
vt -3.943711 9.817323
vt -5.102362 9.817323
vt 1.971856 9.817323
vt 2.551181 -3.159436E-14
vt -2.551181 -3.159436E-14
vt -4.418775 -2.551181
vt 8.384404E-13 -5.102362
vt 4.418775 -2.551181
vt 2.551181 2.884916E-14
vt -2.551181 2.884916E-14
vt 1.971856 10.76221
vt -1.971856 10.76221
vt 0.6135591 8.826236
vt 0.6135591 8.4
vt -0.6135591 8.826236
vt -0.6135591 8.4
vt -0.6135591 1.889764
vt -0.6135591 1.463528
vt -2.551181 -2.473534E-13
vt 0.6135591 1.463528
vt 2.551181 -2.473534E-13
vt 0.6135591 1.889764
vt -8.384404E-13 -5.102362
vt -2.551181 5.906504E-17
vt 2.551181 5.906504E-17
vt -0.6135591 8.090372
vt 0.6135591 8.090372
vt -0.6135591 5.2396
vt 0.6135591 5.2396
vt -4.860653 7.613722
vt -5.631289 7.613722
vt -4.860653 8.4
vt -5.844161 7.613722
vt -6.544206 8.826236
vt -4.418775 8.826236
vt -4.418775 8.4
vt -8.669637 5.144882
vt -7.269547 5.144882
vt -5.844161 2.676041
vt -6.544206 1.463528
vt -4.860653 1.889764
vt -4.860653 2.676041
vt -5.631289 2.676041
vt -4.418775 1.889764
vt -4.418775 1.463528
vt 2.806299 6.982677
vt -2.806299 6.982677
vt 2.806299 8.4
vt -2.806299 8.4
vt -0.6135591 7.613722
vt 0.6135591 7.613722
vt -2.806299 1.889764
vt -2.806299 3.307087
vt -0.6135591 2.676041
vt 0.6135591 2.676041
vt 2.806299 3.307087
vt 2.806299 1.889764
vt -4.860653 2.806299
vt -7.81597E-14 5.612598
vt 4.860653 2.806299
vt 4.860653 -2.806299
vt 8.455459E-13 -5.612598
vt -4.860653 -2.806299
vt -8.455427E-13 -5.612598
vt -8.384373E-13 -5.102362
vt 3.124363E-18 5.102362
vt 7.816282E-14 5.612598
vt 7.81597E-14 5.612598
vt -8.455459E-13 -5.612598

usemtl brownDark

f 3/3/1 2/2/2 1/1/1
f 2/2/2 3/3/1 4/4/2
f 7/7/3 6/6/3 5/5/3
f 6/6/3 7/7/3 8/8/3
f 8/8/3 7/7/3 9/9/3
f 10/12/4 8/11/4 9/10/4
f 8/11/4 10/12/4 11/13/4
f 14/16/3 13/15/3 12/14/3
f 13/15/3 14/16/3 15/17/3
f 16/20/5 2/19/2 4/18/2
f 2/19/2 16/20/5 17/21/5
f 17/21/5 16/20/5 18/22/5
f 17/21/5 18/22/5 19/23/5
f 22/26/6 21/25/4 20/24/6
f 21/25/4 22/26/6 23/27/4
f 22/30/6 25/29/7 24/28/7
f 25/29/7 22/30/6 20/31/6
f 11/34/8 27/33/8 26/32/8
f 27/33/8 11/34/8 28/35/8
f 28/35/8 11/34/8 10/36/8
f 31/39/9 30/38/9 29/37/9
f 30/38/9 31/39/9 32/40/9
f 35/43/5 34/42/10 33/41/10
f 34/42/10 35/43/5 36/44/5
f 38/47/7 11/46/7 37/45/7
f 11/46/7 38/47/7 8/48/7
f 35/51/11 40/50/11 39/49/11
f 35/51/11 41/52/11 40/50/11
f 40/50/11 41/52/11 42/53/11
f 43/54/11 42/53/11 41/52/11
f 33/55/11 41/52/11 35/51/11
f 41/52/11 33/55/11 25/56/11
f 41/52/11 25/56/11 3/57/11
f 3/57/11 25/56/11 20/58/11
f 3/57/11 20/58/11 4/59/11
f 4/59/11 20/58/11 16/60/11
f 16/60/11 20/58/11 18/61/11
f 18/61/11 20/58/11 44/62/11
f 44/62/11 20/58/11 45/63/11
f 45/63/11 20/58/11 21/64/11
f 46/67/12 43/66/4 41/65/12
f 43/66/4 46/67/12 47/68/4
f 43/66/4 47/68/4 42/69/4
f 42/69/4 47/68/4 48/70/4
f 25/73/7 34/72/10 24/71/7
f 34/72/10 25/73/7 33/74/10
f 30/37/1 50/40/1 49/38/1
f 50/40/1 30/37/1 32/39/1
f 53/77/13 52/76/13 51/75/13
f 52/76/13 53/77/13 54/78/13
f 37/13/4 55/79/4 38/11/4
f 55/79/4 37/13/4 56/80/4
f 58/77/8 51/82/8 57/81/8
f 51/82/8 58/77/8 53/78/8
f 8/9/9 59/6/9 6/5/9
f 59/6/9 8/9/9 60/83/9
f 60/83/9 8/9/9 55/84/9
f 55/84/9 8/9/9 38/85/9
f 50/39/8 61/38/8 49/37/8
f 61/38/8 50/39/8 62/40/8
f 65/46/1 64/47/1 63/48/1
f 64/47/1 65/46/1 66/45/1
f 67/86/4 26/13/4 27/12/4
f 26/13/4 67/86/4 68/87/4
f 26/13/4 68/87/4 69/80/4
f 69/80/4 68/87/4 70/88/4
f 10/46/13 7/90/13 28/89/13
f 7/90/13 10/46/13 9/48/13
f 27/32/1 13/35/1 67/33/1
f 13/35/1 27/32/1 28/91/1
f 73/77/3 72/93/3 71/92/3
f 72/93/3 73/77/3 74/78/3
f 77/46/9 76/90/9 75/89/9
f 76/90/9 77/46/9 78/48/9
f 65/34/3 70/33/3 68/32/3
f 70/33/3 65/34/3 75/35/3
f 75/35/3 65/34/3 77/36/3
f 63/9/13 80/6/13 79/5/13
f 80/6/13 63/9/13 12/83/13
f 12/83/13 63/9/13 14/84/13
f 14/84/13 63/9/13 64/85/13
f 64/95/4 15/86/4 14/94/4
f 15/86/4 64/95/4 66/87/4
f 62/39/13 81/38/13 61/37/13
f 81/38/13 62/39/13 82/40/13
f 84/39/3 29/38/3 83/37/3
f 29/38/3 84/39/3 31/40/3
f 63/95/4 77/88/4 65/87/4
f 77/88/4 63/95/4 78/96/4
f 75/88/4 60/79/4 85/80/4
f 60/79/4 75/88/4 76/96/4
f 74/77/9 86/98/9 72/97/9
f 86/98/9 74/77/9 87/78/9
f 85/91/13 26/33/13 69/32/13
f 26/33/13 85/91/13 11/36/13
f 11/36/13 85/91/13 56/99/13
f 11/36/13 56/99/13 37/100/13
f 84/40/7 81/37/7 82/39/7
f 81/37/7 84/40/7 83/38/7
f 59/5/1 76/83/1 88/6/1
f 76/83/1 59/5/1 60/7/1
f 85/35/7 70/32/7 75/91/7
f 70/32/7 85/35/7 69/33/7
f 13/91/9 68/33/9 67/32/9
f 68/33/9 13/91/9 65/36/9
f 65/36/9 13/91/9 15/99/9
f 65/36/9 15/99/9 66/100/9
f 7/83/7 80/5/7 12/7/7
f 80/5/7 7/83/7 23/101/7
f 89/102/7 80/5/7 23/101/7
f 23/101/7 7/83/7 21/103/7
f 21/103/7 7/83/7 45/104/7
f 45/104/7 7/83/7 5/6/7
f 73/78/7 35/106/7 39/105/7
f 35/106/7 73/78/7 71/107/7
f 71/107/7 36/108/7 35/106/7
f 52/109/7 36/108/7 71/107/7
f 52/109/7 90/110/7 36/108/7
f 90/110/7 52/109/7 54/77/7
f 72/11/5 52/96/5 71/79/5
f 52/96/5 72/11/5 51/111/5
f 51/111/5 72/11/5 86/10/5
f 51/111/5 86/10/5 57/94/5
f 86/113/1 58/78/1 57/112/1
f 58/78/1 86/113/1 87/77/1
f 76/7/8 79/6/8 88/5/8
f 79/6/8 76/7/8 63/8/8
f 63/8/8 76/7/8 78/9/8
f 12/94/4 28/12/4 7/10/4
f 28/12/4 12/94/4 13/86/4
f 55/16/8 85/15/8 60/14/8
f 85/15/8 55/16/8 56/17/8
f 46/116/12 3/115/1 1/114/1
f 3/115/1 46/116/12 41/117/12
f 91/120/14 17/119/14 19/118/14
f 17/119/14 91/120/14 2/121/14
f 22/122/14 2/121/14 91/120/14
f 91/120/14 23/123/14 22/122/14
f 23/123/14 91/120/14 89/124/14
f 24/125/14 2/121/14 22/122/14
f 24/125/14 1/126/14 2/121/14
f 24/125/14 46/127/14 1/126/14
f 34/128/14 46/127/14 24/125/14
f 34/128/14 92/129/14 46/127/14
f 46/127/14 92/129/14 48/130/14
f 46/127/14 48/130/14 47/131/14
f 34/128/14 90/132/14 92/129/14
f 90/132/14 34/128/14 36/133/14

usemtl greyLight

f 95/136/15 94/135/11 93/134/15
f 94/135/11 95/136/15 96/137/11
f 95/137/15 18/138/7 44/104/7
f 93/135/15 18/138/7 95/137/15
f 93/135/15 19/139/7 18/138/7
f 97/134/16 19/139/7 93/135/15
f 97/134/16 91/102/7 19/139/7
f 91/102/7 97/134/16 98/136/16
f 40/105/7 100/141/15 99/140/15
f 42/142/7 100/141/15 40/105/7
f 48/143/7 100/141/15 42/142/7
f 48/143/7 101/144/16 100/141/15
f 101/144/16 48/143/7 102/145/16
f 92/110/7 102/145/16 48/143/7
f 105/134/18 104/137/17 103/135/17
f 104/137/17 105/134/18 106/136/18
f 108/136/14 97/135/16 107/134/14
f 97/135/16 108/136/14 98/137/16
f 96/136/11 105/135/18 94/134/11
f 105/135/18 96/136/11 106/137/18
f 104/136/17 107/135/14 103/134/17
f 107/135/14 104/136/17 108/137/14
f 111/144/17 110/140/14 109/145/17
f 110/140/14 111/144/17 112/141/14
f 112/144/14 102/140/16 110/145/14
f 102/140/16 112/144/14 101/141/16
f 45/25/4 5/10/4 44/69/4
f 5/10/4 95/146/4 44/69/4
f 95/146/4 5/10/4 96/147/4
f 96/147/4 5/10/4 6/11/4
f 96/147/4 6/11/4 106/148/4
f 106/148/4 6/11/4 59/79/4
f 106/148/4 59/79/4 88/96/4
f 88/96/4 104/149/4 106/148/4
f 88/96/4 108/150/4 104/149/4
f 79/95/4 108/150/4 88/96/4
f 80/94/4 108/150/4 79/95/4
f 80/94/4 98/151/4 108/150/4
f 89/27/4 98/151/4 80/94/4
f 98/151/4 89/27/4 91/70/4
f 100/144/15 113/140/11 99/145/15
f 113/140/11 100/144/15 114/141/11
f 114/144/11 115/140/18 113/145/11
f 115/140/18 114/144/11 116/141/18
f 115/145/18 111/141/17 109/140/17
f 111/141/17 115/145/18 116/144/18
f 90/44/5 102/149/5 92/23/5
f 102/149/5 90/44/5 54/96/5
f 102/149/5 54/96/5 110/152/5
f 110/152/5 54/96/5 53/153/5
f 110/152/5 53/153/5 58/94/5
f 110/152/5 58/94/5 109/151/5
f 109/151/5 58/94/5 115/146/5
f 87/10/5 115/146/5 58/94/5
f 74/154/5 115/146/5 87/10/5
f 74/154/5 113/155/5 115/146/5
f 73/79/5 113/155/5 74/154/5
f 73/79/5 99/148/5 113/155/5
f 99/148/5 73/79/5 40/22/5
f 39/43/5 40/22/5 73/79/5
f 93/148/5 84/79/5 97/149/5
f 84/79/5 93/148/5 94/156/5
f 82/96/5 97/149/5 84/79/5
f 84/79/5 94/156/5 31/11/5
f 97/149/5 82/96/5 107/157/5
f 107/157/5 82/96/5 62/111/5
f 31/11/5 94/156/5 105/146/5
f 31/11/5 105/146/5 32/10/5
f 107/157/5 62/111/5 50/94/5
f 32/10/5 105/146/5 50/94/5
f 107/157/5 50/94/5 103/151/5
f 103/151/5 50/94/5 105/146/5
f 81/94/4 112/150/4 61/95/4
f 61/95/4 112/150/4 49/96/4
f 81/94/4 101/151/4 112/150/4
f 49/96/4 112/150/4 111/149/4
f 101/151/4 81/94/4 83/10/4
f 83/10/4 100/146/4 101/151/4
f 100/146/4 83/10/4 114/147/4
f 114/147/4 83/10/4 29/11/4
f 49/96/4 111/149/4 116/148/4
f 114/147/4 29/11/4 116/148/4
f 116/148/4 30/79/4 49/96/4
f 116/148/4 29/11/4 30/79/4

