# Created by Kenney (www.kenney.nl)

mtllib mushroom.mtl

g mushroom

v 0 0.0986 -0.072094
v 0.06243523 0.0986 -0.036047
v 0 0.1392 -0.036047
v 0.03121762 0.1392 -0.0180235
v 0 0.0986 0.072094
v -0.06243523 0.0986 0.036047
v 0 0.1392 0.036047
v -0.03121762 0.1392 0.0180235
v 0 0.06959999 -0.0638
v 0.05525242 0.06959999 -0.0319
v -0.04103403 0.06959999 -0.02369101
v -0.04103403 0.06959999 0.02369101
v -0.03363445 0.087 -0.01941886
v -0.03363445 0.087 0.01941886
v -0.06243523 0.0986 -0.036047
v -0.03121762 0.1392 -0.0180235
v 0.06243523 0.0986 0.036047
v 0.03121762 0.1392 0.0180235
v 0.05525242 0.06959999 0.0319
v 0.04103403 0.06959999 -0.02369101
v 0.03363445 0.087 -0.01941886
v 0.04103403 0.06959999 0.02369101
v 0.03363445 0.087 0.01941886
v -0.05525242 0.06959999 -0.0319
v -0.05525242 0.06959999 0.0319
v 0 0.06959999 0.0638
v 0 0.087 0.03883772
v 0.01188598 0.087 0.006862374
v 0 0.087 0.01372475
v 0.01188598 0.087 -0.006862374
v -0.01188598 0.087 0.006862374
v 0 0.087 -0.03883772
v 0 0.087 -0.01372475
v -0.01188598 0.087 -0.006862374
v 0 0.06959999 -0.04738202
v 0 0.06959999 0.04738202
v 0.02056275 0 0.01187191
v 0.02056275 0 -0.01187191
v 0 0 0.02374381
v 0 0 -0.02374381
v -0.02056275 0 0.01187191
v -0.02056275 0 -0.01187191

vn 0 0.6639327 -0.7477923
vn 0.6476072 0.6639327 -0.3738962
vn 0 0.6639327 0.7477923
vn -0.6476072 0.6639327 0.3738962
vn 0 -0.2749751 -0.9614514
vn 0.8326413 -0.2749751 -0.4807257
vn 0.7773591 -0.4407763 0.4488085
vn 0.7773591 -0.4407763 -0.4488085
vn -0.6476072 0.6639327 -0.3738962
vn 0.6476072 0.6639327 0.3738962
vn 0.8326413 -0.2749751 0.4807257
vn 0 1 0
vn -0.7773591 -0.4407763 0.4488085
vn -0.7773591 -0.4407763 -0.4488085
vn -0.8326413 -0.2749751 -0.4807257
vn -0.8326413 -0.2749751 0.4807257
vn 0 -0.2749751 0.9614514
vn 0 -1 0
vn 0 -0.4407763 0.897617
vn 0 -0.4407763 -0.897617
vn -0.8603392 0.1144056 -0.496717
vn 0 0.1144055 -0.9934341
vn 0.8603392 0.1144056 -0.496717
vn 0.8603392 0.1144056 0.496717
vn 0 0.1144055 0.9934341
vn -0.8603392 0.1144056 0.496717

vt 1.419173 1.579039
vt -1.419173 1.579039
vt 0.7095866 3.595348
vt -0.7095866 3.595348
vt 1.255906 3.182767
vt -1.255906 3.182767
vt 1.419173 4.358999
vt -1.419173 4.358999
vt 0.9327168 1.889389
vt -0.9327168 1.889389
vt 0.764522 2.633799
vt -0.764522 2.633799
vt -1.22904 -0.7095866
vt -1.22904 0.7095866
vt 0 -1.419173
vt 0 1.419173
vt 1.22904 -0.7095866
vt 1.22904 0.7095866
vt 1.324191 0.764522
vt 1.324191 -0.764522
vt 0 1.529044
vt 0.467952 0.2701722
vt 0 0.5403444
vt 0.467952 -0.2701722
vt -1.324191 0.764522
vt -0.467952 0.2701722
vt 0 -1.529044
vt 0 -0.5403444
vt -0.467952 -0.2701722
vt -1.324191 -0.764522
vt 2.175292 -1.255906
vt 1.615513 0.9327168
vt 2.175292 1.255906
vt 0 2.511811
vt 1.615513 -0.9327168
vt 0 1.865434
vt 0 -2.511811
vt 0 -1.865434
vt -2.175292 1.255906
vt -1.615513 0.9327168
vt -1.615513 -0.9327168
vt -2.175292 -1.255906
vt 0.8095569 0.4673979
vt 0.8095569 -0.4673979
vt 0 0.9347958
vt 0 -0.9347958
vt -0.8095569 0.4673979
vt -0.8095569 -0.4673979
vt 0.4673979 -0.08034091
vt -0.4673979 -0.08034091
vt 0.2701722 3.361848
vt -0.2701722 3.361848

usemtl brownDark

f 3/3/1 2/2/2 1/1/1
f 2/2/2 3/3/1 4/4/2
f 7/3/3 6/2/4 5/1/3
f 6/2/4 7/3/3 8/4/4
f 1/7/5 10/6/6 9/5/5
f 10/6/6 1/7/5 2/8/6
f 13/11/7 12/10/8 11/9/7
f 12/10/8 13/11/7 14/12/8
f 6/1/4 16/4/9 15/2/9
f 16/4/9 6/1/4 8/3/4
f 4/3/2 17/2/10 2/1/2
f 17/2/10 4/3/2 18/4/10
f 17/8/11 10/5/6 2/7/6
f 10/5/6 17/8/11 19/6/11
f 3/15/12 18/14/12 4/13/12
f 18/14/12 3/15/12 7/16/12
f 7/16/12 3/15/12 16/17/12
f 7/16/12 16/17/12 8/18/12
f 22/9/14 21/12/13 20/10/13
f 21/12/13 22/9/14 23/11/14
f 16/3/9 1/2/1 15/1/9
f 1/2/1 16/3/9 3/4/1
f 24/6/15 6/7/16 15/8/15
f 6/7/16 24/6/15 25/5/16
f 5/7/17 25/6/16 26/5/17
f 25/6/16 5/7/17 6/8/16
f 18/3/10 5/2/3 17/1/10
f 5/2/3 18/3/10 7/4/3
f 15/7/15 9/6/5 24/5/15
f 9/6/5 15/7/15 1/8/5
f 27/21/18 21/20/18 23/19/18
f 21/20/18 27/21/18 28/22/18
f 28/22/18 27/21/18 29/23/18
f 30/24/18 21/20/18 28/22/18
f 29/23/18 27/21/18 14/25/18
f 29/23/18 14/25/18 31/26/18
f 21/20/18 30/24/18 32/27/18
f 32/27/18 30/24/18 33/28/18
f 31/26/18 14/25/18 34/29/18
f 32/27/18 33/28/18 34/29/18
f 13/30/18 34/29/18 14/25/18
f 32/27/18 34/29/18 13/30/18
f 17/7/11 26/6/17 19/5/11
f 26/6/17 17/7/11 5/8/17
f 21/11/13 35/10/19 20/9/13
f 35/10/19 21/11/13 32/12/19
f 14/11/8 36/10/20 12/9/8
f 36/10/20 14/11/8 27/12/20
f 32/11/19 11/10/7 35/9/19
f 11/10/7 32/11/19 13/12/7
f 27/11/20 22/10/14 36/9/20
f 22/10/14 27/11/20 23/12/14
f 19/33/18 22/32/18 10/31/18
f 22/32/18 19/33/18 26/34/18
f 20/35/18 10/31/18 22/32/18
f 22/32/18 26/34/18 36/36/18
f 10/31/18 20/35/18 9/37/18
f 9/37/18 20/35/18 35/38/18
f 36/36/18 26/34/18 25/39/18
f 36/36/18 25/39/18 12/40/18
f 9/37/18 35/38/18 11/41/18
f 12/40/18 25/39/18 11/41/18
f 9/37/18 11/41/18 24/42/18
f 24/42/18 11/41/18 25/39/18

usemtl brownLight

f 39/45/18 38/44/18 37/43/18
f 38/44/18 39/45/18 40/46/18
f 40/46/18 39/45/18 41/47/18
f 40/46/18 41/47/18 42/48/18
f 34/51/21 40/50/22 42/49/21
f 40/50/22 34/51/21 33/52/22
f 30/51/23 37/50/24 38/49/23
f 37/50/24 30/51/23 28/52/24
f 29/51/25 41/50/26 39/49/25
f 41/50/26 29/51/25 31/52/26
f 28/51/24 39/50/25 37/49/24
f 39/50/25 28/51/24 29/52/25
f 33/51/22 38/50/23 40/49/22
f 38/50/23 33/51/22 30/52/23
f 41/49/26 34/52/21 42/50/21
f 34/52/21 41/49/26 31/51/26

