# Created by Kenney (www.kenney.nl)

mtllib mushroomHalf.mtl

g mushroomHalf

v -0.06243523 0.0986 -0.036047
v -0.03121762 0.1392 -0.0180235
v -0.06243523 0.0986 0.036047
v -0.03121762 0.1392 0.0180235
v 0 0.1392 -0.036047
v 0 0.1392 0.036047
v -0.04103403 0.06959999 -0.02369101
v -0.04103403 0.06959999 0.02369101
v -0.03363445 0.087 -0.01941886
v -0.03363445 0.087 0.01941886
v 0 0.0986 -0.072094
v -0.05525242 0.06959999 -0.0319
v 0 0.06959999 -0.0638
v 0 0.06959999 0.0638
v -3.609557E-16 0.06959999 0.04738202
v -0.05525242 0.06959999 0.0319
v -3.609557E-16 0.06959999 -0.04738202
v 0 0.0986 0.072094
v 0 0.087 0.03883772
v 0 0.087 0.01372475
v -0.01188598 0.087 0.006862374
v -0.01188598 0.087 -0.006862374
v 0 0.087 -0.03883772
v 0 0.087 -0.01372475
v 0 0.1006333 0.01215471
v 0 0.1006333 0.01372475
v 0 0.1006333 0.05205727
v 0 0.1255667 0.02992001
v 0 0.1255667 -0.02992001
v 0 0.1006333 -0.05205727
v 0 0.1006333 -0.01372475
v 0 0.1006333 -0.01215471
v 0 0 0.02374381
v 0 0 -0.02374381
v -0.02056275 0 0.01187191
v -0.02056275 0 -0.01187191

vn -0.6476072 0.6639327 -0.3738962
vn -0.6476072 0.6639327 0.3738962
vn 0 1 0
vn 0.9202437 -0.3913458 0
vn -0.396374 0.6095494 -0.6865399
vn -0.8326413 -0.2749751 -0.4807257
vn -0.4853347 -0.2404186 -0.8406243
vn 0 -1 0
vn -0.396374 0.6095494 0.6865399
vn -0.4853347 -0.2404186 0.8406243
vn -0.8326413 -0.2749751 0.4807257
vn 0.4601219 -0.3913458 -0.7969545
vn 0.4601219 -0.3913458 0.7969545
vn 1 0 0
vn -0.8603392 0.1144056 -0.496717
vn -0.4975317 0.0992406 -0.8617502
vn -0.4975317 0.0992406 0.8617502
vn -0.8603392 0.1144056 0.496717

vt -1.419173 1.579039
vt -0.7095866 3.595348
vt 1.419173 1.579039
vt 0.7095866 3.595348
vt 0 -1.419173
vt 0 1.419173
vt 1.22904 -0.7095866
vt 1.22904 0.7095866
vt 0.9327168 1.889389
vt -0.9327168 1.889389
vt 0.764522 2.633799
vt -0.764522 2.633799
vt 1.255906 3.182767
vt -1.255906 3.182767
vt 1.419173 4.358999
vt -1.419173 4.358999
vt 0 2.511811
vt -1.421085E-14 1.865434
vt -2.175292 1.255906
vt -1.615513 0.9327168
vt -1.615513 -0.9327168
vt -2.175292 -1.255906
vt -1.421085E-14 -1.865434
vt 0 -2.511811
vt 0 1.529044
vt 0 0.5403444
vt -1.324191 0.764522
vt -0.467952 0.2701722
vt -0.467952 -0.2701722
vt -1.324191 -0.764522
vt 0 -1.529044
vt 0 -0.5403444
vt -0.478532 3.961942
vt -0.5403444 3.425197
vt -0.5403444 3.961942
vt -2.049499 3.961942
vt -1.529044 3.425197
vt -1.865434 2.740157
vt -2.511811 2.740157
vt -2.838346 3.88189
vt -1.419173 5.480315
vt -1.177953 4.94357
vt 1.177953 4.94357
vt 1.419173 5.480315
vt 2.049499 3.961942
vt 2.838346 3.88189
vt 2.511811 2.740157
vt 1.865434 2.740157
vt 1.529044 3.425197
vt 0.5403444 3.961942
vt 0.5403444 3.425197
vt 0.478532 3.961942
vt 0 0.9347958
vt 0 -0.9347958
vt -0.8095569 0.4673979
vt -0.8095569 -0.4673979
vt 0.4673979 -0.08034091
vt -0.4673979 -0.08034091
vt 0.2701722 3.361848
vt -0.2701722 3.361848
vt -0.9347958 -3.554435E-31
vt 0.9347958 3.554435E-31

usemtl brownDark

f 3/3/2 2/2/1 1/1/1
f 2/2/1 3/3/2 4/4/2
f 2/7/3 6/6/3 5/5/3
f 6/6/3 2/7/3 4/8/3
f 9/11/4 8/10/4 7/9/4
f 8/10/4 9/11/4 10/12/4
f 2/4/1 11/1/5 1/3/1
f 11/1/5 2/4/1 5/2/5
f 1/15/6 13/14/7 12/13/6
f 13/14/7 1/15/6 11/16/7
f 16/19/8 15/18/8 14/17/8
f 15/18/8 16/19/8 8/20/8
f 8/20/8 16/19/8 7/21/8
f 12/22/8 7/21/8 16/19/8
f 12/22/8 17/23/8 7/21/8
f 17/23/8 12/22/8 13/24/8
f 6/4/9 3/1/2 18/3/9
f 3/1/2 6/4/9 4/2/2
f 10/27/8 20/26/8 19/25/8
f 20/26/8 10/27/8 21/28/8
f 21/28/8 10/27/8 22/29/8
f 9/30/8 22/29/8 10/27/8
f 23/31/8 22/29/8 9/30/8
f 22/29/8 23/31/8 24/32/8
f 18/15/10 16/14/11 14/13/10
f 16/14/11 18/15/10 3/16/11
f 12/14/6 3/15/11 1/16/6
f 3/15/11 12/14/6 16/13/11
f 10/11/12 15/10/12 8/9/12
f 15/10/12 10/11/12 19/12/12
f 23/11/13 7/10/13 17/9/13
f 7/10/13 23/11/13 9/12/13
f 26/35/14 20/34/14 25/33/14
f 20/34/14 26/35/14 27/36/14
f 20/34/14 27/36/14 19/37/14
f 19/37/14 27/36/14 15/38/14
f 15/38/14 27/36/14 14/39/14
f 27/36/14 18/40/14 14/39/14
f 27/36/14 6/41/14 18/40/14
f 28/42/14 6/41/14 27/36/14
f 29/43/14 6/41/14 28/42/14
f 29/43/14 5/44/14 6/41/14
f 30/45/14 5/44/14 29/43/14
f 30/45/14 11/46/14 5/44/14
f 11/46/14 30/45/14 13/47/14
f 30/45/14 17/48/14 13/47/14
f 17/48/14 30/45/14 23/49/14
f 23/49/14 30/45/14 31/50/14
f 23/49/14 31/50/14 24/51/14
f 24/51/14 31/50/14 32/52/14

usemtl brownLight

f 35/55/8 34/54/8 33/53/8
f 34/54/8 35/55/8 36/56/8
f 22/59/15 34/58/16 36/57/15
f 34/58/16 22/59/15 24/60/16
f 20/59/17 35/58/18 33/57/17
f 35/58/18 20/59/17 21/60/18
f 35/57/18 22/60/15 36/58/15
f 22/60/15 35/57/18 21/59/18
f 29/43/14 31/50/14 30/45/14
f 31/50/14 29/43/14 28/42/14
f 31/50/14 28/42/14 32/52/14
f 32/52/14 28/42/14 25/33/14
f 25/33/14 28/42/14 26/35/14
f 26/35/14 28/42/14 27/36/14
f 33/61/14 32/52/14 25/33/14
f 33/61/14 25/33/14 20/34/14
f 33/61/14 24/51/14 32/52/14
f 24/51/14 33/61/14 34/62/14

