# Created by Kenney (www.kenney.nl)

mtllib musselOpen.mtl

g musselOpen

v 0.03710485 0 -1.082867E-15
v 0.03046284 0 -0.03639816
v 0.03046284 0 0.03639816
v -0.00405 0 -0.06369678
v -0.00405 0 0.06369678
v -0.03856285 0 0.03639816
v -0.03856285 0 -0.03639816
v -0.04613883 0.02076192 -0.044388
v -0.04613883 0.02076192 0.044388
v -0.00405 0.02076192 -0.07767899
v 0.04613883 0.02076192 -7.219114E-16
v 0.03803883 0.02076192 0.044388
v 0.03803883 0.02076192 -0.044388
v -0.00405 0.02076192 0.07767899
v -0.04995879 0.04253026 -0.03639816
v -0.04995879 0.04253026 0.03639816
v -0.009688835 0.04180634 -0.07767899
v 0.02676117 0.06285076 -0.044388
v -0.02006979 0.05978669 -0.06369678
v 0.009819206 0.07704312 -0.03639816
v -0.02006979 0.05978669 0.06369678
v -0.009688835 0.04180634 0.07767899
v 0.03377597 0.06690075 -5.793339E-14
v 0.02676117 0.06285076 0.044388
v 0.01557135 0.08036412 -4.529994E-14
v 0.009819206 0.07704312 0.03639816
v 0.01818792 0.02076192 -3.609557E-16
v 0.01486692 0.02076192 0.01819908
v 0.01486692 0.02076192 -0.01819908
v -0.0023895 0.02076192 -0.03184839
v -0.0023895 0.02076192 0.03184839
v -0.01964592 0.02076192 -0.01819908
v -0.01964592 0.02076192 0.01819908

vn 0 -0.72 0
vn -0.8335352 -0.2445909 -0.4356795
vn -0.8335352 -0.2445909 0.4356795
vn -0.8651707 -0.2387164 -0.3762363
vn -0.8651707 -0.2387164 0.3762363
vn 0.8651707 0.2387164 0.3762363
vn 0.8335352 0.2445909 -0.4356795
vn 0.8335352 0.2445909 0.4356795
vn 0.8651707 0.2387164 -0.3762363
vn 0 -0.3141375 -0.8998003
vn 0 0.3141375 0.8998003
vn 0.9542655 -0.2152516 0
vn 0.8166138 -0.2470614 0.464108
vn 0.7944952 -0.2497324 0.4984697
vn -0.9542655 0.2152516 0
vn -0.8166138 0.2470614 -0.464108
vn -0.7944952 0.2497324 -0.4984697
vn 0.7944952 -0.2497324 -0.4984697
vn 0.8166138 -0.2470614 -0.464108
vn -0.8166138 0.2470614 0.464108
vn -0.7944952 0.2497324 0.4984697
vn 0 -0.3141375 0.8998003
vn 0 0.3141375 -0.8998003
vn -0.9261906 -0.01258917 -0.37665
vn -0.9250425 -0.01194217 -0.3795015
vn -0.9261906 -0.01258917 0.37665
vn -0.9250425 -0.01194217 0.3795015
vn 0.9261906 0.01258917 -0.37665
vn 0.9250425 0.01194217 0.3795015
vn 0.9261906 0.01258917 0.37665
vn 0.9250425 0.01194217 -0.3795015
vn -0.3548052 0.2448839 -0.8708811
vn 0.4914923 0.4716363 -0.5738852
vn -0.1935086 0.30012 -0.8881466
vn 0.554776 0.4855329 -0.487313
vn 0.1935086 -0.30012 0.8881466
vn -0.4914923 -0.4716363 0.5738852
vn 0.3548052 -0.2448839 0.8708811
vn -0.554776 -0.4855329 0.487313
vn -0.1935086 0.30012 0.8881466
vn -0.3548052 0.2448839 0.8708811
vn 0.1935086 -0.30012 -0.8881466
vn 0.3548052 -0.2448839 -0.8708811
vn 0.7165172 0.5022501 0
vn 0.4914923 0.4716363 0.5738852
vn 0.554776 0.4855329 0.487313
vn -0.7165172 -0.5022501 0
vn -0.4914923 -0.4716363 -0.5738852
vn -0.554776 -0.4855329 -0.487313
vn -0.6255868 0.5617114 0
vn 0.6255868 -0.5617114 0
vn 0 0.72 0
vn 0.01822871 0.5333031 -0.6715899
vn -0.7133734 0.4632095 -0.2778554
vn -0.007190408 0.5338529 -0.670956
vn -0.6607152 0.4749041 -0.3583263
vn 0.6542243 0.4491066 -0.4276857
vn 0.700621 0.4401007 -0.3681066
vn 0.8361371 0.3949348 0
vn -0.6607152 0.4749041 0.3583263
vn -0.7133734 0.4632095 0.2778554
vn 0.01822871 0.5333031 0.6715899
vn -0.007190408 0.5338529 0.670956
vn 0.6542243 0.4491066 0.4276857
vn 0.700621 0.4401007 0.3681066

vt 1.460821 -4.263256E-14
vt 1.199325 -1.432998
vt 1.199325 1.432998
vt -0.1594488 -2.507747
vt -0.1594488 2.507747
vt -1.518222 1.432998
vt -1.518222 -1.432998
vt -1.747559 1.559589
vt 1.747559 1.559589
vt -1.432998 0.3857853
vt 1.432998 0.3857853
vt 0.3017746 0.7343103
vt -1.430666 0.7343103
vt 0.3405662 1.948912
vt -1.772166 1.948912
vt 0.2622426 0.4232635
vt -1.19442 0.4232635
vt 0.3260913 1.611234
vt -1.450326 1.611234
vt 1.450326 1.611234
vt 1.19442 0.4232635
vt -0.3260913 1.611234
vt -0.2622426 0.4232635
vt 1.680781 0.6639873
vt -0.05165948 0.6639873
vt 2.022281 1.878589
vt -0.09045103 1.878589
vt 0.05165948 0.6639873
vt -1.680781 0.6639873
vt 0.09045103 1.878589
vt -2.022281 1.878589
vt 1.430666 0.7343103
vt -0.3017746 0.7343103
vt 1.772166 1.948912
vt -0.3405662 1.948912
vt -1.747559 1.354019
vt -1.432998 2.55379
vt 1.747559 1.354019
vt 1.432998 2.55379
vt 1.36607 0.3725905
vt -0.4202074 1.754824
vt 1.57098 1.553571
vt 0.1062327 2.687002
vt -1.918796 2.048828
vt -1.239515 3.036391
vt 0.02165576 0.8929731
vt 0.3516555 2.088589
vt -0.3516555 2.088589
vt 1.239515 3.036391
vt -0.02165576 0.8929731
vt 1.918796 2.048828
vt 0.3602126 1.79393
vt -1.396819 1.490424
vt 0.1660647 2.802869
vt -1.274702 2.553994
vt -1.36607 0.3725905
vt -1.57098 1.553571
vt 0.4202074 1.754824
vt -0.1062327 2.687002
vt 1.396819 1.490424
vt -0.3602126 1.79393
vt 1.274702 2.553994
vt -0.1660647 2.802869
vt -1.34557E-12 3.227325
vt 1.432998 2.937047
vt -1.432998 2.937047
vt 2.507747 1.428714
vt -2.507747 1.428714
vt 1.432998 -0.07961778
vt -1.432998 -0.07961778
vt -0.7160599 -1.421085E-14
vt -0.5853119 0.7164992
vt -0.5853119 -0.7164992
vt 0.0940748 -1.253874
vt 0.0940748 1.253874
vt 0.7734615 -0.7164992
vt 0.7734615 0.7164992
vt -0.7040778 0.1452566
vt 0.1621425 0.1452566
vt -1.430666 -1.383597
vt 0.3017746 -1.383597
vt -0.05165948 -1.19344
vt -0.01457456 0.2823169
vt 1.680781 -1.19344
vt 0.8516457 0.2823169
vt 1.19442 -0.7792545
vt -0.2622426 -0.7792545
vt 0.5997859 0.5719095
vt -0.1285452 0.5719095
vt -1.432998 -0.8327761
vt -0.7164992 0.5249864
vt 1.432998 -0.8327761
vt 0.7164992 0.5249864
vt 0.7040778 0.1452566
vt 1.430666 -1.383597
vt -0.1621425 0.1452566
vt -0.3017746 -1.383597
vt 0.05165948 -1.19344
vt -1.680781 -1.19344
vt 0.01457456 0.2823169
vt -0.8516457 0.2823169
vt 0.2622426 -0.7792545
vt -1.19442 -0.7792545
vt 0.1285452 0.5719095
vt -0.5997859 0.5719095

usemtl brownDarkest

f 3/3/1 2/2/1 1/1/1
f 2/2/1 3/3/1 4/4/1
f 4/4/1 3/3/1 5/5/1
f 4/4/1 5/5/1 6/6/1
f 4/4/1 6/6/1 7/7/1
f 7/10/4 9/9/3 8/8/2
f 9/9/3 7/10/4 6/11/5
f 8/8/8 9/9/7 7/10/6
f 6/11/9 7/10/6 9/9/7
f 8/14/2 4/13/10 7/12/4
f 4/13/10 8/14/2 10/15/10
f 7/12/6 4/13/11 8/14/8
f 10/15/11 8/14/8 4/13/11
f 11/18/12 3/17/13 1/16/12
f 3/17/13 11/18/12 12/19/14
f 1/16/15 3/17/16 11/18/15
f 12/19/17 11/18/15 3/17/16
f 11/22/12 2/21/19 13/20/18
f 2/21/19 11/22/12 1/23/12
f 13/20/21 2/21/20 11/22/15
f 1/23/15 11/22/15 2/21/20
f 10/26/10 2/25/19 4/24/10
f 2/25/19 10/26/10 13/27/18
f 4/24/11 2/25/20 10/26/11
f 13/27/21 10/26/11 2/25/20
f 12/30/14 5/29/22 3/28/13
f 5/29/22 12/30/14 14/31/22
f 3/28/16 5/29/23 12/30/17
f 14/31/23 12/30/17 5/29/23
f 14/34/22 6/33/5 5/32/22
f 6/33/5 14/34/22 9/35/3
f 5/32/23 6/33/9 14/34/23
f 9/35/7 14/34/23 6/33/9
f 9/38/26 15/37/25 8/36/24
f 15/37/25 9/38/26 16/39/27
f 8/36/30 15/37/29 9/38/28
f 16/39/31 9/38/28 15/37/29
f 19/42/34 18/41/33 17/40/32
f 18/41/33 19/42/34 20/43/35
f 17/40/38 18/41/37 19/42/36
f 20/43/39 19/42/36 18/41/37
f 8/46/24 19/45/34 17/44/32
f 19/45/34 8/46/24 15/47/25
f 17/44/38 19/45/36 8/46/30
f 15/47/29 8/46/30 19/45/36
f 9/50/26 21/49/40 16/48/27
f 21/49/40 9/50/26 22/51/41
f 16/48/31 21/49/42 9/50/28
f 22/51/43 9/50/28 21/49/42
f 25/54/44 24/53/45 23/52/44
f 24/53/45 25/54/44 26/55/46
f 23/52/47 24/53/48 25/54/47
f 26/55/49 25/54/47 24/53/48
f 24/58/45 21/57/40 22/56/41
f 21/57/40 24/58/45 26/59/46
f 22/56/43 21/57/42 24/58/48
f 26/59/49 24/58/48 21/57/42
f 20/62/35 23/61/44 18/60/33
f 23/61/44 20/62/35 25/63/44
f 18/60/37 23/61/47 20/62/39
f 25/63/47 20/62/39 23/61/47
f 20/66/50 26/65/50 25/64/50
f 26/65/50 20/66/50 21/67/50
f 21/67/50 20/66/50 19/68/50
f 21/67/50 19/68/50 16/69/50
f 16/69/50 19/68/50 15/70/50
f 25/64/51 26/65/51 20/66/51
f 21/67/51 20/66/51 26/65/51
f 19/68/51 20/66/51 21/67/51
f 16/69/51 19/68/51 21/67/51
f 15/70/51 19/68/51 16/69/51

usemtl brownLight

f 29/73/52 28/72/52 27/71/52
f 28/72/52 29/73/52 30/74/52
f 28/72/52 30/74/52 31/75/52
f 31/75/52 30/74/52 32/76/52
f 31/75/52 32/76/52 33/77/52
f 4/80/55 32/79/54 30/78/53
f 32/79/54 4/80/55 7/81/56
f 4/84/55 29/83/58 2/82/57
f 29/83/58 4/84/55 30/85/53
f 29/88/58 1/87/59 2/86/57
f 1/87/59 29/88/58 27/89/59
f 6/92/60 32/91/54 7/90/56
f 32/91/54 6/92/60 33/93/61
f 33/96/61 5/95/63 31/94/62
f 5/95/63 33/96/61 6/97/60
f 28/100/65 5/99/63 3/98/64
f 5/99/63 28/100/65 31/101/62
f 27/104/59 3/103/64 1/102/59
f 3/103/64 27/104/59 28/105/65

