# Created by Kenney (www.kenney.nl)

mtllib onionHalf.mtl

g onionHalf

v 3.609557E-16 0.09 -0.1081567
v -3.609557E-16 0.04008562 -0.08902284
v -3.609557E-16 0.1409694 -0.08861843
v 3.609557E-16 0.09 -0.08026921
v -7.219114E-16 0.1240027 -0.06723485
v -3.609557E-16 0.05903439 -0.06839906
v 1.082867E-15 0.1808327 -0.02977023
v 0 0.01385989 -0.03482299
v 1.082867E-15 0.1636091 -0.008765794
v 3.609557E-16 0.03989971 -0.02885405
v 2.165734E-15 0.2361401 -0.006502385
v 1.443823E-15 0.1844454 -1.010676E-14
v 2.165734E-15 0.2361401 0.006502385
v 7.219114E-16 0.1636091 0.008765794
v 1.082867E-15 0.1808327 0.02977023
v -3.609557E-16 0.1240027 0.06723485
v 0 0.01385989 0.03482299
v 3.609557E-16 0.03989971 0.02885405
v 0 0.05903439 0.06839906
v -3.609557E-16 0.1409694 0.08861843
v -3.609557E-16 0.04008562 0.08902284
v 3.609557E-16 0.09 0.08026921
v 3.609557E-16 0.09 0.1081567
v 3.609557E-16 0.09 -0.06710006
v -3.609557E-16 0.06798246 -0.05866
v -7.219114E-16 0.1159906 -0.057137
v 3.609557E-16 0.05219635 -0.02603537
v 7.219114E-16 0.1546947 -1.299441E-14
v 3.609557E-16 0.05219635 0.02603537
v -3.609557E-16 0.1159906 0.057137
v 0 0.06798246 0.05866
v 3.609557E-16 0.09 0.06710006
v 2.165734E-15 0.25 -0.015708
v 2.165734E-15 0.25 0.015708
v -0.01360353 0.25 -0.007854
v -0.01360353 0.25 0.007854
v 0 0 0.038
v 0 0 -0.038
v -0.03290896 0 0.019
v -0.03290896 0 -0.019
v -0.1065211 0.09 -0.0615
v 3.609557E-16 0.09 -0.123
v -0.08660254 0.15 -0.05
v -3.609557E-16 0.15 -0.1
v 1.082867E-15 0.19 -0.04095
v -0.03546374 0.19 -0.020475
v 1.082867E-15 0.19 0.04095
v -3.609557E-16 0.15 0.1
v -0.03546374 0.19 0.020475
v -0.08660254 0.15 0.05
v -0.08660254 0.03 0.05
v -0.08660254 0.03 -0.05
v -3.609557E-16 0.03 0.1
v -0.1065211 0.09 0.0615
v 3.609557E-16 0.09 0.123
v -3.609557E-16 0.03 -0.1

vn 1 0 0
vn 0 1 0
vn 0 -1 0
vn -0.8086479 0.357936 -0.466873
vn -0.4745345 0.3150685 -0.8219178
vn -0.3080506 0.7876669 -0.5335593
vn -0.4856953 0.8279293 -0.2804163
vn -0.3080506 0.7876669 0.5335593
vn -0.4856953 0.8279293 0.2804163
vn -0.3772069 -0.9001592 0.2177805
vn -0.3772069 -0.9001592 -0.2177805
vn -0.7982603 0.3877809 -0.4608758
vn -0.7982603 0.3877809 0.4608758
vn -0.4697909 0.3423243 -0.8137018
vn -0.2438783 -0.8729797 0.4224095
vn -0.4697909 0.3423243 0.8137018
vn -0.8086479 0.357936 0.466873
vn -0.4745345 0.3150685 0.8219178
vn -0.8086479 -0.357936 -0.466873
vn -0.8086479 -0.357936 0.466873
vn -0.2438783 -0.8729797 -0.4224095
vn -0.4745345 -0.3150685 0.8219178
vn -0.4745345 -0.3150685 -0.8219178

vt 4.258137 3.543307
vt 3.504836 1.578174
vt 3.488914 5.549974
vt 3.160205 3.543307
vt 2.647041 4.881995
vt 2.692876 2.324189
vt 1.172056 7.119396
vt 1.370984 0.545665
vt 0.34511 6.441305
vt 1.135986 1.570855
vt 0.2559994 9.296855
vt 3.979039E-13 7.261628
vt -0.2559994 9.296855
vt -0.34511 6.441305
vt -1.172056 7.119396
vt -2.647041 4.881995
vt -1.370984 0.545665
vt -1.135986 1.570855
vt -2.692876 2.324189
vt -3.488914 5.549974
vt -3.504836 1.578174
vt -3.160205 3.543307
vt -4.258137 3.543307
vt 2.641735 3.543307
vt 2.309449 2.676475
vt 2.249488 4.566559
vt 1.025015 2.054975
vt 5.115908E-13 6.090344
vt -1.025015 2.054975
vt -2.249488 4.566559
vt -2.309449 2.676475
vt -2.641735 3.543307
vt -8.526513E-14 -0.6184252
vt -8.526513E-14 0.6184252
vt 0.5355719 -0.3092126
vt 0.5355719 0.3092126
vt 0 1.496063
vt 0 -1.496063
vt -1.295629 0.7480315
vt -1.295629 -0.7480315
vt 2.42126 2.041526
vt -2.42126 2.041526
vt 1.968504 4.530497
vt -1.968504 4.530497
vt -0.8061023 3.508883
vt 0.8061023 3.508883
vt -1.968504 0.9528042
vt 1.968504 0.9528042
vt 0.7480315 1.131058
vt -0.7480315 1.131058
vt 1.968504 3.552557
vt -1.968504 3.552557
vt -0.8061023 6.550411
vt -0.3092126 9.064513
vt 0.8061023 6.550411
vt 0.3092126 9.064513
vt -2.42126 4.68416
vt 2.42126 4.68416
vt -1.968504 2.195189
vt 1.968504 2.195189
vt -0.6184252 9.84252
vt 0.6184252 9.84252
vt -1.612205 7.480315
vt 1.612205 7.480315
vt -3.937008 5.905512
vt 3.937008 5.905512
vt -4.84252 3.543307
vt -3.937008 1.181102
vt 4.84252 3.543307
vt 3.937008 1.181102
vt 1.496063 -4.017523E-42
vt -1.496063 4.017523E-42

usemtl brownLight

f 3/3/1 2/2/1 1/1/1
f 2/2/1 3/3/1 4/4/1
f 3/3/1 5/5/1 4/4/1
f 2/2/1 4/4/1 6/6/1
f 5/5/1 3/3/1 7/7/1
f 2/2/1 6/6/1 8/8/1
f 5/5/1 7/7/1 9/9/1
f 8/8/1 6/6/1 10/10/1
f 9/9/1 7/7/1 11/11/1
f 9/9/1 11/11/1 12/12/1
f 12/12/1 11/11/1 13/13/1
f 12/12/1 13/13/1 14/14/1
f 14/14/1 13/13/1 15/15/1
f 14/14/1 15/15/1 16/16/1
f 8/8/1 10/10/1 17/17/1
f 17/17/1 10/10/1 18/18/1
f 17/17/1 18/18/1 19/19/1
f 16/16/1 15/15/1 20/20/1
f 17/17/1 19/19/1 21/21/1
f 16/16/1 20/20/1 22/22/1
f 21/21/1 19/19/1 22/22/1
f 21/21/1 22/22/1 20/20/1
f 21/21/1 20/20/1 23/23/1
f 26/26/1 25/25/1 24/24/1
f 25/25/1 26/26/1 27/27/1
f 27/27/1 26/26/1 28/28/1
f 27/27/1 28/28/1 29/29/1
f 29/29/1 28/28/1 30/30/1
f 29/29/1 30/30/1 31/31/1
f 31/31/1 30/30/1 32/32/1

usemtl brown

f 35/35/2 34/34/2 33/33/2
f 34/34/2 35/35/2 36/36/2
f 39/39/3 38/38/3 37/37/3
f 38/38/3 39/39/3 40/40/3
f 5/5/1 6/6/1 4/4/1
f 6/6/1 5/5/1 24/24/1
f 5/5/1 26/26/1 24/24/1
f 6/6/1 24/24/1 25/25/1
f 26/26/1 5/5/1 9/9/1
f 6/6/1 25/25/1 10/10/1
f 10/10/1 25/25/1 27/27/1
f 26/26/1 9/9/1 28/28/1
f 28/28/1 9/9/1 12/12/1
f 28/28/1 12/12/1 14/14/1
f 28/28/1 14/14/1 30/30/1
f 10/10/1 27/27/1 18/18/1
f 18/18/1 27/27/1 29/29/1
f 18/18/1 29/29/1 31/31/1
f 30/30/1 14/14/1 16/16/1
f 18/18/1 31/31/1 19/19/1
f 30/30/1 16/16/1 32/32/1
f 19/19/1 31/31/1 32/32/1
f 19/19/1 32/32/1 16/16/1
f 19/19/1 16/16/1 22/22/1
f 43/43/4 42/42/5 41/41/4
f 42/42/5 43/43/4 44/44/5
f 44/47/6 46/46/7 45/45/6
f 46/46/7 44/47/6 43/48/7
f 49/45/9 48/48/8 47/46/8
f 48/48/8 49/45/9 50/47/9
f 51/51/10 40/50/11 39/49/10
f 40/50/11 51/51/10 52/52/11
f 49/55/13 35/54/12 46/53/12
f 35/54/12 49/55/13 36/56/13
f 35/56/12 45/53/14 46/55/12
f 45/53/14 35/56/12 33/54/14
f 53/51/15 39/50/10 37/49/15
f 39/50/10 53/51/15 51/52/10
f 34/56/16 49/53/13 47/55/16
f 49/53/13 34/56/16 36/54/13
f 54/41/17 43/44/4 41/42/4
f 43/44/4 54/41/17 50/43/17
f 43/47/7 49/46/9 46/45/7
f 49/46/9 43/47/7 50/48/9
f 48/43/18 54/42/17 55/41/18
f 54/42/17 48/43/18 50/44/17
f 52/59/19 54/58/20 41/57/19
f 54/58/20 52/59/19 51/60/20
f 40/49/11 56/52/21 38/50/21
f 56/52/21 40/49/11 52/51/11
f 55/58/22 51/59/20 53/60/22
f 51/59/20 55/58/22 54/57/20
f 41/58/19 56/59/23 52/60/19
f 56/59/23 41/58/19 42/57/23
f 11/11/1 34/61/1 13/13/1
f 13/13/1 34/61/1 15/15/1
f 11/11/1 33/62/1 34/61/1
f 15/15/1 34/61/1 47/63/1
f 7/7/1 33/62/1 11/11/1
f 15/15/1 47/63/1 20/20/1
f 7/7/1 45/64/1 33/62/1
f 20/20/1 47/63/1 48/65/1
f 3/3/1 45/64/1 7/7/1
f 3/3/1 44/66/1 45/64/1
f 20/20/1 48/65/1 23/23/1
f 23/23/1 48/65/1 55/67/1
f 53/68/1 23/23/1 55/67/1
f 53/68/1 21/21/1 23/23/1
f 1/1/1 44/66/1 3/3/1
f 44/66/1 1/1/1 42/69/1
f 1/1/1 56/70/1 42/69/1
f 56/70/1 1/1/1 2/2/1
f 56/70/1 2/2/1 38/71/1
f 38/71/1 2/2/1 8/8/1
f 37/72/1 21/21/1 53/68/1
f 38/71/1 8/8/1 37/72/1
f 37/72/1 17/17/1 21/21/1
f 37/72/1 8/8/1 17/17/1

