# Created by Kenney (www.kenney.nl)

mtllib paprikaSlice.mtl

g paprikaSlice

v -0.03212057 0.03 0.03212057
v -0.03212057 0 0.03212057
v -0.01680608 0.03 0.05958175
v -0.01680608 0 0.05958175
v 0.01680608 0 -0.05958175
v -0.01680608 0 -0.05958175
v 0.01680608 0.03 -0.05958175
v -0.01680608 0.03 -0.05958175
v 0.05958175 0 -0.01680608
v 0.03212057 0 -0.03212057
v 0.05958175 0.03 -0.01680608
v 0.03212057 0.03 -0.03212057
v 0.03212057 0 0.03212057
v 0.05958175 0 0.01680608
v 0.03212057 0.03 0.03212057
v 0.05958175 0.03 0.01680608
v -0.03212057 0.03 -0.03212056
v -0.03212057 0 -0.03212056
v 0.01680608 0 0.05958175
v 0.01680608 0.03 0.05958175
v -0.05958175 0.03 -0.01680608
v -0.05958175 0 -0.01680608
v -0.05958175 0.03 0.01680608
v -0.05958175 0 0.01680608
v 0.07387786 1.127987E-17 0.02886215
v 0.04497861 1.127987E-17 0.04497861
v 0.08010925 0.03 0.02886215
v 0.04720956 0.03 0.04720956
v -0.02886215 1.127987E-17 -0.07387786
v 0.02886215 1.127987E-17 -0.07387786
v -0.02886215 0.03 -0.08010924
v 0.02886215 0.03 -0.08010925
v 0.08010925 0.03 -0.02886215
v 0.04720956 0.03 -0.04720956
v 0.02886215 0.03 0.08010925
v -0.02886215 0.03 0.08010925
v -0.04720956 0.03 0.04720956
v -0.08010924 0.03 0.02886216
v -0.04720956 0.03 -0.04720956
v -0.08010925 0.03 -0.02886215
v 0.07387786 2.255973E-17 -0.02886215
v -0.04497861 1.127987E-17 0.04497861
v -0.02886215 1.127987E-17 0.07387786
v 0.02886215 1.127987E-17 0.07387786
v 0.04497861 2.255973E-17 -0.04497861
v -0.07387786 1.127987E-17 0.02886215
v -0.04497861 1.127987E-17 -0.04497861
v -0.07387786 2.255973E-17 -0.02886215

vn 0.7071068 0 -0.7071068
vn 0.8733694 0 -0.4870585
vn 0 0 1
vn -0.4870585 0 0.8733694
vn -0.7071068 0 0.7071068
vn -0.7071068 0 -0.7071068
vn -0.4870585 0 -0.8733694
vn 0.8733694 0 0.4870585
vn 0.7071068 0 0.7071067
vn 0 0 -1
vn -0.8733694 0 0.4870585
vn 1 0 0
vn -0.8733694 0 -0.4870585
vn 0.4870585 0 0.8733694
vn 0.4870585 0 -0.8733694
vn -1 0 0
vn 0.484585 -0.1006544 0.8689339
vn 0.7032285 -0.1045911 0.7032285
vn 0 -0.2033717 -0.9791017
vn 0 1 0
vn 0.9791017 -0.2033717 0
vn -0.7032285 -0.1045911 0.7032285
vn -0.8689339 -0.1006544 0.484585
vn 0.8689339 -0.1006544 0.484585
vn 0.7032285 -0.1045911 -0.7032285
vn 0.484585 -0.1006544 -0.8689339
vn -0.4845849 -0.1006544 0.868934
vn -0.868934 -0.1006544 -0.4845849
vn -0.7032285 -0.1045911 -0.7032285
vn 0 -0.2033717 0.9791017
vn -0.484585 -0.1006544 -0.8689339
vn -0.9791017 -0.2033717 0
vn 0.8689339 -0.1006544 -0.484585
vn 0 -1 0

vt -0.4885246 1.181102
vt -0.4885246 0
vt -1.72643 1.181102
vt -1.72643 0
vt 0.6616567 0
vt -0.6616566 0
vt 0.6616567 1.181102
vt -0.6616566 1.181102
vt 1.72643 0
vt 0.4885246 0
vt 1.72643 1.181102
vt 0.4885246 1.181102
vt -0.4885246 0
vt -0.4885246 1.181102
vt 0.4885245 1.181102
vt 0.4885245 0
vt -0.4885245 0
vt -0.4885245 1.181102
vt 0.6616566 1.181102
vt 0.6616566 0
vt -0.6616567 1.181102
vt -0.6616567 0
vt -0.4885246 0
vt -0.4885246 1.181102
vt 1.72643 0
vt 1.72643 1.181102
vt -0.6616567 0
vt -0.6616567 1.181102
vt 0.6616566 0
vt 0.6616566 1.181102
vt 1.986815 0.2424826
vt 0.6840838 0.2424826
vt 2.201079 1.429614
vt 0.7180145 1.429614
vt 1.136305 0.5915223
vt -1.136305 0.5915223
vt 1.136305 1.797835
vt -1.136305 1.797835
vt -3.153907 1.136305
vt -1.858644 1.858644
vt -3.153907 -1.136305
vt -2.345738 0.6616566
vt -2.345738 -0.6616567
vt -1.264589 1.264589
vt -1.858644 -1.858644
vt -1.136305 3.153907
vt -1.264589 -1.264589
vt -0.6616566 2.345738
vt -1.136305 -3.153907
vt -0.6616566 -2.345738
vt 1.136305 3.153907
vt 0.6616567 2.345738
vt 1.264589 1.264589
vt 1.858644 1.858644
vt 2.345738 0.6616568
vt 3.153907 1.136305
vt 1.136305 -3.153907
vt 0.6616567 -2.345738
vt 1.264589 -1.264589
vt 1.858644 -1.858644
vt 2.345738 -0.6616565
vt 3.153907 -1.136305
vt 1.136305 0.5915223
vt -1.136305 0.5915223
vt 0.6840839 0.2424826
vt 0.7180146 1.429614
vt -0.6840838 0.2424826
vt -1.986815 0.2424826
vt -0.7180145 1.429614
vt -2.201079 1.429614
vt -0.6840838 0.2424826
vt -0.7180144 1.429614
vt -1.986815 0.2424825
vt -0.6840837 0.2424825
vt 0.6840838 0.2424825
vt 0.7180145 1.429614
vt 1.986815 0.2424825
vt 1.136305 0.5915223
vt 1.136305 1.797835
vt 0.7180144 1.429614
vt 0.6840838 0.2424825
vt 1.770812 -1.770812
vt 2.345738 -0.6616567
vt 2.908577 -1.136305
vt 2.908577 1.136305
vt 1.264589 -1.264589
vt 2.345738 0.6616566
vt 1.136305 -2.908577
vt 1.770812 1.770812
vt 0.6616566 -2.345738
vt 1.264589 1.264589
vt 1.136305 2.908577
vt 0.6616566 2.345738
vt -1.136305 -2.908577
vt -0.6616567 -2.345738
vt -1.264589 -1.264589
vt -1.770812 -1.770811
vt -1.136305 2.908577
vt -0.6616567 2.345738
vt -1.264589 1.264589
vt -1.770812 1.770812
vt -2.345738 0.6616568
vt -2.908577 1.136305
vt -2.345738 -0.6616565
vt -2.908577 -1.136305

usemtl red

f 3/3/2 2/2/1 1/1/1
f 2/2/1 3/3/2 4/4/2
f 7/7/3 6/6/3 5/5/3
f 6/6/3 7/7/3 8/8/3
f 11/11/4 10/10/5 9/9/4
f 10/10/5 11/11/4 12/12/5
f 15/14/6 14/4/7 13/13/6
f 14/4/7 15/14/6 16/3/7
f 17/15/9 6/9/8 8/11/8
f 6/9/8 17/15/9 18/16/9
f 3/7/10 19/6/10 4/5/10
f 19/6/10 3/7/10 20/8/10
f 10/17/5 7/3/11 5/4/11
f 7/3/11 10/17/5 12/18/5
f 23/21/12 22/20/12 21/19/12
f 22/20/12 23/21/12 24/22/12
f 19/9/13 15/12/6 13/10/6
f 15/12/6 19/9/13 20/11/13
f 17/24/9 22/4/14 18/23/9
f 22/4/14 17/24/9 21/3/14
f 23/26/15 2/10/1 24/25/15
f 2/10/1 23/26/15 1/12/1
f 14/29/16 11/28/16 9/27/16
f 11/28/16 14/29/16 16/30/16
f 27/33/17 26/32/18 25/31/17
f 26/32/18 27/33/17 28/34/18
f 31/37/19 30/36/19 29/35/19
f 30/36/19 31/37/19 32/38/19
f 33/41/20 28/40/20 27/39/20
f 28/40/20 33/41/20 16/42/20
f 33/41/20 11/43/20 16/42/20
f 28/40/20 16/42/20 15/44/20
f 11/43/20 33/41/20 34/45/20
f 28/40/20 15/44/20 35/46/20
f 11/43/20 34/45/20 12/47/20
f 35/46/20 15/44/20 20/48/20
f 12/47/20 34/45/20 32/49/20
f 12/47/20 32/49/20 7/50/20
f 35/46/20 20/48/20 36/51/20
f 36/51/20 20/48/20 3/52/20
f 36/51/20 3/52/20 1/53/20
f 36/51/20 1/53/20 37/54/20
f 37/54/20 1/53/20 23/55/20
f 37/54/20 23/55/20 38/56/20
f 7/50/20 32/49/20 31/57/20
f 7/50/20 31/57/20 8/58/20
f 8/58/20 31/57/20 17/59/20
f 17/59/20 31/57/20 39/60/20
f 38/56/20 23/55/20 21/61/20
f 17/59/20 39/60/20 21/61/20
f 21/61/20 40/62/20 38/56/20
f 21/61/20 39/60/20 40/62/20
f 33/37/21 25/64/21 41/63/21
f 25/64/21 33/37/21 27/38/21
f 43/31/23 37/66/22 42/65/22
f 37/66/22 43/31/23 36/33/23
f 28/69/18 44/68/24 26/67/18
f 44/68/24 28/69/18 35/70/24
f 34/69/25 41/68/26 45/67/25
f 41/68/26 34/69/25 33/70/26
f 37/69/22 46/68/27 42/71/22
f 46/68/27 37/69/22 38/70/27
f 29/73/28 39/72/29 31/70/28
f 39/72/29 29/73/28 47/74/29
f 35/37/30 43/64/30 44/63/30
f 43/64/30 35/37/30 36/38/30
f 48/77/31 39/76/29 47/75/29
f 39/76/29 48/77/31 40/33/31
f 46/78/32 40/38/32 48/36/32
f 40/38/32 46/78/32 38/79/32
f 34/80/25 30/77/33 32/33/33
f 30/77/33 34/80/25 45/81/25
f 41/84/34 9/83/34 45/82/34
f 9/83/34 41/84/34 25/85/34
f 45/82/34 9/83/34 10/86/34
f 9/83/34 25/85/34 14/87/34
f 45/82/34 10/86/34 30/88/34
f 26/89/34 14/87/34 25/85/34
f 30/88/34 10/86/34 5/90/34
f 14/87/34 26/89/34 13/91/34
f 13/91/34 26/89/34 44/92/34
f 13/91/34 44/92/34 19/93/34
f 30/88/34 5/90/34 29/94/34
f 29/94/34 5/90/34 6/95/34
f 29/94/34 6/95/34 18/96/34
f 29/94/34 18/96/34 47/97/34
f 19/93/34 44/92/34 43/98/34
f 19/93/34 43/98/34 4/99/34
f 4/99/34 43/98/34 2/100/34
f 2/100/34 43/98/34 42/101/34
f 2/100/34 42/101/34 24/102/34
f 24/102/34 42/101/34 46/103/34
f 47/97/34 18/96/34 22/104/34
f 24/102/34 46/103/34 22/104/34
f 47/97/34 22/104/34 48/105/34
f 48/105/34 22/104/34 46/103/34

