# Created by Kenney (www.kenney.nl)

mtllib pear.mtl

g pear

v 0 0.2418498 -0.03919644
v -0.02291026 0.2510679 -0.01564339
v -0.0324 0.2563387 -0.03531415
v 0 0.2567578 -0.09483376
v 0.0324 0.2563387 -0.03531415
v 0.02291026 0.2510679 -0.01564339
v 0 0.2488847 -0.007495488
v 0.044744 0 7.219114E-16
v 0.03163878 0 -0.03163878
v 0.03163878 0 0.03163878
v -3.609557E-16 0 0.044744
v -3.609557E-16 0 -0.044744
v -0.03163878 0 0.03163878
v -0.03163878 0 -0.03163878
v -0.044744 0 7.219114E-16
v -3.609557E-16 0.03196 0.07896
v -0.05583315 0.03196 0.05583315
v 0.05583315 0.03196 0.05583315
v 0.05583315 0.03196 -0.05583315
v -3.609557E-16 0.03196 -0.07896
v -0.05583315 0.03196 -0.05583315
v -0.07896 0.03196 3.609557E-16
v 0.07896 0.03196 3.609557E-16
v 0.06940061 0.06859114 -0.06940061
v 0.09814728 0.06859114 0
v 0.06315455 0.1206342 -0.06315455
v 0.08931402 0.1206342 0
v -0.06940061 0.06859114 -0.06940061
v -0.06315455 0.1206342 -0.06315455
v -0.09814728 0.06859114 0
v -0.08931402 0.1206342 0
v 0.06940061 0.06859114 0.06940061
v -3.609557E-16 0.06859114 0.09814728
v 0.06315455 0.1206342 0.06315455
v -3.609557E-16 0.1206342 0.08931402
v -3.609557E-16 0.06859114 -0.09814728
v -3.609557E-16 0.1206342 -0.08931402
v -0.06940061 0.06859114 0.06940061
v -0.06315455 0.1206342 0.06315455
v 0 0.157016 0.05176641
v -0.03660438 0.157016 0.03660438
v 0.03660438 0.157016 0.03660438
v -0.05176641 0.157016 3.609557E-16
v 0.05176641 0.157016 3.609557E-16
v 0.03660438 0.157016 -0.03660438
v 0 0.157016 -0.05176641
v -0.03660438 0.157016 -0.03660438
v 0.01953391 0.227016 0
v 0.01381256 0.227016 0.01381256
v 0.01381256 0.227016 -0.01381256
v 0 0.227016 -0.01953391
v 0.005381376 0.227016 -0.005381376
v -0.005381376 0.227016 -0.005381376
v 0.005381376 0.227016 0.005381376
v 0 0.227016 0.01953391
v -0.01381256 0.227016 -0.01381256
v -0.005381376 0.227016 0.005381376
v -0.01381256 0.227016 0.01381256
v -0.01953391 0.227016 0
v -0.02725283 0.204316 -0.02725283
v -0.03854132 0.204316 3.609557E-16
v -0.02725283 0.204316 0.02725283
v 0.03854132 0.204316 3.609557E-16
v 0.02725283 0.204316 0.02725283
v 0 0.204316 0.03854132
v 0.02725283 0.204316 -0.02725283
v 0 0.204316 -0.03854132
v -0.0096096 0.2707534 -0.0096096
v 0.0096096 0.2707534 -0.0096096
v 0.0096096 0.2707534 0.0096096
v -0.0096096 0.2707534 0.0096096

vn 0 0.9961066 0.08815719
vn 0.3037909 0.9496877 -0.07618576
vn 0.4178621 0.8986459 0.1335173
vn -0.4178621 -0.8986459 -0.1335173
vn -0.3037909 -0.9496877 0.07618576
vn 0 -0.9961066 -0.08815719
vn 0 0.9659258 0.258819
vn 0 -0.9659258 -0.258819
vn -0.4178621 0.8986459 0.1335173
vn -0.3037909 0.9496877 -0.07618576
vn 0.3037909 -0.9496877 0.07618576
vn 0.4178621 -0.8986459 -0.1335173
vn 0 0.9762506 -0.2166441
vn 0 -0.9762506 0.2166441
vn 0 -1 0
vn 0 -0.7307882 0.6826043
vn -0.4826741 -0.7307881 0.4826741
vn 0.4826741 -0.7307881 0.4826741
vn 0.4826741 -0.7307881 -0.4826741
vn 0 -0.7307882 -0.6826043
vn -0.4826741 -0.7307881 -0.4826741
vn -0.6826043 -0.7307882 0
vn 0.6826043 -0.7307882 0
vn 0.6971365 0.1673364 -0.6971365
vn 0.9858999 0.1673364 0
vn -0.6971365 0.1673364 -0.6971365
vn -0.9858999 0.1673364 0
vn 0.6971365 0.1673364 0.6971365
vn 0 0.1673364 0.9858999
vn 0 0.1673364 -0.9858999
vn -0.6971365 0.1673364 0.6971365
vn 0.6263807 -0.4639982 -0.6263807
vn 0.8858361 -0.4639982 0
vn -0.6263807 -0.4639982 -0.6263807
vn -0.8858361 -0.4639982 0
vn 0 -0.4639982 0.8858361
vn -0.6263807 -0.4639982 0.6263807
vn 0.6263807 -0.4639982 0.6263807
vn 0 -0.4639982 -0.8858361
vn 0 0.7181684 0.6958693
vn -0.4920539 0.7181684 0.4920539
vn 0.4920539 0.7181684 0.4920539
vn -0.6958693 0.7181684 0
vn 0.6958693 0.7181684 0
vn 0.4920539 0.7181684 -0.4920539
vn 0 0.7181684 -0.6958693
vn -0.4920539 0.7181684 -0.4920539
vn 0 1 0
vn -0.680989 0.2692728 -0.680989
vn -0.963064 0.2692728 0
vn -0.680989 0.2692728 0.680989
vn 0.963064 0.2692728 0
vn 0.680989 0.2692728 0.680989
vn 0 0.2692728 0.963064
vn 0.680989 0.2692728 -0.680989
vn 0 0.2692728 -0.963064
vn 0.7667117 0.6419916 0
vn 0.542147 0.6419916 0.542147
vn -0.542147 0.6419916 -0.542147
vn -0.7667117 0.6419916 0
vn 0 0.6419916 -0.7667117
vn 0 0.6419916 0.7667117
vn -0.542147 0.6419916 0.542147
vn 0.542147 0.6419916 -0.542147
vn 0 -0.09622436 -0.9953597
vn 0.9953597 -0.09622436 0
vn -0.9953597 -0.09622436 0
vn 0 -0.09622436 0.9953597

vt 1.534091 4.101038
vt 0.514578 4.976096
vt 1.244002 5.47644
vt 3.25892 6.46242
vt 1.346968 5.243003
vt 0.5911033 6.42814
vt -1.244002 5.47644
vt -0.514578 4.976096
vt -1.534091 4.101038
vt 0.9529138 1.417219
vt 0.1822246 2.437231
vt 1.089776 2.753783
vt -3.25892 6.46242
vt -0.5911033 6.42814
vt -1.346968 5.243003
vt -0.9529138 1.417219
vt -1.089776 2.753783
vt -0.1822246 2.437231
vt 1.761575 2.842171E-14
vt 1.245621 -1.245621
vt 1.245621 1.245621
vt -1.421085E-14 1.761575
vt -1.421085E-14 -1.761575
vt -1.245621 1.245621
vt -1.245621 -1.245621
vt -1.761575 2.842171E-14
vt 1.189633 2.914261
vt 0.6741255 1.144478
vt -1.189633 2.914261
vt -0.6741255 1.144478
vt 1.478714 2.114796
vt -1.478714 2.114796
vt 1.34563 4.188775
vt -1.34563 4.188775
vt 1.478714 3.985837
vt 1.189633 2.383674
vt -1.478714 3.985837
vt -1.189633 2.383674
vt 0.7799271 3.174611
vt 1.34563 1.195508
vt -0.7799271 3.174611
vt -1.34563 1.195508
vt -0.7690514 0
vt -0.5438015 0.5438015
vt -0.5438015 -0.5438015
vt 0 -0.7690514
vt -0.2118652 -0.2118652
vt 0.2118652 -0.2118652
vt -0.2118652 0.2118652
vt 0 0.7690514
vt 0.5438015 -0.5438015
vt 0.2118652 0.2118652
vt 0.5438015 0.5438015
vt 0.7690514 0
vt -0.7799271 5.514337
vt -0.5806742 7.437668
vt 0.7799271 5.514337
vt 0.5806742 7.437668
vt 0.2943032 6.634511
vt 0.5806742 5.504609
vt -0.2943032 6.634511
vt -0.5806742 5.504609
vt 0.2118652 8.916551
vt -0.2118652 8.916551
vt 0.3783307 10.64652
vt -0.3783307 10.64652
vt -0.3783307 -0.3783307
vt -0.3783307 0.3783307
vt 0.3783307 -0.3783307
vt 0.3783307 0.3783307

usemtl green

f 3/3/3 2/2/2 1/1/1
f 1/1/6 2/2/5 3/3/4
f 3/6/3 1/5/1 4/4/7
f 4/4/8 1/5/6 3/6/4
f 1/9/1 6/8/10 5/7/9
f 5/7/12 6/8/11 1/9/6
f 2/12/2 7/11/13 1/10/1
f 1/10/6 7/11/14 2/12/5
f 1/15/1 5/14/9 4/13/7
f 4/13/8 5/14/12 1/15/6
f 7/18/13 6/17/10 1/16/1
f 1/16/6 6/17/11 7/18/14
f 10/21/15 9/20/15 8/19/15
f 9/20/15 10/21/15 11/22/15
f 9/20/15 11/22/15 12/23/15
f 12/23/15 11/22/15 13/24/15
f 12/23/15 13/24/15 14/25/15
f 14/25/15 13/24/15 15/26/15
f 17/29/17 11/28/16 16/27/16
f 11/28/16 17/29/17 13/30/17
f 16/29/16 10/28/18 18/27/18
f 10/28/18 16/29/16 11/30/16
f 9/30/19 20/27/20 19/29/19
f 20/27/20 9/30/19 12/28/20
f 15/28/22 21/29/21 14/30/21
f 21/29/21 15/28/22 22/27/22
f 8/30/23 19/27/19 23/29/23
f 19/27/19 8/30/23 9/28/19
f 14/28/21 20/29/20 12/30/20
f 20/29/20 14/28/21 21/27/21
f 17/27/17 15/30/22 13/28/17
f 15/30/22 17/27/17 22/29/22
f 18/29/18 8/28/23 23/27/23
f 8/28/23 18/29/18 10/30/18
f 26/33/24 25/32/25 24/31/24
f 25/32/25 26/33/24 27/34/25
f 30/31/27 29/34/26 28/32/26
f 29/34/26 30/31/27 31/33/27
f 34/33/28 33/32/29 32/31/28
f 33/32/29 34/33/28 35/34/29
f 37/33/30 24/32/24 36/31/30
f 24/32/24 37/33/30 26/34/24
f 38/31/31 31/34/27 30/32/27
f 31/34/27 38/31/31 39/33/31
f 35/33/29 38/32/31 33/31/29
f 38/32/31 35/33/29 39/34/31
f 34/34/28 25/31/25 27/33/25
f 25/31/25 34/34/28 32/32/28
f 29/33/26 36/32/30 28/31/26
f 36/32/30 29/33/26 37/34/30
f 25/37/33 19/36/32 24/35/32
f 19/36/32 25/37/33 23/38/33
f 21/38/34 30/35/35 28/37/34
f 30/35/35 21/38/34 22/36/35
f 33/35/36 17/38/37 16/36/36
f 17/38/37 33/35/36 38/37/37
f 22/38/35 38/35/37 30/37/35
f 38/35/37 22/38/35 17/36/37
f 32/37/38 23/36/33 25/35/33
f 23/36/33 32/37/38 18/38/38
f 36/35/39 19/38/32 20/36/39
f 19/38/32 36/35/39 24/37/32
f 32/35/38 16/38/36 18/36/38
f 16/38/36 32/35/38 33/37/36
f 28/35/34 20/38/39 21/36/34
f 20/38/39 28/35/34 36/37/39
f 41/41/41 35/40/40 40/39/40
f 35/40/40 41/41/41 39/42/41
f 42/39/42 35/42/40 34/40/42
f 35/42/40 42/39/42 40/41/40
f 43/41/43 39/40/41 41/39/41
f 39/40/41 43/41/43 31/42/43
f 44/39/44 34/42/42 27/40/44
f 34/42/42 44/39/44 42/41/42
f 37/40/46 45/41/45 26/42/45
f 45/41/45 37/40/46 46/39/46
f 37/42/46 47/39/47 46/41/46
f 47/39/47 37/42/46 29/40/47
f 26/40/45 44/41/44 27/42/44
f 44/41/44 26/40/45 45/39/45
f 29/42/47 43/39/43 47/41/47
f 43/39/43 29/42/47 31/40/43
f 50/45/48 49/44/48 48/43/48
f 49/44/48 50/45/48 51/46/48
f 49/44/48 51/46/48 52/47/48
f 52/47/48 51/46/48 53/48/48
f 54/49/48 49/44/48 52/47/48
f 49/44/48 54/49/48 55/50/48
f 53/48/48 51/46/48 56/51/48
f 55/50/48 54/49/48 57/52/48
f 53/48/48 56/51/48 57/52/48
f 55/50/48 57/52/48 58/53/48
f 58/53/48 57/52/48 56/51/48
f 58/53/48 56/51/48 59/54/48
f 43/57/50 60/56/49 47/55/49
f 60/56/49 43/57/50 61/58/50
f 41/57/51 61/56/50 43/55/50
f 61/56/50 41/57/51 62/58/51
f 64/56/53 44/57/52 63/58/52
f 44/57/52 64/56/53 42/55/53
f 64/58/53 40/55/54 42/57/53
f 40/55/54 64/58/53 65/56/54
f 65/58/54 41/55/51 40/57/54
f 41/55/51 65/58/54 62/56/51
f 66/58/55 44/55/52 45/57/55
f 44/55/52 66/58/55 63/56/52
f 60/58/49 46/55/56 47/57/49
f 46/55/56 60/58/49 67/56/56
f 67/58/56 45/55/55 46/57/56
f 45/55/55 67/58/56 66/56/55
f 49/61/58 63/60/57 48/59/57
f 63/60/57 49/61/58 64/62/58
f 61/60/60 56/61/59 60/62/59
f 56/61/59 61/60/60 59/59/60
f 56/59/59 67/62/61 60/60/59
f 67/62/61 56/59/59 51/61/61
f 55/59/62 62/62/63 65/60/62
f 62/62/63 55/59/62 58/61/63
f 61/62/60 58/59/63 59/61/60
f 58/59/63 61/62/60 62/60/63
f 49/59/58 65/62/62 64/60/58
f 65/62/62 49/59/58 55/61/62
f 51/59/61 66/62/64 67/60/61
f 66/62/64 51/59/61 50/61/64
f 50/59/64 63/62/57 66/60/64
f 63/62/57 50/59/64 48/61/57

usemtl brown

f 68/65/65 52/64/65 53/63/65
f 52/64/65 68/65/65 69/66/65
f 70/66/66 52/63/66 69/65/66
f 52/63/66 70/66/66 54/64/66
f 53/64/67 71/65/67 68/66/67
f 71/65/67 53/64/67 57/63/67
f 70/65/68 57/64/68 54/63/68
f 57/64/68 70/65/68 71/66/68
f 68/69/48 70/68/48 69/67/48
f 70/68/48 68/69/48 71/70/48

