# Created by Kenney (www.kenney.nl)

mtllib pearHalf.mtl

g pearHalf

v -0.05583315 0.03196 -0.05583315
v 0 0.03196 -0.07896
v -0.06940061 0.06859114 -0.06940061
v 0 0.06859114 -0.09814728
v 0 0.157016 0.05176641
v 0 0.1206342 0.08931402
v -0.03660438 0.157016 0.03660438
v -0.06315455 0.1206342 0.06315455
v 0 0.06859114 0.09814728
v -0.06940061 0.06859114 0.06940061
v -0.05176641 0.157016 3.609557E-16
v -0.08931402 0.1206342 0
v 0 0 -0.044744
v -0.03163878 0 -0.03163878
v -0.03660438 0.157016 -0.03660438
v -0.02725283 0.204316 -0.02725283
v -0.03854132 0.204316 3.609557E-16
v -0.09814728 0.06859114 0
v -0.07896 0.03196 3.609557E-16
v -0.05583315 0.03196 0.05583315
v 0 0.204316 0.03854132
v -0.02725283 0.204316 0.02725283
v 0 0.03196 0.07896
v 0 0 0.044744
v -0.03163878 0 0.03163878
v 0 0.1206342 -0.08931402
v 0 0.157016 -0.05176641
v -0.06315455 0.1206342 -0.06315455
v -0.044744 0 7.219114E-16
v 0 0.204316 -0.03854132
v 0 0.227016 -0.01953391
v 0 0.227016 -0.005381376
v -0.01381256 0.227016 -0.01381256
v -0.005381376 0.227016 -0.005381376
v -0.005381376 0.227016 0.005381376
v -0.01381256 0.227016 0.01381256
v -0.01953391 0.227016 0
v 0 0.227016 0.01953391
v 0 0.227016 0.005381376
v 0 0.07134246 -0.08078832
v 0 0.1124697 -0.07380781
v 0 0.04219672 -0.06552187
v 0 0.0166538 -0.03817592
v 0 0.1481916 -0.03694118
v 0 0.1963757 -0.02346892
v 0 0.2103622 -0.01175758
v 0 0.2103622 -0.005381376
v 0 0.2103622 0.005381376
v 0 0.0266538 1.443823E-15
v 0 0.0166538 0.03817592
v 0 0.04219672 0.06552187
v 0 0.2103622 0.01175758
v 0 0.1963757 0.02346892
v 0 0.1481916 0.03694118
v 0 0.1124697 0.07380781
v 0 0.07134246 0.08078832
v -0.0096096 0.2707534 -0.0096096
v -0.0096096 0.2707534 0.0096096
v 0 0.2707534 0.0096096
v 0 0.2707534 -0.0096096
v 0 0.07215909 -0.02483564
v 0 0.0695709 -0.01517638
v 0 0.09018351 -0.01482963
v 0 0.08888941 -0.01
v 0 0.08888941 0.01
v 0 0.0695709 0.01517638
v 0 0.09018351 0.01482963
v 0 0.07215909 0.02483564

vn -0.6263807 -0.4639982 -0.6263807
vn -0.3444687 -0.4356005 -0.8316211
vn -0.2769628 0.6900741 0.6686473
vn -0.4920539 0.7181684 0.4920539
vn -0.3780635 0.1549167 0.9127261
vn -0.6971365 0.1673364 0.6971365
vn -0.6958693 0.7181684 0
vn -0.2720776 -0.7032194 -0.6568533
vn -0.4826741 -0.7307881 -0.4826741
vn -0.680989 0.2692728 -0.680989
vn -0.963064 0.2692728 0
vn -0.8858361 -0.4639982 0
vn -0.6263807 -0.4639982 0.6263807
vn -0.3705211 0.2501071 0.8945169
vn -0.680989 0.2692728 0.680989
vn -0.2720776 -0.7032194 0.6568533
vn -0.4826741 -0.7307881 0.4826741
vn -0.9858999 0.1673364 0
vn -0.2769628 0.6900741 -0.6686473
vn -0.4920539 0.7181684 -0.4920539
vn -0.6826043 -0.7307882 0
vn -0.3705211 0.2501071 -0.8945169
vn -0.3444687 -0.4356005 0.8316211
vn 0 -1 0
vn -0.6971365 0.1673364 -0.6971365
vn -0.3780635 0.1549167 -0.9127261
vn 0 1 0
vn -0.3026848 0.6118762 0.7307458
vn -0.542147 0.6419916 0.542147
vn -0.542147 0.6419916 -0.542147
vn -0.7667117 0.6419916 0
vn 1 0 0
vn -0.3026848 0.6118762 -0.7307458
vn -0.9953597 -0.09622436 0
vn 0 -0.09622436 0.9953597
vn 0 -0.09622436 -0.9953597

vt 1.189633 2.383674
vt -1.189633 2.383674
vt 1.478714 3.985837
vt -1.478714 3.985837
vt 0.7799271 3.174611
vt 1.34563 1.195508
vt -0.7799271 3.174611
vt -1.34563 1.195508
vt 1.478714 2.114796
vt -1.478714 2.114796
vt 1.34563 4.188775
vt -1.34563 4.188775
vt -0.6741255 1.144478
vt -1.189633 2.914261
vt 0.6741255 1.144478
vt 1.189633 2.914261
vt -0.7799271 5.514337
vt -0.5806742 7.437668
vt 0.7799271 5.514337
vt 0.5806742 7.437668
vt 0 1.761575
vt 0 -1.761575
vt -1.245621 1.245621
vt -1.245621 -1.245621
vt -1.761575 2.842171E-14
vt -5.789245E-15 -0.7690514
vt -5.789245E-15 -0.2118652
vt 0.5438015 -0.5438015
vt 0.2118652 -0.2118652
vt 0.2118652 0.2118652
vt 0.5438015 0.5438015
vt 0.7690514 -1.721541E-15
vt -5.789245E-15 0.7690514
vt -5.789245E-15 0.2118652
vt 0.5806742 5.504609
vt -0.5806742 5.504609
vt 0.2943032 6.634511
vt -0.2943032 6.634511
vt 3.864066 2.700439
vt 3.108661 1.258268
vt 3.5163 4.74938
vt 3.180643 2.808758
vt 2.905819 4.427942
vt 2.579601 1.661288
vt 2.038048 6.181732
vt 1.761575 0
vt 1.502989 0.6556615
vt 1.454377 5.834316
vt 1.517375 8.043937
vt -1.761575 0
vt 0.7690514 8.937637
vt 0.9239731 7.731327
vt 0.4628968 8.281977
vt 0.2118652 8.937637
vt 0.2118652 8.281977
vt -0.2118652 8.937637
vt -0.2118652 8.281977
vt -5.684342E-14 1.049362
vt -1.502989 0.6556615
vt -2.579601 1.661288
vt -3.108661 1.258268
vt -0.7690514 8.937637
vt -0.4628968 8.281977
vt -0.9239731 7.731327
vt -1.517375 8.043937
vt -1.454377 5.834316
vt -2.038048 6.181732
vt -2.905819 4.427942
vt -3.5163 4.74938
vt -3.180643 2.808758
vt -3.864066 2.700439
vt -0.3783307 10.64652
vt 0.3783307 10.64652
vt -0.2118652 8.916551
vt 0.2118652 8.916551
vt 5.273936E-18 8.916551
vt 9.417743E-18 10.64652
vt 9.635482E-15 8.916551
vt 1.720622E-14 10.64652
vt -5.004939E-14 -0.3783307
vt -5.004939E-14 0.3783307
vt 0.3783307 -0.3783307
vt 0.3783307 0.3783307
vt 0.3783307 10.65958
vt -0.3783307 10.65958
vt 0.9777811 2.840909
vt 0.5974953 2.739012
vt 0.5838436 3.550532
vt 0.3937008 3.499583
vt -0.3937008 3.499583
vt -0.5974953 2.739012
vt -0.5838436 3.550532
vt -0.9777811 2.840909

usemtl green

f 3/3/1 2/2/2 1/1/1
f 2/2/2 3/3/1 4/4/2
f 7/7/4 6/6/3 5/5/3
f 6/6/3 7/7/4 8/8/4
f 6/11/5 10/10/6 9/9/5
f 10/10/6 6/11/5 8/12/6
f 11/7/7 8/6/4 7/5/4
f 8/6/4 11/7/7 12/8/7
f 14/15/9 2/14/8 13/13/8
f 2/14/8 14/15/9 1/16/9
f 11/19/11 16/18/10 15/17/10
f 16/18/10 11/19/11 17/20/11
f 19/2/12 10/3/13 18/4/12
f 10/3/13 19/2/12 20/1/13
f 21/20/14 7/17/15 5/19/14
f 7/17/15 21/20/14 22/18/15
f 20/14/17 24/15/16 23/16/16
f 24/15/16 20/14/17 25/13/17
f 10/9/6 12/12/18 18/10/18
f 12/12/18 10/9/6 8/11/6
f 28/6/20 27/7/19 26/8/19
f 27/7/19 28/6/20 15/5/20
f 20/16/17 29/13/21 25/15/17
f 29/13/21 20/16/17 19/14/21
f 16/20/10 27/17/22 15/19/10
f 27/17/22 16/20/10 30/18/22
f 9/3/23 20/2/13 23/1/23
f 20/2/13 9/3/23 10/4/13
f 25/23/24 13/22/24 24/21/24
f 13/22/24 25/23/24 14/24/24
f 14/24/24 25/23/24 29/25/24
f 1/2/1 18/3/12 3/4/1
f 18/3/12 1/2/1 19/1/12
f 28/8/20 11/5/7 15/7/20
f 11/5/7 28/8/20 12/6/7
f 28/11/25 4/10/26 3/9/25
f 4/10/26 28/11/25 26/12/26
f 33/28/27 32/27/27 31/26/27
f 32/27/27 33/28/27 34/29/27
f 34/29/27 33/28/27 35/30/27
f 36/31/27 35/30/27 33/28/27
f 36/31/27 33/28/27 37/32/27
f 38/33/27 35/30/27 36/31/27
f 35/30/27 38/33/27 39/34/27
f 7/19/15 17/18/11 11/17/11
f 17/18/11 7/19/15 22/20/15
f 18/9/18 28/12/25 3/10/25
f 28/12/25 18/9/18 12/11/18
f 38/37/28 22/36/29 21/35/28
f 22/36/29 38/37/28 36/38/29
f 29/15/21 1/14/9 14/13/9
f 1/14/9 29/15/21 19/16/21
f 17/35/31 33/38/30 16/36/30
f 33/38/30 17/35/31 37/37/31
f 17/36/31 36/37/29 37/38/31
f 36/37/29 17/36/31 22/35/29
f 26/41/32 2/40/32 4/39/32
f 2/40/32 26/41/32 40/42/32
f 26/41/32 41/43/32 40/42/32
f 2/40/32 40/42/32 42/44/32
f 41/43/32 26/41/32 27/45/32
f 2/40/32 42/44/32 13/46/32
f 13/46/32 42/44/32 43/47/32
f 41/43/32 27/45/32 44/48/32
f 44/48/32 27/45/32 30/49/32
f 13/46/32 43/47/32 24/50/32
f 44/48/32 30/49/32 31/51/32
f 44/48/32 31/51/32 45/52/32
f 45/52/32 31/51/32 46/53/32
f 46/53/32 31/51/32 32/54/32
f 46/53/32 32/54/32 47/55/32
f 47/55/32 32/54/32 39/56/32
f 47/55/32 39/56/32 48/57/32
f 24/50/32 43/47/32 49/58/32
f 24/50/32 49/58/32 50/59/32
f 24/50/32 50/59/32 51/60/32
f 24/50/32 51/60/32 23/61/32
f 48/57/32 39/56/32 38/62/32
f 48/57/32 38/62/32 52/63/32
f 52/63/32 38/62/32 53/64/32
f 53/64/32 38/62/32 21/65/32
f 53/64/32 21/65/32 54/66/32
f 54/66/32 21/65/32 5/67/32
f 54/66/32 5/67/32 55/68/32
f 55/68/32 5/67/32 6/69/32
f 23/61/32 51/60/32 56/70/32
f 55/68/32 6/69/32 56/70/32
f 23/61/32 56/70/32 9/71/32
f 9/71/32 56/70/32 6/69/32
f 33/37/30 30/36/33 16/35/30
f 30/36/33 33/37/30 31/38/33

usemtl brown

f 34/74/34 58/73/34 57/72/34
f 58/73/34 34/74/34 35/75/34
f 59/77/35 35/74/35 39/76/35
f 35/74/35 59/77/35 58/72/35
f 57/73/36 32/78/36 34/75/36
f 32/78/36 57/73/36 60/79/36
f 57/82/27 59/81/27 60/80/27
f 59/81/27 57/82/27 58/83/27
f 59/85/32 32/54/32 60/84/32
f 32/54/32 59/85/32 39/56/32

usemtl brownDark

f 63/88/32 62/87/32 61/86/32
f 62/87/32 63/88/32 64/89/32
f 67/92/32 66/91/32 65/90/32
f 66/91/32 67/92/32 68/93/32

usemtl brownLight

f 41/43/32 42/44/32 40/42/32
f 42/44/32 41/43/32 44/48/32
f 42/44/32 44/48/32 43/47/32
f 43/47/32 44/48/32 61/86/32
f 43/47/32 61/86/32 49/58/32
f 45/52/32 61/86/32 44/48/32
f 61/86/32 45/52/32 63/88/32
f 63/88/32 45/52/32 46/53/32
f 49/58/32 61/86/32 62/87/32
f 63/88/32 46/53/32 64/89/32
f 49/58/32 62/87/32 64/89/32
f 64/89/32 46/53/32 47/55/32
f 49/58/32 64/89/32 47/55/32
f 49/58/32 47/55/32 48/57/32
f 49/58/32 48/57/32 65/90/32
f 52/63/32 65/90/32 48/57/32
f 49/58/32 65/90/32 66/91/32
f 65/90/32 52/63/32 67/92/32
f 67/92/32 52/63/32 53/64/32
f 49/58/32 66/91/32 50/59/32
f 67/92/32 53/64/32 68/93/32
f 50/59/32 66/91/32 68/93/32
f 68/93/32 53/64/32 54/66/32
f 50/59/32 68/93/32 54/66/32
f 50/59/32 54/66/32 55/68/32
f 50/59/32 55/68/32 51/60/32
f 51/60/32 55/68/32 56/70/32

usemtl _defaultMat

f 34/36/27 39/37/27 32/38/27
f 39/36/27 34/37/27 35/38/27

