# Created by Kenney (www.kenney.nl)

mtllib pineapple.mtl

g pineapple

v -0.07513452 0.036225 0.006972954
v -0.09022585 0.108675 0.006972954
v -0.05227166 0.036225 0.06216876
v -0.06294285 0.108675 0.07283995
v -0.06294285 0.108675 -0.05889404
v 0.002924143 0.108675 -0.08617704
v -0.05227166 0.181125 -0.04822285
v 0.002924143 0.181125 -0.07108571
v 0.04975934 0 0.006972954
v 0.03604162 0 -0.02614453
v 0.03604162 0 0.04009044
v 0.002924143 0 0.05380815
v 0.002924143 0 -0.03986224
v -0.03019334 0 0.04009044
v -0.03019334 0 -0.02614453
v -0.04391105 0 0.006972954
v 0.0809828 0.181125 0.006972954
v 0.09607414 0.108675 0.006972954
v 0.05811995 0.181125 0.06216876
v 0.06879114 0.108675 0.07283995
v 0.002924143 0.036225 -0.07108571
v 0.05811995 0.036225 -0.04822285
v 0.06879114 0.108675 -0.05889404
v 0.0809828 0.036225 0.006972954
v 0.05811995 0.036225 0.06216876
v -0.03019334 0.21735 -0.02614453
v 0.002924143 0.21735 -0.03986224
v -0.07513452 0.181125 0.006972954
v -0.04391105 0.21735 0.006972954
v 0.002924143 0.036225 0.08503161
v 0.002924143 0.108675 0.100123
v 0.04975934 0.21735 0.006972954
v 0.03604162 0.21735 0.04009044
v 0.03604162 0.21735 -0.02614453
v 0.002924143 0.21735 0.05380815
v -0.03019334 0.21735 0.04009044
v 0.05811995 0.181125 -0.04822285
v -0.05227166 0.181125 0.06216876
v 0.002924143 0.181125 0.08503161
v -0.05227166 0.036225 -0.04822285
v 0.02904914 0.2540853 -0.05186664
v 0.002924143 0.2657522 -0.1125702
v -0.02320086 0.2540853 -0.05186664
v -0.03626336 0.2999035 -0.05786065
v 0.04211164 0.2999035 -0.05786065
v 0.002924143 0.370114 -0.1223818
v 0.002924139 0.3180672 0.1223818
v 0.04211164 0.2731643 0.06464181
v -0.03626336 0.2731643 0.06464181
v -0.05552721 0.3313482 -0.04122767
v -0.1152709 0.4375229 0.006972953
v -0.05552721 0.3313482 0.05517358
v -0.05445217 0.2486242 0.03309795
v -0.05445217 0.2486242 -0.01915205
v -0.114248 0.2569032 0.006972953
v 0.05112477 0.3077624 0.05910451
v -0.04527649 0.3077624 0.0591045
v 0.002924139 0.3903512 0.1125284
v 0.06174861 0.2774771 0.04616046
v 0.1205823 0.3264619 0.006972956
v 0.06174861 0.2774771 -0.03221454
v 0.1119906 0.4034544 0.006972956
v 0.05681119 0.314314 -0.04122767
v 0.05681119 0.314314 0.05517358
v -0.05890489 0.2886903 0.04616046
v -0.05890489 0.2886903 -0.03221454
v -0.1205823 0.3482879 0.006972953
v 0.002924139 0.2446507 0.120862
v 0.02904914 0.2410628 0.06232319
v -0.02320086 0.2410628 0.06232319
v 0.05883718 0.2431632 0.03309796
v 0.1177252 0.2480542 0.006972956
v 0.05883718 0.2431632 -0.01915204
v -0.04527648 0.3483824 -0.0560427
v 0.05112477 0.3483824 -0.0560427
v 0.002924143 0.4715913 -0.1203507
v -0.01976336 0.21735 -0.02093267
v -0.01220086 0.21735 -0.02093267
v -0.02498148 0.21735 -0.02093267
v 0.01804914 0.21735 -0.02093267
v 0.02561164 0.21735 -0.02093267
v 0.03082977 0.21735 -0.02093267
v 0.03082977 0.21735 -0.01571454
v 0.03082977 0.21735 -0.008152043
v 0.03082977 0.21735 0.02209796
v 0.03082977 0.21735 0.02966046
v -0.02498148 0.21735 -0.01571455
v -0.02498148 0.21735 -0.008152046
v -0.02498148 0.21735 0.02209795
v -0.02498148 0.21735 0.02966045
v 0.01804914 0.21735 0.03487858
v -0.01220086 0.21735 0.03487858
v 0.02561164 0.21735 0.03487858
v -0.01976336 0.21735 0.03487858
v 0.03082977 0.21735 0.03487858
v -0.02498148 0.21735 0.03487858

vn -0.9789869 -0.203923 0
vn -0.6922483 -0.203923 0.6922483
vn -0.6922483 0.203923 -0.6922483
vn 0 0.203923 -0.9789869
vn 0 -1 0
vn 0.9789869 0.203923 0
vn 0.6922483 0.203923 0.6922483
vn 0 -0.203923 -0.9789869
vn 0.6922483 -0.203923 -0.6922483
vn 0.9789869 -0.203923 0
vn 0.6922483 -0.203923 0.6922483
vn -0.5356061 0.6528798 -0.5356061
vn 0 0.6528798 -0.7574615
vn -0.7574615 0.6528798 0
vn 0 -0.203923 0.9789869
vn 0 1 0
vn 0.6922483 0.203923 -0.6922483
vn -0.5356061 0.6528798 0.5356061
vn 0 0.203923 0.9789869
vn -0.6922483 0.203923 0.6922483
vn 0.5356061 -0.6528798 0.5356061
vn 0 -0.6528798 0.7574615
vn 0.5356061 0.6528798 0.5356061
vn 0 0.6528798 0.7574615
vn 0.7574615 -0.6528798 0
vn 0.7574615 0.6528798 0
vn 0.5356061 0.6528798 -0.5356061
vn 0 -0.6528798 -0.7574615
vn 0.5356061 -0.6528798 -0.5356061
vn -0.6922483 -0.203923 -0.6922483
vn -0.9789869 0.203923 0
vn -0.5356061 -0.6528798 0.5356061
vn -0.7574615 -0.6528798 0
vn -0.5356061 -0.6528798 -0.5356061
vn 0 -0.8499048 -0.5269362
vn 0 -0.982027 -0.1887405
vn 0 0.8499048 0.5269362
vn 0 0.982027 0.1887405
vn 0 -0.5385007 -0.8426251
vn 0 -0.6766444 -0.7363099
vn 0 0.6766444 0.7363099
vn 0 0.5385007 0.8426251
vn 0 -0.789392 0.6138896
vn 0 -0.6278577 0.7783281
vn 0 0.6278577 -0.7783281
vn 0 0.789392 -0.6138896
vn -0.9297217 -0.3682631 0
vn -0.8715036 -0.4903891 0
vn 0.9297217 0.3682631 0
vn 0.8715036 0.4903891 0
vn -0.4783077 -0.8781923 0
vn -0.1371454 -0.9905509 0
vn 0.1371454 0.9905509 0
vn 0.4783077 0.8781923 0
vn 0 -0.3917793 0.9200591
vn 0 -0.5431375 0.8396438
vn 0 0.5431375 -0.8396438
vn 0 0.3917793 -0.9200591
vn 0.7923481 -0.6100693 0
vn 0.6398503 -0.7684996 0
vn -0.7923481 0.6100693 0
vn -0.6398503 0.7684996 0
vn 0.8502768 -0.5263357 0
vn 0.9232017 -0.3843157 0
vn -0.9232017 0.3843157 0
vn -0.8502768 0.5263357 0
vn -0.8213015 -0.5704942 0
vn -0.6948782 -0.7191275 0
vn 0.6948782 0.7191275 0
vn 0.8213015 0.5704942 0
vn 0 -0.9981269 0.06117644
vn 0 -0.9194074 0.3933064
vn 0 0.9194074 -0.3933064
vn 0 0.9981269 -0.06117644
vn 0.4193674 -0.9078166 0
vn 0.08277068 -0.9965686 0
vn -0.4193674 0.9078166 0
vn -0.08277068 0.9965686 0
vn 0 -0.3557843 -0.934568
vn 0 -0.4627083 -0.8865106
vn 0 0.4627083 0.8865106
vn 0 0.3557843 0.934568
vn 0 -0.258819 -0.9659258
vn 0 0.258819 0.9659258
vn 0.8893099 -0.4573051 0
vn -0.8893099 0.4573051 0
vn 0 -0.4083304 -0.9128342
vn 0 0.4083304 0.9128342
vn -0.9030971 -0.4294364 0
vn 0.9030971 0.4294364 0
vn 0 -0.7566779 0.6537879
vn 0 0.7566779 -0.6537879
vn 0 -0.4705339 0.8823819
vn 0 0.4705339 -0.8823819
vn 0.9659258 -0.258819 0
vn -0.9659258 0.258819 0
vn 0 -0.258819 0.9659258
vn 0 0.258819 -0.9659258
vn 0.6777158 -0.735324 0
vn -0.6777158 0.735324 0
vn -0.7277804 -0.6858103 0
vn 0.7277804 0.6858103 0
vn -0.9659258 -0.258819 0
vn 0.9659258 0.258819 0
vn 0 -0.6441236 -0.7649214
vn 0 0.6441236 0.7649214

vt -0.8783687 1.936788
vt -1.105739 4.841488
vt 1.473738 1.936788
vt 1.701108 4.841488
vt 1.40212 3.617422
vt -1.404728 3.617422
vt 1.174749 6.522122
vt -1.177357 6.522122
vt 1.959029 0.2745258
vt 1.418962 -1.029312
vt 1.418962 1.578364
vt 0.1151237 2.118431
vt 0.1151237 -1.56938
vt -1.188714 1.578364
vt -1.188714 -1.029312
vt -1.728782 0.2745258
vt 0.9664806 6.425914
vt 1.193851 3.521214
vt -1.385626 6.425914
vt -1.612996 3.521214
vt 0.9646364 1.89743
vt -1.38747 1.89743
vt 1.192007 4.80213
vt -1.614841 4.80213
vt 0.9664806 1.976987
vt -1.385626 1.976987
vt 1.193851 4.881688
vt -1.612996 4.881688
vt 1.174749 3.995064
vt -1.177357 3.995064
vt 0.704328 5.818194
vt -0.706936 5.818194
vt -0.9664806 3.941325
vt -0.4960592 5.764454
vt 1.385626 3.941325
vt 0.9152048 5.764454
vt 1.177357 1.99329
vt -1.174749 1.99329
vt 1.404728 4.89799
vt -1.40212 4.89799
vt -1.959029 0.2745258
vt -1.418962 1.578364
vt -1.418962 -1.029312
vt -0.1151237 -1.56938
vt -0.1151237 2.118431
vt 1.188714 -1.029312
vt 1.188714 1.578364
vt 1.728782 0.2745258
vt 1.192007 3.600771
vt -1.614841 3.600771
vt 0.9646364 6.505471
vt -1.38747 6.505471
vt -0.8783687 3.810437
vt -0.4079474 5.633567
vt 1.473738 3.810437
vt 1.003317 5.633567
vt 1.614841 3.521562
vt -1.192007 3.521562
vt 1.38747 6.426263
vt -0.9646364 6.426263
vt 1.38747 1.976639
vt -0.9646364 1.976639
vt 1.614841 4.881339
vt -1.192007 4.881339
vt 0.706936 1.246644
vt -0.704328 1.246644
vt 1.177357 3.069773
vt -1.174749 3.069773
vt 1.177357 3.624186
vt -1.174749 3.624186
vt 0.706936 5.447315
vt -0.704328 5.447315
vt 0.9664806 3.016034
vt 0.4960592 1.192904
vt -1.385626 3.016034
vt -0.9152048 1.192904
vt 0.4960592 5.501055
vt 0.9664806 3.677925
vt -0.9152048 5.501055
vt -1.385626 3.677925
vt 0.9646364 3.940176
vt -1.38747 3.940176
vt 0.4942151 5.763306
vt -0.9170489 5.763306
vt 1.105739 3.56092
vt -1.701108 3.56092
vt 0.8783687 6.465621
vt -1.473738 6.465621
vt 1.404728 3.504911
vt -1.40212 3.504911
vt 1.177357 6.409612
vt -1.174749 6.409612
vt 0.4942151 0.9306537
vt -0.9170489 0.9306537
vt 0.9646364 2.753783
vt -1.38747 2.753783
vt 0.8783687 3.808813
vt -1.473738 3.808813
vt 0.4079474 5.631942
vt -1.003317 5.631942
vt 1.174749 1.880779
vt -1.177357 1.880779
vt 1.40212 4.785479
vt -1.404728 4.785479
vt -0.8783687 6.466114
vt 1.473738 6.466114
vt -1.105739 3.561413
vt 1.701108 3.561413
vt 0.9170489 1.191756
vt -0.4942151 1.191756
vt 1.38747 3.014885
vt -0.9646364 3.014885
vt 0.8783687 2.885147
vt 0.4079474 1.062017
vt -1.473738 2.885147
vt -1.003317 1.062017
vt 1.38747 3.679074
vt -0.9646364 3.679074
vt 0.9170489 5.502203
vt -0.4942151 5.502203
vt -1.193851 3.60112
vt -0.9664806 6.50582
vt 1.612996 3.60112
vt 1.385626 6.50582
vt 1.105739 4.841981
vt 0.8783687 1.937281
vt -1.701108 4.841981
vt -1.473738 1.937281
vt -0.4079474 1.060392
vt -0.8783687 2.883522
vt 1.003317 1.060392
vt 1.473738 2.883522
vt -1.193851 4.801782
vt 1.612996 4.801782
vt -0.9664806 1.897081
vt 1.385626 1.897081
vt 0.704328 0.8757654
vt -0.706936 0.8757654
vt 1.174749 2.698895
vt -1.177357 2.698895
vt -0.9664806 2.752635
vt 1.385626 2.752635
vt -0.4960592 0.9295049
vt 0.9152048 0.9295049
vt -1.143667 3.893331
vt -0.1151237 6.326977
vt 0.9134196 3.893331
vt 1.427691 10.23516
vt -1.657939 10.23516
vt -0.1151237 13.98928
vt 0.1151238 11.49076
vt 1.657939 8.611041
vt -1.427691 8.611041
vt -1.623137 12.44099
vt 0.2745258 17.23742
vt 2.172188 12.44099
vt 1.303069 3.465958
vt -0.7540175 3.465958
vt 0.2745258 5.84258
vt 2.012786 11.4375
vt -1.782539 11.4375
vt 0.1151238 15.31001
vt -1.817341 8.858171
vt -0.2745259 11.87221
vt 1.268289 8.858171
vt -0.2745259 15.82648
vt 1.623137 11.69904
vt -2.172188 11.69904
vt 1.817341 9.56554
vt -1.268289 9.56554
vt 0.2745258 12.94219
vt 0.1151238 5.338682
vt 1.143667 3.029678
vt -0.9134195 3.029678
vt -1.303069 3.100869
vt -0.2745259 5.427277
vt 0.7540175 3.100869
vt 1.782539 13.18016
vt -2.012786 13.18016
vt -0.1151237 18.65189
vt 0.7780849 8.478809
vt 0.4803487 8.478809
vt 0.983523 8.478809
vt -0.7105961 8.478809
vt -1.008332 8.478809
vt -1.21377 8.478809
vt 1.782539 13.81955
vt -2.012786 13.81955
vt 1.268289 10.82681
vt 0.6186828 8.164966
vt -1.817341 10.82681
vt 0.3209466 8.164966
vt -0.8699983 8.164966
vt -1.167735 8.164966
vt 0.7780849 8.147715
vt 0.4803487 8.147715
vt 1.427691 11.70821
vt -0.7105961 8.147715
vt -1.008332 8.147715
vt -1.657939 11.70821
vt -1.268289 11.26029
vt 1.817341 11.26029
vt -0.6186829 8.150241
vt -0.3209467 8.150241
vt 0.8699982 8.150241
vt 1.167734 8.150241
vt 1.143667 8.061517
vt 0.7105962 6.633568
vt -0.9134195 8.061517
vt -0.4803486 6.633568
vt 1.008332 8.196743
vt 0.7105962 8.196743
vt 1.657939 10.68706
vt -0.4803486 8.196743
vt -0.7780849 8.196743
vt -1.427691 10.68706
vt 1.623137 12.5318
vt 0.8241208 8.579658
vt -2.172188 12.5318
vt 0.6186828 8.579658
vt 0.3209466 8.579658
vt -0.8699983 8.579658
vt -1.167735 8.579658
vt -1.373173 8.579658
vt 1.008332 8.620914
vt 0.7105962 8.620914
vt 1.21377 8.620914
vt -0.4803486 8.620914
vt -0.7780849 8.620914
vt -0.9835229 8.620914
vt 2.012786 12.30602
vt -1.782539 12.30602
vt -1.303069 8.191336
vt 0.7540175 8.191336
vt -0.8699983 6.691787
vt 0.3209466 6.691787
vt -0.7540175 8.594005
vt 1.303069 8.594005
vt -0.3209467 6.90219
vt 0.8699982 6.90219
vt -1.623137 13.16651
vt 2.172188 13.16651
vt -0.8241208 8.520065
vt -0.6186829 8.520065
vt -0.3209467 8.520065
vt 0.8699982 8.520065
vt 1.167734 8.520065
vt 1.373172 8.520065
vt 0.4803487 7.076334
vt -0.7105961 7.076334
vt 0.9134196 8.967078
vt -1.143667 8.967078

usemtl yellow

f 3/3/2 2/2/1 1/1/1
f 2/2/1 3/3/2 4/4/2
f 7/7/3 6/6/4 5/5/3
f 6/6/4 7/7/3 8/8/4
f 11/11/5 10/10/5 9/9/5
f 10/10/5 11/11/5 12/12/5
f 10/10/5 12/12/5 13/13/5
f 13/13/5 12/12/5 14/14/5
f 13/13/5 14/14/5 15/15/5
f 15/15/5 14/14/5 16/16/5
f 19/19/7 18/18/6 17/17/6
f 18/18/6 19/19/7 20/20/7
f 6/23/8 22/22/9 21/21/8
f 22/22/9 6/23/8 23/24/9
f 18/27/10 25/26/11 24/25/10
f 25/26/11 18/27/10 20/28/11
f 26/31/12 8/30/13 7/29/12
f 8/30/13 26/31/12 27/32/13
f 28/35/14 26/34/12 7/33/12
f 26/34/12 28/35/14 29/36/14
f 20/39/11 30/38/15 25/37/11
f 30/38/15 20/39/11 31/40/15
f 34/43/16 33/42/16 32/41/16
f 33/42/16 34/43/16 27/44/16
f 33/42/16 27/44/16 35/45/16
f 35/45/16 27/44/16 26/46/16
f 35/45/16 26/46/16 36/47/16
f 36/47/16 26/46/16 29/48/16
f 8/51/4 23/50/17 6/49/4
f 23/50/17 8/51/4 37/52/17
f 38/55/18 29/54/14 28/53/14
f 29/54/14 38/55/18 36/56/18
f 39/59/19 4/58/20 31/57/19
f 4/58/20 39/59/19 38/60/20
f 31/63/15 3/62/2 30/61/15
f 3/62/2 31/63/15 4/64/2
f 25/67/21 12/66/22 11/65/21
f 12/66/22 25/67/21 30/68/22
f 33/71/23 39/70/24 19/69/23
f 39/70/24 33/71/23 35/72/24
f 25/75/21 9/74/25 24/73/25
f 9/74/25 25/75/21 11/76/21
f 33/79/23 17/78/26 32/77/26
f 17/78/26 33/79/23 19/80/23
f 27/83/13 37/82/27 8/81/13
f 37/82/27 27/83/13 34/84/27
f 37/87/17 18/86/6 23/85/17
f 18/86/6 37/87/17 17/88/6
f 19/91/7 31/90/19 20/89/7
f 31/90/19 19/91/7 39/92/19
f 21/95/28 10/94/29 13/93/28
f 10/94/29 21/95/28 22/96/29
f 34/99/27 17/98/26 37/97/27
f 17/98/26 34/99/27 32/100/26
f 5/103/30 21/102/8 40/101/30
f 21/102/8 5/103/30 6/104/8
f 2/107/31 38/106/20 28/105/31
f 38/106/20 2/107/31 4/108/20
f 30/111/22 14/110/32 12/109/22
f 14/110/32 30/111/22 3/112/32
f 24/115/25 10/114/29 22/113/29
f 10/114/29 24/115/25 9/116/25
f 35/119/24 38/118/18 39/117/24
f 38/118/18 35/119/24 36/120/18
f 2/123/31 7/122/3 5/121/3
f 7/122/3 2/123/31 28/124/31
f 18/127/10 22/126/9 23/125/9
f 22/126/9 18/127/10 24/128/10
f 14/131/32 1/130/33 16/129/33
f 1/130/33 14/131/32 3/132/32
f 40/135/30 2/134/1 5/133/30
f 2/134/1 40/135/30 1/136/1
f 40/139/34 13/138/28 15/137/34
f 13/138/28 40/139/34 21/140/28
f 15/143/34 1/142/33 40/141/34
f 1/142/33 15/143/34 16/144/33

usemtl green

f 43/147/35 42/146/36 41/145/35
f 41/145/37 42/146/38 43/147/37
f 46/150/40 45/149/39 44/148/39
f 44/148/42 45/149/42 46/150/41
f 49/153/44 48/152/44 47/151/43
f 47/151/46 48/152/45 49/153/45
f 52/156/47 51/155/48 50/154/47
f 50/154/49 51/155/50 52/156/49
f 55/159/52 54/158/51 53/157/51
f 53/157/54 54/158/54 55/159/53
f 58/162/56 57/161/55 56/160/55
f 56/160/58 57/161/58 58/162/57
f 61/165/59 60/164/60 59/163/59
f 59/163/61 60/164/62 61/165/61
f 64/168/64 63/167/64 62/166/63
f 62/166/66 63/167/65 64/168/65
f 67/171/68 66/170/67 65/169/67
f 65/169/70 66/170/70 67/171/69
f 70/174/72 69/173/72 68/172/71
f 68/172/74 69/173/73 70/174/73
f 73/177/75 72/176/76 71/175/75
f 71/175/77 72/176/78 73/177/77
f 76/180/80 75/179/79 74/178/79
f 74/178/82 75/179/82 76/180/81
f 79/183/83 78/182/83 77/181/83
f 78/182/83 79/183/83 80/184/83
f 80/184/83 79/183/83 81/185/83
f 81/185/83 79/183/83 82/186/83
f 82/186/83 79/183/83 74/187/79
f 82/186/83 74/187/79 75/188/79
f 77/181/84 78/182/84 79/183/84
f 80/184/84 79/183/84 78/182/84
f 81/185/84 79/183/84 80/184/84
f 82/186/84 79/183/84 81/185/84
f 74/187/82 79/183/84 82/186/84
f 75/188/82 74/187/82 82/186/84
f 59/191/59 83/190/85 61/189/59
f 83/190/85 59/191/59 84/192/85
f 84/192/85 59/191/59 85/193/85
f 85/193/85 59/191/59 86/194/85
f 61/189/61 83/190/86 59/191/61
f 84/192/86 59/191/61 83/190/86
f 85/193/86 59/191/61 84/192/86
f 86/194/86 59/191/61 85/193/86
f 44/197/39 78/196/87 77/195/87
f 78/196/87 44/197/39 80/198/87
f 80/198/87 44/197/39 81/199/87
f 81/199/87 44/197/39 45/200/39
f 77/195/88 78/196/88 44/197/42
f 80/198/88 44/197/42 78/196/88
f 81/199/88 44/197/42 80/198/88
f 45/200/42 44/197/42 81/199/88
f 87/203/89 65/202/67 66/201/67
f 65/202/67 87/203/89 88/204/89
f 65/202/67 88/204/89 89/205/89
f 65/202/67 89/205/89 90/206/89
f 66/201/70 65/202/70 87/203/90
f 88/204/90 87/203/90 65/202/70
f 89/205/90 88/204/90 65/202/70
f 90/206/90 89/205/90 65/202/70
f 70/209/72 91/208/91 69/207/72
f 91/208/91 70/209/72 92/210/91
f 69/207/73 91/208/92 70/209/73
f 92/210/92 70/209/73 91/208/92
f 48/213/44 91/212/93 93/211/93
f 91/212/93 48/213/44 92/214/93
f 92/214/93 48/213/44 94/215/93
f 94/215/93 48/213/44 49/216/44
f 93/211/94 91/212/94 48/213/45
f 92/214/94 48/213/45 91/212/94
f 94/215/94 48/213/45 92/214/94
f 49/216/45 48/213/45 94/215/94
f 64/219/64 82/218/95 63/217/64
f 82/218/95 64/219/64 83/220/95
f 83/220/95 64/219/64 84/221/95
f 84/221/95 64/219/64 85/222/95
f 85/222/95 64/219/64 86/223/95
f 86/223/95 64/219/64 95/224/95
f 63/217/65 82/218/96 64/219/65
f 83/220/96 64/219/65 82/218/96
f 84/221/96 64/219/65 83/220/96
f 85/222/96 64/219/65 84/221/96
f 86/223/96 64/219/65 85/222/96
f 95/224/96 64/219/65 86/223/96
f 95/227/97 91/226/97 93/225/97
f 91/226/97 95/227/97 92/228/97
f 92/228/97 95/227/97 94/229/97
f 94/229/97 95/227/97 96/230/97
f 96/230/97 95/227/97 56/231/55
f 96/230/97 56/231/55 57/232/55
f 93/225/98 91/226/98 95/227/98
f 92/228/98 95/227/98 91/226/98
f 94/229/98 95/227/98 92/228/98
f 96/230/98 95/227/98 94/229/98
f 56/231/58 95/227/98 96/230/98
f 57/232/58 56/231/58 96/230/98
f 85/235/99 73/234/75 71/233/75
f 73/234/75 85/235/99 84/236/99
f 71/233/77 73/234/77 85/235/100
f 84/236/100 85/235/100 73/234/77
f 88/239/101 53/238/51 54/237/51
f 53/238/51 88/239/101 89/240/101
f 54/237/54 53/238/54 88/239/102
f 89/240/102 88/239/102 53/238/54
f 79/243/103 52/242/47 50/241/47
f 52/242/47 79/243/103 87/244/103
f 52/242/47 87/244/103 88/245/103
f 52/242/47 88/245/103 89/246/103
f 52/242/47 89/246/103 90/247/103
f 52/242/47 90/247/103 96/248/103
f 50/241/49 52/242/49 79/243/104
f 87/244/104 79/243/104 52/242/49
f 88/245/104 87/244/104 52/242/49
f 89/246/104 88/245/104 52/242/49
f 90/247/104 89/246/104 52/242/49
f 96/248/104 90/247/104 52/242/49
f 43/251/35 80/250/105 78/249/105
f 80/250/105 43/251/35 41/252/35
f 78/249/106 80/250/106 43/251/37
f 41/252/37 43/251/37 80/250/106

