# Created by Kenney (www.kenney.nl)

mtllib pizzaCutter.mtl

g pizzaCutter

v -0.129155 0 0.0114
v -0.129155 0 -0.0114
v -0.1519549 0 0.0114
v -0.1519549 0 -0.0114
v 0.02109705 0.0456 -0.0214
v 0.02109705 0.0456 0.0214
v -0.129155 0.0456 -0.0114
v -0.129155 0.0456 0.0114
v -0.1519549 0.0456 -0.0114
v -0.1519549 0.0456 0.0114
v -0.1519549 0.038 -0.0114
v -0.1519549 0.038 0.0114
v -0.129155 0.038 -0.0114
v -0.129155 0.038 0.0114
v -0.1519549 0.0076 -0.0114
v -0.129155 0.0076 -0.0114
v -0.1519549 0.0076 0.0114
v -0.129155 0.0076 0.0114
v -0.2393549 0.0076 5.775291E-15
v -0.2104171 0.0076 0.06986215
v -0.2104171 0.0076 -0.06986215
v -0.1405549 0.0076 -0.0988
v -0.1405549 0.0076 0.0988
v -0.0706928 0.0076 0.06986215
v -0.0706928 0.0076 -0.06986215
v -0.04175495 0.0076 5.775291E-15
v -0.04175495 0.038 5.775291E-15
v -0.0706928 0.038 0.06986215
v -0.0706928 0.038 -0.06986215
v -0.1405549 0.038 -0.0988
v -0.1405549 0.038 0.0988
v -0.2104171 0.038 -0.06986215
v -0.2104171 0.038 0.06986215
v -0.2393549 0.038 5.775291E-15
v 0.242807 0.0556 -0.03248807
v 0.268007 0.0556 7.219114E-15
v 0.242807 0.0556 0.03248807
v 0.242807 0.0356 0.03248807
v 0.268007 0.0356 7.219114E-15
v 0.242807 0.0356 -0.03248807
v 0.02109705 0.0378 -0.0253407
v 0.02109705 0.0534 -0.0253407
v 0.02109705 0.0378 0.0253407
v 0.02109705 0.0534 0.0253407
v -0.2306771 0.0228 -0.09012218
v -0.268007 0.0228 -2.887646E-15
v -0.1405549 0.0228 0.127452
v -0.2306771 0.0228 0.09012218
v -0.01310295 0.0228 -2.887646E-15
v -0.05043278 0.0228 0.09012218
v -0.05043278 0.0228 -0.09012218
v -0.1405549 0.0228 -0.127452

vn 0 -1 0
vn 0 1 0
vn -1 0 0
vn 1 0 0
vn 0 0 1
vn 0 0 -1
vn -0.006944669 0.9999759 0
vn -0.006944669 -0.9999759 0
vn 0.7901589 0 -0.612902
vn -0.03222078 0 -0.9994808
vn -0.009922388 -0.9999508 0
vn -0.009922388 0.9999508 0
vn -0.03222078 0 0.9994808
vn 0.7901589 0 0.612902
vn -0.3313794 0.8833886 -0.3313794
vn -0.4686412 0.8833886 0
vn -0.3313794 -0.8833886 -0.3313794
vn -0.4686412 -0.8833886 0
vn 0 -0.8833886 0.4686412
vn -0.3313794 -0.8833886 0.3313794
vn 0 0.8833886 0.4686412
vn -0.3313794 0.8833886 0.3313794
vn 0.4686412 0.8833886 0
vn 0.3313794 0.8833886 0.3313794
vn 0.3313794 0.8833886 -0.3313794
vn 0 0.8833886 -0.4686412
vn 0.3313794 -0.8833886 -0.3313794
vn 0 -0.8833886 -0.4686412
vn 0.4686412 -0.8833886 0
vn 0.3313794 -0.8833886 0.3313794

vt -5.084841 0.4488189
vt -5.084841 -0.4488189
vt -5.982479 0.4488189
vt -5.982479 -0.4488189
vt -0.8305925 -0.8425197
vt -0.8305925 0.8425197
vt 5.084841 -0.4488189
vt 5.084841 0.4488189
vt 5.982479 -0.4488189
vt 5.982479 0.4488189
vt -0.4488189 1.496063
vt -0.4488189 1.795276
vt 0.4488189 1.496063
vt 0.4488189 1.795276
vt -5.084841 1.496063
vt -5.982479 1.496063
vt -5.084841 1.795276
vt -5.982479 1.795276
vt 5.982479 1.496063
vt 5.084841 1.496063
vt 5.982479 1.795276
vt 5.084841 1.795276
vt 5.982479 0
vt 5.084841 0
vt 5.982479 0.2992126
vt 5.084841 0.2992126
vt -0.4488189 0
vt -0.4488189 0.2992126
vt 0.4488189 0
vt 0.4488189 0.2992126
vt -5.084841 0
vt -5.982479 0
vt -5.084841 0.2992126
vt -5.982479 0.2992126
vt -9.423423 2.273737E-13
vt -8.284138 2.750478
vt -8.284138 -2.750478
vt -5.533659 -3.889764
vt -5.533659 3.889764
vt -2.783181 2.750478
vt -2.783181 -2.750478
vt -1.643896 2.273737E-13
vt 1.643896 2.273737E-13
vt 2.783181 2.750478
vt 2.783181 -2.750478
vt 5.533659 -3.889764
vt 5.533659 3.889764
vt 8.284138 -2.750478
vt 8.284138 2.750478
vt 9.423423 2.273737E-13
vt -9.559329 -1.279058
vt -10.55145 2.842171E-13
vt -9.559329 1.279058
vt 9.559329 1.279058
vt 10.55145 2.842171E-13
vt 9.559329 -1.279058
vt -4.848273 2.188976
vt -4.848273 1.401575
vt -6.467008 2.188976
vt -6.467008 1.401575
vt -0.9976652 1.488189
vt -0.9976652 2.102362
vt 0.9976652 1.488189
vt 0.9976652 2.102362
vt -9.595577 1.401575
vt -9.595577 2.188976
vt -0.8623068 1.488189
vt -0.8623068 2.102362
vt 1.279058 -9.544951
vt -1.279058 -9.544951
vt 0.9976652 -0.8157852
vt -0.9976652 -0.8157852
vt -1.279058 9.580578
vt 1.279058 9.580578
vt -0.9976652 0.8514121
vt 0.9976652 0.8514121
vt 9.595577 1.401575
vt 0.8623068 1.488189
vt 9.595577 2.188976
vt 0.8623068 2.102362
vt 6.467008 2.188976
vt 6.467008 1.401575
vt 4.848273 2.188976
vt 4.848273 1.401575

usemtl white

f 3/3/1 2/2/1 1/1/1
f 2/2/1 3/3/1 4/4/1
f 7/7/2 6/6/2 5/5/2
f 6/6/2 7/7/2 8/8/2
f 9/9/2 8/8/2 7/7/2
f 8/8/2 9/9/2 10/10/2
f 5/5/1 6/6/1 7/7/1
f 8/8/1 7/7/1 6/6/1
f 12/13/3 9/12/3 11/11/3
f 9/12/3 12/13/3 10/14/3
f 8/12/4 13/13/4 7/14/4
f 13/13/4 8/12/4 14/11/4
f 8/17/5 12/16/5 14/15/5
f 12/16/5 8/17/5 10/18/5
f 9/21/6 13/20/6 11/19/6
f 13/20/6 9/21/6 7/22/6
f 15/25/6 2/24/6 4/23/6
f 2/24/6 15/25/6 16/26/6
f 3/29/3 15/28/3 4/27/3
f 15/28/3 3/29/3 17/30/3
f 18/28/4 2/29/4 16/30/4
f 2/29/4 18/28/4 1/27/4
f 18/33/5 3/32/5 1/31/5
f 3/32/5 18/33/5 17/34/5

usemtl greyLight

f 21/37/1 20/36/1 19/35/1
f 15/4/1 20/36/1 21/37/1
f 22/38/1 15/4/1 21/37/1
f 17/3/1 20/36/1 15/4/1
f 17/3/1 23/39/1 20/36/1
f 18/1/1 23/39/1 17/3/1
f 23/39/1 18/1/1 24/40/1
f 22/38/1 16/2/1 15/4/1
f 16/2/1 24/40/1 18/1/1
f 22/38/1 24/40/1 16/2/1
f 25/41/1 24/40/1 22/38/1
f 24/40/1 25/41/1 26/42/1
f 29/45/2 28/44/2 27/43/2
f 28/44/2 29/45/2 30/46/2
f 28/44/2 30/46/2 13/7/2
f 13/7/2 30/46/2 11/9/2
f 14/8/2 28/44/2 13/7/2
f 28/44/2 14/8/2 31/47/2
f 11/9/2 30/46/2 32/48/2
f 31/47/2 14/8/2 12/10/2
f 11/9/2 32/48/2 12/10/2
f 31/47/2 12/10/2 33/49/2
f 33/49/2 12/10/2 32/48/2
f 33/49/2 32/48/2 34/50/2

usemtl brown

f 37/53/7 36/52/2 35/51/7
f 40/56/8 39/55/1 38/54/8
f 36/59/4 40/58/9 35/57/9
f 40/58/9 36/59/4 39/60/4
f 43/63/3 42/62/3 41/61/3
f 42/62/3 43/63/3 44/64/3
f 41/67/10 35/66/10 40/65/10
f 35/66/10 41/67/10 42/68/10
f 43/71/11 40/70/8 38/69/8
f 40/70/8 43/71/11 41/72/11
f 42/75/12 37/74/7 35/73/7
f 37/74/7 42/75/12 44/76/12
f 37/79/13 43/78/13 38/77/13
f 43/78/13 37/79/13 44/80/13
f 37/83/14 39/82/4 36/81/4
f 39/82/4 37/83/14 38/84/14

usemtl _defaultMat

f 45/32/15 34/33/16 32/34/15
f 34/32/16 45/33/15 46/34/16
f 19/32/18 45/33/17 21/34/17
f 45/32/17 19/33/18 46/34/18
f 47/32/19 20/33/20 23/34/19
f 20/32/20 47/33/19 48/34/20
f 33/32/22 47/33/21 31/34/21
f 47/32/21 33/33/22 48/34/22
f 27/32/23 50/33/24 49/34/23
f 50/32/24 27/33/23 28/34/24
f 52/49/26 29/48/25 51/50/25
f 52/49/26 32/48/15 30/50/26
f 29/49/25 52/48/26 30/50/26
f 32/49/15 52/48/26 45/50/15
f 25/49/27 52/48/28 51/50/27
f 21/49/17 52/48/28 22/50/28
f 52/49/28 25/48/27 22/50/28
f 52/49/28 21/48/17 45/50/17
f 50/49/30 26/48/29 49/50/29
f 26/49/29 50/48/30 24/50/30
f 51/49/25 27/48/23 49/50/23
f 27/49/23 51/48/25 29/50/25
f 28/49/24 47/48/21 50/50/24
f 47/49/21 28/48/24 31/50/21
f 34/49/16 48/48/22 33/50/22
f 48/49/22 34/48/16 46/50/16
f 48/49/20 19/48/18 20/50/20
f 19/49/18 48/48/20 46/50/18
f 26/49/29 51/48/27 49/50/29
f 51/49/27 26/48/29 25/50/27
f 47/49/19 24/48/30 50/50/30
f 24/49/30 47/48/19 23/50/19

