# Created by Kenney (www.kenney.nl)

mtllib plate.mtl

g plate

v 0.3441 0 0
v 0.2979994 0 -0.17205
v 0.2979994 0 0.17205
v 0.17205 0 -0.2979994
v 0.17205 0 0.2979994
v -1.804779E-15 0 0.3441
v -1.804779E-15 0 -0.3441
v -0.17205 0 0.2979994
v -0.17205 0 -0.2979994
v -0.2979994 0 -0.17205
v -0.2979994 0 0.17205
v -0.3441 0 0
v 0.257508 0.05 7.219114E-16
v 0.2230084 0.05 0.128754
v 0.2230084 0.05 -0.128754
v 0.128754 0.05 -0.2230084
v 0.128754 0.05 0.2230084
v -3.248601E-15 0.05 -0.257508
v -3.248601E-15 0.05 0.257508
v -0.128754 0.05 -0.2230084
v -0.128754 0.05 0.2230084
v -0.2230084 0.05 -0.128754
v -0.2230084 0.05 0.128754
v -0.257508 0.05 7.219114E-16
v 0.445887 0.09 7.219114E-16
v 0.3861495 0.09 0.2229435
v 0.3861495 0.09 -0.2229435
v 0.3840031 0.09 7.219114E-16
v 0.3325564 0.09 -0.1920015
v 0.3325564 0.09 0.1920015
v 0.2229435 0.09 -0.3861495
v 0.2229435 0.09 0.3861495
v 0.1920015 0.09 -0.3325564
v 0.1920015 0.09 0.3325564
v 3.609557E-16 0.09 -0.445887
v 3.609557E-16 0.09 0.445887
v 0 0.09 -0.3840031
v 0 0.09 0.3840031
v -0.2229435 0.09 -0.3861495
v -0.1920015 0.09 -0.3325564
v -0.3325564 0.09 -0.1920015
v -0.2229435 0.09 0.3861495
v -0.1920015 0.09 0.3325564
v -0.3325564 0.09 0.1920015
v -0.3861495 0.09 -0.2229435
v -0.3861495 0.09 0.2229435
v -0.3840031 0.09 7.219114E-16
v -0.445887 0.09 7.219114E-16
v -0.185 0.02 0.3204294
v -0.2229435 0.06 0.3861495
v -3.609557E-16 0.02 0.37
v -0.3204294 0.02 0.185
v 3.609557E-16 0.06 0.445887
v -0.3861495 0.06 0.2229435
v 0.185 0.02 0.3204294
v 0.2229435 0.06 0.3861495
v 0.3204294 0.02 0.185
v 0.3861495 0.06 0.2229435
v -0.37 0.02 7.219114E-16
v -0.445887 0.06 7.219114E-16
v -0.3861495 0.06 -0.2229435
v -0.3204294 0.02 -0.185
v 0.37 0.02 7.219114E-16
v 0.445887 0.06 7.219114E-16
v 0.3861495 0.06 -0.2229435
v 0.3204294 0.02 -0.185
v 0.2229435 0.06 -0.3861495
v 0.185 0.02 -0.3204294
v 3.609557E-16 0.06 -0.445887
v -3.609557E-16 0.02 -0.37
v -0.2229435 0.06 -0.3861495
v -0.185 0.02 -0.3204294

vn 0 -1 0
vn 0 1 0
vn -0.2331446 -0.8846323 0.4038183
vn 0 -0.8846323 0.4662892
vn -0.4038183 -0.8846323 0.2331446
vn 0.2331446 -0.8846323 0.4038183
vn 0.4038183 -0.8846323 0.2331446
vn -0.4662892 -0.8846323 0
vn -0.4038183 -0.8846323 -0.2331446
vn 0.4662892 -0.8846323 0
vn 0.4038183 -0.8846323 -0.2331446
vn 0.2331446 -0.8846323 -0.4038183
vn 0 -0.8846323 -0.4662892
vn -0.2331446 -0.8846323 -0.4038183
vn -0.8660254 0 0.5
vn -1 0 0
vn -0.5 0 0.8660254
vn -0.8660254 0 -0.5
vn 0 0 1
vn 0.5 0 0.8660254
vn -0.5 0 -0.8660254
vn 0 0 -1
vn 0.8660254 0 0.5
vn 1 0 0
vn 0.8660254 0 -0.5
vn 0.5 0 -0.8660254
vn 0.1507513 0.9534653 -0.261109
vn 0 0.9534653 -0.3015026
vn 0.261109 0.9534653 -0.1507513
vn -0.1507513 0.9534653 -0.261109
vn -0.261109 0.9534653 -0.1507513
vn 0.3015026 0.9534653 0
vn 0.261109 0.9534653 0.1507513
vn -0.3015026 0.9534653 0
vn -0.261109 0.9534653 0.1507513
vn -0.1507513 0.9534653 0.261109
vn 0 0.9534653 0.3015026
vn 0.1507513 0.9534653 0.261109
vn 0.6111866 -0.7914866 0
vn 0.5293031 -0.7914866 -0.3055933
vn 0.5293031 -0.7914866 0.3055933
vn 0.3055933 -0.7914866 -0.5293031
vn 0.3055933 -0.7914866 0.5293031
vn 0 -0.7914866 -0.6111866
vn 0 -0.7914866 0.6111866
vn -0.3055933 -0.7914866 -0.5293031
vn -0.5293031 -0.7914866 -0.3055933
vn -0.3055933 -0.7914866 0.5293031
vn -0.5293031 -0.7914866 0.3055933
vn -0.6111866 -0.7914866 0

vt 0 0

usemtl _defaultMat

f 3/1/1 2/1/1 1/1/1
f 2/1/1 3/1/1 4/1/1
f 4/1/1 3/1/1 5/1/1
f 4/1/1 5/1/1 6/1/1
f 4/1/1 6/1/1 7/1/1
f 7/1/1 6/1/1 8/1/1
f 7/1/1 8/1/1 9/1/1
f 9/1/1 8/1/1 10/1/1
f 10/1/1 8/1/1 11/1/1
f 10/1/1 11/1/1 12/1/1
f 15/1/2 14/1/2 13/1/2
f 14/1/2 15/1/2 16/1/2
f 14/1/2 16/1/2 17/1/2
f 17/1/2 16/1/2 18/1/2
f 17/1/2 18/1/2 19/1/2
f 19/1/2 18/1/2 20/1/2
f 19/1/2 20/1/2 21/1/2
f 21/1/2 20/1/2 22/1/2
f 21/1/2 22/1/2 23/1/2
f 23/1/2 22/1/2 24/1/2
f 27/1/2 26/1/2 25/1/2
f 26/1/2 27/1/2 28/1/2
f 28/1/2 27/1/2 29/1/2
f 30/1/2 26/1/2 28/1/2
f 29/1/2 27/1/2 31/1/2
f 26/1/2 30/1/2 32/1/2
f 29/1/2 31/1/2 33/1/2
f 32/1/2 30/1/2 34/1/2
f 33/1/2 31/1/2 35/1/2
f 32/1/2 34/1/2 36/1/2
f 33/1/2 35/1/2 37/1/2
f 36/1/2 34/1/2 38/1/2
f 37/1/2 35/1/2 39/1/2
f 37/1/2 39/1/2 40/1/2
f 40/1/2 39/1/2 41/1/2
f 36/1/2 38/1/2 42/1/2
f 42/1/2 38/1/2 43/1/2
f 42/1/2 43/1/2 44/1/2
f 41/1/2 39/1/2 45/1/2
f 42/1/2 44/1/2 46/1/2
f 41/1/2 45/1/2 47/1/2
f 46/1/2 44/1/2 47/1/2
f 46/1/2 47/1/2 45/1/2
f 46/1/2 45/1/2 48/1/2
f 51/1/4 50/1/3 49/1/3
f 50/1/3 52/1/5 49/1/3
f 50/1/3 51/1/4 53/1/4
f 52/1/5 50/1/3 54/1/5
f 55/1/6 53/1/4 51/1/4
f 53/1/4 55/1/6 56/1/6
f 57/1/7 56/1/6 55/1/6
f 56/1/6 57/1/7 58/1/7
f 54/1/5 59/1/8 52/1/5
f 59/1/8 54/1/5 60/1/8
f 61/1/9 59/1/8 60/1/8
f 59/1/8 61/1/9 62/1/9
f 63/1/10 58/1/7 57/1/7
f 58/1/7 63/1/10 64/1/10
f 63/1/10 65/1/11 64/1/10
f 65/1/11 63/1/10 66/1/11
f 66/1/11 67/1/12 65/1/11
f 67/1/12 66/1/11 68/1/12
f 68/1/12 69/1/13 67/1/12
f 69/1/13 68/1/12 70/1/13
f 71/1/14 62/1/9 61/1/9
f 70/1/13 71/1/14 69/1/13
f 62/1/9 71/1/14 72/1/14
f 71/1/14 70/1/13 72/1/14
f 48/1/16 54/1/15 46/1/15
f 54/1/15 42/1/17 46/1/15
f 54/1/15 48/1/16 60/1/16
f 42/1/17 54/1/15 50/1/17
f 45/1/18 60/1/16 48/1/16
f 50/1/17 36/1/19 42/1/17
f 60/1/16 45/1/18 61/1/18
f 36/1/19 50/1/17 53/1/19
f 53/1/19 32/1/20 36/1/19
f 32/1/20 53/1/19 56/1/20
f 39/1/21 61/1/18 45/1/18
f 61/1/18 39/1/21 71/1/21
f 39/1/21 69/1/22 71/1/21
f 69/1/22 39/1/21 35/1/22
f 56/1/20 26/1/23 32/1/20
f 26/1/23 56/1/20 58/1/23
f 64/1/24 26/1/23 58/1/23
f 26/1/23 64/1/24 25/1/24
f 65/1/25 25/1/24 64/1/24
f 25/1/24 65/1/25 27/1/25
f 35/1/22 67/1/26 69/1/22
f 67/1/26 27/1/25 65/1/25
f 67/1/26 35/1/22 31/1/26
f 27/1/25 67/1/26 31/1/26
f 43/1/27 19/1/28 21/1/27
f 23/1/29 43/1/27 21/1/27
f 19/1/28 43/1/27 38/1/28
f 43/1/27 23/1/29 44/1/29
f 38/1/28 17/1/30 19/1/28
f 17/1/30 38/1/28 34/1/30
f 34/1/30 14/1/31 17/1/30
f 14/1/31 34/1/30 30/1/31
f 24/1/32 44/1/29 23/1/29
f 44/1/29 24/1/32 47/1/32
f 24/1/32 41/1/33 47/1/32
f 41/1/33 24/1/32 22/1/33
f 30/1/31 13/1/34 14/1/31
f 13/1/34 30/1/31 28/1/34
f 29/1/35 13/1/34 28/1/34
f 13/1/34 29/1/35 15/1/35
f 33/1/36 15/1/35 29/1/35
f 15/1/35 33/1/36 16/1/36
f 37/1/37 16/1/36 33/1/36
f 16/1/36 37/1/37 18/1/37
f 22/1/33 40/1/38 41/1/33
f 40/1/38 18/1/37 37/1/37
f 40/1/38 22/1/33 20/1/38
f 18/1/37 40/1/38 20/1/38
f 1/1/39 66/1/40 63/1/39
f 57/1/41 1/1/39 63/1/39
f 66/1/40 1/1/39 2/1/40
f 1/1/39 57/1/41 3/1/41
f 2/1/40 68/1/42 66/1/40
f 55/1/43 3/1/41 57/1/41
f 68/1/42 2/1/40 4/1/42
f 3/1/41 55/1/43 5/1/43
f 4/1/42 70/1/44 68/1/42
f 51/1/45 5/1/43 55/1/43
f 70/1/44 4/1/42 7/1/44
f 5/1/43 51/1/45 6/1/45
f 7/1/44 72/1/46 70/1/44
f 72/1/46 7/1/44 9/1/46
f 10/1/47 72/1/46 9/1/46
f 72/1/46 10/1/47 62/1/47
f 49/1/48 6/1/45 51/1/45
f 6/1/45 49/1/48 8/1/48
f 49/1/48 11/1/49 8/1/48
f 11/1/49 49/1/48 52/1/49
f 12/1/50 62/1/47 10/1/47
f 52/1/49 12/1/50 11/1/49
f 62/1/47 12/1/50 59/1/50
f 12/1/50 52/1/49 59/1/50

