# Created by Kenney (www.kenney.nl)

mtllib pot.mtl

g pot

v -0.2659439 0.0328 -0.1932196
v -0.2659439 0.3608 -0.1932196
v -0.3287247 0.0328 0
v -0.3287247 0.3608 0
v 0.0833666 0 -0.256576
v 0.2182566 0 -0.1585727
v 0.0883686 0.0328 -0.2719706
v 0.231352 0.0328 -0.1680871
v 0.2859668 0.0328 0
v 0.26978 0 0
v 0.2659439 0.0328 0.1932196
v 0.1015815 0.0328 0.3126358
v 0.2659439 0.3608 0.1932196
v 0.1015815 0.3608 0.3126358
v -0.2659439 0.0328 0.1932196
v -0.2659439 0.3608 0.1932196
v -0.1015815 0.0328 0.3126358
v -0.1015815 0.3608 0.3126358
v -0.0833666 0 -0.256576
v -0.0883686 0.0328 -0.2719706
v 0.2182566 0 0.1585727
v 0.0833666 0 0.256576
v 0.231352 0.0328 0.1680871
v 0.0883686 0.0328 0.2719706
v -0.0833666 0 0.256576
v -0.2182566 0 0.1585727
v -0.2182566 0 -0.1585727
v -0.26978 0 0
v -0.231352 0.0328 -0.1680871
v -0.2859668 0.0328 0
v -0.1015815 0.0328 -0.3126358
v -0.1015815 0.3608 -0.3126358
v 0.3287247 0.3608 0
v 0.3287247 0.0328 0
v -0.231352 0.0328 0.1680871
v -0.0883686 0.0328 0.2719706
v 0.1015815 0.0328 -0.3126358
v 0.2659439 0.0328 -0.1932196
v 0.1015815 0.3608 -0.3126358
v 0.2659439 0.3608 -0.1932196
v 0.2859668 0.0574 0
v 0.231352 0.0574 0.1680871
v 0.231352 0.0574 -0.1680871
v 0.0883686 0.0574 -0.2719706
v 0.0883686 0.0574 0.2719706
v -0.0883686 0.0574 -0.2719706
v -0.0883686 0.0574 0.2719706
v -0.231352 0.0574 -0.1680871
v -0.231352 0.0574 0.1680871
v -0.2859668 0.0574 0
v -0.231352 0.3444 -0.1680871
v -0.2859668 0.3444 0
v -0.0883686 0.3444 0.2719706
v -0.231352 0.3444 0.1680871
v 0.2859668 0.3444 0
v 0.231352 0.3444 0.1680871
v 0.231352 0.3444 -0.1680871
v 0.0883686 0.3444 -0.2719706
v 0.0883686 0.3444 0.2719706
v -0.0883686 0.3444 -0.2719706
v 0.08518153 0.3444 0.3126358
v 0.08518153 0.3052557 0.3126358
v 0.05754291 0.3444 0.3126358
v -0.08518153 0.3052557 0.3126358
v 0.05754291 0.3052557 0.3126358
v -0.05754291 0.3052557 0.3126358
v -0.08518153 0.3444 0.3126358
v -0.05754291 0.3444 0.3126358
v -0.08518153 0.3444 -0.3126358
v -0.08518153 0.3052557 -0.3126358
v -0.05754291 0.3444 -0.3126358
v 0.08518153 0.3052557 -0.3126358
v -0.05754291 0.3052557 -0.3126358
v 0.05754291 0.3052557 -0.3126358
v 0.08518153 0.3444 -0.3126358
v 0.05754291 0.3444 -0.3126358
v -0.08518153 0.3052557 0.3773721
v -0.08518153 0.3444 0.3773721
v -0.07532165 0.3052557 0.4011759
v -0.07532165 0.3444 0.4011759
v 0.07532165 0.3052557 0.4011759
v 0.0515178 0.3052557 0.4110358
v 0.07532165 0.3444 0.4011759
v 0.0515178 0.3444 0.4110358
v 0.08518153 0.3444 0.3773721
v 0.08518153 0.3052557 0.3773721
v 0.05754291 0.3052557 0.3764673
v 0.05573627 0.3052557 0.3815905
v 0.05061301 0.3052557 0.3833972
v -0.0515178 0.3052557 0.4110358
v -0.05061301 0.3052557 0.3833972
v -0.05573627 0.3052557 0.3815905
v -0.05754291 0.3052557 0.3764673
v 0.05754291 0.3444 0.3764673
v 0.05573627 0.3444 0.3815905
v -0.05754291 0.3444 0.3764673
v -0.05573627 0.3444 0.3815905
v 0.05061301 0.3444 0.3833972
v -0.0515178 0.3444 0.4110358
v -0.05061301 0.3444 0.3833972
v -0.05573627 0.3444 -0.3815905
v -0.05573627 0.3052557 -0.3815905
v -0.05754291 0.3444 -0.3764673
v -0.05754291 0.3052557 -0.3764673
v 0.05061301 0.3052557 -0.3833972
v -0.05061301 0.3052557 -0.3833972
v 0.05061301 0.3444 -0.3833972
v -0.05061301 0.3444 -0.3833972
v 0.05573627 0.3052557 -0.3815905
v 0.05573627 0.3444 -0.3815905
v 0.05754291 0.3052557 -0.3764673
v 0.05754291 0.3444 -0.3764673
v 0.07532165 0.3444 -0.4011759
v 0.0515178 0.3444 -0.4110358
v -0.0515178 0.3444 -0.4110358
v -0.07532165 0.3444 -0.4011759
v -0.08518153 0.3444 -0.3773721
v 0.08518153 0.3444 -0.3773721
v 0.08518153 0.3052557 -0.3773721
v 0.07532165 0.3052557 -0.4011759
v 0.0515178 0.3052557 -0.4110358
v -0.0515178 0.3052557 -0.4110358
v -0.07532165 0.3052557 -0.4011759
v -0.08518153 0.3052557 -0.3773721

vn -0.809017 0 -0.5877852
vn -1 0 0
vn 0.27711 -0.4425445 -0.8528567
vn 0.7254832 -0.4425444 -0.5270944
vn 0.8967466 -0.4425444 0
vn 0.809017 0 0.5877852
vn 0.309017 0 0.9510565
vn -0.809017 0 0.5877852
vn -0.309017 0 0.9510565
vn -0.27711 -0.4425445 -0.8528567
vn 0.7254832 -0.4425444 0.5270944
vn 0.27711 -0.4425445 0.8528567
vn 0 -1 0
vn -0.7254832 -0.4425444 -0.5270944
vn -0.8967466 -0.4425444 0
vn -0.309017 0 -0.9510565
vn 1 0 0
vn -0.7254832 -0.4425444 0.5270944
vn -0.27711 -0.4425445 0.8528567
vn 0.309017 0 -0.9510565
vn 0.809017 0 -0.5877852
vn 0 1 0
vn 0.289722 0.9336771 0.2104954
vn 0.3581161 0.9336771 0
vn 0.110664 0.9336771 -0.3405887
vn 0.289722 0.9336771 -0.2104954
vn 0.110664 0.9336771 0.3405887
vn -0.110664 0.9336771 0.3405887
vn -0.289722 0.9336771 0.2104954
vn -0.110664 0.9336771 -0.3405887
vn -0.3581161 0.9336771 0
vn -0.289722 0.9336771 -0.2104954
vn 0 0 1
vn 0 0 -1
vn -0.9238795 0 0.3826834
vn -0.7071068 0 0.7071068
vn 0.7071068 0 0.7071068
vn 0.3826834 0 0.9238795
vn -0.9430804 0 -0.3325646
vn -0.7071068 0 -0.7071068
vn 0.9430804 0 -0.3325646
vn 0.7071068 0 -0.7071068
vn -0.3826834 0 0.9238795
vn -0.3325646 0 -0.9430804
vn 0.9238795 0 0.3826834
vn 0.3325646 0 -0.9430804
vn 0.9430804 0 0.3325646
vn -0.3325646 0 0.9430804
vn -0.9430804 0 0.3325646
vn 0.9238795 0 -0.3826834
vn 0.3325646 0 0.9430804
vn -0.9238795 0 -0.3826834
vn 0.3826834 0 -0.9238795
vn -0.3826834 0 -0.9238795

vt -3.999273 1.291339
vt -3.999273 14.20472
vt 3.999273 1.291339
vt 3.999273 14.20472
vt 3.28215 4.291855
vt -3.28215 4.291855
vt 3.479079 5.718352
vt -3.479079 5.718352
vt 10.62126 0
vt 8.59278 -6.24302
vt 8.59278 6.24302
vt 3.28215 10.10142
vt 3.28215 -10.10142
vt -3.28215 10.10142
vt -3.28215 -10.10142
vt -8.59278 6.24302
vt -8.59278 -6.24302
vt -10.62126 0
vt -11.25854 0
vt -9.108347 6.617601
vt -9.108347 -6.617601
vt -3.479079 -10.7075
vt -3.479079 10.7075
vt 3.479079 -10.7075
vt 3.479079 10.7075
vt 9.108347 -6.617601
vt 9.108347 6.617601
vt 11.25854 0
vt 3.479079 13.55906
vt 3.479079 2.259843
vt -3.479079 13.55906
vt -3.479079 2.259843
vt 3.479079 15.00174
vt -3.479079 15.00174
vt 3.999273 16.72802
vt -3.999273 16.72802
vt 3.353604 13.55906
vt 3.353604 12.01794
vt 2.265469 13.55906
vt -3.353604 12.01794
vt 2.265469 12.01794
vt -2.265469 12.01794
vt -3.353604 13.55906
vt -2.265469 13.55906
vt -3.999273 12.3085
vt 3.999273 12.3085
vt -10.47023 7.607069
vt 10.47023 7.607069
vt -12.94192 0
vt -10.47023 -7.607069
vt 12.94192 0
vt 10.47023 -7.607069
vt 3.999273 -12.3085
vt -3.999273 -12.3085

usemtl greyDark

f 3/3/2 2/2/1 1/1/1
f 2/2/1 3/3/2 4/4/2
f 7/7/3 6/6/4 5/5/3
f 6/6/4 7/7/3 8/8/4
f 9/8/5 6/5/4 8/7/4
f 6/5/4 9/8/5 10/6/5
f 13/4/6 12/1/7 11/3/6
f 12/1/7 13/4/6 14/2/7
f 15/3/8 4/2/2 3/1/2
f 4/2/2 15/3/8 16/4/8
f 18/4/9 15/1/8 17/3/9
f 15/1/8 18/4/9 16/2/8
f 20/7/10 5/6/3 19/5/10
f 5/6/3 20/7/10 7/8/3
f 23/7/11 22/6/12 21/5/11
f 22/6/12 23/7/11 24/8/12
f 21/11/13 6/10/13 10/9/13
f 6/10/13 21/11/13 22/12/13
f 6/10/13 22/12/13 5/13/13
f 5/13/13 22/12/13 25/14/13
f 5/13/13 25/14/13 19/15/13
f 19/15/13 25/14/13 26/16/13
f 19/15/13 26/16/13 27/17/13
f 27/17/13 26/16/13 28/18/13
f 27/6/14 30/7/15 29/8/14
f 30/7/15 27/6/14 28/5/15
f 2/4/1 31/1/16 1/3/1
f 31/1/16 2/4/1 32/2/16
f 13/2/6 34/3/17 33/4/17
f 34/3/17 13/2/6 11/1/6
f 26/5/18 30/8/15 28/6/15
f 30/8/15 26/5/18 35/7/18
f 23/8/11 10/5/5 9/7/5
f 10/5/5 23/8/11 21/6/11
f 29/7/14 19/6/10 27/5/14
f 19/6/10 29/7/14 20/8/10
f 24/7/12 25/6/19 22/5/12
f 25/6/19 24/7/12 36/8/19
f 36/7/19 26/6/18 25/5/19
f 26/6/18 36/7/19 35/8/18
f 39/4/20 38/1/21 37/3/20
f 38/1/21 39/4/20 40/2/21
f 43/21/22 42/20/22 41/19/22
f 42/20/22 43/21/22 44/22/22
f 42/20/22 44/22/22 45/23/22
f 45/23/22 44/22/22 46/24/22
f 45/23/22 46/24/22 47/25/22
f 47/25/22 46/24/22 48/26/22
f 47/25/22 48/26/22 49/27/22
f 49/27/22 48/26/22 50/28/22
f 33/2/17 38/3/21 40/4/21
f 38/3/21 33/2/17 34/1/17
f 52/31/17 48/30/6 51/29/6
f 48/30/6 52/31/17 50/32/17
f 2/35/23 52/34/24 51/33/23
f 52/34/24 2/35/23 4/36/24
f 54/33/26 18/36/25 53/34/25
f 18/36/25 54/33/26 16/35/26
f 42/30/1 55/31/2 41/32/2
f 55/31/2 42/30/1 56/29/1
f 57/29/8 44/32/9 43/30/8
f 44/32/9 57/29/8 58/31/9
f 41/30/2 57/31/8 43/32/8
f 57/31/8 41/30/2 55/29/2
f 53/29/20 45/32/16 47/30/20
f 45/32/16 53/29/20 59/31/16
f 32/35/27 51/34/23 60/33/27
f 51/34/23 32/35/27 2/36/23
f 59/29/16 42/32/1 45/30/16
f 42/32/1 59/29/16 56/31/1
f 60/29/7 48/32/6 46/30/7
f 48/32/6 60/29/7 51/31/6
f 32/36/27 58/33/28 39/35/28
f 58/33/28 32/36/27 60/34/27
f 52/33/24 16/36/26 54/34/26
f 16/36/26 52/33/24 4/35/24
f 58/29/9 46/32/7 44/30/9
f 46/32/7 58/29/9 60/31/7
f 39/36/28 57/33/29 40/35/29
f 57/33/29 39/36/28 58/34/28
f 59/34/30 18/35/25 14/36/30
f 18/35/25 59/34/30 53/33/25
f 40/36/29 55/33/31 33/35/31
f 55/33/31 40/36/29 57/34/29
f 55/34/31 13/35/32 33/36/31
f 13/35/32 55/34/31 56/33/32
f 56/34/32 14/35/30 13/36/32
f 14/35/30 56/34/32 59/33/30
f 54/29/21 47/32/20 49/30/21
f 47/32/20 54/29/21 53/31/20
f 54/31/21 50/30/17 52/29/17
f 50/30/17 54/31/21 49/32/21
f 62/38/33 14/4/7 61/37/33
f 61/37/33 14/4/7 63/39/33
f 62/38/33 12/3/7 14/4/7
f 12/3/7 62/38/33 17/1/9
f 64/40/33 17/1/9 62/38/33
f 64/40/33 62/38/33 65/41/33
f 17/1/9 64/40/33 18/2/9
f 64/40/33 65/41/33 66/42/33
f 63/39/33 66/42/33 65/41/33
f 18/2/9 64/40/33 67/43/33
f 18/2/9 67/43/33 14/4/7
f 66/42/33 63/39/33 68/44/33
f 63/39/33 14/4/7 68/44/33
f 68/44/33 14/4/7 67/43/33
f 70/38/34 32/4/16 69/37/34
f 69/37/34 32/4/16 71/39/34
f 70/38/34 31/3/16 32/4/16
f 31/3/16 70/38/34 37/1/20
f 72/40/34 37/1/20 70/38/34
f 72/40/34 70/38/34 73/41/34
f 37/1/20 72/40/34 39/2/20
f 72/40/34 73/41/34 74/42/34
f 71/39/34 74/42/34 73/41/34
f 39/2/20 72/40/34 75/43/34
f 39/2/20 75/43/34 32/4/16
f 74/42/34 71/39/34 76/44/34
f 71/39/34 32/4/16 76/44/34
f 76/44/34 32/4/16 75/43/34
f 24/25/13 17/45/13 36/23/13
f 36/23/13 17/45/13 35/20/13
f 24/25/13 12/46/13 17/45/13
f 35/20/13 17/45/13 15/47/13
f 23/27/13 12/46/13 24/25/13
f 23/27/13 11/48/13 12/46/13
f 35/20/13 15/47/13 30/19/13
f 30/19/13 15/47/13 3/49/13
f 1/50/13 30/19/13 3/49/13
f 1/50/13 29/21/13 30/19/13
f 9/28/13 11/48/13 23/27/13
f 11/48/13 9/28/13 34/51/13
f 9/28/13 38/52/13 34/51/13
f 38/52/13 9/28/13 8/26/13
f 38/52/13 8/26/13 37/53/13
f 37/53/13 8/26/13 7/24/13
f 31/54/13 29/21/13 1/50/13
f 37/53/13 7/24/13 31/54/13
f 31/54/13 20/22/13 29/21/13
f 31/54/13 7/24/13 20/22/13

usemtl _defaultMat

f 79/30/36 78/31/35 77/32/35
f 78/30/35 79/31/36 80/32/36
f 83/30/37 82/31/38 81/32/37
f 82/30/38 83/31/37 84/32/38
f 85/30/17 62/31/17 61/32/17
f 62/30/17 85/31/17 86/32/17
f 86/30/13 65/31/13 62/32/13
f 65/30/13 86/31/13 81/32/13
f 65/30/13 81/31/13 87/32/13
f 87/30/13 81/31/13 82/32/13
f 87/30/13 82/31/13 88/32/13
f 88/30/13 82/31/13 89/32/13
f 89/30/13 82/31/13 90/32/13
f 89/30/13 90/31/13 91/32/13
f 91/30/13 90/31/13 92/32/13
f 92/30/13 90/31/13 79/32/13
f 92/30/13 79/31/13 93/32/13
f 93/30/13 64/31/13 66/32/13
f 64/30/13 93/31/13 79/32/13
f 64/30/13 79/31/13 77/32/13
f 88/30/40 94/31/39 87/32/39
f 94/30/39 88/31/40 95/32/40
f 97/30/42 93/31/41 96/32/41
f 93/30/41 97/31/42 92/32/42
f 67/30/22 96/31/22 68/32/22
f 96/30/22 67/31/22 80/32/22
f 80/30/22 67/31/22 78/32/22
f 63/30/22 85/31/22 61/32/22
f 85/30/22 63/31/22 83/32/22
f 83/30/22 63/31/22 94/32/22
f 83/30/22 94/31/22 84/32/22
f 84/30/22 94/31/22 95/32/22
f 84/30/22 95/31/22 98/32/22
f 84/30/22 98/31/22 99/32/22
f 99/30/22 98/31/22 100/32/22
f 99/30/22 100/31/22 97/32/22
f 99/30/22 97/31/22 80/32/22
f 80/30/22 97/31/22 96/32/22
f 100/30/34 89/31/34 91/32/34
f 89/30/34 100/31/34 98/32/34
f 99/30/43 79/31/36 90/32/43
f 79/30/36 99/31/43 80/32/36
f 87/30/2 63/31/2 65/32/2
f 63/30/2 87/31/2 94/32/2
f 98/30/44 88/31/40 89/32/44
f 88/30/40 98/31/44 95/32/40
f 96/30/17 66/31/17 68/32/17
f 66/30/17 96/31/17 93/32/17
f 77/30/2 67/31/2 64/32/2
f 67/30/2 77/31/2 78/32/2
f 84/30/33 90/31/33 82/32/33
f 90/30/33 84/31/33 99/32/33
f 83/30/37 86/31/45 85/32/45
f 86/30/45 83/31/37 81/32/37
f 97/30/42 91/31/46 92/32/42
f 91/30/46 97/31/42 100/32/46
f 103/30/47 102/31/37 101/32/37
f 102/30/37 103/31/47 104/32/47
f 107/30/33 106/31/33 105/32/33
f 106/30/33 107/31/33 108/32/33
f 110/30/36 105/31/48 109/32/36
f 105/30/48 110/31/36 107/32/48
f 111/30/49 110/31/36 109/32/36
f 110/30/36 111/31/49 112/32/49
f 74/30/2 112/31/2 111/32/2
f 112/30/2 74/31/2 76/32/2
f 114/30/22 112/31/22 113/32/22
f 112/30/22 114/31/22 110/32/22
f 110/30/22 114/31/22 107/32/22
f 107/30/22 114/31/22 115/32/22
f 107/30/22 115/31/22 108/32/22
f 108/30/22 115/31/22 101/32/22
f 101/30/22 115/31/22 116/32/22
f 101/30/22 116/31/22 103/32/22
f 103/30/22 116/31/22 71/32/22
f 71/30/22 116/31/22 69/32/22
f 69/30/22 116/31/22 117/32/22
f 113/30/22 75/31/22 118/32/22
f 75/30/22 113/31/22 76/32/22
f 76/30/22 113/31/22 112/32/22
f 75/30/17 119/31/17 118/32/17
f 119/30/17 75/31/17 72/32/17
f 118/30/50 120/31/42 113/32/42
f 120/30/42 118/31/50 119/32/50
f 72/30/13 120/31/13 119/32/13
f 120/30/13 72/31/13 74/32/13
f 120/30/13 74/31/13 111/32/13
f 111/30/13 121/31/13 120/32/13
f 121/30/13 111/31/13 109/32/13
f 121/30/13 109/31/13 105/32/13
f 121/30/13 105/31/13 122/32/13
f 122/30/13 105/31/13 106/32/13
f 122/30/13 106/31/13 102/32/13
f 122/30/13 102/31/13 123/32/13
f 123/30/13 102/31/13 104/32/13
f 123/30/13 104/31/13 73/32/13
f 123/30/13 73/31/13 70/32/13
f 123/30/13 70/31/13 124/32/13
f 108/30/51 102/31/37 106/32/51
f 102/30/37 108/31/51 101/32/37
f 115/30/34 121/31/34 122/32/34
f 121/30/34 115/31/34 114/32/34
f 124/30/52 116/31/40 123/32/40
f 116/30/40 124/31/52 117/32/52
f 114/30/53 120/31/42 121/32/53
f 120/30/42 114/31/53 113/32/42
f 116/30/40 122/31/54 123/32/40
f 122/30/54 116/31/40 115/32/54
f 71/30/17 104/31/17 103/32/17
f 104/30/17 71/31/17 73/32/17
f 70/30/2 117/31/2 124/32/2
f 117/30/2 70/31/2 69/32/2

