# Created by Kenney (www.kenney.nl)

mtllib potLid.mtl

g potLid

v -0.09279473 0.05 0.2855928
v -0.1015815 0.02 0.3126358
v -0.2429397 0.05 0.1765061
v -0.2659439 0.02 0.1932196
v -0.3287247 0.02 0
v -0.30029 0.05 0
v -0.2659439 0.02 -0.1932196
v -0.2429397 0.05 -0.1765061
v 0.30029 0.05 0
v 0.3287247 0.02 0
v 0.2429397 0.05 0.1765061
v 0.2659439 0.02 0.1932196
v 0.1015815 0.02 0.3126358
v 0.09279473 0.05 0.2855928
v -0.1015815 0.02 -0.3126358
v 0.1015815 0.02 -0.3126358
v -0.09279473 0.05 -0.2855928
v 0.09279473 0.05 -0.2855928
v 0.1015815 0 0.3126358
v -0.1015815 0 0.3126358
v 0.3287247 0 0
v 0.2659439 0 0.1932196
v 0.2659439 0.02 -0.1932196
v 0.2659439 0 -0.1932196
v -0.3287247 0 0
v -0.2659439 0 0.1932196
v 0.1015815 0 -0.3126358
v -0.1015815 0 -0.3126358
v -0.2659439 0 -0.1932196
v 0.2429397 0.05 -0.1765061
v 0.2419181 0.05 0
v 0.1957158 0.05 -0.1421959
v 0.1957158 0.05 0.1421959
v 0.0747568 0.05 -0.2300778
v 0.0747568 0.05 0.2300778
v -0.0747568 0.05 -0.2300778
v -0.1957158 0.05 -0.1421959
v -0.0747568 0.05 0.2300778
v -0.1957158 0.05 0.1421959
v -0.2419181 0.05 0
v 0.01957219 0.05 0.05754292
v -0.01957218 0.05 0.05754292
v 0.01957218 0.05 -0.05754291
v -0.01957218 0.05 -0.05754291
v 0.01957218 0.05 -0.08518153
v 0.01957219 0.05 0.08518153
v -0.01957218 0.05 -0.08518153
v -0.01957218 0.05 0.08518153
v 0.01957219 0.08473627 0.08518153
v -0.01957218 0.08473627 0.08518153
v 0.01957218 0.1184 -0.0515178
v -0.01957218 0.1184 -0.0515178
v 0.01957218 0.1085401 -0.07532165
v -0.01957218 0.1085401 -0.07532165
v -0.01957218 0.08383148 -0.05754291
v -0.01957218 0.08895474 -0.05573627
v -0.01957218 0.09076139 -0.05061301
v -0.01957218 0.1184 0.0515178
v -0.01957218 0.09076139 0.05061301
v -0.01957218 0.08895474 0.05573627
v -0.01957218 0.1085401 0.07532165
v -0.01957218 0.08383148 0.05754292
v -0.01957218 0.08473627 -0.08518153
v 0.01957219 0.1085401 0.07532165
v 0.01957218 0.08383148 -0.05754291
v 0.01957218 0.08895474 -0.05573627
v 0.01957218 0.09076139 -0.05061301
v 0.01957219 0.09076139 0.05061301
v 0.01957219 0.08895474 0.05573627
v 0.01957219 0.08383148 0.05754291
v 0.01957219 0.1184 0.0515178
v 0.01957218 0.08473627 -0.08518153

vn -0.2242808 0.6879184 0.6902654
vn -0.5871748 0.6879185 0.4266075
vn -0.725788 0.6879185 0
vn -0.5871748 0.6879185 -0.4266075
vn 0.725788 0.6879185 0
vn 0.5871748 0.6879185 0.4266075
vn 0.2242808 0.6879184 0.6902654
vn -0.2242808 0.6879184 -0.6902654
vn 0.2242808 0.6879184 -0.6902654
vn 0.309017 0 0.9510565
vn -0.309017 0 0.9510565
vn 1 0 0
vn 0.809017 0 0.5877852
vn 0.809017 0 -0.5877852
vn -1 0 0
vn -0.809017 0 0.5877852
vn 0.309017 0 -0.9510565
vn 0 -1 0
vn -0.309017 0 -0.9510565
vn -0.809017 0 -0.5877852
vn 0 1 0
vn 0.5871748 0.6879185 -0.4266075
vn 0 0 1
vn 0 0.9238795 -0.3826834
vn 0 0.7071068 -0.7071068
vn 0 0.3826834 0.9238795
vn 0 0.7071068 0.7071068
vn 0 -0.3325646 0.9430804
vn 0 -0.7071068 0.7071068
vn 0 -0.9430804 0.3325647
vn 0 -0.7071068 -0.7071068
vn 0 -0.9430804 -0.3325646
vn 0 -0.3325647 -0.9430804
vn 0 0.9238795 0.3826834
vn 0 0 -1
vn 0 0.3826834 -0.9238795

vt 3.653336 -6.066189
vt 3.999273 -7.656332
vt -3.653336 -6.066189
vt -3.999273 -7.656332
vt 3.999273 0
vt -3.999273 0
vt 3.999273 0.7874016
vt -3.999273 0.7874016
vt 12.94192 0
vt 10.47023 -7.607069
vt 10.47023 7.607069
vt 3.999273 12.3085
vt 3.999273 -12.3085
vt -3.999273 12.3085
vt -3.999273 -12.3085
vt -10.47023 7.607069
vt -10.47023 -7.607069
vt -12.94192 0
vt -11.82244 0
vt -9.564557 6.949058
vt -9.564557 -6.949058
vt -9.524334 0
vt -7.705348 -5.598263
vt -7.705348 5.598263
vt -3.653336 -11.24381
vt -3.653336 11.24381
vt -2.943181 -9.05818
vt -2.943181 9.05818
vt 3.653336 -11.24381
vt 2.943181 -9.05818
vt 7.705348 -5.598263
vt 3.653336 11.24381
vt 2.943181 9.05818
vt 7.705348 5.598263
vt 9.564557 -6.949058
vt 9.564557 6.949058
vt 9.524334 0
vt 11.82244 0

usemtl greyDark

f 3/3/2 2/2/1 1/1/1
f 2/2/1 3/3/2 4/4/2
f 4/2/2 6/3/3 5/4/3
f 6/3/3 4/2/2 3/1/2
f 5/2/3 8/3/4 7/4/4
f 8/3/4 5/2/3 6/1/3
f 11/3/6 10/2/5 9/1/5
f 10/2/5 11/3/6 12/4/6
f 14/1/7 2/4/1 13/2/7
f 2/4/1 14/1/7 1/3/1
f 17/1/8 16/4/9 15/2/8
f 16/4/9 17/1/8 18/3/9
f 13/7/10 20/6/11 19/5/10
f 20/6/11 13/7/10 2/8/11
f 12/8/13 21/5/12 10/7/12
f 21/5/12 12/8/13 22/6/13
f 10/8/12 24/5/14 23/7/14
f 24/5/14 10/8/12 21/6/12
f 26/5/16 5/8/15 25/6/15
f 5/8/15 26/5/16 4/7/16
f 16/7/17 24/6/14 27/5/17
f 24/6/14 16/7/17 23/8/14
f 12/7/13 19/6/10 22/5/13
f 19/6/10 12/7/13 13/8/10
f 22/11/18 24/10/18 21/9/18
f 24/10/18 22/11/18 19/12/18
f 24/10/18 19/12/18 27/13/18
f 27/13/18 19/12/18 20/14/18
f 27/13/18 20/14/18 28/15/18
f 28/15/18 20/14/18 26/16/18
f 28/15/18 26/16/18 29/17/18
f 29/17/18 26/16/18 25/18/18
f 15/7/19 27/6/17 28/5/19
f 27/6/17 15/7/19 16/8/17
f 25/5/15 7/8/20 29/6/20
f 7/8/20 25/5/15 5/7/15
f 2/7/11 26/6/16 20/5/11
f 26/6/16 2/7/11 4/8/16
f 7/7/20 28/6/19 29/5/20
f 28/6/19 7/7/20 15/8/19
f 30/21/21 11/20/21 9/19/21
f 11/20/21 30/21/21 31/22/21
f 31/22/21 30/21/21 32/23/21
f 33/24/21 11/20/21 31/22/21
f 32/23/21 30/21/21 18/25/21
f 11/20/21 33/24/21 14/26/21
f 32/23/21 18/25/21 34/27/21
f 14/26/21 33/24/21 35/28/21
f 34/27/21 18/25/21 17/29/21
f 34/27/21 17/29/21 36/30/21
f 36/30/21 17/29/21 37/31/21
f 14/26/21 35/28/21 1/32/21
f 1/32/21 35/28/21 38/33/21
f 1/32/21 38/33/21 39/34/21
f 37/31/21 17/29/21 8/35/21
f 1/32/21 39/34/21 3/36/21
f 37/31/21 8/35/21 40/37/21
f 3/36/21 39/34/21 40/37/21
f 3/36/21 40/37/21 8/35/21
f 3/36/21 8/35/21 6/38/21
f 30/1/22 10/4/5 23/2/22
f 10/4/5 30/1/22 9/3/5
f 15/4/8 8/1/4 17/3/8
f 8/1/4 15/4/8 7/2/4
f 11/1/6 13/4/7 12/2/6
f 13/4/7 11/1/6 14/3/7
f 16/2/9 30/3/22 23/4/22
f 30/3/22 16/2/9 18/1/9

usemtl _defaultMat

f 43/3/21 42/2/21 41/1/21
f 42/3/21 43/2/21 44/1/21
f 32/3/21 33/2/21 31/1/21
f 33/3/21 32/2/21 34/1/21
f 33/3/21 34/2/21 35/1/21
f 35/3/21 34/2/21 45/1/21
f 35/3/21 45/2/21 43/1/21
f 45/3/21 34/2/21 36/1/21
f 35/3/21 43/2/21 46/1/21
f 46/3/21 43/2/21 41/1/21
f 45/3/21 36/2/21 47/1/21
f 46/3/21 38/2/21 35/1/21
f 38/3/21 46/2/21 48/1/21
f 38/3/21 48/2/21 42/1/21
f 38/3/21 42/2/21 44/1/21
f 38/3/21 44/2/21 47/1/21
f 38/3/21 47/2/21 36/1/21
f 38/3/21 36/2/21 37/1/21
f 38/3/21 37/2/21 39/1/21
f 39/3/21 37/2/21 40/1/21
f 49/3/23 48/2/23 46/1/23
f 48/3/23 49/2/23 50/1/23
f 53/3/25 52/2/24 51/1/24
f 52/3/24 53/2/25 54/1/25
f 55/3/15 52/2/15 54/1/15
f 52/3/15 55/2/15 56/1/15
f 52/3/15 56/2/15 57/1/15
f 52/3/15 57/2/15 58/1/15
f 58/3/15 57/2/15 59/1/15
f 58/3/15 59/2/15 60/1/15
f 58/3/15 60/2/15 61/1/15
f 61/3/15 60/2/15 62/1/15
f 61/3/15 62/2/15 42/1/15
f 61/3/15 42/2/15 48/1/15
f 61/3/15 48/2/15 50/1/15
f 47/3/15 54/2/15 63/1/15
f 54/3/15 47/2/15 44/1/15
f 54/3/15 44/2/15 55/1/15
f 64/3/27 50/2/26 49/1/26
f 50/3/26 64/2/27 61/1/27
f 66/3/29 55/2/28 65/1/28
f 55/3/28 66/2/29 56/1/29
f 57/3/30 66/2/29 67/1/30
f 66/3/29 57/2/30 56/1/29
f 59/3/18 67/2/18 68/1/18
f 67/3/18 59/2/18 57/1/18
f 60/3/31 68/2/32 69/1/31
f 68/3/32 60/2/31 59/1/32
f 60/3/31 70/2/33 62/1/33
f 70/3/33 60/2/31 69/1/31
f 51/3/21 58/2/21 71/1/21
f 58/3/21 51/2/21 52/1/21
f 71/3/34 61/2/27 64/1/27
f 61/3/27 71/2/34 58/1/34
f 62/3/35 41/2/35 42/1/35
f 41/3/35 62/2/35 70/1/35
f 63/3/35 45/2/35 47/1/35
f 45/3/35 63/2/35 72/1/35
f 65/3/23 44/2/23 43/1/23
f 44/3/23 65/2/23 55/1/23
f 51/3/12 65/2/12 53/1/12
f 65/3/12 51/2/12 66/1/12
f 66/3/12 51/2/12 67/1/12
f 67/3/12 51/2/12 71/1/12
f 67/3/12 71/2/12 68/1/12
f 68/3/12 71/2/12 69/1/12
f 69/3/12 71/2/12 64/1/12
f 69/3/12 64/2/12 70/1/12
f 70/3/12 64/2/12 41/1/12
f 41/3/12 64/2/12 46/1/12
f 46/3/12 64/2/12 49/1/12
f 53/3/12 45/2/12 72/1/12
f 45/3/12 53/2/12 43/1/12
f 43/3/12 53/2/12 65/1/12
f 54/3/25 72/2/36 63/1/36
f 72/3/36 54/2/25 53/1/25

