# Created by Kenney (www.kenney.nl)

mtllib pudding.mtl

g pudding

v 0 0.03231823 0.1375311
v -0.1191054 0.03231823 0.06876557
v -7.219114E-16 0.1715917 0.1083611
v -0.0485006 0.1541825 0.0840055
v -0.09384344 0.1715917 0.05418053
v -7.219114E-16 0.03231823 -0.1375311
v 0.1191054 0.03231823 -0.06876557
v -7.219114E-16 0.1715917 -0.1083611
v 0.0485006 0.1541825 -0.0840055
v 0.09384344 0.1715917 -0.05418053
v -0.1191054 0.03231823 -0.06876557
v -0.09384344 0.1715917 -0.05418053
v -0.0485006 0.1541825 -0.0840055
v 0.1191054 0.03231823 0.06876557
v 0.09700119 0.1541825 0
v 0.09384344 0.1715917 0.05418053
v -0.09700119 0.1541825 0
v 0.0485006 0.1541825 0.0840055
v -7.219114E-16 0.1998 -0.102453
v 0.0887269 0.1998 -0.0512265
v 0 0 -0.1443
v 0.1249675 0 -0.07215
v 0.0887269 0.1998 0.0512265
v -7.219114E-16 0.1998 0.102453
v -0.0887269 0.1998 -0.0512265
v -0.0887269 0.1998 0.0512265
v -0.1249675 0 -0.07215
v 0 0 0.1443
v -0.1249675 0 0.07215
v 0.1249675 0 0.07215

vn 0 0.2049964 0.9787627
vn -0.8476334 0.2049964 0.4893814
vn -0.4919725 0.1784721 0.8521214
vn 0 0.2049964 -0.9787627
vn 0.8476334 0.2049964 -0.4893814
vn 0.4919725 0.1784721 -0.8521214
vn -0.8476334 0.2049964 -0.4893814
vn -0.4919725 0.1784721 -0.8521214
vn 0.8476334 0.2049964 0.4893814
vn 0.983945 0.1784721 0
vn -0.983945 0.1784721 0
vn 0.4919725 0.1784721 0.8521214
vn 0 1 0
vn 0 -1 0

vt 2.707306 0.4150535
vt -2.707306 0.4150535
vt 2.133092 5.987731
vt -2.464695E-14 5.291146
vt -2.133092 5.987731
vt 3.552714E-14 5.291146
vt -9.769963E-15 5.291146
vt -7.327703E-17 5.291146
vt -1.47456E-17 5.291146
vt 5.107026E-15 5.291146
vt 2.016791 7.116415
vt -2.016791 7.116415
vt 2.840551 -0.8780789
vt -2.840551 -0.8780789
vt -3.493185 -2.016791
vt -3.493185 2.016791
vt 2.842171E-14 -4.033583
vt 2.842171E-14 4.033583
vt 3.493185 -2.016791
vt 3.493185 2.016791

usemtl brownLight

f 3/3/1 2/2/2 1/1/1
f 2/2/2 3/3/1 4/4/3
f 5/5/2 2/2/2 4/4/3
f 8/3/4 7/2/5 6/1/4
f 7/2/5 8/3/4 9/6/6
f 10/5/5 7/2/5 9/6/6
f 12/3/7 6/2/4 11/1/7
f 6/2/4 12/3/7 13/7/8
f 8/5/4 6/2/4 13/7/8
f 10/3/5 14/2/9 7/1/5
f 14/2/9 10/3/5 15/8/10
f 14/2/9 15/8/10 16/5/9
f 2/1/2 12/5/7 11/2/7
f 12/5/7 2/1/2 17/9/11
f 17/9/11 2/1/2 5/3/2
f 16/3/9 1/2/1 14/1/9
f 1/2/1 16/3/9 18/10/12
f 3/5/1 1/2/1 18/10/12

usemtl brownDark

f 8/3/4 10/5/5 9/6/6
f 10/5/5 8/3/4 19/11/4
f 10/5/5 19/11/4 20/12/5
f 6/1/4 22/14/5 21/13/4
f 22/14/5 6/1/4 7/2/5
f 19/17/13 23/16/13 20/15/13
f 23/16/13 19/17/13 24/18/13
f 24/18/13 19/17/13 25/19/13
f 24/18/13 25/19/13 26/20/13
f 11/1/7 21/14/4 27/13/7
f 21/14/4 11/1/7 6/2/4
f 1/1/1 29/14/2 28/13/1
f 29/14/2 1/1/1 2/2/2
f 14/1/9 28/14/1 30/13/9
f 28/14/1 14/1/9 1/2/1
f 3/3/1 5/5/2 4/4/3
f 5/5/2 3/3/1 24/11/1
f 5/5/2 24/11/1 26/12/2
f 17/9/11 25/12/7 12/5/7
f 25/12/7 17/9/11 26/11/2
f 26/11/2 17/9/11 5/3/2
f 16/3/9 3/5/1 18/10/12
f 3/5/1 16/3/9 23/11/9
f 3/5/1 23/11/9 24/12/1
f 12/3/7 8/5/4 13/7/8
f 8/5/4 12/3/7 25/11/7
f 8/5/4 25/11/7 19/12/4
f 7/1/5 30/14/9 22/13/5
f 30/14/9 7/1/5 14/2/9
f 20/11/5 15/8/10 10/3/5
f 15/8/10 20/11/5 23/12/9
f 15/8/10 23/12/9 16/5/9
f 29/13/2 11/2/7 27/14/7
f 11/2/7 29/13/2 2/1/2

usemtl _defaultMat

f 28/2/14 22/13/14 30/1/14
f 22/2/14 28/13/14 21/1/14
f 21/2/14 28/13/14 29/1/14
f 21/2/14 29/13/14 27/1/14

