# Created by Kenney (www.kenney.nl)

mtllib pumpkinBasic.mtl

g pumpkinBasic

v 0.105 0.146 -0.1818653
v 0.21 0.146 0
v 0.0735 0.219 -0.1273057
v 0.147 0.219 -7.219114E-16
v 0.0735 0.219 0.1273057
v 0.06911889 0.219 -7.219114E-16
v 0.03455944 0.219 -0.05985872
v 0.03455944 0.219 0.05985872
v -0.0735 0.219 -0.1273057
v -0.0735 0.219 0.1273057
v -0.03455944 0.219 -0.05985872
v -0.03455944 0.219 0.05985872
v -0.06911889 0.219 -7.219114E-16
v -0.147 0.219 -7.219114E-16
v -0.105 0.073 -0.1818653
v -0.105 0.146 -0.1818653
v -0.21 0.073 0
v -0.21 0.146 0
v 0.105 0.146 0.1818653
v -0.105 0.146 0.1818653
v 0.21 0.073 0
v 0.105 0.073 0.1818653
v 0.147 0 0
v 0.0735 0 0.1273057
v -0.105 0.073 0.1818653
v -0.147 0 0
v -0.0735 0 0.1273057
v 0.0735 0 -0.1273057
v -0.0735 0 -0.1273057
v 0.105 0.073 -0.1818653
v 0.01595283 0.219 0.0276311
v -0.01595283 0.219 0.0276311
v 0.01037582 0.299 0.01797145
v -0.01037582 0.299 0.01797145
v -0.01595283 0.219 -0.0276311
v -0.01037582 0.299 -0.01797145
v -0.03190565 0.219 -1.082867E-15
v -0.02075164 0.299 -1.082867E-15
v 0.03190565 0.219 -1.082867E-15
v 0.01595283 0.219 -0.0276311
v 0.01037582 0.299 -0.01797145
v 0.02075164 0.299 -1.082867E-15

vn 0.378528 0.6533498 -0.6556299
vn 0.7570561 0.6533498 0
vn 0 1 0
vn -0.8660254 0 -0.5
vn -1 0 0
vn -0.378528 0.6533498 -0.6556299
vn -0.7570561 0.6533498 0
vn 0.378528 0.6533498 0.6556299
vn -0.378528 0.6533498 0.6556299
vn 1 0 0
vn 0.5 0 0.8660254
vn 0.7570561 -0.6533498 0
vn 0.378528 -0.6533498 0.6556299
vn -0.5 0 0.8660254
vn -0.7570561 -0.6533498 0
vn -0.378528 -0.6533498 0.6556299
vn 0 -1 0
vn 0.378528 -0.6533498 -0.6556299
vn -0.378528 -0.6533498 -0.6556299
vn 0.8660254 0 -0.5
vn 0 0 -1
vn 0.4952099 0.1380894 0.8577287
vn -0.4952099 0.1380894 0.8577287
vn -0.4952099 0.1380894 -0.8577287
vn -0.9904198 0.1380894 0
vn 0.4952099 0.1380894 -0.8577287
vn 0.9904198 0.1380894 0

vt 4.133858 0.317731
vt -4.133858 0.317731
vt 2.893701 3.905758
vt -2.893701 3.905758
vt -5.787402 -2.842171E-14
vt -2.893701 5.012037
vt -2.893701 -5.012037
vt -2.721216 -2.842171E-14
vt -1.360608 -2.356642
vt -1.360608 2.356642
vt 2.893701 -5.012037
vt 2.893701 5.012037
vt 1.360608 -2.356642
vt 1.360608 2.356642
vt 2.721216 -2.842171E-14
vt 5.787402 -2.842171E-14
vt -4.133858 2.874016
vt -4.133858 5.748032
vt 4.133858 2.874016
vt 4.133858 5.748032
vt 4.133858 6.588543
vt 2.893701 3.000516
vt -4.133858 6.588543
vt -2.893701 3.000516
vt 5.787402 0
vt -5.787402 0
vt 0.628064 8.429469
vt -0.628064 8.429469
vt 0.4084969 11.60195
vt -0.4084969 11.60195
vt -1.256128 -4.263256E-14
vt -0.628064 -1.087839
vt -0.628064 1.087839
vt 0.628064 -1.087839
vt 0.628064 1.087839
vt 1.256128 -4.263256E-14
vt -0.8169939 -4.263256E-14
vt -0.4084969 0.7075374
vt -0.4084969 -0.7075374
vt 0.4084969 -0.7075374
vt 0.4084969 0.7075374
vt 0.8169939 -4.263256E-14

usemtl orange

f 3/3/1 2/2/2 1/1/1
f 2/2/2 3/3/1 4/4/2
f 3/7/3 5/6/3 4/5/3
f 5/6/3 3/7/3 6/8/3
f 6/8/3 3/7/3 7/9/3
f 8/10/3 5/6/3 6/8/3
f 7/9/3 3/7/3 9/11/3
f 5/6/3 8/10/3 10/12/3
f 7/9/3 9/11/3 11/13/3
f 10/12/3 8/10/3 12/14/3
f 11/13/3 9/11/3 13/15/3
f 10/12/3 12/14/3 13/15/3
f 10/12/3 13/15/3 9/11/3
f 10/12/3 9/11/3 14/16/3
f 17/19/5 16/18/4 15/17/4
f 16/18/4 17/19/5 18/20/5
f 9/3/6 1/2/1 16/1/6
f 1/2/1 9/3/6 3/4/1
f 18/1/7 9/4/6 16/2/6
f 9/4/6 18/1/7 14/3/7
f 5/3/8 20/2/9 19/1/8
f 20/2/9 5/3/8 10/4/9
f 19/18/11 21/19/10 2/20/10
f 21/19/10 19/18/11 22/17/11
f 5/4/8 2/1/2 4/3/2
f 2/1/2 5/4/8 19/2/8
f 22/23/13 23/22/12 21/21/12
f 23/22/12 22/23/13 24/24/13
f 19/20/11 25/17/14 22/19/11
f 25/17/14 19/20/11 20/18/14
f 27/22/16 17/23/15 26/24/15
f 17/23/15 27/22/16 25/21/16
f 24/12/17 28/11/17 23/25/17
f 28/11/17 24/12/17 27/6/17
f 28/11/17 27/6/17 29/7/17
f 29/7/17 27/6/17 26/26/17
f 22/21/13 27/24/16 24/22/13
f 27/24/16 22/21/13 25/23/16
f 21/23/12 28/22/18 30/21/18
f 28/22/18 21/23/12 23/24/12
f 15/21/19 28/24/18 29/22/19
f 28/24/18 15/21/19 30/23/18
f 2/18/10 30/19/20 1/20/20
f 30/19/20 2/18/10 21/17/10
f 18/2/7 10/3/9 14/4/7
f 10/3/9 18/2/7 20/1/9
f 16/20/21 30/17/21 15/19/21
f 30/17/21 16/20/21 1/18/21
f 25/19/14 18/18/5 17/17/5
f 18/18/5 25/19/14 20/20/14
f 29/24/19 17/21/15 15/23/19
f 17/21/15 29/24/19 26/22/15

usemtl green

f 33/29/22 32/28/23 31/27/22
f 32/28/23 33/29/22 34/30/23
f 37/27/25 36/30/24 35/28/24
f 36/30/24 37/27/25 38/29/25
f 7/9/3 8/10/3 6/8/3
f 8/10/3 7/9/3 39/31/3
f 39/31/3 7/9/3 40/32/3
f 31/33/3 8/10/3 39/31/3
f 40/32/3 7/9/3 11/13/3
f 8/10/3 31/33/3 12/14/3
f 40/32/3 11/13/3 35/34/3
f 12/14/3 31/33/3 32/35/3
f 35/34/3 11/13/3 37/36/3
f 12/14/3 32/35/3 37/36/3
f 37/36/3 11/13/3 12/14/3
f 12/14/3 11/13/3 13/15/3
f 36/29/24 40/28/26 35/27/24
f 40/28/26 36/29/24 41/30/26
f 32/27/23 38/30/25 37/28/25
f 38/30/25 32/27/23 34/29/23
f 33/30/22 39/27/27 42/29/27
f 39/27/27 33/30/22 31/28/22
f 41/39/3 33/38/3 42/37/3
f 33/38/3 41/39/3 36/40/3
f 33/38/3 36/40/3 34/41/3
f 34/41/3 36/40/3 38/42/3
f 41/29/26 39/28/27 40/27/26
f 39/28/27 41/29/26 42/30/27

