# Created by Kenney (www.kenney.nl)

mtllib rollingPin.mtl

g rollingPin

v 0.3568278 -0.02895115 0.01671496
v 0.3568278 -0.02895115 -0.01671496
v 0.3068278 -0.02244275 0.01295733
v 0.3068278 -0.02244275 -0.01295733
v 0.3068278 0.02244276 -0.01295733
v 0.3068278 0.02244276 0.01295733
v 0.2468278 0.03400418 -0.01963232
v 0.2468278 0.03400418 0.01963232
v 0.4068278 5.516088E-09 -0.02591466
v 0.4068278 -0.02244275 -0.01295733
v 0.4068278 0.02244276 -0.01295733
v 0.4068278 0.02244276 0.01295733
v 0.4068278 -0.02244275 0.01295733
v 0.4068278 6.60831E-09 0.02591466
v 0.3568278 6.021625E-09 0.03342991
v 0.3068278 5.118197E-09 0.02591466
v 0.3568278 0.02895116 0.01671496
v 0.2268278 -0.03400417 0.01963232
v 0.2268278 4.207433E-09 0.03926464
v 0.2468278 -0.03400417 0.01963232
v 0.2468278 4.505455E-09 0.03926464
v 0.3568278 0.02895116 -0.01671496
v 0.3568278 4.61266E-09 -0.03342991
v 0.3068278 4.025976E-09 -0.02591466
v 0.2268278 0.03400418 0.01963232
v 0.2468278 -0.03400417 -0.01963232
v -0.2468278 -0.03400418 -0.01963232
v -0.2468278 -4.505452E-09 -0.03926464
v -0.3068278 -0.02244276 -0.01295733
v -0.3068278 -5.118185E-09 -0.02591466
v -0.4068278 -6.608298E-09 -0.02591466
v -0.4068278 0.02244275 -0.01295733
v -0.4068278 -0.02244276 -0.01295733
v -0.4068278 0.02244275 0.01295733
v -0.4068278 -0.02244276 0.01295733
v -0.4068278 -5.516077E-09 0.02591466
v -0.3568278 -6.021615E-09 -0.03342991
v -0.3568278 0.02895115 -0.01671496
v -0.3568278 -0.02895116 0.01671496
v -0.3568278 -4.612649E-09 0.03342991
v -0.3068278 -0.02244276 0.01295733
v -0.3068278 -4.025964E-09 0.02591466
v -0.3568278 -0.02895116 -0.01671496
v 0.2268278 2.552552E-09 -0.03926464
v 0.2468278 2.850574E-09 -0.03926464
v 0.2268278 0.03400418 -0.01963232
v -0.2468278 -0.03400418 0.01963232
v -0.2468278 -2.850572E-09 0.03926464
v -0.2268278 -0.03400418 -0.01963232
v -0.2268278 -4.20743E-09 -0.03926464
v 0.2268278 -0.03400417 -0.01963232
v -0.3068278 0.02244275 -0.01295733
v -0.3068278 0.02244275 0.01295733
v -0.3568278 0.02895115 0.01671496
v -0.2268278 0.03400417 -0.01963232
v -0.2268278 0.03400417 0.01963232
v -0.2468278 0.03400417 -0.01963232
v -0.2468278 0.03400417 0.01963232
v -0.2268278 -0.03400418 0.01963232
v -0.2268278 -2.552549E-09 0.03926464
v -0.2268278 -0.07014806 -0.0405
v 0.2268278 -0.07014806 -0.0405
v -0.2268278 -5.086937E-09 -0.081
v 0.2268278 1.673043E-09 -0.081
v 0.2268278 0.07014806 -0.0405
v 0.2268278 0.07014806 0.0405
v -0.2268278 0.07014806 -0.0405
v -0.2268278 0.07014806 0.0405
v -0.2268278 -1.673043E-09 0.081
v 0.2268278 5.086937E-09 0.081
v -0.2268278 -0.07014806 0.0405
v 0.2268278 -0.07014806 0.0405

vn -0.1486355 -0.8564056 0.4944461
vn -0.1486354 -0.8564056 -0.494446
vn 0.2171885 0.8453531 -0.4880649
vn 0.2171885 0.8453531 0.4880648
vn 1 0 0
vn 0.1486355 -0.8564056 0.4944461
vn 0.1486355 0 0.988892
vn -0.1486355 0 0.988892
vn -0.1486355 0.8564056 0.494446
vn 0 -0.8660254 0.5
vn 0 0 1
vn 0.1486355 0.8564056 -0.4944461
vn 0.1486354 0.8564056 0.494446
vn -0.1486355 0 -0.988892
vn 0 0.8660254 0.5
vn -0.1486355 0.8564056 -0.4944461
vn 0.2171885 -0.8453531 0.4880649
vn 0.2171885 -0.8453531 -0.4880648
vn 0.1486355 0 -0.988892
vn -0.2171885 -0.8453531 -0.4880648
vn -0.2171885 0 -0.9761297
vn -1 0 0
vn 0.2171885 0 0.9761297
vn 0.1486355 -0.8564056 -0.494446
vn 0 0 -1
vn 0 0.8660254 -0.5
vn -0.2171885 -0.8453531 0.4880649
vn -0.2171885 0 0.9761297
vn 0.2171885 0 -0.9761297
vn 0 -0.8660254 -0.5
vn -0.2171885 0.8453531 -0.4880649
vn -0.2171885 0.8453531 0.4880648

vt 0.6580715 -14.07794
vt -0.6580669 -14.07794
vt 0.5101331 -12.09283
vt -0.5101292 -12.09283
vt 0.5101298 -11.69445
vt -0.5101324 -11.69445
vt 0.7729249 -9.288795
vt -0.772927 -9.288795
vt 1.020262 -2.150016E-08
vt 0.5101311 -0.8835731
vt 0.5101312 0.8835731
vt -0.5101311 0.8835731
vt -0.5101312 -0.8835731
vt -1.020262 2.150067E-08
vt 13.79448 0.3681234
vt 13.69667 1.680622
vt 15.76311 0.6631812
vt 15.68728 1.680622
vt 12.0973 0.3899915
vt 12.02148 1.407432
vt 14.08792 0.3899915
vt 13.9901 1.70249
vt 8.930229 -0.7729258
vt 8.930229 0.7729261
vt 9.71763 -0.7729258
vt 9.71763 0.7729262
vt 0.5101286 -15.7688
vt -0.5101337 -15.7688
vt 0.6580669 -13.78369
vt -0.6580714 -13.78369
vt -13.9901 -1.70249
vt -14.08792 -0.389991
vt -12.02148 -1.407432
vt -12.0973 -0.3899911
vt -0.6580715 14.07794
vt 0.6580669 14.07794
vt -0.5101331 12.09283
vt 0.5101292 12.09283
vt -0.5101298 11.69445
vt 0.5101324 11.69445
vt -0.7729249 9.288795
vt 0.772927 9.288795
vt -13.69667 -1.680622
vt -15.68728 -1.680622
vt -13.79448 -0.3681229
vt -15.76311 -0.6631807
vt 9.317798 0.2403545
vt 9.149926 1.777064
vt 11.68069 0.7628359
vt 11.5699 1.777064
vt -12.0973 0.3899914
vt -14.08792 0.3899914
vt -12.02148 1.407432
vt -13.9901 1.70249
vt -1.020262 -2.15003E-08
vt -0.5101312 0.8835731
vt -0.5101311 -0.8835731
vt 0.5101311 0.8835731
vt 0.5101312 -0.8835731
vt 1.020262 2.150053E-08
vt 15.68728 -1.680622
vt 13.69667 -1.680622
vt 15.76311 -0.6631812
vt 13.79448 -0.3681234
vt 9.317798 0.2403547
vt 9.149926 1.777065
vt 11.68069 0.7628361
vt 11.5699 1.777065
vt -13.9901 -1.70249
vt -14.08792 -0.3899914
vt -12.02148 -1.407432
vt -12.0973 -0.3899914
vt 13.9901 -1.70249
vt 12.02148 -1.407432
vt 14.08792 -0.3899915
vt 12.0973 -0.3899915
vt -8.930229 -0.7729258
vt -9.71763 -0.7729258
vt -8.930229 0.7729261
vt -9.71763 0.7729262
vt -9.317798 0.2403544
vt -11.68069 0.7628357
vt -9.149926 1.777064
vt -11.5699 1.777064
vt -9.149926 -1.777064
vt -11.5699 -1.777064
vt -9.317798 -0.2403544
vt -11.68069 -0.7628357
vt 9.71763 -0.7729262
vt 8.930229 -0.7729261
vt 9.71763 0.7729258
vt 8.930229 0.7729258
vt -0.5101286 15.7688
vt 0.5101337 15.7688
vt -0.6580669 13.78369
vt 0.6580714 13.78369
vt -13.79448 0.3681229
vt -15.76311 0.6631807
vt -13.69667 1.680622
vt -15.68728 1.680622
vt 0.5101331 12.09283
vt -0.5101292 12.09283
vt 0.6580715 14.07794
vt -0.6580669 14.07794
vt -9.71763 -0.772926
vt -9.71763 0.772926
vt -8.930229 -0.772926
vt -8.930229 0.772926
vt -9.317798 0.2403548
vt -11.68069 0.7628362
vt -9.149926 1.777065
vt -11.5699 1.777065
vt 9.149926 -1.777064
vt 9.317798 -0.2403545
vt 11.5699 -1.777064
vt 11.68069 -0.7628359
vt 8.930229 -0.772926
vt 8.930229 0.772926
vt 9.71763 -0.772926
vt 9.71763 0.772926
vt -9.71763 -0.7729262
vt -9.71763 0.7729258
vt -8.930229 -0.7729261
vt -8.930229 0.7729258
vt 13.9901 -1.70249
vt 12.02148 -1.407432
vt 14.08792 -0.389991
vt 12.0973 -0.389991
vt -13.79448 0.3681235
vt -15.76311 0.6631814
vt -13.69667 1.680622
vt -15.68728 1.680622
vt -0.7729249 -9.288795
vt 0.772927 -9.288795
vt -0.5101298 -11.69445
vt 0.5101324 -11.69445
vt 0.7729249 9.288795
vt -0.772927 9.288795
vt 0.5101298 11.69445
vt -0.5101324 11.69445
vt -11.5699 -1.777065
vt -11.68069 -0.7628362
vt -9.149926 -1.777065
vt -9.317798 -0.2403548
vt -14.08792 0.389991
vt -13.9901 1.70249
vt -12.0973 0.3899911
vt -12.02148 1.407432
vt 0.6580669 13.78369
vt -0.6580714 13.78369
vt 0.5101286 15.7688
vt -0.5101337 15.7688
vt 14.08792 0.389991
vt 12.0973 0.389991
vt 13.9901 1.70249
vt 12.02148 1.407432
vt -0.5101331 -12.09283
vt 0.5101292 -12.09283
vt -0.6580715 -14.07794
vt 0.6580669 -14.07794
vt -0.6580669 -13.78369
vt 0.6580714 -13.78369
vt -0.5101286 -15.7688
vt 0.5101337 -15.7688
vt -15.68728 -1.680622
vt -15.76311 -0.6631814
vt -13.69667 -1.680622
vt -13.79448 -0.3681235
vt 11.5699 -1.777065
vt 9.149926 -1.777065
vt 11.68069 -0.7628361
vt 9.317798 -0.2403547
vt 13.69667 -1.680622
vt 13.79448 -0.368123
vt 15.68728 -1.680622
vt 15.76311 -0.6631808
vt 13.79448 0.368123
vt 13.69667 1.680622
vt 15.76311 0.6631808
vt 15.68728 1.680622
vt 8.930229 -1.594488
vt -8.930229 -1.594488
vt 8.930229 1.594488
vt -8.930229 1.594488
vt -8.930229 -1.594488
vt -8.930229 1.594488
vt 8.930229 -1.594488
vt 8.930229 1.594488
vt -8.930229 -1.594488
vt -8.930229 1.594488
vt 8.930229 -1.594488
vt 8.930229 1.594488
vt 3.188976 -6.720264E-08
vt 1.594488 -2.761734
vt 1.594488 2.761734
vt 1.545852 -3.257631E-08
vt 0.772926 1.338747
vt 0.7729259 -1.338747
vt -1.594488 2.761734
vt -1.594488 -2.761734
vt -0.7729259 1.338747
vt -0.772926 -1.338747
vt -1.545852 3.257647E-08
vt -3.188976 6.720264E-08
vt 3.188976 6.720265E-08
vt 1.594488 -2.761734
vt 1.594488 2.761734
vt 1.545852 3.257643E-08
vt 0.7729259 1.338747
vt 0.772926 -1.338747
vt -0.772926 1.338747
vt -0.7729259 -1.338747
vt -1.594488 2.761734
vt -1.594488 -2.761734
vt -1.545852 -3.257635E-08
vt -3.188976 -6.720263E-08

usemtl brownLight

f 3/3/1 2/2/2 1/1/1
f 2/2/2 3/3/1 4/4/2
f 7/7/3 6/6/4 5/5/3
f 6/6/4 7/7/3 8/8/4
f 11/11/5 10/10/5 9/9/5
f 10/10/5 11/11/5 12/12/5
f 10/10/5 12/12/5 13/13/5
f 13/13/5 12/12/5 14/14/5
f 13/17/6 15/16/7 1/15/6
f 15/16/7 13/17/6 14/18/7
f 15/21/8 6/20/9 16/19/8
f 6/20/9 15/21/8 17/22/9
f 20/25/10 19/24/11 18/23/10
f 19/24/11 20/25/10 21/26/11
f 22/29/12 12/28/13 11/27/12
f 12/28/13 22/29/12 17/30/13
f 4/33/2 23/32/14 2/31/2
f 23/32/14 4/33/2 24/34/14
f 21/25/11 25/24/15 19/23/11
f 25/24/15 21/25/11 8/26/15
f 5/37/16 17/36/9 22/35/16
f 17/36/9 5/37/16 6/38/9
f 20/41/17 4/40/18 3/39/17
f 4/40/18 20/41/17 26/42/18
f 22/45/12 9/44/19 23/43/19
f 9/44/19 22/45/12 11/46/12
f 29/49/20 28/48/21 27/47/20
f 28/48/21 29/49/20 30/50/21
f 5/53/16 23/52/14 24/51/14
f 23/52/14 5/53/16 22/54/16
f 33/57/22 32/56/22 31/55/22
f 32/56/22 33/57/22 34/58/22
f 34/58/22 33/57/22 35/59/22
f 34/58/22 35/59/22 36/60/22
f 32/63/16 37/62/14 31/61/14
f 37/62/14 32/63/16 38/64/16
f 3/67/17 21/66/23 20/65/17
f 21/66/23 3/67/17 16/68/23
f 41/71/6 40/70/7 39/69/6
f 40/70/7 41/71/6 42/72/7
f 37/75/19 29/74/24 43/73/24
f 29/74/24 37/75/19 30/76/19
f 46/79/26 45/78/25 44/77/25
f 45/78/25 46/79/26 7/80/26
f 48/83/28 41/82/27 47/81/27
f 41/82/27 48/83/28 42/84/28
f 7/87/3 24/86/29 45/85/29
f 24/86/29 7/87/3 5/88/3
f 28/91/25 49/90/30 27/89/30
f 49/90/30 28/91/25 50/92/25
f 44/79/25 26/78/30 51/77/30
f 26/78/30 44/79/25 45/80/25
f 1/95/6 10/94/24 13/93/6
f 10/94/24 1/95/6 2/96/24
f 40/99/8 35/98/1 39/97/1
f 35/98/1 40/99/8 36/100/8
f 38/103/12 53/102/13 52/101/12
f 53/102/13 38/103/12 54/104/13
f 46/107/26 8/106/15 7/105/26
f 8/106/15 46/107/26 25/108/15
f 45/111/29 4/110/18 26/109/18
f 4/110/18 45/111/29 24/112/29
f 16/115/23 8/114/4 21/113/23
f 8/114/4 16/115/23 6/116/4
f 57/119/26 56/118/15 55/117/26
f 56/118/15 57/119/26 58/120/15
f 59/123/10 48/122/11 47/121/10
f 48/122/11 59/123/10 60/124/11
f 15/127/8 3/126/1 1/125/1
f 3/126/1 15/127/8 16/128/8
f 23/131/19 10/130/24 2/129/24
f 10/130/24 23/131/19 9/132/19
f 60/123/11 58/122/15 48/121/11
f 58/122/15 60/123/11 56/124/15
f 52/135/31 58/134/32 57/133/31
f 58/134/32 52/135/31 53/136/32
f 41/139/27 27/138/20 47/137/27
f 27/138/20 41/139/27 29/140/20
f 48/143/28 53/142/32 42/141/28
f 53/142/32 48/143/28 58/144/32
f 42/147/7 54/146/13 40/145/7
f 54/146/13 42/147/7 53/148/13
f 59/108/10 27/105/30 49/107/30
f 27/105/30 59/108/10 47/106/10
f 57/91/26 50/90/25 28/89/25
f 50/90/25 57/91/26 55/92/26
f 35/151/1 43/150/2 39/149/1
f 43/150/2 35/151/1 33/152/2
f 38/155/12 30/154/19 37/153/19
f 30/154/19 38/155/12 52/156/12
f 39/159/6 29/158/24 41/157/6
f 29/158/24 39/159/6 43/160/24
f 32/163/16 54/162/9 38/161/16
f 54/162/9 32/163/16 34/164/9
f 40/167/8 34/166/9 36/165/8
f 34/166/9 40/167/8 54/168/9
f 18/118/10 26/119/30 20/120/10
f 26/119/30 18/118/10 51/117/30
f 52/171/31 28/170/21 30/169/21
f 28/170/21 52/171/31 57/172/31
f 14/175/7 17/174/13 15/173/7
f 17/174/13 14/175/7 12/176/13
f 33/179/2 37/178/14 43/177/2
f 37/178/14 33/179/2 31/180/14

usemtl brown

f 63/183/25 62/182/30 61/181/30
f 62/182/30 63/183/25 64/184/25
f 67/187/26 66/186/15 65/185/26
f 66/186/15 67/187/26 68/188/15
f 70/191/11 68/190/15 69/189/11
f 68/190/15 70/191/11 66/192/15
f 72/191/10 69/190/11 71/189/10
f 69/190/11 72/191/10 70/192/11
f 71/186/10 62/187/30 72/188/10
f 62/187/30 71/186/10 61/185/30
f 65/195/5 62/194/5 64/193/5
f 62/194/5 65/195/5 44/196/5
f 44/196/5 65/195/5 46/197/5
f 51/198/5 62/194/5 44/196/5
f 46/197/5 65/195/5 66/199/5
f 62/194/5 51/198/5 72/200/5
f 46/197/5 66/199/5 25/201/5
f 72/200/5 51/198/5 18/202/5
f 25/201/5 66/199/5 19/203/5
f 72/200/5 18/202/5 19/203/5
f 72/200/5 19/203/5 66/199/5
f 72/200/5 66/199/5 70/204/5
f 68/207/22 71/206/22 69/205/22
f 60/208/22 71/206/22 68/207/22
f 68/207/22 56/209/22 60/208/22
f 59/210/22 71/206/22 60/208/22
f 68/207/22 55/211/22 56/209/22
f 49/212/22 71/206/22 59/210/22
f 67/213/22 55/211/22 68/207/22
f 49/212/22 61/214/22 71/206/22
f 67/213/22 50/215/22 55/211/22
f 61/214/22 49/212/22 50/215/22
f 67/213/22 61/214/22 50/215/22
f 61/214/22 67/213/22 63/216/22
f 67/183/26 64/182/25 63/181/25
f 64/182/25 67/183/26 65/184/26

