# Created by Kenney (www.kenney.nl)

mtllib shakerSalt.mtl

g shakerSalt

v 0.02576402 0.175 -0.03229662
v 0.03229662 0.175 -0.02576402
v 0.02537038 0.196 -0.02537038
v 0.02537038 0.196 0.02537038
v 0.03229662 0.175 0.02576402
v 0.02576402 0.175 0.03229662
v -0.03229662 0.175 0.02576402
v -0.02537038 0.196 0.02537038
v -0.02576402 0.175 0.03229662
v -0.03229662 0.175 -0.02576402
v -0.02576402 0.175 -0.03229662
v -0.02537038 0.196 -0.02537038
v -0.02576402 0.175 -0.02576402
v -0.02576402 0.175 0.02576402
v -0.02430568 0.154 -0.02430568
v -0.02430568 0.154 0.02430568
v 0.02430568 0.154 0.02430568
v 0.02576402 0.175 0.02576402
v 0.02430568 0.154 -0.02430568
v 0.02576402 0.175 -0.02576402
v -0.04746 0.021 0.03358452
v -0.04746 0.133 0.03358452
v -0.03358452 0.021 0.04746
v -0.03358452 0.133 0.04746
v 0.02972081 0 0.042
v -0.02972081 0 0.042
v 0.03358452 0.021 0.04746
v -0.042 0.154 0.02972081
v -0.02972081 0.154 0.042
v -0.04746 0.133 -0.03358452
v -0.042 0.154 -0.02972081
v -0.04746 0.021 -0.03358452
v -0.03358452 0.133 -0.04746
v -0.02972081 0.154 -0.042
v -0.042 0 -0.02972081
v -0.042 0 0.02972081
v -0.02972081 0 -0.042
v -0.03358452 0.021 -0.04746
v 0.03358452 0.133 -0.04746
v 0.03358452 0.105 -0.04746
v 0.04746 0.133 -0.03358452
v 0.04746 0.105 -0.03358452
v 0.03358452 0.021 -0.04746
v 0.03358452 0.049 -0.04746
v 0.03358452 0.049 0.04746
v 0.03358452 0.105 0.04746
v 0.03358452 0.133 0.04746
v 0.04746 0.049 -0.03358452
v 0.04746 0.021 -0.03358452
v 0.04746 0.049 0.03358452
v 0.04746 0.021 0.03358452
v 0.02972081 0.154 -0.042
v 0.04746 0.133 0.03358452
v 0.042 0.154 -0.02972081
v 0.042 0.154 0.02972081
v 0.02972081 0 -0.042
v 0.02972081 0.154 0.042
v 0.042 0 0.02972081
v 0.042 0 -0.02972081
v 0.04746 0.105 0.03358452

vn 0.3448782 0.299831 -0.8894719
vn 0.8894719 0.299831 -0.3448782
vn 0.6493418 0.3958667 -0.6493418
vn 0.6493418 0.3958667 0.6493418
vn 0.8894719 0.299831 0.3448782
vn 0.3448782 0.299831 0.8894719
vn -0.8894719 0.299831 0.3448782
vn -0.6493418 0.3958667 0.6493418
vn -0.3448782 0.299831 0.8894719
vn -0.8894719 0.299831 -0.3448782
vn -0.3448782 0.299831 -0.8894719
vn -0.6493418 0.3958667 -0.6493418
vn 0 1 0
vn -0.9975974 -0.06927794 0
vn 0 -0.06927794 0.9975974
vn 0 -0.06927794 -0.9975974
vn 0.9975974 -0.06927794 0
vn 0 -1 0
vn -0.9238795 0 0.3826834
vn -0.3826834 0 0.9238795
vn 0.3493681 -0.2954657 0.8891805
vn -0.3493681 -0.2954657 0.8891805
vn 0.378375 -0.2975153 0.8765369
vn -0.378375 -0.2975153 0.8765369
vn -0.8891805 0.2954657 0.3493681
vn -0.3493681 0.2954657 0.8891805
vn -0.8765369 0.2975153 0.378375
vn -0.378375 0.2975153 0.8765369
vn -0.8765369 0.2975153 -0.378375
vn -0.8891805 0.2954657 -0.3493681
vn -0.9238795 0 -0.3826834
vn -0.378375 0.2975153 -0.8765369
vn -0.3493681 0.2954657 -0.8891805
vn -0.8765369 -0.2975153 -0.378375
vn -0.8765369 -0.2975153 0.378375
vn -0.8891805 -0.2954657 -0.3493681
vn -0.8891805 -0.2954657 0.3493681
vn -0.3493681 -0.2954657 -0.8891805
vn -0.378375 -0.2975153 -0.8765369
vn 0.3826834 0 -0.9238795
vn 0.2527247 0 -0.9675382
vn 0.9238795 0 -0.3826834
vn -0.3826834 0 -0.9238795
vn 0.3826834 0 0.9238795
vn 0.2527247 0 0.9675382
vn 0.9238795 0 0.3826834
vn 0.378375 0.2975153 -0.8765369
vn 0.3493681 0.2954657 -0.8891805
vn 0.8765369 0.2975153 -0.378375
vn 0.8765369 0.2975153 0.378375
vn 0.8891805 0.2954657 -0.3493681
vn 0.8891805 0.2954657 0.3493681
vn 0.3493681 -0.2954657 -0.8891805
vn 0.378375 -0.2975153 -0.8765369
vn 0.378375 0.2975153 0.8765369
vn 0.3493681 0.2954657 0.8891805
vn 0.8891805 -0.2954657 0.3493681
vn 0.8765369 -0.2975153 0.378375
vn 0.8765369 -0.2975153 -0.378375
vn 0.8891805 -0.2954657 -0.3493681
vn 0.7071068 0 0.7071068
vn 0.7071068 0 -0.7071068

vt 0.18186 6.302759
vt -0.18186 6.302759
vt 8.038015E-14 7.154273
vt 6.028511E-14 7.154273
vt -5.984102E-14 7.154273
vt -8.082424E-14 7.154273
vt 1.014331 6.144795
vt -1.014331 6.144795
vt 0.998834 7.015375
vt -0.998834 7.015375
vt -0.998834 -0.998834
vt -0.998834 0.998834
vt 0.998834 -0.998834
vt 0.998834 0.998834
vt -1.014331 6.943481
vt 1.014331 6.943481
vt -0.9569165 6.114718
vt 0.9569165 6.114718
vt -1.27152 -1.014331
vt -1.27152 1.014331
vt -1.014331 -1.27152
vt -1.014331 -1.014331
vt 1.014331 -1.27152
vt -1.014331 1.014331
vt -1.014331 1.27152
vt 1.014331 -1.014331
vt 1.014331 1.014331
vt 1.014331 1.27152
vt 1.27152 -1.014331
vt 1.27152 1.014331
vt -0.3862775 0.8267717
vt -0.3862775 5.23622
vt 0.3862775 0.8267717
vt 0.3862775 5.23622
vt 1.170111 0.4160875
vt -1.170111 0.4160875
vt 1.322225 1.270347
vt -1.322225 1.270347
vt -0.3418385 5.186568
vt 0.3418385 5.186568
vt -0.3862775 4.320009
vt 0.3862775 4.320009
vt -1.322225 4.597553
vt -1.170111 5.451813
vt 1.322225 4.597553
vt 1.170111 5.451813
vt -1.322225 0.8267717
vt -1.322225 5.23622
vt 1.322225 0.8267717
vt 1.322225 5.23622
vt 0.3418385 0.5980514
vt -0.3418385 0.5980514
vt 0.3862775 1.46461
vt -0.3862775 1.46461
vt 0.3862775 4.133858
vt -0.3862775 4.133858
vt -1.322225 1.929134
vt -1.322225 4.133858
vt 1.322225 1.929134
vt 1.322225 4.133858
vt 0.3862775 1.929134
vt -0.3862775 1.929134
vt 1.653543 1.170111
vt 1.653543 -1.170111
vt 1.170111 1.653543
vt 1.170111 -1.653543
vt -1.170111 1.653543
vt -1.170111 -1.653543
vt -1.653543 1.170111
vt -1.653543 -1.170111
vt -0.9569165 -0.9569165
vt -0.9569165 0.9569165
vt 0.9569165 -0.9569165
vt 0.9569165 0.9569165

usemtl greyDark

f 3/3/3 2/2/2 1/1/1
f 6/2/6 5/1/5 4/4/4
f 9/1/9 8/5/8 7/2/7
f 12/6/12 11/2/11 10/1/10
f 3/9/3 5/8/5 2/7/2
f 5/8/5 3/9/3 4/10/4
f 7/7/7 12/10/12 10/8/10
f 12/10/12 7/7/7 8/9/8
f 12/9/12 1/8/1 11/7/11
f 1/8/1 12/9/12 3/10/3
f 4/9/4 9/8/9 6/7/6
f 9/8/9 4/9/4 8/10/8
f 12/13/13 4/12/13 3/11/13
f 4/12/13 12/13/13 8/14/13
f 15/17/14 14/16/14 13/15/14
f 14/16/14 15/17/14 16/18/14
f 18/16/15 16/17/15 17/18/15
f 16/17/15 18/16/15 14/15/15
f 13/16/16 19/17/16 15/18/16
f 19/17/16 13/16/16 20/15/16
f 18/15/17 19/18/17 20/16/17
f 19/18/17 18/15/17 17/17/17
f 11/21/18 7/20/18 10/19/18
f 13/22/18 7/20/18 11/21/18
f 1/23/18 13/22/18 11/21/18
f 14/24/18 7/20/18 13/22/18
f 14/24/18 9/25/18 7/20/18
f 1/23/18 20/26/18 13/22/18
f 18/27/18 9/25/18 14/24/18
f 1/23/18 18/27/18 20/26/18
f 9/25/18 18/27/18 6/28/18
f 1/23/18 6/28/18 18/27/18
f 2/29/18 6/28/18 1/23/18
f 6/28/18 2/29/18 5/30/18

usemtl brownDark

f 23/33/20 22/32/19 21/31/19
f 22/32/19 23/33/20 24/34/20
f 27/37/23 26/36/22 25/35/21
f 26/36/22 27/37/23 23/38/24
f 22/41/27 29/40/26 28/39/25
f 29/40/26 22/41/27 24/42/28
f 22/45/27 31/44/30 30/43/29
f 31/44/30 22/45/27 28/46/25
f 21/49/19 30/48/31 32/47/31
f 30/48/31 21/49/19 22/50/19
f 31/40/30 33/41/32 30/42/29
f 33/41/32 31/40/30 34/39/33
f 35/36/36 21/37/35 32/38/34
f 21/37/35 35/36/36 36/35/37
f 32/53/34 37/52/38 35/51/36
f 37/52/38 32/53/34 38/54/39
f 41/32/42 40/55/41 39/34/40
f 40/55/41 41/32/42 42/56/42
f 33/50/43 43/47/40 38/49/43
f 43/47/40 33/50/43 44/57/41
f 44/57/41 33/50/43 40/58/41
f 40/58/41 33/50/43 39/48/40
f 45/59/45 23/47/20 27/49/44
f 23/47/20 45/59/45 24/48/20
f 24/48/20 45/59/45 46/60/45
f 24/48/20 46/60/45 47/50/44
f 50/57/46 49/49/42 48/59/42
f 49/49/42 50/57/46 51/47/46
f 34/46/33 39/43/47 33/45/32
f 39/43/47 34/46/33 52/44/48
f 54/46/51 53/43/50 41/45/49
f 53/43/50 54/46/51 55/44/52
f 38/37/39 56/36/53 37/35/38
f 56/36/53 38/37/39 43/38/54
f 57/46/56 24/43/28 47/45/55
f 24/43/28 57/46/56 29/44/26
f 57/39/56 53/42/50 55/40/52
f 53/42/50 57/39/56 47/41/55
f 52/40/48 41/41/49 39/42/47
f 41/41/49 52/40/48 54/39/51
f 26/51/22 21/54/35 36/52/37
f 21/54/35 26/51/22 23/53/24
f 51/53/58 25/52/21 58/51/57
f 25/52/21 51/53/58 27/54/23
f 51/38/58 59/35/60 49/37/59
f 59/35/60 51/38/58 58/36/57
f 45/62/45 51/33/46 50/61/46
f 51/33/46 45/62/45 27/31/44
f 25/65/18 59/64/18 58/63/18
f 59/64/18 25/65/18 56/66/18
f 56/66/18 25/65/18 26/67/18
f 56/66/18 26/67/18 37/68/18
f 37/68/18 26/67/18 36/69/18
f 37/68/18 36/69/18 35/70/18
f 30/34/31 38/31/43 32/33/31
f 38/31/43 30/34/31 33/32/43
f 49/54/59 56/51/53 43/53/54
f 56/51/53 49/54/59 59/52/60
f 52/68/13 55/69/13 54/70/13
f 55/69/13 52/68/13 57/67/13
f 57/67/13 52/68/13 19/71/13
f 19/71/13 52/68/13 34/66/13
f 17/72/13 57/67/13 19/71/13
f 19/71/13 34/66/13 15/73/13
f 57/67/13 17/72/13 29/65/13
f 15/73/13 34/66/13 16/74/13
f 29/65/13 17/72/13 16/74/13
f 29/65/13 16/74/13 34/66/13
f 29/65/13 34/66/13 31/64/13
f 29/65/13 31/64/13 28/63/13
f 53/48/46 42/60/42 41/50/42
f 42/60/42 53/48/46 60/58/46
f 47/32/44 60/55/46 53/34/46
f 60/55/46 47/32/44 46/56/45
f 48/62/42 43/33/40 44/61/41
f 43/33/40 48/62/42 49/31/42

usemtl _defaultMat

f 60/6/46 48/2/42 42/1/42
f 48/6/42 60/2/46 50/1/46
f 46/55/61 50/32/46 60/56/46
f 50/55/46 46/32/61 45/56/61
f 42/33/42 44/62/62 40/31/62
f 44/33/62 42/62/42 48/31/42

