# Created by Kenney (www.kenney.nl)

mtllib sodaBottle.mtl

g sodaBottle

v 0.06975135 0 -7.219114E-16
v 0.03487568 0 -0.06040644
v 0.03487568 0 0.06040644
v -0.03487568 0 0.06040644
v -0.03487568 0 -0.06040644
v -0.06975135 0 -7.219114E-16
v -0.045123 0.019224 -0.07815533
v 0.045123 0.019224 -0.07815533
v -0.090246 0.019224 -7.219114E-16
v -0.045123 0.019224 0.07815533
v 0.090246 0.019224 -7.219114E-16
v 0.045123 0.019224 0.07815533
v -0.05064561 0.390412 7.219114E-16
v -0.03031343 0.520412 2.165734E-15
v -0.02532281 0.390412 0.04386039
v -0.01515672 0.520412 0.0262522
v 0.02532281 0.390412 0.04386039
v 0.01515672 0.520412 0.0262522
v -0.02532281 0.390412 -0.04386039
v 0.02532281 0.390412 -0.04386039
v -0.01515672 0.520412 -0.0262522
v 0.01515672 0.520412 -0.0262522
v 0.05064561 0.390412 7.219114E-16
v 0.03031343 0.520412 2.165734E-15
v 0.07629336 0.150412 3.609557E-16
v 0.03814668 0.150412 0.06607199
v 0.03814668 0.150412 -0.06607199
v -0.07629336 0.150412 3.609557E-16
v -0.03814668 0.150412 0.06607199
v -0.03814668 0.150412 -0.06607199
v -0.08341408 0.320412 1.082867E-15
v -0.04170704 0.320412 0.07223871
v 0.04170704 0.320412 -0.07223871
v 0.08341408 0.320412 1.082867E-15
v 0.04170704 0.320412 0.07223871
v -0.04170704 0.320412 -0.07223871
v 0.03657822 0.560412 2.165734E-15
v 0.01828911 0.560412 0.03167767
v 0.01828911 0.560412 -0.03167767
v -0.01828911 0.560412 -0.03167767
v -0.01828911 0.560412 0.03167767
v -0.03657822 0.560412 2.165734E-15
v 0.01828911 0.520412 0.03167767
v -0.01828911 0.520412 0.03167767
v 0.01828911 0.520412 -0.03167767
v 0.03657822 0.520412 2.165734E-15
v -0.03657822 0.520412 2.165734E-15
v -0.01828911 0.520412 -0.03167767

vn 0 -1 0
vn -0.3420677 -0.7293549 -0.5924787
vn 0.3420677 -0.7293549 -0.5924787
vn -0.6841355 -0.7293549 0
vn -0.3420677 -0.7293549 0.5924787
vn 0.6841355 -0.7293549 0
vn 0.3420677 -0.7293549 0.5924787
vn -0.9879892 0.1545229 0
vn -0.4939946 0.1545229 0.8556238
vn 0.4939946 0.1545229 0.8556238
vn -0.4939946 0.1545229 -0.8556238
vn 0.4939946 0.1545229 -0.8556238
vn 0.9879892 0.1545229 0
vn 0.9943917 0.1057596 0
vn 0.4971959 0.1057596 0.8611684
vn 0.4971959 0.1057596 -0.8611684
vn -0.9943917 0.1057596 0
vn -0.4971959 0.1057596 0.8611684
vn -0.4971959 0.1057596 -0.8611684
vn -0.9056778 0.4239667 0
vn -0.4528389 0.4239666 0.78434
vn 0.4528389 0.4239666 -0.78434
vn 0.9056778 0.4239667 0
vn 0.4528389 0.4239666 0.78434
vn -0.4528389 0.4239666 -0.78434
vn 0 1 0
vn 0.5 0 0.8660254
vn -0.5 0 0.8660254
vn 0.5 0 -0.8660254
vn 1 0 0
vn -1 0 0
vn -0.5 0 -0.8660254
vn -0.4995619 -0.04184986 -0.8652667
vn -0.9991239 -0.04184986 0
vn 0.9991239 -0.04184986 0
vn 0.4995619 -0.04184986 0.8652667
vn 0.4995619 -0.04184986 -0.8652667
vn -0.4995619 -0.04184986 0.8652667

vt 2.746116 -2.842171E-14
vt 1.373058 -2.378206
vt 1.373058 2.378206
vt -1.373058 2.378206
vt -1.373058 -2.378206
vt -2.746116 -2.842171E-14
vt 1.373058 1.61327
vt -1.373058 1.61327
vt 1.776496 2.643371
vt -1.776496 2.643371
vt -0.9969609 14.99969
vt -0.5967211 20.16454
vt 0.9969609 14.99969
vt 0.5967211 20.16454
vt 1.776496 0.4714431
vt -1.776496 0.4714431
vt 1.501838 5.658187
vt -1.501838 5.658187
vt -0.9969609 13.59574
vt 0.9969609 13.59574
vt -1.642009 10.62197
vt 1.642009 10.62197
vt -1.440087 8.526513E-14
vt -0.7200437 1.247152
vt -0.7200437 -1.247152
vt 0.7200437 -1.247152
vt 0.7200437 1.247152
vt 1.440087 8.526513E-14
vt 0.7200437 20.48866
vt -0.7200437 20.48866
vt 0.7200437 22.06347
vt -0.7200437 22.06347
vt -1.642009 12.70945
vt 1.642009 12.70945
vt -1.501838 6.012138
vt 1.501838 6.012138
vt 1.193442 8.526513E-14
vt 0.5967211 1.033551
vt 0.5967211 -1.033551
vt -0.5967211 1.033551
vt -0.5967211 -1.033551
vt -1.193442 8.526513E-14

usemtl brownDark

f 3/3/1 2/2/1 1/1/1
f 2/2/1 3/3/1 4/4/1
f 2/2/1 4/4/1 5/5/1
f 5/5/1 4/4/1 6/6/1
f 7/9/2 2/8/3 5/7/2
f 2/8/3 7/9/2 8/10/3
f 6/7/4 7/10/2 5/8/2
f 7/10/2 6/7/4 9/9/4
f 10/9/5 6/8/4 4/7/5
f 6/8/4 10/9/5 9/10/4
f 1/8/6 8/9/3 11/10/6
f 8/9/3 1/8/6 2/7/3
f 12/9/7 4/8/5 3/7/7
f 4/8/5 12/9/7 10/10/5
f 12/10/7 1/7/6 11/9/6
f 1/7/6 12/10/7 3/8/7
f 15/13/9 14/12/8 13/11/8
f 14/12/8 15/13/9 16/14/9
f 18/14/10 15/11/9 17/13/10
f 15/11/9 18/14/10 16/12/9
f 21/14/11 20/11/12 19/13/11
f 20/11/12 21/14/11 22/12/12
f 22/14/12 23/11/13 20/13/12
f 23/11/13 22/14/12 24/12/13
f 13/13/8 21/12/11 19/11/11
f 21/12/11 13/13/8 14/14/8
f 24/14/13 17/11/10 23/13/13
f 17/11/10 24/14/13 18/12/10
f 25/17/14 12/16/15 11/15/14
f 12/16/15 25/17/14 26/18/15
f 27/17/16 11/16/14 8/15/16
f 11/16/14 27/17/16 25/18/14
f 10/15/18 28/18/17 9/16/17
f 28/18/17 10/15/18 29/17/18
f 30/17/19 8/16/16 7/15/19
f 8/16/16 30/17/19 27/18/16
f 26/17/15 10/16/18 12/15/15
f 10/16/18 26/17/15 29/18/18
f 9/15/17 30/18/19 7/16/19
f 30/18/19 9/15/17 28/17/17
f 31/21/20 15/20/21 13/19/20
f 15/20/21 31/21/20 32/22/21
f 20/20/22 34/21/23 33/22/22
f 34/21/23 20/20/22 23/19/23
f 17/19/24 34/22/23 23/20/23
f 34/22/23 17/19/24 35/21/24
f 31/22/20 19/19/25 36/21/25
f 19/19/25 31/22/20 13/20/20
f 19/20/25 33/21/22 36/22/25
f 33/21/22 19/20/25 20/19/22
f 17/20/24 32/21/21 35/22/24
f 32/21/21 17/20/24 15/19/21

usemtl red

f 39/25/26 38/24/26 37/23/26
f 38/24/26 39/25/26 40/26/26
f 38/24/26 40/26/26 41/27/26
f 41/27/26 40/26/26 42/28/26
f 38/31/27 44/30/28 43/29/27
f 44/30/28 38/31/27 41/32/28
f 37/32/30 45/29/29 39/31/29
f 45/29/29 37/32/30 46/30/30
f 44/29/28 42/32/31 47/30/31
f 42/32/31 44/29/28 41/31/28
f 38/32/27 46/29/30 37/31/30
f 46/29/30 38/32/27 43/30/27
f 40/31/32 45/30/29 48/29/32
f 45/30/29 40/31/32 39/32/29
f 47/29/31 40/32/32 48/30/32
f 40/32/32 47/29/31 42/31/31
f 30/35/33 31/34/34 36/33/33
f 31/34/34 30/35/33 28/36/34
f 34/34/35 26/35/36 25/36/35
f 26/35/36 34/34/35 35/33/36
f 34/33/35 27/36/37 33/34/37
f 27/36/37 34/33/35 25/35/35
f 35/34/36 29/35/38 26/36/36
f 29/35/38 35/34/36 32/33/38
f 29/36/38 31/33/34 28/35/34
f 31/33/34 29/36/38 32/34/38
f 36/34/33 27/35/37 30/36/33
f 27/35/37 36/34/33 33/33/37
f 43/27/1 24/37/1 46/28/1
f 24/37/1 45/26/1 46/28/1
f 24/37/1 43/27/1 18/38/1
f 45/26/1 24/37/1 22/39/1
f 18/38/1 43/27/1 44/24/1
f 18/38/1 44/24/1 16/40/1
f 45/26/1 22/39/1 48/25/1
f 48/25/1 22/39/1 21/41/1
f 16/40/1 44/24/1 14/42/1
f 48/25/1 21/41/1 14/42/1
f 14/42/1 44/24/1 47/23/1
f 48/25/1 14/42/1 47/23/1

