# Created by Kenney (www.kenney.nl)

mtllib strawberry.mtl

g strawberry

v -0.02 0.01 0.008284271
v -0.034 0.04 0.01408326
v -0.008284271 0.01 0.02
v -0.01408326 0.04 0.034
v -0.008284271 0.01 -0.02
v 0.008284271 0.01 -0.02
v -0.01408326 0.04 -0.034
v 0.01408326 0.04 -0.034
v 0.05984 0.09 -0.02478654
v 0.034 0.04 -0.01408326
v 0.05984 0.09 0.02478654
v 0.034 0.04 0.01408326
v -0.0484704 0.13 0.0200771
v -0.0200771 0.13 0.0484704
v -0.05984 0.09 0.02478654
v -0.02478654 0.09 0.05984
v 0.008284271 0.01 0.02
v 0.004085802 0 0.009864
v -0.004085802 0 0.009864
v -0.05984 0.09 -0.02478654
v -0.02478654 0.09 -0.05984
v -0.0484704 0.13 -0.0200771
v -0.0200771 0.13 -0.0484704
v 0.02 0.01 0.008284271
v 0.009864 0 0.004085802
v -0.034 0.04 -0.01408326
v 0.02 0.01 -0.008284271
v 0.009864 0 -0.004085802
v 0.02478654 0.09 0.05984
v 0.0200771 0.13 0.0484704
v 0.0484704 0.13 0.0200771
v 0.0484704 0.13 -0.0200771
v 0.02478654 0.09 -0.05984
v 0.0200771 0.13 -0.0484704
v -0.009864 0 0.004085802
v 0.004085802 0 -0.009864
v -0.004085802 0 -0.009864
v -0.009864 0 -0.004085802
v -0.02 0.01 -0.008284271
v 0.01408326 0.04 0.034
v 0.02003855 0.16 0.03867057
v 1.046772E-14 0.1351595 0.05868763
v -0.02003855 0.16 0.03867057
v -0.02003855 0.16 -0.03867057
v 5.775291E-15 0.1351595 -0.05868763
v 0.02003855 0.16 -0.03867057
v -0.05868763 0.1351595 -2.887646E-15
v -0.03867057 0.16 -0.02003855
v -0.03867057 0.16 0.02003855
v 0.03867057 0.16 -0.02003855
v 0.05868763 0.1351595 2.887646E-15
v 0.03867057 0.16 0.02003855
v 0.01253772 0.15 -0.01253772
v 0.01253772 0.15 0.01253772
v -0.004575649 0.15 -0.004575649
v 0.004575649 0.15 -0.004575649
v -0.006863474 0.177 -0.006863474
v 0.006863474 0.177 -0.006863474
v -0.01253772 0.15 0.01253772
v -0.01253772 0.15 -0.01253772
v 0.006863474 0.177 0.006863474
v -0.006863474 0.177 0.006863474
v 0.004575649 0.15 0.004575649
v -0.004575649 0.15 0.004575649
v -0.0242352 0.15 4.331469E-15
v -0.0242352 0.15 -0.01003855
v -0.0242352 0.15 0.01003855
v -0.01003855 0.15 -0.0242352
v -2.887646E-15 0.15 -0.0242352
v 0.01003855 0.15 -0.0242352
v 0.0242352 0.15 -0.01003855
v -0.01003855 0.15 0.0242352
v 3.609557E-16 0.15 0.0242352
v 0.01003855 0.15 0.0242352
v 0.0242352 0.15 1.443823E-15
v 0.0242352 0.15 0.01003855

vn -0.8246484 -0.4508633 0.3415805
vn -0.3415806 -0.4508633 0.8246484
vn -0.3415806 -0.4508633 -0.8246484
vn 0.3415806 -0.4508633 -0.8246484
vn 0.8063034 -0.4881915 -0.3339818
vn 0.8063034 -0.4881915 0.3339818
vn -0.8830329 0.2940569 0.3657642
vn -0.3657642 0.2940569 0.8830329
vn 0.257791 -0.7390594 0.6223625
vn -0.257791 -0.7390594 0.6223625
vn -0.8830329 0.2940569 -0.3657642
vn -0.3657642 0.2940569 -0.8830329
vn 0.6223625 -0.7390594 0.257791
vn -0.8063034 -0.4881915 -0.3339818
vn -0.8063034 -0.4881915 0.3339818
vn 0.6223625 -0.7390594 -0.257791
vn 0.3657642 0.2940569 0.8830329
vn 0.8830329 0.2940569 0.3657642
vn 0.8830329 0.2940569 -0.3657642
vn 0.3657642 0.2940569 -0.8830329
vn -0.6223625 -0.7390594 0.257791
vn 0.257791 -0.7390594 -0.6223625
vn -0.257791 -0.7390594 -0.6223625
vn -0.6223625 -0.7390594 -0.257791
vn 0.3415806 -0.4508633 0.8246484
vn 0 -1 0
vn -0.3339818 -0.4881915 -0.8063034
vn 0.3339818 -0.4881915 -0.8063034
vn 0.8246484 -0.4508633 -0.3415805
vn 0.8246484 -0.4508633 0.3415805
vn -0.8246484 -0.4508633 -0.3415805
vn 0.3339818 -0.4881915 0.8063034
vn -0.3339818 -0.4881915 0.8063034
vn 0 0.9855846 0.1691832
vn 0 0.6274559 0.7786521
vn 0 -0.9855846 -0.1691832
vn 0 -0.6274559 -0.7786521
vn 0 0.9855846 -0.1691832
vn 0 0.6274559 -0.7786521
vn 0 -0.9855846 0.1691832
vn 0 -0.6274559 0.7786521
vn -0.7786521 0.6274559 0
vn -0.1691832 0.9855846 0
vn 0.1691832 -0.9855846 0
vn 0.7786521 -0.6274559 0
vn 0.1691832 0.9855846 0
vn 0.7786521 0.6274559 0
vn -0.1691832 -0.9855846 0
vn -0.7786521 -0.6274559 0
vn -0.3573878 0.9339561 0
vn 0.3573878 -0.9339561 0
vn 0 -0.08443169 -0.9964293
vn 0 0.9339561 -0.3573878
vn 0 -0.9339561 0.3573878
vn 0 0.9339561 0.3573878
vn 0 -0.9339561 -0.3573878
vn 0 1 0
vn 0 -0.08443169 0.9964293
vn 0.9964293 -0.08443169 0
vn -0.9964293 -0.08443169 0
vn 0.3573878 0.9339561 0
vn -0.3573878 -0.9339561 0
vn -0.2320234 0.7952312 -0.5601541
vn -0.5601541 0.7952312 -0.2320234
vn 0.5601541 0.7952312 -0.2320234
vn 0.2320234 0.7952312 -0.5601541
vn -0.5601541 0.7952312 0.2320234
vn -0.6364958 0.7712802 0
vn 0 0.7712802 -0.6364958
vn 0.2320234 0.7952312 0.5601541
vn -0.2320234 0.7952312 0.5601541
vn 0 0.7712802 0.6364958
vn 0.5601541 0.7952312 0.2320234
vn 0.6364958 0.7712802 0

vt -0.3261524 0.6897457
vt -0.5544591 1.993127
vt 0.3261524 0.6897457
vt 0.5544591 1.993127
vt 0.975848 4.229423
vt 0.5544591 2.013581
vt -0.975848 4.229423
vt -0.5544591 2.013581
vt -0.7904369 4.401355
vt 0.7904369 4.401355
vt -0.975848 2.764171
vt 0.975848 2.764171
vt 0.3261524 0.8370267
vt 0.1608584 0.2764508
vt -0.3261524 0.8370267
vt -0.1608584 0.2764508
vt 0.3883465 0.1608584
vt 0.3883465 -0.1608584
vt 0.1608584 0.3883465
vt 0.1608584 -0.3883465
vt -0.1608584 0.3883465
vt -0.1608584 -0.3883465
vt -0.3883465 0.1608584
vt -0.3883465 -0.1608584
vt 0.7889192 3.949617
vt 2.06449E-13 2.693634
vt -0.7889192 3.949617
vt -3.325131E-14 2.693634
vt 2.861013E-13 2.693634
vt -1.136868E-13 2.693634
vt -0.7889192 3.673176
vt 0.7889192 3.673176
vt -0.493611 2.571569
vt 0.493611 2.571569
vt 0.1801437 5.899635
vt -0.1801437 5.899635
vt 0.2702155 6.966436
vt -0.2702155 6.966436
vt -0.2702155 -0.2702155
vt -0.2702155 0.2702155
vt 0.2702155 -0.2702155
vt 0.2702155 0.2702155
vt 0.1801437 -0.1801437
vt 0.493611 -0.493611
vt -0.1801437 -0.1801437
vt 0.1801437 0.1801437
vt -0.493611 -0.493611
vt 0.493611 0.493611
vt -0.1801437 0.1801437
vt -0.493611 0.493611
vt 0.9541417 1.705303E-13
vt 0.9541417 -0.3952184
vt 0.9541417 0.3952184
vt 0.3952184 -0.9541417
vt 1.136868E-13 -0.9541417
vt -0.3952184 -0.9541417
vt -0.9541417 -0.3952184
vt 0.3952184 0.9541417
vt -1.421085E-14 0.9541417
vt -0.3952184 0.9541417
vt -0.9541417 5.684342E-14
vt -0.9541417 0.3952184
vt -0.3952184 3.022923
vt 0.3952184 3.022923
vt -0.7904369 1.785835
vt 0.7904369 1.785835
vt 1.36231E-13 3.022923
vt -1.881909E-13 3.022923
vt -6.810167E-14 3.022923
vt -1.048668E-13 3.022923

usemtl red

f 3/3/2 2/2/1 1/1/1
f 2/2/1 3/3/2 4/4/2
f 7/4/3 6/1/4 5/3/3
f 6/1/4 7/4/3 8/2/4
f 11/7/6 10/6/5 9/5/5
f 10/6/5 11/7/6 12/8/6
f 15/11/7 14/10/8 13/9/7
f 14/10/8 15/11/7 16/12/8
f 3/15/10 18/14/9 17/13/9
f 18/14/9 3/15/10 19/16/10
f 22/10/11 21/11/12 20/12/11
f 21/11/12 22/10/11 23/9/12
f 17/15/9 25/14/13 24/13/13
f 25/14/13 17/15/9 18/16/9
f 26/8/14 15/5/15 20/7/14
f 15/5/15 26/8/14 2/6/15
f 25/16/13 27/13/16 24/15/13
f 27/13/16 25/16/13 28/14/16
f 30/10/17 16/11/8 29/12/17
f 16/11/8 30/10/17 14/9/8
f 30/9/17 11/12/18 31/10/18
f 11/12/18 30/9/17 29/11/17
f 15/12/7 22/9/11 20/11/11
f 22/9/11 15/12/7 13/10/7
f 32/10/19 11/11/18 9/12/19
f 11/11/18 32/10/19 31/9/18
f 23/10/12 33/11/20 21/12/12
f 33/11/20 23/10/12 34/9/20
f 3/13/10 35/16/21 19/14/10
f 35/16/21 3/13/10 1/15/21
f 36/16/22 5/13/23 6/15/22
f 5/13/23 36/16/22 37/14/23
f 38/14/24 5/15/23 37/16/23
f 5/15/23 38/14/24 39/13/24
f 40/4/25 3/1/2 17/3/25
f 3/1/2 40/4/25 4/2/2
f 18/19/26 28/18/26 25/17/26
f 28/18/26 18/19/26 36/20/26
f 36/20/26 18/19/26 19/21/26
f 36/20/26 19/21/26 37/22/26
f 37/22/26 19/21/26 35/23/26
f 37/22/26 35/23/26 38/24/26
f 34/10/20 9/11/19 33/12/20
f 9/11/19 34/10/20 32/9/19
f 28/16/16 6/13/22 27/15/16
f 6/13/22 28/16/16 36/14/22
f 21/5/27 8/8/28 7/6/27
f 8/8/28 21/5/27 33/7/28
f 1/13/21 38/16/24 35/14/21
f 38/16/24 1/13/21 39/15/24
f 8/4/4 27/1/29 6/3/4
f 27/1/29 8/4/4 10/2/29
f 12/2/30 27/3/29 10/4/29
f 27/3/29 12/2/30 24/1/30
f 39/1/31 2/4/1 26/2/31
f 2/4/1 39/1/31 1/3/1
f 33/5/28 10/8/5 8/6/28
f 10/8/5 33/5/28 9/7/5
f 12/4/30 17/1/25 24/3/30
f 17/1/25 12/4/30 40/2/25
f 29/5/32 4/8/33 40/6/32
f 4/8/33 29/5/32 16/7/33
f 4/6/33 15/7/15 2/8/15
f 15/7/15 4/6/33 16/5/33
f 26/4/31 5/1/3 39/3/31
f 5/1/3 26/4/31 7/2/3
f 11/5/6 40/8/32 12/6/6
f 40/8/32 11/5/6 29/7/32
f 20/5/14 7/8/27 26/6/14
f 7/8/27 20/5/14 21/7/27

usemtl green

f 43/27/34 42/26/35 41/25/34
f 41/25/36 42/26/37 43/27/36
f 46/27/38 45/28/39 44/25/38
f 44/25/40 45/28/41 46/27/40
f 49/25/43 48/27/43 47/29/42
f 47/29/45 48/27/44 49/25/44
f 52/27/46 51/30/47 50/25/46
f 50/25/48 51/30/49 52/27/48
f 53/33/50 52/32/46 50/31/46
f 52/32/46 53/33/50 54/34/50
f 50/31/48 52/32/48 53/33/51
f 54/34/51 53/33/51 52/32/48
f 57/37/52 56/36/52 55/35/52
f 56/36/52 57/37/52 58/38/52
f 54/33/53 43/32/34 41/31/34
f 43/32/34 54/33/53 59/34/53
f 41/31/36 43/32/36 54/33/54
f 59/34/54 54/33/54 43/32/36
f 44/31/38 53/34/55 46/32/38
f 53/34/55 44/31/38 60/33/55
f 46/32/40 53/34/56 44/31/40
f 60/33/56 44/31/40 53/34/56
f 57/41/57 61/40/57 58/39/57
f 61/40/57 57/41/57 62/42/57
f 61/37/58 64/36/58 63/35/58
f 64/36/58 61/37/58 62/38/58
f 61/38/59 56/35/59 58/37/59
f 56/35/59 61/38/59 63/36/59
f 55/36/60 62/37/60 57/38/60
f 62/37/60 55/36/60 64/35/60
f 60/34/61 49/31/43 59/33/61
f 49/31/43 60/34/61 48/32/43
f 59/33/62 49/31/44 60/34/62
f 48/32/44 60/34/62 49/31/44
f 56/45/57 60/44/57 55/43/57
f 55/43/57 60/44/57 64/46/57
f 60/44/57 56/45/57 53/47/57
f 64/46/57 60/44/57 59/48/57
f 63/49/57 53/47/57 56/45/57
f 59/48/57 63/49/57 64/46/57
f 63/49/57 54/50/57 53/47/57
f 54/50/57 63/49/57 59/48/57

usemtl brownLight

f 67/53/57 66/52/57 65/51/57
f 60/44/57 66/52/57 67/53/57
f 60/44/57 68/54/57 66/52/57
f 60/44/57 69/55/57 68/54/57
f 60/44/57 70/56/57 69/55/57
f 53/47/57 70/56/57 60/44/57
f 67/53/57 59/48/57 60/44/57
f 53/47/57 71/57/57 70/56/57
f 72/58/57 59/48/57 67/53/57
f 73/59/57 59/48/57 72/58/57
f 74/60/57 59/48/57 73/59/57
f 71/57/57 53/47/57 54/50/57
f 74/60/57 54/50/57 59/48/57
f 74/60/57 71/57/57 54/50/57
f 74/60/57 75/61/57 71/57/57
f 75/61/57 74/60/57 76/62/57
f 23/65/63 66/64/64 68/63/63
f 66/64/64 23/65/63 22/66/64
f 34/66/66 71/63/65 32/65/65
f 71/63/65 34/66/66 70/64/66
f 65/67/68 13/66/67 67/64/67
f 13/66/67 65/67/68 66/63/64
f 13/66/67 66/63/64 22/65/64
f 23/66/63 70/63/66 34/65/66
f 70/63/66 23/66/63 69/68/69
f 69/68/69 23/66/63 68/64/63
f 74/64/70 14/65/71 30/66/70
f 14/65/71 74/64/70 73/69/72
f 14/65/71 73/69/72 72/63/71
f 32/66/65 76/63/73 31/65/73
f 76/63/73 32/66/65 75/70/74
f 75/70/74 32/66/65 71/64/65
f 76/64/73 30/65/70 31/66/73
f 30/65/70 76/64/73 74/63/70
f 67/63/67 14/66/71 72/64/71
f 14/66/71 67/63/67 13/65/67

