# Created by Kenney (www.kenney.nl)

mtllib styrofoamDinner.mtl

g styrofoamDinner

v 0.2820718 0.164736 -0.164756
v 0.2820718 0.164736 0.164756
v 0.197392 0.164736 -0.2494358
v 0.215881 0.164736 -0.03165235
v 0.197392 0.164736 0.2494358
v 0.180882 0.164736 -0.05698736
v 0.04428883 0.164736 -0.2494358
v 0.1652241 0.164736 -0.03535682
v 0.2015571 0.164736 0.06206153
v 0.2002231 0.164736 -0.0100218
v 0.1758504 0.164736 0.06928737
v 0.1898655 0.164736 0.02046712
v 0.04428883 0.164736 0.2494358
v 0.1641587 0.164736 0.02769297
v 0.1395327 0.164736 -0.01720154
v 0.1179022 0.164736 -0.03285944
v 0.1141977 0.164736 0.01779741
v 0.09256715 0.164736 0.002139513
v 0.3117947 0.076032 -0.205945
v 0.3117947 0.076032 0.205945
v 0.205945 0.076032 0.3117947
v 0.01456595 0.076032 0.3117947
v 0.205945 0.076032 -0.3117947
v 0.01456595 0.076032 -0.3117947
v -0.3117947 0.076032 0.01456595
v -0.2820718 0.164736 0.04428883
v -0.3117947 0.076032 0.205945
v -0.2820718 0.164736 0.197392
v -0.197392 0.164736 0.2820718
v -0.205945 0.076032 0.3117947
v -0.01456595 0.076032 0.01456595
v -0.04428883 0.164736 0.04428883
v -0.01456595 0.076032 0.3117947
v -0.04428883 0.164736 0.2820718
v -0.1626799 0.164736 0.1196914
v -0.1818909 0.164736 0.1583919
v -0.1626799 0.174736 0.1196914
v -0.1818909 0.184736 0.1583919
v -0.1865981 0.164736 0.1078183
v -0.1865981 0.174736 0.1078183
v -0.2058091 0.164736 0.1465188
v -0.2058091 0.184736 0.1465188
v -0.1098705 0.174736 0.1950179
v -0.1508201 0.184736 0.208799
v -0.1183877 0.174736 0.1697097
v -0.1593373 0.184736 0.1834908
v -0.1098705 0.164736 0.1950179
v -0.1508201 0.164736 0.208799
v -0.1593373 0.164736 0.1834908
v -0.1183877 0.164736 0.1697097
v -0.3117947 0.076032 -0.205945
v -0.205945 0.076032 -0.3117947
v -0.2820718 0.164736 -0.197392
v -0.197392 0.164736 -0.2820718
v -0.01456595 0.076032 -0.3117947
v -0.01456595 0.076032 -0.01456595
v -0.04428883 0.164736 -0.2820718
v -0.04428883 0.164736 -0.04428883
v -0.3117947 0.076032 -0.01456595
v -0.2820718 0.164736 -0.04428883
v -0.1957083 0.164736 -0.215207
v -0.1767641 0.164736 -0.2087947
v -0.2213574 0.164736 -0.1394301
v -0.2024132 0.164736 -0.1330179
v -0.149859 0.164736 -0.1048607
v -0.08975786 0.164736 -0.1576608
v -0.136659 0.164736 -0.0898354
v -0.07655782 0.164736 -0.1426355
v 0.3503311 0.164736 -0.2313989
v 0.2313989 0.164736 -0.3503311
v 0.2154564 0 -0.335808
v 0.335808 0 -0.2154564
v 0.2434657 0.164736 -0.379463
v 0.379463 0.164736 -0.2434657
v 0.2313989 0.164736 0.3503311
v 0.3503311 0.164736 0.2313989
v -0.3393207 0.139392 -0.01456595
v -0.3503311 0.164736 -0.2313989
v -0.3503311 0.164736 0.2313989
v -0.3393207 0.139392 0.01456595
v 0.335808 0 0.2154564
v 0.2154564 0 0.335808
v -0.2154564 0 0.335808
v -0.2154564 0 -0.335808
v -0.335808 0 0.2154564
v -0.335808 0 -0.2154564
v -0.01456595 0.139392 0.01456595
v -0.01456595 0.139392 0.3393207
v -0.2434657 0.164736 -0.379463
v 0.2434657 0.164736 0.379463
v -0.2434657 0.164736 0.379463
v -0.2313989 0.164736 0.3503311
v 0.01456595 0.139392 0.3393207
v -0.379463 0.164736 -0.2434657
v -0.379463 0.164736 0.2434657
v 0.379463 0.164736 0.2434657
v -0.2313989 0.164736 -0.3503311
v -0.01456595 0.139392 -0.01456595
v -0.01456595 0.139392 -0.3393207
v 0.01456595 0.139392 -0.3393207
v -0.1348337 0.199377 -0.1180607
v -0.1216337 0.199377 -0.1030354
v -0.1047831 0.199377 -0.1444608
v -0.09158311 0.199377 -0.1294355
v -0.2021206 0.199377 -0.1962627
v -0.1831764 0.199377 -0.1898505
v -0.1960009 0.199377 -0.1519621
v -0.2149451 0.199377 -0.1583743

vn 0 1 0
vn 0.8049949 0.4495233 -0.3871848
vn 0.8049949 0.4495233 0.3871848
vn 0.8622945 0.4201849 -0.2826532
vn 0.8622945 0.4201849 0.2826532
vn 0.2919237 0.568736 0.7689733
vn 0 0.5751085 0.8180771
vn 0.3508823 0.5609499 0.7498112
vn 0.2919237 0.568736 -0.7689733
vn 0.3508823 0.5609499 -0.7498112
vn 0 0.5751085 -0.8180771
vn -0.9481854 0.3177173 0
vn 0 -1 0
vn -0.8757736 0.3276356 0.3545075
vn -0.8693436 0.3270263 0.3705341
vn -0.3705341 0.3270263 0.8693436
vn -0.3545075 0.3276356 0.8757736
vn 0 0.3177173 -0.9481854
vn 0 0.3177173 0.9481854
vn 0.9481854 0.3177173 0
vn 0.8957118 0 0.4446352
vn -0.8957118 0 -0.4446352
vn 0.1002593 0.9742463 -0.2019712
vn 0.4446352 0 -0.8957118
vn -0.4446352 0 0.8957118
vn 0.2137092 0.9742463 -0.0719211
vn 0.3189593 0 0.9477684
vn -0.3189593 0 -0.9477684
vn -0.9477684 0 0.3189593
vn 0.9477684 0 -0.3189593
vn -0.8757736 0.3276356 -0.3545075
vn -0.3545075 0.3276356 -0.8757736
vn -0.8693436 0.3270263 -0.3705341
vn -0.3705341 0.3270263 -0.8693436
vn -0.8319783 0.4532555 0.3199556
vn -0.3199556 0.4532555 0.8319783
vn -0.8156455 0.4563825 0.3555803
vn -0.3555803 0.4563825 0.8156455
vn 0.352802 -0.2952754 -0.8878869
vn 0.8878869 -0.2952754 -0.352802
vn 0.3757735 -0.2965558 -0.8779801
vn 0.8779801 -0.2965558 -0.3757735
vn -0.3199556 0.4532555 -0.8319783
vn -0.8319783 0.4532555 -0.3199556
vn -0.3555803 0.4563825 -0.8156455
vn -0.8156455 0.4563825 -0.3555803
vn 0.8319783 0.4532555 0.3199556
vn 0.9171854 0.3984606 0
vn 0.8156455 0.4563825 0.3555803
vn 0.8156455 0.4563825 -0.3555803
vn 0.8319783 0.4532555 -0.3199556
vn -1 0 0
vn -0.352802 -0.2952754 -0.8878869
vn -0.3757735 -0.2965558 -0.8779801
vn 0.352802 -0.2952754 0.8878869
vn -0.352802 -0.2952754 0.8878869
vn 0.3757735 -0.2965558 0.8779801
vn -0.3757735 -0.2965558 0.8779801
vn 0.3199556 0.4532555 -0.8319783
vn 0 0.3984606 -0.9171854
vn 0.3555803 0.4563825 -0.8156455
vn -0.8779801 -0.2965558 -0.3757735
vn -0.8779801 -0.2965558 0.3757735
vn -0.8878869 -0.2952754 -0.352802
vn -0.8878869 -0.2952754 0.352802
vn 0 0 -1
vn 0.3199556 0.4532555 0.8319783
vn 0.3555803 0.4563825 0.8156455
vn 0.8779801 -0.2965558 0.3757735
vn 0.8878869 -0.2952754 0.352802
vn 0 0 1
vn 1 0 0
vn 0 0.3984606 0.9171854
vn -0.6506138 0.5 0.5715781
vn 0.6506138 0.5 -0.5715781
vn 0.277659 0.5 -0.8203081
vn 0.9472103 0 0.320613
vn 0.6600017 0 0.7512642
vn -0.6600017 0 -0.7512642
vn -0.277659 0.5 0.8203081
vn -0.9472103 0 -0.320613

vt -11.10519 -6.486456
vt -11.10519 6.486456
vt -7.77134 -9.820306
vt -8.499252 -1.246155
vt -7.77134 9.820306
vt -7.12134 -2.243597
vt -1.743654 -9.820306
vt -6.504888 -1.392001
vt -7.93532 2.443367
vt -7.882799 -0.3945592
vt -6.923243 2.727849
vt -7.475019 0.8057922
vt -1.743654 9.820306
vt -6.462941 1.090274
vt -5.493414 -0.6772259
vt -4.641818 -1.293679
vt -4.495972 0.7006856
vt -3.644376 0.08423279
vt 8.10807 -1.061817
vt -8.10807 -1.061817
vt 6.486456 2.621305
vt -6.486456 2.621305
vt 8.10807 -4.610857
vt 0.5734625 -4.610857
vt 7.77134 -0.341964
vt 1.743654 -0.341964
vt 2.946735 -4.486853
vt -2.946735 -4.486853
vt 1.448838 -0.475228
vt -3.265939 -0.475228
vt -0.5734625 -4.610857
vt -8.10807 -4.610857
vt -1.743654 -0.341964
vt -7.77134 -0.341964
vt -12.27538 3.020484
vt -9.820306 6.703607
vt 12.27538 3.020484
vt 9.820306 6.703607
vt 3.265939 -0.475228
vt -1.448838 -0.475228
vt 12.27538 8.10807
vt 12.27538 -8.10807
vt 8.10807 12.27538
vt 8.10807 -12.27538
vt 0.5734625 12.27538
vt 0.5734625 -12.27538
vt 0.5734625 -1.061817
vt 1.743654 2.621305
vt 7.77134 2.621305
vt -2.357388 2.308011
vt 2.357388 2.308011
vt -2.946735 -1.343215
vt 2.946735 -1.343215
vt 0.5734625 3.020484
vt 11.10519 6.703607
vt 1.743654 6.703607
vt -0.5734625 -1.061817
vt -1.743654 2.621305
vt -7.77134 2.621305
vt -0.5734625 3.020484
vt -1.743654 6.703607
vt -11.10519 6.703607
vt -0.5734625 12.27538
vt -0.5734625 0.5734625
vt -8.10807 12.27538
vt -12.27538 0.5734625
vt -12.27538 8.10807
vt -7.068592 6.485669
vt -8.769629 6.485669
vt -7.068592 6.87937
vt -8.769629 7.273071
vt 7.068592 6.485669
vt 7.068592 6.87937
vt 8.769629 6.485669
vt 8.769629 7.273071
vt 3.641546 8.437756
vt 3.641546 10.18376
vt 4.692845 8.437756
vt 4.692845 10.18376
vt 4.692845 6.485669
vt 3.641546 6.485669
vt 4.692845 6.87937
vt 3.641546 6.87937
vt -3.641546 6.485669
vt -4.692845 6.485669
vt -3.641546 7.273071
vt -4.692845 7.273071
vt -5.89715 7.931161
vt -5.89715 9.677165
vt -4.845851 7.931161
vt -4.845851 9.677165
vt -6.548605 6.485669
vt -8.249643 6.485669
vt -6.548605 6.87937
vt -8.249643 7.273071
vt 8.249643 6.485669
vt 6.548605 6.485669
vt 8.249643 7.273071
vt 6.548605 6.87937
vt 4.845851 6.485669
vt 4.845851 7.273071
vt 5.89715 6.485669
vt 5.89715 7.273071
vt -4.845851 6.87937
vt -4.845851 6.485669
vt -5.89715 6.87937
vt -5.89715 6.485669
vt 7.346381 4.244816
vt 11.10519 1.743654
vt 6.40472 4.712261
vt 8.102722 5.768456
vt 11.10519 7.77134
vt 7.77134 11.10519
vt 7.161061 6.235901
vt 1.743654 1.743654
vt 4.660932 6.681483
vt 6.273122 7.224045
vt 5.9378 8.220433
vt 4.325611 7.677871
vt 1.743654 11.10519
vt -0.5734625 -12.27538
vt -8.10807 -12.27538
vt -0.5734625 -0.5734625
vt -12.27538 -0.5734625
vt -12.27538 -8.10807
vt 7.705053 -8.472714
vt 7.77134 -11.10519
vt 6.959219 -8.220263
vt 8.714858 -5.489375
vt 11.10519 -7.77134
vt 11.10519 -1.743654
vt 7.969023 -5.236924
vt 5.899961 -4.128373
vt 3.533774 -6.207119
vt 5.380274 -3.536827
vt 1.743654 -1.743654
vt 3.014088 -5.615572
vt 1.743654 -11.10519
vt -6.995482 6.33771
vt -6.208081 6.33771
vt -6.995482 4.762907
vt -6.208081 4.762907
vt 6.995482 4.895799
vt 6.208081 4.895799
vt 6.995482 6.470602
vt 6.208081 6.470602
vt 10.01477 2.839203
vt 9.227366 2.839203
vt 10.01477 4.414006
vt 9.227366 4.414006
vt 5.555102 6.485669
vt 2.405496 6.485669
vt 4.767701 7.849489
vt 3.192898 7.849489
vt 3.605634 -5.095886
vt 4.788727 -4.056513
vt 4.12532 -5.687432
vt 5.308414 -4.648059
vt -1.707695 6.485669
vt -0.9202939 7.849489
vt 1.441911 6.485669
vt 0.6545093 7.849489
vt 1.707695 6.485669
vt -1.441911 6.485669
vt 0.9202939 7.849489
vt -0.6545093 7.849489
vt -10.01477 6.819502
vt -10.01477 8.394305
vt -9.227366 6.819502
vt -9.227366 8.394305
vt 7.211669 -7.474429
vt 7.716572 -5.982759
vt 7.957504 -7.72688
vt 8.462407 -6.23521
vt -5.555102 6.485669
vt -4.767701 7.849489
vt -2.405496 6.485669
vt -3.192898 7.849489

usemtl brownLight

f 3/3/1 2/2/1 1/1/1
f 2/2/1 3/3/1 4/4/1
f 4/4/1 5/5/1 2/2/1
f 4/4/1 3/3/1 6/6/1
f 6/6/1 3/3/1 7/7/1
f 6/6/1 7/7/1 8/8/1
f 5/5/1 4/4/1 9/9/1
f 10/10/1 9/9/1 4/4/1
f 5/5/1 9/9/1 11/11/1
f 9/9/1 10/10/1 12/12/1
f 12/12/1 10/10/1 8/8/1
f 5/5/1 11/11/1 13/13/1
f 12/12/1 8/8/1 14/14/1
f 8/8/1 7/7/1 14/14/1
f 13/13/1 11/11/1 14/14/1
f 14/14/1 7/7/1 15/15/1
f 13/13/1 14/14/1 15/15/1
f 15/15/1 7/7/1 16/16/1
f 13/13/1 15/15/1 17/17/1
f 16/16/1 7/7/1 18/18/1
f 13/13/1 17/17/1 18/18/1
f 13/13/1 18/18/1 7/7/1
f 1/21/4 20/20/3 19/19/2
f 20/20/3 1/21/4 2/22/5
f 5/25/8 22/24/7 21/23/6
f 22/24/7 5/25/8 13/26/7
f 3/29/10 19/28/2 23/27/9
f 19/28/2 3/29/10 1/30/4
f 7/33/11 23/32/9 24/31/11
f 23/32/9 7/33/11 3/34/10
f 22/37/12 7/36/12 24/35/12
f 7/36/12 22/37/12 13/38/12
f 5/40/8 20/27/3 2/39/5
f 20/27/3 5/40/8 21/28/6
f 21/43/13 19/42/13 20/41/13
f 19/42/13 21/43/13 23/44/13
f 23/44/13 21/43/13 22/45/13
f 23/44/13 22/45/13 24/46/13

usemtl brownDark

f 27/19/14 26/48/12 25/47/12
f 26/48/12 27/19/14 28/49/15
f 27/52/14 29/51/16 28/50/15
f 29/51/16 27/52/14 30/53/17
f 26/55/18 31/54/18 25/37/18
f 31/54/18 26/55/18 32/56/18
f 34/58/19 30/20/17 33/57/19
f 30/20/17 34/58/19 29/59/16
f 32/61/20 33/35/20 31/60/20
f 33/35/20 32/61/20 34/62/20
f 30/65/13 31/64/13 33/63/13
f 31/64/13 30/65/13 25/66/13
f 25/66/13 30/65/13 27/67/13
f 37/70/21 36/69/21 35/68/21
f 36/69/21 37/70/21 38/71/21
f 41/74/22 40/73/22 39/72/22
f 40/73/22 41/74/22 42/75/22
f 40/78/23 38/77/23 37/76/23
f 38/77/23 40/78/23 42/79/23
f 40/82/24 35/81/24 39/80/24
f 35/81/24 40/82/24 37/83/24
f 38/86/25 41/85/25 36/84/25
f 41/85/25 38/86/25 42/87/25
f 45/90/26 44/89/26 43/88/26
f 44/89/26 45/90/26 46/91/26
f 43/94/27 48/93/27 47/92/27
f 48/93/27 43/94/27 44/95/27
f 46/98/28 50/97/28 49/96/28
f 50/97/28 46/98/28 45/99/28
f 48/102/29 46/101/29 49/100/29
f 46/101/29 48/102/29 44/103/29
f 43/106/30 50/105/30 45/104/30
f 50/105/30 43/106/30 47/107/30
f 35/110/1 26/109/1 39/108/1
f 39/108/1 26/109/1 41/111/1
f 41/111/1 26/109/1 28/112/1
f 29/113/1 41/111/1 28/112/1
f 29/113/1 36/114/1 41/111/1
f 29/113/1 35/110/1 36/114/1
f 35/110/1 32/115/1 26/109/1
f 50/116/1 32/115/1 35/110/1
f 50/116/1 35/110/1 49/117/1
f 29/113/1 49/117/1 35/110/1
f 29/113/1 48/118/1 49/117/1
f 32/115/1 50/116/1 47/119/1
f 29/113/1 47/119/1 48/118/1
f 47/119/1 34/120/1 32/115/1
f 34/120/1 47/119/1 29/113/1

usemtl green

f 12/12/1 11/11/1 9/9/1
f 11/11/1 12/12/1 14/14/1
f 53/51/33 52/52/32 51/53/31
f 52/52/32 53/51/33 54/50/34
f 57/55/20 56/54/20 55/37/20
f 56/54/20 57/55/20 58/56/20
f 6/6/1 10/10/1 4/4/1
f 10/10/1 6/6/1 8/8/1
f 58/61/19 59/35/19 56/60/19
f 59/35/19 58/61/19 60/62/19
f 16/16/1 17/17/1 15/15/1
f 17/17/1 16/16/1 18/18/1
f 54/49/34 55/47/18 52/19/32
f 55/47/18 54/49/34 57/48/18
f 59/57/12 53/59/33 51/20/31
f 53/59/33 59/57/12 60/58/12
f 56/123/13 52/122/13 55/121/13
f 52/122/13 56/123/13 59/124/13
f 52/122/13 59/124/13 51/125/13
f 62/128/1 54/127/1 61/126/1
f 61/126/1 54/127/1 63/129/1
f 63/129/1 54/127/1 53/130/1
f 60/131/1 63/129/1 53/130/1
f 60/131/1 64/132/1 63/129/1
f 64/132/1 65/133/1 62/128/1
f 60/131/1 65/133/1 64/132/1
f 66/134/1 62/128/1 65/133/1
f 66/134/1 54/127/1 62/128/1
f 60/131/1 67/135/1 65/133/1
f 58/136/1 67/135/1 60/131/1
f 68/137/1 54/127/1 66/134/1
f 67/135/1 58/136/1 68/137/1
f 68/137/1 57/138/1 54/127/1
f 57/138/1 68/137/1 58/136/1

usemtl _defaultMat

f 69/122/37 23/124/36 19/125/35
f 23/122/36 69/124/37 70/125/38
f 73/122/41 72/124/40 71/125/39
f 72/122/40 73/124/41 74/125/42
f 75/122/45 20/124/44 21/125/43
f 20/122/44 75/124/45 76/125/46
f 78/122/49 77/124/48 51/125/47
f 77/122/48 78/124/49 79/125/50
f 77/122/48 79/124/50 80/125/48
f 80/122/48 79/124/50 25/125/48
f 25/122/48 79/124/50 27/125/51
f 59/122/48 51/124/47 77/125/48
f 82/122/13 72/124/13 81/125/13
f 72/122/13 82/124/13 71/125/13
f 71/122/13 82/124/13 83/125/13
f 71/122/13 83/124/13 84/125/13
f 84/122/13 83/124/13 85/125/13
f 84/122/13 85/124/13 86/125/13
f 33/122/52 87/124/52 31/125/52
f 87/122/52 33/124/52 88/125/52
f 89/44/54 71/45/39 84/46/53
f 71/44/39 89/45/54 73/46/41
f 90/44/57 83/45/56 82/46/55
f 83/44/56 90/45/57 91/46/58
f 92/44/61 33/45/60 30/46/59
f 33/44/60 92/45/61 88/46/60
f 88/44/60 92/45/61 93/46/60
f 93/44/60 21/45/43 22/46/60
f 21/44/43 93/45/60 75/46/45
f 75/44/45 93/45/60 92/46/61
f 79/44/50 30/45/59 27/46/51
f 30/44/59 79/45/50 92/46/61
f 86/44/64 95/45/63 94/46/62
f 95/44/63 86/45/64 85/46/65
f 74/44/1 69/45/1 96/46/1
f 69/44/1 74/45/1 73/46/1
f 69/44/1 73/45/1 70/46/1
f 70/44/1 73/45/1 89/46/1
f 70/44/1 89/45/1 97/46/1
f 97/44/1 89/45/1 78/46/1
f 78/44/1 89/45/1 94/46/1
f 78/44/1 94/45/1 79/46/1
f 96/44/1 76/45/1 90/46/1
f 76/44/1 96/45/1 69/46/1
f 90/44/1 76/45/1 75/46/1
f 90/44/1 75/45/1 91/46/1
f 91/44/1 75/45/1 92/46/1
f 91/44/1 92/45/1 79/46/1
f 91/44/1 79/45/1 95/46/1
f 95/44/1 79/45/1 94/46/1
f 77/44/66 56/45/66 59/46/66
f 56/44/66 77/45/66 98/46/66
f 94/44/62 84/45/53 86/46/64
f 84/44/53 94/45/62 89/46/54
f 97/44/68 51/45/47 52/46/67
f 51/44/47 97/45/68 78/46/49
f 96/44/69 72/45/40 74/46/42
f 72/44/40 96/45/69 81/46/70
f 87/44/71 25/45/71 31/46/71
f 25/44/71 87/45/71 80/46/71
f 91/44/58 85/45/65 83/46/56
f 85/44/65 91/45/58 95/46/63
f 96/44/69 82/45/55 81/46/70
f 82/44/55 96/45/69 90/46/57
f 19/44/35 76/45/46 69/46/37
f 76/44/46 19/45/35 20/46/44
f 55/66/52 98/65/52 99/67/52
f 98/66/52 55/65/52 56/67/52
f 99/66/1 93/65/1 100/67/1
f 93/66/1 99/65/1 88/67/1
f 88/66/1 99/65/1 98/67/1
f 88/66/1 98/65/1 87/67/1
f 87/66/1 98/65/1 77/67/1
f 87/66/1 77/65/1 80/67/1
f 93/66/72 24/65/72 100/67/72
f 24/66/72 93/65/72 22/67/72
f 70/66/38 24/65/73 23/67/36
f 24/66/73 70/65/38 100/67/73
f 100/66/73 70/65/38 99/67/73
f 99/66/73 52/65/67 55/67/73
f 52/66/67 99/65/73 97/67/68
f 97/66/68 99/65/73 70/67/38

usemtl greenDark

f 65/141/74 102/140/74 101/139/74
f 102/140/74 65/141/74 67/142/74
f 103/145/75 68/144/75 66/143/75
f 68/144/75 103/145/75 104/146/75
f 105/149/76 62/148/76 61/147/76
f 62/148/76 105/149/76 106/150/76
f 106/153/77 64/152/77 62/151/77
f 64/152/77 106/153/77 107/154/77
f 103/157/1 102/156/1 104/155/1
f 102/156/1 103/157/1 101/158/1
f 68/161/78 102/160/78 67/159/78
f 102/160/78 68/161/78 104/162/78
f 101/165/79 66/164/79 65/163/79
f 66/164/79 101/165/79 103/166/79
f 64/169/80 108/168/80 63/167/80
f 108/168/80 64/169/80 107/170/80
f 105/173/1 107/172/1 106/171/1
f 107/172/1 105/173/1 108/174/1
f 63/177/81 105/176/81 61/175/81
f 105/176/81 63/177/81 108/178/81

g lid

v -0.4901171 0.1789865 -0.205945
v -0.4901171 0.1789865 0.205945
v -0.5430419 0.270655 -0.3117947
v -0.5430419 0.270655 0.3117947
v -0.748987 0.6273621 -0.3117947
v -0.748987 0.6273621 0.3117947
v -0.8019118 0.7190307 -0.205945
v -0.8019118 0.7190307 0.205945
v -0.543956 0.1201744 0.2154564
v -0.543956 0.1201744 -0.2154564
v -0.6041319 0.2244019 0.335808
v -0.6041319 0.2244019 -0.335808
v -0.8195883 0.5975833 0.335808
v -0.8195883 0.5975833 -0.335808
v -0.8797641 0.7018108 0.2154564
v -0.8797641 0.7018108 -0.2154564
v -0.379463 0.164736 0.2434657
v -0.4474617 0.2825131 0.379463
v -0.379463 0.164736 -0.2434657
v -0.4474617 0.2825131 -0.379463
v -0.6909274 0.704208 0.379463
v -0.7589262 0.8219852 0.2434657
v -0.6909274 0.704208 -0.379463
v -0.7589262 0.8219852 -0.2434657
v -0.4534951 0.2929633 -0.3503311
v -0.684894 0.6937578 -0.3503311
v -0.394029 0.189965 -0.2313989
v -0.394029 0.189965 0.2313989
v -0.4534951 0.2929633 0.3503311
v -0.7443601 0.7967562 -0.2313989
v -0.7443601 0.7967562 0.2313989
v -0.684894 0.6937578 0.3503311

vn 1.097427 0.6336001 0
vn -1.097427 -0.6336001 0
vn 0.238522 -1.161478 0.4470707
vn -0.1005078 -0.5742611 1.12513
vn 0.2308398 -1.151417 0.4761802
vn 0.238522 -1.161478 -0.4470707
vn -0.08735828 -0.6002818 1.112576
vn 0.2308398 -1.151417 -0.4761802
vn -0.08735828 -0.6002818 -1.112576
vn -0.1005078 -0.5742611 -1.12513
vn -0.5635385 0.2244863 1.112576
vn -0.5475786 0.2000881 1.12513
vn -0.8866085 0.7873049 0.4470707
vn -0.8817366 0.7756215 0.4761802
vn -0.5635385 0.2244863 -1.112576
vn -0.5475786 0.2000881 -1.12513
vn -0.8866085 0.7873049 -0.4470707
vn -0.8817366 0.7756215 -0.4761802
vn 0.2946911 0.6383107 1.054283
vn 0.7001389 -0.06394529 1.054283
vn 0.2755509 0.6793876 1.033586
vn -0.02972654 1.200218 0.4054478
vn 0.7261423 -0.1010596 1.033586
vn -0.01594645 1.184276 0.4505914
vn -0.01594645 1.184276 -0.4505914
vn -0.02972654 1.200218 -0.4054478
vn 0.2755509 0.6793876 -1.033586
vn 0.2946911 0.6383107 -1.054283
vn 1.024557 -0.6258529 0.4054478
vn 1.01764 -0.6059477 0.4505914
vn 1.01764 -0.6059477 -0.4505914
vn 1.024557 -0.6258529 -0.4054478
vn 0.7261423 -0.1010596 -1.033586
vn 0.7001389 -0.06394529 -1.054283

vt 0 0

usemtl _defaultMat

f 111/179/82 110/179/82 109/179/82
f 110/179/82 111/179/82 112/179/82
f 112/179/82 111/179/82 113/179/82
f 112/179/82 113/179/82 114/179/82
f 114/179/82 113/179/82 115/179/82
f 114/179/82 115/179/82 116/179/82
f 119/179/83 118/179/83 117/179/83
f 118/179/83 119/179/83 120/179/83
f 120/179/83 119/179/83 121/179/83
f 120/179/83 121/179/83 122/179/83
f 122/179/83 121/179/83 123/179/83
f 122/179/83 123/179/83 124/179/83
f 125/179/86 119/179/85 117/179/84
f 118/179/87 125/179/86 117/179/84
f 119/179/85 125/179/86 126/179/88
f 125/179/86 118/179/87 127/179/89
f 118/179/87 128/179/90 127/179/89
f 128/179/90 118/179/87 120/179/91
f 129/179/92 119/179/85 126/179/88
f 119/179/85 129/179/92 121/179/93
f 129/179/92 123/179/94 121/179/93
f 123/179/94 129/179/92 130/179/95
f 120/179/91 131/179/96 128/179/90
f 131/179/96 120/179/91 122/179/97
f 130/179/95 124/179/98 123/179/94
f 124/179/98 131/179/96 122/179/97
f 124/179/98 130/179/95 132/179/99
f 131/179/96 124/179/98 132/179/99
f 133/179/102 113/179/101 111/179/100
f 109/179/103 133/179/102 111/179/100
f 113/179/101 133/179/102 134/179/104
f 133/179/102 109/179/103 135/179/105
f 109/179/103 136/179/106 135/179/105
f 136/179/106 109/179/103 110/179/107
f 110/179/107 137/179/108 136/179/106
f 137/179/108 110/179/107 112/179/109
f 134/179/104 115/179/110 113/179/101
f 115/179/110 134/179/104 138/179/111
f 139/179/112 115/179/110 138/179/111
f 115/179/110 139/179/112 116/179/113
f 112/179/109 140/179/114 137/179/108
f 140/179/114 116/179/113 139/179/112
f 140/179/114 112/179/109 114/179/115
f 116/179/113 140/179/114 114/179/115
f 127/179/82 135/179/82 125/179/82
f 135/179/82 127/179/82 128/179/82
f 136/179/82 125/179/82 135/179/82
f 135/179/82 128/179/82 133/179/82
f 125/179/82 136/179/82 126/179/82
f 126/179/82 136/179/82 137/179/82
f 133/179/82 128/179/82 131/179/82
f 133/179/82 131/179/82 134/179/82
f 134/179/82 131/179/82 138/179/82
f 138/179/82 131/179/82 132/179/82
f 126/179/82 137/179/82 129/179/82
f 129/179/82 137/179/82 140/179/82
f 138/179/82 132/179/82 139/179/82
f 129/179/82 140/179/82 139/179/82
f 130/179/82 139/179/82 132/179/82
f 129/179/82 139/179/82 130/179/82

