# Created by Kenney (www.kenney.nl)

mtllib sushiSalmon.mtl

g sushiSalmon

v 0.05395 0.039176 -0.05291922
v 0.05395 0 -0.05291922
v 0.05395 0.039176 0.05291922
v 0.05395 0 0.05291922
v 0.05365593 0.039176 0.05740589
v 0.05365593 0 0.05740589
v 0.05277874 0.039176 0.0618158
v 0.05277874 0 0.0618158
v 0.05133346 0.039176 0.06607347
v 0.05133346 0 0.06607347
v 0.0493448 0.039176 0.07010608
v 0.0493448 0 0.07010608
v 0.04684679 0.039176 0.07384461
v 0.04684679 0 0.07384461
v 0.04388217 0.039176 0.0772251
v 0.04388217 0 0.0772251
v 0.04050168 0 0.08018972
v 0.04050168 0.039176 0.08018972
v 0.03676315 0 0.08268773
v 0.03676315 0.039176 0.08268773
v 0.03273054 0 0.08467639
v 0.03273054 0.039176 0.08467639
v 0.02847287 0 0.08612167
v 0.02847287 0.039176 0.08612167
v 0.02406297 0 0.08699887
v 0.02406297 0.039176 0.08699887
v 0.0195763 0 0.08729293
v 0.0195763 0.039176 0.08729293
v -0.05395 0 -0.05291922
v -0.05395 0.039176 -0.05291922
v -0.05395 0 0.05291922
v -0.05395 0.039176 0.05291922
v -0.0195763 0 0.08729293
v -0.0195763 0.039176 0.08729293
v 0.05365593 0.039176 -0.05740589
v 0.05277874 0.039176 -0.0618158
v 0.05133346 0.039176 -0.06607347
v 0.0493448 0.039176 -0.07010608
v 0.04684679 0.039176 -0.07384461
v 0.04388217 0.039176 -0.0772251
v 0.04050168 0.039176 -0.08018972
v 0.03676315 0.039176 -0.08268773
v 0.03273054 0.039176 -0.08467639
v 0.02847287 0.039176 -0.08612167
v 0.02406297 0.039176 -0.08699887
v 0.0195763 0.039176 -0.08729293
v -0.0195763 0.039176 -0.08729293
v -0.02406297 0.039176 -0.08699887
v -0.02406297 0.039176 0.08699887
v -0.02847287 0.039176 -0.08612167
v -0.02847287 0.039176 0.08612167
v -0.03273054 0.039176 -0.08467639
v -0.03273054 0.039176 0.08467639
v -0.03676315 0.039176 -0.08268773
v -0.03676315 0.039176 0.08268773
v -0.04050168 0.039176 -0.08018972
v -0.04050168 0.039176 0.08018972
v -0.04388217 0.039176 -0.0772251
v -0.04388217 0.039176 0.0772251
v -0.04684679 0.039176 -0.07384461
v -0.04684679 0.039176 0.07384461
v -0.0493448 0.039176 -0.07010608
v -0.0493448 0.039176 0.07010608
v -0.05133346 0.039176 -0.06607347
v -0.05133346 0.039176 0.06607347
v -0.05277874 0.039176 -0.0618158
v -0.05277874 0.039176 0.0618158
v -0.05365593 0.039176 -0.05740589
v -0.05365593 0.039176 0.05740589
v 0.0195763 0 -0.08729293
v 0.02406297 0 -0.08699887
v 0.02847287 0 -0.08612167
v 0.03273054 0 -0.08467639
v 0.03676315 0 -0.08268773
v 0.04050168 0 -0.08018972
v 0.04388217 0 -0.0772251
v 0.04684679 0 -0.07384461
v 0.0493448 0 -0.07010608
v 0.05133346 0 -0.06607347
v 0.05277874 0 -0.0618158
v 0.05365593 0 -0.05740589
v -0.0195763 0 -0.08729293
v -0.05365593 0 -0.05740589
v -0.05277874 0 -0.0618158
v -0.05133346 0 -0.06607347
v -0.0493448 0 -0.07010608
v -0.04684679 0 -0.07384461
v -0.04388217 0 -0.0772251
v -0.04050168 0 -0.08018972
v -0.03676315 0 -0.08268773
v -0.03273054 0 -0.08467639
v -0.02847287 0 -0.08612167
v -0.02406297 0 -0.08699887
v -0.02406297 0 0.08699887
v -0.02847287 0 0.08612167
v -0.03273054 0 0.08467639
v -0.03676315 0 0.08268773
v -0.04050168 0 0.08018972
v -0.04388217 0 0.0772251
v -0.04684679 0 0.07384461
v -0.0493448 0 0.07010608
v -0.05133346 0 0.06607347
v -0.05277874 0 0.0618158
v -0.05365593 0 0.05740589

vn 1 0 0
vn 0.9978589 0 0.06540313
vn 0.9914449 0 0.1305262
vn 0.9659258 0 0.258819
vn 0.9238795 0 0.3826834
vn 0.8660254 0 0.5
vn 0.7933533 0 0.6087614
vn 0.7071068 0 0.7071068
vn 0.6087614 0 0.7933533
vn 0.5 0 0.8660254
vn 0.3826834 0 0.9238795
vn 0.258819 0 0.9659258
vn 0.1305262 0 0.9914449
vn 0.06540313 0 0.9978589
vn -1 0 0
vn 0 0 1
vn 0 0.59 0
vn 0.06540313 0 -0.9978589
vn 0.1305262 0 -0.9914449
vn 0.258819 0 -0.9659258
vn 0.3826834 0 -0.9238795
vn 0.5 0 -0.8660254
vn 0.6087614 0 -0.7933533
vn 0.7071068 0 -0.7071068
vn 0.7933533 0 -0.6087614
vn 0.8660254 0 -0.5
vn 0.9238795 0 -0.3826834
vn 0.9659258 0 -0.258819
vn 0.9914449 0 -0.1305262
vn 0.9978589 0 -0.06540313
vn 0 0 -1
vn -0.9978589 0 -0.06540313
vn -0.9914449 0 -0.1305262
vn -0.9659258 0 -0.258819
vn -0.9238795 0 -0.3826834
vn -0.8660254 0 -0.5
vn -0.7933533 0 -0.6087614
vn -0.7071068 0 -0.7071068
vn -0.6087614 0 -0.7933533
vn -0.5 0 -0.8660254
vn -0.3826834 0 -0.9238795
vn -0.258819 0 -0.9659258
vn -0.1305262 0 -0.9914449
vn -0.06540313 0 -0.9978589
vn 0 -0.59 0
vn -0.06540313 0 0.9978589
vn -0.1305262 0 0.9914449
vn -0.258819 0 0.9659258
vn -0.3826834 0 0.9238795
vn -0.5 0 0.8660254
vn -0.6087614 0 0.7933533
vn -0.7071068 0 0.7071068
vn -0.7933533 0 0.6087614
vn -0.8660254 0 0.5
vn -0.9238795 0 0.3826834
vn -0.9659258 0 0.258819
vn -0.9914449 0 0.1305262
vn -0.9978589 0 0.06540313

vt 0 0

usemtl _defaultMat

f 3/1/1 2/1/1 1/1/1
f 2/1/1 3/1/1 4/1/1
f 5/1/3 4/1/2 3/1/2
f 4/1/2 5/1/3 6/1/3
f 7/1/4 6/1/3 5/1/3
f 6/1/3 7/1/4 8/1/4
f 9/1/5 8/1/4 7/1/4
f 8/1/4 9/1/5 10/1/5
f 11/1/6 10/1/5 9/1/5
f 10/1/5 11/1/6 12/1/6
f 13/1/7 12/1/6 11/1/6
f 12/1/6 13/1/7 14/1/7
f 15/1/8 14/1/7 13/1/7
f 14/1/7 15/1/8 16/1/8
f 15/1/8 17/1/9 16/1/8
f 17/1/9 15/1/8 18/1/9
f 18/1/9 19/1/10 17/1/9
f 19/1/10 18/1/9 20/1/10
f 20/1/10 21/1/11 19/1/10
f 21/1/11 20/1/10 22/1/11
f 22/1/11 23/1/12 21/1/11
f 23/1/12 22/1/11 24/1/12
f 24/1/12 25/1/13 23/1/12
f 25/1/13 24/1/12 26/1/13
f 26/1/13 27/1/14 25/1/13
f 27/1/14 26/1/13 28/1/14
f 31/1/15 30/1/15 29/1/15
f 30/1/15 31/1/15 32/1/15
f 28/1/16 33/1/16 27/1/16
f 33/1/16 28/1/16 34/1/16
f 35/1/17 3/1/17 1/1/17
f 3/1/17 35/1/17 5/1/17
f 5/1/17 35/1/17 36/1/17
f 5/1/17 36/1/17 7/1/17
f 7/1/17 36/1/17 37/1/17
f 7/1/17 37/1/17 9/1/17
f 9/1/17 37/1/17 38/1/17
f 9/1/17 38/1/17 11/1/17
f 11/1/17 38/1/17 39/1/17
f 11/1/17 39/1/17 13/1/17
f 13/1/17 39/1/17 40/1/17
f 13/1/17 40/1/17 15/1/17
f 15/1/17 40/1/17 41/1/17
f 15/1/17 41/1/17 18/1/17
f 18/1/17 41/1/17 42/1/17
f 18/1/17 42/1/17 20/1/17
f 20/1/17 42/1/17 43/1/17
f 20/1/17 43/1/17 22/1/17
f 22/1/17 43/1/17 44/1/17
f 22/1/17 44/1/17 24/1/17
f 24/1/17 44/1/17 45/1/17
f 24/1/17 45/1/17 26/1/17
f 26/1/17 45/1/17 46/1/17
f 26/1/17 46/1/17 28/1/17
f 28/1/17 46/1/17 47/1/17
f 28/1/17 47/1/17 34/1/17
f 34/1/17 47/1/17 48/1/17
f 34/1/17 48/1/17 49/1/17
f 49/1/17 48/1/17 50/1/17
f 49/1/17 50/1/17 51/1/17
f 51/1/17 50/1/17 52/1/17
f 51/1/17 52/1/17 53/1/17
f 53/1/17 52/1/17 54/1/17
f 53/1/17 54/1/17 55/1/17
f 55/1/17 54/1/17 56/1/17
f 55/1/17 56/1/17 57/1/17
f 57/1/17 56/1/17 58/1/17
f 57/1/17 58/1/17 59/1/17
f 59/1/17 58/1/17 60/1/17
f 59/1/17 60/1/17 61/1/17
f 61/1/17 60/1/17 62/1/17
f 61/1/17 62/1/17 63/1/17
f 63/1/17 62/1/17 64/1/17
f 63/1/17 64/1/17 65/1/17
f 65/1/17 64/1/17 66/1/17
f 65/1/17 66/1/17 67/1/17
f 67/1/17 66/1/17 68/1/17
f 67/1/17 68/1/17 69/1/17
f 69/1/17 68/1/17 30/1/17
f 69/1/17 30/1/17 32/1/17
f 46/1/18 71/1/19 70/1/18
f 71/1/19 46/1/18 45/1/19
f 45/1/19 72/1/20 71/1/19
f 72/1/20 45/1/19 44/1/20
f 44/1/20 73/1/21 72/1/20
f 73/1/21 44/1/20 43/1/21
f 43/1/21 74/1/22 73/1/21
f 74/1/22 43/1/21 42/1/22
f 42/1/22 75/1/23 74/1/22
f 75/1/23 42/1/22 41/1/23
f 41/1/23 76/1/24 75/1/23
f 76/1/24 41/1/23 40/1/24
f 39/1/25 76/1/24 40/1/24
f 76/1/24 39/1/25 77/1/25
f 38/1/26 77/1/25 39/1/25
f 77/1/25 38/1/26 78/1/26
f 37/1/27 78/1/26 38/1/26
f 78/1/26 37/1/27 79/1/27
f 36/1/28 79/1/27 37/1/27
f 79/1/27 36/1/28 80/1/28
f 35/1/29 80/1/28 36/1/28
f 80/1/28 35/1/29 81/1/29
f 1/1/30 81/1/29 35/1/29
f 81/1/29 1/1/30 2/1/30
f 47/1/31 70/1/31 82/1/31
f 70/1/31 47/1/31 46/1/31
f 68/1/33 29/1/32 30/1/32
f 29/1/32 68/1/33 83/1/33
f 66/1/34 83/1/33 68/1/33
f 83/1/33 66/1/34 84/1/34
f 64/1/35 84/1/34 66/1/34
f 84/1/34 64/1/35 85/1/35
f 62/1/36 85/1/35 64/1/35
f 85/1/35 62/1/36 86/1/36
f 60/1/37 86/1/36 62/1/36
f 86/1/36 60/1/37 87/1/37
f 58/1/38 87/1/37 60/1/37
f 87/1/37 58/1/38 88/1/38
f 58/1/38 89/1/39 88/1/38
f 89/1/39 58/1/38 56/1/39
f 56/1/39 90/1/40 89/1/39
f 90/1/40 56/1/39 54/1/40
f 54/1/40 91/1/41 90/1/40
f 91/1/41 54/1/40 52/1/41
f 52/1/41 92/1/42 91/1/41
f 92/1/42 52/1/41 50/1/42
f 50/1/42 93/1/43 92/1/42
f 93/1/43 50/1/42 48/1/43
f 48/1/43 82/1/44 93/1/43
f 82/1/44 48/1/43 47/1/44
f 6/1/45 2/1/45 4/1/45
f 2/1/45 6/1/45 81/1/45
f 81/1/45 6/1/45 8/1/45
f 81/1/45 8/1/45 80/1/45
f 80/1/45 8/1/45 10/1/45
f 80/1/45 10/1/45 79/1/45
f 79/1/45 10/1/45 12/1/45
f 79/1/45 12/1/45 78/1/45
f 78/1/45 12/1/45 14/1/45
f 78/1/45 14/1/45 77/1/45
f 77/1/45 14/1/45 16/1/45
f 77/1/45 16/1/45 76/1/45
f 76/1/45 16/1/45 17/1/45
f 76/1/45 17/1/45 75/1/45
f 75/1/45 17/1/45 19/1/45
f 75/1/45 19/1/45 74/1/45
f 74/1/45 19/1/45 21/1/45
f 74/1/45 21/1/45 73/1/45
f 73/1/45 21/1/45 23/1/45
f 73/1/45 23/1/45 72/1/45
f 72/1/45 23/1/45 25/1/45
f 72/1/45 25/1/45 71/1/45
f 71/1/45 25/1/45 27/1/45
f 71/1/45 27/1/45 70/1/45
f 70/1/45 27/1/45 33/1/45
f 70/1/45 33/1/45 82/1/45
f 82/1/45 33/1/45 94/1/45
f 82/1/45 94/1/45 93/1/45
f 93/1/45 94/1/45 95/1/45
f 93/1/45 95/1/45 92/1/45
f 92/1/45 95/1/45 96/1/45
f 92/1/45 96/1/45 91/1/45
f 91/1/45 96/1/45 97/1/45
f 91/1/45 97/1/45 90/1/45
f 90/1/45 97/1/45 98/1/45
f 90/1/45 98/1/45 89/1/45
f 89/1/45 98/1/45 99/1/45
f 89/1/45 99/1/45 88/1/45
f 88/1/45 99/1/45 100/1/45
f 88/1/45 100/1/45 87/1/45
f 87/1/45 100/1/45 101/1/45
f 87/1/45 101/1/45 86/1/45
f 86/1/45 101/1/45 102/1/45
f 86/1/45 102/1/45 85/1/45
f 85/1/45 102/1/45 103/1/45
f 85/1/45 103/1/45 84/1/45
f 84/1/45 103/1/45 104/1/45
f 84/1/45 104/1/45 83/1/45
f 83/1/45 104/1/45 31/1/45
f 83/1/45 31/1/45 29/1/45
f 34/1/46 94/1/47 33/1/46
f 94/1/47 34/1/46 49/1/47
f 49/1/47 95/1/48 94/1/47
f 95/1/48 49/1/47 51/1/48
f 51/1/48 96/1/49 95/1/48
f 96/1/49 51/1/48 53/1/49
f 53/1/49 97/1/50 96/1/49
f 97/1/50 53/1/49 55/1/50
f 55/1/50 98/1/51 97/1/50
f 98/1/51 55/1/50 57/1/51
f 57/1/51 99/1/52 98/1/51
f 99/1/52 57/1/51 59/1/52
f 61/1/53 99/1/52 59/1/52
f 99/1/52 61/1/53 100/1/53
f 63/1/54 100/1/53 61/1/53
f 100/1/53 63/1/54 101/1/54
f 65/1/55 101/1/54 63/1/54
f 101/1/54 65/1/55 102/1/55
f 67/1/56 102/1/55 65/1/55
f 102/1/55 67/1/56 103/1/56
f 69/1/57 103/1/56 67/1/56
f 103/1/56 69/1/57 104/1/57
f 32/1/58 104/1/57 69/1/57
f 104/1/57 32/1/58 31/1/58

g salmon

v 0.0373575 0.039176 0.1003869
v 0.0373575 0.039176 0.04138283
v -0.0373575 0.039176 0.1003869
v 0.0373575 0.039176 0.0177355
v 0.0373575 0.039176 -0.005911834
v 0.0373575 0.039176 -0.02955917
v 0.0373575 0.039176 -0.1003869
v -0.0373575 0.039176 -0.1003869
v -0.0373575 0.039176 0.02955917
v -0.0373575 0.039176 0.005911834
v -0.0373575 0.039176 -0.0177355
v -0.0373575 0.039176 -0.04138283
v 0.0373575 0.064176 -0.09050443
v 0.0373575 0.08917599 -0.06085711
v -0.0373575 0.064176 -0.09050443
v -0.0373575 0.08917599 -0.06085711
v 0.0373575 0.064176 0.09050443
v -0.0373575 0.064176 0.09050443
v 0.0373575 0.08917599 -0.02955917
v 0.0373575 0.08917599 0.06085711
v -0.0373575 0.08917599 0.06085711
v -0.0373575 0.08917599 0.02955917
v 0.0373575 0.08917599 0.04138283
v 0.0373575 0.08917599 -0.005911834
v 0.0373575 0.08917599 0.0177355
v -0.0373575 0.08917599 -0.0177355
v -0.0373575 0.08917599 0.005911834
v -0.0373575 0.08917599 -0.04138283

vn 0 -1.694915 0
vn 0 0.9088062 -0.9707077
vn 0 1.570834 -0.4319109
vn 0 0.5509641 -1.087544
vn 0 0.5509641 1.087544
vn 0 0.9088062 0.9707077
vn 0.85 0 0
vn 0 1.570834 0.4319109
vn -0.85 0 0
vn 0 1.694915 0

vt 1.730315 3.43673
vt 1.730315 1.416735
vt -1.730315 3.43673
vt 1.730315 0.6071723
vt 1.730315 -0.2023907
vt 1.730315 -1.011954
vt 1.730315 -3.43673
vt -1.730315 -3.43673
vt -1.730315 1.011954
vt -1.730315 0.2023907
vt -1.730315 -0.6071723
vt -1.730315 -1.416735
vt -1.730315 -1.53911
vt -1.730315 -0.1252785
vt 1.730315 -1.53911
vt 1.730315 -0.1252785
vt 1.730315 -1.117174
vt -1.730315 -1.117174
vt 1.730315 -0.07639749
vt -1.730315 -0.07639749
vt 3.43673 0
vt 1.011954 0
vt 3.098406 0.984252
vt 2.083434 1.968504
vt 1.011954 1.968504
vt -1.730315 1.416735
vt -1.730315 2.083434
vt 1.730315 1.011954
vt 1.730315 2.083434
vt -1.730315 -0.2023907
vt -1.730315 0.6071723
vt 1.730315 -0.6071723
vt 1.730315 0.2023907
vt -1.730315 -2.083434
vt -1.730315 -1.011954
vt 1.730315 -2.083434
vt 1.730315 -1.416735
vt -1.416735 1.968504
vt -1.416735 0
vt -2.083434 1.968504
vt -3.43673 0
vt -3.098406 0.984252
vt 0.2023907 1.968504
vt 0.2023907 0
vt -0.6071723 1.968504
vt -0.6071723 0

usemtl orange

f 107/4/59 106/3/59 105/2/59
f 106/3/59 107/4/59 108/5/59
f 108/5/59 107/4/59 109/6/59
f 109/6/59 107/4/59 110/7/59
f 110/7/59 107/4/59 111/8/59
f 111/8/59 107/4/59 112/9/59
f 112/9/59 107/4/59 113/10/59
f 112/9/59 113/10/59 114/11/59
f 112/9/59 114/11/59 115/12/59
f 112/9/59 115/12/59 116/13/59
f 119/16/60 118/15/61 117/14/60
f 118/15/61 119/16/60 120/17/61
f 119/20/60 111/19/62 112/18/62
f 111/19/62 119/20/60 117/21/60
f 121/20/64 107/19/63 105/18/63
f 107/19/63 121/20/64 122/21/64
f 117/24/65 110/23/65 111/22/65
f 110/23/65 117/24/65 118/25/65
f 110/23/65 118/25/65 123/26/65
f 125/15/66 121/16/64 124/17/66
f 121/16/64 125/15/66 122/14/64
f 107/22/67 126/26/67 113/23/67
f 126/26/67 107/22/67 125/25/67
f 125/25/67 107/22/67 122/24/67
f 126/29/68 124/28/66 127/27/68
f 124/28/66 126/29/68 125/30/66
f 130/33/68 129/32/68 128/31/68
f 129/32/68 130/33/68 131/34/68
f 120/37/61 123/36/68 118/35/61
f 123/36/68 120/37/61 132/38/68
f 124/41/65 106/40/65 127/39/65
f 106/40/65 124/41/65 105/42/65
f 105/42/65 124/41/65 121/43/65
f 129/46/65 109/45/65 128/44/65
f 109/45/65 129/46/65 108/47/65
f 116/40/67 119/43/67 112/42/67
f 119/43/67 116/40/67 120/41/67
f 120/41/67 116/40/67 132/39/67
f 114/45/67 130/46/67 115/47/67
f 130/46/67 114/45/67 131/44/67

usemtl brownLight

f 131/34/68 127/27/68 129/32/68
f 127/27/68 131/34/68 126/29/68
f 132/38/68 128/31/68 123/36/68
f 128/31/68 132/38/68 130/33/68
f 127/39/65 108/47/65 129/46/65
f 108/47/65 127/39/65 106/40/65
f 128/44/65 110/23/65 123/26/65
f 110/23/65 128/44/65 109/45/65
f 115/47/67 132/39/67 116/40/67
f 132/39/67 115/47/67 130/46/67
f 113/23/67 131/44/67 114/45/67
f 131/44/67 113/23/67 126/26/67

