# Created by Kenney (www.kenney.nl)

mtllib taco.mtl

g taco

v 0.2128 0 0.0285
v -0.2128 0 0.0285
v 0.2128 0.04936345 0.057
v -0.2128 0.04936345 0.057
v -3.609557E-16 0.2621635 -0.057
v -3.609557E-16 0.2621635 -0.03515
v -0.1064 0.2336537 -0.057
v -0.1064 0.2336537 -0.03515
v -0.1842902 0.1557634 -0.057
v -0.1842902 0.1557634 -0.03515
v -0.2128 0.04936345 -0.057
v -0.2128 0.04936345 -0.03515
v 0.2128 0.04936345 0.03515
v 0.1760331 0.04936345 0.03515
v 0.2128 0.04936345 -0.03515
v 0.1760331 0.04936345 -0.03515
v -0.2128 1.127987E-17 -0.0285
v -0.2128 0.04936345 0.03515
v 0.2128 1.127987E-17 -0.0285
v 0.2128 0.04936345 -0.057
v -0.1760331 0.04936345 0.03515
v -0.1842902 0.1557634 0.03515
v -0.1524491 0.13738 0.03515
v -0.1202328 0.1695963 0.03515
v -0.1064 0.2336537 0.03515
v -0.08801655 0.2018126 0.03515
v 3.609557E-16 0.2253965 0.03515
v 0.1064 0.2336537 0.03515
v 3.609557E-16 0.2621635 0.03515
v 0.08801655 0.2018126 0.03515
v 0.1202328 0.1695963 0.03515
v 0.1842902 0.1557634 0.03515
v 0.1524491 0.13738 0.03515
v 0.1842902 0.1557634 0.057
v -0.1842902 0.1557634 0.057
v -0.1064 0.2336537 0.057
v 0.1064 0.2336537 0.057
v 3.609557E-16 0.2621635 0.057
v 0.1842902 0.1557634 -0.03515
v 0.1524491 0.13738 -0.03515
v 0.1202328 0.1695963 -0.03515
v 0.1064 0.2336537 -0.03515
v 0.08801655 0.2018126 -0.03515
v -3.609557E-16 0.2253965 -0.03515
v -0.08801655 0.2018126 -0.03515
v -0.1202328 0.1695963 -0.03515
v -0.1524491 0.13738 -0.03515
v -0.1760331 0.04936345 -0.03515
v 0.1064 0.2336537 -0.057
v 0.1842902 0.1557634 -0.057
v -0.04428842 0.2135295 -0.02989394
v -0.005914146 0.2238118 -0.003995604
v -0.04625545 0.2208705 -0.02989394
v -0.00788117 0.2311529 -0.003995604
v 0.01528022 0.2291703 -0.008950818
v 0.0239237 0.2268543 0.01059416
v 0.02904146 0.225483 -0.003652524
v 0.01016246 0.2305416 0.005295868
v -0.05014149 0.2119612 -0.02059862
v -0.05210852 0.2193022 -0.02059862
v -0.01976488 0.2201006 0.01780132
v -0.03211369 0.2246598 0.02854934
v -0.03014667 0.2173188 0.02854934
v -0.0217319 0.2274416 0.01780132
v -0.05922035 0.2095285 0.02893209
v -0.06118738 0.2168695 0.02893209
v -0.04993837 0.2120156 0.02338408
v -0.05190539 0.2193566 0.02338408
v 0.03243154 0.2245746 0.01870512
v 0.03668813 0.2234341 0.02888853
v 0.03046451 0.2172336 0.01870512
v 0.03472111 0.2160931 0.02888853
v 0.05716066 0.2179485 -0.01759787
v 0.05438666 0.2186918 -0.006879961
v 0.01291346 0.2298045 -0.02987211
v 0.01013946 0.2305478 -0.0191542
v 0.0787287 0.2121694 0.01005418
v 0.0744721 0.2133099 -0.0001292227
v -0.01373424 0.2295846 0.005299723
v -0.01176722 0.2222435 0.005299723
v 0.01331319 0.2218293 -0.008950818
v 0.02707443 0.218142 -0.003652524
v -0.04249549 0.221878 0.01780132
v -0.03014667 0.2173188 0.007053298
v -0.04052847 0.214537 0.01780132
v -0.03211369 0.2246598 0.007053298
v 0.05519363 0.2106074 -0.01759787
v 0.01094644 0.2224635 -0.02987211
v 0.008195433 0.2232006 0.005295868
v 0.07250508 0.2059689 -0.0001292227
v 0.07676167 0.2048283 0.01005418
v 0.136341 0.1534881 0.017575
v 0.136341 0.1534881 -0.017575
v 0.05241963 0.2113507 -0.006879961
v 0.008172438 0.2232067 -0.0191542
v -0.136341 0.1534881 0.017575
v -0.136341 0.1534881 -0.017575
v -0.07480942 0.2132195 -0.0176863
v -0.0728424 0.2058785 -0.0176863
v 0.02195667 0.2195133 0.01059416
v -0.08212438 0.2033914 -0.0121383
v -0.08409141 0.2107324 -0.0121383
v 0.08536749 0.2103905 -0.01471398
v 0.07068542 0.2064564 -0.007113979
v 0.08340047 0.2030495 -0.01471398
v 0.07265245 0.2137975 -0.007113979
v 0.06531142 0.2157645 -0.02027756
v 0.06334439 0.2084235 -0.02027756
v 0.07605943 0.2050165 -0.02787757
v 0.07802646 0.2123575 -0.02787757

vn 0 -0.8660254 0.5
vn 0 -0.2822643 0.9593367
vn 0 1 0
vn -0.5 0.8660254 0
vn -0.8660254 0.5 0
vn -0.9876658 0.1565772 0
vn -0.9962141 0.08693379 0
vn -1 0 0
vn 0 -0.8660254 -0.5
vn 0 -0.2822643 -0.9593367
vn 0.9876658 0.1565772 0
vn 1 0 0
vn 0.9962141 0.08693379 0
vn 0 0 -1
vn 0 0 1
vn 0.5 0.8660254 0
vn 0.8660254 0.5 0
vn 0 0.2822643 -0.9593367
vn 0 0.8660254 -0.5
vn 0.527494 0.1413416 -0.8377187
vn -0.527494 -0.1413416 0.8377187
vn -0.258819 -0.9659258 0
vn -0.8091741 -0.2168176 -0.546102
vn 0.8091741 0.2168176 0.546102
vn -0.6830127 -0.1830127 -0.7071068
vn 0.4829629 0.1294095 0.8660254
vn -0.4829629 -0.1294095 -0.8660254
vn 0.5 -0.8660254 0
vn 0 -1 0
vn 0.9876658 -0.1565772 0
vn 0.8660254 -0.5 0
vn 0.9962141 -0.08693379 0
vn -0.8660254 -0.5 0
vn -0.9659258 -0.258819 0
vn 0 0.2822643 0.9593367
vn 0 0.8660254 0.5
vn -0.9962141 -0.08693379 0
vn -0.9876658 -0.1565772 0
vn -0.886483 0.2375324 0.3971479
vn 0.886483 -0.2375324 -0.3971479
vn 0.258819 0.9659258 0
vn 0.9659258 -0.258819 0
vn -0.3366947 0.09021708 0.937282
vn 0.6830127 0.1830127 0.7071068
vn 0.25 -0.0669873 -0.9659258
vn -0.25 0.0669873 0.9659258
vn 0.9053449 -0.2425864 0.348572
vn -0.5 -0.8660254 0
vn -0.7071068 -0.7071068 0
vn 0.7071068 -0.7071068 0
vn -0.3836154 0.1027894 -0.9177546
vn 0.3836154 -0.1027894 0.9177546
vn 0.8365163 0.2241439 -0.5
vn -0.8365163 -0.2241439 0.5
vn -0.9053449 0.2425864 -0.348572
vn 0.9330127 -0.25 0.2588191
vn -0.9330127 0.25 -0.2588191
vn -0.258819 0.9659258 0
vn 0.258819 -0.9659258 0
vn 0.3366947 -0.09021708 -0.937282
vn 0.6830127 0.1830127 -0.7071068
vn -0.482963 0.1294095 -0.8660254
vn 0.8365163 -0.2241439 -0.5000001
vn -0.8365163 0.2241439 0.5000001
vn 0.482963 -0.1294095 0.8660254
vn -0.6830127 -0.1830127 0.7071068
vn 0.9659258 0.258819 0
vn -0.7071068 0.7071068 0
vn -0.9659258 0.258819 0
vn 0.7071068 0.7071068 0

vt 8.377953 0.5610236
vt -8.377953 0.5610236
vt 8.377953 2.805118
vt -8.377953 2.805118
vt -2.244094 2.671374
vt -1.383858 2.671374
vt -2.244094 -1.665374
vt -1.383858 -1.665374
vt -2.244094 4.045595
vt -1.383858 4.045595
vt -2.244094 -0.2911521
vt -1.383858 -0.2911521
vt -8.377953 1.383858
vt -6.930437 1.383858
vt -8.377953 -1.383858
vt -6.930437 -1.383858
vt -2.244094 1.943443
vt -1.383858 1.943443
vt -1.122047 3.263543E-13
vt 1.383858 1.943443
vt 1.122047 3.259102E-13
vt 2.244094 1.943443
vt 1.122047 4.440892E-16
vt -1.122047 0
vt -2.244094 3.542595
vt -1.383858 3.542595
vt -2.244094 -0.7941521
vt -1.383858 -0.7941521
vt 8.377953 1.943443
vt 6.930437 1.943443
vt 7.25552 6.132419
vt 6.001935 5.408661
vt 4.733576 6.677019
vt 4.188976 9.198963
vt 3.465219 7.945377
vt -2.781024E-15 8.873879
vt -4.188976 9.198963
vt -2.781024E-15 10.3214
vt -3.465219 7.945377
vt -4.733576 6.677019
vt -7.25552 6.132419
vt -6.001935 5.408661
vt -8.377953 1.943443
vt -6.930437 1.943443
vt -4.270097E-15 10.3214
vt -2.814268E-15 8.873879
vt -2.814268E-15 10.3214
vt 2.244094 -1.665374
vt 1.383858 -1.665374
vt 2.244094 2.671374
vt 1.383858 2.671374
vt 6.930437 1.383858
vt 8.377953 1.383858
vt 6.930437 -1.383858
vt 8.377953 -1.383858
vt 8.377953 1.122047
vt 8.377953 -1.122047
vt -8.377953 1.122047
vt -8.377953 -1.122047
vt 1.383858 4.045595
vt 2.244094 4.045595
vt 1.383858 -0.2911521
vt 2.244094 -0.2911521
vt 2.244094 -0.7941521
vt 1.383858 -0.7941521
vt 2.244094 3.542595
vt 1.383858 3.542595
vt 2.102609 8.31283
vt 0.2808529 8.721752
vt 2.168141 8.604777
vt 0.3463853 9.0137
vt 0.3523944 1.754098
vt -0.417093 1.401799
vt 0.1438001 1.193205
vt -0.2084987 1.962692
vt -0.0001376381 8.662809
vt 0.04318408 8.958869
vt 0.4321097 8.59956
vt 0.4754314 8.895619
vt -1.04659 8.525709
vt -1.690255 8.70829
vt -1.634555 8.414308
vt -1.102291 8.819691
vt -2.591058 8.198005
vt -2.658693 8.489472
vt -2.165514 8.296752
vt -2.23315 8.588221
vt -1.383858 3.670951
vt 1.383858 0.08349256
vt 1.383858 3.670951
vt -1.383858 0.08349256
vt 1.194092 8.793738
vt 1.62849 8.747512
vt 1.16243 8.496205
vt 1.596828 8.449979
vt 0.6928297 0.04709702
vt 0.2708646 0.1601622
vt 1.176067 1.850564
vt 0.7541022 1.963629
vt -0.395834 -0.8319927
vt -1.137344 0.8815347
vt 0.005087509 -0.6584985
vt -0.736422 1.055029
vt -0.04318408 8.958869
vt 0.0001376381 8.662809
vt -0.4754314 8.895619
vt -0.4321097 8.59956
vt -0.3741447 8.743729
vt -1.027428 8.888165
vt -0.9545459 8.597964
vt -0.4470268 9.03393
vt 1.690255 8.70829
vt 1.04659 8.525709
vt 1.634555 8.414308
vt 1.102291 8.819691
vt -1.930063 8.35441
vt -2.005035 8.644078
vt -0.1225359 8.822233
vt -0.1975074 9.1119
vt 0.07864392 8.61616
vt -0.5450133 8.858426
vt -0.5171881 8.56051
vt 0.05081869 8.914077
vt -1.194092 8.793738
vt -1.16243 8.496205
vt -1.62849 8.747512
vt -1.596828 8.449979
vt -1.383858 3.167951
vt 1.383858 1.374222
vt 1.383858 3.167951
vt -1.383858 1.374222
vt -0.6919292 0.4773571
vt -1.383858 -0.4195074
vt 1.383858 -0.4195074
vt 0.6919292 0.4773571
vt 1.930063 8.35441
vt 0.1225359 8.822233
vt 2.005035 8.644078
vt 0.1975074 9.1119
vt -2.102609 8.31283
vt -2.168141 8.604777
vt -0.2808529 8.721752
vt -0.3463853 9.0137
vt -2.635671 8.178734
vt -2.707122 8.46929
vt -0.8226003 8.624589
vt -0.8940515 8.915145
vt 2.108757 8.667459
vt 2.069025 8.370896
vt 0.2582047 8.915386
vt 0.2184728 8.618824
vt -0.05081869 8.914077
vt 0.5171881 8.56051
vt 0.5450133 8.858426
vt -0.07864392 8.61616
vt 1.269172 8.80401
vt 1.248471 8.505515
vt 0.8333682 8.834234
vt 0.8126674 8.535738
vt 2.591058 8.198005
vt 2.165514 8.296752
vt 2.658693 8.489472
vt 2.23315 8.588221
vt -0.1573072 2.055675
vt 0.2086505 1.81711
vt -1.176927 0.4915816
vt -0.8109692 0.2530167
vt -1.248471 8.505515
vt -1.269172 8.80401
vt -0.8126674 8.535738
vt -0.8333682 8.834234
vt 0.9206333 0.2612959
vt 1.139058 -0.1170276
vt -0.6963112 -0.6722474
vt -0.477886 -1.050571
vt -2.069025 8.370896
vt -2.108757 8.667459
vt -0.2184728 8.618824
vt -0.2582047 8.915386
vt 1.027428 8.888165
vt 0.3741447 8.743729
vt 0.9545459 8.597964
vt 0.4470268 9.03393
vt -0.07277845 8.710216
vt -0.7164437 8.892797
vt -0.6607432 8.598815
vt -0.1284789 9.004198
vt 2.635671 8.178734
vt 0.8226003 8.624589
vt 2.707122 8.46929
vt 0.8940515 8.915145
vt 3.217477 8.359806
vt 2.566906 8.203609
vt 3.149842 8.068338
vt 2.634541 8.495077
vt 1.187367 8.489017
vt 0.6339732 8.865043
vt 0.5942413 8.56848
vt 1.227099 8.78558
vt -1.227099 8.78558
vt -0.5942413 8.56848
vt -0.6339732 8.865043
vt -1.187367 8.489017
vt 1.097542 -0.8033702
vt 0.2800779 -0.5843314
vt 0.5792906 -1.102583
vt 0.7983293 -0.2851188
vt 0.2776889 1.067984
vt 1.12399 1.067984
vt 0.7008394 1.491134
vt 0.7008395 0.6448333
vt -2.566906 8.203609
vt -3.217477 8.359806
vt -3.149842 8.068338
vt -2.634541 8.495077
vt 0.7164437 8.892797
vt 0.07277845 8.710216
vt 0.6607432 8.598815
vt 0.1284789 9.004198
vt -1.383858 -1.290729
vt 1.383858 -1.290729
vt -1.383858 2.296729
vt 1.383858 2.296729

usemtl brownLight

f 3/3/2 2/2/1 1/1/1
f 2/2/1 3/3/2 4/4/2
f 7/7/4 6/6/3 5/5/3
f 6/6/3 7/7/4 8/8/4
f 11/11/6 10/10/5 9/9/5
f 10/10/5 11/11/6 12/12/7
f 15/15/3 14/14/3 13/13/3
f 14/14/3 15/15/3 16/16/3
f 17/19/8 12/18/7 11/17/6
f 12/18/7 17/19/8 18/20/7
f 18/20/7 17/19/8 2/21/8
f 18/20/7 2/21/8 4/22/6
f 11/3/10 19/2/9 17/1/9
f 19/2/9 11/3/10 20/4/10
f 15/20/13 19/23/12 20/22/11
f 19/23/12 15/20/13 13/18/13
f 19/23/12 13/18/13 1/24/12
f 1/24/12 13/18/13 3/17/11
f 9/27/5 8/26/4 7/25/4
f 8/26/4 9/27/5 10/28/5
f 22/31/14 21/30/14 18/29/14
f 21/30/14 22/31/14 23/32/14
f 23/32/14 22/31/14 24/33/14
f 24/33/14 22/31/14 25/34/14
f 24/33/14 25/34/14 26/35/14
f 26/35/14 25/34/14 27/36/14
f 28/37/14 27/36/14 25/34/14
f 28/37/14 25/34/14 29/38/14
f 28/37/14 30/39/14 27/36/14
f 28/37/14 31/40/14 30/39/14
f 32/41/14 31/40/14 28/37/14
f 32/41/14 33/42/14 31/40/14
f 13/43/14 33/42/14 32/41/14
f 33/42/14 13/43/14 14/44/14
f 34/31/15 4/43/2 3/29/2
f 4/43/2 34/31/15 35/41/15
f 35/41/15 34/31/15 36/37/15
f 36/37/15 34/31/15 37/34/15
f 36/37/15 37/34/15 38/45/15
f 39/31/15 16/30/15 15/29/15
f 16/30/15 39/31/15 40/32/15
f 40/32/15 39/31/15 41/33/15
f 41/33/15 39/31/15 42/34/15
f 41/33/15 42/34/15 43/35/15
f 43/35/15 42/34/15 44/46/15
f 44/46/15 42/34/15 8/37/15
f 8/37/15 42/34/15 6/47/15
f 8/37/15 45/39/15 44/46/15
f 8/37/15 46/40/15 45/39/15
f 10/41/15 46/40/15 8/37/15
f 10/41/15 47/42/15 46/40/15
f 12/43/15 47/42/15 10/41/15
f 47/42/15 12/43/15 48/44/15
f 5/50/3 42/49/16 49/48/16
f 42/49/16 5/50/3 6/51/3
f 29/6/3 37/7/16 28/8/16
f 37/7/16 29/6/3 38/5/3
f 25/49/4 38/50/3 29/51/3
f 38/50/3 25/49/4 36/48/4
f 32/28/17 37/25/16 34/27/17
f 37/25/16 32/28/17 28/26/16
f 9/31/14 20/43/10 11/29/10
f 20/43/10 9/31/14 50/41/14
f 50/41/14 9/31/14 7/34/14
f 50/41/14 7/34/14 49/37/14
f 49/37/14 7/34/14 5/45/14
f 48/54/3 18/53/3 21/52/3
f 18/53/3 48/54/3 12/55/3
f 32/10/17 3/11/11 13/12/13
f 3/11/11 32/10/17 34/9/17
f 2/58/1 19/57/9 1/56/1
f 19/57/9 2/58/1 17/59/9
f 18/62/7 35/61/5 22/60/5
f 35/61/5 18/62/7 4/63/6
f 49/66/16 39/65/17 50/64/17
f 39/65/17 49/66/16 42/67/16
f 22/65/5 36/66/4 25/67/4
f 36/66/4 22/65/5 35/64/5
f 50/61/17 15/62/13 20/63/11
f 15/62/13 50/61/17 39/60/17

usemtl yellow

f 1/1/19 2/2/19 3/3/18
f 4/4/18 3/3/18 2/2/19
f 53/70/20 52/69/20 51/68/20
f 52/69/20 53/70/20 54/71/20
f 51/68/21 52/69/21 53/70/21
f 54/71/21 53/70/21 52/69/21
f 57/74/22 56/73/22 55/72/22
f 58/75/22 55/72/22 56/73/22
f 59/78/23 53/77/23 51/76/23
f 53/77/23 59/78/23 60/79/23
f 51/76/24 53/77/24 59/78/24
f 60/79/24 59/78/24 53/77/24
f 63/82/25 62/81/25 61/80/25
f 64/83/25 61/80/25 62/81/25
f 67/86/26 66/85/26 65/84/26
f 66/85/26 67/86/26 68/87/26
f 65/84/27 66/85/27 67/86/27
f 68/87/27 67/86/27 66/85/27
f 5/5/29 6/6/29 7/7/28
f 8/8/28 7/7/28 6/6/29
f 9/9/31 10/10/31 11/11/30
f 12/12/32 11/11/30 10/10/31
f 13/13/29 14/14/29 15/15/29
f 16/16/29 15/15/29 14/14/29
f 40/90/33 16/89/34 33/88/33
f 14/91/34 33/88/33 16/89/34
f 11/17/30 12/18/32 17/19/12
f 18/20/32 17/19/12 12/18/32
f 2/21/12 17/19/12 18/20/32
f 4/22/30 2/21/12 18/20/32
f 17/1/36 19/2/36 11/3/35
f 20/4/35 11/3/35 19/2/36
f 20/22/38 19/23/8 15/20/37
f 13/18/37 15/20/37 19/23/8
f 1/24/8 13/18/37 19/23/8
f 3/17/38 13/18/37 1/24/8
f 7/25/28 8/26/28 9/27/31
f 10/28/31 9/27/31 8/26/28
f 71/94/39 70/93/39 69/92/39
f 70/93/39 71/94/39 72/95/39
f 69/92/40 70/93/40 71/94/40
f 72/95/40 71/94/40 70/93/40
f 75/98/41 74/97/41 73/96/41
f 74/97/41 75/98/41 76/99/41
f 73/96/22 74/97/22 75/98/22
f 76/99/22 75/98/22 74/97/22
f 47/88/31 23/90/31 48/91/42
f 21/89/42 48/91/42 23/90/31
f 78/102/41 70/101/41 77/100/41
f 70/101/41 78/102/41 69/103/41
f 77/100/22 70/101/22 78/102/22
f 69/103/22 78/102/22 70/101/22
f 79/106/24 52/105/24 54/104/24
f 52/105/24 79/106/24 80/107/24
f 54/104/23 52/105/23 79/106/23
f 80/107/23 79/106/23 52/105/23
f 82/110/43 57/109/43 81/108/43
f 55/111/43 81/108/43 57/109/43
f 85/114/44 84/113/44 83/112/44
f 86/115/44 83/112/44 84/113/44
f 88/118/45 73/117/45 87/116/45
f 73/117/45 88/118/45 75/119/45
f 87/116/46 73/117/46 88/118/46
f 75/119/46 88/118/46 73/117/46
f 81/122/47 55/121/47 89/120/47
f 58/123/47 89/120/47 55/121/47
f 77/126/40 90/125/40 78/124/40
f 90/125/40 77/126/40 91/127/40
f 78/124/39 90/125/39 77/126/39
f 91/127/39 77/126/39 90/125/39
f 18/29/15 21/30/15 22/31/15
f 23/32/15 22/31/15 21/30/15
f 24/33/15 22/31/15 23/32/15
f 25/34/15 22/31/15 24/33/15
f 26/35/15 25/34/15 24/33/15
f 27/36/15 25/34/15 26/35/15
f 25/34/15 27/36/15 28/37/15
f 29/38/15 25/34/15 28/37/15
f 27/36/15 30/39/15 28/37/15
f 30/39/15 31/40/15 28/37/15
f 28/37/15 31/40/15 32/41/15
f 31/40/15 33/42/15 32/41/15
f 32/41/15 33/42/15 13/43/15
f 14/44/15 13/43/15 33/42/15
f 3/29/18 4/43/18 34/31/14
f 35/41/14 34/31/14 4/43/18
f 36/37/14 34/31/14 35/41/14
f 37/34/14 34/31/14 36/37/14
f 38/45/14 37/34/14 36/37/14
f 43/130/48 41/129/49 30/128/48
f 30/128/48 41/129/49 31/131/49
f 31/131/49 41/129/49 92/132/49
f 31/131/49 92/132/49 33/133/33
f 40/134/33 33/133/33 92/132/49
f 93/135/49 92/132/49 41/129/49
f 40/134/33 93/135/49 41/129/49
f 93/135/49 40/134/33 92/132/49
f 15/29/14 16/30/14 39/31/14
f 40/32/14 39/31/14 16/30/14
f 41/33/14 39/31/14 40/32/14
f 42/34/14 39/31/14 41/33/14
f 43/35/14 42/34/14 41/33/14
f 44/46/14 42/34/14 43/35/14
f 8/37/14 42/34/14 44/46/14
f 6/47/14 42/34/14 8/37/14
f 44/46/14 45/39/14 8/37/14
f 45/39/14 46/40/14 8/37/14
f 8/37/14 46/40/14 10/41/14
f 46/40/14 47/42/14 10/41/14
f 10/41/14 47/42/14 12/43/14
f 48/44/14 12/43/14 47/42/14
f 74/138/46 95/137/46 94/136/46
f 95/137/46 74/138/46 76/139/46
f 94/136/45 95/137/45 74/138/45
f 76/139/45 74/138/45 95/137/45
f 80/142/21 60/141/21 59/140/21
f 60/141/21 80/142/21 79/143/21
f 59/140/20 60/141/20 80/142/20
f 79/143/20 80/142/20 60/141/20
f 49/48/48 42/49/48 5/50/29
f 6/51/29 5/50/29 42/49/48
f 26/130/28 24/129/50 45/128/28
f 46/131/50 45/128/28 24/129/50
f 96/135/50 46/131/50 24/129/50
f 96/135/50 24/129/50 23/134/31
f 23/134/31 47/133/31 96/135/50
f 46/131/50 97/132/50 47/133/31
f 96/135/50 47/133/31 97/132/50
f 97/132/50 46/131/50 96/135/50
f 28/8/48 37/7/48 29/6/29
f 38/5/29 29/6/29 37/7/48
f 29/51/29 38/50/29 25/49/28
f 36/48/28 25/49/28 38/50/29
f 34/27/33 37/25/48 32/28/33
f 28/26/48 32/28/33 37/25/48
f 71/146/51 78/145/51 90/144/51
f 78/145/51 71/146/51 69/147/51
f 90/144/52 78/145/52 71/146/52
f 69/147/52 71/146/52 78/145/52
f 68/150/53 99/149/53 98/148/53
f 99/149/53 68/150/53 67/151/53
f 98/148/54 99/149/54 68/150/54
f 67/151/54 68/150/54 99/149/54
f 57/154/55 82/153/55 56/152/55
f 100/155/55 56/152/55 82/153/55
f 11/29/35 20/43/35 9/31/15
f 50/41/15 9/31/15 20/43/35
f 7/34/15 9/31/15 50/41/15
f 49/37/15 7/34/15 50/41/15
f 5/45/15 7/34/15 49/37/15
f 21/52/29 18/53/29 48/54/29
f 12/55/29 48/54/29 18/53/29
f 13/12/37 3/11/38 32/10/33
f 34/9/33 32/10/33 3/11/38
f 74/158/56 87/157/56 73/156/56
f 87/157/56 74/158/56 94/159/56
f 73/156/57 87/157/57 74/158/57
f 94/159/57 74/158/57 87/157/57
f 1/56/19 19/57/36 2/58/19
f 17/59/36 2/58/19 19/57/36
f 22/60/31 35/61/31 18/62/32
f 4/63/30 18/62/32 35/61/31
f 102/162/27 99/161/27 101/160/27
f 99/161/27 102/162/27 98/163/27
f 101/160/26 99/161/26 102/162/26
f 98/163/26 102/162/26 99/161/26
f 53/166/58 79/165/58 54/164/58
f 79/165/58 53/166/58 60/167/58
f 54/164/59 79/165/59 53/166/59
f 60/167/59 53/166/59 79/165/59
f 50/64/33 39/65/33 49/66/48
f 42/67/48 49/66/48 39/65/33
f 95/170/57 75/169/57 88/168/57
f 75/169/57 95/170/57 76/171/57
f 88/168/56 75/169/56 95/170/56
f 76/171/56 95/170/56 75/169/56
f 98/174/58 66/173/58 68/172/58
f 66/173/58 98/174/58 102/175/58
f 68/172/59 66/173/59 98/174/59
f 102/175/59 98/174/59 66/173/59
f 65/178/54 102/177/54 101/176/54
f 102/177/54 65/178/54 66/179/54
f 101/176/53 102/177/53 65/178/53
f 66/179/53 65/178/53 102/177/53
f 25/67/28 36/66/28 22/65/31
f 35/64/31 22/65/31 36/66/28
f 20/63/38 15/62/37 50/61/33
f 39/60/33 50/61/33 15/62/37
f 100/182/60 89/181/60 56/180/60
f 58/183/60 56/180/60 89/181/60
f 85/186/61 83/185/61 63/184/61
f 62/187/61 63/184/61 83/185/61
f 77/190/52 72/189/52 91/188/52
f 72/189/52 77/190/52 70/191/52
f 91/188/51 72/189/51 77/190/51
f 70/191/51 77/190/51 72/189/51
f 105/194/62 104/193/62 103/192/62
f 106/195/62 103/192/62 104/193/62
f 108/198/63 107/197/63 104/196/63
f 106/199/63 104/196/63 107/197/63
f 110/202/64 109/201/64 103/200/64
f 105/203/64 103/200/64 109/201/64
f 103/206/22 106/205/22 110/204/22
f 107/207/22 110/204/22 106/205/22
f 64/210/59 62/209/59 86/208/59
f 83/211/59 86/208/59 62/209/59
f 109/214/65 110/213/65 108/212/65
f 107/215/65 108/212/65 110/213/65
f 84/218/66 61/217/66 86/216/66
f 64/219/66 86/216/66 61/217/66
f 90/102/22 104/205/22 91/100/22
f 71/103/22 104/205/22 90/102/22
f 105/206/22 91/100/22 104/205/22
f 105/206/22 30/220/48 91/100/22
f 91/100/22 30/220/48 72/101/22
f 43/221/48 30/220/48 105/206/22
f 105/206/22 109/204/22 43/221/48
f 27/222/29 72/101/22 30/220/48
f 71/103/22 72/101/22 27/222/29
f 44/223/29 43/221/48 109/204/22
f 108/207/22 44/223/29 109/204/22
f 108/207/22 104/205/22 94/97/22
f 94/97/22 104/205/22 71/103/22
f 87/96/22 108/207/22 94/97/22
f 87/96/22 44/223/29 108/207/22
f 88/98/22 44/223/29 87/96/22
f 95/99/22 44/223/29 88/98/22
f 27/222/29 44/223/29 95/99/22
f 82/74/22 94/97/22 71/103/22
f 95/99/22 94/97/22 82/74/22
f 82/74/22 71/103/22 100/73/22
f 100/73/22 71/103/22 27/222/29
f 81/72/22 95/99/22 82/74/22
f 89/75/22 100/73/22 27/222/29
f 89/75/22 95/99/22 81/72/22
f 95/99/22 89/75/22 27/222/29
f 84/208/59 59/167/59 61/210/59
f 85/211/59 59/167/59 84/208/59
f 80/165/59 61/210/59 59/167/59
f 80/165/59 27/223/29 61/210/59
f 52/164/59 27/223/29 80/165/59
f 61/210/59 27/223/29 63/209/59
f 44/222/29 27/223/29 52/164/59
f 52/164/59 51/166/59 44/222/29
f 45/220/28 44/222/29 51/166/59
f 59/167/59 45/220/28 51/166/59
f 26/221/28 63/209/59 27/223/29
f 85/211/59 63/209/59 65/173/59
f 65/173/59 63/209/59 26/221/28
f 67/172/59 85/211/59 65/173/59
f 67/172/59 59/167/59 85/211/59
f 101/175/59 65/173/59 26/221/28
f 26/221/28 45/220/28 101/175/59
f 99/174/59 59/167/59 67/172/59
f 101/175/59 45/220/28 99/174/59
f 99/174/59 45/220/28 59/167/59

usemtl red

f 55/72/41 56/73/41 57/74/41
f 56/73/41 55/72/41 58/75/41
f 61/80/44 62/81/44 63/82/44
f 62/81/44 61/80/44 64/83/44
f 81/108/60 57/109/60 82/110/60
f 57/109/60 81/108/60 55/111/60
f 83/112/25 84/113/25 85/114/25
f 84/113/25 83/112/25 86/115/25
f 89/120/55 55/121/55 81/122/55
f 55/121/55 89/120/55 58/123/55
f 56/152/47 82/153/47 57/154/47
f 82/153/47 56/152/47 100/155/47
f 56/180/43 89/181/43 100/182/43
f 89/181/43 56/180/43 58/183/43
f 63/184/66 83/185/66 85/186/66
f 83/185/66 63/184/66 62/187/66
f 103/192/65 104/193/65 105/194/65
f 104/193/65 103/192/65 106/195/65
f 104/196/64 107/197/64 108/198/64
f 107/197/64 104/196/64 106/199/64
f 103/200/63 109/201/63 110/202/63
f 109/201/63 103/200/63 105/203/63
f 110/204/41 106/205/41 103/206/41
f 106/205/41 110/204/41 107/207/41
f 86/208/58 62/209/58 64/210/58
f 62/209/58 86/208/58 83/211/58
f 108/212/62 110/213/62 109/214/62
f 110/213/62 108/212/62 107/215/62
f 86/216/61 61/217/61 84/218/61
f 61/217/61 86/216/61 64/219/61

usemtl brownDark

f 33/88/17 16/89/67 40/90/17
f 16/89/67 33/88/17 14/91/67
f 47/133/5 97/132/68 46/131/68
f 97/132/68 47/133/5 96/135/68
f 96/135/68 47/133/5 23/134/5
f 23/134/5 24/129/68 96/135/68
f 48/91/69 23/90/5 47/88/5
f 23/90/5 48/91/69 21/89/69
f 41/129/70 93/135/70 40/134/17
f 92/132/70 40/134/17 93/135/70
f 92/132/70 33/133/17 40/134/17
f 33/133/17 92/132/70 31/131/70

usemtl green

f 41/129/70 92/132/70 93/135/70
f 92/132/70 41/129/70 31/131/70
f 31/131/70 41/129/70 30/128/16
f 30/128/16 41/129/70 43/130/16
f 45/128/4 24/129/68 26/130/4
f 24/129/68 45/128/4 46/131/68
f 24/129/68 46/131/68 96/135/68
f 96/135/68 46/131/68 97/132/68
f 91/100/41 104/205/41 90/102/41
f 90/102/41 104/205/41 71/103/41
f 104/205/41 91/100/41 105/206/41
f 91/100/41 30/220/16 105/206/41
f 72/101/41 30/220/16 91/100/41
f 105/206/41 30/220/16 43/221/16
f 43/221/16 109/204/41 105/206/41
f 30/220/16 72/101/41 27/222/3
f 27/222/3 72/101/41 71/103/41
f 109/204/41 43/221/16 44/223/3
f 109/204/41 44/223/3 108/207/41
f 94/97/41 104/205/41 108/207/41
f 71/103/41 104/205/41 94/97/41
f 94/97/41 108/207/41 87/96/41
f 108/207/41 44/223/3 87/96/41
f 87/96/41 44/223/3 88/98/41
f 88/98/41 44/223/3 95/99/41
f 95/99/41 44/223/3 27/222/3
f 71/103/41 94/97/41 82/74/41
f 82/74/41 94/97/41 95/99/41
f 100/73/41 71/103/41 82/74/41
f 27/222/3 71/103/41 100/73/41
f 82/74/41 95/99/41 81/72/41
f 27/222/3 100/73/41 89/75/41
f 81/72/41 95/99/41 89/75/41
f 27/222/3 89/75/41 95/99/41
f 61/210/58 59/167/58 84/208/58
f 84/208/58 59/167/58 85/211/58
f 59/167/58 61/210/58 80/165/58
f 61/210/58 27/223/3 80/165/58
f 80/165/58 27/223/3 52/164/58
f 63/209/58 27/223/3 61/210/58
f 52/164/58 27/223/3 44/222/3
f 44/222/3 51/166/58 52/164/58
f 51/166/58 44/222/3 45/220/4
f 51/166/58 45/220/4 59/167/58
f 27/223/3 63/209/58 26/221/4
f 65/173/58 63/209/58 85/211/58
f 26/221/4 63/209/58 65/173/58
f 65/173/58 85/211/58 67/172/58
f 85/211/58 59/167/58 67/172/58
f 26/221/4 65/173/58 101/175/58
f 101/175/58 45/220/4 26/221/4
f 67/172/58 59/167/58 99/174/58
f 59/167/58 45/220/4 99/174/58
f 99/174/58 45/220/4 101/175/58

