# Created by Kenney (www.kenney.nl)

mtllib tajine.mtl

g tajine

v 0.4095529 0.1118046 0.1330718
v 0.4095529 0.1118046 -0.1330718
v 0.3317378 0.03480408 0.1077882
v 0.3317378 0.03480408 -0.1077882
v -0.4095529 0.1118046 0.1330718
v -0.4095529 0.1380046 0.1330718
v -0.2531176 0.1118046 0.3483865
v -0.2531176 0.1380046 0.3483865
v -0.2050253 0.03480408 -0.2821931
v -0.2531176 0.1118046 -0.3483865
v -0.3317378 0.03480408 -0.1077882
v -0.4095529 0.1118046 -0.1330718
v 0.2722528 0 0.0884603
v 0.1682615 0 0.2315921
v 0.288588 0.03480408 0.09376792
v 0.1783572 0.03480408 0.2454876
v 5.583985E-13 0.1118046 0.4306294
v 5.583985E-13 0.1380046 0.4306294
v 0.288588 0.03480408 -0.09376792
v 0.2722528 0 -0.0884603
v -0.1682615 0 -0.2315921
v -3.74672E-13 0 -0.2862636
v -0.1783572 0.03480408 -0.2454876
v -3.945246E-13 0.03480408 -0.3034394
v -0.288588 0.03480408 -0.09376792
v -0.2722528 0 -0.0884603
v 3.692577E-13 0 0.2862636
v -0.1682615 0 0.2315921
v 3.923589E-13 0.03480408 0.3034394
v -0.1783572 0.03480408 0.2454876
v -0.288588 0.03480408 0.09376792
v -0.2722528 0 0.0884603
v -0.2201941 0.09032057 0.3030711
v 4.851245E-13 0.09032057 0.3746165
v -0.233452 0.1380046 0.3213191
v 5.147228E-13 0.1380046 0.3971723
v 0.1682615 0 -0.2315921
v 0.1783572 0.03480408 -0.2454876
v -5.612861E-13 0.1118046 -0.4306294
v -0.2531176 0.1380046 -0.3483865
v -5.612861E-13 0.1380046 -0.4306294
v 0.2531176 0.1118046 -0.3483865
v 0.2050253 0.03480408 -0.2821931
v 0.2531176 0.1118046 0.3483865
v 0.2531176 0.1380046 0.3483865
v 0.4095529 0.1380046 -0.1330718
v 0.4095529 0.1380046 0.1330718
v 0.233452 0.1380046 -0.3213191
v 0.3777333 0.1380046 -0.122733
v 0.2201941 0.09032057 -0.3030711
v 0.3562815 0.09032057 -0.1157629
v 0.2201941 0.09032057 0.3030711
v 0.233452 0.1380046 0.3213191
v 0.2531176 0.1380046 -0.3483865
v 0.2050253 0.03480408 0.2821931
v 4.533604E-13 0.03480408 0.3488098
v -4.548042E-13 0.03480408 -0.3488098
v -0.2050253 0.03480408 0.2821931
v -0.3317378 0.03480408 0.1077882
v -0.4095529 0.1380046 -0.1330718
v -4.88734E-13 0.09032057 -0.3746165
v -0.2201941 0.09032057 -0.3030711
v -5.176105E-13 0.1380046 -0.3971723
v -0.233452 0.1380046 -0.3213191
v 0.3562815 0.09032057 0.1157629
v 0.3777333 0.1380046 0.122733
v -0.3562815 0.09032057 0.1157629
v -0.3777333 0.1380046 0.122733
v -0.4095529 0.1380046 -0.020698
v -0.4095529 0.1380046 0.020698
v -0.3777333 0.1380046 -0.122733
v -0.4095529 0.1118046 -0.020698
v -0.4095529 0.1118046 0.020698
v -0.3562815 0.09032057 -0.1157629
v 0.2781411 0.07400714 0.09037352
v 0.1719007 0.07400714 0.236601
v 0.2781411 0.07400714 -0.09037352
v 0.1719007 0.07400714 -0.236601
v 3.82974E-13 0.07400714 0.2924549
v -3.790035E-13 0.07400714 -0.2924549
v -0.1719007 0.07400714 0.236601
v -0.1719007 0.07400714 -0.236601
v -0.2781411 0.07400714 0.09037352
v -0.2781411 0.07400714 -0.09037352

vn 0.6517928 -0.7282274 0.2117803
vn 0.6517928 -0.7282274 -0.2117803
vn -0.9510565 0 0.309017
vn -0.5877852 0 0.809017
vn -0.4028301 -0.7282274 -0.5544481
vn -0.6517928 -0.7282274 -0.2117803
vn 0.8528567 -0.4425445 0.27711
vn 0.5270944 -0.4425444 0.7254832
vn 0 0 1
vn 0.8528567 -0.4425445 -0.27711
vn -0.5270944 -0.4425444 -0.7254832
vn 0 -0.4425444 -0.8967466
vn -0.8528567 -0.4425445 -0.27711
vn 0 -0.4425444 0.8967466
vn -0.5270944 -0.4425444 0.7254832
vn -0.8528567 -0.4425445 0.27711
vn 0.5313388 0.4276009 -0.7313251
vn 0 0.427601 -0.9039676
vn 0 -1 0
vn 0.5270944 -0.4425444 -0.7254832
vn -0.5877852 0 -0.809017
vn 0 0 -1
vn 0.4028301 -0.7282274 -0.5544481
vn 0.5877852 0 0.809017
vn 0.9510565 0 -0.309017
vn 0.9510565 0 0.309017
vn -0.5313388 0.4276009 0.7313251
vn -0.8597242 0.4276009 0.2793413
vn -0.5313388 0.4276009 -0.7313251
vn 0.5877852 0 -0.809017
vn 0.4028301 -0.7282274 0.5544481
vn 0 -0.7282274 0.6853355
vn 0 -0.7282274 -0.6853355
vn -0.4028301 -0.7282274 0.5544481
vn -0.6517928 -0.7282274 0.2117803
vn -0.9510565 0 -0.309017
vn 0 0.427601 0.9039676
vn 0.5313388 0.4276009 0.7313251
vn -0.8597242 0.4276009 -0.2793413
vn 0.8597242 0.4276009 -0.2793413
vn 0 1 0
vn -1 0 0
vn 0.8597242 0.4276009 0.2793413
vn -0.7033765 -0.7108174 0
vn 0.1144718 0.9808527 -0.157557
vn 0.1852193 0.9808527 -0.06018141
vn -0.1852193 0.9808527 0.06018141
vn -0.1144718 0.9808527 0.157557
vn 0 0.9808527 0.1947511
vn -0.1852193 0.9808527 -0.06018141
vn -0.1144718 0.9808527 -0.157557
vn 0 0.9808527 -0.1947511
vn 0.1144718 0.9808527 0.157557
vn 0.1852193 0.9808527 0.06018141

vt -5.239048 14.5574
vt 5.239048 14.5574
vt -4.243629 10.24746
vt 4.243629 10.24746
vt -5.239048 4.401755
vt -5.239048 5.433251
vt 5.239048 4.401755
vt 5.239048 5.433251
vt 3.482689 4.554087
vt -3.482689 4.554087
vt 3.69165 6.067743
vt -3.69165 6.067743
vt 4.557593 8.997667
vt -4.557593 8.997667
vt 4.832008 11.05622
vt -4.832008 11.05622
vt 10.71861 3.482689
vt 10.71861 -3.482689
vt 6.624468 9.117799
vt 6.624468 -9.117799
vt 1.45377E-11 11.27022
vt -1.475087E-11 -11.27022
vt -6.624468 9.117799
vt -6.624468 -9.117799
vt -10.71861 3.482689
vt -10.71861 -3.482689
vt 16.12413 -0.8148819
vt 16.12413 -5.239048
vt 16.12413 0.8148819
vt 16.12413 5.239048
vt 14.87139 -4.832008
vt 9.965261 -13.716
vt 14.87139 4.832008
vt 9.191025 -12.65036
vt 9.965261 13.716
vt 9.191025 12.65036
vt -2.026468E-11 15.63671
vt -2.198419E-11 16.95391
vt -9.191025 12.65036
vt -9.965261 13.716
vt 2.209788E-11 -16.95391
vt 2.037837E-11 -15.63671
vt -9.191025 -12.65036
vt -9.965261 -13.716
vt -14.87139 -4.832008
vt -16.12413 -5.239048
vt -14.87139 4.832008
vt -16.12413 5.239048
vt -0.8148819 4.401755
vt -0.8148819 5.433251
vt 0.8148819 4.401755
vt 0.8148819 5.433251
vt 0.8148819 14.5574
vt -0.8148819 14.5574
vt -10.95044 3.558013
vt -6.767743 9.314999
vt -10.95044 -3.558013
vt -6.767743 -9.314999
vt -1.507772E-11 11.51397
vt 1.49214E-11 -11.51397
vt 6.767743 9.314999
vt 6.767743 -9.314999
vt 10.95044 3.558013
vt 10.95044 -3.558013
vt 13.06054 -4.243629
vt 11.36173 3.69165
vt 13.06054 4.243629
vt 8.071861 11.10996
vt 11.36173 -3.69165
vt 7.021936 9.664866
vt 8.071861 -11.10996
vt 1.784883E-11 13.73267
vt 7.021936 -9.664866
vt 1.54472E-11 11.94643
vt -1.790568E-11 -13.73267
vt -1.553246E-11 -11.94643
vt -7.021936 -9.664866
vt -8.071861 -11.10996
vt -8.071861 11.10996
vt -7.021936 9.664866
vt -11.36173 3.69165
vt -13.06054 4.243629
vt -11.36173 -3.69165
vt -13.06054 -4.243629
vt -3.558013 11.31478
vt -4.557593 14.4575
vt 3.558013 11.31478
vt 4.557593 14.4575

usemtl brown

f 3/3/1 2/2/2 1/1/1
f 2/2/2 3/3/1 4/4/2
f 7/7/4 6/6/3 5/5/3
f 6/6/3 7/7/4 8/8/4
f 11/4/6 10/1/5 9/3/5
f 10/1/5 11/4/6 12/2/6
f 15/11/7 14/10/8 13/9/7
f 14/10/8 15/11/7 16/12/8
f 18/8/9 7/5/4 17/7/9
f 7/5/4 18/8/9 8/6/4
f 15/12/7 20/9/10 19/11/10
f 20/9/10 15/12/7 13/10/7
f 23/11/11 22/10/12 21/9/11
f 22/10/12 23/11/11 24/12/12
f 21/10/11 25/11/13 23/12/11
f 25/11/13 21/10/11 26/9/13
f 29/11/14 28/10/15 27/9/14
f 28/10/15 29/11/14 30/12/15
f 26/10/13 31/11/16 25/12/13
f 31/11/16 26/10/13 32/9/16
f 35/15/17 34/14/18 33/13/17
f 34/14/18 35/15/17 36/16/18
f 14/19/19 20/18/19 13/17/19
f 20/18/19 14/19/19 37/20/19
f 37/20/19 14/19/19 27/21/19
f 37/20/19 27/21/19 22/22/19
f 22/22/19 27/21/19 28/23/19
f 22/22/19 28/23/19 21/24/19
f 21/24/19 28/23/19 32/25/19
f 21/24/19 32/25/19 26/26/19
f 16/11/8 27/10/14 14/9/8
f 27/10/14 16/11/8 29/12/14
f 19/12/10 37/9/20 38/11/20
f 37/9/20 19/12/10 20/10/10
f 40/8/21 39/5/22 10/7/21
f 39/5/22 40/8/21 41/6/22
f 4/3/2 42/2/23 2/1/2
f 42/2/23 4/3/2 43/4/23
f 45/8/24 17/5/9 44/7/24
f 17/5/9 45/8/24 18/6/9
f 47/6/26 2/7/25 46/8/25
f 2/7/25 47/6/26 1/5/26
f 28/9/15 31/12/16 32/10/16
f 31/12/16 28/9/15 30/11/15
f 24/11/12 37/10/20 22/9/12
f 37/10/20 24/11/12 38/12/20
f 50/14/27 49/15/28 48/16/27
f 49/15/28 50/14/27 51/13/28
f 36/15/18 52/14/29 34/13/18
f 52/14/29 36/15/18 53/16/29
f 41/8/22 42/5/30 39/7/22
f 42/5/30 41/8/22 54/6/30
f 17/1/32 55/4/31 44/2/31
f 55/4/31 17/1/32 56/3/32
f 43/3/23 39/2/33 42/1/23
f 39/2/33 43/3/23 57/4/33
f 7/2/34 59/3/35 58/4/34
f 59/3/35 7/2/34 5/1/35
f 9/4/5 39/1/33 57/3/33
f 39/1/33 9/4/5 10/2/5
f 12/7/36 40/6/21 10/5/21
f 40/6/21 12/7/36 60/8/36
f 63/15/37 62/14/38 61/13/37
f 62/14/38 63/15/37 64/16/38
f 48/15/27 61/14/37 50/13/27
f 61/14/37 48/15/27 63/16/37
f 52/13/29 66/16/39 65/14/39
f 66/16/39 52/13/29 53/15/29
f 7/1/34 56/4/32 17/2/32
f 56/4/32 7/1/34 58/3/34
f 68/15/40 33/14/17 67/13/40
f 33/14/17 68/15/40 35/16/17
f 46/6/25 42/7/30 54/8/30
f 42/7/30 46/6/25 2/5/25
f 70/29/41 60/28/41 69/27/41
f 6/30/41 60/28/41 70/29/41
f 71/31/41 60/28/41 6/30/41
f 71/31/41 40/32/41 60/28/41
f 6/30/41 68/33/41 71/31/41
f 64/34/41 40/32/41 71/31/41
f 8/35/41 68/33/41 6/30/41
f 8/35/41 35/36/41 68/33/41
f 8/35/41 36/37/41 35/36/41
f 18/38/41 36/37/41 8/35/41
f 18/38/41 53/39/41 36/37/41
f 45/40/41 53/39/41 18/38/41
f 64/34/41 41/41/41 40/32/41
f 63/42/41 41/41/41 64/34/41
f 48/43/41 41/41/41 63/42/41
f 48/43/41 54/44/41 41/41/41
f 49/45/41 54/44/41 48/43/41
f 49/45/41 46/46/41 54/44/41
f 45/40/41 66/47/41 53/39/41
f 46/46/41 49/45/41 66/47/41
f 47/48/41 66/47/41 45/40/41
f 66/47/41 47/48/41 46/46/41
f 51/14/28 66/15/39 49/16/28
f 66/15/39 51/14/28 65/13/39
f 72/49/42 60/6/36 12/5/36
f 60/6/36 72/49/42 69/50/42
f 69/50/42 72/49/42 73/51/42
f 69/50/42 73/51/42 70/52/42
f 70/52/42 73/51/42 5/7/3
f 70/52/42 5/7/3 6/8/3
f 45/6/24 1/7/26 47/8/26
f 1/7/26 45/6/24 44/5/24
f 71/16/43 62/13/38 64/15/38
f 62/13/38 71/16/43 74/14/43
f 44/1/31 3/4/1 1/2/1
f 3/4/1 44/1/31 55/3/31
f 68/16/40 74/13/43 71/15/43
f 74/13/43 68/16/40 67/14/40
f 5/2/35 11/3/6 59/4/35
f 11/3/6 5/2/35 12/1/6
f 12/1/6 5/2/35 73/53/44
f 12/1/6 73/53/44 72/54/44
f 77/57/41 76/56/41 75/55/41
f 76/56/41 77/57/41 78/58/41
f 76/56/41 78/58/41 79/59/41
f 79/59/41 78/58/41 80/60/41
f 79/59/41 80/60/41 81/61/41
f 81/61/41 80/60/41 82/62/41
f 81/61/41 82/62/41 83/63/41
f 83/63/41 82/62/41 84/64/41
f 3/67/19 15/66/19 4/65/19
f 15/66/19 3/67/19 55/68/19
f 19/69/19 4/65/19 15/66/19
f 15/66/19 55/68/19 16/70/19
f 4/65/19 19/69/19 43/71/19
f 16/70/19 55/68/19 56/72/19
f 43/71/19 19/69/19 38/73/19
f 16/70/19 56/72/19 29/74/19
f 43/71/19 38/73/19 57/75/19
f 57/75/19 38/73/19 24/76/19
f 57/75/19 24/76/19 23/77/19
f 57/75/19 23/77/19 9/78/19
f 29/74/19 56/72/19 58/79/19
f 29/74/19 58/79/19 30/80/19
f 30/80/19 58/79/19 31/81/19
f 31/81/19 58/79/19 59/82/19
f 9/78/19 23/77/19 25/83/19
f 31/81/19 59/82/19 25/83/19
f 9/78/19 25/83/19 11/84/19
f 11/84/19 25/83/19 59/82/19

usemtl brownDark

f 83/87/46 33/86/45 81/85/45
f 33/86/45 83/87/46 67/88/46
f 50/86/48 77/87/47 51/88/47
f 77/87/47 50/86/48 78/85/48
f 61/86/49 78/87/48 50/88/48
f 78/87/48 61/86/49 80/85/49
f 75/85/50 52/88/51 65/86/50
f 52/88/51 75/85/50 76/87/51
f 79/85/52 33/88/45 34/86/52
f 33/88/45 79/85/52 81/87/45
f 61/88/49 82/85/53 80/87/49
f 82/85/53 61/88/49 62/86/53
f 76/85/51 34/88/52 52/86/51
f 34/88/52 76/85/51 79/87/52
f 84/87/54 67/86/46 83/85/46
f 67/86/46 84/87/54 74/88/54
f 62/88/53 84/85/54 82/87/53
f 84/85/54 62/88/53 74/86/54
f 51/86/47 75/87/50 65/88/50
f 75/87/50 51/86/47 77/85/47

