# Created by Kenney (www.kenney.nl)

mtllib tomato.mtl

g tomato

v 0.0711 0.019434 -5.414336E-16
v 0.05027529 0.019434 -0.05027529
v 0.0474 0 -8.121503E-16
v 0.03351686 0 -0.03351686
v -0.03351686 0 -0.03351686
v -0.05027529 0.019434 -0.05027529
v -0.0474 0 -8.121503E-16
v -0.0711 0.019434 -5.414336E-16
v -0.03351686 0 0.03351686
v -0.05027529 0.019434 0.05027529
v 0 0.019434 0.0711
v -9.023893E-17 0 0.0474
v 0.05027529 0.019434 0.05027529
v 0.03351686 0 0.03351686
v 0 0.019434 -0.0711
v -9.023893E-17 0 -0.0474
v 0.084846 0.058302 -2.707168E-16
v 0.05999518 0.058302 0.05999518
v 9.023893E-17 0.058302 -0.084846
v 0.05999518 0.058302 -0.05999518
v -0.05999518 0.058302 -0.05999518
v 9.023893E-17 0.058302 0.084846
v -0.084846 0.058302 -2.707168E-16
v -0.05999518 0.058302 0.05999518
v -0.05027529 0.09717 -0.05027529
v 0 0.09717 -0.0711
v 0 0.09717 0.0711
v -0.05027529 0.09717 0.05027529
v -0.0711 0.09717 -7.219114E-16
v 0.05027529 0.09717 0.05027529
v 0.03351686 0.116604 0.03351686
v -9.023893E-17 0.116604 0.0474
v 0.05027529 0.09717 -0.05027529
v 0.03351686 0.116604 -0.03351686
v -9.023893E-17 0.116604 -0.0474
v -0.03351686 0.116604 -0.03351686
v 0.0711 0.09717 -7.219114E-16
v 0.0474 0.116604 -8.121503E-16
v -0.03351686 0.116604 0.03351686
v -0.0474 0.116604 -8.121503E-16
v 0.01185 0.116604 -0.01185
v -0.01185 0.116604 -0.01185
v 0.01185 0.116604 0.01185
v -0.01185 0.116604 0.01185
v 0.04351101 0.1376643 -2.375741E-10
v 0.029178 0.1221365 -0.00785
v 0.029178 0.1221365 0.00785
v 0.00785 0.1221365 0.029178
v -0.00785 0.1221365 0.029178
v 2.375544E-10 0.1376643 0.04351101
v -0.029178 0.1221365 -0.00785
v -0.04351101 0.1376643 -2.342297E-10
v -0.029178 0.1221365 0.00785
v -0.00785 0.1221365 -0.029178
v 0.00785 0.1221365 -0.029178
v 2.342279E-10 0.1376643 -0.04351101
v 0.004229742 0.133004 -0.004229742
v 0.004229742 0.133004 0.004229742
v -0.004229742 0.133004 -0.004229742
v -0.004229742 0.133004 0.004229742
v -0.006934003 0.116604 -0.006934003
v 0.006934003 0.116604 -0.006934003
v 0.006934003 0.116604 0.006934003
v -0.006934003 0.116604 0.006934003

vn 0.6340796 -0.7732678 0
vn 0.448362 -0.7732678 -0.448362
vn -0.448362 -0.7732678 -0.448362
vn -0.6340796 -0.7732678 0
vn -0.448362 -0.7732678 0.448362
vn 0 -0.7732678 0.6340796
vn 0.448362 -0.7732678 0.448362
vn 0 -0.7732678 -0.6340796
vn 0 -1 0
vn 0.9427778 -0.3334214 0
vn 0.6666446 -0.3334215 0.6666446
vn 0 -0.3334214 -0.9427778
vn 0.6666446 -0.3334215 -0.6666446
vn -0.6666446 -0.3334215 -0.6666446
vn 0 -0.3334214 0.9427778
vn -0.9427778 -0.3334214 0
vn -0.6666446 -0.3334215 0.6666446
vn -0.6666446 0.3334215 -0.6666446
vn 0 0.3334214 -0.9427778
vn 0 0.3334214 0.9427778
vn -0.6666446 0.3334215 0.6666446
vn -0.9427778 0.3334214 0
vn 0.448362 0.7732678 0.448362
vn 0 0.7732678 0.6340796
vn 0.448362 0.7732678 -0.448362
vn 0 0.7732678 -0.6340796
vn -0.448362 0.7732678 -0.448362
vn 0.6340796 0.7732678 0
vn -0.448362 0.7732678 0.448362
vn -0.6340796 0.7732678 0
vn 0.6666446 0.3334215 0.6666446
vn 0.6666446 0.3334215 -0.6666446
vn 0.9427778 0.3334214 0
vn 0 1 0
vn 0.7348109 -0.6782718 0
vn 0.4942237 -0.8693348 0
vn 0.4942237 -0.8693348 0
vn -0.4942237 0.8693348 0
vn -0.4942237 0.8693348 0
vn -0.7348109 0.6782718 0
vn 0 -0.8693348 0.4942237
vn 0 -0.8693348 0.4942237
vn 0 -0.6782718 0.7348109
vn 0 0.6782718 -0.7348109
vn 0 0.8693348 -0.4942237
vn 0 0.8693348 -0.4942237
vn -0.4942237 -0.8693348 0
vn -0.7348109 -0.6782718 0
vn -0.4942237 -0.8693348 0
vn 0.4942237 0.8693348 0
vn 0.7348109 0.6782718 0
vn 0.4942237 0.8693348 0
vn 0 -0.8693348 -0.4942237
vn 0 -0.6782718 -0.7348109
vn 0 0.6782718 0.7348109
vn 0 0.8693348 0.4942237
vn 0 0.162697 -0.9866762
vn 0.9866762 0.162697 0
vn 0 0.162697 0.9866762
vn -0.9866762 0.162697 0
vn 0.3041546 -0.9526226 0
vn -0.3041546 0.9526226 0
vn 0 -0.9526226 0.3041546
vn 0 0.9526226 -0.3041546
vn -0.3041546 -0.9526226 0
vn 0.3041546 0.9526226 0
vn 0 -0.9526226 -0.3041546
vn 0 0.9526226 0.3041546

vt -1.071212 2.442068
vt 1.071212 2.442068
vt -0.7141415 1.289451
vt 0.7141415 1.289451
vt 1.866142 -3.197442E-14
vt 1.319561 -1.319561
vt 1.319561 1.319561
vt -3.552714E-15 1.866142
vt -3.552714E-15 -1.866142
vt -1.319561 1.319561
vt -1.319561 -1.319561
vt -1.866142 -3.197442E-14
vt 1.071212 1.530482
vt -1.071212 1.530482
vt 1.278313 3.14033
vt -1.278313 3.14033
vt 1.278313 1.223356
vt -1.278313 1.223356
vt 1.071212 2.833203
vt -1.071212 2.833203
vt 1.071212 0.6052861
vt -1.071212 0.6052861
vt 0.7141415 1.757904
vt -0.7141415 1.757904
vt 3.552714E-15 -1.866142
vt -0.4665354 -0.4665354
vt 0.4665354 -0.4665354
vt -0.4665354 0.4665354
vt 3.552714E-15 1.866142
vt 0.4665354 0.4665354
vt -4.6347E-08 5.14447
vt 0.3090551 4.312515
vt -0.3090551 4.312515
vt -4.634676E-08 5.14447
vt -3.939491E-08 5.14447
vt 0.3090551 4.312514
vt -0.3090551 4.312514
vt -3.939489E-08 5.14447
vt -0.1665253 -0.1665253
vt -0.1665253 0.1665253
vt 0.1665253 -0.1665253
vt 0.1665253 0.1665253
vt 0.2729923 4.485127
vt -0.2729923 4.485127
vt 0.1665253 5.139516
vt -0.1665253 5.139516
vt -0.3090551 2.556851
vt 0.3090551 2.556851
vt -0.4665354 1.840718
vt 0.4665354 1.840718
vt 0.3090551 2.556851
vt -0.2729923 -0.2729923
vt -0.2729923 0.2729923
vt 0.2729923 -0.2729923
vt 0.2729923 0.2729923

usemtl red

f 3/3/1 2/2/2 1/1/1
f 2/2/2 3/3/1 4/4/2
f 7/4/4 6/1/3 5/3/3
f 6/1/3 7/4/4 8/2/4
f 10/2/5 7/3/4 9/4/5
f 7/3/4 10/2/5 8/1/4
f 10/1/5 12/4/6 11/2/6
f 12/4/6 10/1/5 9/3/5
f 13/1/7 3/4/1 1/2/1
f 3/4/1 13/1/7 14/3/7
f 11/1/6 14/4/7 13/2/7
f 14/4/7 11/1/6 12/3/6
f 4/3/2 15/2/8 2/1/2
f 15/2/8 4/3/2 16/4/8
f 14/7/9 4/6/9 3/5/9
f 4/6/9 14/7/9 12/8/9
f 4/6/9 12/8/9 16/9/9
f 16/9/9 12/8/9 9/10/9
f 16/9/9 9/10/9 5/11/9
f 5/11/9 9/10/9 7/12/9
f 16/3/8 6/2/3 15/1/8
f 6/2/3 16/3/8 5/4/3
f 17/15/10 13/14/11 1/13/10
f 13/14/11 17/15/10 18/16/11
f 19/15/12 2/14/13 15/13/12
f 2/14/13 19/15/12 20/16/13
f 17/16/10 2/13/13 20/15/13
f 2/13/13 17/16/10 1/14/10
f 21/15/14 15/14/12 6/13/14
f 15/14/12 21/15/14 19/16/12
f 18/15/11 11/14/15 13/13/11
f 11/14/15 18/15/11 22/16/15
f 6/14/14 23/15/16 21/16/14
f 23/15/16 6/14/14 8/13/16
f 10/13/17 23/16/16 8/14/16
f 23/16/16 10/13/17 24/15/17
f 22/15/15 10/14/17 11/13/15
f 10/14/17 22/15/15 24/16/17
f 25/19/18 19/18/19 21/17/18
f 19/18/19 25/19/18 26/20/19
f 27/19/20 24/18/21 22/17/20
f 24/18/21 27/19/20 28/20/21
f 23/18/22 28/19/21 29/20/22
f 28/19/21 23/18/22 24/17/21
f 31/23/23 27/22/24 30/21/23
f 27/22/24 31/23/23 32/24/24
f 26/21/26 34/24/25 33/22/25
f 34/24/25 26/21/26 35/23/26
f 25/21/27 35/24/26 26/22/26
f 35/24/26 25/21/27 36/23/27
f 38/23/28 30/22/23 37/21/28
f 30/22/23 38/23/28 31/24/23
f 33/21/25 38/24/28 37/22/28
f 38/24/28 33/21/25 34/23/25
f 40/24/30 28/21/29 39/23/29
f 28/21/29 40/24/30 29/22/30
f 23/17/22 25/20/18 21/18/18
f 25/20/18 23/17/22 29/19/22
f 25/22/27 40/23/30 36/24/27
f 40/23/30 25/22/27 29/21/30
f 30/19/31 22/18/20 18/17/31
f 22/18/20 30/19/31 27/20/20
f 32/23/24 28/22/29 27/21/24
f 28/22/29 32/23/24 39/24/29
f 33/19/32 17/18/33 20/17/32
f 17/18/33 33/19/32 37/20/33
f 30/20/31 17/17/33 37/19/33
f 17/17/33 30/20/31 18/18/31
f 26/19/19 20/18/32 19/17/19
f 20/18/32 26/19/19 33/20/32
f 34/11/34 31/10/34 38/12/34
f 31/10/34 34/11/34 35/25/34
f 31/10/34 35/25/34 41/26/34
f 41/26/34 35/25/34 42/27/34
f 43/28/34 31/10/34 41/26/34
f 31/10/34 43/28/34 32/29/34
f 42/27/34 35/25/34 36/6/34
f 32/29/34 43/28/34 44/30/34
f 42/27/34 36/6/34 44/30/34
f 32/29/34 44/30/34 39/7/34
f 39/7/34 44/30/34 36/6/34
f 39/7/34 36/6/34 40/5/34

usemtl green

f 47/33/37 46/32/36 45/31/35
f 45/31/40 46/32/39 47/33/38
f 50/34/43 49/33/42 48/32/41
f 48/32/46 49/33/45 50/34/44
f 53/32/49 52/35/48 51/33/47
f 51/33/52 52/35/51 53/32/50
f 56/38/54 55/37/53 54/36/53
f 54/36/56 55/37/56 56/38/55
f 59/41/34 58/40/34 57/39/34
f 58/40/34 59/41/34 60/42/34
f 59/45/57 62/44/57 61/43/57
f 62/44/57 59/45/57 57/46/57
f 57/45/58 63/44/58 62/43/58
f 63/44/58 57/45/58 58/46/58
f 58/45/59 64/44/59 63/43/59
f 64/44/59 58/45/59 60/46/59
f 64/43/60 59/46/60 61/44/60
f 59/46/60 64/43/60 60/45/60
f 43/49/61 46/48/36 47/47/37
f 46/48/36 43/49/61 41/50/61
f 47/47/38 46/48/39 43/49/62
f 41/50/62 43/49/62 46/48/39
f 48/48/41 44/49/63 43/50/63
f 44/49/63 48/48/41 49/47/42
f 43/50/64 44/49/64 48/48/46
f 49/47/45 48/48/46 44/49/64
f 53/51/49 42/49/65 44/50/65
f 42/49/65 53/51/49 51/47/47
f 44/50/66 42/49/66 53/51/50
f 51/47/52 53/51/50 42/49/66
f 42/50/67 55/47/53 41/49/67
f 55/47/53 42/50/67 54/51/53
f 41/49/68 55/47/56 42/50/68
f 54/51/56 42/50/68 55/47/56
f 41/26/34 62/52/34 43/28/34
f 62/52/34 41/26/34 42/27/34
f 63/53/34 43/28/34 62/52/34
f 62/52/34 42/27/34 61/54/34
f 43/28/34 63/53/34 44/30/34
f 61/54/34 42/27/34 64/55/34
f 44/30/34 63/53/34 64/55/34
f 44/30/34 64/55/34 42/27/34

