# Created by Kenney (www.kenney.nl)

mtllib utensilFork.mtl

g utensilFork

v 0.2306447 0 -0.0308305
v 0.2517377 0 5.775291E-15
v 0.2306447 0 0.0308305
v 0.1366856 0.0178 -0.02666372
v 0.1366856 0.0178 0.02666372
v -0.07871932 0 -0.0130305
v -0.07871932 0 0.0130305
v -0.1232424 0 -0.042
v -0.1232424 0 0.042
v -0.1537377 0 -0.0168
v -0.1587377 0 -0.0252
v -0.2417377 0 -0.042
v -0.2417377 0 -0.0252
v -0.2517377 0 -0.0336
v -0.1537377 0 0.0168
v -0.1587377 0 -0.0084
v -0.1587377 0 0.0252
v -0.1587377 0 0.0084
v -0.2417377 0 0.042
v -0.2417377 0 0.0252
v -0.2517377 0 0.0336
v -0.2417377 0 -0.0084
v -0.2417377 0 0.0084
v -0.2517377 0 7.219114E-16

vn 0.1341082 0.9909667 0
vn 0 1 0
vn -0.1341082 -0.9909667 0
vn 0 -1 0
vn 0.05698698 0.9983749 0
vn -0.03561143 0.9993657 0
vn 0.03561143 -0.9993657 0
vn -0.05698698 -0.9983749 0

vt -9.0805 -1.213799
vt -9.910933 2.273737E-13
vt -9.0805 1.213799
vt -1.049753 5.420754
vt 1.049753 5.420754
vt -0.513012 -3.088658
vt 0.513012 -3.088658
vt 1.213799 -8.921813
vt -1.213799 -8.921813
vt 1.049753 -5.15684
vt -1.049753 -5.15684
vt 3.099186 -0.513012
vt 3.099186 0.513012
vt 4.852061 -1.653543
vt 4.852061 1.653543
vt 6.052665 -0.6614173
vt 6.249515 -0.992126
vt 9.517232 -1.653543
vt 9.517232 -0.992126
vt 9.910933 -1.322835
vt 6.052665 0.6614173
vt 6.249515 -0.3307087
vt 6.249515 0.992126
vt 6.249515 0.3307087
vt 9.517232 1.653543
vt 9.517232 0.992126
vt 9.910933 1.322835
vt 9.517232 -0.3307087
vt 9.517232 0.3307087
vt 9.910933 2.842171E-14

usemtl white

f 3/3/1 2/2/2 1/1/1
f 1/1/3 2/2/4 3/3/3
f 6/6/6 5/5/5 4/4/5
f 5/5/5 6/6/6 7/7/6
f 4/4/8 5/5/8 6/6/7
f 7/7/7 6/6/7 5/5/8
f 4/10/5 3/9/1 1/8/1
f 3/9/1 4/10/5 5/11/5
f 1/8/3 3/9/3 4/10/8
f 5/11/8 4/10/8 3/9/3
f 8/14/2 7/13/6 6/12/6
f 7/13/6 8/14/2 9/15/2
f 9/15/2 8/14/2 10/16/2
f 10/16/2 8/14/2 11/17/2
f 11/17/2 8/14/2 12/18/2
f 11/17/2 12/18/2 13/19/2
f 13/19/2 12/18/2 14/20/2
f 15/21/2 9/15/2 10/16/2
f 16/22/2 15/21/2 10/16/2
f 17/23/2 9/15/2 15/21/2
f 15/21/2 16/22/2 18/24/2
f 9/15/2 17/23/2 19/25/2
f 19/25/2 17/23/2 20/26/2
f 19/25/2 20/26/2 21/27/2
f 18/24/2 16/22/2 22/28/2
f 18/24/2 22/28/2 23/29/2
f 23/29/2 22/28/2 24/30/2
f 6/12/7 7/13/7 8/14/4
f 9/15/4 8/14/4 7/13/7
f 10/16/4 8/14/4 9/15/4
f 11/17/4 8/14/4 10/16/4
f 12/18/4 8/14/4 11/17/4
f 13/19/4 12/18/4 11/17/4
f 14/20/4 12/18/4 13/19/4
f 10/16/4 9/15/4 15/21/4
f 10/16/4 15/21/4 16/22/4
f 15/21/4 9/15/4 17/23/4
f 18/24/4 16/22/4 15/21/4
f 19/25/4 17/23/4 9/15/4
f 20/26/4 17/23/4 19/25/4
f 21/27/4 20/26/4 19/25/4
f 22/28/4 16/22/4 18/24/4
f 23/29/4 22/28/4 18/24/4
f 24/30/4 22/28/4 23/29/4

