# Created by Kenney (www.kenney.nl)

mtllib utensilSpoon.mtl

g utensilSpoon

v 0.2187003 0.01 -0.0308305
v 0.2397933 0.01 5.775291E-15
v 0.2187003 0.01 0.0308305
v 0.1247412 0.0278 -0.02666372
v 0.1247412 0.0278 0.02666372
v -0.09066371 0.01 -0.0130305
v -0.09066371 0.01 0.0130305
v -0.09066371 0.01 -0.03
v -0.1162847 0 -0.01400169
v -0.1426252 0.01 -0.06
v -0.1416984 0 -0.02867431
v -0.1941723 0 -0.01247336
v -0.1941723 0 0.01247336
v -0.2397933 0.01 -0.03
v -0.2397933 0.01 0.03
v -0.1162847 0 0.01400169
v -0.1416984 0 0.02867431
v -0.1426252 0.01 0.06
v -0.09066371 0.01 0.03

vn 0.1341082 0.9909667 0
vn 0 1 0
vn -0.1341082 -0.9909667 0
vn 0 -1 0
vn 0.05698698 0.9983749 0
vn -0.05698698 -0.9983749 0
vn -0.08235438 0.9966031 0
vn 0.08235438 -0.9966031 0
vn -0.2711225 0.9492927 0.1591726
vn -0.2754877 0.9491925 0.1521191
vn -0.02646701 0.9520769 0.3047115
vn -0.05102991 0.9509583 0.3050811
vn 0.02646701 -0.9520769 -0.3047115
vn 0.2754877 -0.9491925 -0.1521191
vn 0.2711225 -0.9492927 -0.1591726
vn 0.05102991 -0.9509583 -0.3050811
vn 0.1481496 0.9742063 0.1702168
vn 0.1481496 0.9742063 -0.1702168
vn 0.1721186 0.978861 0.1104824
vn 0.1721186 0.978861 -0.1104824
vn -0.1721186 -0.978861 -0.1104824
vn -0.1481496 -0.9742063 0.1702168
vn -0.1481496 -0.9742063 -0.1702168
vn -0.1721186 -0.978861 0.1104824
vn -0.05102991 0.9509583 -0.3050811
vn -0.02646701 0.9520769 -0.3047115
vn 0.02646701 -0.9520769 0.3047115
vn 0.05102991 -0.9509583 0.3050811
vn -0.2711225 0.9492927 -0.1591726
vn -0.2754877 0.9491925 -0.1521191
vn 0.2754877 -0.9491925 0.1521191
vn 0.2711225 -0.9492927 0.1591726
vn -0.3635915 0.9315585 0
vn 0.3635915 -0.9315585 0

vt -8.610248 -1.213799
vt -9.440681 2.273737E-13
vt -8.610248 1.213799
vt 1.213799 -8.386498
vt -1.213799 -8.386498
vt 1.049753 -4.621525
vt -1.049753 -4.621525
vt -1.049753 4.984523
vt 1.049753 4.984523
vt -0.513012 -3.524889
vt 0.513012 -3.524889
vt -3.681775 -0.5750991
vt -4.240409 -1.696315
vt -6.04398 -0.5750991
vt -5.395733 -1.696315
vt 0.4910772 7.46729
vt -0.4910772 7.46729
vt 1.181102 9.306036
vt -1.181102 9.306036
vt -4.997375 2.58634
vt -7.159496 2.58634
vt -4.668413 3.83899
vt -8.672106 3.83899
vt 4.578139 -0.5512478
vt 4.578139 0.5512478
vt 5.578679 -1.12891
vt 5.578679 1.12891
vt 7.644578 -0.4910772
vt 7.644578 0.4910772
vt 4.997375 2.58634
vt 4.668413 3.83899
vt 7.159496 2.58634
vt 8.672106 3.83899
vt 3.681775 -0.5750991
vt 6.04398 -0.5750991
vt 4.240409 -1.696315
vt 5.395733 -1.696315
vt -1.181102 -3.181993
vt -0.513012 -3.181993
vt -0.5512478 -4.264804
vt 0.513012 -3.181993
vt 1.181102 -3.181993
vt 0.5512478 -4.264804

usemtl white

f 3/3/1 2/2/2 1/1/1
f 1/1/3 2/2/4 3/3/3
f 4/6/5 3/5/1 1/4/1
f 3/5/1 4/6/5 5/7/5
f 1/4/3 3/5/3 4/6/6
f 5/7/6 4/6/6 3/5/3
f 6/10/7 5/9/5 4/8/5
f 5/9/5 6/10/7 7/11/7
f 4/8/6 5/9/6 6/10/8
f 7/11/8 6/10/8 5/9/6
f 10/14/11 9/13/10 8/12/9
f 9/13/10 10/14/11 11/15/12
f 8/12/15 9/13/14 10/14/13
f 11/15/16 10/14/13 9/13/14
f 14/18/19 13/17/18 12/16/17
f 13/17/18 14/18/19 15/19/20
f 12/16/23 13/17/22 14/18/21
f 15/19/24 14/18/21 13/17/22
f 10/22/11 12/21/17 11/20/12
f 12/21/17 10/22/11 14/23/19
f 11/20/16 12/21/23 10/22/13
f 14/23/21 10/22/13 12/21/23
f 11/26/2 16/25/2 9/24/2
f 16/25/2 11/26/2 17/27/2
f 17/27/2 11/26/2 12/28/2
f 17/27/2 12/28/2 13/29/2
f 9/24/4 16/25/4 11/26/4
f 17/27/4 11/26/4 16/25/4
f 12/28/4 11/26/4 17/27/4
f 13/29/4 12/28/4 17/27/4
f 13/32/18 18/31/26 17/30/25
f 18/31/26 13/32/18 15/33/20
f 17/30/28 18/31/27 13/32/22
f 15/33/24 13/32/22 18/31/27
f 16/36/30 18/35/26 19/34/29
f 18/35/26 16/36/30 17/37/25
f 19/34/32 18/35/27 16/36/31
f 17/37/28 16/36/31 18/35/27
f 9/40/10 6/39/33 8/38/9
f 6/39/33 9/40/10 7/41/33
f 7/41/33 9/40/10 19/42/29
f 19/42/29 9/40/10 16/43/30
f 8/38/15 6/39/34 9/40/14
f 7/41/34 9/40/14 6/39/34
f 19/42/32 9/40/14 7/41/34
f 16/43/31 9/40/14 19/42/32

