# Created by Kenney (www.kenney.nl)

mtllib whippedCream.mtl

g whippedCream

v 0.005879943 0.09668045 -0.003394787
v 0.005879943 0.09668045 0.003394787
v 1.371632E-15 0.09668045 -0.006789573
v 1.371632E-15 0.09668045 0.006789573
v -0.005879943 0.09668045 -0.003394787
v -0.005879943 0.09668045 0.003394787
v 0.05923614 0 0.0342
v 0.05923614 0 -0.0342
v -4.114895E-16 0 0.0684
v -4.114895E-16 0 -0.0684
v -0.05923614 0 0.0342
v -0.05923614 0 -0.0342
v -0.03448728 0.06654046 0.01991124
v -4.114895E-16 0.06654046 0.03982248
v -0.03966037 0.0456 0.02289793
v -0.03448728 0.06654046 -0.01991124
v 0 0.0456 0.04579585
v -0.03966037 0.0456 -0.02289793
v 0.03448728 0.06654046 0.01991124
v 0 0.0456 -0.04579585
v 0.03966037 0.0456 0.02289793
v -4.114895E-16 0.06654046 -0.03982248
v 0.03448728 0.06654046 -0.01991124
v 0.03966037 0.0456 -0.02289793
v 1.371632E-15 0.06654046 -0.02168892
v 0.01878315 0.06654046 -0.01084446
v -0.01878315 0.06654046 -0.01084446
v 0.01878315 0.06654046 0.01084446
v -0.01878315 0.06654046 0.01084446
v 1.371632E-15 0.06654046 0.02168892
v -0.05923614 0.0456 0.0342
v -4.114895E-16 0.0456 0.0684
v -0.05923614 0.0456 -0.0342
v 0.05923614 0.0456 0.0342
v -4.114895E-16 0.0456 -0.0684
v 0.05923614 0.0456 -0.0342
v -0.06812156 0.0228 -0.03933
v -0.06812156 0.0228 0.03933
v 0 0.0228 -0.07866
v 0.06812156 0.0228 -0.03933
v 0 0.0228 0.07866
v 0.06812156 0.0228 0.03933

vn 0 0.76 0
vn 0 -0.76 0
vn -0.6329318 0.2084778 0.3654234
vn 0 0.2084778 0.7308468
vn -0.6329318 0.2084778 -0.3654234
vn 0.6329318 0.2084778 0.3654234
vn 0 0.2084778 -0.7308468
vn 0.6329318 0.2084778 -0.3654234
vn -0.5900237 0.3367927 -0.3406503
vn 0 0.3367927 -0.6813006
vn -0.5900237 0.3367927 0.3406503
vn 0.5900237 0.3367927 -0.3406503
vn 0 0.3367927 0.6813006
vn 0.5900237 0.3367927 0.3406503
vn -0.6002079 0.3118772 -0.3465302
vn -0.6002079 0.3118772 0.3465302
vn 0 0.3118772 -0.6930603
vn 0 0.3118772 0.6930603
vn 0.6002079 0.3118772 -0.3465302
vn 0.6002079 0.3118772 0.3465302
vn 0.6002079 -0.3118772 -0.3465302
vn 0 -0.3118772 -0.6930603
vn 0.6002079 -0.3118772 0.3465302
vn -0.6002079 -0.3118772 -0.3465302
vn 0 -0.3118772 0.6930603
vn -0.6002079 -0.3118772 0.3465302

vt 0 0

usemtl _defaultMat

f 3/1/1 2/1/1 1/1/1
f 2/1/1 3/1/1 4/1/1
f 4/1/1 3/1/1 5/1/1
f 4/1/1 5/1/1 6/1/1
f 9/1/2 8/1/2 7/1/2
f 8/1/2 9/1/2 10/1/2
f 10/1/2 9/1/2 11/1/2
f 10/1/2 11/1/2 12/1/2
f 15/1/3 14/1/4 13/1/3
f 16/1/5 15/1/3 13/1/3
f 14/1/4 15/1/3 17/1/4
f 15/1/3 16/1/5 18/1/5
f 17/1/4 19/1/6 14/1/4
f 16/1/5 20/1/7 18/1/5
f 19/1/6 17/1/4 21/1/6
f 20/1/7 16/1/5 22/1/7
f 21/1/6 23/1/8 19/1/6
f 22/1/7 24/1/8 20/1/7
f 23/1/8 21/1/6 24/1/8
f 24/1/8 22/1/7 23/1/8
f 26/1/1 22/1/1 25/1/1
f 25/1/1 22/1/1 27/1/1
f 26/1/1 23/1/1 22/1/1
f 27/1/1 22/1/1 16/1/1
f 23/1/1 26/1/1 19/1/1
f 28/1/1 19/1/1 26/1/1
f 27/1/1 16/1/1 29/1/1
f 13/1/1 29/1/1 16/1/1
f 19/1/1 28/1/1 14/1/1
f 14/1/1 29/1/1 13/1/1
f 14/1/1 28/1/1 30/1/1
f 14/1/1 30/1/1 29/1/1
f 32/1/1 15/1/1 31/1/1
f 31/1/1 15/1/1 33/1/1
f 32/1/1 17/1/1 15/1/1
f 18/1/1 33/1/1 15/1/1
f 32/1/1 21/1/1 17/1/1
f 34/1/1 21/1/1 32/1/1
f 18/1/1 35/1/1 33/1/1
f 20/1/1 35/1/1 18/1/1
f 21/1/1 34/1/1 24/1/1
f 24/1/1 35/1/1 20/1/1
f 36/1/1 24/1/1 34/1/1
f 24/1/1 36/1/1 35/1/1
f 5/1/9 25/1/10 27/1/9
f 29/1/11 5/1/9 27/1/9
f 25/1/10 5/1/9 3/1/10
f 5/1/9 29/1/11 6/1/11
f 3/1/10 26/1/12 25/1/10
f 29/1/11 4/1/13 6/1/11
f 26/1/12 3/1/10 1/1/12
f 4/1/13 29/1/11 30/1/13
f 1/1/12 28/1/14 26/1/12
f 30/1/13 2/1/14 4/1/13
f 28/1/14 1/1/12 2/1/14
f 2/1/14 30/1/13 28/1/14
f 38/1/16 33/1/15 37/1/15
f 33/1/15 39/1/17 37/1/15
f 33/1/15 38/1/16 31/1/16
f 39/1/17 33/1/15 35/1/17
f 38/1/16 32/1/18 31/1/16
f 35/1/17 40/1/19 39/1/17
f 32/1/18 38/1/16 41/1/18
f 40/1/19 35/1/17 36/1/19
f 41/1/18 34/1/20 32/1/18
f 36/1/19 42/1/20 40/1/19
f 42/1/20 36/1/19 34/1/20
f 34/1/20 41/1/18 42/1/20
f 8/1/21 39/1/22 40/1/21
f 42/1/23 8/1/21 40/1/21
f 39/1/22 8/1/21 10/1/22
f 8/1/21 42/1/23 7/1/23
f 10/1/22 37/1/24 39/1/22
f 42/1/23 9/1/25 7/1/23
f 37/1/24 10/1/22 12/1/24
f 9/1/25 42/1/23 41/1/25
f 12/1/24 38/1/26 37/1/24
f 41/1/25 11/1/26 9/1/25
f 11/1/26 41/1/25 38/1/26
f 38/1/26 12/1/24 11/1/26

