# Created by Kenney (www.kenney.nl)

mtllib whisk.mtl

g whisk

v -0.09570495 0.1169136 -0.03810527
v -0.3023178 0.1169136 -0.03810527
v -0.06459212 0.1169136 -0.03810527
v -0.3167049 0.1345342 -0.05572589
v -0.09570495 0.1345342 -0.05572589
v -0.05020495 0.1345342 -0.05572589
v -0.0334793 0.07880832 -7.219114E-16
v -0.004704951 0.07880832 -7.219114E-16
v -0.3622049 0.07880832 -7.219114E-16
v -0.3334306 0.07880832 -7.219114E-16
v -0.06459212 0.04070304 0.03810527
v -0.3023178 0.04070304 0.03810527
v -0.05020495 0.02308242 0.05572589
v -0.09570495 0.02308242 0.05572589
v -0.3167049 0.02308242 0.05572589
v -0.09570495 0.04070304 0.03810527
v 0.115295 0.07880832 0.02248807
v 0.115295 0.07880832 -0.02248807
v -0.0124215 0.07880832 0.01336546
v -0.0124215 0.07880832 -0.01336546
v -0.05020495 0.07880832 0.07880832
v -0.05020495 0.07880832 -0.07880832
v -0.06459212 0.07880832 0.053889
v -0.06459212 0.07880832 -0.053889
v -0.09570495 0.07880832 0.07880832
v -0.09570495 0.07880832 0.053889
v -0.09570495 0.07880832 -0.07880832
v -0.09570495 0.07880832 -0.053889
v -0.3023178 0.07880832 -0.053889
v -0.3167049 0.07880832 -0.07880832
v -0.3167049 0.07880832 0.07880832
v -0.3023178 0.07880832 0.053889
v -0.09570495 0.1326973 -7.219114E-16
v -0.3023178 0.1326973 -7.219114E-16
v -0.06459212 0.1326973 -7.219114E-16
v -0.3167049 0.1576166 0
v -0.09570495 0.1576166 0
v -0.05020495 0.1576166 0
v -0.06459212 0.02491932 -2.165734E-15
v -0.3023178 0.02491932 -2.165734E-15
v -0.05020495 0 -2.165734E-15
v -0.09570495 4.681145E-16 -2.165734E-15
v -0.3167049 4.681145E-16 -2.165734E-15
v -0.09570495 0.02491932 -2.165734E-15
v -0.3023178 0.1169136 0.03810527
v -0.3167049 0.1345342 0.05572589
v -0.09570495 0.1169136 0.03810527
v -0.09570495 0.1345342 0.05572589
v -0.06459212 0.1169136 0.03810527
v -0.3167049 0.02308242 -0.05572589
v -0.05020495 0.1345342 0.05572589
v -0.3023178 0.04070304 -0.03810527
v -0.05020495 0.02308242 -0.05572589
v -0.06459212 0.04070304 -0.03810527
v -0.09570495 0.02308242 -0.05572589
v -0.09570495 0.04070304 -0.03810527
v 0.337005 0.06880831 0.03248807
v 0.3622049 0.06880831 -7.219114E-16
v 0.337005 0.06880831 -0.03248807
v 0.337005 0.08880831 -0.03248807
v 0.3622049 0.08880831 -7.219114E-16
v 0.337005 0.08880831 0.03248807
v 0.115295 0.07100831 0.0253407
v 0.115295 0.07100831 -0.0253407
v 0.115295 0.08660831 -0.0253407
v 0.115295 0.08660831 0.0253407

vn 0 0.7071068 0.7071068
vn 0 -0.7071068 -0.7071068
vn 0 -1 0
vn 0 1 0
vn 0 0 1
vn 0 0 -1
vn 0 -0.7071068 0.7071068
vn 0 0.7071068 -0.7071068
vn -0.006944669 -0.9999759 0
vn -0.006944669 0.9999759 0
vn 1 0 0
vn 0.7901589 0 0.612902
vn -0.009922388 -0.9999508 0
vn -0.009922388 0.9999508 0
vn -0.03222078 0 0.9994808
vn -1 0 0
vn -0.03222078 0 -0.9994808
vn 0.7901589 0 -0.612902

vt -3.767911 4.315547
vt -11.90228 4.315547
vt -2.542997 4.315547
vt -12.4687 5.296622
vt -3.767911 5.296622
vt -1.976573 5.296622
vt -1.318083 2.193933
vt -0.1852343 2.193933
vt -14.26004 2.193933
vt -13.12719 2.193933
vt -2.542997 0.07231887
vt -11.90228 0.07231887
vt -1.976573 -0.9087567
vt -3.767911 -0.9087567
vt -12.4687 -0.9087567
vt -3.767911 0.07231887
vt 4.539175 0.8853571
vt 4.539175 -0.8853571
vt -0.4890356 0.5261992
vt -0.4890356 -0.5261992
vt -1.976573 3.10269
vt -1.318083 -2.842171E-14
vt -1.976573 -3.10269
vt -2.542997 2.121614
vt -2.542997 -2.121614
vt -3.767911 3.10269
vt -3.767911 2.121614
vt -3.767911 -3.10269
vt -3.767911 -2.121614
vt -11.90228 -2.121614
vt -12.4687 -3.10269
vt -12.4687 3.10269
vt -11.90228 2.121614
vt -13.12719 -2.842171E-14
vt -14.26004 -2.842171E-14
vt -3.767911 5.224303
vt -11.90228 5.224303
vt -2.542997 5.224303
vt -12.4687 6.205379
vt -3.767911 6.205379
vt -1.976573 6.205379
vt -1.318083 3.10269
vt -0.1852343 3.10269
vt -14.26004 3.10269
vt -13.12719 3.10269
vt -2.542997 0.9810756
vt -11.90228 0.9810756
vt -1.976573 -1.271287E-27
vt -3.767911 1.84297E-14
vt -12.4687 1.84297E-14
vt -3.767911 0.9810756
vt -12.4687 -0.9087567
vt -11.90228 0.07231884
vt -1.976573 -0.9087567
vt -2.542997 0.07231884
vt -3.767911 -0.9087567
vt -3.767911 0.07231884
vt 13.26791 1.279058
vt 14.26004 -2.842171E-14
vt 13.26791 -1.279058
vt -13.26791 -1.279058
vt -13.26791 1.279058
vt 8.740005 3.49639
vt 8.740005 2.708989
vt 7.121271 3.49639
vt 7.121271 2.708989
vt 1.279058 -13.24038
vt -1.279058 -13.24038
vt 0.9976652 -4.511213
vt -0.9976652 -4.511213
vt -1.279058 13.30195
vt 1.279058 13.30195
vt -0.9976652 4.572785
vt 0.9976652 4.572785
vt 13.30223 2.708989
vt 4.568964 2.795603
vt 13.30223 3.49639
vt 4.568964 3.409776
vt -0.9976652 2.795603
vt -0.9976652 3.409776
vt 0.9976652 2.795603
vt 0.9976652 3.409776
vt -13.30223 2.708989
vt -13.30223 3.49639
vt -4.568964 2.795603
vt -4.568964 3.409776
vt -7.121271 3.49639
vt -7.121271 2.708989
vt -8.740005 3.49639
vt -8.740005 2.708989

usemtl white

f 3/3/1 2/2/1 1/1/1
f 4/4/1 2/2/1 3/3/1
f 4/4/1 3/3/1 5/5/1
f 3/3/1 6/6/1 5/5/1
f 7/7/1 6/6/1 3/3/1
f 7/7/1 8/8/1 6/6/1
f 9/9/1 2/2/1 4/4/1
f 9/9/1 10/10/1 2/2/1
f 11/11/1 8/8/1 7/7/1
f 9/9/1 12/12/1 10/10/1
f 11/11/1 13/13/1 8/8/1
f 13/13/1 11/11/1 14/14/1
f 15/15/1 12/12/1 9/9/1
f 14/14/1 11/11/1 15/15/1
f 12/12/1 15/15/1 11/11/1
f 12/12/1 11/11/1 16/16/1
f 1/1/2 2/2/2 3/3/2
f 3/3/2 2/2/2 4/4/2
f 5/5/2 3/3/2 4/4/2
f 5/5/2 6/6/2 3/3/2
f 3/3/2 6/6/2 7/7/2
f 6/6/2 8/8/2 7/7/2
f 4/4/2 2/2/2 9/9/2
f 2/2/2 10/10/2 9/9/2
f 7/7/2 8/8/2 11/11/2
f 10/10/2 12/12/2 9/9/2
f 8/8/2 13/13/2 11/11/2
f 14/14/2 11/11/2 13/13/2
f 9/9/2 12/12/2 15/15/2
f 15/15/2 11/11/2 14/14/2
f 11/11/2 15/15/2 12/12/2
f 16/16/2 11/11/2 12/12/2
f 19/19/3 18/18/3 17/17/3
f 18/18/3 19/19/3 20/20/3
f 20/20/3 19/19/3 21/21/3
f 20/20/3 21/21/3 7/22/3
f 7/22/3 22/23/3 20/20/3
f 7/22/3 21/21/3 23/24/3
f 22/23/3 7/22/3 24/25/3
f 23/24/3 21/21/3 25/26/3
f 23/24/3 25/26/3 26/27/3
f 22/23/3 24/25/3 27/28/3
f 27/28/3 24/25/3 28/29/3
f 27/28/3 28/29/3 29/30/3
f 27/28/3 29/30/3 30/31/3
f 26/27/3 25/26/3 31/32/3
f 26/27/3 31/32/3 32/33/3
f 30/31/3 29/30/3 10/34/3
f 32/33/3 31/32/3 10/34/3
f 30/31/3 10/34/3 9/35/3
f 10/34/3 31/32/3 9/35/3
f 17/17/4 18/18/4 19/19/4
f 20/20/4 19/19/4 18/18/4
f 21/21/4 19/19/4 20/20/4
f 7/22/4 21/21/4 20/20/4
f 20/20/4 22/23/4 7/22/4
f 23/24/4 21/21/4 7/22/4
f 24/25/4 7/22/4 22/23/4
f 25/26/4 21/21/4 23/24/4
f 26/27/4 25/26/4 23/24/4
f 27/28/4 24/25/4 22/23/4
f 28/29/4 24/25/4 27/28/4
f 29/30/4 28/29/4 27/28/4
f 30/31/4 29/30/4 27/28/4
f 31/32/4 25/26/4 26/27/4
f 32/33/4 31/32/4 26/27/4
f 10/34/4 29/30/4 30/31/4
f 10/34/4 31/32/4 32/33/4
f 9/35/4 10/34/4 30/31/4
f 9/35/4 31/32/4 10/34/4
f 35/38/5 34/37/5 33/36/5
f 36/39/5 34/37/5 35/38/5
f 36/39/5 35/38/5 37/40/5
f 35/38/5 38/41/5 37/40/5
f 7/42/5 38/41/5 35/38/5
f 7/42/5 8/43/5 38/41/5
f 9/44/5 34/37/5 36/39/5
f 9/44/5 10/45/5 34/37/5
f 39/46/5 8/43/5 7/42/5
f 9/44/5 40/47/5 10/45/5
f 39/46/5 41/48/5 8/43/5
f 41/48/5 39/46/5 42/49/5
f 43/50/5 40/47/5 9/44/5
f 42/49/5 39/46/5 43/50/5
f 40/47/5 43/50/5 39/46/5
f 40/47/5 39/46/5 44/51/5
f 33/36/6 34/37/6 35/38/6
f 35/38/6 34/37/6 36/39/6
f 37/40/6 35/38/6 36/39/6
f 37/40/6 38/41/6 35/38/6
f 35/38/6 38/41/6 7/42/6
f 38/41/6 8/43/6 7/42/6
f 36/39/6 34/37/6 9/44/6
f 34/37/6 10/45/6 9/44/6
f 7/42/6 8/43/6 39/46/6
f 10/45/6 40/47/6 9/44/6
f 8/43/6 41/48/6 39/46/6
f 42/49/6 39/46/6 41/48/6
f 9/44/6 40/47/6 43/50/6
f 43/50/6 39/46/6 42/49/6
f 39/46/6 43/50/6 40/47/6
f 44/51/6 39/46/6 40/47/6
f 47/1/7 46/4/7 45/2/7
f 45/2/7 46/4/7 10/10/7
f 47/1/7 48/5/7 46/4/7
f 10/10/7 46/4/7 9/9/7
f 49/3/7 48/5/7 47/1/7
f 50/52/7 10/10/7 9/9/7
f 49/3/7 51/6/7 48/5/7
f 50/52/7 52/53/7 10/10/7
f 7/7/7 51/6/7 49/3/7
f 51/6/7 7/7/7 8/8/7
f 7/7/7 53/54/7 8/8/7
f 53/54/7 7/7/7 54/55/7
f 55/56/7 52/53/7 50/52/7
f 53/54/7 54/55/7 55/56/7
f 55/56/7 56/57/7 52/53/7
f 55/56/7 54/55/7 56/57/7
f 8/8/8 7/7/8 51/6/8
f 8/8/8 53/54/8 7/7/8
f 49/3/8 51/6/8 7/7/8
f 54/55/8 7/7/8 53/54/8
f 48/5/8 51/6/8 49/3/8
f 47/1/8 48/5/8 49/3/8
f 55/56/8 54/55/8 53/54/8
f 56/57/8 54/55/8 55/56/8
f 52/53/8 56/57/8 55/56/8
f 50/52/8 52/53/8 55/56/8
f 46/4/8 48/5/8 47/1/8
f 45/2/8 46/4/8 47/1/8
f 10/10/8 52/53/8 50/52/8
f 10/10/8 46/4/8 45/2/8
f 9/9/8 10/10/8 50/52/8
f 9/9/8 46/4/8 10/10/8

usemtl greyDark

f 59/60/9 58/59/3 57/58/9
f 62/62/10 61/35/4 60/61/10
f 62/65/12 58/64/11 61/63/11
f 58/64/11 62/65/12 57/66/12
f 63/69/13 59/68/9 57/67/9
f 59/68/9 63/69/13 64/70/13
f 65/73/14 62/72/10 60/71/10
f 62/72/10 65/73/14 66/74/14
f 62/77/15 63/76/15 57/75/15
f 63/76/15 62/77/15 66/78/15
f 63/81/16 65/80/16 64/79/16
f 65/80/16 63/81/16 66/82/16
f 64/85/17 60/84/17 59/83/17
f 60/84/17 64/85/17 65/86/17
f 61/89/11 59/88/18 60/87/18
f 59/88/18 61/89/11 58/90/11

