# Created by Kenney (www.kenney.nl)

mtllib wineRed.mtl

g wineRed

v 0.04769856 0 -0.08261633
v -0.04769856 0 -0.08261633
v 0.02614633 0.01832463 -0.04528678
v -0.02614633 0.01832463 -0.04528678
v -0.09539712 0 0
v -0.09539712 0.3664927 0
v -0.04769856 0 0.08261633
v -0.04769856 0.3664927 0.08261633
v -0.04769856 0.3664927 -0.08261633
v 0.04769856 0.3664927 -0.08261633
v 0.03747744 0.528192 0
v 0.04429152 0.423136 0
v 0.01873872 0.528192 0.03245642
v 0.02214576 0.423136 0.03835758
v 0.09539712 0.3664927 0
v 0.04769856 0.3664927 0.08261633
v 0.02214576 0.423136 -0.03835758
v 0.01873872 0.528192 -0.03245642
v -0.02214576 0.423136 0.03835758
v -0.01873872 0.528192 0.03245642
v -0.04429152 0.423136 0
v -0.02214576 0.423136 -0.03835758
v -0.03747744 0.528192 0
v 0.04769856 0 0.08261633
v 0.02614633 0.01832463 0.04528678
v -0.02614633 0.01832463 0.04528678
v 0.09539712 0 0
v 0.05229266 0.01832463 0
v -0.05229266 0.01832463 0
v 0.09539712 0.3174743 0
v 0.0596232 0.3174743 0.06196225
v 0.0596232 0.1223169 0.06196225
v 0.09539712 0.1223169 0
v -0.01873872 0.528192 -0.03245642
v 0.0596232 0.3174743 -0.06196225
v 0.0596232 0.1223169 -0.06196225
v 0.02379359 0.69888 0
v 0.02379359 0.6512665 0
v 0.01189679 0.69888 0.02060585
v 0.01189679 0.6512665 0.02060585
v 0.01189679 0.69888 -0.02060585
v -0.01189679 0.69888 -0.02060585
v -0.01189679 0.69888 0.02060585
v -0.02379359 0.69888 0
v -0.01189679 0.6512665 -0.02060585
v -0.02379359 0.6512665 0
v -0.01189679 0.6512665 0.02060585
v 0.01189679 0.6512665 -0.02060585
v 0.01424143 0.6064665 -0.02466687
v 0.02848285 0.6064665 0
v -0.01424143 0.6064665 -0.02466687
v -0.01922593 0.6288666 -0.03330028
v 0.01922593 0.6288666 -0.03330028
v -0.02848285 0.6064665 0
v -0.01424143 0.6064665 0.02466687
v 0.01424143 0.6064665 0.02466687
v -0.03845185 0.6288666 0
v -0.03845185 0.6512665 0
v -0.01922593 0.6288666 0.03330028
v -0.01922593 0.6512665 0.03330028
v 0.01922593 0.6512665 -0.03330028
v 0.03845185 0.6512665 0
v 0.03845185 0.6288666 0
v 0.01922593 0.6288666 0.03330028
v 0.01922593 0.6512665 0.03330028
v -0.01922593 0.6512665 -0.03330028

vn -0.1956177 -0.9202907 0.3388198
vn 0.1956177 -0.9202907 0.3388198
vn -1 0 0
vn -0.5 0 0.8660254
vn -0.5 0 -0.8660254
vn 0.5 0 -0.8660254
vn 0.9979031 0.06472539 0
vn 0.4989516 0.0647254 0.8642095
vn 0.7424684 0.6698811 0
vn 0.3712342 0.6698812 0.6429965
vn 0.4989516 0.0647254 -0.8642095
vn -0.4989516 0.0647254 0.8642095
vn -0.7424684 0.6698811 0
vn -0.3712342 0.6698812 0.6429965
vn -0.3712342 0.6698812 -0.6429965
vn 0.3712342 0.6698812 -0.6429965
vn -0.9979031 0.06472539 0
vn -0.1956177 -0.9202907 -0.3388198
vn 0.1956177 -0.9202907 -0.3388198
vn -0.3912354 -0.9202906 0
vn 0.3912354 -0.9202906 0
vn 1 0 0
vn 0.5 0 0.8660254
vn 0.8660254 0 0.5
vn 0 -1 0
vn -0.4989516 0.0647254 -0.8642095
vn 0.8660254 0 -0.5
vn 0 1 0
vn 0.4967312 0.1141595 -0.8603637
vn 0.9934624 0.1141595 0
vn -0.456804 -0.4065962 -0.7912076
vn 0.456804 -0.4065962 -0.7912076
vn -0.4967312 0.1141595 -0.8603637
vn -0.9934624 0.1141595 0
vn -0.4967312 0.1141595 0.8603637
vn 0.4967312 0.1141595 0.8603637
vn -0.9136079 -0.4065962 0
vn -0.456804 -0.4065962 0.7912076
vn 0.9136079 -0.4065962 0
vn 0.456804 -0.4065962 0.7912076

vt 1.877896 -2.919788
vt -1.877896 -2.919788
vt 1.029383 -1.282595
vt -1.029383 -1.282595
vt -1.877896 0
vt -1.877896 14.42885
vt 1.877896 0
vt 1.877896 14.42885
vt -1.877896 -6.720029E-18
vt 1.877896 -6.720029E-18
vt 0.7377449 20.69057
vt 0.8718803 16.54799
vt -0.7377449 20.69057
vt -0.8718803 16.54799
vt 0.8718803 12.19714
vt 1.877896 9.36706
vt -0.8718803 12.19714
vt -1.877896 9.36706
vt 1.877896 12.49899
vt -0.938948 12.49899
vt -0.938948 4.815627
vt -1.877896 -7.458999E-17
vt 1.877896 -7.458999E-17
vt 1.877896 4.815627
vt 2.058766 0
vt 1.029383 -1.782944
vt 1.029383 1.782944
vt -1.029383 1.782944
vt -1.029383 -1.782944
vt -2.058766 0
vt -1.877896 12.49899
vt 0.938948 12.49899
vt 1.877896 5.514071E-17
vt 0.938948 4.815627
vt -1.877896 5.514071E-17
vt -1.877896 4.815627
vt 1.877896 -4.644574E-17
vt -1.877896 -4.644574E-17
vt 0.4683777 27.51496
vt 0.4683777 25.64042
vt -0.4683777 27.51496
vt -0.4683777 25.64042
vt -0.9367554 0
vt -0.4683777 0.811254
vt -0.4683777 -0.811254
vt 0.4683777 -0.811254
vt 0.4683777 0.811254
vt 0.9367554 0
vt 0.7377449 20.56621
vt -0.7377449 20.56621
vt 0.5606861 23.66311
vt -0.5606861 23.66311
vt 0.5606861 22.6284
vt -0.5606861 22.6284
vt 0.7569262 23.57352
vt -0.7569262 23.57352
vt -0.7569262 24.75853
vt -0.7569262 25.64042
vt 0.7569262 24.75853
vt 0.7569262 25.64042
vt -1.513852 0
vt -0.7569262 -1.311035
vt -0.7569262 1.311035
vt 0.7569262 -1.311035
vt 0.7569262 1.311035
vt 1.513852 0

usemtl brownDarkest

f 3/3/1 2/2/2 1/1/1
f 2/2/2 3/3/1 4/4/2
f 7/7/4 6/6/3 5/5/3
f 6/6/3 7/7/4 8/8/4
f 5/10/3 9/6/5 2/9/5
f 9/6/5 5/10/3 6/8/3
f 9/8/5 1/5/6 2/7/5
f 1/5/6 9/8/5 10/6/6
f 13/13/8 12/12/7 11/11/7
f 12/12/7 13/13/8 14/14/8
f 14/17/10 15/16/9 12/15/9
f 15/16/9 14/17/10 16/18/10
f 18/11/11 12/14/7 17/12/11
f 12/14/7 18/11/11 11/13/7
f 13/11/8 19/14/12 14/12/8
f 19/14/12 13/11/8 20/13/12
f 8/16/14 21/17/13 6/18/13
f 21/17/13 8/16/14 19/15/14
f 22/15/15 10/18/16 9/16/15
f 10/18/16 22/15/15 17/17/16
f 19/12/12 23/13/17 21/14/17
f 23/13/17 19/12/12 20/11/12
f 7/1/19 25/4/18 24/2/18
f 25/4/18 7/1/19 26/3/19
f 24/1/18 28/4/20 27/2/20
f 28/4/20 24/1/18 25/3/18
f 7/2/19 29/3/21 26/4/19
f 29/3/21 7/2/19 5/1/21
f 16/6/23 30/19/22 15/8/22
f 30/19/22 16/6/23 31/20/24
f 31/20/24 16/6/23 32/21/24
f 24/22/23 32/21/24 16/6/23
f 27/23/22 32/21/24 24/22/23
f 32/21/24 27/23/22 33/24/22
f 28/3/20 1/2/1 27/1/20
f 1/2/1 28/3/20 3/4/1
f 25/27/25 3/26/25 28/25/25
f 3/26/25 25/27/25 26/28/25
f 3/26/25 26/28/25 4/29/25
f 4/29/25 26/28/25 29/30/25
f 17/15/16 15/18/9 10/16/16
f 15/18/9 17/15/16 12/17/9
f 6/16/13 22/17/15 9/18/15
f 22/17/15 6/16/13 21/15/13
f 21/12/17 34/13/26 22/14/26
f 34/13/26 21/12/17 23/11/17
f 34/11/26 17/14/11 22/12/26
f 17/14/11 34/11/26 18/13/11
f 29/4/21 2/1/2 4/3/2
f 2/1/2 29/4/21 5/2/21
f 14/15/10 8/18/14 16/16/10
f 8/18/14 14/15/10 19/17/14
f 35/32/27 15/6/22 30/31/22
f 35/32/27 10/8/6 15/6/22
f 10/8/6 35/32/27 1/33/6
f 36/34/27 1/33/6 35/32/27
f 1/33/6 36/34/27 27/35/22
f 27/35/22 36/34/27 33/36/22
f 16/8/23 7/38/4 24/37/23
f 7/38/4 16/8/23 8/6/4

usemtl brownLight

f 30/31/22 36/34/27 35/32/27
f 36/34/27 30/31/22 33/36/22
f 31/20/24 33/24/22 30/19/22
f 33/24/22 31/20/24 32/21/24

usemtl brown

f 39/41/23 38/40/22 37/39/22
f 38/40/22 39/41/23 40/42/23
f 41/45/28 39/44/28 37/43/28
f 39/44/28 41/45/28 42/46/28
f 39/44/28 42/46/28 43/47/28
f 43/47/28 42/46/28 44/48/28
f 46/40/3 42/41/5 45/42/5
f 42/41/5 46/40/3 44/39/3
f 39/39/23 47/42/4 40/40/23
f 47/42/4 39/39/23 43/41/4
f 42/39/5 48/42/6 45/40/5
f 48/42/6 42/39/5 41/41/6
f 47/40/4 44/41/3 46/42/3
f 44/41/3 47/40/4 43/39/4
f 37/41/22 48/40/6 41/39/6
f 48/40/6 37/41/22 38/42/22

usemtl red

f 49/51/29 11/50/30 18/49/29
f 11/50/30 49/51/29 50/52/30
f 52/55/31 49/54/32 51/53/31
f 49/54/32 52/55/31 53/56/32
f 23/49/34 51/52/33 34/50/33
f 51/52/33 23/49/34 54/51/34
f 20/49/35 54/52/34 23/50/34
f 54/52/34 20/49/35 55/51/35
f 56/51/36 20/50/35 13/49/36
f 20/50/35 56/51/36 55/52/35
f 51/51/33 18/50/29 34/49/33
f 18/50/29 51/51/33 49/52/29
f 59/59/4 58/58/3 57/57/3
f 58/58/3 59/59/4 60/60/4
f 62/58/22 53/59/6 61/60/6
f 53/59/6 62/58/22 63/57/22
f 55/53/38 57/56/37 54/54/37
f 57/56/37 55/53/38 59/55/38
f 64/56/40 50/53/39 63/55/39
f 50/53/39 64/56/40 56/54/40
f 51/54/31 57/55/37 52/56/31
f 57/55/37 51/54/31 54/53/37
f 64/55/40 55/54/38 56/53/40
f 55/54/38 64/55/40 59/56/38
f 65/60/23 59/57/4 64/59/23
f 59/57/4 65/60/23 60/58/4
f 66/60/5 53/57/6 52/59/5
f 53/57/6 66/60/5 61/58/6
f 65/58/23 63/59/22 62/60/22
f 63/59/22 65/58/23 64/57/23
f 56/52/36 11/49/30 50/51/30
f 11/49/30 56/52/36 13/50/36
f 63/56/39 49/53/32 53/55/32
f 49/53/32 63/56/39 50/54/39
f 57/59/3 66/58/5 52/57/5
f 66/58/5 57/59/3 58/60/3
f 61/62/28 38/43/28 62/61/28
f 38/43/28 65/63/28 62/61/28
f 38/43/28 61/62/28 48/45/28
f 65/63/28 38/43/28 40/44/28
f 48/45/28 61/62/28 66/64/28
f 48/45/28 66/64/28 45/46/28
f 65/63/28 40/44/28 60/65/28
f 60/65/28 40/44/28 47/47/28
f 45/46/28 66/64/28 46/48/28
f 60/65/28 47/47/28 46/48/28
f 46/48/28 66/64/28 58/66/28
f 60/65/28 46/48/28 58/66/28

